<svg xmlns="http://www.w3.org/2000/svg" viewBox="0 0 1000 640"><defs><style>.cls-1{fill:#fff5ef;}.cls-2{fill:#fff;}.cls-3{fill:#e94e3c;}.cls-4{fill:#333;}.cls-5{fill:#e60000;}.cls-6{fill:#0670b0;}.cls-7{fill:#14983d;}.cls-10,.cls-12,.cls-8,.cls-9{fill:none;stroke-miterlimit:10;}.cls-8{stroke:#e60000;stroke-width:4px;}.cls-9{stroke:#69bd83;}.cls-10,.cls-9{stroke-width:2px;}.cls-10{stroke:#5eb7e8;}.cls-11{fill:#b2b2b2;}.cls-12{stroke:#b2b2b2;}</style></defs><title>ベクトルスマートオブジェクト</title><g id="レイヤー_3" data-name="レイヤー 3"><rect class="cls-1" width="1000" height="640"/><rect class="cls-2" x="116.61" y="232.72" width="322.92" height="313.82"/><rect class="cls-3" x="70" y="134.8" width="860" height="37.42"/><path class="cls-2" d="M391.48,145.59v16.84h-2v-1.22H380v1.3h-1.91V145.59ZM380,147.47v4.9h9.46v-4.9Zm9.46,11.85v-5.1H380v5.1Z"/><path class="cls-2" d="M409.18,153.74a21.28,21.28,0,0,0,7,6.44,8.28,8.28,0,0,0-1.42,1.63,25.7,25.7,0,0,1-7-7v7.95h-2v-7.89a23.85,23.85,0,0,1-6.95,7.11,10.85,10.85,0,0,0-1.38-1.59,20.09,20.09,0,0,0,7-6.62H398v-1.87h7.83v-7.55h2v7.55h7.87v1.87Zm-7.53-2.93a17.75,17.75,0,0,0-2.6-4.68l1.69-.75a18.49,18.49,0,0,1,2.75,4.6Zm13.21-4.74a46.26,46.26,0,0,1-3.26,4.9l-1.6-.75a27.74,27.74,0,0,0,2.81-5Z"/><path class="cls-2" d="M433.88,152.15c0,1.75.7,6.47,4.38,8.92-.34.4-.88,1.16-1.17,1.6-2.75-1.82-3.87-5.46-4.13-7.1a10.82,10.82,0,0,1-4.66,7.1,9.06,9.06,0,0,0-1.09-1.52,7.62,7.62,0,0,0,1.11-.79h-6v1.45h-1.76V145.53h8.39v1.72h-6.63v3.19l1-1.08c.66.6,1.36,1.29,2.05,2a28.48,28.48,0,0,0,.94-3.64L428,148a30.82,30.82,0,0,1-1.35,4.77,17.72,17.72,0,0,1,2.15,2.86L427.6,157a18.87,18.87,0,0,0-1.71-2.45,16,16,0,0,1-2.25,3.6,8.67,8.67,0,0,0-1.35-1.17v1.63h6.77v1.06a11.23,11.23,0,0,0,3-7.53v-2.59h-.9a15.87,15.87,0,0,1-1.73,4.14,8.53,8.53,0,0,0-1.52-1.19c1.3-1.94,2-5.06,2.43-8.23l1.86.3c-.16,1.11-.36,2.21-.6,3.27h4.8l.3-.12,1.27.49a27.39,27.39,0,0,1-1.39,5.5l-1.36-.74a28.74,28.74,0,0,0,.74-3.42h-2.07ZM422.29,157a13.33,13.33,0,0,0,2.39-3.85c-.78-.87-1.6-1.71-2.39-2.43Z"/><path class="cls-2" d="M450.27,159.92a11.17,11.17,0,0,0,1.77-.28c2.55-.58,4.82-2.43,4.82-5.64a5.26,5.26,0,0,0-4.78-5.54A46,46,0,0,1,450.9,154c-1.21,4.06-2.86,6.32-4.84,6.32s-3.78-2.22-3.78-5.54c0-4.42,3.92-8.25,8.9-8.25,4.78,0,7.81,3.33,7.81,7.51s-2.67,7-7.53,7.73Zm-1.4-6.3A27.83,27.83,0,0,0,450,148.5a6.66,6.66,0,0,0-5.66,6.14c0,2.29,1,3.34,1.83,3.34S447.94,156.69,448.87,153.62Z"/><path class="cls-2" d="M469.32,155.49c-.26-.65-.83-1.73-1.33-2.74v10h-1.83v-8.85a20.24,20.24,0,0,1-2.24,5A10.86,10.86,0,0,0,463,157a19.93,19.93,0,0,0,3-7.19h-2.59V148.1h2.73v-3.78H468v3.78h2.43v1.72H468v.62c.54.75,2.07,3.16,2.43,3.74Zm8.65-1a15.28,15.28,0,0,0,4,5.66,7.66,7.66,0,0,0-1.37,1.47,18.76,18.76,0,0,1-3.63-5.7v6.8h-1.83v-6.66a15.81,15.81,0,0,1-4.56,5.72,7.49,7.49,0,0,0-1.24-1.45,14.26,14.26,0,0,0,4.84-5.84h-3.64v-1.71h4.6v-3.17h-2.23a11.56,11.56,0,0,1-1.24,2.71,11.09,11.09,0,0,0-1.49-.94,15.07,15.07,0,0,0,2-6.13l1.73.29c-.13.82-.29,1.6-.47,2.37h1.73v-3.6H477v3.6h3.83v1.7H477v3.17h4.44v1.71Z"/><path class="cls-2" d="M491.07,144.88A29.17,29.17,0,0,1,489.2,149v13.71h-1.74V151.79a21.54,21.54,0,0,1-1.59,1.93,16.53,16.53,0,0,0-1-1.83,21.71,21.71,0,0,0,4.49-7.55Zm8.74,3.08v2.93h3.53v11.36h-1.81v-1.12h-8.77v1.22H491V150.89h3.37V148h-3.59v-1.69h12.67V148Zm-7.05,11.54h1.81v-6.95h-1.81ZM498,148h-1.89v2.93H498Zm-1.89,4.59v6.95H498v-6.95Zm5.38,0h-1.9v6.95h1.9Z"/><path class="cls-2" d="M517.39,145.12H519l-5.58,19.64H511.8Z"/><path class="cls-2" d="M530.3,148.34a16.86,16.86,0,0,1-2,1.3,12.46,12.46,0,0,0-1.36-1.36,15,15,0,0,0,5.22-4l1.73.62a16.62,16.62,0,0,1-1.83,2v4.64H530.3ZM535,160.51a27.62,27.62,0,0,1-6.16,2.28,10.37,10.37,0,0,0-1.37-1.36,23.49,23.49,0,0,0,5.86-1.69Zm-5-8.34h13.09v7.55H530.08Zm1.83,2.17h9.38v-1h-9.38Zm0,2.13h9.38v-1.05h-9.38Zm0,2.13h9.38v-1h-9.38Zm6.2-12.27c-1.22.06-2.47.12-3.63.14a5.47,5.47,0,0,0-.38-1.21,69.38,69.38,0,0,0,9-.78l1,1.17c-1.19.22-2.65.4-4.2.54v1.2h5.4v1.35h-5.4v1.2h4.6v1.35H533.9v-1.35h4.21v-1.2h-5v-1.35h5Zm1.35,13.45c2.13.64,4.54,1.47,6,2.05l-2.21.9a39.32,39.32,0,0,0-5.34-2Z"/><path class="cls-2" d="M559.45,160.51H567v1.62H550.11v-1.62h7.37V156h-6.41v-1.61h6.41V152h-3.94v-1a29.9,29.9,0,0,1-3.13,2,7,7,0,0,0-1.16-1.51,21.63,21.63,0,0,0,8.19-7.11h1.91a22.12,22.12,0,0,0,8.59,6.87,11.34,11.34,0,0,0-1.21,1.66,26.07,26.07,0,0,1-3.21-2V152h-4.07v2.39H566V156h-6.54Zm-5.39-4.26a12.83,12.83,0,0,1,1.87,3.45l-1.62.72a13.57,13.57,0,0,0-1.77-3.57Zm8.78-5.95a22.55,22.55,0,0,1-4.36-4.21,21.53,21.53,0,0,1-4.15,4.21Zm-2.07,9.5a22.27,22.27,0,0,0,2-3.57l1.79.66a36.22,36.22,0,0,1-2.43,3.53Z"/><path class="cls-2" d="M578.55,154.52l-2.51.72v5.41c0,1-.2,1.46-.78,1.74a6.87,6.87,0,0,1-2.82.32,7.26,7.26,0,0,0-.54-1.7c.85,0,1.67,0,1.91,0s.38-.08.38-.38v-4.86c-.86.26-1.68.48-2.43.68l-.48-1.81c.8-.2,1.81-.42,2.91-.72v-4h-2.63v-1.72h2.63v-3.9H576v3.9h2.19v1.72H576v3.48c.74-.2,1.51-.4,2.27-.63Zm.84-.66h9.52v8.75h-1.85v-.8h-5.9v.9h-1.77Zm7.39-3.13c1.05,0,1.21-.37,1.35-2.41a5.82,5.82,0,0,0,1.68.68c-.24,2.71-.8,3.41-2.91,3.41h-4.31c-2.51,0-3.18-.54-3.18-2.51v-5.54h1.85v2.83a31.19,31.19,0,0,0,6-1.83l1.39,1.37a40.48,40.48,0,0,1-7.35,2v1.2c0,.71.24.83,1.47.83Zm-5.62,4.67v1.69h5.9V155.4Zm5.9,4.9v-1.74h-5.9v1.74Z"/><path class="cls-2" d="M599.5,156.37c-.26-.64-.84-1.75-1.36-2.69v9h-1.73v-8.49a18.66,18.66,0,0,1-2.15,4.82,9.52,9.52,0,0,0-.88-1.61,21.43,21.43,0,0,0,2.87-7.17H593.8v-1.72h2.61V144.3h1.73v4.24h2.12v1.72h-2.12v1.19c.56.74,2,3,2.36,3.55Zm4.42,2.55a12.89,12.89,0,0,1-3.19,3.23,7.45,7.45,0,0,0-1.17-1.14,11,11,0,0,0,2.91-2.87Zm3.05-1.11V161c0,.78-.12,1.24-.7,1.48a6.62,6.62,0,0,1-2.55.26,5.81,5.81,0,0,0-.52-1.5c.82,0,1.52,0,1.74,0s.28-.06.28-.26v-3.16H600.3v-1.52H612v1.52Zm-3.09-11.14H600.4v-1.53H612v1.53h-3.59v1.18h3.07v4.88H601v-4.88h2.85Zm-2.31,8.47v-1.4h9.36v1.4Zm1-3.77H604v-2.11h-1.47Zm4.32-4.7h-1.55v1.18h1.55Zm-1.55,2.59v2.11h1.55v-2.11Zm4,8.92a20,20,0,0,1,2.75,3l-1.38,1a21.92,21.92,0,0,0-2.68-3.09Zm.46-8.92h-1.64v2.11h1.64Z"/><path class="cls-4" d="M193.21,40.36v19.2H191.4V58.14H179.92v1.51h-1.74V40.36Zm-13.29,1.69V48.3H191.4V42.05Zm11.48,14.4V50H179.92v6.46Z"/><path class="cls-4" d="M211.17,45.34a20.76,20.76,0,0,0,8.89,9.4,6.14,6.14,0,0,0-1.27,1.51,22.93,22.93,0,0,1-8.69-9.46v7.09h4.4V55.6h-4.4v4.3h-1.78V55.6H203.8V53.88h4.52V46.79a24.15,24.15,0,0,1-8.66,9.48,7,7,0,0,0-1.23-1.39,22.14,22.14,0,0,0,8.83-9.54h-8V43.62h9.1V38.78h1.78v4.84h9.18v1.72Z"/><path class="cls-4" d="M233.53,38.71a29,29,0,0,0,10.1,9,9.56,9.56,0,0,0-1.14,1.48,31.75,31.75,0,0,1-9.72-8.78,30.28,30.28,0,0,1-9.55,8.92A5.58,5.58,0,0,0,222.13,48a27.4,27.4,0,0,0,9.66-9.27Zm.35,18.95h8.8v1.6H223.11v-1.6H226V49.13h1.72v8.53h4.37V45h1.79v5.4h6.64v1.55h-6.64Z"/><path class="cls-4" d="M258.9,54.42a21.36,21.36,0,0,0,8.27,3.66A6.32,6.32,0,0,0,266,59.6a21.93,21.93,0,0,1-8.71-4.74v5h-1.69V55A23.13,23.13,0,0,1,247,59.53a7.26,7.26,0,0,0-1.11-1.45A22.44,22.44,0,0,0,254,54.42h-7.58V53h9.15V51.24h-7V49.92h7V48.23h-8.13V46.82h5.05a9.91,9.91,0,0,0-1.13-2.32l.81-.16h-5.66V42.86h3.69a18.51,18.51,0,0,0-1.83-3.36l1.46-.49a16.3,16.3,0,0,1,2,3.41l-1.19.44h2.85v-4.1h1.6v4.1h2.76v-4.1h1.62v4.1h2.8l-.85-.28a26.88,26.88,0,0,0,1.76-3.52l1.76.46a32.6,32.6,0,0,1-2,3.34h3.59v1.48h-4.63c-.47.88-1,1.78-1.44,2.48h5.26v1.41H257.3v1.69h7.25v1.32H257.3V53h9.29v1.46Zm-5.77-10.08a8.81,8.81,0,0,1,1.16,2.32l-.74.16H259l-.23-.07a19.28,19.28,0,0,0,1.18-2.41Z"/><path class="cls-4" d="M278.41,40.22c-.09.44-.21.9-.28,1.36-.14.67-.34,2-.6,3.25,1.07-.1,2-.17,2.57-.17,2.06,0,3.73.81,3.73,3.92,0,2.73-.37,6.34-1.32,8.27a3.25,3.25,0,0,1-3.36,1.9,14.15,14.15,0,0,1-2.71-.33l-.3-2A10.24,10.24,0,0,0,279,57a1.91,1.91,0,0,0,2-1.18,19,19,0,0,0,1.09-7c0-2.09-.95-2.46-2.43-2.46-.56,0-1.46.07-2.46.16a45.86,45.86,0,0,1-4.82,12.3L270.47,58c2.34-3.13,4-8.29,4.81-11.35-1.2.11-2.29.23-2.89.3s-1.48.16-2.06.28l-.19-2c.72,0,1.3,0,2,0s2.09-.14,3.47-.25a24.27,24.27,0,0,0,.58-5Zm7.88,2.61A39.61,39.61,0,0,1,290.48,51l-1.78.88a28.06,28.06,0,0,0-4.1-8.25Zm.95.37A30.26,30.26,0,0,0,285.36,40l1.23-.5a32.93,32.93,0,0,1,1.92,3.17Zm2.61-1a26.19,26.19,0,0,0-1.92-3.19l1.23-.51a30,30,0,0,1,1.94,3.15Z"/><path class="cls-4" d="M308.92,53.65v-1h-4.35v1.14h-1.69v-7.6h-4.31V56.55h14.87v1.66H298.57V59.9h-1.76V46.17h-3.45V44.52h3.45V39.38h1.76v5.14h4.31V38.9h1.69v5.62h4.35V39.17h1.72v5.35h3.59v1.65h-3.59v7.48Zm0-2.64V46.17h-4.35V51Z"/><path class="cls-4" d="M330.77,48.76a15.83,15.83,0,0,0,7.23,4,6.29,6.29,0,0,0-1.13,1.46,17.77,17.77,0,0,1-4.73-2.32v8h-1.76v-8h1.72a15.32,15.32,0,0,1-3.34-3.11h-2.55a18.52,18.52,0,0,1-8.13,5.54,7.14,7.14,0,0,0-1.16-1.41,17.23,17.23,0,0,0,7.21-4.13h-4.61V39.52h15.79v9.24Zm-7.71,3.11h1.74v1.41c0,2.2-.53,5-5,6.79a6.82,6.82,0,0,0-1.19-1.37c4-1.51,4.45-3.75,4.45-5.49Zm-1.85-8.43h5.3V41h-5.3Zm0,3.86h5.3V44.8h-5.3ZM333.55,41H328.2v2.46h5.35Zm0,3.82H328.2v2.5h5.35Z"/><path class="cls-4" d="M351.37,55c.07-.88.1-2.37.1-3.57-2.13,1.16-3.62,2.34-3.62,3.85,0,1.8,1.79,2.06,4.15,2.06a40,40,0,0,0,6.25-.56l0,1.88a58.8,58.8,0,0,1-6.28.37c-3.29,0-5.93-.7-5.93-3.5s2.73-4.42,5.4-5.81a2,2,0,0,0-2.06-1.42,6.08,6.08,0,0,0-4,1.69c-.65.63-1.3,1.49-2.09,2.41l-1.57-1.18a24.49,24.49,0,0,0,5.28-7h-.95c-1,0-2.53,0-3.78-.14V42.37c1.23.14,2.83.23,3.87.23.49,0,1,0,1.51,0a12.25,12.25,0,0,0,.57-2.85l1.9.16c-.16.65-.37,1.6-.69,2.64a60.48,60.48,0,0,0,7-.69l0,1.71a69.44,69.44,0,0,1-7.59.65,16.16,16.16,0,0,1-2.07,3.52,6.58,6.58,0,0,1,3.18-.86A2.88,2.88,0,0,1,353,49c1.58-.74,3-1.3,4.17-1.85.7-.31,1.25-.58,1.9-.91l.74,1.74c-.58.16-1.41.49-2,.72-1.3.51-2.94,1.18-4.68,2,0,1.32,0,3.27.07,4.38Z"/><path class="cls-4" d="M385.06,41.1v1.55H367.57v5.07c0,3.57-.28,8.78-2.27,12.28a5.94,5.94,0,0,0-1.41-1c1.9-3.28,2.06-8,2.06-11.3V41.1h8.5V38.78h1.76V41.1Zm-4,4.17h3.77v1.46h-3.77V50.5h-3.73v1.83h6.25v4.89c0,.83-.16,1.3-.81,1.53a11.47,11.47,0,0,1-3.38.25,6.33,6.33,0,0,0-.51-1.5c1.25,0,2.29,0,2.62,0s.41-.07.41-.33V53.84h-4.58V60h-1.69V53.84h-4.38v5.3h-1.69V52.33h6.07V50.5h-3.83V46.73h-3.47V45.27h3.47v-2h1.63v2h6v-2h1.65Zm-1.65,1.46h-6v2.36h6Z"/><path class="cls-4" d="M405.66,51.71c-.14,2.38-.28,3.42-.67,3.84a1.41,1.41,0,0,1-1.11.46,13.63,13.63,0,0,1-2,0,3,3,0,0,0-.37-1.27c.79.07,1.48.09,1.74.09a.69.69,0,0,0,.55-.16c.19-.23.3-.79.39-2.18h-4.93v5c0,.74.23.88,1.6.88h4.68c1.13,0,1.3-.37,1.41-2.61a5,5,0,0,0,1.53.6c-.23,2.85-.74,3.54-2.8,3.54h-4.91c-2.44,0-3.13-.46-3.13-2.38V52A14.15,14.15,0,0,1,395,54.39a7.38,7.38,0,0,0-1.18-1.29,12.42,12.42,0,0,0,4-4h-3.13l.16,1-2.52.83v7c0,1-.21,1.42-.79,1.69a7,7,0,0,1-2.87.3,7,7,0,0,0-.51-1.57c1,0,1.9,0,2.18,0s.39-.07.39-.42V51.45l-2.76.9-.44-1.66c.88-.24,2-.58,3.2-.95V45h-2.89V43.41h2.89V38.78h1.6v4.63h2.48v.65a11.26,11.26,0,0,0,2.68-4.17l1.49.37a15.63,15.63,0,0,1-2,3.62h2.92a36.35,36.35,0,0,0,.92-5.12l1.62.18a44.7,44.7,0,0,1-.9,4.94h5.17v1.46h-2.53a18.28,18.28,0,0,0,.88,2.24h3.68v1.48H405.8a10.2,10.2,0,0,0,3.43,3.53,5.35,5.35,0,0,0-1.14,1.34,10.84,10.84,0,0,1-2.43-2.27Zm-7.11-4.13a21.76,21.76,0,0,0,.88-2.24h-2.78V44.25c-.23.27-.46.55-.69.78-.26-.18-.84-.6-1.23-.83V45h-2.48v4.26c.76-.23,1.53-.49,2.29-.74l.07.49V47.58Zm6.69,3.52a16.92,16.92,0,0,1-1.22-2h-4.45a14,14,0,0,1-1.28,2Zm-4.17-5.76a22,22,0,0,1-.81,2.24h3.08c-.27-.72-.55-1.48-.76-2.24Zm6.28-.58a21.61,21.61,0,0,0-3.1-4.31l1.27-.67A21,21,0,0,1,408.69,44Z"/><path class="cls-4" d="M418.27,40.17a22.2,22.2,0,0,0-.23,2.29c-.1,2.6-.28,8-.28,11.45,0,2.52,1.62,3.4,3.75,3.4,4.22,0,6.6-2.36,8.25-4.75l1.27,1.6a11.42,11.42,0,0,1-9.56,5.05c-3.29,0-5.56-1.39-5.56-5.12,0-3.4.23-9.19.23-11.63a11.65,11.65,0,0,0-.21-2.31Z"/><path class="cls-4" d="M438.08,42.65c1.51-.14,5.84-.58,10.05-.93,2.51-.21,4.66-.32,6.19-.39v1.85a19.05,19.05,0,0,0-4.5.37,8,8,0,0,0-5.23,7.23c0,4.49,4.17,5.91,7.9,6l-.67,1.93c-4.24-.17-9.08-2.44-9.08-7.55A9.24,9.24,0,0,1,447,43.46c-2,.23-8.27.83-10.75,1.34l-.21-2C436.92,42.74,437.64,42.69,438.08,42.65Z"/><path class="cls-4" d="M462.66,44.25c0,1.43,0,3.54.17,5.42.37,3.84,1.48,6.37,3.1,6.37,1.18,0,2.25-2.37,2.85-4.68L470.24,53c-1.37,3.89-2.78,5.21-4.36,5.21-2.15,0-4.23-2.16-4.86-8.11-.23-2-.26-4.77-.26-6.11a12.78,12.78,0,0,0-.13-2l2.22,0C462.76,42.58,462.69,43.64,462.66,44.25Zm16.17,9.63-1.87.74c-.4-4.12-1.79-8.66-4-11.35l1.8-.62A23.54,23.54,0,0,1,478.83,53.88Z"/><path class="cls-4" d="M495.17,44.5a44.81,44.81,0,0,1-4.75.79c-.21,1-.46,2.06-.72,3a67,67,0,0,1-3.59,10.52l-2-.67a50.94,50.94,0,0,0,3.85-10.26c.21-.77.39-1.6.58-2.44-.74.05-1.44.07-2.09.07-1,0-1.85,0-2.66-.09l-.07-1.81a20.42,20.42,0,0,0,2.76.17c.76,0,1.57-.05,2.45-.1.16-.83.28-1.55.35-2a10.54,10.54,0,0,0,.07-1.9l2.25.18a17.59,17.59,0,0,0-.42,1.83l-.35,1.7a34.26,34.26,0,0,0,4.38-.84Zm-.9,8a8.1,8.1,0,0,0-.33,2.06c0,1.09.51,2.13,3.78,2.13a25.18,25.18,0,0,0,4.47-.44l-.07,1.88a34.56,34.56,0,0,1-4.43.3c-3.61,0-5.51-1.11-5.51-3.38a12.67,12.67,0,0,1,.35-2.71ZM493.69,47c1.2-.12,2.71-.19,4.19-.19a36.36,36.36,0,0,1,4,.19l0,1.76a32.54,32.54,0,0,0-3.86-.28,37.27,37.27,0,0,0-4.24.25Z"/><path class="cls-4" d="M513.29,55.39h-5v1.87h-1.57v-17h6.55Zm-5-13.55V47h3.36V41.84Zm3.36,12V48.49h-3.36v5.35Zm12.53-6.33v2.62h2.69v1.53H524.2v6.21c0,1-.25,1.48-1,1.73a13,13,0,0,1-3.75.28,5.18,5.18,0,0,0-.56-1.6c1.44,0,2.71,0,3.08,0s.51-.12.51-.47V51.66h-8.75V50.13h8.75V47.51h-8.87V46h5.82V43h-4.82V41.51h4.82V38.76h1.69v2.75h5V43h-5V46h6v1.53Zm-7.62,5a16.28,16.28,0,0,1,3,3.94l-1.46.92a17.73,17.73,0,0,0-2.94-4.07Z"/><path class="cls-4" d="M537.41,39.54a30.39,30.39,0,0,1-2.48,4.68V59.88h-1.74V46.7a25.82,25.82,0,0,1-3.1,3.41,10.62,10.62,0,0,0-1-1.67,26.08,26.08,0,0,0,6.69-9.4Zm6.12,7.83c.78,6.14,2.29,10.29,4.77,10.52.67,0,1-1.32,1.27-4a7.1,7.1,0,0,0,1.44.9c-.51,4-1.44,5.16-2.64,5.09-3.8-.27-5.66-5.07-6.54-12.29l-5.55.69L536,46.68l5.61-.7c-.19-2.15-.35-4.44-.44-6.85h1.71c.07,2.34.21,4.58.44,6.62l6.93-.88.23,1.62Zm5.21-3.47A25.32,25.32,0,0,0,545,40.1l1.25-.83a24.68,24.68,0,0,1,3.82,3.7Z"/><path class="cls-4" d="M559.93,50.94a21.63,21.63,0,0,1,3.41-11.74l1.32.6a21.35,21.35,0,0,0-3,11.14,21.3,21.3,0,0,0,3,11.14l-1.32.63A21.76,21.76,0,0,1,559.93,50.94Z"/><path class="cls-4" d="M566.91,55.76l1.53-1.09a3.2,3.2,0,0,0,2.94,1.9c1.83,0,2.73-1,2.73-3.61V41.17h2.13v12c0,2.92-1.34,5.29-4.65,5.29A5,5,0,0,1,566.91,55.76Z"/><path class="cls-4" d="M580.32,54.88c0-2.73,2.39-4.1,7.74-4.7,0-1.62-.53-3.18-2.59-3.18a6.89,6.89,0,0,0-3.78,1.35l-.83-1.46a9.47,9.47,0,0,1,4.95-1.65c3.06,0,4.36,2.06,4.36,5.17v7.73h-1.74l-.18-1.5h-.07A6.8,6.8,0,0,1,584,58.45,3.42,3.42,0,0,1,580.32,54.88Zm7.74.21V51.57c-4.24.51-5.67,1.55-5.67,3.17,0,1.44,1,2,2.22,2A5.12,5.12,0,0,0,588.06,55.09Z"/><path class="cls-4" d="M594.64,45.57h1.74l.19,1.43h.07a6.71,6.71,0,0,1,4-1.76c3.25,0,5,2.55,5,6.42,0,4.31-2.58,6.79-5.47,6.79A5.73,5.73,0,0,1,596.7,57l0,2.2v4.26h-2.11Zm8.81,6.11c0-2.78-.93-4.65-3.32-4.65a5.27,5.27,0,0,0-3.38,1.73v6.6a4.87,4.87,0,0,0,3.08,1.33C601.92,56.69,603.45,54.81,603.45,51.68Z"/><path class="cls-4" d="M608.68,54.88c0-2.73,2.39-4.1,7.74-4.7,0-1.62-.53-3.18-2.59-3.18a6.89,6.89,0,0,0-3.78,1.35l-.83-1.46a9.47,9.47,0,0,1,4.95-1.65c3.06,0,4.36,2.06,4.36,5.17v7.73h-1.74l-.18-1.5h-.07a6.8,6.8,0,0,1-4.17,1.81A3.42,3.42,0,0,1,608.68,54.88Zm7.74.21V51.57c-4.24.51-5.67,1.55-5.67,3.17,0,1.44,1,2,2.22,2A5.12,5.12,0,0,0,616.42,55.09Z"/><path class="cls-4" d="M623,45.57h1.74l.19,1.8H625a6,6,0,0,1,4.21-2.13c2.64,0,3.85,1.72,3.85,4.94v8H631V50.45c0-2.36-.72-3.35-2.39-3.35-1.29,0-2.17.64-3.45,1.92v9.12H623Z"/><path class="cls-4" d="M642.49,54.88c0-2.73,2.39-4.1,7.74-4.7,0-1.62-.54-3.18-2.6-3.18a6.83,6.83,0,0,0-3.77,1.35L643,46.89a9.47,9.47,0,0,1,5-1.65c3.06,0,4.35,2.06,4.35,5.17v7.73H650.6l-.19-1.5h-.07a6.77,6.77,0,0,1-4.17,1.81A3.41,3.41,0,0,1,642.49,54.88Zm7.74.21V51.57c-4.24.51-5.68,1.55-5.68,3.17,0,1.44,1,2,2.22,2A5.14,5.14,0,0,0,650.23,55.09Z"/><path class="cls-4" d="M655.4,56.71l1-1.39a5.7,5.7,0,0,0,3.73,1.48c1.66,0,2.48-.88,2.48-2,0-1.27-1.49-1.85-2.88-2.38C658,51.8,656,50.94,656,48.81s1.6-3.57,4.33-3.57a6.52,6.52,0,0,1,3.92,1.42l-1,1.36a4.72,4.72,0,0,0-2.9-1.11c-1.57,0-2.29.83-2.29,1.81,0,1.2,1.37,1.64,2.78,2.17,1.83.7,3.84,1.44,3.84,3.83,0,2-1.62,3.73-4.58,3.73A7.59,7.59,0,0,1,655.4,56.71Z"/><path class="cls-4" d="M674,41.17h2.23l6.18,10.7,1.81,3.49h.11c-.11-1.71-.27-3.61-.27-5.37V41.17h2v17h-2.2l-6.18-10.72-1.83-3.5h-.09c.09,1.72.25,3.52.25,5.31v8.91h-2Z"/><path class="cls-4" d="M690.8,53.54v-8h2.11v7.71c0,2.34.69,3.34,2.36,3.34,1.3,0,2.2-.63,3.4-2.14V45.57h2.11V58.14H699l-.16-2h-.07a5.41,5.41,0,0,1-4.17,2.27C692,58.45,690.8,56.73,690.8,53.54Z"/><path class="cls-4" d="M705.49,45.57h1.74l.18,1.83h.07a5.52,5.52,0,0,1,3.91-2.16,3.32,3.32,0,0,1,3.48,2.41c1.3-1.41,2.62-2.41,4.15-2.41,2.59,0,3.82,1.72,3.82,4.94v8h-2.11V50.45c0-2.36-.74-3.35-2.34-3.35-1,0-2,.62-3.17,1.92v9.12h-2.11V50.45c0-2.36-.74-3.35-2.34-3.35-.95,0-2,.62-3.17,1.92v9.12h-2.11Z"/><path class="cls-4" d="M729.35,56.85h-.07l-.18,1.29h-1.69V39.71h2.11v5L729.45,47a6.29,6.29,0,0,1,3.93-1.79c3.27,0,5,2.55,5,6.4,0,4.33-2.57,6.81-5.47,6.81A5.58,5.58,0,0,1,729.35,56.85Zm6.86-5.17c0-2.78-.93-4.65-3.31-4.65a5.18,5.18,0,0,0-3.38,1.73v6.6a4.79,4.79,0,0,0,3.08,1.33C734.68,56.69,736.21,54.81,736.21,51.68Z"/><path class="cls-4" d="M741.24,51.87c0-4.08,2.76-6.63,5.68-6.63,3.19,0,5,2.32,5,5.91a9.23,9.23,0,0,1-.09,1.2h-8.48c.14,2.69,1.78,4.4,4.17,4.4a5.46,5.46,0,0,0,3.15-1l.76,1.39a7.45,7.45,0,0,1-4.17,1.3C743.93,58.45,741.24,56,741.24,51.87Zm8.82-1c0-2.55-1.15-3.92-3.12-3.92-1.79,0-3.36,1.44-3.62,3.92Z"/><path class="cls-4" d="M755.49,45.57h1.74l.18,2.29h.07c.88-1.6,2.16-2.62,3.57-2.62a2.66,2.66,0,0,1,1.34.28L762,47.37a3,3,0,0,0-1.23-.2c-1,0-2.34.74-3.17,2.89v8.08h-2.11Z"/><path class="cls-4" d="M769.81,49.6c0-5.45,3-8.76,7.25-8.76s7.25,3.31,7.25,8.76-3,8.85-7.25,8.85S769.81,55,769.81,49.6Zm12.3,0c0-4.26-2-6.88-5.05-6.88s-5,2.62-5,6.88,2,7,5,7S782.11,53.84,782.11,49.6Z"/><path class="cls-4" d="M788.25,45.57H790l.19,1.8h.07a6,6,0,0,1,4.21-2.13c2.64,0,3.85,1.72,3.85,4.94v8H796.2V50.45c0-2.36-.72-3.35-2.39-3.35-1.3,0-2.18.64-3.45,1.92v9.12h-2.11Z"/><path class="cls-4" d="M801.92,51.87c0-4.08,2.76-6.63,5.68-6.63,3.19,0,5,2.32,5,5.91a7.75,7.75,0,0,1-.09,1.2H804c.14,2.69,1.78,4.4,4.17,4.4a5.46,5.46,0,0,0,3.15-1l.77,1.39a7.51,7.51,0,0,1-4.17,1.3C804.61,58.45,801.92,56,801.92,51.87Zm8.83-1c0-2.55-1.16-3.92-3.13-3.92-1.78,0-3.36,1.44-3.61,3.92Z"/><path class="cls-4" d="M815,62.08a22.44,22.44,0,0,0,0-22.28l1.29-.6a21.86,21.86,0,0,1,0,23.51Z"/><path class="cls-4" d="M294.27,78.17a10.65,10.65,0,0,0-.39,1.55A55.57,55.57,0,0,0,292.74,89a20.49,20.49,0,0,0,.21,3.13c.37-1,.9-2.41,1.3-3.34l1,.77a49.34,49.34,0,0,0-1.62,5.07,4.05,4.05,0,0,0-.12,1c0,.23,0,.56.07.79l-1.64.14a27.91,27.91,0,0,1-.88-7.28,71.27,71.27,0,0,1,1-9.63,10.44,10.44,0,0,0,.16-1.62Zm14.92,16.7a17.48,17.48,0,0,0-3.45-2.62v.42c0,1.9-.88,3.75-4,3.75S297,95.15,297,93.11s1.72-3.5,4.73-3.5a10.19,10.19,0,0,1,2.13.21c-.07-1.76-.21-4-.23-5.86-.75,0-1.46.05-2.2.05-1.3,0-2.51-.07-3.85-.14V82.11a35.66,35.66,0,0,0,3.89.21c.72,0,1.44,0,2.16,0V79.42a9.32,9.32,0,0,0-.12-1.39h2.11a12,12,0,0,0-.14,1.37c0,.62,0,1.69-.07,2.75a28.06,28.06,0,0,0,4-.53v1.81c-1.25.21-2.59.34-4,.44,0,2.29.18,4.58.28,6.51a15.65,15.65,0,0,1,4.51,3Zm-5.28-3.41a7.3,7.3,0,0,0-2.34-.37c-1.72,0-2.9.77-2.9,1.83s1.11,1.79,2.76,1.79c1.94,0,2.5-.95,2.5-2.48C303.93,92,303.93,91.74,303.91,91.46Z"/><path class="cls-4" d="M317.65,92.92c1.09,1.72,3.13,2.51,5.84,2.6,2.55.11,7.87,0,10.65-.14a6.21,6.21,0,0,0-.55,1.69c-2.6.12-7.49.16-10.08.05-3-.12-5.12-.93-6.55-2.74-1,1-2.09,2-3.22,3l-.91-1.65A35.7,35.7,0,0,0,316,93V87.11h-2.94V85.49h4.56ZM317,81.83A17.22,17.22,0,0,0,313.3,78l1.32-1a17.41,17.41,0,0,1,3.73,3.77Zm4.44,12.48h-1.53v-10h1.81V77.22h9.47v7.11h1.79v8.29c0,.79-.14,1.21-.72,1.44a8,8,0,0,1-2.83.25,6.47,6.47,0,0,0-.46-1.39c1,0,1.83,0,2.06,0s.37-.12.37-.33V85.7h-10Zm1.79-10h2.27V80.44h4.14V78.56h-6.41Zm6.16,7.74h-4.66V93h-1.34V87.18h6ZM328,88.41h-3.31v2.45H328Zm1.6-4.08V81.64h-2.85v2.69Z"/><path class="cls-4" d="M354.44,85.1a31.44,31.44,0,0,1-3.89,1c.67,1.44,1.41,3,2,4.22l-.88,1.11c-1.16-.19-3-.44-4.5-.63l.17-1.43c1.13.14,2.2.25,2.91.32-.44-.9-1-2.11-1.5-3.29a56.39,56.39,0,0,1-10.26.21l-.07-1.71a45.83,45.83,0,0,0,9.63,0L347.28,83l-.51-1.18a45.34,45.34,0,0,1-8.06,0l-.11-1.69a42,42,0,0,0,7.5.18c-.09-.25-.21-.46-.3-.67a10.86,10.86,0,0,0-.86-1.65L347,77.5c.23.76.53,1.64.88,2.52a18.06,18.06,0,0,0,4-.92l.33,1.66a22.09,22.09,0,0,1-3.69.81l.4,1c.21.47.53,1.21.92,2.07a25.11,25.11,0,0,0,4.24-1.14Zm-13.2,4.77a7.87,7.87,0,0,0-.53,2.34c0,1.76,1.38,2.87,4.67,2.87a28.82,28.82,0,0,0,5.63-.51l0,1.85a34.76,34.76,0,0,1-5.54.44c-4.08,0-6.49-1.41-6.49-4.26a10,10,0,0,1,.54-2.87Zm11.88-12.65A25.13,25.13,0,0,1,355,80.44l-1.2.56A20.47,20.47,0,0,0,352,77.73Zm2.43-.93a26.32,26.32,0,0,1,2,3.15l-1.18.58a21.36,21.36,0,0,0-1.94-3.19Z"/><path class="cls-4" d="M369.92,87.67c-1,2.24-2.27,4.91-3.43,7,3.22-.14,6.91-.31,10.5-.49a44.41,44.41,0,0,0-3-3.82l1.57-.77a39.72,39.72,0,0,1,5.35,7.3l-1.69.9c-.28-.58-.67-1.25-1.11-2-6,.35-12.37.63-16.56.84l-.26-1.81c1,0,2.07-.07,3.25-.12a55,55,0,0,0,3.19-7h-7.25V86h9.34V81.6h-7.55V79.91h7.55v-3.5h1.78v3.5h7.83V81.6h-7.83V86h9.55v1.69Z"/><path class="cls-4" d="M390.73,77.59A42.16,42.16,0,0,0,389.66,84c.91-2.36,3.32-5.21,6.21-5.21,3.06,0,5.26,3.06,5.26,7.87,0,6.37-4,9.18-9.71,10.22l-1.08-1.67c5-.76,8.87-2.76,8.87-8.52,0-3.62-1.21-6.21-3.64-6.21-2.85,0-5.49,4.15-5.77,7.16a9.85,9.85,0,0,0,.05,2.8l-1.81.14a29.34,29.34,0,0,1-.23-3.64,59.61,59.61,0,0,1,.7-7.41c.09-.72.16-1.41.18-2Z"/><path class="cls-4" d="M412.79,97.09a37.32,37.32,0,0,0-5.12-5.16l1.5-1.32a42.67,42.67,0,0,1,5.19,5.14Z"/><path class="cls-4" d="M438.25,88.87c-.32-.79-1.13-2.29-1.81-3.52V97.56h-1.69V86.25a25.71,25.71,0,0,1-2.89,6.63,8.81,8.81,0,0,0-.95-1.67,24.74,24.74,0,0,0,3.66-8.73h-3.13V80.86h3.31V76.41h1.69v4.45h2.95v1.62h-2.95v.76c.63.86,2.46,3.73,2.85,4.43Zm9.48-.9a18.48,18.48,0,0,0,5,7,6.33,6.33,0,0,0-1.26,1.32A21.8,21.8,0,0,1,446.73,89v8.53H445V89.24a20,20,0,0,1-5.63,7.18,6.48,6.48,0,0,0-1.18-1.32A17.71,17.71,0,0,0,444.07,88h-4.52V86.39H445V82.32h-2.87a14.87,14.87,0,0,1-1.51,3.4,7.26,7.26,0,0,0-1.41-.86,18.14,18.14,0,0,0,2.36-7.36l1.6.28c-.16,1-.37,2-.6,3H445V76.43h1.69v4.31h4.52v1.58h-4.52v4.07h5.33V88Z"/><path class="cls-4" d="M461.24,77a37.29,37.29,0,0,1-2.23,4.8V97.53h-1.64V84.42a23.29,23.29,0,0,1-2.16,2.69,12.59,12.59,0,0,0-.95-1.62,25.58,25.58,0,0,0,5.4-9Zm10,3.34v3.78h4.21v13h-1.67V95.68H462.9v1.51h-1.57V84.08h4V80.3H461V78.75h14.64V80.3ZM462.9,94.15h2.58V85.63H462.9Zm6.72-13.85H467v3.78h2.64ZM467,85.63v8.52h2.64V85.63Zm6.83,0h-2.68v8.52h2.68Z"/><path class="cls-4" d="M482.93,79.17c.18.37.57,1.11.81,1.5l1.32,2.64c2.75-1.23,5.86-2.45,8.24-2.45,3.18,0,5.12,1.83,5.12,4.33s-1.69,4.65-5.28,4.65a10.16,10.16,0,0,1-3.43-.65l.07-1.85a7.58,7.58,0,0,0,3.24.77c2.53,0,3.55-1.37,3.55-3,0-1.39-1.07-2.62-3.34-2.62-2,0-4.81,1.09-7.46,2.32.31.62.61,1.27.88,1.9,1.26,2.82,2.69,7.11,3.48,9.63l-2,.54A67.73,67.73,0,0,0,485,87.48c-.28-.65-.58-1.3-.86-1.9-1.76.86-3.36,1.69-4.4,2.16l-.9-1.9c.67-.19,1.48-.47,1.9-.63.76-.3,1.69-.72,2.69-1.16a27,27,0,0,0-1.3-2.52A14.11,14.11,0,0,0,481,79.91Zm6.87,1.64a26.62,26.62,0,0,0-3-2.66l1.34-1a28.48,28.48,0,0,1,3,2.6Z"/><path class="cls-4" d="M505.61,80.6A23.9,23.9,0,0,1,503,82.36a9.21,9.21,0,0,0-1.26-1.23,18.42,18.42,0,0,0,6.12-4.72l1.57.58a15.45,15.45,0,0,1-2.13,2.24v5.38h-1.64Zm5.1,14.46a32.42,32.42,0,0,1-7.14,2.57,10.72,10.72,0,0,0-1.25-1.28,30.14,30.14,0,0,0,6.83-2Zm-5.42-9.59h15v8.66h-15ZM507,88h11.58V86.58H507Zm0,2.48h11.58V89.08H507ZM507,93h11.58V91.58H507Zm7.69-14.48c-1.55.12-3.12.19-4.58.23a4.93,4.93,0,0,0-.35-1.11,85.86,85.86,0,0,0,10.52-1l1,1.09c-1.36.25-3.1.48-5,.64v1.67h6.51v1.28h-6.51V83h5.46v1.28h-12.2V83h5.09V81.37h-6.07V80.09h6.07Zm1.25,15.87a69.12,69.12,0,0,1,7,2.29l-2,.86a59.94,59.94,0,0,0-6.47-2.3Z"/><path class="cls-4" d="M537,95.29h9.06v1.53H526.42V95.29h8.8V89.57h-7.76V88.06h7.76V85h-4.77V83.64a31,31,0,0,1-3.82,2.4,5.83,5.83,0,0,0-1-1.34,25.86,25.86,0,0,0,9.59-8.31h1.72a27.27,27.27,0,0,0,10.05,8,7.74,7.74,0,0,0-1.11,1.53A28.55,28.55,0,0,1,542,83.52V85h-5v3.1h8v1.51h-8Zm-6.23-5.1a14.87,14.87,0,0,1,2.2,4.12l-1.48.68a15.91,15.91,0,0,0-2.11-4.27Zm11.05-6.76a27.45,27.45,0,0,1-5.7-5.38,25.32,25.32,0,0,1-5.42,5.38Zm-2.89,11a27.41,27.41,0,0,0,2.47-4.27l1.62.63A37.23,37.23,0,0,1,540.2,95Z"/><path class="cls-4" d="M554.24,78.17a10.65,10.65,0,0,0-.39,1.55A56.65,56.65,0,0,0,552.71,89a20.49,20.49,0,0,0,.21,3.13c.37-1,.91-2.41,1.3-3.34l1,.77a49.34,49.34,0,0,0-1.62,5.07,3.62,3.62,0,0,0-.11,1,7,7,0,0,0,.07.79l-1.65.14a27.91,27.91,0,0,1-.88-7.28,72.93,72.93,0,0,1,1-9.63,9.4,9.4,0,0,0,.17-1.62Zm14.92,16.7a17.2,17.2,0,0,0-3.45-2.62v.42c0,1.9-.88,3.75-4,3.75S557,95.15,557,93.11s1.72-3.5,4.73-3.5a10.19,10.19,0,0,1,2.13.21c-.07-1.76-.21-4-.23-5.86-.74,0-1.46.05-2.2.05-1.3,0-2.5-.07-3.85-.14V82.11a35.66,35.66,0,0,0,3.89.21c.72,0,1.44,0,2.16,0V79.42a9.32,9.32,0,0,0-.12-1.39h2.11a12,12,0,0,0-.14,1.37c0,.62,0,1.69-.07,2.75a28.06,28.06,0,0,0,4-.53v1.81c-1.25.21-2.59.34-4,.44,0,2.29.19,4.58.28,6.51a15.85,15.85,0,0,1,4.52,3Zm-5.28-3.41a7.3,7.3,0,0,0-2.34-.37c-1.71,0-2.9.77-2.9,1.83s1.12,1.79,2.76,1.79c2,0,2.5-.95,2.5-2.48C563.9,92,563.9,91.74,563.88,91.46Z"/><path class="cls-4" d="M584,79.84V84l.3-.35a57.49,57.49,0,0,1,8.22,4.8L591.27,90A52.6,52.6,0,0,0,584,85.35V97.53h-1.83V79.84h-8.85V78.12h20.45v1.72Z"/><path class="cls-4" d="M605.4,77.87c-.09.44-.21.9-.28,1.36-.13.68-.34,2-.6,3.25,1.07-.09,2-.16,2.57-.16,2.06,0,3.73.81,3.73,3.91,0,2.73-.37,6.35-1.32,8.27a3.24,3.24,0,0,1-3.36,1.9,13.4,13.4,0,0,1-2.71-.33l-.3-2a10.69,10.69,0,0,0,2.83.51,1.92,1.92,0,0,0,2-1.19,19,19,0,0,0,1.09-7c0-2.09-.95-2.46-2.43-2.46-.56,0-1.46.07-2.46.17a45.93,45.93,0,0,1-4.82,12.29l-1.87-.76c2.34-3.13,4-8.29,4.82-11.35l-2.9.3c-.56.07-1.48.16-2.06.28l-.19-2c.72,0,1.3,0,2,0s2.09-.13,3.48-.25a25.65,25.65,0,0,0,.58-5Zm7.88,2.62a38.81,38.81,0,0,1,4.19,8.15l-1.78.88a27.94,27.94,0,0,0-4.1-8.25Zm1,.37a28.39,28.39,0,0,0-1.88-3.22l1.23-.51a31,31,0,0,1,1.92,3.17Zm2.61-1a24.42,24.42,0,0,0-1.92-3.2l1.23-.51a30.16,30.16,0,0,1,2,3.15Z"/><path class="cls-4" d="M625.1,86c1.64-.51,5.4-1.87,8.11-1.87,3.24,0,5.6,1.94,5.6,5.07,0,4.42-4.26,6.69-10.45,7.06l-.74-1.78c5-.16,9.32-1.55,9.32-5.3,0-1.95-1.53-3.36-3.87-3.36-2.85,0-7.86,2.08-9.34,2.66L623,86.51A16.38,16.38,0,0,0,625.1,86Z"/><path class="cls-4" d="M646.9,80.3c1.51-.14,5.84-.58,10.06-.93,2.5-.2,4.65-.32,6.18-.39v1.85a19.46,19.46,0,0,0-4.49.37,8,8,0,0,0-5.24,7.23c0,4.49,4.17,5.91,7.9,6l-.67,1.92c-4.24-.16-9.08-2.43-9.08-7.55a9.24,9.24,0,0,1,4.26-7.74c-2,.23-8.27.83-10.75,1.34l-.21-2C645.74,80.39,646.46,80.35,646.9,80.3Z"/><path class="cls-4" d="M671.49,81.9c0,1.43,0,3.54.16,5.42.37,3.84,1.48,6.37,3.1,6.37,1.18,0,2.25-2.36,2.85-4.68l1.46,1.67c-1.37,3.89-2.78,5.21-4.35,5.21-2.16,0-4.24-2.16-4.87-8.11a61,61,0,0,1-.25-6.11,12.8,12.8,0,0,0-.14-2l2.22.05C671.58,80.23,671.51,81.3,671.49,81.9Zm16.16,9.63-1.87.75c-.4-4.13-1.79-8.67-4-11.35l1.8-.63A23.48,23.48,0,0,1,687.65,91.53Z"/><path class="cls-4" d="M707.42,79.72c-.42.28-.93.63-1.27.88-1.14.86-4.22,3.57-6,5.05a9.65,9.65,0,0,1,3.1-.49c3.82,0,6.58,2.32,6.58,5.42,0,3.71-3.08,6.12-7.92,6.12-3.13,0-5-1.39-5-3.29a3.26,3.26,0,0,1,3.54-3,4.53,4.53,0,0,1,4.73,4A4,4,0,0,0,708,90.56c0-2.25-2.27-3.89-5.17-3.89-3.77,0-5.86,1.6-8.78,4.56l-1.34-1.36,6.19-5.15c1.27-1.06,4.12-3.47,5.25-4.49-1.2,0-5.72.26-6.9.33a11,11,0,0,0-1.55.13l-.05-1.92a12.94,12.94,0,0,0,1.62.07c1.19,0,6.63-.16,7.83-.28a8.35,8.35,0,0,0,1.25-.18Zm-4,15.17c-.21-1.8-1.3-3-3-3-1,0-1.83.62-1.83,1.41,0,1.13,1.32,1.78,3,1.78A10.54,10.54,0,0,0,703.46,94.89Z"/><path class="cls-4" d="M168.58,205.21c-.22-.54-.78-1.59-1.25-2.43v8.43h-1.17V203.4a17.62,17.62,0,0,1-2,4.58,5.61,5.61,0,0,0-.65-1.15,17,17,0,0,0,2.52-6h-2.16v-1.12h2.29V196.6h1.17v3.07h2v1.12h-2v.53c.43.59,1.7,2.58,2,3.06Zm6.55-.63a12.83,12.83,0,0,0,3.44,4.81,4.19,4.19,0,0,0-.87.91,15.27,15.27,0,0,1-3.26-5v5.89h-1.17v-5.74a14,14,0,0,1-3.89,5,4,4,0,0,0-.82-.91,12.29,12.29,0,0,0,4-4.94h-3.12V203.5h3.79v-2.82h-2a9.46,9.46,0,0,1-1,2.35,4.4,4.4,0,0,0-1-.59,12.57,12.57,0,0,0,1.63-5.09l1.1.19c-.11.71-.25,1.39-.41,2.05h1.68v-3h1.17v3h3.12v1.09h-3.12v2.82h3.68v1.08Z"/><path class="cls-4" d="M184.45,197a24.91,24.91,0,0,1-1.54,3.32v10.9h-1.13v-9.06a16.92,16.92,0,0,1-1.49,1.85,8.36,8.36,0,0,0-.66-1.12,17.66,17.66,0,0,0,3.73-6.22Zm6.93,2.31v2.61h2.92v9h-1.16v-.94H185.6v1h-1.08V201.9h2.78v-2.61h-3v-1.08h10.11v1.08Zm-5.78,9.57h1.78V203H185.6Zm4.65-9.57h-1.83v2.61h1.83ZM188.42,203v5.89h1.83V203Zm4.72,0h-1.85v5.89h1.85Z"/><path class="cls-4" d="M201.84,204.55l-2.11.66v4.61c0,.67-.16,1-.58,1.18a5,5,0,0,1-2.11.21,4.39,4.39,0,0,0-.37-1.09c.72,0,1.4,0,1.59,0s.3-.06.3-.3v-4.26l-2.08.63-.33-1.16c.67-.17,1.5-.4,2.41-.65v-3.44h-2.22v-1.11h2.22v-3.22h1.17v3.22h1.87v1.11h-1.87V204c.64-.17,1.31-.36,2-.57Zm6.77-2.73c.89,0,1-.28,1.13-2a3.35,3.35,0,0,0,1.08.47c-.17,2.08-.54,2.62-2.13,2.62H205c-1.83,0-2.33-.35-2.33-1.72v-4.52h1.17v2.39a30.08,30.08,0,0,0,5.13-1.49l.91.88a37.26,37.26,0,0,1-6,1.58v1.16c0,.54.19.64,1.22.64Zm-6,2.41h7.5v6.92H209v-.67h-5.19v.73h-1.14Zm1.14,1v1.58H209v-1.58ZM209,209.5v-1.68h-5.19v1.68Z"/><path class="cls-4" d="M226.25,200.65a18.61,18.61,0,0,1-2,6.42,7.89,7.89,0,0,0,3.09,3.13,4,4,0,0,0-.81,1,8.59,8.59,0,0,1-3-3,10.46,10.46,0,0,1-3.71,3.07,5.85,5.85,0,0,0-.51-.83l-.37.38a16.29,16.29,0,0,0-1.87-1.26,9,9,0,0,1-3.91,1.66,2.43,2.43,0,0,0-.54-1A8.26,8.26,0,0,0,216,209c-.52-.26-1-.52-1.57-.74l-.26.45-1-.37c.35-.61.78-1.42,1.21-2.26h-1.81v-1h2.31c.24-.48.46-.94.65-1.38l.42.1v-2.21a10.08,10.08,0,0,1-2.8,2.35,3.81,3.81,0,0,0-.66-.89,8.66,8.66,0,0,0,3.14-2.55h-3v-1H216V196.6h1.11v2.93h3.24v1h-3.24v.08c.68.4,2.41,1.49,2.84,1.81l-.65.85c-.42-.38-1.43-1.15-2.19-1.73v2.39h-.69l.27.06c-.18.35-.35.74-.55,1.12h4.28v1H219a6.7,6.7,0,0,1-1.14,2.68,16,16,0,0,1,1.84,1.17,8.87,8.87,0,0,0,3.2-2.92,21.43,21.43,0,0,1-1.44-4.42,10.33,10.33,0,0,1-1.17,2,6,6,0,0,0-1-.81,15.62,15.62,0,0,0,2.61-7.17l1.22.17c-.16.95-.37,1.88-.59,2.76h4.64v1.12Zm-12-1.2a8.18,8.18,0,0,0-1-2.1l.9-.37a7.93,7.93,0,0,1,1,2.05Zm1.35,6.62c-.23.45-.47.88-.67,1.3.64.26,1.28.54,1.9.85a5.17,5.17,0,0,0,1-2.15Zm4.34-8.72c-.47.74-1,1.54-1.43,2.07l-.8-.39a13.73,13.73,0,0,0,1.19-2.11Zm2.25,3.35a22.29,22.29,0,0,0,1.4,5.05,17.5,17.5,0,0,0,1.4-5.1h-2.78Z"/><path class="cls-4" d="M236,209.21a9.48,9.48,0,0,0,1.36-.19,4.75,4.75,0,0,0,4-4.69,4.4,4.4,0,0,0-4.21-4.6,34,34,0,0,1-.94,4.57c-1,3.25-2.24,4.93-3.72,4.93s-2.83-1.64-2.83-4.25a6.77,6.77,0,0,1,6.95-6.45,5.76,5.76,0,0,1,6.08,5.83c0,3.33-2.19,5.56-6,6ZM235,204a24.83,24.83,0,0,0,.88-4.27,5.52,5.52,0,0,0-4.89,5.12c0,2,.92,2.88,1.61,2.88S234.15,206.7,235,204Z"/><path class="cls-4" d="M250.29,204.68l-1.68.53v4.56c0,.67-.14,1-.54,1.22a5.55,5.55,0,0,1-2.12.21,4.49,4.49,0,0,0-.35-1.14c.72,0,1.38,0,1.59,0s.27-.07.27-.31v-4.21l-2.15.66-.27-1.16c.66-.15,1.51-.39,2.42-.67V200.9h-2.15v-1.09h2.15v-3.2h1.15v3.2h1.55v1.09h-1.55v3.16l1.54-.45Zm9.57,5.7h-7.23v.82h-1.14V202a12.47,12.47,0,0,1-1.18,1.52,8.68,8.68,0,0,0-.8-1,14.19,14.19,0,0,0,3.17-5.91l1.13.29a23,23,0,0,1-1,2.74h2.45a23.9,23.9,0,0,0,1.09-3l1.24.28c-.35.88-.78,1.86-1.16,2.68h3.18v1.07h-3.26v2.14h2.88v1h-2.88V206h2.88v1h-2.88v2.22h3.53Zm-4.62-9.7h-2.61v2.14h2.61Zm0,3.17h-2.61V206h2.61Zm-2.61,5.44h2.61v-2.22h-2.61Z"/><path class="cls-4" d="M266.92,206.31a19.84,19.84,0,0,0-1.46-2v6.85h-1.15V204.1a17.39,17.39,0,0,1-2.32,4.2,5.5,5.5,0,0,0-.6-1.09,16.55,16.55,0,0,0,2.76-5H261.7v-1.12h2.61v-2.43c-.79.16-1.6.28-2.34.4a3.84,3.84,0,0,0-.37-.93,23.53,23.53,0,0,0,5.06-1.28l.83.89a12.48,12.48,0,0,1-2,.64v2.71h2v1.12h-2v1c.5.41,1.86,1.82,2.18,2.19Zm9.28-1.93c-1.36,4-4.74,6-8.58,6.85a3.37,3.37,0,0,0-.61-1,12.82,12.82,0,0,0,4.87-1.92,13.19,13.19,0,0,0-2.29-1.73,16.62,16.62,0,0,1-1.57.91,3.06,3.06,0,0,0-.75-.81,10.28,10.28,0,0,0,4.7-4.09,13.16,13.16,0,0,1-4,1.86,4.26,4.26,0,0,0-.62-1,11.78,11.78,0,0,0,3.87-1.7,13.23,13.23,0,0,0-2-1.6,13.64,13.64,0,0,1-1.39.87,3.24,3.24,0,0,0-.77-.8,9.65,9.65,0,0,0,4.07-3.64l1.18.21a8.67,8.67,0,0,1-.8,1.17h2.91l.23-.05.73.35a9.13,9.13,0,0,1-3.41,4.29l1.2.21a11,11,0,0,1-.88,1.3h2.93l.23-.05Zm-5.57-5.4a7.21,7.21,0,0,1-.64.59,11.44,11.44,0,0,1,2.06,1.59,7.45,7.45,0,0,0,1.78-2.18Zm.75,6.12a10.75,10.75,0,0,1-.93.83,11,11,0,0,1,2.31,1.7,7.67,7.67,0,0,0,1.9-2.53Z"/><path class="cls-4" d="M288.31,203.91a10.62,10.62,0,0,1,3.19-7.62l1,.5a10,10,0,0,0,0,14.25l-1,.49A10.6,10.6,0,0,1,288.31,203.91Z"/><path class="cls-4" d="M294.91,208.78h2.61V200h-2.08v-.93a7.48,7.48,0,0,0,2.44-.83H299v10.52h2.35V210h-6.44Z"/><path class="cls-4" d="M304.43,208.09a2.66,2.66,0,0,0,2,.9c1.52,0,2.84-1.25,3-4.9a3.63,3.63,0,0,1-2.71,1.46c-1.95,0-3.23-1.27-3.23-3.7a3.52,3.52,0,0,1,3.36-3.81c2.26,0,3.94,1.86,3.94,5.58,0,4.76-2,6.58-4.26,6.58a3.75,3.75,0,0,1-2.82-1.2Zm4.9-5.2c-.16-2.42-1.05-3.7-2.56-3.7-1.12,0-2,1.06-2,2.66s.7,2.61,2.09,2.61A3.09,3.09,0,0,0,309.33,202.89Z"/><path class="cls-4" d="M312.63,207.08a3.73,3.73,0,0,1,2.16-3.23v-.08a3.25,3.25,0,0,1-1.59-2.71,3.23,3.23,0,0,1,6.44.12,3.87,3.87,0,0,1-1.57,2.83v.08a3.42,3.42,0,0,1,2,3.07c0,1.71-1.47,3-3.68,3S312.63,208.89,312.63,207.08Zm6,0c0-1.57-1.44-2.16-3.11-2.83A3.19,3.19,0,0,0,314,207a2.25,2.25,0,0,0,2.45,2.16A2,2,0,0,0,318.66,207.13Zm-.27-5.87a2,2,0,0,0-2-2.1,1.8,1.8,0,0,0-1.86,1.9c0,1.41,1.26,2,2.64,2.56A3.14,3.14,0,0,0,318.39,201.26Z"/><path class="cls-4" d="M322.83,208.09a2.66,2.66,0,0,0,2,.9c1.52,0,2.84-1.25,2.95-4.9a3.63,3.63,0,0,1-2.71,1.46c-2,0-3.23-1.27-3.23-3.7a3.52,3.52,0,0,1,3.36-3.81c2.26,0,3.94,1.86,3.94,5.58,0,4.76-2.05,6.58-4.26,6.58A3.75,3.75,0,0,1,322,209Zm4.9-5.2c-.16-2.42-1.05-3.7-2.56-3.7-1.12,0-2,1.06-2,2.66s.7,2.61,2.09,2.61A3.09,3.09,0,0,0,327.73,202.89Z"/><path class="cls-4" d="M349.51,207.56h-5.79v3.67h-1.2v-3.67h-7.4v-1.15h2.63v-4.29h4.77v-2.43h-3.89a14.6,14.6,0,0,1-2.44,3.15,7.47,7.47,0,0,0-1-.75,13.57,13.57,0,0,0,3.6-5.52l1.2.28c-.22.56-.48,1.14-.74,1.68h9.54v1.16h-5v2.43h4.69v1.12h-4.69v3.17h5.79Zm-7-1.15v-3.17h-3.59v3.17Z"/><path class="cls-4" d="M355.23,201.64h7.67v1.09h-7.67Zm0,3.83h7.67v1.08h-7.67Z"/><path class="cls-4" d="M369.14,208.78h2.61V200h-2.08v-.93a7.33,7.33,0,0,0,2.43-.83h1.12v10.52h2.35V210h-6.43Z"/><path class="cls-4" d="M377.71,204.09c0-4.08,1.43-6.05,3.67-6.05s3.65,2,3.65,6.05-1.43,6.11-3.65,6.11S377.71,208.17,377.71,204.09Zm5.89,0c0-3.43-.89-4.87-2.22-4.87s-2.24,1.44-2.24,4.87S380,209,381.38,209,383.6,207.55,383.6,204.09Z"/><path class="cls-4" d="M386.91,204.09c0-4.08,1.43-6.05,3.67-6.05s3.65,2,3.65,6.05-1.43,6.11-3.65,6.11S386.91,208.17,386.91,204.09Zm5.89,0c0-3.43-.89-4.87-2.22-4.87s-2.24,1.44-2.24,4.87.89,4.94,2.24,4.94S392.8,207.55,392.8,204.09Z"/><path class="cls-4" d="M400.21,203.91a10.6,10.6,0,0,1-3.19,7.62l-1-.49a10,10,0,0,0,0-14.25l1-.5A10.62,10.62,0,0,1,400.21,203.91Z"/><path class="cls-4" d="M39.6,616.77v5.74H38.54v-.84H29.8v.87h-1v-5.77h1v3.88h3.74v-4.78H29.29v-4.79h1v3.78h3.21v-5H34.6v5H38v-3.78H39v4.79H34.6v4.78h3.94v-3.88Z"/><path class="cls-4" d="M54.81,618.3v1H42v-1h1.4v-6.85h3v-1.71h1v1.71h2v-1.73h1v1.73h3.11v6.85Zm-7.64,1.83a17.15,17.15,0,0,1-4.23,2.44c-.19-.21-.56-.56-.78-.76a13.67,13.67,0,0,0,4-2.27Zm-2.74-7.72v2.34h2v-2.34Zm0,5.89h2v-2.58h-2Zm3-5.89v2.34h2v-2.34Zm2,3.31h-2v2.58h2Zm1,3.79a33.83,33.83,0,0,1,4.08,2.29l-.93.7a30.31,30.31,0,0,0-3.88-2.31Zm0-7.1v2.34H52.5v-2.34Zm0,5.89H52.5v-2.58H50.42Z"/><path class="cls-4" d="M60.22,615.05a.93.93,0,1,1,1.85,0,.93.93,0,1,1-1.85,0Zm0,5.64a.93.93,0,1,1,1.85,0,.93.93,0,1,1-1.85,0Z"/><path class="cls-4" d="M67.6,616.31c0-3.29,1.8-5.3,4.38-5.3s4.39,2,4.39,5.3-1.81,5.35-4.39,5.35S67.6,619.6,67.6,616.31Zm7.44,0c0-2.58-1.22-4.16-3.06-4.16s-3,1.58-3,4.16,1.2,4.21,3,4.21S75,618.87,75,616.31Z"/><path class="cls-4" d="M78.85,611.21h5.93v1.09H80.16v3.22h3.89v1.11H80.16v3.74h4.77v1.11H78.85Z"/><path class="cls-4" d="M86.78,616.35c0-3.32,1.94-5.34,4.55-5.34a3.8,3.8,0,0,1,2.82,1.28l-.71.84a2.77,2.77,0,0,0-2.1-1c-1.94,0-3.23,1.59-3.23,4.16s1.23,4.21,3.19,4.21a3.13,3.13,0,0,0,2.38-1.14l.72.81a4,4,0,0,1-3.15,1.47C88.7,621.66,86.78,619.68,86.78,616.35Z"/><path class="cls-4" d="M96.58,611.21h2.57c3.16,0,4.85,1.83,4.85,5.1s-1.69,5.17-4.79,5.17H96.58Zm2.46,9.2c2.43,0,3.62-1.51,3.62-4.1s-1.19-4-3.62-4H97.88v8.15Z"/><path class="cls-4" d="M106.1,620.69a.93.93,0,1,1,1.85,0,.93.93,0,1,1-1.85,0Z"/><path class="cls-4" d="M109.9,620.13l.78-.88a4,4,0,0,0,2.84,1.27c1.34,0,2.16-.67,2.16-1.68s-.75-1.38-1.71-1.82l-1.49-.64a2.91,2.91,0,0,1-2.08-2.64c0-1.58,1.37-2.73,3.23-2.73a4.21,4.21,0,0,1,3,1.28l-.69.82a3.36,3.36,0,0,0-2.34-1c-1.16,0-1.92.58-1.92,1.51s.9,1.37,1.7,1.71l1.47.63c1.19.52,2.11,1.22,2.11,2.74s-1.34,2.92-3.49,2.92A4.92,4.92,0,0,1,109.9,620.13Z"/><path class="cls-4" d="M119.4,619.12v-4.21h-1.14v-1l1.19-.07.16-2.13h1.06v2.13h2.06v1h-2.06v4.24c0,.94.3,1.47,1.18,1.47a2.74,2.74,0,0,0,.87-.2l.25,1a4.84,4.84,0,0,1-1.4.28C119.94,621.66,119.4,620.65,119.4,619.12Z"/><path class="cls-4" d="M124.25,619.5c0-1.65,1.45-2.48,4.68-2.84,0-1-.32-1.92-1.57-1.92a4.15,4.15,0,0,0-2.28.81l-.5-.88a5.7,5.7,0,0,1,3-1c1.85,0,2.64,1.25,2.64,3.13v4.68h-1.05l-.11-.92H129a4,4,0,0,1-2.52,1.1A2.07,2.07,0,0,1,124.25,619.5Zm4.68.13V617.5c-2.56.31-3.43.94-3.43,1.92s.59,1.21,1.35,1.21A3.07,3.07,0,0,0,128.93,619.63Z"/><path class="cls-4" d="M133.13,619.12v-4.21H132v-1l1.19-.07.15-2.13h1.07v2.13h2.05v1h-2.05v4.24c0,.94.29,1.47,1.17,1.47a2.62,2.62,0,0,0,.87-.2l.25,1a4.77,4.77,0,0,1-1.4.28C133.68,621.66,133.13,620.65,133.13,619.12Z"/><path class="cls-4" d="M144.29,610.89a8.87,8.87,0,0,0-.25.92,34.58,34.58,0,0,0-.67,5.53,15.47,15.47,0,0,0,.12,1.92c.23-.63.56-1.48.79-2l.58.46c-.33,1-.84,2.38-1,3.07a3.36,3.36,0,0,0-.07.61l.05.48-1,.08a16.8,16.8,0,0,1-.52-4.39,39.8,39.8,0,0,1,.63-5.76,8.77,8.77,0,0,0,.08-1Zm9.09,4.6c-.73.09-1.61.16-2.56.2,0,.85.05,1.75.1,2.55a8.59,8.59,0,0,1,2.94,1.79l-.59,1a8,8,0,0,0-2.3-1.69c0,.24,0,.45,0,.63,0,1.12-.8,1.81-2.3,1.81s-2.66-.66-2.66-2c0-1,.82-1.91,2.64-1.91a9.32,9.32,0,0,1,1.22.09c0-.7-.08-1.51-.09-2.24-1.1,0-2.25,0-3.35,0v-1c1.12.08,2.25.1,3.33.07v-2.28c-1,0-2.11,0-3.12,0v-1a31.79,31.79,0,0,0,6.4-.21v1c-.63.07-1.4.13-2.26.17v2.29c.94-.06,1.81-.14,2.58-.23Zm-3.44,3.44a4.48,4.48,0,0,0-1.29-.19c-1,0-1.63.41-1.63,1s.6,1,1.57,1,1.36-.55,1.36-1.29C150,619.35,150,619.15,149.94,618.93Z"/><path class="cls-4" d="M161.11,610.59c-.06.25-.12.55-.17.81s-.2,1.22-.35,2c.64,0,1.22-.09,1.55-.09,1.23,0,2.26.48,2.26,2.35a13.18,13.18,0,0,1-.82,5,2,2,0,0,1-2,1.17,8.14,8.14,0,0,1-1.62-.21l-.18-1.18a6.86,6.86,0,0,0,1.69.31,1.16,1.16,0,0,0,1.22-.72,12,12,0,0,0,.64-4.24c0-1.26-.57-1.48-1.45-1.48-.34,0-.88,0-1.49.09a27.81,27.81,0,0,1-2.91,7.46l-1.15-.47a21.59,21.59,0,0,0,2.91-6.87l-1.75.18c-.32,0-.88.11-1.24.17l-.12-1.22c.44,0,.8,0,1.24,0s1.27-.09,2.11-.16a15.9,15.9,0,0,0,.35-3Zm4.77,1.47a24.46,24.46,0,0,1,2.54,5l-1.1.52a16.48,16.48,0,0,0-2.47-5Z"/><path class="cls-4" d="M176.72,614.43c0,.91.07,2.26.14,3.46a11,11,0,0,1,4.31,2.37l-.67,1a9.72,9.72,0,0,0-3.6-2.28c0,.37,0,.67,0,.92,0,1.14-.7,2.12-2.55,2.12s-3.32-.62-3.32-2.2c0-1.25,1.09-2.28,3.49-2.28a9.2,9.2,0,0,1,1.17.08c-.05-1.12-.11-2.39-.11-3.22s0-1.95,0-2.54a10.37,10.37,0,0,0-.12-1.37h1.35a10.56,10.56,0,0,0-.11,1.37c0,.38,0,.87,0,1.42,1.1,0,2.85-.1,4.1-.27l0,1.07c-1.23.11-3,.19-4.14.22Zm-1,4.27a6.07,6.07,0,0,0-1.35-.14c-1.43,0-2.25.49-2.25,1.25s.77,1.19,2.11,1.19c1,0,1.51-.48,1.51-1.43C175.78,619.35,175.76,619.05,175.76,618.7Z"/><path class="cls-4" d="M186.33,610.47a25.55,25.55,0,0,0-.64,3.85c.54-1.43,2-3.15,3.75-3.15s3.18,1.85,3.18,4.76c0,3.85-2.42,5.55-5.87,6.18l-.66-1c3-.47,5.37-1.67,5.37-5.16,0-2.18-.73-3.75-2.2-3.75-1.72,0-3.32,2.51-3.49,4.33a5.7,5.7,0,0,0,0,1.69l-1.09.09a17.1,17.1,0,0,1-.14-2.2,36.08,36.08,0,0,1,.42-4.49c0-.43.1-.85.11-1.19Z"/><path class="cls-4" d="M200.85,610.13a21.6,21.6,0,0,1-1.43,3v9.4h-1v-7.79A15.63,15.63,0,0,1,197,616.4a5.73,5.73,0,0,0-.6-1,15.8,15.8,0,0,0,3.46-5.56Zm4.09,3v2h4v1h-4v2.12h4.19v1h-4.19v3.39h-1.05v-9.46h-1a14.76,14.76,0,0,1-2,2.92,6.38,6.38,0,0,0-.81-.7,14.72,14.72,0,0,0,3.08-5.37l1,.27c-.23.64-.49,1.27-.77,1.89h5.83v1Z"/><path class="cls-4" d="M222.54,614.5a15.81,15.81,0,0,1-2.46,4.73c.51,1.38,1.16,2.18,1.87,2.18.39,0,.56-.73.66-2.6a2.58,2.58,0,0,0,.9.57c-.2,2.38-.58,3.06-1.64,3.06s-1.92-.85-2.56-2.3a12.75,12.75,0,0,1-2.89,2.33,5.78,5.78,0,0,0-.76-.83,11,11,0,0,0,3.22-2.59,27.64,27.64,0,0,1-1-5.89H213V615h3.57v.44c-.07,3.14-.15,4.32-.45,4.68a1.06,1.06,0,0,1-.84.41,15,15,0,0,1-1.66,0,2.2,2.2,0,0,0-.3-1c.65.05,1.25.07,1.49.07a.46.46,0,0,0,.42-.16c.19-.21.26-1.09.32-3.5H213v.11c0,2-.21,4.78-1.47,6.6a4.18,4.18,0,0,0-.87-.7c1.15-1.71,1.28-4.1,1.28-5.91v-3.91h5.84c-.06-.77-.07-1.55-.09-2.35h1.08c0,.81,0,1.6.06,2.35h4.52v1h-4.45a25.15,25.15,0,0,0,.77,4.86,14,14,0,0,0,1.79-3.79Zm-2.42-4.68a13.34,13.34,0,0,1,2.5,1.6l-.64.71a14.58,14.58,0,0,0-2.48-1.68Z"/><path class="cls-4" d="M76.64,228l-2.14.94-.45-1.15,3-1.32h1v12.41H76.64Z"/><path class="cls-4" d="M83.33,230.83a5.3,5.3,0,0,1,.76-3.34,3.14,3.14,0,0,1,2.73-1.2,3.09,3.09,0,0,1,2.85,1.41,5.87,5.87,0,0,1,.63,3.13v3.65a5.26,5.26,0,0,1-.77,3.33,3.08,3.08,0,0,1-2.71,1.2A3.12,3.12,0,0,1,84,237.6a6,6,0,0,1-.62-3.12Zm5.54.14c0-2.47-.59-3.46-2.05-3.46s-2.07,1-2.07,3.46v3.37c0,2.47.59,3.46,2.07,3.46s2.05-1,2.05-3.46Z"/><path class="cls-4" d="M93.06,230.83a5.37,5.37,0,0,1,.76-3.34,3.14,3.14,0,0,1,2.73-1.2,3.09,3.09,0,0,1,2.85,1.41,5.87,5.87,0,0,1,.63,3.13v3.65a5.26,5.26,0,0,1-.77,3.33,3.63,3.63,0,0,1-5.57-.21,5.85,5.85,0,0,1-.63-3.12Zm5.54.14c0-2.47-.59-3.46-2-3.46s-2.07,1-2.07,3.46v3.37c0,2.47.6,3.46,2.07,3.46s2-1,2-3.46Z"/><path class="cls-4" d="M102.79,230.83a5.3,5.3,0,0,1,.77-3.34,3.63,3.63,0,0,1,5.57.21,5.87,5.87,0,0,1,.63,3.13v3.65a5.34,5.34,0,0,1-.76,3.33,3.64,3.64,0,0,1-5.58-.21,5.85,5.85,0,0,1-.63-3.12Zm5.54.14c0-2.47-.59-3.46-2-3.46s-2.06,1-2.06,3.46v3.37c0,2.47.59,3.46,2.06,3.46s2-1,2-3.46Z"/><path class="cls-4" d="M87.74,264.79a4,4,0,0,1-1.32.21,3.1,3.1,0,0,1-2-.66c-.71-.59-1-1.46-1-2.95,0-2.58,1.08-3.72,3.46-3.72a3.48,3.48,0,0,1,2.73,1,4,4,0,0,1,.7,2.62,5.36,5.36,0,0,1-.7,2.94l-3,6H84.94Zm-2.93-3.42c0,1.69.66,2.5,2,2.5s2-.81,2-2.48-.66-2.51-2-2.51S84.81,259.68,84.81,261.37Z"/><path class="cls-4" d="M93.06,262.2a5.34,5.34,0,0,1,.76-3.33,3.64,3.64,0,0,1,5.58.21,5.85,5.85,0,0,1,.63,3.12v3.65a5.28,5.28,0,0,1-.77,3.34,3.63,3.63,0,0,1-5.57-.21,5.87,5.87,0,0,1-.63-3.13Zm5.54.14c0-2.47-.59-3.46-2-3.46s-2.07,1-2.07,3.46v3.37c0,2.47.6,3.46,2.07,3.46s2-1,2-3.46Z"/><path class="cls-4" d="M102.79,262.2a5.26,5.26,0,0,1,.77-3.33,3.63,3.63,0,0,1,5.57.21,5.85,5.85,0,0,1,.63,3.12v3.65a5.35,5.35,0,0,1-.76,3.34,3.13,3.13,0,0,1-2.72,1.2,3.1,3.1,0,0,1-2.86-1.41,5.87,5.87,0,0,1-.63-3.13Zm5.54.14c0-2.47-.59-3.46-2-3.46s-2.06,1-2.06,3.46v3.37c0,2.47.59,3.46,2.06,3.46s2-1,2-3.46Z"/><path class="cls-4" d="M83.54,292.36c0-2.24,1.06-3.32,3.28-3.32s3.27,1.08,3.27,3.32a2.81,2.81,0,0,1-1.2,2.68c1.09.54,1.55,1.44,1.55,3.08,0,2.5-1.15,3.65-3.62,3.65s-3.63-1.15-3.63-3.65c0-1.64.45-2.54,1.55-3.08A2.79,2.79,0,0,1,83.54,292.36Zm1.09,5.77c0,1.66.68,2.42,2.19,2.42s2.17-.76,2.17-2.42-.69-2.43-2.15-2.43S84.63,296.45,84.63,298.13Zm.28-5.77c0,1.52.59,2.19,1.91,2.19s1.9-.67,1.9-2.19-.61-2.17-1.88-2.17S84.91,290.87,84.91,292.36Z"/><path class="cls-4" d="M93.06,293.58a5.39,5.39,0,0,1,.76-3.34,3.64,3.64,0,0,1,5.58.21,5.87,5.87,0,0,1,.63,3.13v3.65a5.32,5.32,0,0,1-.77,3.34,3.63,3.63,0,0,1-5.57-.21,5.87,5.87,0,0,1-.63-3.13Zm5.54.14c0-2.47-.59-3.46-2-3.46s-2.07,1-2.07,3.46v3.37c0,2.47.6,3.46,2.07,3.46s2-1,2-3.46Z"/><path class="cls-4" d="M102.79,293.58a5.32,5.32,0,0,1,.77-3.34,3.63,3.63,0,0,1,5.57.21,5.87,5.87,0,0,1,.63,3.13v3.65a5.39,5.39,0,0,1-.76,3.34,3.64,3.64,0,0,1-5.58-.21,5.87,5.87,0,0,1-.63-3.13Zm5.54.14c0-2.47-.59-3.46-2-3.46s-2.06,1-2.06,3.46v3.37c0,2.47.59,3.46,2.06,3.46s2-1,2-3.46Z"/><path class="cls-4" d="M88.59,321.79h-5v-1.21h6.54v.87L86.18,333H84.65Z"/><path class="cls-4" d="M93.06,325a5.35,5.35,0,0,1,.76-3.34,3.14,3.14,0,0,1,2.73-1.2,3.09,3.09,0,0,1,2.85,1.41A5.87,5.87,0,0,1,100,325v3.65a5.26,5.26,0,0,1-.77,3.33,3.63,3.63,0,0,1-5.57-.21,5.85,5.85,0,0,1-.63-3.12Zm5.54.14c0-2.47-.59-3.46-2-3.46s-2.07,1-2.07,3.46v3.37c0,2.47.6,3.46,2.07,3.46s2-1,2-3.46Z"/><path class="cls-4" d="M102.79,325a5.28,5.28,0,0,1,.77-3.34,3.63,3.63,0,0,1,5.57.21,5.87,5.87,0,0,1,.63,3.13v3.65a5.34,5.34,0,0,1-.76,3.33,3.64,3.64,0,0,1-5.58-.21,5.85,5.85,0,0,1-.63-3.12Zm5.54.14c0-2.47-.59-3.46-2-3.46s-2.06,1-2.06,3.46v3.37c0,2.47.59,3.46,2.06,3.46s2-1,2-3.46Z"/><path class="cls-4" d="M85.94,357a2.25,2.25,0,0,1,1.28-.31,2.93,2.93,0,0,1,2.45,1.18,4.78,4.78,0,0,1,.61,2.71,4.24,4.24,0,0,1-.83,3,3.59,3.59,0,0,1-2.61.94,3.4,3.4,0,0,1-2.76-1.13,4.37,4.37,0,0,1-.68-2.82,6.18,6.18,0,0,1,.92-3.42L87.1,352h1.62Zm-1.1,3.57c0,1.89.63,2.74,2,2.74s2-.85,2-2.73-.63-2.74-2-2.74S84.84,358.66,84.84,360.56Z"/><path class="cls-4" d="M93.06,356.33a5.34,5.34,0,0,1,.76-3.33,3.64,3.64,0,0,1,5.58.21,5.85,5.85,0,0,1,.63,3.12V360a5.3,5.3,0,0,1-.77,3.34,3.63,3.63,0,0,1-5.57-.21,5.87,5.87,0,0,1-.63-3.13Zm5.54.14c0-2.47-.59-3.46-2-3.46s-2.07,1-2.07,3.46v3.37c0,2.47.6,3.46,2.07,3.46s2-1,2-3.46Z"/><path class="cls-4" d="M102.79,356.33a5.26,5.26,0,0,1,.77-3.33,3.63,3.63,0,0,1,5.57.21,5.85,5.85,0,0,1,.63,3.12V360a5.37,5.37,0,0,1-.76,3.34,3.13,3.13,0,0,1-2.72,1.2,3.1,3.1,0,0,1-2.86-1.41,5.87,5.87,0,0,1-.63-3.13Zm5.54.14c0-2.47-.59-3.46-2-3.46s-2.06,1-2.06,3.46v3.37c0,2.47.59,3.46,2.06,3.46s2-1,2-3.46Z"/><path class="cls-4" d="M84.3,383.33h5.6v1.22H85.5l-.42,3.94a3.81,3.81,0,0,1,1.86-.47,3.26,3.26,0,0,1,2.66,1.2,4.5,4.5,0,0,1,.66,2.73,4,4,0,0,1-.8,2.82,3.69,3.69,0,0,1-2.88,1.13c-2,0-3.18-.92-3.41-2.66l1.37-.18a1.91,1.91,0,0,0,2.07,1.62c1.43,0,2.21-.92,2.21-2.64,0-2-.66-2.83-2.1-2.83a2.76,2.76,0,0,0-2,.78l-1-.23Z"/><path class="cls-4" d="M93.06,387.71a5.39,5.39,0,0,1,.76-3.34,3.64,3.64,0,0,1,5.58.21,5.87,5.87,0,0,1,.63,3.13v3.65a5.32,5.32,0,0,1-.77,3.34,3.63,3.63,0,0,1-5.57-.21,5.87,5.87,0,0,1-.63-3.13Zm5.54.14c0-2.47-.59-3.46-2-3.46s-2.07,1-2.07,3.46v3.37c0,2.47.6,3.46,2.07,3.46s2-1,2-3.46Z"/><path class="cls-4" d="M102.79,387.71a5.32,5.32,0,0,1,.77-3.34,3.63,3.63,0,0,1,5.57.21,5.87,5.87,0,0,1,.63,3.13v3.65a5.39,5.39,0,0,1-.76,3.34,3.64,3.64,0,0,1-5.58-.21,5.87,5.87,0,0,1-.63-3.13Zm5.54.14c0-2.47-.59-3.46-2-3.46s-2.06,1-2.06,3.46v3.37c0,2.47.59,3.46,2.06,3.46s2-1,2-3.46Z"/><path class="cls-4" d="M88.06,424.82H83v-.9l4-9.21h1.53l-3.86,8.91h3.41v-3.8h1.32v3.8h1.23v1.22H89.38v2.28H88.06Z"/><path class="cls-4" d="M93.06,419.09a5.35,5.35,0,0,1,.76-3.34,3.14,3.14,0,0,1,2.73-1.2A3.09,3.09,0,0,1,99.4,416a5.87,5.87,0,0,1,.63,3.13v3.65a5.26,5.26,0,0,1-.77,3.33,3.63,3.63,0,0,1-5.57-.21,5.85,5.85,0,0,1-.63-3.12Zm5.54.14c0-2.47-.59-3.46-2-3.46s-2.07,1-2.07,3.46v3.37c0,2.47.6,3.46,2.07,3.46s2-1,2-3.46Z"/><path class="cls-4" d="M102.79,419.09a5.28,5.28,0,0,1,.77-3.34,3.63,3.63,0,0,1,5.57.21,5.87,5.87,0,0,1,.63,3.13v3.65a5.34,5.34,0,0,1-.76,3.33,3.64,3.64,0,0,1-5.58-.21,5.85,5.85,0,0,1-.63-3.12Zm5.54.14c0-2.47-.59-3.46-2-3.46s-2.06,1-2.06,3.46v3.37c0,2.47.59,3.46,2.06,3.46s2-1,2-3.46Z"/><path class="cls-4" d="M85.08,451.37h1a2.08,2.08,0,0,0,2.27-2.12,1.86,1.86,0,0,0-1.93-2.11,1.84,1.84,0,0,0-1.93,1.48l-1.28-.12c.22-1.69,1.35-2.57,3.28-2.57a3,3,0,0,1,3.31,3.28,2.68,2.68,0,0,1-1.62,2.73,3.07,3.07,0,0,1,1.93,3.16c0,2.32-1.29,3.55-3.69,3.55-2.13,0-3.37-.94-3.56-2.66l1.37-.17a1.93,1.93,0,0,0,2.16,1.61,2.12,2.12,0,0,0,2.28-2.36,2.41,2.41,0,0,0-2.51-2.54H85.08Z"/><path class="cls-4" d="M93.06,450.46a5.34,5.34,0,0,1,.76-3.33,3.65,3.65,0,0,1,5.58.2,5.92,5.92,0,0,1,.63,3.13v3.65a5.3,5.3,0,0,1-.77,3.34,3.63,3.63,0,0,1-5.57-.21,5.87,5.87,0,0,1-.63-3.13Zm5.54.14c0-2.47-.59-3.46-2-3.46s-2.07,1-2.07,3.46V454c0,2.47.6,3.46,2.07,3.46s2-1,2-3.46Z"/><path class="cls-4" d="M102.79,450.46a5.26,5.26,0,0,1,.77-3.33,3.64,3.64,0,0,1,5.57.2,5.92,5.92,0,0,1,.63,3.13v3.65a5.37,5.37,0,0,1-.76,3.34,3.13,3.13,0,0,1-2.72,1.2,3.1,3.1,0,0,1-2.86-1.41,5.87,5.87,0,0,1-.63-3.13Zm5.54.14c0-2.47-.59-3.46-2-3.46s-2.06,1-2.06,3.46V454c0,2.47.59,3.46,2.06,3.46s2-1,2-3.46Z"/><path class="cls-4" d="M83.08,488.91l3.45-4.46c1.3-1.71,1.87-3,1.87-4.12a1.64,1.64,0,0,0-1.86-1.81,2.06,2.06,0,0,0-2.08,1.86l-1.31-.12a3.15,3.15,0,0,1,3.48-3c2.07,0,3.22,1.12,3.22,3.1,0,1.51-.49,2.54-2.37,5L85,488.65h4.93v1.22H83.08Z"/><path class="cls-4" d="M93.06,481.84a5.39,5.39,0,0,1,.76-3.34,3.64,3.64,0,0,1,5.58.21,5.87,5.87,0,0,1,.63,3.13v3.65a5.32,5.32,0,0,1-.77,3.34,3.63,3.63,0,0,1-5.57-.21,5.87,5.87,0,0,1-.63-3.13Zm5.54.14c0-2.47-.59-3.46-2-3.46s-2.07,1-2.07,3.46v3.37c0,2.47.6,3.46,2.07,3.46s2-1,2-3.46Z"/><path class="cls-4" d="M102.79,481.84a5.32,5.32,0,0,1,.77-3.34,3.63,3.63,0,0,1,5.57.21,5.87,5.87,0,0,1,.63,3.13v3.65a5.39,5.39,0,0,1-.76,3.34,3.64,3.64,0,0,1-5.58-.21,5.87,5.87,0,0,1-.63-3.13Zm5.54.14c0-2.47-.59-3.46-2-3.46s-2.06,1-2.06,3.46v3.37c0,2.47.59,3.46,2.06,3.46s2-1,2-3.46Z"/><path class="cls-4" d="M86.37,510.37l-2.14.93-.45-1.14,3-1.32h1v12.41H86.37Z"/><path class="cls-4" d="M93.06,513.22a5.37,5.37,0,0,1,.76-3.34,3.14,3.14,0,0,1,2.73-1.2,3.09,3.09,0,0,1,2.85,1.41,5.87,5.87,0,0,1,.63,3.13v3.65a5.26,5.26,0,0,1-.77,3.33,3.64,3.64,0,0,1-5.57-.2,5.92,5.92,0,0,1-.63-3.13Zm5.54.14c0-2.47-.59-3.46-2-3.46s-2.07,1-2.07,3.46v3.37c0,2.47.6,3.46,2.07,3.46s2-1,2-3.46Z"/><path class="cls-4" d="M102.79,513.22a5.3,5.3,0,0,1,.77-3.34,3.63,3.63,0,0,1,5.57.21,5.87,5.87,0,0,1,.63,3.13v3.65a5.34,5.34,0,0,1-.76,3.33,3.65,3.65,0,0,1-5.58-.2,5.92,5.92,0,0,1-.63-3.13Zm5.54.14c0-2.47-.59-3.46-2-3.46s-2.06,1-2.06,3.46v3.37c0,2.47.59,3.46,2.06,3.46s2-1,2-3.46Z"/><path class="cls-4" d="M102.79,544.59a5.26,5.26,0,0,1,.77-3.33,3.64,3.64,0,0,1,5.57.2,5.92,5.92,0,0,1,.63,3.13v3.65a5.37,5.37,0,0,1-.76,3.34,3.13,3.13,0,0,1-2.72,1.2,3.1,3.1,0,0,1-2.86-1.41,5.87,5.87,0,0,1-.63-3.13Zm5.54.14c0-2.47-.59-3.46-2-3.46s-2.06,1-2.06,3.46v3.37c0,2.47.59,3.46,2.06,3.46s2-1,2-3.46Z"/><path class="cls-4" d="M116.35,563.65c0-2.24,1.06-3.32,3.29-3.32s3.27,1.08,3.27,3.32a2.81,2.81,0,0,1-1.2,2.68c1.09.54,1.54,1.44,1.54,3.07,0,2.51-1.14,3.65-3.61,3.65S116,571.91,116,569.4c0-1.63.45-2.53,1.54-3.07A2.81,2.81,0,0,1,116.35,563.65Zm1.1,5.77c0,1.65.68,2.42,2.19,2.42s2.17-.77,2.17-2.42-.69-2.43-2.15-2.43S117.45,567.73,117.45,569.42Zm.28-5.77c0,1.51.59,2.19,1.91,2.19s1.89-.68,1.89-2.19-.6-2.17-1.87-2.17S117.73,562.16,117.73,563.65Z"/><path class="cls-4" d="M130.29,567.46a4.26,4.26,0,0,1-1.32.21,3.1,3.1,0,0,1-2-.67c-.71-.59-1-1.46-1-3,0-2.57,1.08-3.72,3.46-3.72a3.51,3.51,0,0,1,2.73,1,4,4,0,0,1,.69,2.63,5.4,5.4,0,0,1-.69,2.94l-3,6h-1.62ZM127.35,564c0,1.69.67,2.51,2,2.51s2-.82,2-2.49-.66-2.5-2-2.5S127.35,562.35,127.35,564Z"/><path class="cls-4" d="M163.62,567.46a4.31,4.31,0,0,1-1.32.21,3.08,3.08,0,0,1-2.05-.67c-.72-.59-1-1.46-1-3,0-2.57,1.08-3.72,3.46-3.72a3.52,3.52,0,0,1,2.73,1,4.06,4.06,0,0,1,.69,2.63,5.48,5.48,0,0,1-.69,2.94l-3,6h-1.62ZM160.68,564c0,1.69.66,2.51,2,2.51s2-.82,2-2.49-.66-2.5-2-2.5S160.68,562.35,160.68,564Z"/><path class="cls-4" d="M170.69,565.77h1a2.09,2.09,0,0,0,2.28-2.12,2,2,0,0,0-3.86-.63l-1.28-.12c.22-1.68,1.35-2.57,3.28-2.57a3,3,0,0,1,3.3,3.29,2.66,2.66,0,0,1-1.61,2.72,3.07,3.07,0,0,1,1.92,3.17c0,2.31-1.28,3.54-3.68,3.54-2.14,0-3.37-.94-3.56-2.66l1.37-.17a1.94,1.94,0,0,0,2.16,1.62,2.12,2.12,0,0,0,2.27-2.37,2.4,2.4,0,0,0-2.5-2.53h-1.13Z"/><path class="cls-4" d="M206.67,567.46a4.22,4.22,0,0,1-1.32.21,3.1,3.1,0,0,1-2-.67c-.71-.59-1-1.46-1-3,0-2.57,1.08-3.72,3.46-3.72a3.49,3.49,0,0,1,2.73,1,4,4,0,0,1,.7,2.63,5.4,5.4,0,0,1-.7,2.94l-3,6h-1.61ZM203.74,564c0,1.69.66,2.51,2,2.51s2-.82,2-2.49-.66-2.5-2-2.5S203.74,562.35,203.74,564Z"/><path class="cls-4" d="M217.26,561.7h-5v-1.21h6.54v.87l-3.93,11.54h-1.53Z"/><path class="cls-4" d="M245.32,564.87a5.3,5.3,0,0,1,.76-3.34,3.14,3.14,0,0,1,2.73-1.2,3.09,3.09,0,0,1,2.85,1.41,5.87,5.87,0,0,1,.63,3.13v3.65a5.26,5.26,0,0,1-.77,3.33,3.09,3.09,0,0,1-2.71,1.2,3.13,3.13,0,0,1-2.87-1.4,6,6,0,0,1-.62-3.13Zm5.54.14c0-2.47-.59-3.46-2.05-3.46s-2.07,1-2.07,3.46v3.37c0,2.47.59,3.46,2.07,3.46s2.05-1,2.05-3.46Z"/><path class="cls-4" d="M258.09,562,256,563l-.45-1.15,3-1.32h1V572.9h-1.44Z"/><path class="cls-4" d="M288.37,564.87a5.3,5.3,0,0,1,.77-3.34,3.64,3.64,0,0,1,5.58.21,5.88,5.88,0,0,1,.62,3.13v3.65a5.27,5.27,0,0,1-.76,3.33,3.09,3.09,0,0,1-2.71,1.2,3.13,3.13,0,0,1-2.87-1.4,5.92,5.92,0,0,1-.63-3.13Zm5.55.14c0-2.47-.59-3.46-2.05-3.46s-2.07,1-2.07,3.46v3.37c0,2.47.59,3.46,2.07,3.46s2.05-1,2.05-3.46Z"/><path class="cls-4" d="M299.08,560.49h5.6v1.21h-4.4l-.42,3.95a3.81,3.81,0,0,1,1.86-.47,3.23,3.23,0,0,1,2.66,1.2,4.5,4.5,0,0,1,.66,2.73,4,4,0,0,1-.8,2.81,3.69,3.69,0,0,1-2.88,1.13c-2,0-3.18-.92-3.41-2.66l1.37-.17a1.91,1.91,0,0,0,2.07,1.62c1.43,0,2.21-.92,2.21-2.65,0-1.94-.66-2.83-2.1-2.83a2.78,2.78,0,0,0-2,.78l-1-.22Z"/><path class="cls-4" d="M331.43,564.87a5.3,5.3,0,0,1,.77-3.34,3.64,3.64,0,0,1,5.58.21,6,6,0,0,1,.62,3.13v3.65a5.27,5.27,0,0,1-.76,3.33,3.65,3.65,0,0,1-5.58-.2,5.92,5.92,0,0,1-.63-3.13ZM337,565c0-2.47-.59-3.46-2.05-3.46s-2.07,1-2.07,3.46v3.37c0,2.47.59,3.46,2.07,3.46s2.05-1,2.05-3.46Z"/><path class="cls-4" d="M345.58,567.46a4.31,4.31,0,0,1-1.32.21,3.08,3.08,0,0,1-2.05-.67c-.72-.59-1-1.46-1-3,0-2.57,1.08-3.72,3.46-3.72a3.52,3.52,0,0,1,2.73,1,4.06,4.06,0,0,1,.69,2.63,5.48,5.48,0,0,1-.69,2.94l-3,6h-1.62ZM342.64,564c0,1.69.66,2.51,2,2.51s2-.82,2-2.49-.66-2.5-2-2.5S342.64,562.35,342.64,564Z"/><path class="cls-4" d="M377.53,562l-2.14.94-.45-1.15,3-1.32h1V572.9h-1.44Z"/><path class="cls-4" d="M386,565.77h1a2.09,2.09,0,0,0,2.28-2.12,1.85,1.85,0,0,0-1.93-2.1,1.83,1.83,0,0,0-1.93,1.47l-1.29-.12c.23-1.68,1.36-2.57,3.29-2.57a3,3,0,0,1,3.3,3.29,2.67,2.67,0,0,1-1.62,2.72,3.07,3.07,0,0,1,1.93,3.17c0,2.31-1.29,3.54-3.68,3.54-2.14,0-3.38-.94-3.57-2.66l1.38-.17a1.94,1.94,0,0,0,2.15,1.62,2.12,2.12,0,0,0,2.28-2.37,2.41,2.41,0,0,0-2.5-2.53H386Z"/><path class="cls-4" d="M420.59,562l-2.14.94-.45-1.15,3-1.32h1V572.9h-1.44Z"/><path class="cls-4" d="M432.54,561.7h-5v-1.21h6.54v.87l-3.93,11.54H428.6Z"/><path class="cls-5" d="M411.54,502.31h8.19v2.46h-5.68l-.4,3.82a5.3,5.3,0,0,1,5.59,1.08c.69.83,1,2,1,3.88s-.34,3.13-1.1,4A5.5,5.5,0,0,1,415,519c-3.08,0-4.73-1.4-4.92-4.23l2.83-.32a2.07,2.07,0,0,0,2.16,2.11c1.43,0,2.14-.92,2.14-2.8,0-2.21-.62-3.11-2.14-3.11a2.55,2.55,0,0,0-2.09,1l-2.21-.46Z"/><path class="cls-5" d="M428.67,504.77h-6.09v-2.46h9.22v1.79l-4.92,14.63h-3.2Z"/><path class="cls-6" d="M407.35,438.71l3.44-4.47c1.31-1.7,1.88-3,1.88-4.11a1.64,1.64,0,0,0-1.86-1.81,2.06,2.06,0,0,0-2.09,1.86l-1.3-.12a3.15,3.15,0,0,1,3.48-3c2.06,0,3.21,1.11,3.21,3.09,0,1.52-.48,2.54-2.36,5l-2.49,3.25h4.94v1.22h-6.85Z"/><path class="cls-6" d="M421.9,428.47h-5v-1.21h6.54v.87l-3.93,11.54H418Z"/><path class="cls-6" d="M427.93,432.3a2.17,2.17,0,0,1,1.28-.31,2.9,2.9,0,0,1,2.45,1.18,4.76,4.76,0,0,1,.61,2.71,4.19,4.19,0,0,1-.83,3,3.56,3.56,0,0,1-2.61.94,3.4,3.4,0,0,1-2.76-1.13,4.36,4.36,0,0,1-.68-2.81,6.19,6.19,0,0,1,.92-3.43l2.78-5.19h1.62Zm-1.1,3.56c0,1.9.63,2.75,2,2.75s2-.85,2-2.73-.63-2.75-2-2.75S426.83,434,426.83,435.86Z"/><path class="cls-7" d="M405.61,254.77l3.44-4.46c1.31-1.7,1.88-3,1.88-4.12a1.64,1.64,0,0,0-1.86-1.81,2.05,2.05,0,0,0-2.08,1.86l-1.31-.12a3.14,3.14,0,0,1,3.48-3c2.07,0,3.21,1.11,3.21,3.09,0,1.51-.48,2.54-2.36,5l-2.48,3.25h4.93v1.22h-6.85Z"/><path class="cls-7" d="M420,250.29a4,4,0,0,1-1.32.21,3.15,3.15,0,0,1-2.05-.66c-.71-.59-1-1.46-1-3,0-2.57,1.08-3.71,3.46-3.71a3.48,3.48,0,0,1,2.73,1,4,4,0,0,1,.7,2.62,5.38,5.38,0,0,1-.7,2.94l-3,6H417.2Zm-2.93-3.42c0,1.68.66,2.5,2,2.5s2-.82,2-2.49-.66-2.5-2-2.5S417.07,245.18,417.07,246.87Z"/><path class="cls-7" d="M430.59,244.54h-5v-1.22h6.54v.87l-3.93,11.54h-1.53Z"/><path class="cls-4" d="M452.65,562l-2.14.94-.45-1.15,3-1.32h1V572.9h-1.44Z"/><path class="cls-4" d="M458.85,563.65c0-2.24,1.06-3.32,3.29-3.32s3.26,1.08,3.26,3.32a2.81,2.81,0,0,1-1.19,2.68c1.09.54,1.54,1.44,1.54,3.07,0,2.51-1.14,3.65-3.61,3.65s-3.64-1.14-3.64-3.65c0-1.63.46-2.53,1.55-3.07A2.81,2.81,0,0,1,458.85,563.65Zm1.1,5.77c0,1.65.68,2.42,2.19,2.42s2.17-.77,2.17-2.42-.7-2.43-2.16-2.43S460,567.73,460,569.42Zm.28-5.77c0,1.51.59,2.19,1.91,2.19s1.89-.68,1.89-2.19-.61-2.17-1.88-2.17S460.23,562.16,460.23,563.65Z"/><path class="cls-4" d="M481.88,569.81h-5V573h-1v-3.14h-6.33v-1h2.25v-3.67h4.08v-2.09h-3.33a12.27,12.27,0,0,1-2.08,2.7,6.89,6.89,0,0,0-.88-.64,11.68,11.68,0,0,0,3.09-4.73l1,.25c-.19.48-.41,1-.63,1.44h8.17v1h-4.33v2.09h4v1h-4v2.71h5Zm-6-1v-2.71h-3.07v2.71Z"/><path class="cls-5" d="M463.38,516.61v17.2h-2.57v-1.26h-8.88v1.3h-2.46V516.61ZM451.93,519v4.3h8.88V519Zm8.88,11.14v-4.48h-8.88v4.48Z"/><path class="cls-5" d="M470.15,527.45a18.49,18.49,0,0,1-1.2,5.16,11.76,11.76,0,0,0-1.82-.86,14.54,14.54,0,0,0,1.06-4.64ZM485.54,517a12.69,12.69,0,0,1-3.26,5.18,14.27,14.27,0,0,0,4.1,1.52,9.55,9.55,0,0,0-1.46,1.92,14.65,14.65,0,0,1-4.46-2,18.16,18.16,0,0,1-4.57,2.1,9.32,9.32,0,0,0-1.26-1.92,11.94,11.94,0,0,1,.82,2.36l-1.68.76a9.59,9.59,0,0,0-.26-1l-1,.08v8.18h-2.06v-8l-2.9.18-.2-2.06,1.44-.06c.3-.38.62-.82.94-1.28a19.63,19.63,0,0,0-2.36-2.72l1.14-1.62.46.4a25,25,0,0,0,1.46-3.49l2.06.77c-.72,1.36-1.52,2.9-2.24,4,.26.28.48.56.68.8a36.27,36.27,0,0,0,1.78-3.24l1.94.9c-1.1,1.74-2.48,3.76-3.74,5.38l1.92-.08c-.22-.5-.46-1-.7-1.44l1.58-.66a19.72,19.72,0,0,1,.92,1.84,15.33,15.33,0,0,0,4-1.66,13,13,0,0,1-2.36-3.26l1.28-.42h-2.28v-2h8.29l.42-.1Zm-11.33,10a22.05,22.05,0,0,1,1.24,3.6l-1.76.64a23.67,23.67,0,0,0-1.16-3.72Zm7.49,4.5h4.38v2.08H474.77v-2.08h4.58v-2.34H476V527h3.4v-2.38h2.35V527h3.56v2.1H481.7Zm-3.27-13.08a9.06,9.06,0,0,0,1.92,2.38,9.92,9.92,0,0,0,2-2.38Z"/><path class="cls-6" d="M447.74,455.52h5.8v1.07H449V460h3.83v1.07H449v4.51h-1.28Z"/><path class="cls-6" d="M457.67,456.59h-3v-1.07H462v1.07h-3v9h-1.28Z"/><path class="cls-6" d="M463.33,464.25l.75-.86a4,4,0,0,0,2.78,1.24c1.32,0,2.11-.65,2.11-1.64s-.72-1.36-1.67-1.78l-1.45-.63a2.84,2.84,0,0,1-2-2.58c0-1.55,1.34-2.67,3.16-2.67a4.12,4.12,0,0,1,3,1.25l-.67.81a3.25,3.25,0,0,0-2.29-.95c-1.14,0-1.88.58-1.88,1.48s.88,1.34,1.66,1.67l1.44.62a2.78,2.78,0,0,1,2.07,2.68c0,1.59-1.31,2.85-3.41,2.85A4.77,4.77,0,0,1,463.33,464.25Z"/><path class="cls-6" d="M472.5,455.52h5.8v1.07h-4.52v3.15h3.81v1.08h-3.81v3.66h4.67v1.09H472.5Z"/><path class="cls-7" d="M450.52,253.29H453c3.08,0,4.74,1.8,4.74,5s-1.66,5.06-4.69,5.06h-2.57Zm2.41,9c2.37,0,3.53-1.48,3.53-4s-1.16-4-3.53-4h-1.14v8Z"/><path class="cls-7" d="M459.53,259.62c0-2.48,1.63-3.91,3.45-3.91s3.45,1.43,3.45,3.91-1.63,3.9-3.45,3.9S459.53,262.09,459.53,259.62Zm5.62,0c0-1.71-.88-2.87-2.17-2.87s-2.15,1.16-2.15,2.87.86,2.85,2.15,2.85S465.15,261.34,465.15,259.62Z"/><path class="cls-7" d="M467.77,255.9h1.28l1.11,4.3c.15.71.3,1.38.44,2.08h.06c.17-.7.32-1.38.51-2.08l1.15-4.3h1.22l1.17,4.3c.17.71.34,1.38.52,2.08h0c.17-.7.3-1.37.47-2.08l1.09-4.3H478l-2,7.44h-1.51l-1.08-4c-.19-.7-.33-1.38-.51-2.13h-.06c-.17.75-.32,1.45-.51,2.16l-1,4h-1.47Z"/><polyline class="cls-8" points="126.75 516.4 134.2 528.95 145 528.95 155.79 533.78 172.18 530.4 201.45 530.88 209.34 534.98 225.32 534.98 233.2 530.64 256.45 539.57 288.64 538.12 298.37 532.09 317.05 533.05 329.11 539.57 338.85 537.4 356.49 538.12 367.28 539.57 374.96 537.88 383.47 532.81 420.41 530.64 428.3 527.98 439.52 527.98"/><path class="cls-9" d="M125.35,516.4h13l7.2-8h10.51l10.52-4.18,11.9-1.61,25.46-36.36,5.81-8.05,11.07-15.45,9.69-20.27,1.66-6.76,16.05,11.59,8,7.08,8.86,15.76,10-21.23,5.26-3.54,18.26-1S308,406,309.65,403.44s10.52-7.72,10.52-7.72L324.32,416l5.91,29s14-23.5,16.5-25.75,13.56-10.94,13.56-10.94l13-10.62s9.69-30.89,10.25-34.43,7.19-14.81,7.19-14.81l5.81-5.15s6.92,3.22,8,3.22,3.87-3.22,3.87-3.22,10-23.49,10.52-27.35,4.15-23.17,4.15-23.17l5.26-28.32,11.15-8.69"/><path class="cls-10" d="M126.75,516.4l9.53,1.69,9.13-3.14,9.55-4.59,12.45-7.72,10,3.38,11.21-6.52,12.48-6.27L211,481.4l13.49-12.79L232.37,458a133.8,133.8,0,0,0,11.75,9.41c4.44,2.9,12.54,14,12.54,14l6.85,12.07,2.9,1.45L278.07,488l9.11-5s11.61-10.86,16.38-13.27,14.32-6.76,15.57-6.76,9.75,22.69,9.75,22.69l2.49,2.29,9.55-11s7.68-5.55,8.51-5.55a26.34,26.34,0,0,0,4.15-1.21l8.3,4.1,6.44-2.17,6-2.17,10.37-10.86,10,1.69,11.83,4.1,15.77-15.21,6.85-2.89,10.39,12.79"/><rect class="cls-2" x="556.25" y="232.72" width="322.92" height="313.82"/><rect class="cls-11" x="876.67" y="502.38" width="2.5" height="1"/><path class="cls-11" d="M871.62,503.38h-5v-1h5Zm-10.09,0h-5v-1h5Zm-10.1,0h-5v-1h5Zm-10.09,0h-5v-1h5Zm-10.09,0h-5v-1h5Zm-10.09,0h-5v-1h5Zm-10.1,0h-5v-1h5Zm-10.09,0h-5v-1h5Zm-10.09,0h-5v-1h5Zm-10.09,0h-5v-1h5Zm-10.1,0h-5v-1h5Zm-10.09,0h-5.05v-1h5.05Zm-10.09,0h-5v-1h5Zm-10.09,0h-5v-1h5Zm-10.1,0h-5v-1h5Zm-10.09,0h-5.05v-1h5.05Zm-10.09,0h-5v-1h5Zm-10.09,0h-5v-1h5Zm-10.1,0h-5v-1h5Zm-10.09,0h-5.05v-1h5.05Zm-10.09,0h-5v-1h5Zm-10.09,0h-5v-1h5Zm-10.1,0h-5v-1h5Zm-10.09,0h-5v-1h5Zm-10.09,0h-5v-1h5Zm-10.1,0h-5v-1h5Zm-10.09,0h-5v-1h5Zm-10.09,0h-5v-1h5Zm-10.09,0h-5v-1h5Zm-10.1,0h-5v-1h5Zm-10.09,0h-5v-1h5Z"/><rect class="cls-11" x="556.25" y="502.38" width="2.5" height="1"/><path class="cls-4" d="M616,211.73h-1.2v-.68h-6.57v.64H607.1v-5.05a20,20,0,0,1-3.93,1.79,3.62,3.62,0,0,0-.71-1,17.68,17.68,0,0,0,5.94-3.08,19.64,19.64,0,0,0-2.93-2.62,18.39,18.39,0,0,1-2.09,1.46,4.05,4.05,0,0,0-.84-.92,13.42,13.42,0,0,0,5.38-5.2l1.33.27c-.27.45-.58.92-.91,1.38h4.51l.23-.06.78.41a15,15,0,0,1-4.37,5.91H616Zm-8.57-12a13.79,13.79,0,0,1-1.13,1.17,20.33,20.33,0,0,1,3,2.58,12.84,12.84,0,0,0,2.88-3.75ZM614.84,210V206h-6.57V210Z"/><path class="cls-4" d="M631.56,198.09v13.52h-1.24v-1.08H622v1.08h-1.17V198.09ZM622,199.24v2.59h8.37v-2.59Zm0,3.73v2.63h8.37V203Zm8.37,6.39v-2.63H622v2.63Z"/><path class="cls-4" d="M637.71,200a16.56,16.56,0,0,1-1.84,1.21,6.24,6.24,0,0,0-.86-.84,12.66,12.66,0,0,0,4.22-3.27l1.09.4a11.24,11.24,0,0,1-1.47,1.55v3.72h-1.14Zm3.52,10a22,22,0,0,1-4.93,1.77,7.87,7.87,0,0,0-.86-.88,20.69,20.69,0,0,0,4.72-1.37Zm-3.74-6.63h10.34v6H637.49Zm1.15,1.76h8v-1h-8Zm0,1.71h8v-1h-8Zm0,1.75h8v-1h-8Zm5.31-10c-1.07.08-2.16.13-3.16.16a4.29,4.29,0,0,0-.24-.77,57.51,57.51,0,0,0,7.26-.67l.71.75c-.95.18-2.15.34-3.43.45v1.15h4.5v.89h-4.5v1.15h3.78v.88h-8.44v-.88H644v-1.15h-4.19v-.89H644Zm.87,11a48,48,0,0,1,4.82,1.58l-1.36.59a43.9,43.9,0,0,0-4.47-1.58Z"/><path class="cls-4" d="M659.39,210.13h6.26v1.05H652.08v-1.05h6.08v-4H652.8v-1h5.36V203h-3.3v-.92a20.62,20.62,0,0,1-2.64,1.67,3.59,3.59,0,0,0-.72-.93,17.91,17.91,0,0,0,6.63-5.75h1.18a18.85,18.85,0,0,0,7,5.54,5.5,5.5,0,0,0-.77,1.06,20.54,20.54,0,0,1-2.67-1.67v1h-3.43v2.14h5.49v1h-5.49Zm-4.3-3.53a10.76,10.76,0,0,1,1.52,2.85l-1,.47a11,11,0,0,0-1.45-2.95Zm7.63-4.67a18.8,18.8,0,0,1-3.93-3.71,17.59,17.59,0,0,1-3.75,3.71Zm-2,7.59a18.47,18.47,0,0,0,1.72-3l1.12.43a26.88,26.88,0,0,1-2,2.92Z"/><path class="cls-4" d="M675,209.69a9.91,9.91,0,0,0,1.36-.19,4.75,4.75,0,0,0,4-4.69,4.39,4.39,0,0,0-4.21-4.59,32.7,32.7,0,0,1-.94,4.56c-1,3.25-2.24,4.93-3.71,4.93s-2.84-1.63-2.84-4.24a6.77,6.77,0,0,1,7-6.45,5.75,5.75,0,0,1,6.08,5.82c0,3.33-2.19,5.56-6,6Zm-1-5.18a26.16,26.16,0,0,0,.88-4.28,5.53,5.53,0,0,0-4.9,5.13c0,2,.93,2.88,1.61,2.88S673.09,207.18,673.91,204.51Z"/><path class="cls-4" d="M689.23,205.16l-1.68.53v4.56c0,.68-.14,1-.54,1.22a5.52,5.52,0,0,1-2.11.21,5,5,0,0,0-.36-1.14c.72,0,1.38,0,1.59,0s.27-.07.27-.31V206l-2.15.66-.27-1.15c.66-.16,1.51-.4,2.42-.67v-3.49h-2.15V200.3h2.15v-3.2h1.15v3.2h1.55v1.09h-1.55v3.15l1.54-.45Zm9.58,5.7h-7.24v.82h-1.14v-9.24a10.76,10.76,0,0,1-1.18,1.52,8.68,8.68,0,0,0-.8-1,14.19,14.19,0,0,0,3.17-5.91l1.13.29a20.84,20.84,0,0,1-1,2.74h2.45a21.89,21.89,0,0,0,1.09-3l1.25.29c-.36.88-.79,1.85-1.17,2.67h3.18v1.07h-3.26v2.15h2.88v1h-2.88v2.18h2.88v1h-2.88v2.22h3.54Zm-4.63-9.7h-2.61v2.15h2.61Zm0,3.17h-2.61v2.18h2.61Zm-2.61,5.44h2.61v-2.22h-2.61Z"/><path class="cls-4" d="M705.86,206.8a19.81,19.81,0,0,0-1.46-2v6.85h-1.15v-7.07a17.51,17.51,0,0,1-2.32,4.19,5.5,5.5,0,0,0-.6-1.09,16.43,16.43,0,0,0,2.76-5h-2.45v-1.12h2.61v-2.43c-.79.16-1.6.29-2.34.4a4,4,0,0,0-.37-.93,23.38,23.38,0,0,0,5.06-1.28l.83.9a13.54,13.54,0,0,1-2,.64v2.7h2v1.12h-2v1c.5.42,1.86,1.82,2.18,2.19Zm9.28-1.94c-1.36,4-4.74,6-8.58,6.85a3.49,3.49,0,0,0-.61-1,12.66,12.66,0,0,0,4.87-1.92,13.19,13.19,0,0,0-2.29-1.73A14.7,14.7,0,0,1,707,208a3.06,3.06,0,0,0-.75-.81,10.3,10.3,0,0,0,4.71-4.08,13.29,13.29,0,0,1-4,1.85,4.14,4.14,0,0,0-.62-1,11.47,11.47,0,0,0,3.87-1.69,11.69,11.69,0,0,0-2-1.6,14.29,14.29,0,0,1-1.39.86,3.42,3.42,0,0,0-.77-.8,9.7,9.7,0,0,0,4.07-3.63l1.18.2a8.67,8.67,0,0,1-.8,1.17h2.91l.23-.05.73.36a9.22,9.22,0,0,1-3.4,4.29l1.2.2a12.93,12.93,0,0,1-.88,1.3h2.92l.23,0Zm-5.57-5.4a7.31,7.31,0,0,1-.64.6,11.86,11.86,0,0,1,2.07,1.58,7.29,7.29,0,0,0,1.77-2.18Zm.75,6.12a9.45,9.45,0,0,1-.93.83,11.33,11.33,0,0,1,2.31,1.7,7.67,7.67,0,0,0,1.9-2.53Z"/><path class="cls-4" d="M727.25,204.4a10.62,10.62,0,0,1,3.19-7.62l1,.49a10,10,0,0,0,0,14.25l-1,.49A10.62,10.62,0,0,1,727.25,204.4Z"/><path class="cls-4" d="M733.85,209.26h2.61v-8.75h-2.08v-.93a7.38,7.38,0,0,0,2.44-.84h1.12v10.52h2.35v1.22h-6.44Z"/><path class="cls-4" d="M743.38,208.57a2.63,2.63,0,0,0,2,.9c1.52,0,2.84-1.25,2.95-4.9a3.63,3.63,0,0,1-2.71,1.46c-2,0-3.23-1.27-3.23-3.7a3.53,3.53,0,0,1,3.36-3.81c2.26,0,3.94,1.86,3.94,5.59,0,4.75-2,6.58-4.26,6.58a3.74,3.74,0,0,1-2.81-1.2Zm4.89-5.2c-.16-2.42-1-3.7-2.56-3.7-1.12,0-2,1.06-2,2.66s.7,2.61,2.09,2.61A3.09,3.09,0,0,0,748.27,203.37Z"/><path class="cls-4" d="M752.58,208.57a2.63,2.63,0,0,0,2,.9c1.52,0,2.84-1.25,3-4.9a3.61,3.61,0,0,1-2.71,1.46c-1.95,0-3.23-1.27-3.23-3.7a3.53,3.53,0,0,1,3.36-3.81c2.26,0,3.94,1.86,3.94,5.59,0,4.75-2.05,6.58-4.26,6.58a3.74,3.74,0,0,1-2.81-1.2Zm4.89-5.2c-.16-2.42-1.05-3.7-2.56-3.7-1.12,0-2,1.06-2,2.66s.7,2.61,2.09,2.61A3.09,3.09,0,0,0,757.47,203.37Z"/><path class="cls-4" d="M760.49,209.13l.72-1a3.91,3.91,0,0,0,2.89,1.3,2.54,2.54,0,0,0,2.49-2.77,2.37,2.37,0,0,0-2.43-2.67,3.18,3.18,0,0,0-1.95.69l-.79-.49.37-5.49h5.71V200h-4.43l-.29,3.4a3.53,3.53,0,0,1,5.29,3.26,3.82,3.82,0,0,1-3.85,4A5,5,0,0,1,760.49,209.13Z"/><path class="cls-4" d="M788.45,208h-5.79v3.67h-1.2V208h-7.4v-1.15h2.63V202.6h4.77v-2.43h-3.89a14.6,14.6,0,0,1-2.44,3.15,6.9,6.9,0,0,0-1-.75,13.47,13.47,0,0,0,3.6-5.52l1.2.29c-.22.56-.48,1.13-.73,1.68h9.54v1.15h-5.06v2.43h4.69v1.12h-4.69v3.17h5.79Zm-7-1.15v-3.17h-3.59v3.17Z"/><path class="cls-4" d="M794.17,202.12h7.67v1.09h-7.67Zm0,3.83h7.67V207h-7.67Z"/><path class="cls-4" d="M808.08,209.26h2.61v-8.75h-2.08v-.93a7.32,7.32,0,0,0,2.43-.84h1.12v10.52h2.35v1.22h-6.43Z"/><path class="cls-4" d="M816.65,204.57c0-4.08,1.43-6,3.67-6s3.65,2,3.65,6-1.43,6.12-3.65,6.12S816.65,208.65,816.65,204.57Zm5.89,0c0-3.42-.89-4.86-2.22-4.86s-2.24,1.44-2.24,4.86.9,5,2.24,5S822.54,208,822.54,204.57Z"/><path class="cls-4" d="M825.85,204.57c0-4.08,1.43-6,3.67-6s3.65,2,3.65,6-1.42,6.12-3.65,6.12S825.85,208.65,825.85,204.57Zm5.9,0c0-3.42-.9-4.86-2.23-4.86s-2.24,1.44-2.24,4.86.9,5,2.24,5S831.75,208,831.75,204.57Z"/><path class="cls-4" d="M839.15,204.4A10.61,10.61,0,0,1,836,212l-1-.49a10,10,0,0,0,0-14.25l1-.49A10.62,10.62,0,0,1,839.15,204.4Z"/><path class="cls-4" d="M522.73,237.9l3.44-4.47c1.3-1.7,1.87-3,1.87-4.12a1.63,1.63,0,0,0-1.86-1.8,2.06,2.06,0,0,0-2.08,1.86l-1.3-.12a3.14,3.14,0,0,1,3.47-3c2.07,0,3.22,1.11,3.22,3.09,0,1.52-.49,2.54-2.37,5l-2.48,3.25h4.93v1.22h-6.84Z"/><path class="cls-4" d="M532.46,237.9l3.44-4.47c1.3-1.7,1.88-3,1.88-4.12a1.64,1.64,0,0,0-1.86-1.8,2.06,2.06,0,0,0-2.09,1.86l-1.3-.12a3.14,3.14,0,0,1,3.47-3c2.07,0,3.22,1.11,3.22,3.09,0,1.52-.49,2.54-2.37,5l-2.48,3.25h4.94v1.22h-6.85Z"/><path class="cls-4" d="M542.43,230.83a5.3,5.3,0,0,1,.77-3.34,3.64,3.64,0,0,1,5.58.21,6,6,0,0,1,.62,3.13v3.65a5.27,5.27,0,0,1-.76,3.33,3.64,3.64,0,0,1-5.58-.21,5.85,5.85,0,0,1-.63-3.12ZM548,231c0-2.47-.59-3.46-2.05-3.46s-2.07,1-2.07,3.46v3.37c0,2.47.59,3.46,2.07,3.46s2.05-1,2.05-3.46Z"/><path class="cls-4" d="M522.73,282.79l3.44-4.46c1.3-1.71,1.87-3,1.87-4.12a1.64,1.64,0,0,0-1.86-1.81,2.06,2.06,0,0,0-2.08,1.86l-1.3-.12a3.14,3.14,0,0,1,3.47-3c2.07,0,3.22,1.12,3.22,3.1,0,1.51-.49,2.53-2.37,5l-2.48,3.25h4.93v1.22h-6.84Z"/><path class="cls-4" d="M532.7,275.72a5.32,5.32,0,0,1,.77-3.34,3.63,3.63,0,0,1,5.57.21,5.87,5.87,0,0,1,.63,3.13v3.65a5.39,5.39,0,0,1-.76,3.34,3.64,3.64,0,0,1-5.58-.21,5.87,5.87,0,0,1-.63-3.13Zm5.54.14c0-2.47-.59-3.46-2-3.46s-2.06,1-2.06,3.46v3.37c0,2.47.59,3.46,2.06,3.46s2-1,2-3.46Z"/><path class="cls-4" d="M542.43,275.72a5.32,5.32,0,0,1,.77-3.34,3.64,3.64,0,0,1,5.58.21,6,6,0,0,1,.62,3.13v3.65a5.32,5.32,0,0,1-.76,3.34,3.64,3.64,0,0,1-5.58-.21,5.87,5.87,0,0,1-.63-3.13Zm5.55.14c0-2.47-.59-3.46-2.05-3.46s-2.07,1-2.07,3.46v3.37c0,2.47.59,3.46,2.07,3.46s2.05-1,2.05-3.46Z"/><path class="cls-4" d="M526,317.76l-2.14.94-.45-1.15,3-1.32h1v12.41H526Z"/><path class="cls-4" d="M532.91,319.4c0-2.25,1.06-3.32,3.28-3.32s3.27,1.07,3.27,3.32a2.78,2.78,0,0,1-1.2,2.67c1.1.54,1.55,1.45,1.55,3.08,0,2.5-1.15,3.65-3.62,3.65s-3.63-1.15-3.63-3.65c0-1.63.45-2.54,1.55-3.08A2.78,2.78,0,0,1,532.91,319.4Zm1.09,5.77c0,1.65.68,2.41,2.19,2.41s2.18-.76,2.18-2.41-.7-2.44-2.16-2.44S534,323.48,534,325.17Zm.28-5.77c0,1.51.59,2.19,1.91,2.19s1.9-.68,1.9-2.19-.61-2.18-1.88-2.18S534.28,317.9,534.28,319.4Z"/><path class="cls-4" d="M542.43,320.61a5.26,5.26,0,0,1,.77-3.33,3.65,3.65,0,0,1,5.58.2,6,6,0,0,1,.62,3.13v3.65a5.3,5.3,0,0,1-.76,3.34,3.64,3.64,0,0,1-5.58-.21,5.87,5.87,0,0,1-.63-3.13Zm5.55.14c0-2.47-.59-3.46-2.05-3.46s-2.07,1-2.07,3.46v3.37c0,2.47.59,3.46,2.07,3.46s2.05-1,2.05-3.46Z"/><path class="cls-4" d="M526,362.65l-2.14.94-.45-1.14,3-1.32h1v12.4H526Z"/><path class="cls-4" d="M535.31,366.17a2.22,2.22,0,0,1,1.28-.32A2.93,2.93,0,0,1,539,367a4.8,4.8,0,0,1,.61,2.72,4.21,4.21,0,0,1-.83,3,3.56,3.56,0,0,1-2.61.94,3.4,3.4,0,0,1-2.76-1.13,4.36,4.36,0,0,1-.68-2.81,6.19,6.19,0,0,1,.92-3.43l2.78-5.19h1.62Zm-1.1,3.56c0,1.89.63,2.74,2,2.74s2-.85,2-2.72-.63-2.75-2-2.75S534.21,367.83,534.21,369.73Z"/><path class="cls-4" d="M542.43,365.51a5.28,5.28,0,0,1,.77-3.34,3.64,3.64,0,0,1,5.58.21,6,6,0,0,1,.62,3.13v3.64a5.29,5.29,0,0,1-.76,3.34,3.64,3.64,0,0,1-5.58-.21,5.87,5.87,0,0,1-.63-3.13Zm5.55.13c0-2.46-.59-3.45-2.05-3.45s-2.07,1-2.07,3.45V369c0,2.46.59,3.45,2.07,3.45s2.05-1,2.05-3.45Z"/><path class="cls-4" d="M526,407.55l-2.14.94-.45-1.15,3-1.32h1v12.41H526Z"/><path class="cls-4" d="M537.43,416.13h-5v-.9l4-9.21h1.53L534,414.93h3.41v-3.8h1.32v3.8H540v1.22h-1.23v2.28h-1.32Z"/><path class="cls-4" d="M542.43,410.4a5.3,5.3,0,0,1,.77-3.34,3.64,3.64,0,0,1,5.58.21,6,6,0,0,1,.62,3.13v3.65a5.27,5.27,0,0,1-.76,3.33,3.65,3.65,0,0,1-5.58-.2,5.89,5.89,0,0,1-.63-3.13Zm5.55.14c0-2.47-.59-3.46-2.05-3.46s-2.07,1-2.07,3.46v3.37c0,2.47.59,3.46,2.07,3.46s2.05-1,2.05-3.46Z"/><path class="cls-4" d="M526,452.44l-2.14.94-.45-1.15,3-1.32h1v12.41H526Z"/><path class="cls-4" d="M532.46,462.36l3.44-4.46c1.3-1.71,1.88-3,1.88-4.12a1.65,1.65,0,0,0-1.86-1.81,2.06,2.06,0,0,0-2.09,1.86l-1.3-.12a3.14,3.14,0,0,1,3.47-3c2.07,0,3.22,1.12,3.22,3.1,0,1.51-.49,2.54-2.37,5l-2.48,3.25h4.94v1.22h-6.85Z"/><path class="cls-4" d="M542.43,455.29a5.32,5.32,0,0,1,.77-3.34,3.64,3.64,0,0,1,5.58.21,6,6,0,0,1,.62,3.13v3.65a5.32,5.32,0,0,1-.76,3.34,3.64,3.64,0,0,1-5.58-.21,5.87,5.87,0,0,1-.63-3.13Zm5.55.14c0-2.47-.59-3.46-2.05-3.46s-2.07,1-2.07,3.46v3.37c0,2.47.59,3.46,2.07,3.46s2.05-1,2.05-3.46Z"/><path class="cls-4" d="M526,497.33l-2.14.94-.45-1.15,3-1.32h1v12.41H526Z"/><path class="cls-4" d="M532.7,500.18a5.26,5.26,0,0,1,.77-3.33,3.64,3.64,0,0,1,5.57.2,5.92,5.92,0,0,1,.63,3.13v3.65a5.37,5.37,0,0,1-.76,3.34,3.13,3.13,0,0,1-2.72,1.2,3.1,3.1,0,0,1-2.86-1.41,5.87,5.87,0,0,1-.63-3.13Zm5.54.14c0-2.47-.59-3.46-2-3.46s-2.06,1-2.06,3.46v3.37c0,2.47.59,3.46,2.06,3.46s2-1,2-3.46Z"/><path class="cls-4" d="M542.43,500.18a5.26,5.26,0,0,1,.77-3.33,3.65,3.65,0,0,1,5.58.2,6,6,0,0,1,.62,3.13v3.65a5.3,5.3,0,0,1-.76,3.34,3.64,3.64,0,0,1-5.58-.21,5.87,5.87,0,0,1-.63-3.13Zm5.55.14c0-2.47-.59-3.46-2.05-3.46s-2.07,1-2.07,3.46v3.37c0,2.47.59,3.46,2.07,3.46s2.05-1,2.05-3.46Z"/><path class="cls-4" d="M532.91,543.86c0-2.24,1.06-3.32,3.28-3.32s3.27,1.08,3.27,3.32a2.79,2.79,0,0,1-1.2,2.68c1.1.53,1.55,1.44,1.55,3.07,0,2.51-1.15,3.65-3.62,3.65s-3.63-1.14-3.63-3.65c0-1.63.45-2.54,1.55-3.07A2.79,2.79,0,0,1,532.91,543.86Zm1.09,5.77c0,1.65.68,2.41,2.19,2.41s2.18-.76,2.18-2.41-.7-2.43-2.16-2.43S534,547.94,534,549.63Zm.28-5.77c0,1.51.59,2.19,1.91,2.19s1.9-.68,1.9-2.19-.61-2.17-1.88-2.17S534.28,542.37,534.28,543.86Z"/><path class="cls-4" d="M542.43,545.08a5.28,5.28,0,0,1,.77-3.34,3.64,3.64,0,0,1,5.58.21,6,6,0,0,1,.62,3.13v3.65a5.27,5.27,0,0,1-.76,3.33,3.64,3.64,0,0,1-5.58-.21,5.85,5.85,0,0,1-.63-3.12Zm5.55.13c0-2.46-.59-3.45-2.05-3.45s-2.07,1-2.07,3.45v3.38c0,2.46.59,3.45,2.07,3.45s2.05-1,2.05-3.45Z"/><path class="cls-4" d="M561.86,567.46a4.26,4.26,0,0,1-1.32.21,3.1,3.1,0,0,1-2-.67c-.71-.59-1-1.46-1-3,0-2.57,1.08-3.72,3.46-3.72a3.51,3.51,0,0,1,2.73,1,4,4,0,0,1,.69,2.63,5.4,5.4,0,0,1-.69,2.94l-3,6h-1.62ZM558.92,564c0,1.69.66,2.51,2,2.51s2-.82,2-2.49-.66-2.5-2-2.5S558.92,562.35,558.92,564Z"/><path class="cls-4" d="M568.15,560.49h5.6v1.21h-4.4l-.42,3.95a3.81,3.81,0,0,1,1.86-.47,3.23,3.23,0,0,1,2.66,1.2,4.5,4.5,0,0,1,.66,2.73,4,4,0,0,1-.8,2.81,3.69,3.69,0,0,1-2.88,1.13c-2,0-3.18-.92-3.41-2.66l1.38-.17a1.9,1.9,0,0,0,2.06,1.62c1.43,0,2.21-.92,2.21-2.65,0-1.94-.66-2.83-2.1-2.83a2.8,2.8,0,0,0-2,.78l-1-.22Z"/><path class="cls-4" d="M630.48,564.87a5.37,5.37,0,0,1,.76-3.34,3.14,3.14,0,0,1,2.73-1.2,3.09,3.09,0,0,1,2.85,1.41,5.87,5.87,0,0,1,.63,3.13v3.65a5.26,5.26,0,0,1-.77,3.33,3.08,3.08,0,0,1-2.71,1.2,3.13,3.13,0,0,1-2.87-1.4,6,6,0,0,1-.62-3.13ZM636,565c0-2.47-.59-3.46-2-3.46s-2.07,1-2.07,3.46v3.37c0,2.47.6,3.46,2.07,3.46s2-1,2-3.46Z"/><path class="cls-4" d="M640.21,564.87a5.3,5.3,0,0,1,.77-3.34,3.63,3.63,0,0,1,5.57.21,5.87,5.87,0,0,1,.63,3.13v3.65a5.34,5.34,0,0,1-.76,3.33,3.65,3.65,0,0,1-5.58-.2,5.92,5.92,0,0,1-.63-3.13Zm5.54.14c0-2.47-.59-3.46-2-3.46s-2.06,1-2.06,3.46v3.37c0,2.47.59,3.46,2.06,3.46s2-1,2-3.46Z"/><path class="cls-4" d="M703.51,564.87a5.3,5.3,0,0,1,.77-3.34,3.63,3.63,0,0,1,5.57.21,5.87,5.87,0,0,1,.63,3.13v3.65a5.26,5.26,0,0,1-.77,3.33,3.08,3.08,0,0,1-2.71,1.2,3.11,3.11,0,0,1-2.86-1.4,5.92,5.92,0,0,1-.63-3.13Zm5.54.14c0-2.47-.59-3.46-2-3.46s-2.06,1-2.06,3.46v3.37c0,2.47.59,3.46,2.06,3.46s2-1,2-3.46Z"/><path class="cls-4" d="M714.22,560.49h5.59v1.21h-4.39l-.42,3.95a3.75,3.75,0,0,1,1.86-.47,3.23,3.23,0,0,1,2.66,1.2,4.5,4.5,0,0,1,.66,2.73,4,4,0,0,1-.8,2.81,3.71,3.71,0,0,1-2.89,1.13c-2,0-3.18-.92-3.4-2.66l1.37-.17a1.91,1.91,0,0,0,2.07,1.62c1.42,0,2.2-.92,2.2-2.65,0-1.94-.66-2.83-2.1-2.83a2.76,2.76,0,0,0-2,.78l-1-.22Z"/><path class="cls-4" d="M779.58,562l-2.13.94-.45-1.15,3-1.32h1V572.9h-1.45Z"/><path class="cls-4" d="M786.27,564.87a5.3,5.3,0,0,1,.77-3.34,3.64,3.64,0,0,1,5.58.21,5.88,5.88,0,0,1,.62,3.13v3.65a5.27,5.27,0,0,1-.76,3.33,3.09,3.09,0,0,1-2.71,1.2,3.13,3.13,0,0,1-2.87-1.4,5.92,5.92,0,0,1-.63-3.13Zm5.55.14c0-2.47-.59-3.46-2.05-3.46s-2.07,1-2.07,3.46v3.37c0,2.47.59,3.46,2.07,3.46s2.05-1,2.05-3.46Z"/><path class="cls-4" d="M852.62,562l-2.14.94-.45-1.15,3-1.32h1V572.9h-1.44Z"/><path class="cls-4" d="M860.28,560.49h5.6v1.21h-4.4l-.42,3.95a3.78,3.78,0,0,1,1.86-.47,3.23,3.23,0,0,1,2.66,1.2,4.5,4.5,0,0,1,.66,2.73,4,4,0,0,1-.8,2.81,3.69,3.69,0,0,1-2.88,1.13c-2,0-3.18-.92-3.41-2.66l1.37-.17a1.91,1.91,0,0,0,2.07,1.62c1.43,0,2.21-.92,2.21-2.65,0-1.94-.66-2.83-2.11-2.83a2.77,2.77,0,0,0-2,.78l-1-.22Z"/><path class="cls-5" d="M894.06,496c-.44,0-.69.07-1,.07a4.49,4.49,0,0,1-2.92-.9c-1-.78-1.35-1.93-1.35-4.05s.37-3.22,1.24-4a5.58,5.58,0,0,1,3.72-1.1,5.18,5.18,0,0,1,4,1.35c.71.79,1,1.84,1,3.66a7.33,7.33,0,0,1-1.06,4.35l-3.81,7.29h-3.36Zm-2.32-4.88c0,1.87.59,2.67,2,2.67s2-.83,2-2.67-.62-2.67-2-2.67S891.74,489.21,891.74,491.07Z"/><path class="cls-5" d="M904.32,492.8h1.26c1.57,0,2.49-.83,2.49-2.23s-.69-2.17-1.89-2.17a2,2,0,0,0-2,1.82l-2.66-.21c.23-2.71,1.84-4,4.87-4s4.71,1.56,4.71,4.48a3.54,3.54,0,0,1-1.81,3.5,4,4,0,0,1,2.21,4c0,3.22-1.73,4.86-5.13,4.86s-5.06-1.41-5.27-4.21l2.83-.35a2.15,2.15,0,0,0,2.32,2.12c1.45,0,2.26-.9,2.26-2.49a2.6,2.6,0,0,0-2.69-2.78h-1.45Z"/><path class="cls-5" d="M904.25,509.79V527h-2.56v-1.26h-8.88V527h-2.46V509.79Zm-11.44,2.4v4.3h8.88v-4.3Zm8.88,11.14v-4.48h-8.88v4.48Z"/><path class="cls-5" d="M920.33,514.87a17.47,17.47,0,0,0,7,7.26,10.11,10.11,0,0,0-1.84,2.16,16.36,16.36,0,0,1-3.26-2.68v2.28h-3.32v3.38h-2.5v-3.38H913v-2.1a17.84,17.84,0,0,1-3.12,2.56,11.76,11.76,0,0,0-1.74-2,17.77,17.77,0,0,0,6.88-7.5h-6.1v-2.4h7.52V508.6h2.5v3.87h7.58v2.4Zm-3.94,6.6v-4.36a23.31,23.31,0,0,1-3.14,4.36Zm5.68,0a22.29,22.29,0,0,1-3.18-4.4v4.4Z"/><path class="cls-6" d="M892.9,298l-2.14.94-.45-1.15,3-1.32h1v12.41H892.9Z"/><path class="cls-6" d="M898.06,299.58c0-2.24,1.06-3.31,3.29-3.31s3.27,1.07,3.27,3.31a2.81,2.81,0,0,1-1.2,2.68c1.09.54,1.54,1.44,1.54,3.08,0,2.5-1.14,3.65-3.61,3.65s-3.63-1.15-3.63-3.65c0-1.64.45-2.54,1.54-3.08A2.81,2.81,0,0,1,898.06,299.58Zm1.1,5.77c0,1.66.68,2.42,2.19,2.42s2.17-.76,2.17-2.42-.69-2.43-2.15-2.43S899.16,303.67,899.16,305.35Zm.28-5.77c0,1.52.59,2.19,1.91,2.19s1.89-.67,1.89-2.19-.61-2.17-1.87-2.17S899.44,298.09,899.44,299.58Z"/><path class="cls-6" d="M907.79,299.58c0-2.24,1.06-3.31,3.29-3.31s3.27,1.07,3.27,3.31a2.81,2.81,0,0,1-1.2,2.68c1.09.54,1.54,1.44,1.54,3.08,0,2.5-1.14,3.65-3.61,3.65s-3.63-1.15-3.63-3.65c0-1.64.45-2.54,1.54-3.08A2.81,2.81,0,0,1,907.79,299.58Zm1.1,5.77c0,1.66.68,2.42,2.19,2.42s2.17-.76,2.17-2.42-.69-2.43-2.15-2.43S908.89,303.67,908.89,305.35Zm.28-5.77c0,1.52.59,2.19,1.91,2.19s1.89-.67,1.89-2.19-.6-2.17-1.87-2.17S909.17,298.09,909.17,299.58Z"/><path class="cls-6" d="M900.2,321.07a8,8,0,0,0,1.14-.09v1.25c-.37,0-.87-.05-1.14-.05H891c-.38,0-.78,0-1.21.05V321a8.63,8.63,0,0,0,1.21.09h6.18c.25-1.47.82-5.14.86-6.1h-5.4c-.5,0-.87,0-1.3,0V313.8a8.81,8.81,0,0,0,1.29.09h5.06a3.91,3.91,0,0,0,.85-.11l.91.42a3.24,3.24,0,0,0-.11.45c-.15,1.29-.72,5-.95,6.42Z"/><path class="cls-6" d="M904,317.08c.41,0,1.14.07,1.9.07h7.51a14.55,14.55,0,0,0,1.48-.07v1.34c-.27,0-.85-.07-1.46-.07h-7.53c-.75,0-1.48,0-1.9.07Z"/><path class="cls-6" d="M928.36,321.45c0,.44,0,1.49,0,1.64h-1.17c0-.09,0-.41,0-.78h-7.48c0,.36,0,.69,0,.78h-1.18c0-.16,0-1.17,0-1.65v-6.75c0-.31,0-.73,0-1.06l1.22,0h7.36c.3,0,.79,0,1.2,0,0,.34,0,.72,0,1.06Zm-8.62-6.71v6.5h7.49v-6.5Z"/><path class="cls-6" d="M943.11,312.15v11.9h-1v-.57h-9.4v.57h-1v-11.9Zm-1,10.41v-9.48h-9.4v9.48Zm-2.48-5.18a4.73,4.73,0,0,0,2,1.66,2.41,2.41,0,0,0-.54.66,5.58,5.58,0,0,1-2.32-2.32h-2.62c-.16.25-.33.48-.5.7h3.53v2.1h-3.25V321c0,.3.13.36.77.36H939c.46,0,.56-.13.6-1a2.24,2.24,0,0,0,.74.26c-.08,1.12-.36,1.37-1.25,1.37h-2.5c-1.22,0-1.57-.18-1.57-1v-1.47h3.28v-.86h-2.92v-.39a7.54,7.54,0,0,1-1.73,1.43,3.5,3.5,0,0,0-.6-.62,6.57,6.57,0,0,0,2.06-1.74h-1.76v-.67h2.21a5.64,5.64,0,0,0,.46-.92h-2.15v-.64H935a4.28,4.28,0,0,0-.7-1.33l.68-.24a4.12,4.12,0,0,1,.74,1.35l-.63.22h1.22a11.73,11.73,0,0,0,.43-1.7l.82.11q-.16.84-.39,1.59h2.09l-.52-.18a13.06,13.06,0,0,0,.8-1.45l.79.23a14.81,14.81,0,0,1-.92,1.4H941v.64h-2.17a6.9,6.9,0,0,0,.4.92h2.22v.67Zm-1.21-.67a6,6,0,0,1-.34-.92h-1.14a8.54,8.54,0,0,1-.41.92Z"/><path class="cls-7" d="M892.9,254.7l-2.14.94-.45-1.15,3-1.32h1v12.41H892.9Z"/><path class="cls-7" d="M902.27,260.14a4,4,0,0,1-1.32.21,3.13,3.13,0,0,1-2.05-.66c-.72-.59-1-1.46-1-3,0-2.57,1.08-3.71,3.46-3.71a3.49,3.49,0,0,1,2.73,1,4,4,0,0,1,.69,2.62,5.46,5.46,0,0,1-.69,2.94l-3,6h-1.62Zm-2.94-3.42c0,1.68.66,2.5,2,2.5s2-.82,2-2.49-.66-2.5-2-2.5S899.33,255,899.33,256.72Z"/><path class="cls-7" d="M909.34,258.46h1a2.1,2.1,0,0,0,2.28-2.13,2,2,0,0,0-3.86-.62l-1.28-.12c.22-1.69,1.35-2.57,3.28-2.57a3,3,0,0,1,3.3,3.28,2.67,2.67,0,0,1-1.61,2.73,3.06,3.06,0,0,1,1.93,3.16c0,2.31-1.29,3.55-3.69,3.55-2.14,0-3.37-.94-3.56-2.66l1.37-.18a1.94,1.94,0,0,0,2.16,1.62,2.11,2.11,0,0,0,2.27-2.36,2.4,2.4,0,0,0-2.5-2.54h-1.13Z"/><path class="cls-7" d="M896.84,277.56a14.73,14.73,0,0,0,5,4.63,4.57,4.57,0,0,0-.77.87A16.81,16.81,0,0,1,896,278v5.81H895v-5.77a16.25,16.25,0,0,1-5,5.14,6.55,6.55,0,0,0-.73-.85,14.46,14.46,0,0,0,4.95-4.78h-4.65v-1H895v-5.24H896v5.24h5.48v1Zm-4.67-1.85a13.48,13.48,0,0,0-1.86-3.21l.91-.38a13.72,13.72,0,0,1,1.94,3.15Zm8.7-3.28a30.65,30.65,0,0,1-2.22,3.39l-.88-.4a19.21,19.21,0,0,0,2-3.43Z"/><path class="cls-7" d="M915.1,271.92v11.9H914v-.69h-9.16v.69h-1v-11.9ZM914,282.19v-9.32h-9.16v9.32Zm-.79-2.13v.87h-7.47v-.87h3.15v-2.3h-2.57v-.88h2.57v-1.94h-3V274h7v.92h-3.09v1.94h2.74v.88h-2.74v2.3ZM911.4,278a8.46,8.46,0,0,1,1.38,1.49l-.69.41a10.33,10.33,0,0,0-1.33-1.55Z"/><path class="cls-8" d="M564.12,502.88h8.45L586,496.12l25.81,3.38,22,3.38,25.81,7.18,22,6.34,18.16-6.34s35.37,9.23,38.24,6.34,18.16-6.34,18.16-6.34l9.56,9.9,26.77-1.87,8.6-1.69,24.85,5.33h23.82L880.38,520"/><polyline class="cls-10" points="564.12 499.5 585.57 482.61 601.78 474.46 616.18 464.26 650.84 439.67 683.25 414.55 698.11 403.44 726.02 378.04 750.33 350.83 781.84 343.1 825.05 324.28 842.61 318.97 862.41 310.28 879.17 302.55"/><polyline class="cls-9" points="564.12 499.5 584.12 483.44 607.63 466.7 618.43 457.02 631.04 443.02 649.49 434.34 665.82 428.06 698.11 403.44 715.22 389.63 743.57 364.34 752.58 359.03 763.38 359.03 774.82 354.2 802.09 336.52 812.05 329.94 829.23 323.01 843.51 310.76 866.46 295.31 879.17 289.52"/><polyline class="cls-12" points="439.52 546.53 116.61 546.53 116.61 232.72"/><polyline class="cls-12" points="879.17 546.53 556.25 546.53 556.25 232.72"/></g></svg>