<svg xmlns="http://www.w3.org/2000/svg" viewBox="0 0 900 260"><defs><style>.cls-1{fill:#fff5ef;}.cls-2{fill:#ffe6d0;}.cls-3{fill:#333;}.cls-4{fill:#e94e3c;}.cls-5{fill:#777;}.cls-6{fill:none;stroke:#777;stroke-miterlimit:10;stroke-dasharray:3 3;}.cls-7{fill:#fff;}</style></defs><title>ベクトルスマートオブジェクト1</title><g id="レイヤー_3" data-name="レイヤー 3"><rect class="cls-1" y="0.3" width="900" height="259.4"/><polygon class="cls-2" points="180.15 231.23 55.02 231.23 55.02 116.14 180.15 116.14 217.05 173.68 180.15 231.23"/><polygon class="cls-2" points="357.01 231.23 231.88 231.23 231.88 116.14 357.01 116.14 393.92 173.68 357.01 231.23"/><path class="cls-3" d="M518.81,39l.84-1.11a3.55,3.55,0,0,0,2.61,1.21,1.86,1.86,0,0,0,2.1-1.83c0-1.22-.78-2-3.27-2V34c2.17,0,2.89-.82,2.89-1.93a1.54,1.54,0,0,0-1.69-1.61,3.28,3.28,0,0,0-2.21,1l-.9-1.08a4.7,4.7,0,0,1,3.17-1.33c2,0,3.37,1,3.37,2.85a2.66,2.66,0,0,1-1.9,2.59v.08a2.79,2.79,0,0,1,2.28,2.76c0,2-1.67,3.16-3.69,3.16A4.59,4.59,0,0,1,518.81,39Z"/><path class="cls-3" d="M543.77,33.39a7.61,7.61,0,0,0,1.24-.07v1.46a11.41,11.41,0,0,0-1.24-.05h-2c-.25,3.33-1.53,5.52-3.84,6.92l-1.47-1a6.9,6.9,0,0,0,1.25-.73,7,7,0,0,0,2.58-5.21h-2.94a12.77,12.77,0,0,1-2.1,2.6l-1.38-.8a9.63,9.63,0,0,0,2.26-2.59,6.69,6.69,0,0,0,.83-1.92,5.37,5.37,0,0,0,.19-1l1.65.35c-.12.3-.22.56-.3.83a12.08,12.08,0,0,1-.48,1.16Z"/><path class="cls-3" d="M561,39.62c0,.9-.24,1.34-.84,1.56a9.73,9.73,0,0,1-3.21.29,5.76,5.76,0,0,0-.6-1.47c1.17.06,2.37,0,2.73,0s.45-.12.45-.44V37h-6.81a8.32,8.32,0,0,1-2.56,4.56,5.19,5.19,0,0,0-1.07-1c2.34-2,2.57-4.95,2.57-7.31V28.49H561Zm-1.47-4V33.4h-6.45a19.48,19.48,0,0,1-.13,2.22Zm-6.45-5.77v2.21h6.45V29.85Z"/><path class="cls-4" d="M79.15,153.53a5,5,0,1,1,5,5A5,5,0,0,1,79.15,153.53Z"/><path class="cls-3" d="M110.78,156.39h-1.67v2.8h-1.5v-.69H104.2v.84c0,.81-.21,1.15-.75,1.36a9.56,9.56,0,0,1-2.73.21,4.47,4.47,0,0,0-.51-1.2c.88,0,1.84,0,2.1,0s.38-.09.38-.37v-.85h-5v-1.12h5v-1h-6.4v-1.17h6.4v-.91H97.84v-1.06h4.85v-.94H98.26v-2.94h4.43v-.82H96.63v-1.2h6.06v-1.17h1.51v1.17h6.24v1.2H104.2v.82h4.66v2.94H104.2v.94h4.91v2h1.67Zm-8.09-5.07v-1h-3v1Zm1.51-1v1h3.15v-1Zm0,4.86h3.41v-.91H104.2Zm3.41,1.17H104.2v1h3.41Z"/><path class="cls-3" d="M127,148.61V150H112.71v-1.36h3.66a10.84,10.84,0,0,0-1.33-2l1.4-.48a9.55,9.55,0,0,1,1.53,2.15l-.81.3h4.61a15.62,15.62,0,0,0,1.4-2.49l1.62.49c-.43.69-.88,1.39-1.33,2Zm-7.33,10.7c0,.68-.15,1.05-.61,1.26a5.4,5.4,0,0,1-2.21.26,5.86,5.86,0,0,0-.5-1.28c.71,0,1.41,0,1.6,0s.29-.08.29-.29v-1.81H115v3.33h-1.39v-9.54h6Zm-4.6-6.79v1.31h3.17v-1.31Zm3.17,3.81V155H115v1.36Zm4.5,1.58h-1.38V151.4h1.38Zm1.81-7H126v8.2c0,.78-.17,1.18-.72,1.4a6.71,6.71,0,0,1-2.56.28,5,5,0,0,0-.53-1.41c.9,0,1.76,0,2,0s.34-.08.34-.3Z"/><path class="cls-3" d="M141.94,150.28c0,.27-.08.61-.09.81,0,1.62-.26,6.2-1,7.77A1.8,1.8,0,0,1,139,160c-.86,0-1.81-.07-2.61-.12l-.19-1.68a18.67,18.67,0,0,0,2.32.19.84.84,0,0,0,.91-.54c.55-1.12.76-4.74.76-6.47h-4.1c-.59,4.45-2.18,6.9-4.93,8.84l-1.47-1.2a8.39,8.39,0,0,0,1.84-1.35,9.93,9.93,0,0,0,2.92-6.29h-2.43c-.59,0-1.34,0-2,.07v-1.67c.61.05,1.33.1,2,.1h2.58c0-.48.05-1,.05-1.52a9.2,9.2,0,0,0-.12-1.39h1.88c0,.36-.07,1-.08,1.34,0,.55-.05,1.07-.08,1.57h3.46a7,7,0,0,0,1.1-.1Z"/><path class="cls-3" d="M145.35,159.11a7.48,7.48,0,0,0,2.75-3.89,27.93,27.93,0,0,0,.46-6.38,5.32,5.32,0,0,0-.12-1.3h1.85c0,.13-.08.72-.08,1.28a35.27,35.27,0,0,1-.49,6.84,9,9,0,0,1-2.85,4.48Zm7.36.15a4.87,4.87,0,0,0,.11-1v-9.48a12.77,12.77,0,0,0-.09-1.28h1.85a11.12,11.12,0,0,0-.08,1.28v8.85a11.21,11.21,0,0,0,4.36-3.68l1,1.38a16.83,16.83,0,0,1-5.45,4.42,3.11,3.11,0,0,0-.6.4Z"/><path class="cls-3" d="M174.17,151.72a13.12,13.12,0,0,0,1.34-.08v1.65c-.37,0-.93,0-1.34,0h-4.12a9.85,9.85,0,0,1-1,4.27,7.75,7.75,0,0,1-3.18,3l-1.48-1.09a6.62,6.62,0,0,0,3-2.38,7.48,7.48,0,0,0,1-3.78H163.7c-.48,0-1,0-1.46,0v-1.65a13.54,13.54,0,0,0,1.46.08Zm-8.47-2.55c-.53,0-1.12,0-1.57.05v-1.65a11.27,11.27,0,0,0,1.57.11h6.45a10.85,10.85,0,0,0,1.6-.11v1.65c-.51,0-1.1-.05-1.6-.05Z"/><path class="cls-4" d="M79.15,177.53a5,5,0,1,1,5,5A5,5,0,0,1,79.15,177.53Z"/><path class="cls-3" d="M100.58,170.64a24.88,24.88,0,0,1-1.26,3.08v11.17H97.89v-8.64A14.72,14.72,0,0,1,96.56,178a10.47,10.47,0,0,0-.73-1.57,17.85,17.85,0,0,0,3.37-6.2Zm9.76.44v13.63h-1.4v-.8h-6.6v1H101V171.08Zm-1.4,11.52V172.37h-6.6V182.6Zm-2.69-7v1.6h1.69v4.26h-4.48v-4.26h1.6v-1.6h-2.14v-1.11h2.14v-1.72h1.19v1.72h2.22v1.11Zm.54,2.67h-2.22v2.11h2.22Z"/><path class="cls-3" d="M119.85,177.77s0,.41,0,.61c-.18,3.9-.34,5.39-.77,5.89a1.4,1.4,0,0,1-1.09.51,12.79,12.79,0,0,1-1.93,0,3.2,3.2,0,0,0-.42-1.31,16.14,16.14,0,0,0,1.71.08c.26,0,.42,0,.53-.18.27-.29.43-1.42.56-4.3h-2.24a9.19,9.19,0,0,1-2.78,5.79,3.78,3.78,0,0,0-1-1c2.15-1.73,2.5-4.83,2.64-7.62h-1.66v-5.31h6.38v5.31h-3.26c0,.51-.07,1-.13,1.54Zm-5.14-2.85h3.58v-2.69h-3.58Zm7.89,6h-1.44V172.1h1.44Zm3.87-10.44V183c0,.92-.22,1.36-.78,1.63a9.4,9.4,0,0,1-3,.25,7.27,7.27,0,0,0-.53-1.52c1.09.05,2.1,0,2.42,0s.41-.12.41-.4V170.5Z"/><path class="cls-3" d="M136.81,172.58c-.2.59-.39,1.22-.55,1.76h6.24v10.55H141v-.83h-9.74v.83h-1.45V174.34h4.94c.12-.54.25-1.18.35-1.76h-6v-1.41h14.15v1.41Zm-5.57,10.1h2v-7h-2Zm6.3-7h-3v1.51h3Zm0,2.69h-3v1.52h3Zm-3,4.29h3V181.1h-3Zm6.42-7h-2.09v7H141Z"/><path class="cls-3" d="M151.08,174h-6v-1.19h6Zm-.53,10h-3.44v.68h-1.28v-5.38h4.72Zm0-7.84h-4.69V175h4.69Zm-4.69,1h4.69v1.17h-4.69Zm4.66-5.25h-4.59v-1.17h4.59Zm-3.39,8.61v2.3h2.16v-2.3Zm9.1-1.33c0,.94.6,3.28,3.72,4.47a12.88,12.88,0,0,0-.87,1.26,6.15,6.15,0,0,1-3.6-3.78,6.4,6.4,0,0,1-4,3.78,5.71,5.71,0,0,0-.85-1.2c3.43-1.22,4.08-3.57,4.08-4.53v-2.34h1.52Zm-5.34,1.65a4.84,4.84,0,0,0,1.44-2.79l1.31.28a5.7,5.7,0,0,1-1.55,3.18Zm7.92-3.43a26.88,26.88,0,0,0-3.46-2.49,5.62,5.62,0,0,1-3.45,2.62,4.59,4.59,0,0,0-.85-1.18c3.28-1,3.65-2.87,3.79-6.15h1.46a16.63,16.63,0,0,1-.45,3.46,32.8,32.8,0,0,1,3.94,2.61Zm-5.09-5.95a5,5,0,0,1-1.29,2.91l-1.14-.54a4.86,4.86,0,0,0,1.22-2.61Zm3.14,9.27a16.22,16.22,0,0,0,1.41-2.79l1.45.48c-.56,1-1.2,2.05-1.71,2.74Zm2.69-9.13c-.51.91-1.11,1.91-1.57,2.55l-1.1-.43a15.27,15.27,0,0,0,1.24-2.58Z"/><path class="cls-3" d="M97.81,201.53a10.68,10.68,0,0,1,3.17-7.65l1.22.57a10,10,0,0,0,0,14.15l-1.22.58A10.68,10.68,0,0,1,97.81,201.53Z"/><path class="cls-3" d="M109.25,194.68a26.94,26.94,0,0,1-1.63,3.33v10.85h-1.47V200.2a18,18,0,0,1-1.63,1.86,9.1,9.1,0,0,0-.9-1.53,17.86,17.86,0,0,0,4.18-6.3Zm5,7.65v4.53h4v1.42h-9.48v-1.42h3.92v-4.53h-4.53v-1.44h4.53V197c-1.21.21-2.44.37-3.6.5a5.22,5.22,0,0,0-.45-1.27,43.43,43.43,0,0,0,8.2-1.71l1.09,1.26a30.57,30.57,0,0,1-3.73,1v4.18h4.27v1.44Z"/><path class="cls-3" d="M120.21,207.74A5.34,5.34,0,0,0,122.4,205l1.24.46a6,6,0,0,1-2.26,3.08ZM134.42,199H120.75v-1.2h3.62a7.31,7.31,0,0,0-.54-1.38l.37-.08h-2.71v-1.18h5.3v-1h1.49v1h5.31v1.18h-2.53l.4.08c-.29.53-.54,1-.78,1.38h3.74Zm-1.66,5.36h-5.57a12.37,12.37,0,0,1,2.11,1.25l-.91.95a11.47,11.47,0,0,0-2.61-1.59l.61-.61h-3.91v-4.67h10.28Zm-1.47-3.57h-7.38v.73h7.38Zm0,1.73h-7.38v.74h7.38Zm-2.1,5c.62,0,.74-.18.8-1.48a4.19,4.19,0,0,0,1.28.48c-.18,1.78-.58,2.21-2,2.21H126.5c-1.78,0-2.22-.35-2.22-1.65v-1.9h1.44v1.89c0,.38.14.45.93.45Zm-3.89-11.18a6.1,6.1,0,0,1,.54,1.38l-.32.08h3.94l-.25-.06a13.82,13.82,0,0,0,.64-1.4Zm6.88,8.52a13.84,13.84,0,0,1,2.76,2.85l-1.24.74a12.12,12.12,0,0,0-2.65-2.9Z"/><path class="cls-3" d="M141,201.53a10.64,10.64,0,0,1-3.17,7.65l-1.22-.58a10,10,0,0,0,0-14.15l1.22-.57A10.64,10.64,0,0,1,141,201.53Z"/><path class="cls-3" d="M280,154.71a10,10,0,0,1,3-7.17l1.14.54a9.34,9.34,0,0,0,0,13.26l-1.14.54A10,10,0,0,1,280,154.71Z"/><path class="cls-3" d="M290.69,148.29a24.33,24.33,0,0,1-1.53,3.12v10.17h-1.38v-8.11a17.9,17.9,0,0,1-1.53,1.74,9,9,0,0,0-.84-1.43,16.5,16.5,0,0,0,3.91-5.91Zm4.71,7.17v4.25h3.79V161h-8.88v-1.33H294v-4.25h-4.25v-1.35H294v-3.66c-1.14.2-2.3.35-3.38.47a5.13,5.13,0,0,0-.42-1.19,40.51,40.51,0,0,0,7.68-1.6l1,1.18a31.5,31.5,0,0,1-3.49.89v3.91h4v1.35Z"/><path class="cls-3" d="M301,160.53A5,5,0,0,0,303,158l1.15.43a5.55,5.55,0,0,1-2.11,2.88Zm13.32-8.2H301.47V151.2h3.39a6.41,6.41,0,0,0-.51-1.29l.35-.07h-2.54v-1.11h5v-.9h1.39v.9h5v1.11h-2.37l.38.07c-.27.5-.51.93-.74,1.29h3.51Zm-1.56,5H307.5a11.25,11.25,0,0,1,2,1.17l-.85.89a10.73,10.73,0,0,0-2.45-1.49l.57-.57h-3.66V153h9.63ZM311.34,154h-6.91v.67h6.91Zm0,1.62h-6.91v.69h6.91Zm-2,4.68c.58,0,.69-.17.75-1.38a4.2,4.2,0,0,0,1.2.45c-.17,1.66-.54,2.07-1.83,2.07h-2.64c-1.67,0-2.09-.33-2.09-1.55v-1.78h1.35v1.77c0,.36.14.42.87.42Zm-3.65-10.47a5.21,5.21,0,0,1,.51,1.29l-.3.07h3.69l-.24-.06a10.31,10.31,0,0,0,.6-1.3Zm6.45,8a12.36,12.36,0,0,1,2.58,2.67l-1.15.69a11.46,11.46,0,0,0-2.49-2.72Z"/><path class="cls-3" d="M320.43,154.71a10,10,0,0,1-3,7.17l-1.14-.54a9.34,9.34,0,0,0,0-13.26l1.14-.54A10,10,0,0,1,320.43,154.71Z"/><path class="cls-3" d="M281.88,169.22a11.06,11.06,0,0,0,1.4-.11v1.58c-.41,0-.95,0-1.32,0h-2.19c0,2.22.1,5,.12,6.93,0,.87-.51,1.35-1.52,1.35-.82,0-1.69-.05-2.49-.09l-.12-1.55a14.73,14.73,0,0,0,2.06.17c.4,0,.55-.2.55-.6,0-1.13,0-3,0-4.83a20.87,20.87,0,0,1-6.38,5.37l-1.08-1.23a18.42,18.42,0,0,0,6.77-5.52h-4.58c-.52,0-1,0-1.53,0v-1.59a11.74,11.74,0,0,0,1.5.11h5.24c0-.5,0-.93,0-1.29a8.76,8.76,0,0,0-.13-1.38h1.71a9,9,0,0,0-.08,1.38l0,1.29Z"/><path class="cls-3" d="M289.94,167c0,.32-.06.69-.06,1.11v5c0,.39,0,.91.06,1.21h-1.76c0-.25.08-.78.08-1.21v-5c0-.27,0-.79-.06-1.11Zm6.93-.12c0,.39-.06.84-.06,1.38V171c0,3.44-.54,4.71-1.65,6a8.3,8.3,0,0,1-3.59,2.19l-1.24-1.3a7,7,0,0,0,3.63-2c1.05-1.18,1.24-2.35,1.24-5V168.3a10.63,10.63,0,0,0-.09-1.38Z"/><path class="cls-3" d="M312.84,176.33a10,10,0,0,0,1.31-.11v1.71c-.41,0-1-.06-1.31-.06h-9.9c-.43,0-.91,0-1.39.06v-1.71a8.3,8.3,0,0,0,1.39.11h4v-6.56h-3.17c-.33,0-.94,0-1.32.06V168.2c.39,0,1,.07,1.32.07H312c.46,0,.94,0,1.35-.07v1.63c-.42,0-.92-.06-1.35-.06h-3.41v6.56Z"/><path class="cls-3" d="M323.49,175.17a14.25,14.25,0,0,0,5.21-5.65l.91,1.63a15.4,15.4,0,0,1-5.26,5.43,16.57,16.57,0,0,1-5.75,2.24l-1-1.55A15.42,15.42,0,0,0,323.49,175.17Zm-.51-4.8-1.18,1.22a33,33,0,0,0-3.75-3.18l1.09-1.17A29.57,29.57,0,0,1,323,170.37Z"/><path class="cls-3" d="M274.64,189a11.67,11.67,0,0,0,1.26-.08v1.55c-.35,0-.87-.05-1.26-.05h-3.86a9.37,9.37,0,0,1-.93,4,7.36,7.36,0,0,1-3,2.79l-1.38-1a6.22,6.22,0,0,0,2.77-2.24,6.87,6.87,0,0,0,.9-3.54h-4.33c-.45,0-.95,0-1.37.05v-1.55a11.88,11.88,0,0,0,1.37.08Zm-7.94-2.39c-.49,0-1.05,0-1.47.05v-1.55a11.54,11.54,0,0,0,1.47.11h6.05a9.64,9.64,0,0,0,1.5-.11v1.55c-.48,0-1-.05-1.5-.05Z"/><path class="cls-3" d="M278.87,189.72c.48.05,1.41.09,2.22.09h8.14c.74,0,1.32-.06,1.68-.09v1.85c-.33,0-1-.06-1.66-.06h-8.16c-.84,0-1.73,0-2.22.06Z"/><path class="cls-3" d="M298.34,190.19l-.87,1.33a38.38,38.38,0,0,0-3.35-2.1l.86-1.29C295.92,188.64,297.63,189.69,298.34,190.19Zm1.51,3.52a15.39,15.39,0,0,0,5.75-5.56l.9,1.59a17.7,17.7,0,0,1-5.85,5.37,18,18,0,0,1-5,1.86l-.89-1.55A16.25,16.25,0,0,0,299.85,193.71Zm.74-6.84-.89,1.29c-.76-.55-2.37-1.62-3.3-2.14l.86-1.29C298.19,185.25,299.88,186.36,300.59,186.87Z"/><path class="cls-3" d="M318.23,197.37c0-.13,0-.37,0-.6h-5.88c-.45,0-1,0-1.26,0v-1.47a12.24,12.24,0,0,0,1.26.06h5.88V193h-5.13c-.55,0-1.15,0-1.48,0v-1.42c.34,0,.93,0,1.47,0h5.14v-2.2H313c-.47,0-1.37,0-1.67.06v-1.46c.33.05,1.2.06,1.67.06h6.76c0,.18,0,.57,0,.87v7.48c0,.24,0,.66,0,.9Z"/><path class="cls-3" d="M331.14,193.17a14.25,14.25,0,0,0,5.21-5.65l.91,1.63a15.4,15.4,0,0,1-5.26,5.43,16.57,16.57,0,0,1-5.75,2.24l-1-1.55A15.42,15.42,0,0,0,331.14,193.17Zm-.51-4.8-1.18,1.22a33,33,0,0,0-3.75-3.18l1.09-1.17A29.57,29.57,0,0,1,330.63,188.37Z"/><polygon class="cls-2" points="808.08 231.23 682.95 231.23 682.95 116.14 808.08 116.14 844.98 173.68 808.08 231.23"/><path class="cls-3" d="M734,154.71a10,10,0,0,1,3-7.17l1.14.54a9.34,9.34,0,0,0,0,13.26l-1.14.54A10,10,0,0,1,734,154.71Z"/><path class="cls-3" d="M744.73,148.29a23.08,23.08,0,0,1-1.53,3.12v10.17h-1.38v-8.11a16.66,16.66,0,0,1-1.53,1.74,8.3,8.3,0,0,0-.84-1.43,16.65,16.65,0,0,0,3.92-5.91Zm4.71,7.17v4.25h3.8V161h-8.88v-1.33H748v-4.25h-4.24v-1.35H748v-3.66c-1.14.2-2.29.35-3.37.47a5.64,5.64,0,0,0-.42-1.19,40.68,40.68,0,0,0,7.68-1.6l1,1.18a31.14,31.14,0,0,1-3.5.89v3.91h4v1.35Z"/><path class="cls-3" d="M755,160.53a4.94,4.94,0,0,0,2-2.56l1.16.43a5.57,5.57,0,0,1-2.12,2.88Zm13.32-8.2H755.52V151.2h3.39a7.86,7.86,0,0,0-.51-1.29l.34-.07h-2.53v-1.11h5v-.9h1.4v.9h5v1.11h-2.37l.37.07c-.27.5-.51.93-.73,1.29h3.51Zm-1.56,5h-5.22a11.63,11.63,0,0,1,2,1.17l-.86.89a10.64,10.64,0,0,0-2.44-1.49l.57-.57h-3.66V153h9.63ZM765.39,154h-6.92v.67h6.92Zm0,1.62h-6.92v.69h6.92Zm-2,4.68c.59,0,.69-.17.75-1.38a4.31,4.31,0,0,0,1.2.45c-.16,1.66-.54,2.07-1.83,2.07H760.9c-1.66,0-2.08-.33-2.08-1.55v-1.78h1.35v1.77c0,.36.13.42.87.42Zm-3.64-10.47a6.14,6.14,0,0,1,.51,1.29l-.3.07h3.69l-.24-.06a11.94,11.94,0,0,0,.6-1.3Zm6.45,8a12.6,12.6,0,0,1,2.58,2.67l-1.16.69a11.46,11.46,0,0,0-2.49-2.72Z"/><path class="cls-3" d="M774.48,154.71a10,10,0,0,1-3,7.17l-1.14-.54a9.34,9.34,0,0,0,0-13.26l1.14-.54A10,10,0,0,1,774.48,154.71Z"/><path class="cls-3" d="M744.75,168.39a5.44,5.44,0,0,0-.23.83,14.62,14.62,0,0,1-1.71,5.59,10.69,10.69,0,0,1-5.68,4.25l-1.31-1.32a9.54,9.54,0,0,0,5.55-3.72,11.22,11.22,0,0,0,1.4-4.8H735V172c0,.21,0,.66,0,1.08h-1.72c0-.41.06-.75.06-1.08v-3.2c0-.36,0-.75-.06-1.11.42,0,1,.05,1.69.05h7.47a5.94,5.94,0,0,0,1.16-.09Z"/><path class="cls-3" d="M748.21,171.72c.48.05,1.41.09,2.22.09h8.15c.73,0,1.32-.06,1.68-.09v1.85c-.33,0-1-.06-1.67-.06h-8.16c-.84,0-1.72,0-2.22.06Z"/><path class="cls-3" d="M775.3,169.05a5.57,5.57,0,0,0-.42.92,14.76,14.76,0,0,1-2.64,5.1,13.64,13.64,0,0,1-6,4.15L764.85,178a12.14,12.14,0,0,0,6-3.75,11.31,11.31,0,0,0,2.28-4.43h-4.68a15.53,15.53,0,0,1-3.81,3.66l-1.32-1a12.7,12.7,0,0,0,4.71-5,6.53,6.53,0,0,0,.56-1.35l1.74.57c-.3.45-.62,1-.78,1.34-.06.12-.14.25-.21.37H773a3.34,3.34,0,0,0,1.12-.15Z"/><path class="cls-3" d="M729.43,190.19l-.87,1.33a36.73,36.73,0,0,0-3.34-2.1l.85-1.29C727,188.64,728.73,189.69,729.43,190.19Zm1.52,3.52a15.36,15.36,0,0,0,5.74-5.56l.9,1.59A17.33,17.33,0,0,1,726.76,197l-.88-1.55A16.43,16.43,0,0,0,731,193.71Zm.73-6.84-.88,1.29c-.77-.55-2.37-1.62-3.3-2.14l.85-1.29C729.28,185.25,731,186.36,731.68,186.87Z"/><path class="cls-3" d="M749.32,197.37a5.08,5.08,0,0,0,0-.6h-5.88c-.45,0-1,0-1.26,0v-1.47a11.93,11.93,0,0,0,1.26.06h5.88V193h-5.13c-.56,0-1.16,0-1.49,0v-1.42c.35,0,.93,0,1.47,0h5.15v-2.2H744c-.46,0-1.36,0-1.66.06v-1.46c.33.05,1.2.06,1.66.06h6.77c0,.18,0,.57,0,.87v7.48c0,.24,0,.66,0,.9Z"/><path class="cls-3" d="M759.67,191.84l-1.42.52a32.46,32.46,0,0,0-1.37-3.42l1.41-.51C758.64,189.12,759.39,191,759.67,191.84Zm7.59-3.23c-.13.38-.22.65-.28.9a12.2,12.2,0,0,1-2.1,4.52,11.73,11.73,0,0,1-4.94,3.63l-1.24-1.28a10.29,10.29,0,0,0,4.92-3.16,10.45,10.45,0,0,0,2-5.13Zm-4.27,2.3-1.41.51a28,28,0,0,0-1.2-3.3l1.41-.47C762.06,188.28,762.79,190.25,763,190.91Z"/><path class="cls-3" d="M780.37,186a4.72,4.72,0,0,0,.63,0,1.81,1.81,0,0,1,0-.4,1.73,1.73,0,1,1,1.72,1.72,1.67,1.67,0,0,1-.39,0l-.07.28A15.16,15.16,0,0,1,780,193a11.64,11.64,0,0,1-6,4.06l-1.29-1.41a10,10,0,0,0,5.87-3.57,10.49,10.49,0,0,0,1.87-4.6H773.1c-.65,0-1.25,0-1.62,0v-1.66a13.54,13.54,0,0,0,1.62.1Zm3.26-.43a.94.94,0,0,0-1.88,0,.94.94,0,0,0,1.88,0Z"/><polygon class="cls-2" points="633.91 170.84 411.44 170.84 411.44 116.14 633.91 116.14 670.81 143.49 633.91 170.84"/><polygon class="cls-2" points="633.91 231.23 496.74 231.23 496.74 176.53 633.91 176.53 670.81 203.88 633.91 231.23"/><path class="cls-3" d="M484.88,128.57h3.42c2.27,0,3.9.72,3.9,2.72a2.45,2.45,0,0,1-1.57,2.38v.08a2.53,2.53,0,0,1,2.17,2.62c0,2.19-1.78,3.24-4.23,3.24h-3.69Zm3.23,4.61c1.68,0,2.38-.64,2.38-1.67s-.78-1.59-2.34-1.59h-1.53v3.26Zm.27,5.07c1.72,0,2.71-.62,2.71-2s-1-1.78-2.71-1.78h-1.76v3.75Z"/><path class="cls-3" d="M495.19,128.57h3.42c2.26,0,3.9.72,3.9,2.72a2.46,2.46,0,0,1-1.58,2.38v.08a2.53,2.53,0,0,1,2.18,2.62c0,2.19-1.79,3.24-4.23,3.24h-3.69Zm3.22,4.61c1.68,0,2.39-.64,2.39-1.67s-.78-1.59-2.34-1.59h-1.53v3.26Zm.27,5.07c1.73,0,2.72-.62,2.72-2s-1-1.78-2.72-1.78h-1.75v3.75Z"/><path class="cls-3" d="M507.74,130H504.5v-1.46h8.24V130h-3.26v9.58h-1.74Z"/><path class="cls-3" d="M523.82,128c-.07.32-.16.69-.22,1s-.21,1.17-.35,1.85c.6-.05,1.14-.08,1.49-.08,1.42,0,2.52.6,2.52,2.67a14.66,14.66,0,0,1-.84,5.38,2.24,2.24,0,0,1-2.3,1.29,8.32,8.32,0,0,1-1.77-.22l-.25-1.56a7.93,7.93,0,0,0,1.83.31,1.17,1.17,0,0,0,1.21-.7,11.92,11.92,0,0,0,.66-4.33c0-1.28-.57-1.49-1.51-1.49-.3,0-.8,0-1.35.08a30.26,30.26,0,0,1-3.06,8l-1.55-.62a22.8,22.8,0,0,0,3.08-7.18l-1.62.18c-.39.05-1,.14-1.47.21l-.15-1.62a13.83,13.83,0,0,0,1.44,0c.48,0,1.27-.07,2.1-.15a17.61,17.61,0,0,0,.36-3.18Zm5.34,1.94a28.2,28.2,0,0,1,2.45,5l-1.49.71a17.16,17.16,0,0,0-2.59-5.46l1.39-.62.24.33a16.08,16.08,0,0,0-1.2-2.07l1-.4a22.39,22.39,0,0,1,1.21,2.07Zm1.74-.65a13.13,13.13,0,0,0-1.23-2.07l1-.4a20.34,20.34,0,0,1,1.24,2Z"/><path class="cls-3" d="M535.54,133.31c0,2.19-.21,5.43-1.47,7.51A5.68,5.68,0,0,0,533,140c1.14-1.93,1.24-4.69,1.24-6.7V129.1H536a11.48,11.48,0,0,0-1-1.43l1.17-.57a7.89,7.89,0,0,1,1.22,1.68l-.62.32h2.84a7.92,7.92,0,0,0-.84-1.67L540,127a6.15,6.15,0,0,1,1,1.76l-.87.36h3.12l-.43-.15a11.58,11.58,0,0,0,1.33-2l1.43.44c-.45.6-1,1.23-1.37,1.71h2.57v1.21H535.54Zm5.17.66v6.84h-1.14v-1.25c-1.41.18-2.8.32-3.93.45l-.25-1.11q.5,0,1.11-.09V134h-.63v-1H538v-1h-1.8v-1h4.9v1h-1.89v1h2.09v1Zm-1.14,0h-1.93v.88h1.93Zm-1.93,2.74h1.93v-.92h-1.93Zm0,2,1.93-.2v-.9h-1.93Zm8.58-5.39a13.79,13.79,0,0,1-1.5,4.44,6,6,0,0,0,2.4,2,4.36,4.36,0,0,0-.84,1.05,6.43,6.43,0,0,1-2.28-2,8.41,8.41,0,0,1-2.37,2,4.92,4.92,0,0,0-.83-1,7.12,7.12,0,0,0,2.51-2.14,12.85,12.85,0,0,1-1-2.46,10.69,10.69,0,0,1-.63,1,6.57,6.57,0,0,0-.93-.88,10.77,10.77,0,0,0,1.71-4.76l1.24.21q-.13.72-.3,1.41h3.39v1.11Zm-3.21.33a12.6,12.6,0,0,0,1,2.89,11.5,11.5,0,0,0,1-3.22h-1.83Z"/><path class="cls-3" d="M551.54,137.65c.66,1.06,1.89,1.54,3.54,1.6s5.31,0,7.23-.1a8.4,8.4,0,0,0-.42,1.31c-1.77.08-5,.11-6.79,0a5.05,5.05,0,0,1-4.11-1.74c-.6.61-1.23,1.23-1.94,1.88l-.7-1.33c.58-.42,1.27-1,1.9-1.55v-3.63h-1.71v-1.29h3Zm-.88-7a10.8,10.8,0,0,0-2.13-2.54l1.11-.71a11.37,11.37,0,0,1,2.2,2.46Zm11.41,5.93h-10v-1.07h2.57v-1.23h-2.1v-1h2.1v-1H556v1h2.11v-1h1.34v1h2.16v1h-2.16v1.23h2.62Zm-6.69-8.07h-3v-.93h4.22v2.69h-2.82v.55c0,.3.07.35.51.35h1.42c.33,0,.39-.08.44-.66a2.89,2.89,0,0,0,1,.37c-.12,1-.45,1.25-1.29,1.25h-1.71c-1.21,0-1.53-.27-1.53-1.29v-1.52h2.79Zm1,8.54a11.31,11.31,0,0,1-3,1.88,8.67,8.67,0,0,0-1-.85,10.14,10.14,0,0,0,2.77-1.45Zm-.43-1.54h2.11v-1.23H556Zm4.23-7h-3v-.93h4.24v2.69h-2.8v.55c0,.3.07.35.54.35h1.51c.33,0,.41-.09.45-.71a3.13,3.13,0,0,0,1,.39c-.12,1-.47,1.28-1.31,1.28H559c-1.2,0-1.54-.27-1.54-1.31v-1.5h2.76Zm.3,10.46a14,14,0,0,0-2.64-1.73l1-.6a18.2,18.2,0,0,1,3.06,1.77Z"/><path class="cls-3" d="M568.46,127.88a16.54,16.54,0,0,0-.16,1.7c-.06,1.65-.18,5.07-.18,7.13,0,1.56,1,2.1,2.26,2.1a6,6,0,0,0,5.22-3.06l1.07,1.31a7.57,7.57,0,0,1-6.32,3.33c-2.26,0-3.78-1-3.78-3.43,0-2.12.15-5.94.15-7.38a8.12,8.12,0,0,0-.15-1.71Z"/><path class="cls-3" d="M587.51,130.9c-.93.2-2,.37-3,.49-.14.65-.3,1.31-.47,1.94a45.29,45.29,0,0,1-2.34,6.84l-1.65-.56a32,32,0,0,0,2.52-6.66c.14-.45.26-.94.36-1.42l-1.18,0c-.69,0-1.23,0-1.77-.06l0-1.47a13.69,13.69,0,0,0,1.81.12c.47,0,1,0,1.49-.06.07-.44.15-.83.18-1.1a7.08,7.08,0,0,0,0-1.35l1.82.14c-.11.37-.23,1-.29,1.27l-.18.87a25.2,25.2,0,0,0,2.67-.51Zm-.46,5a5.64,5.64,0,0,0-.21,1.29c0,.68.36,1.28,2.25,1.28a15.85,15.85,0,0,0,3-.31l0,1.52a20.33,20.33,0,0,1-2.94.21c-2.41,0-3.66-.79-3.66-2.27a10,10,0,0,1,.23-1.86Zm-.59-3.66a26.21,26.21,0,0,1,2.78-.15,24.82,24.82,0,0,1,2.59.14l0,1.42a21.47,21.47,0,0,0-2.52-.18,23.37,23.37,0,0,0-2.81.15Z"/><path class="cls-3" d="M487.45,156v1.26h-1.28V146.06h4.1V156Zm0-8.65v3H489v-3Zm1.56,7.4v-3.16h-1.56v3.16Zm7-1.23a6.58,6.58,0,0,0,3.54,4.23,5,5,0,0,0-.9,1.14,7.52,7.52,0,0,1-3.51-4.25,7,7,0,0,1-4.38,4.16,5,5,0,0,0-.87-1c2.64-1,3.75-2.52,4.2-4.23h-3.44v-1.25h.89v-4.89h2.82v-2.22h1.27v2.22h3v4.89h.8v1.25Zm-1.71-1.25c0-.46.06-.94.06-1.42V148.6H492.8v3.63Zm1.33-3.63v2.21c0,.47,0,1,0,1.42h1.78V148.6Z"/><path class="cls-3" d="M505,145.45a27.4,27.4,0,0,1-1.17,3v10.38h-1.32v-7.95a13,13,0,0,1-1.2,1.65,10.8,10.8,0,0,0-.69-1.47,17.45,17.45,0,0,0,3.09-5.92Zm9.63,7.15a18.85,18.85,0,0,1-2.28,1.69,6.64,6.64,0,0,0,2.47,2.79,4.91,4.91,0,0,0-.9,1.1c-2-1.3-3.18-3.83-3.85-6.81h-.33c-.29.23-.59.44-.9.65,2.44,2,2.44,5.3,1.26,6.26a2.1,2.1,0,0,1-1.49.51c-.31,0-.72,0-1.12,0a2.83,2.83,0,0,0-.32-1.18c.45,0,.89.06,1.17.06a1,1,0,0,0,.83-.27,1.8,1.8,0,0,0,.43-1.6,18.77,18.77,0,0,1-4.5,2.59,5,5,0,0,0-.75-1,15,15,0,0,0,5-2.74,4.65,4.65,0,0,0-.37-.74,17.82,17.82,0,0,1-3.69,2,4.29,4.29,0,0,0-.66-.91,13.68,13.68,0,0,0,3.81-1.83c-.17-.18-.35-.36-.53-.53a17.2,17.2,0,0,1-2.61,1.19,7.43,7.43,0,0,0-.79-.94,15.15,15.15,0,0,0,3.49-1.46h-2.62v-2.1l-.17.14a3.92,3.92,0,0,0-1-.8,10.23,10.23,0,0,0,3.14-3.57l1.33.24c-.12.23-.25.45-.4.68h2.64l.24-.08.84.6a14.18,14.18,0,0,1-1,1.5h3.19v3.39h-2.88a13.93,13.93,0,0,0,.63,1.92,15.33,15.33,0,0,0,1.77-1.52Zm-8-2.19H509V149h-2.37Zm.9-3.42q-.37.49-.81,1h2.7a5.72,5.72,0,0,0,.72-1Zm5.27,2h-2.52v1.45h2.52Z"/><path class="cls-3" d="M516.23,147.55h5.06v1.11h-5.06Zm4.71,10.58H518v.65h-1.16v-5h4.08Zm-.06-7.42h-4v-1.08h4Zm-4,1h4v1.08h-4Zm3.94-5H517v-1.1h3.87Zm-2.8,8.24V157h1.75v-2.16Zm12.06,1.66h-.8v1c0,.62-.12.94-.58,1.12a6.49,6.49,0,0,1-2.12.18,4,4,0,0,0-.33-1.09c.65,0,1.31,0,1.5,0s.24-.07.24-.25v-.94h-4.63v2.27h-1.19v-2.27h-.84V155.4h.84v-3.74h2.9v-.72h-3.72v-1.1h2.08V149H522v-1h1.39v-.79h-1.68v-1h1.68V145h1.26v1.17h2.09V145H528v1.17h1.77v1H528V148h1.47v1H528v.82h2v1.1h-3.8v.72h3v3.74h.8Zm-6.72-3.86v.92h1.71v-.92Zm0,2.74h1.71v-.91h-1.71Zm1.33-7.39h2.09v-.79h-2.09Zm0,1.83h2.09V149h-2.09Zm1.56,2.82v.92H528v-.92ZM528,155.4v-.91h-1.74v.91Z"/><path class="cls-3" d="M534,150.59c0,2.34-.2,5.83-1.44,8.13a6.55,6.55,0,0,0-1.17-.8c1.14-2.13,1.24-5.17,1.24-7.33v-4.08h5.54V145h1.45v1.48h5.55v1.29H534Zm6.24,6.62h5v1.21H534v-1.21h4.89v-1.9h-3.93V154.1h3.93v-5.76h1.37v4.08a5.79,5.79,0,0,0,2-3.84l1.26.14a9.46,9.46,0,0,1-.45,1.78,28.62,28.62,0,0,1,2.28,2l-.85.95a25.35,25.35,0,0,0-1.92-1.85,6.08,6.08,0,0,1-1.5,1.78,4.54,4.54,0,0,0-.78-.69v1.39h4.12v1.21h-4.12Zm-2.72-8.52a8.88,8.88,0,0,1-.42,1.84,17.08,17.08,0,0,1,1.71,1.72l-.79.94a18.47,18.47,0,0,0-1.38-1.52,5.79,5.79,0,0,1-1.5,1.87,8.15,8.15,0,0,0-1-.81,5.67,5.67,0,0,0,2.13-4.15Z"/><path class="cls-3" d="M553.42,156.69a8,8,0,0,0,1.32-.21,4.26,4.26,0,0,0,3.6-4.21,3.93,3.93,0,0,0-3.57-4.14,32.76,32.76,0,0,1-.89,4.17c-.9,3-2.13,4.72-3.61,4.72s-2.82-1.66-2.82-4.13a6.45,6.45,0,0,1,6.64-6.17,5.51,5.51,0,0,1,5.84,5.61c0,3.11-2,5.26-5.63,5.77Zm-1-4.71a20.85,20.85,0,0,0,.81-3.82,5,5,0,0,0-4.23,4.59c0,1.71.76,2.49,1.36,2.49S551.68,154.28,552.37,152Z"/><path class="cls-3" d="M567.4,154.49a18.39,18.39,0,0,0-1.58-1.83v6.13h-1.36v-5.46a13.78,13.78,0,0,1-1.92,1.61,6.31,6.31,0,0,0-.68-1.29,11.93,11.93,0,0,0,4.23-4.6H562.4v-1.26h2.06V145h1.36v2.76h1l.24,0,.78.51a14.28,14.28,0,0,1-1.68,3.1c.66.58,1.81,1.67,2.13,2Zm7.12,3c.29,0,.35-.21.39-1.72a3.74,3.74,0,0,0,1.13.5c-.12,1.92-.45,2.39-1.38,2.39h-1.23c-1.16,0-1.41-.38-1.41-1.59v-2.92h-1c-.26,2.12-1,3.73-3.35,4.64a4.28,4.28,0,0,0-.79-1.08,3.77,3.77,0,0,0,2.8-3.56h-1.08v-8.37H575v8.37h-1.69v2.92c0,.36,0,.42.34.42Zm-4.65-9.27h3.77V146.9h-3.77Zm0,2.37h3.77v-1.32h-3.77Zm0,2.41h3.77v-1.33h-3.77Z"/><path class="cls-3" d="M582.49,147v11.74h-1.25v-2.42l-3.73.48-.17-1.3,1-.1V147h-.72v-1.25h5.58v.74h3.21v-1.35h1.32v1.35H591v1.18h-3.29v1.2h3.15v4.21h-4.24a8.12,8.12,0,0,1,2.07,1.63l-.9.82a8.1,8.1,0,0,0-2.18-1.8l.78-.65h-3.06v-4.21h3.06v-1.2h-3.21V147Zm-1.25,0h-1.69v1.89h1.69Zm0,3h-1.69V152h1.69Zm0,5v-2h-1.69v2.18Zm1.28,2.49a6.54,6.54,0,0,0,1.15-3l1.1.32a7.25,7.25,0,0,1-1.19,3.29Zm3-7.6h-1.08v2h1.08Zm2.4,7.54c.33,0,.41-.15.44-1.38a3.18,3.18,0,0,0,1.11.47c-.12,1.68-.45,2.08-1.4,2.08h-1.44c-1.21,0-1.48-.36-1.48-1.55v-2.6h1.24v2.58c0,.36.05.4.42.4Zm-.34-7.54h-1.13v2h1.13Zm.93,2h1.15v-2h-1.15Zm1.27,2.43a9.68,9.68,0,0,1,1.62,3.18l-1.15.54a9.85,9.85,0,0,0-1.55-3.24Z"/><path class="cls-3" d="M547.47,191.67a11.12,11.12,0,0,0,1.47-.09v1.62c-.51,0-1.13,0-1.47,0h-2.34c-.27,4.16-1.89,6.75-4.53,8.42L539,200.49a6.24,6.24,0,0,0,1.3-.75,8.4,8.4,0,0,0,3.2-6.59H540a12.38,12.38,0,0,1-2.46,3.2l-1.48-.9a12,12,0,0,0,2.64-3.17,11.42,11.42,0,0,0,.85-2.08,6.24,6.24,0,0,0,.26-1.34l1.83.36c-.15.35-.32.81-.44,1.13s-.3.84-.49,1.32Z"/><path class="cls-3" d="M551.94,194.19c.48,0,1.41.09,2.22.09h8.14c.74,0,1.32-.06,1.68-.09V196c-.33,0-1-.06-1.66-.06h-8.16c-.84,0-1.73,0-2.22.06Z"/><path class="cls-3" d="M578,190.78a5.46,5.46,0,0,0-.43.78,20.78,20.78,0,0,1-2.46,4.28,40.32,40.32,0,0,1,4.29,4.39l-1.34,1.17a31.79,31.79,0,0,0-4-4.38,19.13,19.13,0,0,1-5.77,4.31l-1.22-1.26a16.87,16.87,0,0,0,6.17-4.4,12.32,12.32,0,0,0,2.38-4h-5.5c-.59,0-1.4.08-1.64.09v-1.69c.3,0,1.17.1,1.64.1h5.56a4.59,4.59,0,0,0,1.31-.15Z"/><path class="cls-3" d="M584.25,195a11.09,11.09,0,0,0-2.61-1.53l.76-1a12,12,0,0,1,2.66,1.41Zm1.38,2.1c-.68,1.59-1.56,3.41-2.34,4.82L582,201a41.8,41.8,0,0,0,2.49-4.83Zm-.63-6a10.66,10.66,0,0,0-2.6-1.64l.77-1a10.16,10.16,0,0,1,2.64,1.5Zm4.83,8.8a14.14,14.14,0,0,1-3.56,2.28,9,9,0,0,0-1-1,10.91,10.91,0,0,0,3.27-1.77Zm4.74-.63h-8V194h3.23v-.93h-2.75v-.89h-1.15V189.6h3.85v-1.31h1.43v1.31h4v2.56h-1.19v.89h-2.92V194h3.42Zm-7.35-8.44v1.14h6.7v-1.14Zm.63,5.31h2v-1h-2Zm0,2.08h2v-1.08h-2Zm5.43-3.12h-2.13v1h2.13Zm0,2h-2.13v1.08h2.13Zm-1,2.13a29.19,29.19,0,0,1,3.15,2.06l-1.14.81a23.9,23.9,0,0,0-3.08-2.15Z"/><path class="cls-3" d="M601.24,193.3c-1.27.53-2.58,1.1-3.64,1.52l-.53-1.14c1-.33,2.49-.86,4-1.38Zm3.36,1.44c-.21.39-.42.78-.63,1.14h4.83v6.21h-1.45v-.55h-6.86v.55H599.1v-6.21h3.51a9.41,9.41,0,0,0,.43-1.14.84.84,0,0,1-.31.23,5.77,5.77,0,0,1-2,.16,4.44,4.44,0,0,0-.36-1c.6,0,1.17,0,1.35,0s.24-.06.24-.21v-3.81h-4.53V189h5.81v4.91a1.93,1.93,0,0,1-.08.6Zm-4.71-2.38A8.09,8.09,0,0,0,598,191l.69-.81a7.51,7.51,0,0,1,1.93,1.33Zm7.46,4.59h-6.86v1.2h6.86Zm0,3.49v-1.23h-6.86v1.23Zm-3.59-7.06c1.07-.33,2.63-.86,4.14-1.4l.23,1c-1.34.51-2.76,1-3.89,1.44Zm6.2.52c0,.62-.14.92-.59,1.11a6.25,6.25,0,0,1-2.08.18,4,4,0,0,0-.38-1.09c.63,0,1.29,0,1.49,0s.24-.06.24-.23v-3.79h-4.5V189H610Zm-3.51-1.57a9.81,9.81,0,0,0-2-1.4l.69-.81a8,8,0,0,1,2,1.31Z"/><path class="cls-3" d="M538.69,206.16h4.83v1.29h-3.44v8.35h-1.39Z"/><path class="cls-3" d="M551.78,218.88l-2.5-4.46h-1.79v4.46h-1.74v-11h3.62c2.28,0,4,.81,4,3.19a3.09,3.09,0,0,1-2.31,3.17l2.7,4.68ZM547.49,213h1.67c1.6,0,2.47-.66,2.47-2s-.87-1.8-2.47-1.8h-1.67Z"/><path class="cls-3" d="M558.13,209.29h-3.24v-1.45h8.23v1.45h-3.25v9.59h-1.74Z"/><path class="cls-3" d="M564.73,213.31c0-3.55,2-5.68,4.8-5.68s4.81,2.13,4.81,5.68-2,5.76-4.81,5.76S564.73,216.87,564.73,213.31Zm7.83,0c0-2.59-1.2-4.17-3-4.17s-3,1.58-3,4.17,1.19,4.25,3,4.25S572.56,215.91,572.56,213.31Z"/><path class="cls-3" d="M576.34,213.39c0-3.6,2.19-5.76,5-5.76a4.25,4.25,0,0,1,3.13,1.39l-.94,1.11a3,3,0,0,0-2.16-1c-1.91,0-3.23,1.59-3.23,4.19s1.23,4.23,3.18,4.23a3.22,3.22,0,0,0,2.45-1.17l.93,1.09a4.37,4.37,0,0,1-3.44,1.59C578.47,219.07,576.34,217,576.34,213.39Z"/><path class="cls-3" d="M586.15,217.45l1-1.2a4.25,4.25,0,0,0,2.94,1.31c1.33,0,2.08-.63,2.08-1.56s-.75-1.32-1.77-1.77l-1.53-.66a3.18,3.18,0,0,1-2.25-2.9c0-1.74,1.53-3,3.63-3a4.76,4.76,0,0,1,3.35,1.39l-.92,1.11a3.53,3.53,0,0,0-2.43-1c-1.12,0-1.86.54-1.86,1.43s.89,1.3,1.79,1.66l1.51.65a3.07,3.07,0,0,1,2.25,3c0,1.77-1.47,3.21-3.88,3.21A5.49,5.49,0,0,1,586.15,217.45Z"/><path class="cls-3" d="M595.33,210.19a3.23,3.23,0,1,1,3.24,3.33A3.2,3.2,0,0,1,595.33,210.19Zm5.71,0a2.49,2.49,0,1,0-2.47,2.67A2.49,2.49,0,0,0,601,210.19Zm-3.75-1.74h1.35c.72,0,1.34.32,1.34,1.1a1,1,0,0,1-.63.93l.76,1.36h-.85l-.57-1.14h-.62v1.14h-.78Zm1.19,1.68c.42,0,.66-.19.66-.52s-.18-.54-.63-.54h-.44v1.06Z"/><path class="cls-3" d="M607.85,220.2H603v-1.29h3.44v-8.36h1.39Z"/><polygon class="cls-5" points="837.4 26.87 837.4 41.13 844.98 34 837.4 26.87"/><line class="cls-6" x1="578.27" y1="34" x2="844.98" y2="34"/><polygon class="cls-5" points="229.7 34 237.28 41.13 237.28 26.87 229.7 34"/><line class="cls-6" x1="499.74" y1="34" x2="235.03" y2="34"/><rect class="cls-7" x="55.02" y="51.55" width="162.03" height="48.32"/><rect class="cls-7" x="231.88" y="51.55" width="162.03" height="48.32"/><path class="cls-3" d="M107.44,61.21c0,.32-.06.69-.06,1.11v5c0,.39,0,.91.06,1.21h-1.75c0-.25.07-.78.07-1.21v-5c0-.27,0-.79-.06-1.11Zm6.93-.12c0,.39-.06.84-.06,1.38v2.67c0,3.44-.54,4.71-1.65,6a8.27,8.27,0,0,1-3.58,2.19L107.83,72a6.88,6.88,0,0,0,3.63-2c1.05-1.18,1.25-2.35,1.25-5V62.47a12.76,12.76,0,0,0-.09-1.38Z"/><path class="cls-3" d="M132,62.44c-.13.17-.37.45-.49.63a14.81,14.81,0,0,1-3.68,4.14l-1.24-1a9.43,9.43,0,0,0,3.06-3.11h-8.24c-.58,0-1.11,0-1.75.09V61.53a14.26,14.26,0,0,0,1.75.13h8.39a7.85,7.85,0,0,0,1.26-.1Zm-6.06,2c0,3.91-.22,6.79-4.17,8.82l-1.38-1.13a5.75,5.75,0,0,0,1.44-.73c2.15-1.38,2.49-3.27,2.49-5.76a6.18,6.18,0,0,0-.09-1.2Z"/><path class="cls-3" d="M134,72.12a7.12,7.12,0,0,0,2.58-3.65,26.26,26.26,0,0,0,.43-6,4.74,4.74,0,0,0-.12-1.22h1.74c0,.12-.07.68-.07,1.2a32.52,32.52,0,0,1-.47,6.41,8.39,8.39,0,0,1-2.67,4.2Zm6.9.13a4.3,4.3,0,0,0,.1-.94V62.43a10.87,10.87,0,0,0-.09-1.2h1.74a10.52,10.52,0,0,0-.07,1.2v8.29a10.54,10.54,0,0,0,4.08-3.45l.9,1.29a15.77,15.77,0,0,1-5.1,4.14,2.81,2.81,0,0,0-.57.38Z"/><path class="cls-3" d="M152.92,68.47c0-2.76,1.85-4.35,3.89-4.35s3.88,1.59,3.88,4.35-1.84,4.31-3.88,4.31A4,4,0,0,1,152.92,68.47Zm6,0c0-1.75-.81-2.92-2.11-2.92s-2.1,1.17-2.1,2.92.81,2.9,2.1,2.9S158.92,70.21,158.92,68.47Z"/><path class="cls-3" d="M163,64.33h1.41l.13,1.49h.05a2.84,2.84,0,0,1,2.34-1.7,2.08,2.08,0,0,1,.93.18l-.32,1.5a2.39,2.39,0,0,0-.82-.13c-.68,0-1.49.46-2,1.77v5.14H163Z"/><path class="cls-3" d="M109.24,81.39a10.9,10.9,0,0,0,1.39-.11v1.58c-.4,0-.94,0-1.32,0h-2.19c0,2.22.11,5,.12,6.93,0,.87-.51,1.35-1.51,1.35-.83,0-1.7,0-2.49-.09l-.12-1.55a14.71,14.71,0,0,0,2,.17c.41,0,.56-.2.56-.6,0-1.13,0-3,0-4.83a20.82,20.82,0,0,1-6.37,5.37l-1.08-1.23A18.46,18.46,0,0,0,105,82.83h-4.57c-.53,0-1,0-1.53,0V81.28a11.74,11.74,0,0,0,1.5.11h5.23c0-.5,0-.93,0-1.29a10.24,10.24,0,0,0-.14-1.38h1.71a7.88,7.88,0,0,0-.07,1.38v1.29Z"/><path class="cls-3" d="M120.25,87.34a14.22,14.22,0,0,0,5.2-5.65l.92,1.63a15.44,15.44,0,0,1-5.27,5.43A16.51,16.51,0,0,1,115.36,91l-1-1.55A15.41,15.41,0,0,0,120.25,87.34Zm-.51-4.8-1.19,1.22a33,33,0,0,0-3.75-3.18l1.1-1.17A30.26,30.26,0,0,1,119.74,82.54Z"/><path class="cls-3" d="M141,83.4a3.57,3.57,0,0,0-.23.51,10.67,10.67,0,0,1-2.2,4.21,11.12,11.12,0,0,1-5.37,3.2L132.07,90a10.21,10.21,0,0,0,5.25-2.7,7.14,7.14,0,0,0,1.66-3h-7.63c-.36,0-1,0-1.59.06V82.77c.58.06,1.15.1,1.59.1H139a3.2,3.2,0,0,0,1-.13Zm-9.92-4.13a12.7,12.7,0,0,0,1.43.08h5.85a13,13,0,0,0,1.47-.08v1.55c-.38,0-1,0-1.49,0h-5.83c-.47,0-1,0-1.43,0Z"/><path class="cls-3" d="M152.08,89.37a12.08,12.08,0,0,0,.1,1.77h-1.86a16.11,16.11,0,0,0,.09-1.77V84a28.28,28.28,0,0,1-5.43,2.2l-.85-1.45a23.81,23.81,0,0,0,6.76-2.73,16.45,16.45,0,0,0,3.92-3.36l1.27,1.15a25.35,25.35,0,0,1-4,3.23Z"/><path class="cls-3" d="M166.15,87.34a14.22,14.22,0,0,0,5.2-5.65l.92,1.63A15.44,15.44,0,0,1,167,88.75,16.51,16.51,0,0,1,161.26,91l-1-1.55A15.41,15.41,0,0,0,166.15,87.34Zm-.51-4.8-1.19,1.22a33,33,0,0,0-3.75-3.18l1.1-1.17A30.26,30.26,0,0,1,165.64,82.54Z"/><path class="cls-3" d="M294.09,69.21c0,.32-.06.69-.06,1.11v5c0,.39,0,.91.06,1.21h-1.76c0-.25.08-.78.08-1.21v-5c0-.27,0-.79-.06-1.11Zm6.93-.12c0,.39-.06.84-.06,1.38v2.67c0,3.44-.54,4.71-1.65,6a8.3,8.3,0,0,1-3.59,2.19L294.48,80a7,7,0,0,0,3.63-2c1.05-1.18,1.24-2.35,1.24-5V70.47a10.63,10.63,0,0,0-.09-1.38Z"/><path class="cls-3" d="M318.63,70.44c-.14.17-.38.45-.5.63a14.76,14.76,0,0,1-3.67,4.14l-1.25-1a9.24,9.24,0,0,0,3.06-3.11H308c-.59,0-1.11.05-1.76.09V69.53a14.43,14.43,0,0,0,1.76.13h8.38a7.76,7.76,0,0,0,1.26-.1Zm-6.06,2c0,3.91-.23,6.79-4.17,8.82L307,80.13a5.92,5.92,0,0,0,1.44-.73C310.6,78,311,76.13,311,73.64a7.08,7.08,0,0,0-.09-1.2Z"/><path class="cls-3" d="M320.62,80.12a7.06,7.06,0,0,0,2.58-3.65,25.68,25.68,0,0,0,.44-6,4.74,4.74,0,0,0-.12-1.22h1.74a9.73,9.73,0,0,0-.08,1.2,33.32,33.32,0,0,1-.46,6.41,8.46,8.46,0,0,1-2.67,4.2Zm6.9.13a4.26,4.26,0,0,0,.11-.94V70.43a10.87,10.87,0,0,0-.09-1.2h1.74a7.8,7.8,0,0,0-.08,1.2v8.29a10.47,10.47,0,0,0,4.08-3.45l.9,1.29a15.56,15.56,0,0,1-5.1,4.14,3.51,3.51,0,0,0-.57.38Z"/><rect class="cls-7" x="682.95" y="51.55" width="162.03" height="48.32"/><path class="cls-3" d="M747.34,70.21c0,.32-.06.69-.06,1.11v5c0,.39,0,.91.06,1.21h-1.75c0-.25.07-.78.07-1.21v-5c0-.27,0-.79-.06-1.11Zm6.93-.12c0,.39-.06.84-.06,1.38v2.67c0,3.44-.54,4.71-1.65,6A8.27,8.27,0,0,1,749,82.3L747.73,81a6.88,6.88,0,0,0,3.63-2c1-1.18,1.25-2.35,1.25-5V71.47a12.76,12.76,0,0,0-.09-1.38Z"/><path class="cls-3" d="M771.88,71.44c-.13.17-.37.45-.49.63a14.81,14.81,0,0,1-3.68,4.14l-1.24-1a9.43,9.43,0,0,0,3.06-3.11h-8.24c-.58,0-1.11.05-1.75.09V70.53a14.26,14.26,0,0,0,1.75.13h8.39a7.85,7.85,0,0,0,1.26-.1Zm-6.06,2c0,3.91-.22,6.79-4.17,8.82l-1.38-1.13a5.75,5.75,0,0,0,1.44-.73c2.15-1.38,2.49-3.27,2.49-5.76a6.18,6.18,0,0,0-.09-1.2Z"/><path class="cls-3" d="M773.88,81.12a7.12,7.12,0,0,0,2.58-3.65,26.26,26.26,0,0,0,.43-6,4.74,4.74,0,0,0-.12-1.22h1.74c0,.12-.07.68-.07,1.2a32.52,32.52,0,0,1-.47,6.41,8.39,8.39,0,0,1-2.67,4.2Zm6.9.13a4.3,4.3,0,0,0,.1-.94V71.43a10.87,10.87,0,0,0-.09-1.2h1.74a10.52,10.52,0,0,0-.07,1.2v8.29a10.54,10.54,0,0,0,4.08-3.45l.9,1.29a15.77,15.77,0,0,1-5.1,4.14,2.81,2.81,0,0,0-.57.38Z"/><rect class="cls-7" x="408.75" y="51.55" width="259.37" height="48.32"/><path class="cls-3" d="M469.91,65a11.06,11.06,0,0,0,1.4-.11v1.58c-.41,0-.95,0-1.32,0H467.8c0,2.22.1,5,.12,6.93,0,.87-.51,1.35-1.52,1.35-.82,0-1.69,0-2.49-.09l-.12-1.55a14.73,14.73,0,0,0,2.06.17c.4,0,.55-.2.55-.6,0-1.13,0-3,0-4.83A20.87,20.87,0,0,1,460,73.16l-1.08-1.23a18.42,18.42,0,0,0,6.77-5.52h-4.58c-.52,0-1,0-1.53,0V64.86a11.74,11.74,0,0,0,1.5.11h5.24c0-.5,0-.93-.05-1.29a8.76,8.76,0,0,0-.13-1.38h1.71a9,9,0,0,0-.08,1.38l0,1.29Z"/><path class="cls-3" d="M480.92,70.92a14.25,14.25,0,0,0,5.21-5.65L487,66.9a15.4,15.4,0,0,1-5.26,5.43A16.57,16.57,0,0,1,476,74.57L475,73A15.42,15.42,0,0,0,480.92,70.92Zm-.51-4.8-1.18,1.22a33,33,0,0,0-3.75-3.18L476.57,63A29.57,29.57,0,0,1,480.41,66.12Z"/><path class="cls-3" d="M500.74,66.92a9.58,9.58,0,0,0,1.26-.08v1.55c-.35,0-.87,0-1.26,0h-3.86a9.21,9.21,0,0,1-.93,4,7.34,7.34,0,0,1-3,2.8l-1.39-1a6.23,6.23,0,0,0,2.77-2.23,6.76,6.76,0,0,0,.9-3.54h-4.33c-.45,0-.95,0-1.37,0V66.84a12.16,12.16,0,0,0,1.37.08Zm-7.94-2.39c-.51,0-1.06,0-1.47.06V63.05a11.56,11.56,0,0,0,1.46.09h5.07a12.71,12.71,0,0,0,1.5-.09v1.54c-.48,0-1-.06-1.5-.06Zm7.61-.15a17.25,17.25,0,0,0-1.19-2.07l1-.4A21.28,21.28,0,0,1,501.4,64Zm1.47-3.1a16.35,16.35,0,0,1,1.24,2l-1,.42a14.56,14.56,0,0,0-1.23-2.06Z"/><path class="cls-3" d="M517.76,64.68a5,5,0,0,0-.43.53,23.91,23.91,0,0,1-5.3,6c.89.88,1.86,1.93,2.46,2.65L513.11,75a38.58,38.58,0,0,0-2.77-3.15A36.69,36.69,0,0,0,507,68.91l1.23-1c.57.42,1.71,1.33,2.7,2.22a17.68,17.68,0,0,0,4.29-4.82h-8.43c-.6,0-1.3.06-1.62.09V63.72a13.07,13.07,0,0,0,1.62.12h8.67a3.94,3.94,0,0,0,1.16-.13Z"/><path class="cls-3" d="M526.82,70.92A14.25,14.25,0,0,0,532,65.27l.91,1.63a15.4,15.4,0,0,1-5.26,5.43,16.57,16.57,0,0,1-5.75,2.24l-1-1.55A15.42,15.42,0,0,0,526.82,70.92Zm-.51-4.8-1.18,1.22a33,33,0,0,0-3.75-3.18L522.47,63A29.57,29.57,0,0,1,526.31,66.12Z"/><path class="cls-3" d="M540.31,66.66a49.7,49.7,0,0,1,6.34,2.4L546,70.68a41.82,41.82,0,0,0-5.68-2.32V73c0,.47,0,1.37.11,1.92H538.6a16.91,16.91,0,0,0,.12-1.92V64.32a10.78,10.78,0,0,0-.14-1.68h1.85c0,.5-.12,1.14-.12,1.68Zm4.29-.72a13.82,13.82,0,0,0-1.32-2.29l1-.44a18,18,0,0,1,1.37,2.27Zm1.95-.79a15.31,15.31,0,0,0-1.38-2.25l1-.47a19.13,19.13,0,0,1,1.4,2.22Z"/><path class="cls-3" d="M550.18,64.1h5.05v1.11h-5.05Zm4.71,10.59H552v.64h-1.15v-5h4.08Zm-.06-7.43h-4V66.18h4Zm-4,1h4V69.3h-4Zm3.95-5H550.9v-1.1h3.87ZM552,71.42v2.16h1.76V71.42ZM564,73.07h-.79v1c0,.63-.12.94-.59,1.12a6.39,6.39,0,0,1-2.11.18,4.53,4.53,0,0,0-.33-1.09c.64,0,1.3,0,1.5,0s.24-.08.24-.26v-.94H557.3v2.28h-1.18V73.07h-.84V72h.84V68.21H559v-.72h-3.72v-1.1h2.09v-.82H556v-1h1.4v-.79H555.7v-1h1.68V61.58h1.26v1.17h2.08V61.58H562v1.17h1.77v1H562v.79h1.47v1H562v.82h2v1.1H560.2v.72h3V72H564Zm-6.72-3.86v.92H559v-.92Zm0,2.75H559V71H557.3Zm1.34-7.4h2.08v-.79h-2.08Zm0,1.83h2.08v-.82h-2.08Zm1.56,2.82v.92h1.74v-.92ZM561.94,72V71H560.2V72Z"/><path class="cls-3" d="M578,71.58a8,8,0,0,1-1.91,1.74,2.28,2.28,0,0,0,1.59.74c.39,0,.5-.32.57-1.28a3,3,0,0,0,1,.54c-.21,1.62-.64,2-1.69,2a3.56,3.56,0,0,1-2.67-1.3,19.64,19.64,0,0,1-3.2,1.29,5.67,5.67,0,0,0-.72-1.11,14.71,14.71,0,0,0,3.23-1.13,8.76,8.76,0,0,1-.86-2h-3.22v.81l2.47-.18v1l-2.47.21V74c0,.68-.15,1-.65,1.13a8.45,8.45,0,0,1-2.34.18,5.82,5.82,0,0,0-.4-1.1,15.76,15.76,0,0,0,1.74,0c.24,0,.3-.06.3-.27V73l-3,.24-.12-1.08c.85,0,1.93-.11,3.12-.2v-.9h-3.06V70h3.06V69.2c-.87.09-1.74.15-2.55.18a3.75,3.75,0,0,0-.3-.87,35.86,35.86,0,0,0,5.64-.69l.82.84c-.66.16-1.44.28-2.26.4v1h3a16.44,16.44,0,0,1-.27-2.07h1.35a11.25,11.25,0,0,0,.27,2.07h3a10.78,10.78,0,0,0-2.41-1.38l.78-.81a9.06,9.06,0,0,1,2.46,1.32l-.8.87h1.58V71.1h-4.29a6.12,6.12,0,0,0,.61,1.34,6,6,0,0,0,1.41-1.26Zm1-3.82H565.76v-1.1h5.88V65.9h-4.42v-1h4.42v-.76h-5.22v-1h2.88a6.3,6.3,0,0,0-.72-1.1l1.22-.4a5.28,5.28,0,0,1,1,1.47l-.08,0H574a14.1,14.1,0,0,0,.8-1.53l1.51.33c-.3.43-.58.85-.85,1.2h2.86v1h-5.29v.76h4.5v1h-4.5v.76H579Z"/><path class="cls-3" d="M586,71a22.49,22.49,0,0,0-1.57-1.83v6.14H583.1V69.89a12.53,12.53,0,0,1-1.92,1.6,6.81,6.81,0,0,0-.67-1.29,12,12,0,0,0,4.23-4.6h-3.69V64.34h2.05V61.58h1.37v2.76h1l.24,0,.78.51a14.16,14.16,0,0,1-1.68,3.11c.66.57,1.82,1.66,2.13,2Zm7.13,3c.28,0,.34-.21.39-1.72a4,4,0,0,0,1.12.51c-.12,1.92-.45,2.38-1.38,2.38h-1.23c-1.15,0-1.41-.37-1.41-1.59V70.7h-1c-.25,2.13-1,3.73-3.34,4.65a3.79,3.79,0,0,0-.8-1.08,3.8,3.8,0,0,0,2.81-3.57h-1.08V62.33h6.39V70.7h-1.7v2.92c0,.36.05.42.35.42Zm-4.65-9.27h3.76V63.45h-3.76Zm0,2.37h3.76V65.82h-3.76Zm0,2.42h3.76V68.22h-3.76Z"/><path class="cls-3" d="M601.13,63.59V75.33h-1.24V72.92c-1.34.16-2.66.34-3.74.48L596,72.09l1-.1v-8.4h-.72V62.34h5.58v.74h3.21V61.73h1.32v1.35h3.28v1.18h-3.28v1.2h3.15v4.22h-4.25a8.1,8.1,0,0,1,2.07,1.62l-.9.82a8.4,8.4,0,0,0-2.17-1.8l.78-.64H602V65.46h3.06v-1.2h-3.21v-.67Zm-1.24,0h-1.7v1.89h1.7Zm0,3h-1.7v1.9h1.7Zm0,5v-2h-1.7v2.17Zm1.27,2.49a6.47,6.47,0,0,0,1.16-3l1.09.33a7.24,7.24,0,0,1-1.18,3.28Zm3.05-7.61h-1.08v2h1.08Zm2.4,7.55c.33,0,.4-.15.43-1.38a3.25,3.25,0,0,0,1.11.46c-.12,1.68-.45,2.09-1.39,2.09h-1.44c-1.22,0-1.49-.36-1.49-1.56V71.1h1.25v2.58c0,.36,0,.41.42.41Zm-.35-7.55h-1.12v2h1.12Zm.93,2h1.16v-2h-1.16ZM608.47,71a9.88,9.88,0,0,1,1.62,3.18l-1.16.54a9.7,9.7,0,0,0-1.54-3.24Z"/><path class="cls-3" d="M454.87,83.42a8.49,8.49,0,0,0,1.5-.09v1.59c-.24,0-.78,0-1.49,0h-1.42v.51c0,3.87-.87,6-4.38,7.59l-1.28-1.2c2.81-1,4.13-2.32,4.13-6.3v-.6h-4v2.25c0,.62,0,1.25.06,1.46h-1.65c0-.21.07-.84.07-1.46V84.87H445c-.7,0-1.32,0-1.56,0V83.31a12,12,0,0,0,1.56.11h1.47V81.69c0-.52-.06-1-.07-1.2h1.68a8.22,8.22,0,0,0-.09,1.2v1.73h4V81.68a10.18,10.18,0,0,0-.08-1.31h1.7a10,10,0,0,0-.09,1.31v1.74Z"/><path class="cls-3" d="M466.85,91a10.66,10.66,0,0,0,.11,1.77H465.1c0-.33.09-1.16.09-1.77V85.61a28.55,28.55,0,0,1-5.43,2.2l-.86-1.45a23.88,23.88,0,0,0,6.77-2.73,16.59,16.59,0,0,0,3.91-3.36l1.28,1.15a25,25,0,0,1-4,3.23Z"/><path class="cls-3" d="M477.62,82l1.71.35c-.1.37-.24.94-.31,1.27a33.12,33.12,0,0,1-1.32,4.62,21.67,21.67,0,0,1-2.21,4.19l-1.63-.69a19.82,19.82,0,0,0,2.32-4.11A22.08,22.08,0,0,0,477.62,82Zm3.78.33,1.55-.51c.6,1.13,1.6,3.3,2.2,4.82s1.37,3.78,1.77,5.19l-1.71.55a50.67,50.67,0,0,0-1.63-5.22A42,42,0,0,0,481.4,82.29Zm4.46.12-1,.42a17.33,17.33,0,0,0-1.2-2.07l1-.4A21.09,21.09,0,0,1,485.86,82.41Zm1.72-.66-1,.44a16.37,16.37,0,0,0-1.23-2.07l1-.41A21.67,21.67,0,0,1,487.58,81.75Z"/><path class="cls-3" d="M489.85,85.47c.48,0,1.41.09,2.22.09h8.14c.74,0,1.32-.06,1.68-.09v1.85c-.33,0-1-.06-1.66-.06h-8.16c-.84,0-1.73,0-2.22.06Z"/><path class="cls-3" d="M516,84.92a9.58,9.58,0,0,0,1.26-.08v1.55c-.35,0-.87,0-1.26,0h-3.86a9.21,9.21,0,0,1-.93,4,7.34,7.34,0,0,1-3,2.8l-1.39-1a6.23,6.23,0,0,0,2.77-2.23,6.76,6.76,0,0,0,.9-3.54h-4.33c-.45,0-1,0-1.37,0V84.84a12.16,12.16,0,0,0,1.37.08Zm-7.94-2.39c-.51,0-1.06,0-1.47.06V81.05a11.56,11.56,0,0,0,1.46.09h5.07a12.71,12.71,0,0,0,1.5-.09v1.54c-.48,0-1-.06-1.5-.06Zm7.61-.15a17.25,17.25,0,0,0-1.19-2.07l1-.4a21.28,21.28,0,0,1,1.22,2Zm1.47-3.1a16.35,16.35,0,0,1,1.24,2l-1,.42a14.56,14.56,0,0,0-1.23-2.06Z"/><path class="cls-3" d="M530.93,84.06a18.6,18.6,0,0,1-3.39,2.72V92a9.42,9.42,0,0,0,.08,1.44h-1.74c0-.25.07-1,.07-1.44V87.69a24.79,24.79,0,0,1-4.51,1.79l-.8-1.38a19.63,19.63,0,0,0,5.25-2A15.13,15.13,0,0,0,529.75,83Z"/><path class="cls-3" d="M546.5,82.07a5,5,0,0,0-.43.78,20.73,20.73,0,0,1-2.46,4.27,40.34,40.34,0,0,1,4.29,4.4l-1.34,1.17a31.79,31.79,0,0,0-4-4.38,19.1,19.1,0,0,1-5.77,4.3l-1.22-1.26A17,17,0,0,0,541.78,87a12.32,12.32,0,0,0,2.38-4h-5.5c-.59,0-1.4.07-1.64.09v-1.7a14.63,14.63,0,0,0,1.64.11h5.56a4.59,4.59,0,0,0,1.31-.15Z"/><path class="cls-3" d="M562.51,83.42a6,6,0,0,0-.09.76c0,1.52-.24,5.81-.9,7.28a1.68,1.68,0,0,1-1.74,1c-.81,0-1.7-.06-2.45-.11l-.18-1.57a18.23,18.23,0,0,0,2.18.18.79.79,0,0,0,.85-.51c.51-1,.71-4.44.71-6.06h-3.84c-.56,4.17-2,6.46-4.62,8.28l-1.38-1.13a7.7,7.7,0,0,0,1.72-1.26,9.31,9.31,0,0,0,2.75-5.89h-2.28c-.56,0-1.26,0-1.83.06V82.91c.57,0,1.24.09,1.83.09h2.41c0-.45.05-.93.05-1.43a9.5,9.5,0,0,0-.11-1.3h1.76c0,.34-.06.9-.08,1.26,0,.51,0,1-.07,1.47h3.24a7.45,7.45,0,0,0,1-.09Z"/><path class="cls-3" d="M570.16,87.59l-1.43.52a30.46,30.46,0,0,0-1.36-3.42l1.41-.51C569.12,84.87,569.87,86.78,570.16,87.59Zm7.59-3.23a8.11,8.11,0,0,0-.29.9,12,12,0,0,1-2.1,4.52,11.77,11.77,0,0,1-4.93,3.63l-1.25-1.28A10.2,10.2,0,0,0,574.1,89a10.37,10.37,0,0,0,2-5.13Zm-4.28,2.3-1.41.51a26.31,26.31,0,0,0-1.2-3.3l1.41-.47C572.54,84,573.28,86,573.47,86.66Z"/><path class="cls-3" d="M585.82,85.94,585,87.27a38.38,38.38,0,0,0-3.35-2.1l.86-1.29C583.4,84.39,585.11,85.44,585.82,85.94Zm1.51,3.52a15.39,15.39,0,0,0,5.75-5.56l.9,1.59a17.7,17.7,0,0,1-5.85,5.37,18,18,0,0,1-5,1.86l-.89-1.55A16.25,16.25,0,0,0,587.33,89.46Zm.74-6.84-.89,1.29c-.76-.55-2.37-1.62-3.3-2.14l.86-1.29C585.67,81,587.36,82.11,588.07,82.62Z"/><path class="cls-3" d="M605.71,93.12c0-.13,0-.37,0-.6h-5.88c-.45,0-1,0-1.26,0V91.08a12.24,12.24,0,0,0,1.26.06h5.88V88.77h-5.13c-.55,0-1.15,0-1.48,0V87.38c.34,0,.93,0,1.47,0h5.14v-2.2h-5.29c-.47,0-1.37,0-1.67.06V83.82c.33.05,1.2.06,1.67.06h6.76c0,.18,0,.57,0,.87v7.48c0,.24,0,.66,0,.9Z"/><path class="cls-3" d="M618.62,88.92a14.25,14.25,0,0,0,5.21-5.65l.91,1.63a15.4,15.4,0,0,1-5.26,5.43,16.57,16.57,0,0,1-5.75,2.24l-1-1.55A15.42,15.42,0,0,0,618.62,88.92Zm-.51-4.8-1.18,1.22a33,33,0,0,0-3.75-3.18L614.27,81A29.57,29.57,0,0,1,618.11,84.12Z"/></g></svg>