<svg id="レイヤー_1" data-name="レイヤー 1" xmlns="http://www.w3.org/2000/svg" viewBox="0 0 492.93 174.41"><defs><style>.cls-1{fill:#da2128;}</style></defs><title>logo</title><path class="cls-1" d="M113.1,442a17.85,17.85,0,0,0,12.16-17.2c0-11.68-8.82-18.66-23.61-18.66H66a2.38,2.38,0,0,0-2.38,2.39v7.06h9.21v57.71H67a2.39,2.39,0,0,0-2.38,2.38v7.07h39c16.59,0,26.1-8,26.1-21.93,0-9.93-6.16-16.8-16.63-18.82M90.63,415.64h8.64c6,0,13.2,1.93,13.2,11.12,0,8.12-4.57,12.41-13.2,12.41H90.63Zm11.81,57.57H90.63v-24h9.73c10.27,0,15.48,4,15.48,11.81,0,8.21-4.38,12.21-13.4,12.21" transform="translate(-43.85 -322.92)"/><path class="cls-1" d="M211.45,442a17.83,17.83,0,0,0,12.16-17.2c0-11.68-8.82-18.66-23.61-18.66H164.35a2.38,2.38,0,0,0-2.38,2.39v7.06h9.21v57.71h-5.84a2.39,2.39,0,0,0-2.38,2.38v7.07h39c16.58,0,26.09-8,26.09-21.93,0-9.93-6.16-16.8-16.63-18.82M189,415.64h8.64c6,0,13.2,1.93,13.2,11.12,0,8.12-4.56,12.41-13.2,12.41H189Zm11.81,57.57H189v-24h9.73c10.28,0,15.49,4,15.49,11.81,0,8.21-4.39,12.21-13.41,12.21" transform="translate(-43.85 -322.92)"/><path class="cls-1" d="M257.34,408.51v20.73h9.44v-13.8h16.61v58.83h-6.6a2.39,2.39,0,0,0-2.38,2.38v6.08h34.73v-8.46h-9V415.44h17.1v13.8h9.44V406.13h-67a2.38,2.38,0,0,0-2.38,2.38" transform="translate(-43.85 -322.92)"/><polyline class="cls-1" points="398.15 0 398.15 83.2 312.2 83.2 312.2 168.35 0 168.35 0 174.41 315.6 174.41 492.93 0"/><path class="cls-1" d="M66.07,338.74h5.46v29.88H63.62V341.37a2.55,2.55,0,0,1,2.45-2.63m30.43-.22v22.63c-.21,12.91-2.17,17.21-10,21.74-4.11,2.2-9.13,3.33-16.62,3.73l-3.38-8.15c7.49-.34,11.24-1,14.78-2.38,6.07-2.71,7.28-5.49,7.39-16.63V341.15a2.54,2.54,0,0,1,2.45-2.63Z" transform="translate(-43.85 -322.92)"/><path class="cls-1" d="M107.05,355.78v-5a2.55,2.55,0,0,1,2.45-2.63h12.43L122,341a2.55,2.55,0,0,1,2.45-2.6h5.23c-.05,4.75-.11,6.9-.26,9.79h18.2c-.58,14.88-1.32,25.63-2.11,29.71-1.26,6.34-3.27,7.87-10.76,7.87-1.27,0-2.59-.06-5.81-.18l-2.53-8,.79.06,1.79.11c1.75.11,3.33.17,4.7.17,3.17,0,4.38-.85,4.75-3.4a177.73,177.73,0,0,0,1.27-18.67h-11c-1.8,14.15-6.71,22.86-17.79,31.41l-5.38-6.85a4,4,0,0,0,.58-.4c.47-.28.9-.56,1.37-.9,8.34-5.89,12.25-12.51,13.78-23.26" transform="translate(-43.85 -322.92)"/><path class="cls-1" d="M161.41,340.21h5.47v35.66c11.82-2.78,20-10.53,25.38-24.05l6.6,6.11c-4.43,9.9-10.5,17.49-16.57,20.71A43.85,43.85,0,0,1,159,385.15V342.84a2.55,2.55,0,0,1,2.45-2.63" transform="translate(-43.85 -322.92)"/><path class="cls-1" d="M209.7,340.67c7.18,3.79,10.72,6.11,15.94,10.64l-5.91,6.62a61.86,61.86,0,0,0-15.57-11m42.64,5.77c-6.75,22-16.57,30.45-38.52,33.22L205.06,378c20.16-1.47,29.66-9.85,34.83-30.9Z" transform="translate(-43.85 -322.92)"/><path class="cls-1" d="M258.59,338.74H264v15.18a106.32,106.32,0,0,1,25.33,11.43l-4.49,7.42A103.87,103.87,0,0,0,264,362v24.38h-7.87v-45a2.55,2.55,0,0,1,2.45-2.63" transform="translate(-43.85 -322.92)"/><path class="cls-1" d="M295,356.36V352a1.32,1.32,0,0,1,1.27-1.36h7.1v-3.94h-7.1v-4.11a1.33,1.33,0,0,1,1.28-1.37h5.82v-3a1.32,1.32,0,0,1,1.28-1.37h4.64v4.38h7.2l1.43-2.95,5.31,2.79a78.87,78.87,0,0,1-5.46,9.58h3.78v5.69h-8c-1.43,1.54-1.63,1.76-3,3.12h7.81v3.34l-6.74,4.77v2.24c3-.33,4.6-.66,9.8-1.7v6c-3.52.66-4.34.77-9.8,1.59v7.23c0,2.46-1,3.17-4.59,3.17H305.8l-3.06,0h-1.17l-1.79-6.24c1.33.1,2.91.16,3.67.16,1.64,0,2.1-.44,2.1-2V376.4c-1.84.22-2.35.33-3,.38-3.72.5-3.88.5-6.12.66L295,373.12a1.37,1.37,0,0,1,1.12-1.82c4.08-.29,5.59-.42,9.45-.81v-3.61l3.06-2.09h-4.34c-2.55,1.7-4,2.58-6.89,4.16l-3.63-5.25a55,55,0,0,0,11.8-7.34m5.1-5.69a25.15,25.15,0,0,0,2.76-3.94h-4.14v3.94Zm6.13,30.82c5.16-3.17,8.68-6.29,11.28-10a40.19,40.19,0,0,1-2.45-7.77c-.81,2.19-1,2.57-2,4.87l-4-6.29c2.15-4.15,4.26-13.73,5.24-24.06a1.29,1.29,0,0,1,1.37-1.23l5.23.49c-.51,3.72-.66,4.87-1.17,7.55h10.77v7h-2c-1.12,10-1.84,13.25-4.24,19.76a45.6,45.6,0,0,0,7.56,8.1l-4.54,6.69a52.12,52.12,0,0,1-6.59-9c-2.25,3.17-5.46,6.13-10.47,9.58Zm12-29.45a58,58,0,0,0,2.4,12.7,58.94,58.94,0,0,0,2-12.7Z" transform="translate(-43.85 -322.92)"/><path class="cls-1" d="M347.51,341.2H365.8v-2.63a1.32,1.32,0,0,1,1.27-1.37h5.77v4h19.51V347h-9.14a44.46,44.46,0,0,1,8.52,9l-4.9,5.21-.66-1.32v21.85c0,2.19-.41,3.23-1.58,3.88-1.33.66-3.32,1-6.59,1l-4.09-.06-2.14-6.4,1.94.05c1.22.06,1.94.06,2.2.06,3.62,0,3.62,0,3.62-1.15v-1.86H358.34v9.3h-6.63V359.86A1.31,1.31,0,0,1,353,358.5H385.2c-.77-1-1.64-2.14-2.56-3.23l-3.87.22c-16.14,1.09-21.5,1.37-29.31,1.69l-1.58-3.89a1.36,1.36,0,0,1,1.17-1.91h6.43a25.94,25.94,0,0,0,2.71-4.38H346.24v-4.44a1.32,1.32,0,0,1,1.27-1.36m10.83,22v2.62h21.19v-2.62Zm0,6.79v2.9h21.19V370Zm7.46-23a50.7,50.7,0,0,1-2.71,4.38c7.71-.22,11.33-.33,15-.55a24,24,0,0,0-2.6-2.24l2.6-1.59Z" transform="translate(-43.85 -322.92)"/><path class="cls-1" d="M411.72,380.91c8.42-1,11.38-3.57,11.38-10.1,0-3.8-1.17-6.67-3.5-8.65A9.26,9.26,0,0,0,415,360.1a163.4,163.4,0,0,1-4,16.77c-2,6.25-3.62,8.19-6.76,8.19-5.28,0-9.75-5.86-9.75-12.77A17.28,17.28,0,0,1,399,360.72a17.62,17.62,0,0,1,13.55-5.67c9.79,0,16.15,6.33,16.15,16.08,0,5.28-1.86,9.28-5.47,11.8-2.25,1.51-4.74,2.41-8.93,3.15m-12-21.52a11.88,11.88,0,0,0-2.45,7.46,9.74,9.74,0,0,0,2,6.25,2.59,2.59,0,0,0,1.67,1.13c1.09,0,1.52-.94,3.15-6.91,1.24-4.63,2-7.93,2.75-12.36-3.57,1-5.39,2.14-7.14,4.43" transform="translate(-43.85 -322.92)"/></svg>