<?xml version="1.0" encoding="utf-8"?>
<!-- Generator: Adobe Illustrator 24.0.2, SVG Export Plug-In . SVG Version: 6.00 Build 0)  -->
<svg version="1.1" id="レイヤー_1" xmlns="http://www.w3.org/2000/svg" xmlns:xlink="http://www.w3.org/1999/xlink" x="0px"
	 y="0px" viewBox="0 0 604.8 122.6" style="enable-background:new 0 0 604.8 122.6;" xml:space="preserve">
<style type="text/css">
	.st0{fill:#D82526;}
	.st1{clip-path:url(#SVGID_2_);}
</style>
<g>
	<path class="st0" d="M355.8,80.6c5-1.8,6.9-6.1,6.9-9.7c0-6.6-5-10.5-13.3-10.5h-20.1c-0.7,0-1.3,0.6-1.3,1.3v4h5.2v32.6h-3.3
		c-0.7,0-1.3,0.6-1.3,1.3v4h22c9.4,0,14.7-4.5,14.7-12.4C365.2,85.7,361.7,81.8,355.8,80.6z M343.1,65.8h4.9c3.4,0,7.5,1.1,7.5,6.3
		c0,4.6-2.6,7-7.5,7h-4.9V65.8z M349.8,98.3h-6.7V84.7h5.5c5.8,0,8.7,2.2,8.7,6.7C357.3,96,354.9,98.3,349.8,98.3z"/>
	<path class="st0" d="M411.3,80.6c5-1.8,6.9-6.1,6.9-9.7c0-6.6-5-10.5-13.3-10.5h-20.1c-0.7,0-1.3,0.6-1.3,1.3v4h5.2v32.6h-3.3
		c-0.7,0-1.3,0.6-1.3,1.3v4h22c9.4,0,14.7-4.5,14.7-12.4C420.7,85.7,417.3,81.8,411.3,80.6z M398.6,65.8h4.9c3.4,0,7.5,1.1,7.5,6.3
		c0,4.6-2.6,7-7.5,7h-4.9V65.8z M405.3,98.3h-6.7V84.7h5.5c5.8,0,8.7,2.2,8.7,6.7C412.9,96,410.4,98.3,405.3,98.3z"/>
	<path class="st0" d="M437.3,61.7v11.7h5.3v-7.8h9.4v33.2h-3.7c-0.7,0-1.3,0.6-1.3,1.3v3.4h19.6v-4.8h-5.1V65.7h9.7v7.8h5.3V60.4
		h-37.8C437.9,60.4,437.3,61,437.3,61.7z"/>
</g>
<g>
	<g>
		<path class="st0" d="M2.1,62.3h4.7v25.6H0V64.5C0,63.3,0.9,62.3,2.1,62.3z M28.2,62.1v19.4c-0.2,11.1-1.9,14.8-8.6,18.6
			c-3.5,1.9-7.8,2.9-14.3,3.2l-2.9-7c6.4-0.3,9.6-0.8,12.7-2c5.2-2.3,6.2-4.7,6.3-14.3V64.3c0-1.2,0.9-2.3,2.1-2.3H28.2z"/>
		<path class="st0" d="M37.2,76.9v-4.3c0-1.2,0.9-2.3,2.1-2.3H50l0.1-6.2c0-1.2,1-2.2,2.1-2.2h4.5c0,4.1-0.1,5.9-0.2,8.4H72
			c-0.5,12.8-1.1,22-1.8,25.5c-1.1,5.4-2.8,6.7-9.2,6.7c-1.1,0-2.2,0-5-0.1l-2.2-6.9l0.7,0c0.1,0,0.7,0,1.5,0.1
			c1.5,0.1,2.9,0.1,4,0.1c2.7,0,3.8-0.7,4.1-2.9c0.6-4.5,0.9-8.7,1.1-16h-9.5C54.3,89,50,96.5,40.5,103.8l-4.6-5.9
			c0.2-0.1,0.3-0.2,0.5-0.3c0.4-0.2,0.8-0.5,1.2-0.8c7.1-5,10.5-10.7,11.8-19.9H37.2z"/>
		<path class="st0" d="M83.9,63.5h4.7v30.6c10.1-2.4,17.1-9,21.8-20.6l5.7,5.2c-3.8,8.5-9,15-14.2,17.8c-5.9,3.7-13.3,5.7-20,5.6
			V65.8C81.8,64.5,82.7,63.5,83.9,63.5z"/>
		<path class="st0" d="M125.3,63.9c6.2,3.3,9.2,5.2,13.7,9.1l-5.1,5.7c-4.7-4.4-8.1-6.7-13.3-9.4L125.3,63.9z M157.1,74.3
			c-5.8,18.8-14.2,26.1-33,28.5l-2.8-6.8c17.3-1.3,25.4-8.4,29.9-26.5L157.1,74.3z"/>
		<path class="st0" d="M167.2,62.3h4.6v13c8.6,2.7,16,6.1,21.7,9.8l-3.8,6.4c-5.7-3.8-12-7.1-17.9-9.3v20.9h-6.7V64.5
			C165.1,63.3,166,62.3,167.2,62.3z"/>
	</g>
	<path class="st0" d="M198.4,77.4v-3.7c0-0.6,0.5-1.2,1.1-1.2h6.1v-3.4h-6.1v-3.5c0-0.6,0.5-1.2,1.1-1.2h5v-2.6
		c0-0.6,0.5-1.2,1.1-1.2h4v3.8h6.2l1.2-2.5l4.6,2.4c-1.5,3.1-2.1,4-4.7,8.2h3.2v4.9h-6.9c-1.2,1.3-1.4,1.5-2.6,2.7h6.7v2.9l-5.8,4.1
		v1.9c2.5-0.3,3.9-0.6,8.4-1.5v5.1c-3,0.6-3.7,0.7-8.4,1.4v6.2c0,2.1-0.9,2.7-3.9,2.7h-1l-2.6,0h-1l-1.5-5.4
		c1.1,0.1,2.5,0.1,3.2,0.1c1.4,0,1.8-0.4,1.8-1.7v-1.4c-1.6,0.2-2,0.3-2.6,0.3c-3.2,0.4-3.3,0.4-5.3,0.6l-1.2-3.7
		c-0.2-0.7,0.2-1.5,1-1.6c3.5-0.3,4.8-0.4,8.1-0.7v-3.1l2.6-1.8h-3.7c-2.2,1.5-3.5,2.2-5.9,3.6l-3.1-4.5c4.6-2.3,7-3.8,10.1-6.3
		H198.4z M211.8,72.5c0.8-0.9,1.1-1.4,2.4-3.4h-3.5v3.4H211.8z M217.1,98.9c4.4-2.7,7.4-5.4,9.7-8.6c-1-2.4-1.4-3.6-2.1-6.7
		c-0.7,1.9-0.8,2.2-1.7,4.2l-3.4-5.4c1.8-3.6,3.7-11.8,4.5-20.6c0.1-0.6,0.6-1.1,1.2-1.1l4.5,0.4c-0.4,3.2-0.6,4.2-1,6.5h9.2v6h-1.7
		c-1,8.5-1.6,11.4-3.6,16.9c1.5,2.2,3.8,4.6,6.5,6.9l-3.9,5.7c-2.5-2.8-4-4.8-5.6-7.7c-1.9,2.7-4.7,5.3-9,8.2L217.1,98.9z
		 M227.3,73.7c0,2.5,0.9,7,2.1,10.9c1.1-3.9,1.5-7,1.8-10.9H227.3z"/>
	<path class="st0" d="M243.4,64.4h15.7v-2.3c0-0.6,0.5-1.2,1.1-1.2h4.9v3.4h16.7v5H274c2.8,2.3,5.3,4.9,7.3,7.7l-4.2,4.5l-0.6-1.1
		v18.7c0,1.9-0.4,2.8-1.4,3.3c-1.1,0.6-2.8,0.8-5.6,0.8c-0.4,0-0.5,0-3.5,0l-1.8-5.5l1.7,0c1.1,0,1.7,0,1.9,0c3.1,0,3.1,0,3.1-1
		v-1.6h-18.2v8H247V80.4c0-0.6,0.5-1.2,1.1-1.2h27.6c-0.7-0.9-1.4-1.8-2.2-2.8l-3.3,0.2c-13.8,0.9-18.4,1.2-25.1,1.5l-1.4-3.3
		c-0.3-0.8,0.2-1.6,1-1.6h2h3.5c1.1-1.4,1.4-2,2.3-3.8h-10.2v-3.8C242.3,64.9,242.8,64.4,243.4,64.4z M270.9,85.5v-2.3h-18.2v2.3
		H270.9z M270.9,91.6v-2.5h-18.2v2.5H270.9z M259.1,69.4c-0.9,1.6-1.3,2.3-2.3,3.8c6.6-0.2,9.7-0.3,12.9-0.5c-0.9-0.9-1.1-1-2.2-1.9
		l2.2-1.4H259.1z"/>
	<path class="st0" d="M300.5,98.4c7.2-0.8,9.8-3.1,9.8-8.7c0-3.3-1-5.7-3-7.4c-1.1-0.9-1.9-1.3-3.9-1.8c-1.4,6.9-2.3,11-3.4,14.4
		c-1.7,5.4-3.1,7-5.8,7c-4.5,0-8.4-5-8.4-11c0-3.7,1.4-7.3,3.8-9.9c3-3.2,6.9-4.9,11.6-4.9c8.4,0,13.9,5.4,13.9,13.8
		c0,4.5-1.6,8-4.7,10.1c-1.9,1.3-4.1,2.1-7.7,2.7L300.5,98.4z M292.4,84.4c-1.4,1.8-2.1,4-2.1,6.4c0,2.1,0.6,4,1.7,5.4
		c0.5,0.6,1,1,1.4,1c0.9,0,1.3-0.8,2.7-5.9c1.1-4,1.7-6.8,2.4-10.6C295.5,81.5,293.9,82.5,292.4,84.4z"/>
</g>
<g>
	<path d="M4.1,32.7c2.3-0.8,4.3-1.5,6.4-2.6c1.4-0.7,2.1-1.1,2.8-1.9c0.9,0.8,1.8,1.8,2.2,2.4c0.3,0.4,0.3,0.8-0.2,1
		c-0.7,0.2-1.5,0.6-2.2,0.9c-2.6,1.2-5.6,2.2-9.1,3.3v3.5c0,1.2,0.2,1.7,0.9,1.9c0.7,0.2,1.7,0.3,3.3,0.3c2.5,0,4.7-0.2,7.4-0.6
		c0.4-0.1,0.4,0.1,0.5,0.4c0.1,0.7,0.2,1.7,0.2,2.3c0,0.3-0.2,0.4-0.6,0.5c-3,0.4-4.5,0.5-7.8,0.5c-2.3,0-3.9-0.2-5-0.7
		c-1.3-0.6-1.9-1.8-1.9-4v-9.7c0-2.5-0.1-3.5-0.3-4.8c1.2,0.1,2.5,0.3,3.3,0.5c0.6,0.1,0.5,0.6,0.2,1C4.2,27,4.1,27.7,4.1,29V32.7z
		 M15.1,25c0.1-0.1,0.2-0.1,0.4,0.1c0.8,0.6,1.8,1.7,2.5,2.8c0.1,0.2,0.1,0.3-0.1,0.4l-1.1,0.8c-0.2,0.1-0.3,0.1-0.4-0.1
		c-0.8-1.2-1.6-2.2-2.7-3.1L15.1,25z M17.5,23.3c0.2-0.1,0.2-0.1,0.4,0.1c1,0.7,1.9,1.8,2.5,2.7c0.1,0.2,0.1,0.3-0.1,0.5l-1.1,0.8
		c-0.2,0.2-0.3,0.1-0.4-0.1c-0.7-1.1-1.6-2.1-2.6-3L17.5,23.3z"/>
	<path d="M23.7,31.2c0.1-0.2,0.3-0.3,0.5-0.3c2,0.7,3.6,1.5,5.1,2.6c0.3,0.2,0.3,0.4,0.2,0.7c-0.3,0.7-0.7,1.4-1.2,2
		c-0.2,0.3-0.4,0.3-0.7,0.1c-1.7-1.2-3.4-2.1-5.3-2.9C22.9,32.4,23.3,31.6,23.7,31.2z M27.9,41c2.5-1.3,4.7-2.6,7.2-4.6
		c2.1-1.6,4.9-4.1,7.6-7.4c0.2,1.2,0.4,1.8,0.8,3c0.2,0.4,0.2,0.8-0.2,1.1c-2.5,2.6-4.1,4.1-6.7,6.1c-2.3,1.7-4.8,3.2-7.9,5
		c-0.6,0.3-1.3,0.6-1.5,0.9c-0.3,0.3-0.7,0.3-1-0.1c-0.6-0.6-1.3-1.6-2-2.7C25.5,42.1,26.4,41.8,27.9,41z M26.9,25.1
		c0.2-0.3,0.3-0.4,0.7-0.2c1.7,0.7,3.5,1.7,5,2.9c0.3,0.2,0.3,0.4,0.1,0.7c-0.4,0.7-0.9,1.5-1.3,2c-0.2,0.3-0.4,0.2-0.7,0
		c-1.4-1.1-3.4-2.5-5.1-3.2C25.9,26.6,26.4,25.8,26.9,25.1z M38.9,24.3c0.1-0.1,0.2-0.1,0.4,0.1c0.8,0.6,1.8,1.7,2.5,2.8
		c0.1,0.2,0.1,0.3-0.1,0.4l-1.1,0.8c-0.2,0.1-0.3,0.1-0.4-0.1c-0.8-1.2-1.6-2.2-2.7-3.1L38.9,24.3z M41.3,22.6
		c0.2-0.1,0.2-0.1,0.4,0.1c1,0.7,1.9,1.8,2.5,2.7c0.1,0.2,0.1,0.3-0.1,0.5l-1.1,0.8c-0.2,0.2-0.3,0.1-0.4-0.1
		c-0.7-1.1-1.6-2.1-2.6-3L41.3,22.6z"/>
	<path d="M58.7,41.2c0,2.3,0.1,4.1,0.1,4.8c0,0.2-0.2,0.3-0.5,0.3c-0.7,0.1-1.6,0.1-2.3,0c-0.3,0-0.5-0.1-0.5-0.4
		c0-0.7,0.1-2.5,0.1-4.7v-3.4c-2.3,1.7-4.3,3-7.3,4.4c-0.4,0.2-0.6,0.2-1-0.2c-0.6-0.7-1.2-1.2-2.1-1.6c3.6-1.7,6.1-3.1,8.5-4.8
		c2.2-1.6,3.7-2.9,5.1-4.3l-6.1,0.1c-1.4,0.1-2.4,0.1-3.5,0.2c-0.3,0-0.4-0.2-0.4-0.5c-0.1-0.6-0.2-1.6-0.3-2.6
		c1.1,0.1,2.2,0.2,3.7,0.2l7.7-0.1c1,0,1.5-0.1,1.9-0.3c0.3-0.2,0.6-0.2,0.8,0.1c0.4,0.3,1,1.2,1.3,1.6c0.3,0.4,0.2,0.7-0.2,0.9
		c-0.3,0.1-0.6,0.3-0.8,0.6c-1.3,1.4-2.7,2.7-4.2,3.9V41.2z M54.4,23.1c0.2-0.2,0.3-0.3,0.6-0.2c1.9,0.6,4.3,1.6,5.6,2.3
		c0.3,0.2,0.4,0.3,0.2,0.6c-0.3,0.6-0.6,1.2-1.1,2C59.5,28,59.3,28,59,27.9c-1.3-0.8-3.6-1.9-5.9-2.6C53.7,24.4,54.1,23.5,54.4,23.1
		z M61.5,35.1c0.2-0.2,0.3-0.2,0.5-0.1c1.8,0.7,3.9,1.9,5.8,3.2c0.2,0.2,0.3,0.3,0.1,0.6c-0.4,0.7-0.8,1.3-1.3,1.9
		c-0.2,0.3-0.4,0.3-0.7,0c-1.7-1.3-3.4-2.4-5.9-3.6C60.6,36.2,61.2,35.5,61.5,35.1z"/>
	<path d="M84.9,26.3c1,0,1.4,0,1.8-0.2c0.3-0.2,0.5-0.1,0.7,0.1c0.6,0.5,1.2,1.2,1.7,1.8c0.2,0.3,0.2,0.6-0.2,0.9
		c-0.3,0.3-0.7,0.7-1,1.2c-1.1,1.8-2.1,3.3-3.4,4.9c2.5,1.9,4.9,3.9,7.3,6.4c0.3,0.3,0.3,0.4,0,0.8c-0.5,0.6-1.1,1.2-1.8,1.8
		c-0.2,0.2-0.4,0.2-0.7-0.1c-2.2-2.6-4.5-4.7-6.9-6.5c-3,3.1-6,5.4-8.9,7c-0.4,0.2-0.7,0.3-1.1,0c-0.6-0.7-1.3-1.2-2.2-1.7
		c4.1-2.1,6.6-4,9.3-6.7c1.9-2,3.4-3.9,5-6.6l-6.8,0c-1.4,0-2.7,0.1-4.2,0.2c-0.2,0-0.3-0.2-0.3-0.4c-0.1-0.6-0.2-1.8-0.2-2.7
		c1.4,0.1,2.7,0.1,4.5,0.1H84.9z"/>
	<path d="M101.2,32.6c0.7-1.6,1.1-3,1.2-3.9c1.3,0.5,2.5,1,3.3,1.3c0.5,0.2,0.4,0.6,0.1,1c-0.3,0.3-0.5,0.7-0.9,1.6
		c-1.6,3.5-3.1,6.2-5.6,8.9c-0.4,0.4-0.9,0.6-1.3,0.1c-0.5-0.4-1.4-0.8-2.3-1.1C98.3,38,100.2,35,101.2,32.6z M111.1,29
		c0.3-0.2,0.5-0.2,0.8,0.1c2.9,2.9,5.1,6.3,6.6,9.7c0.2,0.3,0.2,0.6-0.2,0.8c-0.5,0.4-1.3,1-2.2,1.4c-0.3,0.2-0.5,0.1-0.6-0.2
		c-2-4.4-3.9-7.5-6.5-10.3C109.9,29.8,110.6,29.3,111.1,29z M120,27.2c0,1.6-1.3,2.8-2.9,2.8s-2.9-1.2-2.9-2.8
		c0-1.6,1.3-2.8,2.9-2.8S120,25.6,120,27.2z M115.6,27.2c0,0.9,0.7,1.6,1.6,1.6s1.6-0.7,1.6-1.6c0-0.9-0.7-1.6-1.6-1.6
		S115.6,26.3,115.6,27.2z"/>
	<path d="M127.1,36.5c-2.6,0-3.6,0.3-3.9,0.3c-0.3,0-0.5-0.2-0.6-0.6c-0.1-0.6-0.3-1.8-0.4-3.2c1.7,0.3,3,0.3,5.7,0.3h8.5
		c2,0,4-0.1,6.1-0.1c0.4,0,0.5,0.1,0.5,0.4c0.1,0.8,0.1,1.7,0,2.5c0,0.3-0.1,0.4-0.5,0.4c-2,0-3.9-0.1-5.9-0.1H127.1z"/>
	<path d="M147.6,26c0.3-0.2,0.4-0.2,0.7,0c1.5,1.1,3.1,2.9,4.2,4.6c0.2,0.3,0.2,0.4-0.1,0.7c-0.6,0.5-1.4,1.2-2,1.6
		c-0.2,0.2-0.4,0.1-0.6-0.2c-1-1.7-2.5-3.5-4.4-5.1C146.3,27,147.3,26.3,147.6,26z M164.4,26.9c0.5,0.3,0.3,0.7,0,1.1
		c-0.4,0.5-0.7,1.1-0.9,1.7c-1.6,4-3.4,7.1-4.9,9.1c-2,2.5-4.6,5-6.8,6.3c-0.4,0.3-0.7,0.3-1.1-0.1c-0.6-0.4-1.4-0.8-2.4-1.2
		c3.3-2.1,5.5-4.1,7.5-6.6c1.8-2.3,3.5-5.5,4.5-8.3c0.4-1.4,0.6-2.1,0.7-3.5C162.4,25.9,163.7,26.4,164.4,26.9z"/>
	<path d="M171.7,26.2c0.2-0.3,0.4-0.2,0.7-0.1c1.3,0.7,3.5,2.3,5,3.7c0.3,0.3,0.3,0.4,0.1,0.7c-0.4,0.5-1.3,1.6-1.6,2
		c-0.2,0.3-0.4,0.3-0.7,0c-1.6-1.6-3.5-3.1-5.4-4.3C170.5,27.5,171.2,26.7,171.7,26.2z M174,40.1c3.2-1.7,4.9-2.8,7.6-4.9
		c3.2-2.6,5-4.3,7.2-7.2c0.2,1.3,0.4,2.2,0.7,3.1c0.2,0.5,0.2,0.7-0.3,1.3c-1.4,1.6-3.7,3.7-6.1,5.6c-2.2,1.7-4.4,3.2-8,5.2
		c-1.2,0.7-1.5,1-1.8,1.2c-0.3,0.3-0.6,0.4-0.9,0c-0.7-0.7-1.5-1.8-2.1-2.9C171.8,41,172.6,40.8,174,40.1z"/>
	<path d="M198.7,25.5c0.4,0.2,0.6,0.4,0.6,0.6c0,0.2-0.1,0.3-0.4,0.8c-0.3,0.5-0.4,0.8-0.6,1.9c-0.7,3.3-1.1,6.5-1.1,8.5
		c0,1.3,0.1,2.2,0.2,3.1c0.6-1.2,1-2.1,1.8-3.9c0.2,0.7,0.6,1.1,0.9,1.7c0.1,0.1,0.2,0.3,0.2,0.4c0,0.2-0.1,0.3-0.1,0.4
		c-0.6,1.4-1.1,2.5-1.5,4c-0.1,0.2-0.1,0.4-0.1,0.8c0,0.3,0.1,0.5,0.1,0.7c0,0.2-0.1,0.3-0.3,0.3c-0.7,0.2-1.4,0.3-2.2,0.4
		c-0.2,0-0.3-0.1-0.3-0.3c-0.7-1.8-1.2-5.2-1.2-7.9c0-2.4,0.3-5.3,0.9-8.7c0.3-2,0.5-2.8,0.5-3.9C197,24.8,197.9,25.1,198.7,25.5z
		 M204.3,38c0.2,0,0.3,0.1,0.3,0.4c0.2,1.8,1.4,2.5,4.3,2.5c2,0,3.3-0.1,5-0.3c0.3,0,0.3,0,0.4,0.3c0.1,0.6,0.2,1.6,0.2,2.3
		c0,0.3,0,0.3-0.4,0.4c-1.8,0.2-3.1,0.3-4.3,0.3c-3.9,0-5.7-0.6-6.9-2.2c-0.7-0.8-0.9-2.2-0.9-3.4L204.3,38z M202.8,28.1
		c0-0.3,0.1-0.4,0.4-0.4c1.6-0.3,4.5-0.5,5.7-0.5c1.6,0,2.8,0.1,3.9,0.2c0.6,0,0.6,0.1,0.6,0.3c0,0.8,0,1.5-0.1,2.2
		c0,0.2-0.1,0.3-0.3,0.3c-1.6-0.1-3-0.2-4.3-0.2c-1.8,0-3.5,0.2-6,0.6C202.8,29.2,202.8,28.5,202.8,28.1z"/>
	<path d="M227.5,46.8c-0.3,0-0.3,0-0.3-0.3c0-0.2,0-1,0.1-2.6c-2.1,0.4-4.7,0.9-6.9,1.2c-0.4,0.1-0.8,0.2-1,0.3
		c-0.1,0.1-0.3,0.2-0.4,0.2c-0.2,0-0.3-0.2-0.4-0.4c-0.2-0.7-0.4-1.3-0.5-2.1c0.9,0,1.7-0.1,2.5-0.2c0.2,0,0.3,0,0.5-0.1v-8.3
		c-1.8,0-2.5,0.1-2.6,0.1c-0.3,0-0.3,0-0.3-0.3v-1.7c0-0.3,0-0.3,0.3-0.3c0.2,0,0.9,0.1,3.2,0.1h16.9c2.3,0,3.1-0.1,3.2-0.1
		c0.2,0,0.3,0,0.3,0.3v1.7c0,0.3,0,0.3-0.3,0.3c-0.2,0-0.9-0.1-3.2-0.1h-8.9v8.8c0,2,0.1,3,0.1,3.2c0,0.3,0,0.3-0.3,0.3H227.5z
		 M235,23.6c2.6,0,3.5-0.1,3.7-0.1c0.3,0,0.3,0,0.3,0.3c0,0.2-0.1,0.7-0.1,2.2v2.8c0,1.4,0.1,2,0.1,2.2c0,0.3,0,0.3-0.3,0.3
		c-0.2,0-1.1-0.1-3.7-0.1h-9.6c-2.6,0-3.5,0.1-3.7,0.1c-0.3,0-0.3,0-0.3-0.3c0-0.2,0.1-0.7,0.1-2.2V26c0-1.4-0.1-2-0.1-2.2
		c0-0.3,0-0.3,0.3-0.3c0.2,0,1.1,0.1,3.7,0.1H235z M227.3,35.9v-1.4h-3.7v1.4H227.3z M227.3,39v-1.4h-3.7V39H227.3z M227.3,40.7
		h-3.7v1.8c1.2-0.2,2.5-0.4,3.7-0.6V40.7z M224,26.6h12.2v-1.1H224V26.6z M236.3,28.2H224v1.1h12.2V28.2z M238.1,36.1
		c0.2,0,0.3-0.1,0.5-0.1c0.1-0.1,0.3-0.1,0.4-0.1c0.2,0,0.3,0.1,0.9,0.6c0.6,0.6,0.7,0.8,0.7,1c0,0.2-0.1,0.3-0.3,0.5
		c-0.2,0.1-0.4,0.4-0.7,1.1c-0.6,1.2-1.3,2.2-2.1,3.2c1.3,0.8,2.9,1.4,4.7,1.8c-0.3,0.4-0.7,1-0.9,1.7c-0.3,0.7-0.3,0.7-1,0.5
		c-1.8-0.6-3.2-1.3-4.5-2.3c-1.2,0.9-2.5,1.7-4,2.3c-0.3,0.1-0.4,0.2-0.5,0.2c-0.2,0-0.3-0.2-0.5-0.6c-0.3-0.6-0.6-1.1-1-1.5
		c1.7-0.5,3.1-1.2,4.3-2c-1-1.2-1.9-2.6-2.6-4.2c-0.4,0-0.6,0-0.7,0c-0.3,0-0.3,0-0.3-0.3v-1.5c0-0.3,0-0.3,0.3-0.3
		c0.2,0,0.8,0.1,2.9,0.1H238.1z M233.8,38.1c0.5,1.1,1.1,2,1.9,2.7c0.7-0.8,1.3-1.7,1.8-2.7H233.8z"/>
	<path d="M261.2,42.2c0,0.9,0,1.1,0.2,1.3c0.2,0.2,0.8,0.4,1.9,0.4c1.3,0,1.8-0.2,2.2-0.6c0.4-0.4,0.6-1.4,0.7-3.6
		c0.4,0.3,1.2,0.6,1.9,0.8c0.7,0.2,0.7,0.2,0.6,0.8c-0.1,2.2-0.6,3.2-1.3,4c-0.7,0.8-1.7,1.1-4.4,1.1c-2.4,0-3.5-0.3-4.1-0.8
		c-0.4-0.4-0.6-1-0.6-2.6v-7.3h-3.2c-0.1,2.8-0.7,4.9-1.9,6.6c-1.1,1.7-3,3.1-5.6,4.1c-0.3,0.1-0.5,0.2-0.6,0.2
		c-0.2,0-0.3-0.2-0.6-0.6c-0.4-0.7-0.9-1.2-1.4-1.7c3-0.8,4.6-1.8,5.8-3.3c0.9-1.2,1.5-2.8,1.5-5.3h-3.4c-2.4,0-3.2,0.1-3.3,0.1
		c-0.3,0-0.3,0-0.3-0.3v-2.1c0-0.2,0-0.3,0.3-0.3c0.2,0,1,0.1,3.3,0.1h6.5v-3.8h-5c-0.6,0.8-1.2,1.6-1.9,2.4
		c-0.3,0.3-0.4,0.4-0.6,0.4s-0.3-0.2-0.6-0.4c-0.4-0.4-1-0.8-1.6-1.1c1.9-1.8,3.1-3.7,3.9-5.5c0.4-0.8,0.5-1.4,0.6-2.1
		c1,0.2,1.8,0.5,2.5,0.8c0.2,0.1,0.4,0.2,0.4,0.4s-0.1,0.3-0.2,0.4c-0.2,0.2-0.3,0.4-0.5,0.8c-0.2,0.5-0.4,1.1-0.7,1.5h3.6v-1.5
		c0-1.5,0-2.1-0.2-2.9c1,0.1,1.9,0.1,2.8,0.2c0.2,0,0.4,0.1,0.4,0.3c0,0.2-0.1,0.3-0.2,0.5c-0.1,0.2-0.2,0.7-0.2,1.7v1.6h4.2
		c2.6,0,3.5-0.1,3.6-0.1c0.3,0,0.3,0,0.3,0.3v2c0,0.3,0,0.3-0.3,0.3c-0.2,0-1.1-0.1-3.6-0.1h-4.2v3.8h6.8c2.3,0,3.2-0.1,3.3-0.1
		c0.3,0,0.3,0,0.3,0.3v2.1c0,0.3,0,0.3-0.3,0.3c-0.2,0-1-0.1-3.3-0.1h-4V42.2z"/>
	<path d="M280.3,40.8c0,0.8,0,0.8-0.7,1.1c-1.5,0.6-3.5,1.3-5.3,1.8c-0.4,0.1-0.8,0.3-1,0.4c-0.1,0.1-0.3,0.2-0.4,0.2
		c-0.2,0-0.3-0.1-0.4-0.4c-0.3-0.6-0.5-1.7-0.7-2.6c1.1-0.1,1.8-0.2,2.7-0.4c0.4-0.1,0.9-0.2,1.4-0.3c0.7-3,1.1-5.5,1.4-7.8
		c0.1-0.7,0.1-1.4,0.1-2.1c0.9,0.1,1.8,0.4,2.3,0.6c0.3,0.1,0.4,0.2,0.4,0.3c0,0.2-0.1,0.3-0.2,0.5c-0.1,0.2-0.3,0.6-0.3,0.9
		c-0.5,2.7-0.9,4.5-1.5,6.9c0.7-0.2,1.5-0.4,2.2-0.7C280.3,39.6,280.3,40.3,280.3,40.8z M274.7,29.5c-1.8,0-2.4,0.1-2.6,0.1
		c-0.2,0-0.3,0-0.3-0.3v-2c0-0.3,0-0.3,0.3-0.3c0.2,0,0.7,0.1,2.6,0.1h0.4v-1.3c0-1.1,0-1.8-0.2-2.8c1,0,1.7,0.1,2.5,0.2
		c0.3,0,0.4,0.2,0.4,0.3c0,0.2-0.1,0.4-0.2,0.6c-0.2,0.3-0.1,0.7-0.1,1.8V27h0.1c1.8,0,2.3-0.1,2.5-0.1c0.3,0,0.3,0,0.3,0.3v2
		c0,0.3,0,0.3-0.3,0.3c-0.2,0-0.7-0.1-2.5-0.1H274.7z M274.2,31c0.3-0.1,0.4-0.1,0.4,0.2c0.6,2.1,0.9,4.6,1.1,7c0,0.3,0,0.3-0.4,0.4
		l-1.3,0.4c-0.4,0.1-0.4,0.1-0.5-0.2c-0.2-2.5-0.5-5-1.1-7.1c-0.1-0.3,0-0.3,0.3-0.4L274.2,31z M284.3,34.3c-2.5,0-3.4,0.1-3.6,0.1
		c-0.3,0-0.3,0-0.3-0.3v-1.8c0-0.3,0-0.3,0.3-0.3c0.2,0,1,0.1,3.6,0.1h7.8c2.5,0,3.4-0.1,3.5-0.1c0.3,0,0.3,0,0.3,0.3V34
		c0,0.3,0,0.3-0.3,0.3c-0.1,0-1-0.1-3.5-0.1H289c-0.2,0.6-0.5,1.3-0.7,1.8h3c2.4,0,3.3-0.1,3.4-0.1c0.3,0,0.3,0,0.3,0.3
		c0,0.2-0.1,1.1-0.1,2.9v2.1c0,1.2,0,2.3,0,3c0,0.8-0.2,1.3-0.6,1.7c-0.4,0.3-0.9,0.4-2,0.4c-0.8,0-0.8,0-0.9-0.5
		c-0.1-0.8-0.3-1.5-0.6-1.8c0.4,0.1,0.6,0.1,1.1,0.1c0.4,0,0.5-0.1,0.5-0.6v-5.4h-1.6V43c0,1.8,0.1,2.6,0.1,2.7c0,0.3,0,0.3-0.3,0.3
		h-1.7c-0.3,0-0.3,0-0.3-0.3c0-0.2,0.1-0.9,0.1-2.7v-4.7h-1.4V43c0,1.8,0.1,2.6,0.1,2.7c0,0.3,0,0.3-0.3,0.3h-1.7
		c-0.3,0-0.3,0-0.3-0.3c0-0.2,0.1-0.9,0.1-2.7v-4.7h-1.4v5.4c0,1.9,0.1,2.7,0.1,2.8c0,0.2,0,0.3-0.3,0.3h-1.9c-0.3,0-0.3,0-0.3-0.3
		c0-0.2,0.1-0.9,0.1-2.9V39c0-1.7-0.1-2.5-0.1-2.7c0-0.3,0-0.3,0.3-0.3c0.2,0,1,0.1,3.5,0.1h0.6c0.3-0.6,0.5-1.2,0.7-1.8H284.3z
		 M292.2,26c0-0.8,0-1.3-0.2-2.1c1,0,1.7,0.1,2.5,0.2c0.2,0,0.3,0.1,0.3,0.3s-0.1,0.3-0.1,0.4c-0.1,0.2-0.1,0.4-0.1,1.2v2
		c0,1.3,0.1,1.9,0.1,2.1c0,0.3,0,0.3-0.3,0.3c-0.2,0-1-0.1-3.4-0.1h-5.9c-2.4,0-3.2,0.1-3.4,0.1c-0.3,0-0.3,0-0.3-0.3
		c0-0.2,0.1-0.8,0.1-2.1v-2c0-0.8,0-1.3-0.2-2.1c1,0,1.6,0.1,2.4,0.2c0.3,0,0.4,0.1,0.4,0.2c0,0.2-0.1,0.3-0.2,0.5
		c-0.1,0.2-0.1,0.4-0.1,1.1v2.2h2.9v-3c0-1.2,0-1.8-0.2-2.5c1,0,1.7,0.1,2.6,0.2c0.2,0,0.4,0.1,0.4,0.2c0,0.2-0.1,0.3-0.2,0.5
		c-0.1,0.2-0.1,0.5-0.1,1.6v3h3V26z"/>
	<path d="M311.8,28.5c-0.6,4.5-1.7,8.6-3.3,11.4c-1.1,2-2.5,3-4.5,3c-2.3,0-4.7-2.5-4.7-6.8c0-2.5,1.1-5,3-6.9
		c2.2-2.2,5-3.4,8.6-3.4c6.3,0,10.1,3.9,10.1,9.2c0,4.9-2.8,8-8.1,9.6c-0.6,0.2-0.8,0.1-1.1-0.5c-0.3-0.4-0.8-1.1-1.8-1.7
		c4.5-1.1,8-2.9,8-7.9c0-3.1-2.4-6.1-5.9-6.1H311.8z M304.3,31c-1.3,1.4-2.1,3.2-2.1,4.9c0,2.4,1,3.8,1.8,3.8c0.7,0,1.3-0.3,2-1.6
		c1.2-2.1,2.3-5.9,2.8-9.5C306.9,29,305.5,29.8,304.3,31z"/>
	<path d="M342.3,22v1.5h-6.7V45H334V22H342.3z"/>
	<path d="M347.8,30.2c-1.7,0-2.2,0.1-2.3,0.1c-0.3,0-0.3,0-0.3-0.3v-1.9c0-0.3,0-0.3,0.3-0.3c0.2,0,0.7,0.1,2.3,0.1h0.5v-1.7
		c0-1.6,0-2.5-0.2-3.5c1,0,1.8,0.1,2.5,0.2c0.3,0.1,0.4,0.1,0.4,0.3c0,0.2-0.1,0.3-0.2,0.6c-0.1,0.3-0.2,0.7-0.2,2.5v1.7
		c1.3,0,1.7-0.1,1.9-0.1c0.3,0,0.3,0,0.3,0.3v1.9c0,0.3,0,0.3-0.3,0.3c-0.2,0-0.6,0-1.9-0.1c0.7,1.9,1.6,3.6,2.8,5.1
		c-0.3,0.4-0.7,1.1-1,1.7c-0.1,0.3-0.2,0.4-0.3,0.4c-0.1,0-0.2-0.1-0.3-0.4c-0.5-1-1-2-1.3-3.2c0,6.8,0.2,12.3,0.2,12.7
		c0,0.3,0,0.3-0.3,0.3h-2.1c-0.3,0-0.3,0-0.3-0.3c0-0.4,0.2-5.4,0.2-11.4c-0.5,2-1.3,3.8-2.2,5.4c-0.2,0.3-0.3,0.4-0.4,0.4
		c-0.1,0-0.2-0.1-0.3-0.4c-0.2-0.8-0.6-1.5-0.9-2c1.6-2.3,2.9-4.9,3.6-8.3H347.8z M369.1,42c0,0.3,0,0.3-0.3,0.3c-0.1,0-0.6,0-1.6,0
		c0,0.6,0,1.2,0,1.6c0,1.1-0.1,1.7-0.6,2.1c-0.5,0.4-1.1,0.6-3.2,0.6c-0.8,0-0.8,0-1-0.8c-0.1-0.6-0.3-1.1-0.6-1.5
		c0.7,0.1,1.4,0.1,2,0.1c0.7,0,0.8-0.2,0.8-0.7v-1.5h-8.4v1.3c0,1.9,0.1,2.8,0.1,2.9c0,0.3,0,0.3-0.3,0.3h-2c-0.3,0-0.3,0-0.3-0.3
		c0-0.2,0.1-1,0.1-2.9v-1.4c-1,0-1.4,0-1.5,0c-0.3,0-0.3,0-0.3-0.3v-1.4c0-0.3,0-0.3,0.3-0.3c0.1,0,0.5,0,1.5,0.1v-3
		c0-2-0.1-2.8-0.1-3c0-0.3,0-0.3,0.3-0.3c0.2,0,1,0.1,3.4,0.1h1.7v-1.3h-2.6c-2.6,0-3.5,0.1-3.6,0.1c-0.3,0-0.3,0-0.3-0.3v-1.4
		c0-0.3,0-0.3,0.3-0.3c0.1,0,1,0.1,3.6,0.1v-1.3c-1.7,0-2.3,0.1-2.4,0.1c-0.3,0-0.3,0-0.3-0.3v-1.3c0-0.3,0-0.3,0.3-0.3
		c0.1,0,0.8,0.1,2.4,0.1v-1.3c-2.1,0-2.9,0.1-3.1,0.1c-0.3,0-0.3,0-0.3-0.3V25c0-0.3,0-0.3,0.3-0.3c0.1,0,1,0.1,3.1,0.1
		c0-1,0-1.6-0.2-2.1c0.9,0.1,1.8,0.1,2.5,0.2c0.3,0,0.4,0.1,0.4,0.2c0,0.2-0.1,0.3-0.1,0.5c-0.1,0.2-0.2,0.6-0.2,1.3h3.1
		c0-1,0-1.6-0.2-2.1c0.9,0.1,1.7,0.1,2.4,0.2c0.3,0,0.4,0.1,0.4,0.2c0,0.2-0.1,0.3-0.2,0.5c-0.1,0.2-0.1,0.6-0.1,1.3h0.4
		c2.5,0,3.4-0.1,3.6-0.1c0.2,0,0.3,0,0.3,0.3v1.3c0,0.3,0,0.3-0.3,0.3c-0.2,0-1.1-0.1-3.6-0.1h-0.4v1.3c2.2,0,3.1-0.1,3.2-0.1
		c0.3,0,0.3,0,0.3,0.3v1.3c0,0.3,0,0.3-0.3,0.3c-0.2,0-1-0.1-3.2-0.1V31h0.9c2.6,0,3.4-0.1,3.6-0.1c0.3,0,0.3,0,0.3,0.3v1.4
		c0,0.3,0,0.3-0.3,0.3c-0.2,0-1-0.1-3.6-0.1h-3.7v1.3h2c2.4,0,3.2-0.1,3.4-0.1c0.3,0,0.3,0,0.3,0.3c0,0.2-0.1,1.2-0.1,3.2v2.7
		c1.1,0,1.6-0.1,1.7-0.1c0.3,0,0.3,0,0.3,0.3V42z M359.1,37.3v-1.3h-2.9v1.3H359.1z M359.1,40.3v-1.4h-2.9v1.4H359.1z M362,27.9
		v-1.3h-3.1v1.3H362z M362,31v-1.3h-3.1V31H362z M361.5,35.9v1.3h3.1v-1.3H361.5z M364.7,40.3v-1.4h-3.1v1.4H364.7z"/>
	<path d="M376.9,25c0-1.1,0-1.7-0.2-2.3c0.9,0,1.7,0.1,2.6,0.1c0.2,0,0.3,0.1,0.3,0.3c0,0.2-0.1,0.3-0.1,0.4
		c-0.1,0.2-0.1,0.5-0.1,1.5v1.2h0.3c2.1,0,2.8-0.1,2.9-0.1c0.3,0,0.3,0,0.3,0.3v1.9c0,0.3,0,0.3-0.3,0.3c-0.2,0-0.8-0.1-2.9-0.1
		h-0.1c1,1.5,2.3,3,3.6,3.8c-0.4,0.5-0.7,1-0.9,1.6c-0.2,0.4-0.3,0.6-0.4,0.6c-0.1,0-0.3-0.1-0.5-0.4c-0.8-0.8-1.6-1.8-2.2-2.9
		c0.1,3.3,0.1,5.7,0.1,6.2c0,0.3,0,0.3-0.3,0.3h-2c-0.3,0-0.3,0-0.3-0.3c0-0.5,0.1-2.6,0.1-5.7c-0.7,1.5-1.8,2.8-3.2,4
		c-0.2,0.2-0.4,0.3-0.5,0.3c-0.2,0-0.3-0.2-0.5-0.6c-0.3-0.6-0.7-1.2-1.1-1.6c2-1.4,3.6-3,4.9-5.4h-0.9c-2.1,0-2.8,0.1-3,0.1
		c-0.3,0-0.3,0-0.3-0.3v-1.9c0-0.3,0-0.3,0.3-0.3c0.2,0,0.8,0.1,3,0.1h1.3V25z M372.4,44.1c-0.3-0.2-0.3-0.3-0.2-0.5
		c1-1.4,1.7-2.9,2.2-4.7c0.1-0.3,0.1-0.3,0.5-0.1l1.7,0.6c0.3,0.1,0.4,0.2,0.3,0.5c-0.6,2.1-1.3,3.7-2.4,5.3
		c-0.1,0.1-0.1,0.2-0.2,0.2s-0.2,0-0.3-0.1L372.4,44.1z M381.3,42.6c0,0.5,0.1,0.9,0.4,1c0.4,0.2,1.2,0.3,2.5,0.3
		c1.6,0,2.6,0,3.1-0.4c0.4-0.3,0.6-1.2,0.7-2.4c0.5,0.3,1.2,0.6,2,0.8c0.7,0.1,0.7,0.2,0.6,0.9c-0.2,1.7-0.7,2.4-1.5,2.8
		c-1,0.6-2.3,0.7-5.1,0.7c-2.4,0-3.8-0.2-4.4-0.6c-0.6-0.4-0.9-0.9-0.9-2.2v-3c0-0.8-0.1-1.5-0.2-2.2c0.9,0,1.9,0.1,2.7,0.1
		c0.3,0.1,0.5,0.2,0.5,0.3c0,0.2,0,0.2-0.1,0.4c-0.1,0.2-0.2,0.6-0.2,1.2V42.6z M391,23.7c2.1,0,2.7-0.1,2.9-0.1
		c0.3,0,0.3,0,0.3,0.3c0,0.2-0.1,1.1-0.1,3.1v7c0,2,0.1,2.9,0.1,3.1c0,0.3,0,0.3-0.3,0.3c-0.2,0-0.9-0.1-2.9-0.1h-3.7
		c-1.3,0-2,0-2.4,0c1,0.9,1.8,1.9,2.6,3c0.1,0.2,0.1,0.3-0.2,0.5l-1.5,1c-0.2,0.1-0.3,0.2-0.3,0.2s-0.1-0.1-0.2-0.2
		c-0.7-1.2-1.6-2.5-2.6-3.4c-0.2-0.2-0.1-0.3,0.1-0.4l1.4-0.8c0-0.2,0.1-1.1,0.1-3.1v-7c0-2-0.1-2.9-0.1-3.1c0-0.3,0-0.3,0.3-0.3
		c0.2,0,0.8,0.1,2.9,0.1H391z M386.6,27.7h5.1v-1.8h-5.1V27.7z M391.6,31.4v-1.8h-5.1v1.8H391.6z M391.6,33.4h-5.1v1.8h5.1V33.4z
		 M392.3,38.5c0.3-0.1,0.4-0.1,0.6,0.1c1.1,1.4,2.1,2.9,2.9,4.8c0.1,0.2,0.1,0.3-0.2,0.5l-1.8,1c-0.2,0.1-0.3,0.2-0.3,0.2
		s-0.1-0.1-0.2-0.2c-0.7-2.1-1.6-3.4-2.7-5c-0.2-0.2-0.2-0.3,0.2-0.5L392.3,38.5z"/>
	<path d="M410.8,31.1c-0.2,2.2-0.6,4.5-1.3,6.4c-1.5,3.9-4.1,6.5-8,8.6c-0.3,0.1-0.5,0.2-0.6,0.2c-0.2,0-0.3-0.2-0.6-0.6
		c-0.5-0.7-1.1-1.2-1.7-1.5c4.3-1.9,7-4.4,8.2-7.8c0.6-1.7,1-3.5,1.1-5.3h-4.1c-2.5,0-3.4,0.1-3.5,0.1c-0.3,0-0.3,0-0.3-0.3v-2.2
		c0-0.3,0-0.3,0.3-0.3c0.1,0,1,0.1,3.5,0.1h4.3c0-0.8,0-1.5,0-2.3c0-1.3-0.1-2.3-0.2-3.5c1,0.1,2.2,0.1,3.1,0.3
		c0.4,0.1,0.5,0.2,0.5,0.4c0,0.3-0.1,0.4-0.2,0.7c-0.1,0.3-0.2,1.1-0.2,2.2c0,0.7,0,1.5,0,2.2h5.5c2.6,0,3.4-0.1,3.6-0.1
		c0.3,0,0.3,0.1,0.3,0.3c-0.1,0.8-0.1,1.7-0.1,2.4c-0.1,4.4-0.3,8.8-0.8,11.6c-0.5,2.5-1.8,3.5-4.4,3.5c-1,0-1.7,0-2.5-0.1
		c-0.8-0.1-0.8-0.1-1-1c-0.2-0.8-0.4-1.5-0.8-2.1c1.7,0.3,2.7,0.3,4,0.3c1,0,1.7-0.4,1.9-1.8c0.4-2.5,0.7-6.1,0.7-10.5H410.8z"/>
	<path d="M425.3,47.3v-1.5h6.7V24.2h1.6v23H425.3z"/>
	<path d="M457.7,40.9c0,0.3-0.2,0.4-0.5,0.5c-0.3,0.1-1.1,0.1-1.9,0.1c-0.2,0-0.3-0.2-0.3-0.4c0-1,0-2.3,0-3.2
		c-2.3,1.2-3.2,2.2-3.2,3.5c0,1.1,0.9,1.8,3.7,1.8c2.4,0,4.5-0.2,6.6-0.5c0.2,0,0.3,0.1,0.4,0.3c0.1,0.6,0.2,1.5,0.2,2.2
		c0,0.3-0.1,0.5-0.3,0.5c-2.3,0.3-4,0.3-6.5,0.3c-4.3,0-6.6-1.3-6.6-4.4c0-2.5,1.6-4.4,5.6-6.4c-0.1-1.3-0.4-1.9-1.6-1.8
		c-1.2,0.1-2.4,0.8-3.6,1.9c-1.1,1.1-1.8,1.9-2.6,2.9c-0.2,0.3-0.4,0.3-0.6,0.1c-0.4-0.4-1.2-1.2-1.5-1.7c-0.2-0.2-0.2-0.3,0.1-0.5
		c2-1.8,4-3.9,5.5-6.5c-1.2,0.1-2.7,0.1-4.2,0.1c-0.2,0-0.3-0.1-0.4-0.4c-0.1-0.4-0.2-1.4-0.3-2.2c2,0.1,4.1,0.1,6.1,0
		c0.3-0.7,0.5-1.3,0.8-2.3c0.1-0.4,0.2-0.9,0.2-1.6c1.2,0.2,2.3,0.5,3,0.7c0.4,0.2,0.4,0.6,0.1,0.8c-0.2,0.1-0.3,0.4-0.4,0.6
		c-0.2,0.4-0.3,0.7-0.6,1.4c1.6-0.2,3.2-0.4,4.8-0.8c0.3-0.1,0.4,0,0.4,0.3c0.1,0.5,0.2,1.1,0.3,1.9c0,0.3-0.1,0.4-0.4,0.4
		c-2,0.3-4.3,0.6-6.2,0.8c-0.6,1-1.2,2-2,2.9l0,0.1c0.8-0.6,1.9-0.8,2.6-0.8c1.7,0,3,0.8,3.2,2.9c1-0.5,2.5-1.2,3.9-1.8
		c0.5-0.3,1.3-0.7,2-1.4c0.9,0.9,1.6,1.8,1.8,2.3c0.3,0.6,0.3,0.9-0.2,1c-0.6,0.1-1.1,0.2-1.6,0.4c-1.7,0.6-3.4,1.2-5.7,2.1V40.9z"
		/>
	<path d="M476.2,43.5c0,2.1-1.7,3.8-3.8,3.8c-2.1,0-3.8-1.7-3.8-3.8s1.7-3.8,3.8-3.8C474.5,39.7,476.2,41.4,476.2,43.5z M470.2,43.5
		c0,1.2,1,2.2,2.2,2.2c1.2,0,2.2-1,2.2-2.2s-1-2.2-2.2-2.2C471.2,41.3,470.2,42.2,470.2,43.5z"/>
</g>
<g>
	<path d="M518.2,112.8c0.1,0,0.2,0.1,0.2,0.2c0,0.1,0,0.1-0.2,0.1c-0.1,0-0.1,0.1-0.2,0.2c-0.3,0.7-0.5,1.2-0.7,1.5
		c0.2,0.1,0.3,0.1,0.3,0.2c0,0-0.1,0.1-0.2,0.2c-0.1,0.1-0.1,0.2-0.1,0.3v6.6h-1.2v-5.3c-0.2,0.2-0.3,0.4-0.8,0.9l-1-0.8
		c1.4-1.4,2.1-2.8,2.6-4.6L518.2,112.8z M521.3,116.3c0.2,2.1,0.7,3.1,1.6,4c0.1,0.1,0.4,0.4,0.6,0.4c0.4,0,0.5-0.7,0.5-1l1,0.6
		c-0.2,1.4-0.8,1.9-1.3,1.9c-0.6,0-1.2-0.6-1.4-0.7c-1.1-1-1.8-2.4-2.2-5.1l-2.2,0.3l-0.1-1.2l2.2-0.3c0-0.4-0.1-2.3-0.1-2.8l1.2,0
		c0.2,0,0.3,0,0.3,0.1c0,0.1-0.2,0.2-0.2,0.3c-0.1,0.1-0.1,0.3-0.1,0.4c0,0.3,0,1.6,0,1.8l3.4-0.4l0.1,1.2L521.3,116.3z
		 M523.1,112.6c0.4,0.4,0.8,0.9,1.1,1.4l-1,0.6c-0.2-0.4-0.5-0.9-1-1.4L523.1,112.6z"/>
	<path d="M532.2,121c-0.9,0.3-1.9,0.6-4.3,1.2c-0.2,0-0.3,0.1-0.4,0.2c-0.1,0.2-0.2,0.2-0.2,0.2c-0.1,0-0.2-0.1-0.2-0.3l-0.4-1.2
		c0.8-0.1,1.1-0.2,1.9-0.3v-1.2c-0.8,0.4-1.2,0.6-1.9,0.8l-0.8-1c2.2-0.7,3.1-1.2,4.1-2.1h-3.9v-1h4.3v-0.6h-2.9v-0.9h2.9v-0.6h-4
		v-1h4v-0.8l1.2,0.1c0.2,0,0.3,0.1,0.3,0.1c0,0,0,0.1-0.1,0.1c-0.1,0.2-0.2,0.2-0.2,0.3v0.2h4.2v1h-4.2v0.6h3.1v0.9h-3.1v0.6h4.5v1
		h-4.3c0.4,0.8,0.7,1.2,1.1,1.7c0.8-0.6,1.1-1,1.7-1.7l0.7,0.7c0.1,0.1,0.2,0.2,0.2,0.3s-0.1,0.1-0.2,0.1c0,0-0.2,0.1-0.2,0.2
		c-0.4,0.3-1.1,0.8-1.5,1.1c0.8,0.7,1.5,1.2,2.6,1.6l-0.9,1c-2.3-1.2-2.8-1.9-4.3-4.2c-0.4,0.3-0.7,0.6-1.1,0.8v1.7
		c0.6-0.2,1.4-0.3,2.2-0.6L532.2,121z"/>
	<path d="M541.3,116v-1.8h1.8v1.8H541.3z M541.3,120.5v-1.8h1.8v1.8H541.3z"/>
	<path d="M558.7,115.1v1.2h-4.2c0.7,2.7,2.3,4.1,4.3,5.1l-1,1c-0.9-0.5-1.5-0.9-2.4-2c-0.9-1-1.1-1.6-1.5-2.4
		c-1.2,2.8-2.7,3.7-4,4.4l-1-1c0.8-0.3,1.7-0.8,2.6-1.8c0.8-0.9,1.4-2.1,1.6-3.3h-4.1v-1.2h4.3c0-2,0-2.3,0-2.8l1.3,0.1
		c0.3,0,0.4,0,0.4,0.1c0,0.1-0.2,0.3-0.2,0.3c0,0.1-0.1,0.2-0.1,0.4c0,0.6-0.1,1.6-0.1,1.9H558.7z"/>
	<path d="M565.8,113.8c0.2-0.3,0.6-1,0.8-1.6l1.2,0.4c0,0,0.2,0.1,0.2,0.2c0,0.1-0.3,0.2-0.3,0.2c-0.1,0.1-0.4,0.7-0.5,0.9h2.8v1.1
		h-10v-1.1h2.7c-0.3-0.5-0.6-0.9-0.8-1.1l1.2-0.5c0.4,0.5,0.9,1.2,1,1.3l-0.6,0.3H565.8z M561.9,122.4h-1.2v-6.8h4.2v5.2
		c0,1.3-0.5,1.5-1.9,1.6l-0.5-1.2h0.5c0.4,0,0.7,0,0.7-0.5v-0.7h-1.9V122.4z M563.7,116.5h-1.9v0.7h1.9V116.5z M563.7,118.2h-1.9
		v0.8h1.9V118.2z M565.8,115.6l1.1,0c0.3,0,0.4,0.1,0.4,0.1c0,0.1,0,0.1-0.1,0.1c-0.2,0.2-0.2,0.2-0.2,0.2v4.4h-1.2V115.6z
		 M569.2,115.4c0.5,0,0.5,0.1,0.5,0.2s0,0.1-0.1,0.1c-0.2,0.1-0.3,0.1-0.3,0.2v4.8c0,1.5-0.2,1.5-1.8,1.6l-0.6-1.3
		c1.1,0,1.3,0,1.3-0.5v-5.1L569.2,115.4z"/>
	<path d="M575.8,116.1v4.8h-2.1v1.2h-1.2v-3.6c-0.3,0.4-0.5,0.6-0.7,0.9l-0.9-0.8c0.6-0.6,1.8-2.1,2.3-4.9h-1.7v-1.1h4.5v1.1h-1.6
		c-0.1,1-0.4,1.7-0.6,2.4H575.8z M574.7,117.2h-1.1v2.6h1.1V117.2z M579.1,117.4h-0.9c0,2.2-0.7,3.8-1.9,4.9l-1-0.6
		c0.6-0.5,1.8-1.7,1.8-4.3h-0.9v-1.1h0.9v-2.5h-0.6v-1.1h4.7v1.1h-0.8v2.5h1v1.1h-1v5h-1.2V117.4z M579.1,113.8h-0.9v2.5h0.9V113.8z
		"/>
	<path d="M582.8,118v-1.3h9.7v1.3H582.8z"/>
</g>
<g>
	<defs>
		<circle id="SVGID_1_" cx="552.3" cy="52.5" r="52.5"/>
	</defs>
	<clipPath id="SVGID_2_">
		<use xlink:href="#SVGID_1_"  style="overflow:visible;"/>
	</clipPath>
	<g class="st1">
		<path class="st0" d="M511.1,85.1c0,0,0.1-1.7,0.4-2.7s0.7-1.6,1.1-2.4c0.4-0.8,1.1-1.2,1.1-3.8c0,0,0.1-1.2,0.4-1.7
			c0.3-0.5,0.5-1.6,0.6-2.2c0.1-0.6,1.3-3.3,2.4-4.2s1.3-0.7,1.9-0.9c0.6-0.2,1.3-0.7,2.1-1.1c0.8-0.4,2.9-1.3,5.5-2.1
			c2.5-0.8,8.3-3,9.7-3.5c1.3-0.5,3.2-1.1,3.9-1.4c0.7-0.3,0.9-0.7,1.2-0.4c0.2,0.4,0.7,0.4,0.7,1.3c0,0.9,0.3,2.3,0.6,3.1
			c0.3,0.8,0.9,2.8,1,3c0.2,0.2-0.2-0.3-0.6-0.8c-0.3-0.4-0.7-0.6-0.7-0.2c0,0.4-0.3,2-0.2,3c0.1,1,0.5,1.5,0.3,2.2
			c-0.2,0.8-0.6,2.1-0.8,3s-0.2,4.9-0.2,5.6s0.5,0.3,0.5,1s-0.1,2.6,0.2,4.2c0.3,1.6,0.2,2.1,0.6,2c0.4,0,0.9-1.2,1.6-2.1
			s6.5-10.1,8.1-12.5c1.6-2.4,5.2-8,5.7-8.9s0.8-1.9,0.3-2.6c-0.5-0.7-1-1-1.9-0.9c-0.9,0-1.6,0.1-2.4,0.4s-1.5-0.3-2,0.2
			c-0.5,0.4-0.8,0.7-1.3,0.5c-0.5-0.2,0-0.8-1-0.9c0,0-0.6-0.4-0.6-0.8c0-0.4,0.1-0.6,0.5-0.7c0.3-0.1,0.8-0.2,0.8-0.4
			c0-0.2-0.4-0.3-0.4-0.6s0.2-0.6,0.6-0.7s0.5-0.3,0.5-0.6s-0.1-0.6-0.4-0.6c-0.3,0-0.5-0.3-0.5-0.7s0.3-0.4,0.1-0.9
			c-0.2-0.5-0.3-0.7-0.2-1c0.1-0.3,0-0.6-0.3-1c-0.3-0.4-0.4-0.8-0.7-0.6c-0.3,0.1-0.1,0.4-0.6,0s-1-0.8-1-1.2c0-0.4,0.4-0.9,0-1.1
			c-0.4-0.2-0.9-0.2-0.9-0.5c-0.1-0.3-0.1-0.4-0.7-0.4c-0.6,0-1.3,0-1.3,0s-0.3,0-0.6,0.3c-0.2,0.3-0.3,0.2-0.7,0.2s-0.7,0.1-1,0.4
			c-0.3,0.3-0.5,0.9-0.8,1.1c-0.3,0.2-0.5,0.1-0.7,0.5c-0.1,0.4-0.3,0.8-0.3,1.1s-0.2,0.3-0.3,0.3c-0.1,0-0.3-0.3-0.3-0.7
			s-0.1-1.4,0.1-1.6c0.2-0.2,0.7-0.4,0.8-0.7c0.1-0.3,0.1-0.8,0.8-0.9c0.6,0,1.2,0,1.8-0.2c0.6-0.2,0.9-0.2,1.3-0.2s0.7-0.1,0.7-0.3
			c0.1-0.3,0.2-0.5,0.7-0.4c0.4,0,1.2,0.1,1-0.2c-0.3-0.3-0.1-0.2-0.6-0.5s-0.6-0.5-0.5-1.1c0.1-0.5,0.3-0.7,0.6-0.6
			c0.3,0.1,0.5,0.1,0.5,0.6c0,0,0,0.5,0.1,0.8c0.1,0.3,0.3,0.3,0.7,0c0.4-0.3,0.8-0.5,0.8-1.2c0-0.7,0-1.1-0.7-1.4
			c-0.7-0.3-0.9-0.5-1.3-0.6c-0.4-0.1-0.8-0.1-0.7-0.4s0.5-0.1,0.6-0.7s0.3-1.2-0.1-1.9s-0.2-0.6-0.3-1.6s-0.1-1.8-0.2-2.7
			s-0.2-0.5-0.3-1.6c-0.1-1.1,0.1-1.6-0.3-1.8c-0.5-0.2-1.1,0.1-1.1-0.1c0-0.2,0-0.3,0.4-0.4c0.4-0.1,0.7-0.2,0.8-0.5
			c0.1-0.3,0.2-0.5,0.2-0.8c0.1-0.3-0.2-0.6,0-0.9c0.3-0.3,0.1,0,0.4,0c0.3,0,0.7,0.1,1.1-0.1s0.6-0.5,0.9-0.4
			c0.3,0.1,0.2,0.3,0,0.6c-0.2,0.3-0.1,0.7,0.1,0.5c0.2-0.2,0.5-0.2,0.9-0.5s0.7-0.5,1.1-0.5s0.2,0-0.3-0.1
			c-0.5-0.1-0.3-0.6-0.7-0.6c-0.4,0.1-0.5,0-0.7-0.3s-0.3-0.7,0-1.4s0.7-1.4,0.1-2.2c-0.6-0.8-1.2-1.1-1.6-1.3
			c-0.4-0.2-0.4-0.7-0.5-1.3c-0.1-0.6,0.2-1.5-0.6-2.5s-1.3-1.6-2-1.6c-0.7,0-0.7-0.3-1.2-0.5c-0.5-0.2-0.9-0.5-1.3-0.2
			s-0.9,0.2-1.5,0.4c-0.6,0.1-0.7,0.5-1.5,0.8c-0.8,0.4-1.4,0.5-1.7,1s-0.7,0.6-0.6,0.3c0.1-0.3,0.1-0.3,0.1-0.3s0-0.6-0.5,0
			s-0.4,0.5-0.5,1c-0.1,0.5,0.2,0.6-0.4,1.1c-0.5,0.4-0.9,0.3-1.2,0.5s-0.5,0.4-0.6,0.9c-0.1,0.5-0.4,1-0.7,1.4
			c-0.3,0.3-0.3,0.4-0.3,0.9s-0.3,0.6-0.2,1.1c0.1,0.5,0.2,0.7,0,1.1c-0.2,0.4-0.4,0.5-0.4,1.1c0,0.6,0.3,1.4,0.3,2
			c0,0.7-0.2,1.4,0.4,2c0.6,0.6,0.6,0.7,1.3,0.8c0.7,0.1,0.9,0.1,0.8,0.5s-0.1,0.8-0.5,0.8c-0.4,0-0.5-0.2-0.8-0.4
			c-0.3-0.1-0.4-0.2-0.7-0.1c-0.3,0.1-0.6-0.1-0.8,0.1c-0.3,0.3-0.1,0.6-0.2,0.8c-0.1,0.2-0.2-0.1-0.7-0.8c-0.5-0.7-0.8-1.4-1.2-1.8
			s-0.4-0.7-0.4-1.3s0.4-1.1,0.5-1.6c0.2-0.6,0.2-0.8,0.3-0.8c0.1,0,0.1,0.1,0,0.7c-0.1,0.6-0.1,0.5-0.1,0.8s0.3,0.3,0.1,0.7
			c-0.2,0.5-0.2,1.4,0.1,1.4c0.3,0,0.3-0.6,0.2-1.2s0-1.1,0.2-1.5c0.1-0.3,0.3-0.8,0.4-1.3c0.2-0.5,0.2-0.7,0.4-1.1
			c0.3-0.4,0.3-0.9,0.2-0.8c-0.2,0.1-0.2,0.1-0.5,0.8c-0.3,0.7-0.3,1-0.6,1.1c-0.3,0.1-0.4-0.1-0.1-0.5c0.2-0.4,0.4-0.7,0.5-1.2
			c0.1-0.5,0.3-1.1-0.1-1.1c-0.4,0.1-0.4-0.2-0.5,0.6c-0.1,0.8-0.1,0.7-0.3,1.4c-0.3,0.7-0.3,0.9-0.4,1.3s-0.2,0.9-0.3,0.6
			c-0.1-0.4-0.1-0.4,0-1.3c0.1-0.9,0.1-0.8,0.3-1.5c0.1-0.7,0-0.7,0.1-1.4c0.1-0.7,0.1-0.6,0.3-1.1s0.1-1.1,0.2-1.6
			c0.1-0.4,0.4-0.8,0.6-1.6c0.2-0.7,0.3-1.5,0.9-2.2s1.1-1.2,1.6-2.1s1.4-2.7,2.9-3.7c1.4-1,5.4-3.6,11.5-3.6c0,0,2.5,0,4.3,0.6
			c1.8,0.6,2,1.1,3.4,1.4c1.4,0.3,2.6,0.5,3.9,1.5s2.6,1.9,4.6,4.9s2.9,5.4,3.4,6.2c0.5,0.8,0.9,2.2,0.8,3c0.3,0.2,1.9,1.1,2,3.5
			s-0.5,6.4-0.7,7.4c-0.2,1-0.5,2.3-0.8,3c-0.3,0.6-0.7,0.5-1,0.6s-0.7,0.1-0.7,0.6c0.1,0.5,0.2,1.8,0.1,2.9c-0.1,1.1-0.3,2-0.1,2.7
			c0.2,0.7,0.7,0.8,1.3,1c0.6,0.2,0.7,0.2,1.4,1.3s1,2.5,1.9,3.5c0.9,1,1.3,1.4,1.8,2.2c0.5,0.8,1.1,1.4,2.2,2.1
			c1.1,0.7,8.5,4.6,10.7,5.5c2.2,1,6.7,2.8,8.3,4s3.5,3.5,4,6.2c0.5,2.7,0.3,3.3,0.7,3.9c1.2,2.3,1.9,8,1.6,9.2s-4.3,6.2-10.4,9.9
			s-16.7,11-40.7,11c-24,0-34.5-12.2-36.3-14.5C511.2,90.3,510.5,87.4,511.1,85.1z"/>
		<path class="st0" d="M539.5,44.5c0,0-0.1-0.8-0.1-1.2c0-0.4,0-1.4,0.3-1.8c0.3-0.4,0.7-0.7,0.9-1.1c0.2-0.4,0.3-0.6,0.5-0.8
			c0.2-0.2,0.4-0.7,0.6-0.7c0.2,0,0.4,0,0.4,0.4c0,0.4-0.1,1.2-0.1,1.5c0,0.3,0.1,0.3-0.2,0.7c-0.3,0.4-0.6,1-0.8,1.4
			s-0.1,0.6-0.5,0.9C540.3,44.2,539.9,44.3,539.5,44.5z"/>
		<path class="st0" d="M544.2,41.7c0,0,0,0.3-0.4,0.3c-0.2,0-0.4,0-0.4-0.1s0.2-0.2,0.3-0.3s0.1-0.1,0.1-0.1s0.2-0.1,0.3-0.1
			C544.2,41.4,544.2,41.5,544.2,41.7z"/>
		<path class="st0" d="M552.1,39.1c0,0,0.1,1.3,1.4,2.8c1.2,1.3,2.1,2,2.4,2.3c0.3,0.3,0.9,1,0.8,1.9s-0.1,1-0.2,1.6
			s-0.1,1.6,0.5,1.6s0.6-1.4,0.5-2.1c0-0.7-0.4-2.1-0.8-3c-0.5-0.9-1.4-2.9-2.1-3.7c-0.7-0.8-1.2-1.3-1.5-1.4
			C552.7,39,552,38.6,552.1,39.1z"/>
		<path class="st0" d="M554.1,46.2c0,0,0.1,0.5,0.2,0.6c0.2,0.1,0.4,0.1,0.6,0.1c0.2,0,0.2-0.2,0-0.4c-0.2-0.1-0.4-0.3-0.5-0.5
			C554.3,45.9,554.1,45.9,554.1,46.2z"/>
		<path class="st0" d="M551.6,56.9c0,0-0.2,0-0.3,0.2c-0.1,0.2-0.3,0.2-0.3,0.4s0,0.2,0.3,0.2s0.6-0.1,0.6-0.3
			C551.8,56.8,551.6,56.9,551.6,56.9z"/>
		<path class="st0" d="M548.3,56.3c0,0-0.1,0.2,0.1,0.4c0.2,0.1,0.3,0.2,0.4,0s0-0.4,0.2-0.4s0.3-0.1,0.5-0.2
			c0.1-0.1,0.3-0.2,0.4-0.2c0.2-0.1,0.4-0.3,0.1-0.3c-0.2,0-0.3,0.1-0.5,0.2c-0.2,0.1-0.4,0.2-0.6,0.4
			C548.7,56.2,548.3,56,548.3,56.3z"/>
		<path class="st0" d="M550.5,54.3c0,0.1-0.1,0.4,0.1,0.5c0.2,0.1,0.3,0.2,0.4,0c0-0.2-0.2-0.3-0.3-0.5
			C550.7,54.1,550.6,54,550.5,54.3z"/>
		<path class="st0" d="M531.6,34.6c0,0,0.1,0.3,0,0.6s-0.2,0.3-0.4,0.5c-0.1,0.1-0.4,0.3-0.3,0c0.1-0.3,0.1-0.1,0.2-0.4
			C531.2,34.9,531.4,34.3,531.6,34.6z"/>
		<path class="st0" d="M531.7,37.6c0,0-0.2,0.4,0,0.7c0.2,0.3,0.1,0.7,0.3,0.7s0.3-0.1,0.1-0.5c-0.2-0.4-0.3-0.5-0.3-0.7
			S531.7,37.3,531.7,37.6z"/>
		<path class="st0" d="M535.9,34.1c0,0-0.2-0.2-0.2-0.3c0-0.1,0-0.2,0.2-0.3s0.6-0.4,0.8-0.6c0.3-0.2,1-0.8,1.3-0.9
			c0.3-0.1,0.4-0.1,0.3-0.4c-0.1-0.3,0-0.7-0.5-0.7c-0.4-0.1-0.6-0.1-0.8,0.1c-0.3,0.1-0.3,0.1-0.5,0.1s-0.3,0-0.2-0.1
			s0.3,0,0.7-0.3s1-0.4,1.5-0.4c0.5,0,1.6-0.1,2.3-0.1c0.7,0,1.4,0.4,1.7,0.7c0.3,0.2,0.4,0.4,0.3,0.5s-0.3,0.3,0,0.6
			c0.3,0.3,0.7,0.3,0.9,0.6s0.3,0.3,0.3,0.7c0,0.3,0,0.5-0.3,0.6c-0.3,0-0.5-0.2-0.5,0c0,0.3,0.2,0.3,0.3,0.5
			c0.1,0.2,0.1,0.4-0.1,0.6s-0.4,0.3-0.5,0.1c0-0.2-0.1-0.6-0.3-0.4c-0.2,0.1-0.1,0.4-0.3,0.9c-0.2,0.5-0.5,0.8-1,1.1
			c-0.5,0.3-0.7,0.7-1.1,0.7s-0.6-0.1-0.8,0.1s-0.4,0.3-0.5,0.2c-0.1-0.1-0.2-0.1,0.2-0.5s0.5-0.3,0.5-0.9c0-0.5,0.3-0.8-0.2-1.1
			c-0.5-0.3-0.7-0.5-0.7-0.7c0-0.2,0.1-0.4-0.2-0.4c-0.3,0-0.7,0.1-0.7-0.1c0-0.2,0.4-0.1,0.4-0.4c0-0.2,0-0.5,0.2-0.6
			c0.2-0.1,0.2-0.3-0.1-0.2c-0.3,0.1,0,0.1-0.2,0.2s-0.4,0-0.4-0.1s-0.1-0.1-0.2,0c-0.2,0.1-0.3,0.2-0.4,0.4c-0.1,0.2,0,0.3-0.2,0.3
			c-0.2,0-0.3,0-0.5,0c-0.2-0.1-0.3-0.1-0.3,0C536,33.9,536.1,34.5,535.9,34.1z"/>
		<path class="st0" d="M540.4,27.6c0,0,0.1,0.1-0.1,0.2c-0.2,0.1-0.4,0.1-0.6,0.1c-0.2,0-0.2-0.1,0-0.1s0.2-0.1,0.3-0.2
			C540.1,27.4,540.3,27.4,540.4,27.6z"/>
		<path class="st0" d="M539.2,27.8c-0.1,0-0.2,0-0.5,0.1c-0.3,0.1-0.5,0.2-0.8,0.1c-0.3,0-0.5-0.2-0.8,0c-0.3,0.2-0.3,0.3-0.7,0.4
			c-0.4,0.1-0.6,0.1-0.8,0c-0.3-0.1-0.5-0.1-0.7,0c-0.2,0.1-0.2,0-0.5-0.1c-0.3,0-0.2,0,0-0.2c0.2-0.2,0.2-0.2,0.4-0.5
			c0.2-0.3,0-0.4,0.6-0.5c0.6-0.1,0.8-0.2,1.3,0c0.5,0.2,0.5,0.3,1,0.1c0.5-0.1,0.7-0.1,0.9,0c0.2,0.1,0.2,0.2,0.4,0.2
			S539.7,27.7,539.2,27.8z"/>
		<path class="st0" d="M537.4,28.8c0,0,0-0.4-0.2-0.3s0-0.1,0.3-0.1c0.3,0,0.1,0.1,0.1,0.2C537.6,28.7,537.7,29,537.4,28.8z"/>
		<path class="st0" d="M529.6,25.1c0,0,0.2-0.2,0.4-0.4c0.1-0.2,0.3-0.6,0.4-0.8s0.2-0.4,0.3-0.5c0.1-0.1,0.2-0.3,0.2-0.4
			c0.1-0.1-0.1-0.2-0.3,0.1c-0.2,0.3-0.3,0.3-0.5,0.6c-0.2,0.3-0.3,0.5-0.4,0.7C529.6,24.6,529.5,24.9,529.6,25.1z"/>
		<path class="st0" d="M530.5,24.7c0,0-0.1-0.1,0-0.3s0.4-0.3,0.4-0.5c0-0.2,0.3-0.1,0.2,0.1c-0.1,0.2-0.2,0.3-0.3,0.5
			C530.7,24.7,530.7,24.7,530.5,24.7z"/>
		<path class="st0" d="M534.8,18.9c0,0.1,0,0.3-0.2,0.5c-0.2,0.2-0.3,0.3-0.6,0.4c-0.3,0.1-0.4,0.1-0.4,0c0-0.1,0-0.3,0.4-0.4
			c0.3-0.1,0.4-0.2,0.5-0.3C534.6,19,534.8,18.7,534.8,18.9z"/>
		<path class="st0" d="M550.6,30.3c0,0-0.3,0-0.6,0.3s-0.3,0.5-0.7,0.6c-0.4,0.1-0.3,0.2-0.7,0c-0.3-0.2-0.6-0.4-0.6-0.7
			c0-0.4-0.1-0.6,0.3-0.8c0.4-0.2,0.9-0.3,1.1-0.5c0.2-0.2,0.7-0.5,1.3-0.5c0.6,0,0.8-0.2,1.1-0.1c0.3,0,0.7,0.1,0.6,0.7
			s-0.4,0.4-0.6,0.5c-0.2,0.1,0.4,0.1,0.3,0.3s-0.2,0.1-0.5,0.3c-0.3,0.2-0.6,0.4-0.8,0.6c-0.2,0.2-0.3,0.3-0.4,0.2
			c-0.1-0.1-0.2-0.1,0.1-0.3C550.7,30.5,551.1,30,550.6,30.3z"/>
		<path class="st0" d="M551.3,31c0,0-0.5,0.2-0.5,0.4c0,0.2,0,0.4,0.2,0.4c0.2,0,0.5,0.1,0.6,0.2c0.1,0.1,0.3,0.1,0.3-0.1
			s0-0.3-0.2-0.5C551.6,31.3,551.5,30.9,551.3,31z"/>
		<path class="st0" d="M552.1,30.6c0,0,0.3,0.4,0,0.4c-0.3,0-0.5-0.2-0.4-0.2c0.1,0,0.2-0.1,0.2-0.2
			C551.9,30.5,552.1,30.6,552.1,30.6z"/>
		<path class="st0" d="M551.1,33c0,0-0.3-0.1-0.7-0.2c-0.4-0.1-0.9-0.3-1,0c-0.1,0.3,0,0.7,0.4,1.1c0.5,0.4,0.3,0.7,1.4,0.7
			c1,0,1.3-0.4,1.5-0.7c0.2-0.3,0.4-0.5,0.3-0.8c0-0.3,0-0.3-0.5-0.3c-0.4,0-0.3-0.1-0.6-0.1c-0.3,0-0.4,0.1-0.6,0.3
			C551.2,33.1,551.2,32.9,551.1,33z"/>
		<path class="st0" d="M556,29.1c0.1,0.2,0,0.2,0.2,0.5c0.2,0.3,0.4,0.4,0.4,0c0-0.4,0.1-0.6-0.1-0.7S555.9,28.9,556,29.1z"/>
		<path class="st0" d="M556.3,30.4c0,0,0.1,0.1,0.1,0.6c0,0.5-0.1,0.7,0,0.9c0,0.3,0,0.4,0.2,0.4c0.2,0,0.3-0.3,0.3-0.7
			c0-0.4,0-0.5,0-0.9c0-0.4,0-0.5-0.2-0.6C556.4,30.2,556.2,30.2,556.3,30.4z"/>
	</g>
</g>
</svg>
