<svg xmlns="http://www.w3.org/2000/svg" viewBox="0 0 213.77 155.65"><defs><style>.cls-1{fill:#fff;}.cls-2{fill:#e60000;}</style></defs><title>logo_bbt</title><g id="レイヤー_2" data-name="レイヤー 2"><g id="レイヤー_1-2" data-name="レイヤー 1"><path class="cls-1" d="M60.92,127.38c.51-1.4.11-2.75-1.19-3l0,0h0a5.59,5.59,0,0,0,4.15-3.66c.82-2.18,0-3.33-3.31-3.33H52.75L44,132.49h8.78C56.07,132.49,59.56,131,60.92,127.38Zm-5.68-6.47h2.42c.84,0,1.39.17,1.05,1.09a2.17,2.17,0,0,1-2.13,1.21H53.92ZM52.3,126h2.59c1,0,1.75.17,1.33,1.3a2.58,2.58,0,0,1-2.55,1.53h-3Z"/><path class="cls-1" d="M61.55,128.21c-.9,2.43.19,4.64,4.77,4.64a10.54,10.54,0,0,0,9.52-5.51l5.82-10H77l-4.84,8.34c-1,1.68-2.21,3.42-4.16,3.42s-1.21-1.53-1-2a16.38,16.38,0,0,1,.78-1.47l4.8-8.29H67.8L62.18,127A12,12,0,0,0,61.55,128.21Z"/><path class="cls-1" d="M82.68,126.06c1.86.7,3.37.85,3,2a2.82,2.82,0,0,1-2.6,1.47c-.77,0-1.31,0-1.59-.39a1.91,1.91,0,0,1,.06-1.72H77c-1.62,3.87,1,5.47,4.46,5.47,3.32,0,7.53-1.72,8.88-5.39.67-1.8.31-3.25-2-4.19-1.29-.53-3.56-.59-3.14-1.74a2.27,2.27,0,0,1,2.28-1.23,1.79,1.79,0,0,1,1.24.33c.25.26.32.64.07,1.26h4.35c1.47-3.74-1-5-4.27-5-3.08,0-7,1.57-8.27,5C79.62,124.47,81.05,125.45,82.68,126.06Z"/><polygon class="cls-1" points="93.61 132.49 102.4 117.3 97.7 117.3 88.91 132.49 93.61 132.49"/><polygon class="cls-1" points="100.6 132.49 105.53 123.98 105.57 123.98 105.22 132.49 109.84 132.49 118.68 117.3 114.2 117.3 109.42 125.59 109.38 125.59 109.58 117.3 104.92 117.3 96.13 132.49 100.6 132.49"/><polygon class="cls-1" points="125.28 132.49 127.53 128.6 119.45 128.6 120.56 126.7 127.92 126.7 130 123.08 122.66 123.08 123.77 121.19 131.69 121.19 133.92 117.3 121.3 117.3 112.48 132.49 125.28 132.49"/><path class="cls-1" d="M134.72,126.06c1.86.7,3.36.85,2.95,2a2.79,2.79,0,0,1-2.59,1.47c-.77,0-1.31,0-1.59-.39s-.25-.89,0-1.72H129c-1.62,3.87.95,5.47,4.46,5.47,3.31,0,7.52-1.72,8.88-5.39.67-1.8.31-3.25-2-4.19-1.3-.53-3.57-.59-3.14-1.74a2.26,2.26,0,0,1,2.27-1.23,1.8,1.8,0,0,1,1.25.33c.25.26.32.64.07,1.26h4.34c1.47-3.74-1-5-4.26-5-3.08,0-7,1.57-8.27,5C131.65,124.47,133.09,125.45,134.72,126.06Z"/><path class="cls-1" d="M148.82,126.06c1.86.7,3.37.85,3,2a2.82,2.82,0,0,1-2.6,1.47c-.77,0-1.31,0-1.59-.39s-.25-.89.06-1.72h-4.56c-1.63,3.87.95,5.47,4.46,5.47,3.32,0,7.53-1.72,8.88-5.39.67-1.8.31-3.25-2-4.19-1.3-.53-3.56-.59-3.14-1.74a2.27,2.27,0,0,1,2.28-1.23,1.79,1.79,0,0,1,1.24.33c.25.26.32.64.07,1.26h4.34c1.48-3.74-1-5-4.26-5-3.08,0-7,1.57-8.27,5C145.75,124.47,147.19,125.45,148.82,126.06Z"/><path class="cls-1" d="M17,150.19c.52-1.41.12-2.74-1.18-3v-.05h0A5.63,5.63,0,0,0,20,143.44c.81-2.19,0-3.34-3.32-3.34H8.79L0,155.29H8.77C12.11,155.29,15.6,153.84,17,150.19Zm-4.69-.05a2.59,2.59,0,0,1-2.56,1.54h-3l1.64-2.83h2.59C11.91,148.85,12.68,149,12.26,150.14Zm2.49-5.34A2.18,2.18,0,0,1,12.61,146H10l1.32-2.3H13.7C14.53,143.72,15.09,143.89,14.75,144.8Z"/><path class="cls-1" d="M30.26,148.31l0,0a6.54,6.54,0,0,0,5.12-4.19c1.19-3.21-.68-4-3.51-4H24.15l-8.79,15.19H20L23.05,150h2c1.31,0,1.69.59,1.4,1.38s-.87,1.7-1.14,2.42a3.75,3.75,0,0,0-.35,1.49h4.49c-.05-.89.69-2.44,1.22-3.87S31.52,148.7,30.26,148.31Zm-2.84-1.57H24.94l1.76-3h2.55c1.22,0,1.31.72,1.09,1.32A2.92,2.92,0,0,1,27.42,146.74Z"/><polygon class="cls-1" points="37.74 151.4 38.85 149.5 46.21 149.5 48.3 145.89 40.96 145.89 42.07 143.99 49.99 143.99 52.22 140.1 39.6 140.1 30.79 155.29 43.58 155.29 45.83 151.4 37.74 151.4"/><path class="cls-1" d="M58.77,140.1,44.31,155.29H49.1l2-2.17h5l-.54,2.17h4.62l3.24-15.19Zm-1.85,9.76H54l4.07-4.55h0Z"/><polygon class="cls-1" points="84.52 140.1 78.41 140.1 71.32 145.14 71.29 145.1 74.19 140.1 69.48 140.1 60.69 155.29 65.4 155.29 67.97 150.84 70.11 149.4 70.73 155.29 76.01 155.29 74.91 146.35 84.52 140.1"/><polygon class="cls-1" points="95.72 143.99 97.97 140.1 84.8 140.1 82.54 143.99 86.78 143.99 80.24 155.29 84.95 155.29 91.48 143.99 95.72 143.99"/><polygon class="cls-1" points="108.33 140.1 105.26 145.37 100.96 145.37 104.03 140.1 99.32 140.1 90.51 155.29 95.21 155.29 98.7 149.27 103.01 149.27 99.51 155.29 104.22 155.29 113.03 140.1 108.33 140.1"/><path class="cls-1" d="M121.58,148.31l0,0a6.56,6.56,0,0,0,5.12-4.19c1.19-3.21-.69-4-3.51-4h-7.75l-8.78,15.19h4.62l3.07-5.29h2c1.31,0,1.69.59,1.39,1.38s-.86,1.7-1.13,2.42a3.8,3.8,0,0,0-.36,1.49h4.49c-.05-.89.7-2.44,1.22-3.87S122.83,148.7,121.58,148.31Zm-2.84-1.57h-2.48l1.76-3h2.55c1.22,0,1.31.72,1.09,1.32A2.94,2.94,0,0,1,118.74,146.74Z"/><path class="cls-1" d="M137.43,139.74c-5.19,0-10.11,4.15-12,9.25-1.62,4.39.17,6.66,4.49,6.66,5.2,0,10.11-4.15,12-9.25C143.64,141.76,141.76,139.74,137.43,139.74Zm-.17,6.55c-.84,2.26-3,5.57-5.81,5.57-1.84,0-1.87-1.38-1.35-2.76.83-2.26,3-5.57,5.81-5.57C137.75,143.53,137.77,144.91,137.26,146.29Z"/><path class="cls-1" d="M156.49,140.1l-4.84,8.34c-1,1.68-2.21,3.42-4.16,3.42s-1.21-1.53-1-2c.09-.23.51-1,.78-1.46l4.81-8.3h-4.71l-5.62,9.68c-.18.34-.51.94-.62,1.24-.9,2.42.19,4.63,4.76,4.63a10.55,10.55,0,0,0,9.53-5.51l5.82-10Z"/><path class="cls-1" d="M167.45,146.93l-1.89,3.26h2.14a4.08,4.08,0,0,1-3.42,1.67c-1.91,0-2.24-1.19-1.57-3,1-2.62,3.13-5.36,5.72-5.36,1.2,0,1.86.49,1.46,1.89h4.45c1.43-4-.81-5.68-4.23-5.68-6,0-10.48,4.74-12.25,9.51-.7,1.89-1.51,6.4,3.84,6.4a7.16,7.16,0,0,0,4.82-1.87l0,0-.67,1.47h3l4.85-8.36Z"/><polygon class="cls-1" points="188.63 140.1 185.56 145.37 181.26 145.37 184.33 140.1 179.62 140.1 170.82 155.29 175.52 155.29 179.01 149.27 183.31 149.27 179.82 155.29 184.53 155.29 193.34 140.1 188.63 140.1"/><path class="cls-2" d="M203.53,12.42c-9.8,0-22.33,7.94-28,17.73s-2.3,17.74,7.49,17.74S205.37,40,211,30.15,213.32,12.42,203.53,12.42Z"/><path class="cls-2" d="M175.88,60.3c-9.8,0-22.32,7.94-28,17.74s-2.3,17.74,7.5,17.74,22.32-8,28-17.74S185.67,60.3,175.88,60.3Z"/><path class="cls-2" d="M120.51,54.1h-8c14.94,0,34.05-12.12,42.67-27s3.5-27-11.43-27H89.67L58.44,54.1,27.2,108.19H89.28c14.94,0,34-12.11,42.67-27S135.45,54.1,120.51,54.1Zm-26.08-24c5.66-9.79,18.18-17.73,28-17.73s13.16,7.94,7.5,17.73-18.18,17.74-28,17.74S88.77,40,94.43,30.15ZM102.25,78c-5.65,9.79-18.18,17.74-28,17.74s-13.15-8-7.5-17.74S85,60.3,94.76,60.3,107.91,68.24,102.25,78Z"/></g></g></svg>