<svg xmlns="http://www.w3.org/2000/svg" viewBox="0 0 1000 640"><defs><style>.cls-2{fill:#fff}.cls-4{fill:#333}.cls-5{fill:#e60000}.cls-6{fill:#0670b0}.cls-7{fill:#14983d}.cls-10,.cls-12,.cls-8,.cls-9{fill:none;stroke-miterlimit:10}.cls-8{stroke:#e60000;stroke-width:4px}.cls-9{stroke:#69bd83}.cls-10,.cls-9{stroke-width:2px}.cls-10{stroke:#5eb7e8}.cls-11{fill:#b2b2b2}.cls-12{stroke:#b2b2b2}</style></defs><g id="レイヤー_3" data-name="レイヤー 3"><path fill="#fff5ef" d="M0 0h1000v640H0z"/><path class="cls-2" d="M116.61 232.72h322.92v313.82H116.61z"/><path fill="#e94e3c" d="M70 134.8h860v37.42H70z"/><path class="cls-2" d="M391.48 145.59v16.84h-2v-1.22H380v1.3h-1.91v-16.92zM380 147.47v4.9h9.46v-4.9zm9.46 11.85v-5.1H380v5.1zM409.18 153.74a21.28 21.28 0 0 0 7 6.44 8.28 8.28 0 0 0-1.42 1.63 25.7 25.7 0 0 1-7-7v7.95h-2v-7.89a23.85 23.85 0 0 1-6.95 7.11 10.85 10.85 0 0 0-1.38-1.59 20.09 20.09 0 0 0 7-6.62H398v-1.87h7.83v-7.55h2v7.55h7.87v1.87zm-7.53-2.93a17.75 17.75 0 0 0-2.6-4.68l1.69-.75a18.49 18.49 0 0 1 2.75 4.6zm13.21-4.74a46.26 46.26 0 0 1-3.26 4.9l-1.6-.75a27.74 27.74 0 0 0 2.81-5zM433.88 152.15c0 1.75.7 6.47 4.38 8.92-.34.4-.88 1.16-1.17 1.6-2.75-1.82-3.87-5.46-4.13-7.1a10.82 10.82 0 0 1-4.66 7.1 9.06 9.06 0 0 0-1.09-1.52 7.62 7.62 0 0 0 1.11-.79h-6v1.45h-1.76v-16.28h8.39v1.72h-6.63v3.19l1-1.08c.66.6 1.36 1.29 2.05 2a28.48 28.48 0 0 0 .94-3.64l1.69.28a30.82 30.82 0 0 1-1.35 4.77 17.72 17.72 0 0 1 2.15 2.86l-1.2 1.37a18.87 18.87 0 0 0-1.71-2.45 16 16 0 0 1-2.25 3.6 8.67 8.67 0 0 0-1.35-1.17v1.63h6.77v1.06a11.23 11.23 0 0 0 3-7.53v-2.59h-.9a15.87 15.87 0 0 1-1.73 4.14 8.53 8.53 0 0 0-1.52-1.19c1.3-1.94 2-5.06 2.43-8.23l1.86.3a42.02 42.02 0 0 1-.6 3.27h4.8l.3-.12 1.27.49a27.39 27.39 0 0 1-1.39 5.5l-1.36-.74a28.74 28.74 0 0 0 .74-3.42h-2.07zM422.29 157a13.33 13.33 0 0 0 2.39-3.85c-.78-.87-1.6-1.71-2.39-2.43zM450.27 159.92a11.17 11.17 0 0 0 1.77-.28c2.55-.58 4.82-2.43 4.82-5.64a5.26 5.26 0 0 0-4.78-5.54 46 46 0 0 1-1.18 5.54c-1.21 4.06-2.86 6.32-4.84 6.32s-3.78-2.22-3.78-5.54c0-4.42 3.92-8.25 8.9-8.25 4.78 0 7.81 3.33 7.81 7.51s-2.67 7-7.53 7.73zm-1.4-6.3a27.83 27.83 0 0 0 1.13-5.12 6.66 6.66 0 0 0-5.66 6.14c0 2.29 1 3.34 1.83 3.34s1.77-1.29 2.7-4.36zM469.32 155.49c-.26-.65-.83-1.73-1.33-2.74v10h-1.83v-8.85a20.24 20.24 0 0 1-2.24 5 10.86 10.86 0 0 0-.92-1.9 19.93 19.93 0 0 0 3-7.19h-2.59v-1.71h2.73v-3.78H468v3.78h2.43v1.72H468v.62c.54.75 2.07 3.16 2.43 3.74zm8.65-1a15.28 15.28 0 0 0 4 5.66 7.66 7.66 0 0 0-1.37 1.47 18.76 18.76 0 0 1-3.63-5.7v6.8h-1.83v-6.66a15.81 15.81 0 0 1-4.56 5.72 7.49 7.49 0 0 0-1.24-1.45 14.26 14.26 0 0 0 4.84-5.84h-3.64v-1.71h4.6v-3.17h-2.23a11.56 11.56 0 0 1-1.24 2.71 11.09 11.09 0 0 0-1.49-.94 15.07 15.07 0 0 0 2-6.13l1.73.29c-.13.82-.29 1.6-.47 2.37h1.73v-3.6H477v3.6h3.83v1.7H477v3.17h4.44v1.71zM491.07 144.88a29.17 29.17 0 0 1-1.87 4.12v13.71h-1.74v-10.92a21.54 21.54 0 0 1-1.59 1.93 16.53 16.53 0 0 0-1-1.83 21.71 21.71 0 0 0 4.49-7.55zm8.74 3.08v2.93h3.53v11.36h-1.81v-1.12h-8.77v1.22H491v-11.46h3.37V148h-3.59v-1.69h12.67V148zm-7.05 11.54h1.81v-6.95h-1.81zM498 148h-1.89v2.93H498zm-1.89 4.59v6.95H498v-6.95zm5.38 0h-1.9v6.95h1.9zM517.39 145.12H519l-5.58 19.64h-1.62zM530.3 148.34a16.86 16.86 0 0 1-2 1.3 12.46 12.46 0 0 0-1.36-1.36 15 15 0 0 0 5.22-4l1.73.62a16.62 16.62 0 0 1-1.83 2v4.64h-1.76zm4.7 12.17a27.62 27.62 0 0 1-6.16 2.28 10.37 10.37 0 0 0-1.37-1.36 23.49 23.49 0 0 0 5.86-1.69zm-5-8.34h13.09v7.55h-13.01zm1.83 2.17h9.38v-1h-9.38zm0 2.13h9.38v-1.05h-9.38zm0 2.13h9.38v-1h-9.38zm6.2-12.27c-1.22.06-2.47.12-3.63.14a5.47 5.47 0 0 0-.38-1.21 69.38 69.38 0 0 0 9-.78l1 1.17c-1.19.22-2.65.4-4.2.54v1.2h5.4v1.35h-5.4v1.2h4.6v1.35H533.9v-1.35h4.21v-1.2h-5v-1.35h5zm1.35 13.45c2.13.64 4.54 1.47 6 2.05l-2.21.9a39.32 39.32 0 0 0-5.34-2zM559.45 160.51H567v1.62h-16.89v-1.62h7.37V156h-6.41v-1.61h6.41V152h-3.94v-1a29.9 29.9 0 0 1-3.13 2 7 7 0 0 0-1.16-1.51 21.63 21.63 0 0 0 8.19-7.11h1.91a22.12 22.12 0 0 0 8.59 6.87 11.34 11.34 0 0 0-1.21 1.66 26.07 26.07 0 0 1-3.21-2V152h-4.07v2.39H566V156h-6.54zm-5.39-4.26a12.83 12.83 0 0 1 1.87 3.45l-1.62.72a13.57 13.57 0 0 0-1.77-3.57zm8.78-5.95a22.55 22.55 0 0 1-4.36-4.21 21.53 21.53 0 0 1-4.15 4.21zm-2.07 9.5a22.27 22.27 0 0 0 2-3.57l1.79.66a36.22 36.22 0 0 1-2.43 3.53zM578.55 154.52l-2.51.72v5.41c0 1-.2 1.46-.78 1.74a6.87 6.87 0 0 1-2.82.32 7.26 7.26 0 0 0-.54-1.7h1.91c.24 0 .38-.08.38-.38v-4.86c-.86.26-1.68.48-2.43.68l-.48-1.81c.8-.2 1.81-.42 2.91-.72v-4h-2.63v-1.72h2.63v-3.9H576v3.9h2.19v1.72H576v3.48c.74-.2 1.51-.4 2.27-.63zm.84-.66h9.52v8.75h-1.85v-.8h-5.9v.9h-1.77zm7.39-3.13c1.05 0 1.21-.37 1.35-2.41a5.82 5.82 0 0 0 1.68.68c-.24 2.71-.8 3.41-2.91 3.41h-4.31c-2.51 0-3.18-.54-3.18-2.51v-5.54h1.85v2.83a31.19 31.19 0 0 0 6-1.83l1.39 1.37a40.48 40.48 0 0 1-7.35 2v1.2c0 .71.24.83 1.47.83zm-5.62 4.67v1.69h5.9v-1.69zm5.9 4.9v-1.74h-5.9v1.74zM599.5 156.37c-.26-.64-.84-1.75-1.36-2.69v9h-1.73v-8.49a18.66 18.66 0 0 1-2.15 4.82 9.52 9.52 0 0 0-.88-1.61 21.43 21.43 0 0 0 2.87-7.17h-2.45v-1.72h2.61v-4.21h1.73v4.24h2.12v1.72h-2.12v1.19c.56.74 2 3 2.36 3.55zm4.42 2.55a12.89 12.89 0 0 1-3.19 3.23 7.45 7.45 0 0 0-1.17-1.14 11 11 0 0 0 2.91-2.87zm3.05-1.11V161c0 .78-.12 1.24-.7 1.48a6.62 6.62 0 0 1-2.55.26 5.81 5.81 0 0 0-.52-1.5h1.74c.22 0 .28-.06.28-.26v-3.16h-4.92v-1.52H612v1.52zm-3.09-11.14h-3.48v-1.53H612v1.53h-3.59v1.18h3.07v4.88H601v-4.88h2.85zm-2.31 8.47v-1.4h9.36v1.4zm1-3.77H604v-2.11h-1.47zm4.32-4.7h-1.55v1.18h1.55zm-1.55 2.59v2.11h1.55v-2.11zm4 8.92a20 20 0 0 1 2.75 3l-1.38 1a21.92 21.92 0 0 0-2.68-3.09zm.46-8.92h-1.64v2.11h1.64z"/><path class="cls-4" d="M193.21 40.36v19.2h-1.81v-1.42h-11.48v1.51h-1.74V40.36zm-13.29 1.69v6.25h11.48v-6.25zm11.48 14.4V50h-11.48v6.46zM211.17 45.34a20.76 20.76 0 0 0 8.89 9.4 6.14 6.14 0 0 0-1.27 1.51 22.93 22.93 0 0 1-8.69-9.46v7.09h4.4v1.72h-4.4v4.3h-1.78v-4.3h-4.52v-1.72h4.52v-7.09a24.15 24.15 0 0 1-8.66 9.48 7 7 0 0 0-1.23-1.39 22.14 22.14 0 0 0 8.83-9.54h-8v-1.72h9.1v-4.84h1.78v4.84h9.18v1.72zM233.53 38.71a29 29 0 0 0 10.1 9 9.56 9.56 0 0 0-1.14 1.48 31.75 31.75 0 0 1-9.72-8.78 30.28 30.28 0 0 1-9.55 8.92 5.58 5.58 0 0 0-1.09-1.33 27.4 27.4 0 0 0 9.66-9.27zm.35 18.95h8.8v1.6h-19.57v-1.6H226v-8.53h1.72v8.53h4.37V45h1.79v5.4h6.64v1.55h-6.64zM258.9 54.42a21.36 21.36 0 0 0 8.27 3.66A6.32 6.32 0 0 0 266 59.6a21.93 21.93 0 0 1-8.71-4.74v5h-1.69V55a23.13 23.13 0 0 1-8.6 4.53 7.26 7.26 0 0 0-1.11-1.45 22.44 22.44 0 0 0 8.11-3.66h-7.58V53h9.15v-1.76h-7v-1.32h7v-1.69h-8.13v-1.41h5.05a9.91 9.91 0 0 0-1.13-2.32l.81-.16h-5.66v-1.48h3.69a18.51 18.51 0 0 0-1.83-3.36l1.46-.49a16.3 16.3 0 0 1 2 3.41l-1.19.44h2.85v-4.1h1.6v4.1h2.76v-4.1h1.62v4.1h2.8l-.85-.28a26.88 26.88 0 0 0 1.76-3.52l1.76.46a32.6 32.6 0 0 1-2 3.34h3.59v1.48h-4.63c-.47.88-1 1.78-1.44 2.48h5.26v1.41h-8.42v1.69h7.25v1.32h-7.25V53h9.29v1.46zm-5.77-10.08a8.81 8.81 0 0 1 1.16 2.32l-.74.16H259l-.23-.07a19.28 19.28 0 0 0 1.18-2.41zM278.41 40.22c-.09.44-.21.9-.28 1.36-.14.67-.34 2-.6 3.25 1.07-.1 2-.17 2.57-.17 2.06 0 3.73.81 3.73 3.92 0 2.73-.37 6.34-1.32 8.27a3.25 3.25 0 0 1-3.36 1.9 14.15 14.15 0 0 1-2.71-.33l-.3-2A10.24 10.24 0 0 0 279 57a1.91 1.91 0 0 0 2-1.18 19 19 0 0 0 1.09-7c0-2.09-.95-2.46-2.43-2.46-.56 0-1.46.07-2.46.16a45.86 45.86 0 0 1-4.82 12.3l-1.91-.82c2.34-3.13 4-8.29 4.81-11.35-1.2.11-2.29.23-2.89.3s-1.48.16-2.06.28l-.19-2h2c.7 0 2.09-.14 3.47-.25a24.27 24.27 0 0 0 .58-5zm7.88 2.61a39.61 39.61 0 0 1 4.19 8.17l-1.78.88a28.06 28.06 0 0 0-4.1-8.25zm.95.37a30.26 30.26 0 0 0-1.88-3.2l1.23-.5a32.93 32.93 0 0 1 1.92 3.17zm2.61-1a26.19 26.19 0 0 0-1.92-3.19l1.23-.51a30 30 0 0 1 1.94 3.15zM308.92 53.65v-1h-4.35v1.14h-1.69v-7.6h-4.31v10.36h14.87v1.66h-14.87v1.69h-1.76V46.17h-3.45v-1.65h3.45v-5.14h1.76v5.14h4.31V38.9h1.69v5.62h4.35v-5.35h1.72v5.35h3.59v1.65h-3.59v7.48zm0-2.64v-4.84h-4.35V51zM330.77 48.76a15.83 15.83 0 0 0 7.23 4 6.29 6.29 0 0 0-1.13 1.46 17.77 17.77 0 0 1-4.73-2.32v8h-1.76v-8h1.72a15.32 15.32 0 0 1-3.34-3.11h-2.55a18.52 18.52 0 0 1-8.13 5.54 7.14 7.14 0 0 0-1.16-1.41 17.23 17.23 0 0 0 7.21-4.13h-4.61v-9.27h15.79v9.24zm-7.71 3.11h1.74v1.41c0 2.2-.53 5-5 6.79a6.82 6.82 0 0 0-1.19-1.37c4-1.51 4.45-3.75 4.45-5.49zm-1.85-8.43h5.3V41h-5.3zm0 3.86h5.3v-2.5h-5.3zm12.34-6.3h-5.35v2.46h5.35zm0 3.82h-5.35v2.5h5.35zM351.37 55c.07-.88.1-2.37.1-3.57-2.13 1.16-3.62 2.34-3.62 3.85 0 1.8 1.79 2.06 4.15 2.06a40 40 0 0 0 6.25-.56v1.88a58.8 58.8 0 0 1-6.28.37c-3.29 0-5.93-.7-5.93-3.5s2.73-4.42 5.4-5.81a2 2 0 0 0-2.06-1.42 6.08 6.08 0 0 0-4 1.69c-.65.63-1.3 1.49-2.09 2.41l-1.57-1.18a24.49 24.49 0 0 0 5.28-7h-.95c-1 0-2.53 0-3.78-.14v-1.71c1.23.14 2.83.23 3.87.23h1.51a12.25 12.25 0 0 0 .57-2.85l1.9.16c-.16.65-.37 1.6-.69 2.64a60.48 60.48 0 0 0 7-.69v1.71a69.44 69.44 0 0 1-7.59.65 16.16 16.16 0 0 1-2.07 3.52 6.58 6.58 0 0 1 3.18-.86A2.88 2.88 0 0 1 353 49c1.58-.74 3-1.3 4.17-1.85.7-.31 1.25-.58 1.9-.91l.74 1.74c-.58.16-1.41.49-2 .72-1.3.51-2.94 1.18-4.68 2 0 1.32 0 3.27.07 4.38zM385.06 41.1v1.55h-17.49v5.07c0 3.57-.28 8.78-2.27 12.28a5.94 5.94 0 0 0-1.41-1c1.9-3.28 2.06-8 2.06-11.3v-6.6h8.5v-2.32h1.76v2.32zm-4 4.17h3.77v1.46h-3.77v3.77h-3.73v1.83h6.25v4.89c0 .83-.16 1.3-.81 1.53a11.47 11.47 0 0 1-3.38.25 6.33 6.33 0 0 0-.51-1.5h2.62c.33 0 .41-.07.41-.33v-3.33h-4.58V60h-1.69v-6.16h-4.38v5.3h-1.69v-6.81h6.07V50.5h-3.83v-3.77h-3.47v-1.46h3.47v-2h1.63v2h6v-2h1.65zm-1.65 1.46h-6v2.36h6zM405.66 51.71c-.14 2.38-.28 3.42-.67 3.84a1.41 1.41 0 0 1-1.11.46 13.63 13.63 0 0 1-2 0 3 3 0 0 0-.37-1.27c.79.07 1.48.09 1.74.09a.69.69 0 0 0 .55-.16c.19-.23.3-.79.39-2.18h-4.93v5c0 .74.23.88 1.6.88h4.68c1.13 0 1.3-.37 1.41-2.61a5 5 0 0 0 1.53.6c-.23 2.85-.74 3.54-2.8 3.54h-4.91c-2.44 0-3.13-.46-3.13-2.38V52a14.15 14.15 0 0 1-2.64 2.39 7.38 7.38 0 0 0-1.18-1.29 12.42 12.42 0 0 0 4-4h-3.13l.16 1-2.52.83v7c0 1-.21 1.42-.79 1.69a7 7 0 0 1-2.87.3 7 7 0 0 0-.51-1.57h2.18c.28 0 .39-.07.39-.42v-6.48l-2.76.9-.44-1.66c.88-.24 2-.58 3.2-.95V45h-2.89v-1.59h2.89v-4.63h1.6v4.63h2.48v.65a11.26 11.26 0 0 0 2.68-4.17l1.49.37a15.63 15.63 0 0 1-2 3.62h2.92a36.35 36.35 0 0 0 .92-5.12l1.62.18a44.7 44.7 0 0 1-.9 4.94h5.17v1.46h-2.53a18.28 18.28 0 0 0 .88 2.24h3.68v1.48h-2.94a10.2 10.2 0 0 0 3.43 3.53 5.35 5.35 0 0 0-1.14 1.34 10.84 10.84 0 0 1-2.43-2.27zm-7.11-4.13a21.76 21.76 0 0 0 .88-2.24h-2.78v-1.09c-.23.27-.46.55-.69.78-.26-.18-.84-.6-1.23-.83v.8h-2.48v4.26c.76-.23 1.53-.49 2.29-.74l.07.49v-1.43zm6.69 3.52a16.92 16.92 0 0 1-1.22-2h-4.45a14 14 0 0 1-1.28 2zm-4.17-5.76a22 22 0 0 1-.81 2.24h3.08c-.27-.72-.55-1.48-.76-2.24zm6.28-.58a21.61 21.61 0 0 0-3.1-4.31l1.27-.67a21 21 0 0 1 3.17 4.22zM418.27 40.17a22.2 22.2 0 0 0-.23 2.29c-.1 2.6-.28 8-.28 11.45 0 2.52 1.62 3.4 3.75 3.4 4.22 0 6.6-2.36 8.25-4.75l1.27 1.6a11.42 11.42 0 0 1-9.56 5.05c-3.29 0-5.56-1.39-5.56-5.12 0-3.4.23-9.19.23-11.63a11.65 11.65 0 0 0-.21-2.31zM438.08 42.65c1.51-.14 5.84-.58 10.05-.93 2.51-.21 4.66-.32 6.19-.39v1.85a19.05 19.05 0 0 0-4.5.37 8 8 0 0 0-5.23 7.23c0 4.49 4.17 5.91 7.9 6l-.67 1.93c-4.24-.17-9.08-2.44-9.08-7.55a9.24 9.24 0 0 1 4.26-7.7c-2 .23-8.27.83-10.75 1.34l-.21-2c.88-.06 1.6-.11 2.04-.15zM462.66 44.25c0 1.43 0 3.54.17 5.42.37 3.84 1.48 6.37 3.1 6.37 1.18 0 2.25-2.37 2.85-4.68l1.46 1.64c-1.37 3.89-2.78 5.21-4.36 5.21-2.15 0-4.23-2.16-4.86-8.11-.23-2-.26-4.77-.26-6.11a12.78 12.78 0 0 0-.13-2h2.22c-.09.59-.16 1.65-.19 2.26zm16.17 9.63l-1.87.74c-.4-4.12-1.79-8.66-4-11.35l1.8-.62a23.54 23.54 0 0 1 4.07 11.23zM495.17 44.5a44.81 44.81 0 0 1-4.75.79c-.21 1-.46 2.06-.72 3a67 67 0 0 1-3.59 10.52l-2-.67a50.94 50.94 0 0 0 3.85-10.26c.21-.77.39-1.6.58-2.44-.74.05-1.44.07-2.09.07-1 0-1.85 0-2.66-.09l-.07-1.81a20.42 20.42 0 0 0 2.76.17c.76 0 1.57-.05 2.45-.1.16-.83.28-1.55.35-2a10.54 10.54 0 0 0 .07-1.9l2.25.18a17.59 17.59 0 0 0-.42 1.83l-.35 1.7a34.26 34.26 0 0 0 4.38-.84zm-.9 8a8.1 8.1 0 0 0-.33 2.06c0 1.09.51 2.13 3.78 2.13a25.18 25.18 0 0 0 4.47-.44l-.07 1.88a34.56 34.56 0 0 1-4.43.3c-3.61 0-5.51-1.11-5.51-3.38a12.67 12.67 0 0 1 .35-2.71zm-.58-5.5c1.2-.12 2.71-.19 4.19-.19a36.36 36.36 0 0 1 4 .19v1.76a32.54 32.54 0 0 0-3.86-.28 37.27 37.27 0 0 0-4.24.25zM513.29 55.39h-5v1.87h-1.57v-17h6.55zm-5-13.55V47h3.36v-5.16zm3.36 12v-5.35h-3.36v5.35zm12.53-6.33v2.62h2.69v1.53h-2.67v6.21c0 1-.25 1.48-1 1.73a13 13 0 0 1-3.75.28 5.18 5.18 0 0 0-.56-1.6h3.08c.37 0 .51-.12.51-.47v-6.15h-8.75v-1.53h8.75v-2.62h-8.87V46h5.82v-3h-4.82v-1.49h4.82v-2.75h1.69v2.75h5V43h-5v3h6v1.53zm-7.62 5a16.28 16.28 0 0 1 3 3.94l-1.46.92a17.73 17.73 0 0 0-2.94-4.07zM537.41 39.54a30.39 30.39 0 0 1-2.48 4.68v15.66h-1.74V46.7a25.82 25.82 0 0 1-3.1 3.41 10.62 10.62 0 0 0-1-1.67 26.08 26.08 0 0 0 6.69-9.4zm6.12 7.83c.78 6.14 2.29 10.29 4.77 10.52.67 0 1-1.32 1.27-4a7.1 7.1 0 0 0 1.44.9c-.51 4-1.44 5.16-2.64 5.09-3.8-.27-5.66-5.07-6.54-12.29l-5.55.69-.28-1.6 5.61-.7c-.19-2.15-.35-4.44-.44-6.85h1.71c.07 2.34.21 4.58.44 6.62l6.93-.88.23 1.62zm5.21-3.47a25.32 25.32 0 0 0-3.74-3.8l1.25-.83a24.68 24.68 0 0 1 3.82 3.7zM559.93 50.94a21.63 21.63 0 0 1 3.41-11.74l1.32.6a21.35 21.35 0 0 0-3 11.14 21.3 21.3 0 0 0 3 11.14l-1.32.63a21.76 21.76 0 0 1-3.41-11.77zM566.91 55.76l1.53-1.09a3.2 3.2 0 0 0 2.94 1.9c1.83 0 2.73-1 2.73-3.61V41.17h2.13v12c0 2.92-1.34 5.29-4.65 5.29a5 5 0 0 1-4.68-2.7zM580.32 54.88c0-2.73 2.39-4.1 7.74-4.7 0-1.62-.53-3.18-2.59-3.18a6.89 6.89 0 0 0-3.78 1.35l-.83-1.46a9.47 9.47 0 0 1 4.95-1.65c3.06 0 4.36 2.06 4.36 5.17v7.73h-1.74l-.18-1.5h-.07a6.8 6.8 0 0 1-4.18 1.81 3.42 3.42 0 0 1-3.68-3.57zm7.74.21v-3.52c-4.24.51-5.67 1.55-5.67 3.17 0 1.44 1 2 2.22 2a5.12 5.12 0 0 0 3.45-1.65zM594.64 45.57h1.74l.19 1.43h.07a6.71 6.71 0 0 1 4-1.76c3.25 0 5 2.55 5 6.42 0 4.31-2.58 6.79-5.47 6.79A5.73 5.73 0 0 1 596.7 57v6.46h-2.11zm8.81 6.11c0-2.78-.93-4.65-3.32-4.65a5.27 5.27 0 0 0-3.38 1.73v6.6a4.87 4.87 0 0 0 3.08 1.33c2.09 0 3.62-1.88 3.62-5.01zM608.68 54.88c0-2.73 2.39-4.1 7.74-4.7 0-1.62-.53-3.18-2.59-3.18a6.89 6.89 0 0 0-3.78 1.35l-.83-1.46a9.47 9.47 0 0 1 4.95-1.65c3.06 0 4.36 2.06 4.36 5.17v7.73h-1.74l-.18-1.5h-.07a6.8 6.8 0 0 1-4.17 1.81 3.42 3.42 0 0 1-3.69-3.57zm7.74.21v-3.52c-4.24.51-5.67 1.55-5.67 3.17 0 1.44 1 2 2.22 2a5.12 5.12 0 0 0 3.45-1.65zM623 45.57h1.74l.19 1.8h.07a6 6 0 0 1 4.21-2.13c2.64 0 3.85 1.72 3.85 4.94v8H631v-7.73c0-2.36-.72-3.35-2.39-3.35-1.29 0-2.17.64-3.45 1.92v9.12H623zM642.49 54.88c0-2.73 2.39-4.1 7.74-4.7 0-1.62-.54-3.18-2.6-3.18a6.83 6.83 0 0 0-3.77 1.35l-.86-1.46a9.47 9.47 0 0 1 5-1.65c3.06 0 4.35 2.06 4.35 5.17v7.73h-1.75l-.19-1.5h-.07a6.77 6.77 0 0 1-4.17 1.81 3.41 3.41 0 0 1-3.68-3.57zm7.74.21v-3.52c-4.24.51-5.68 1.55-5.68 3.17 0 1.44 1 2 2.22 2a5.14 5.14 0 0 0 3.46-1.65zM655.4 56.71l1-1.39a5.7 5.7 0 0 0 3.73 1.48c1.66 0 2.48-.88 2.48-2 0-1.27-1.49-1.85-2.88-2.38-1.73-.62-3.73-1.48-3.73-3.61s1.6-3.57 4.33-3.57a6.52 6.52 0 0 1 3.92 1.42l-1 1.36a4.72 4.72 0 0 0-2.9-1.11c-1.57 0-2.29.83-2.29 1.81 0 1.2 1.37 1.64 2.78 2.17 1.83.7 3.84 1.44 3.84 3.83 0 2-1.62 3.73-4.58 3.73a7.59 7.59 0 0 1-4.7-1.74zM674 41.17h2.23l6.18 10.7 1.81 3.49h.11c-.11-1.71-.27-3.61-.27-5.37v-8.82h2v17h-2.2l-6.18-10.72-1.83-3.5h-.09c.09 1.72.25 3.52.25 5.31v8.91h-2zM690.8 53.54v-8h2.11v7.71c0 2.34.69 3.34 2.36 3.34 1.3 0 2.2-.63 3.4-2.14v-8.88h2.11v12.57H699l-.16-2h-.07a5.41 5.41 0 0 1-4.17 2.27c-2.6.04-3.8-1.68-3.8-4.87zM705.49 45.57h1.74l.18 1.83h.07a5.52 5.52 0 0 1 3.91-2.16 3.32 3.32 0 0 1 3.48 2.41c1.3-1.41 2.62-2.41 4.15-2.41 2.59 0 3.82 1.72 3.82 4.94v8h-2.11v-7.73c0-2.36-.74-3.35-2.34-3.35-1 0-2 .62-3.17 1.92v9.12h-2.11v-7.69c0-2.36-.74-3.35-2.34-3.35-.95 0-2 .62-3.17 1.92v9.12h-2.11zM729.35 56.85h-.07l-.18 1.29h-1.69V39.71h2.11v5l-.07 2.29a6.29 6.29 0 0 1 3.93-1.79c3.27 0 5 2.55 5 6.4 0 4.33-2.57 6.81-5.47 6.81a5.58 5.58 0 0 1-3.56-1.57zm6.86-5.17c0-2.78-.93-4.65-3.31-4.65a5.18 5.18 0 0 0-3.38 1.73v6.6a4.79 4.79 0 0 0 3.08 1.33c2.08 0 3.61-1.88 3.61-5.01zM741.24 51.87c0-4.08 2.76-6.63 5.68-6.63 3.19 0 5 2.32 5 5.91a9.23 9.23 0 0 1-.09 1.2h-8.48c.14 2.69 1.78 4.4 4.17 4.4a5.46 5.46 0 0 0 3.15-1l.76 1.39a7.45 7.45 0 0 1-4.17 1.3c-3.33.01-6.02-2.44-6.02-6.57zm8.82-1c0-2.55-1.15-3.92-3.12-3.92-1.79 0-3.36 1.44-3.62 3.92zM755.49 45.57h1.74l.18 2.29h.07c.88-1.6 2.16-2.62 3.57-2.62a2.66 2.66 0 0 1 1.34.28l-.39 1.85a3 3 0 0 0-1.23-.2c-1 0-2.34.74-3.17 2.89v8.08h-2.11zM769.81 49.6c0-5.45 3-8.76 7.25-8.76s7.25 3.31 7.25 8.76-3 8.85-7.25 8.85-7.25-3.45-7.25-8.85zm12.3 0c0-4.26-2-6.88-5.05-6.88s-5 2.62-5 6.88 2 7 5 7 5.05-2.76 5.05-7zM788.25 45.57H790l.19 1.8h.07a6 6 0 0 1 4.21-2.13c2.64 0 3.85 1.72 3.85 4.94v8h-2.12v-7.73c0-2.36-.72-3.35-2.39-3.35-1.3 0-2.18.64-3.45 1.92v9.12h-2.11zM801.92 51.87c0-4.08 2.76-6.63 5.68-6.63 3.19 0 5 2.32 5 5.91a7.75 7.75 0 0 1-.09 1.2H804c.14 2.69 1.78 4.4 4.17 4.4a5.46 5.46 0 0 0 3.15-1l.77 1.39a7.51 7.51 0 0 1-4.17 1.3c-3.31.01-6-2.44-6-6.57zm8.83-1c0-2.55-1.16-3.92-3.13-3.92-1.78 0-3.36 1.44-3.61 3.92zM815 62.08a22.44 22.44 0 0 0 0-22.28l1.29-.6a21.86 21.86 0 0 1 0 23.51zM294.27 78.17a10.65 10.65 0 0 0-.39 1.55 55.57 55.57 0 0 0-1.14 9.28 20.49 20.49 0 0 0 .21 3.13c.37-1 .9-2.41 1.3-3.34l1 .77a49.34 49.34 0 0 0-1.62 5.07 4.05 4.05 0 0 0-.12 1c0 .23 0 .56.07.79l-1.64.14a27.91 27.91 0 0 1-.88-7.28 71.27 71.27 0 0 1 1-9.63 10.44 10.44 0 0 0 .16-1.62zm14.92 16.7a17.48 17.48 0 0 0-3.45-2.62v.42c0 1.9-.88 3.75-4 3.75S297 95.15 297 93.11s1.72-3.5 4.73-3.5a10.19 10.19 0 0 1 2.13.21c-.07-1.76-.21-4-.23-5.86-.75 0-1.46.05-2.2.05-1.3 0-2.51-.07-3.85-.14v-1.76a35.66 35.66 0 0 0 3.89.21h2.16v-2.9a9.32 9.32 0 0 0-.12-1.39h2.11a12 12 0 0 0-.14 1.37c0 .62 0 1.69-.07 2.75a28.06 28.06 0 0 0 4-.53v1.81c-1.25.21-2.59.34-4 .44 0 2.29.18 4.58.28 6.51a15.65 15.65 0 0 1 4.51 3zm-5.28-3.41a7.3 7.3 0 0 0-2.34-.37c-1.72 0-2.9.77-2.9 1.83s1.11 1.79 2.76 1.79c1.94 0 2.5-.95 2.5-2.48 0-.23 0-.49-.02-.77zM317.65 92.92c1.09 1.72 3.13 2.51 5.84 2.6 2.55.11 7.87 0 10.65-.14a6.21 6.21 0 0 0-.55 1.69c-2.6.12-7.49.16-10.08.05-3-.12-5.12-.93-6.55-2.74-1 1-2.09 2-3.22 3l-.91-1.65A35.7 35.7 0 0 0 316 93v-5.89h-2.94v-1.62h4.56zM317 81.83a17.22 17.22 0 0 0-3.7-3.83l1.32-1a17.41 17.41 0 0 1 3.73 3.77zm4.44 12.48h-1.53v-10h1.81v-7.09h9.47v7.11h1.79v8.29c0 .79-.14 1.21-.72 1.44a8 8 0 0 1-2.83.25 6.47 6.47 0 0 0-.46-1.39h2.06c.23 0 .37-.12.37-.33V85.7h-10zm1.79-10h2.27v-3.87h4.14v-1.88h-6.41zm6.16 7.74h-4.66V93h-1.34v-5.82h6zM328 88.41h-3.31v2.45H328zm1.6-4.08v-2.69h-2.85v2.69zM354.44 85.1a31.44 31.44 0 0 1-3.89 1c.67 1.44 1.41 3 2 4.22l-.88 1.11c-1.16-.19-3-.44-4.5-.63l.17-1.43c1.13.14 2.2.25 2.91.32-.44-.9-1-2.11-1.5-3.29a56.39 56.39 0 0 1-10.26.21l-.07-1.71a45.83 45.83 0 0 0 9.63 0l-.77-1.9-.51-1.18a45.34 45.34 0 0 1-8.06 0l-.11-1.69a42 42 0 0 0 7.5.18c-.09-.25-.21-.46-.3-.67a10.86 10.86 0 0 0-.86-1.65l2.06-.49c.23.76.53 1.64.88 2.52a18.06 18.06 0 0 0 4-.92l.33 1.66a22.09 22.09 0 0 1-3.69.81l.4 1c.21.47.53 1.21.92 2.07a25.11 25.11 0 0 0 4.24-1.14zm-13.2 4.77a7.87 7.87 0 0 0-.53 2.34c0 1.76 1.38 2.87 4.67 2.87a28.82 28.82 0 0 0 5.63-.51v1.85a34.76 34.76 0 0 1-5.54.44c-4.08 0-6.49-1.41-6.49-4.26a10 10 0 0 1 .54-2.87zm11.88-12.65a25.13 25.13 0 0 1 1.88 3.22l-1.2.56a20.47 20.47 0 0 0-1.8-3.27zm2.43-.93a26.32 26.32 0 0 1 2 3.15l-1.18.58a21.36 21.36 0 0 0-1.94-3.19zM369.92 87.67c-1 2.24-2.27 4.91-3.43 7 3.22-.14 6.91-.31 10.5-.49a44.41 44.41 0 0 0-3-3.82l1.57-.77a39.72 39.72 0 0 1 5.35 7.3l-1.69.9c-.28-.58-.67-1.25-1.11-2-6 .35-12.37.63-16.56.84l-.26-1.81c1 0 2.07-.07 3.25-.12a55 55 0 0 0 3.19-7h-7.25V86h9.34v-4.4h-7.55v-1.69h7.55v-3.5h1.78v3.5h7.83v1.69h-7.83V86h9.55v1.69zM390.73 77.59a42.16 42.16 0 0 0-1.07 6.41c.91-2.36 3.32-5.21 6.21-5.21 3.06 0 5.26 3.06 5.26 7.87 0 6.37-4 9.18-9.71 10.22l-1.08-1.67c5-.76 8.87-2.76 8.87-8.52 0-3.62-1.21-6.21-3.64-6.21-2.85 0-5.49 4.15-5.77 7.16a9.85 9.85 0 0 0 .05 2.8l-1.81.14a29.34 29.34 0 0 1-.23-3.64 59.61 59.61 0 0 1 .7-7.41c.09-.72.16-1.41.18-2zM412.79 97.09a37.32 37.32 0 0 0-5.12-5.16l1.5-1.32a42.67 42.67 0 0 1 5.19 5.14zM438.25 88.87c-.32-.79-1.13-2.29-1.81-3.52v12.21h-1.69V86.25a25.71 25.71 0 0 1-2.89 6.63 8.81 8.81 0 0 0-.95-1.67 24.74 24.74 0 0 0 3.66-8.73h-3.13v-1.62h3.31v-4.45h1.69v4.45h2.95v1.62h-2.95v.76c.63.86 2.46 3.73 2.85 4.43zm9.48-.9a18.48 18.48 0 0 0 5 7 6.33 6.33 0 0 0-1.26 1.32 21.8 21.8 0 0 1-4.74-7.29v8.53H445v-8.29a20 20 0 0 1-5.63 7.18 6.48 6.48 0 0 0-1.18-1.32 17.71 17.71 0 0 0 5.88-7.1h-4.52v-1.61H445v-4.07h-2.87a14.87 14.87 0 0 1-1.51 3.4 7.26 7.26 0 0 0-1.41-.86 18.14 18.14 0 0 0 2.36-7.36l1.6.28c-.16 1-.37 2-.6 3H445v-4.35h1.69v4.31h4.52v1.58h-4.52v4.07h5.33V88zM461.24 77a37.29 37.29 0 0 1-2.23 4.8v15.73h-1.64V84.42a23.29 23.29 0 0 1-2.16 2.69 12.59 12.59 0 0 0-.95-1.62 25.58 25.58 0 0 0 5.4-9zm10 3.34v3.78h4.21v13h-1.67v-1.44H462.9v1.51h-1.57V84.08h4V80.3H461v-1.55h14.64v1.55zm-8.34 13.81h2.58v-8.52h-2.58zm6.72-13.85H467v3.78h2.64zM467 85.63v8.52h2.64v-8.52zm6.83 0h-2.68v8.52h2.68zM482.93 79.17c.18.37.57 1.11.81 1.5l1.32 2.64c2.75-1.23 5.86-2.45 8.24-2.45 3.18 0 5.12 1.83 5.12 4.33s-1.69 4.65-5.28 4.65a10.16 10.16 0 0 1-3.43-.65l.07-1.85a7.58 7.58 0 0 0 3.24.77c2.53 0 3.55-1.37 3.55-3 0-1.39-1.07-2.62-3.34-2.62-2 0-4.81 1.09-7.46 2.32.31.62.61 1.27.88 1.9 1.26 2.82 2.69 7.11 3.48 9.63l-2 .54a67.73 67.73 0 0 0-3.13-9.4c-.28-.65-.58-1.3-.86-1.9-1.76.86-3.36 1.69-4.4 2.16l-.9-1.9c.67-.19 1.48-.47 1.9-.63.76-.3 1.69-.72 2.69-1.16a27 27 0 0 0-1.3-2.52 14.11 14.11 0 0 0-1.13-1.62zm6.87 1.64a26.62 26.62 0 0 0-3-2.66l1.34-1a28.48 28.48 0 0 1 3 2.6zM505.61 80.6a23.9 23.9 0 0 1-2.61 1.76 9.21 9.21 0 0 0-1.26-1.23 18.42 18.42 0 0 0 6.12-4.72l1.57.58a15.45 15.45 0 0 1-2.13 2.24v5.38h-1.64zm5.1 14.46a32.42 32.42 0 0 1-7.14 2.57 10.72 10.72 0 0 0-1.25-1.28 30.14 30.14 0 0 0 6.83-2zm-5.42-9.59h15v8.66h-15zM507 88h11.58v-1.42H507zm0 2.48h11.58v-1.4H507zm0 2.52h11.58v-1.42H507zm7.69-14.48c-1.55.12-3.12.19-4.58.23a4.93 4.93 0 0 0-.35-1.11 85.86 85.86 0 0 0 10.52-1l1 1.09c-1.36.25-3.1.48-5 .64v1.67h6.51v1.28h-6.51V83h5.46v1.28h-12.2V83h5.09v-1.63h-6.07v-1.28h6.07zm1.25 15.87a69.12 69.12 0 0 1 7 2.29l-2 .86a59.94 59.94 0 0 0-6.47-2.3zM537 95.29h9.06v1.53h-19.64v-1.53h8.8v-5.72h-7.76v-1.51h7.76V85h-4.77v-1.36a31 31 0 0 1-3.82 2.4 5.83 5.83 0 0 0-1-1.34 25.86 25.86 0 0 0 9.59-8.31h1.72a27.27 27.27 0 0 0 10.05 8 7.74 7.74 0 0 0-1.11 1.53 28.55 28.55 0 0 1-3.88-2.4V85h-5v3.1h8v1.51h-8zm-6.23-5.1a14.87 14.87 0 0 1 2.2 4.12l-1.48.68a15.91 15.91 0 0 0-2.11-4.27zm11.05-6.76a27.45 27.45 0 0 1-5.7-5.38 25.32 25.32 0 0 1-5.42 5.38zm-2.89 11a27.41 27.41 0 0 0 2.47-4.27l1.62.63A37.23 37.23 0 0 1 540.2 95zM554.24 78.17a10.65 10.65 0 0 0-.39 1.55 56.65 56.65 0 0 0-1.14 9.28 20.49 20.49 0 0 0 .21 3.13c.37-1 .91-2.41 1.3-3.34l1 .77a49.34 49.34 0 0 0-1.62 5.07 3.62 3.62 0 0 0-.11 1 7 7 0 0 0 .07.79l-1.65.14a27.91 27.91 0 0 1-.88-7.28 72.93 72.93 0 0 1 1-9.63 9.4 9.4 0 0 0 .17-1.62zm14.92 16.7a17.2 17.2 0 0 0-3.45-2.62v.42c0 1.9-.88 3.75-4 3.75S557 95.15 557 93.11s1.72-3.5 4.73-3.5a10.19 10.19 0 0 1 2.13.21c-.07-1.76-.21-4-.23-5.86-.74 0-1.46.05-2.2.05-1.3 0-2.5-.07-3.85-.14v-1.76a35.66 35.66 0 0 0 3.89.21h2.16v-2.9a9.32 9.32 0 0 0-.12-1.39h2.11a12 12 0 0 0-.14 1.37c0 .62 0 1.69-.07 2.75a28.06 28.06 0 0 0 4-.53v1.81c-1.25.21-2.59.34-4 .44 0 2.29.19 4.58.28 6.51a15.85 15.85 0 0 1 4.52 3zm-5.28-3.41a7.3 7.3 0 0 0-2.34-.37c-1.71 0-2.9.77-2.9 1.83s1.12 1.79 2.76 1.79c2 0 2.5-.95 2.5-2.48 0-.23 0-.49-.02-.77zM584 79.84V84l.3-.35a57.49 57.49 0 0 1 8.22 4.8L591.27 90a52.6 52.6 0 0 0-7.27-4.65v12.18h-1.83V79.84h-8.85v-1.72h20.45v1.72zM605.4 77.87c-.09.44-.21.9-.28 1.36-.13.68-.34 2-.6 3.25 1.07-.09 2-.16 2.57-.16 2.06 0 3.73.81 3.73 3.91 0 2.73-.37 6.35-1.32 8.27a3.24 3.24 0 0 1-3.36 1.9 13.4 13.4 0 0 1-2.71-.33l-.3-2a10.69 10.69 0 0 0 2.83.51 1.92 1.92 0 0 0 2-1.19 19 19 0 0 0 1.09-7c0-2.09-.95-2.46-2.43-2.46-.56 0-1.46.07-2.46.17a45.93 45.93 0 0 1-4.82 12.29l-1.87-.76c2.34-3.13 4-8.29 4.82-11.35l-2.9.3c-.56.07-1.48.16-2.06.28l-.19-2h2c.7 0 2.09-.13 3.48-.25a25.65 25.65 0 0 0 .58-5zm7.88 2.62a38.81 38.81 0 0 1 4.19 8.15l-1.78.88a27.94 27.94 0 0 0-4.1-8.25zm1 .37a28.39 28.39 0 0 0-1.88-3.22l1.23-.51a31 31 0 0 1 1.92 3.17zm2.61-1a24.42 24.42 0 0 0-1.92-3.2l1.23-.51a30.16 30.16 0 0 1 2 3.15zM625.1 86c1.64-.51 5.4-1.87 8.11-1.87 3.24 0 5.6 1.94 5.6 5.07 0 4.42-4.26 6.69-10.45 7.06l-.74-1.78c5-.16 9.32-1.55 9.32-5.3 0-1.95-1.53-3.36-3.87-3.36-2.85 0-7.86 2.08-9.34 2.66l-.73-1.97a16.38 16.38 0 0 0 2.1-.51zM646.9 80.3c1.51-.14 5.84-.58 10.06-.93 2.5-.2 4.65-.32 6.18-.39v1.85a19.46 19.46 0 0 0-4.49.37 8 8 0 0 0-5.24 7.23c0 4.49 4.17 5.91 7.9 6l-.67 1.92c-4.24-.16-9.08-2.43-9.08-7.55a9.24 9.24 0 0 1 4.26-7.74c-2 .23-8.27.83-10.75 1.34l-.21-2c.88-.01 1.6-.05 2.04-.1zM671.49 81.9c0 1.43 0 3.54.16 5.42.37 3.84 1.48 6.37 3.1 6.37 1.18 0 2.25-2.36 2.85-4.68l1.46 1.67c-1.37 3.89-2.78 5.21-4.35 5.21-2.16 0-4.24-2.16-4.87-8.11a61 61 0 0 1-.25-6.11 12.8 12.8 0 0 0-.14-2l2.22.05c-.09.51-.16 1.58-.18 2.18zm16.16 9.63l-1.87.75c-.4-4.13-1.79-8.67-4-11.35l1.8-.63a23.48 23.48 0 0 1 4.07 11.23zM707.42 79.72c-.42.28-.93.63-1.27.88-1.14.86-4.22 3.57-6 5.05a9.65 9.65 0 0 1 3.1-.49c3.82 0 6.58 2.32 6.58 5.42 0 3.71-3.08 6.12-7.92 6.12-3.13 0-5-1.39-5-3.29a3.26 3.26 0 0 1 3.54-3 4.53 4.53 0 0 1 4.73 4 4 4 0 0 0 2.82-3.85c0-2.25-2.27-3.89-5.17-3.89-3.77 0-5.86 1.6-8.78 4.56l-1.34-1.36 6.19-5.15c1.27-1.06 4.12-3.47 5.25-4.49-1.2 0-5.72.26-6.9.33a11 11 0 0 0-1.55.13l-.05-1.92a12.94 12.94 0 0 0 1.62.07c1.19 0 6.63-.16 7.83-.28a8.35 8.35 0 0 0 1.25-.18zm-4 15.17c-.21-1.8-1.3-3-3-3-1 0-1.83.62-1.83 1.41 0 1.13 1.32 1.78 3 1.78a10.54 10.54 0 0 0 1.87-.19zM168.58 205.21c-.22-.54-.78-1.59-1.25-2.43v8.43h-1.17v-7.81a17.62 17.62 0 0 1-2 4.58 5.61 5.61 0 0 0-.65-1.15 17 17 0 0 0 2.52-6h-2.16v-1.12h2.29v-3.11h1.17v3.07h2v1.12h-2v.53c.43.59 1.7 2.58 2 3.06zm6.55-.63a12.83 12.83 0 0 0 3.44 4.81 4.19 4.19 0 0 0-.87.91 15.27 15.27 0 0 1-3.26-5v5.89h-1.17v-5.74a14 14 0 0 1-3.89 5 4 4 0 0 0-.82-.91 12.29 12.29 0 0 0 4-4.94h-3.12v-1.1h3.79v-2.82h-2a9.46 9.46 0 0 1-1 2.35 4.4 4.4 0 0 0-1-.59 12.57 12.57 0 0 0 1.63-5.09l1.1.19c-.11.71-.25 1.39-.41 2.05h1.68v-3h1.17v3h3.12v1.09h-3.12v2.82h3.68v1.08zM184.45 197a24.91 24.91 0 0 1-1.54 3.32v10.9h-1.13v-9.06a16.92 16.92 0 0 1-1.49 1.85 8.36 8.36 0 0 0-.66-1.12 17.66 17.66 0 0 0 3.73-6.22zm6.93 2.31v2.61h2.92v9h-1.16v-.94h-7.54v1h-1.08v-9.08h2.78v-2.61h-3v-1.08h10.11v1.08zm-5.78 9.57h1.78V203h-1.78zm4.65-9.57h-1.83v2.61h1.83zm-1.83 3.69v5.89h1.83V203zm4.72 0h-1.85v5.89h1.85zM201.84 204.55l-2.11.66v4.61c0 .67-.16 1-.58 1.18a5 5 0 0 1-2.11.21 4.39 4.39 0 0 0-.37-1.09h1.59c.19 0 .3-.06.3-.3v-4.26l-2.08.63-.33-1.16c.67-.17 1.5-.4 2.41-.65v-3.44h-2.22v-1.11h2.22v-3.22h1.17v3.22h1.87v1.11h-1.87V204c.64-.17 1.31-.36 2-.57zm6.77-2.73c.89 0 1-.28 1.13-2a3.35 3.35 0 0 0 1.08.47c-.17 2.08-.54 2.62-2.13 2.62H205c-1.83 0-2.33-.35-2.33-1.72v-4.52h1.17v2.39a30.08 30.08 0 0 0 5.13-1.49l.91.88a37.26 37.26 0 0 1-6 1.58v1.16c0 .54.19.64 1.22.64zm-6 2.41h7.5v6.92H209v-.67h-5.19v.73h-1.14zm1.14 1v1.58H209v-1.58zm5.25 4.27v-1.68h-5.19v1.68zM226.25 200.65a18.61 18.61 0 0 1-2 6.42 7.89 7.89 0 0 0 3.09 3.13 4 4 0 0 0-.81 1 8.59 8.59 0 0 1-3-3 10.46 10.46 0 0 1-3.71 3.07 5.85 5.85 0 0 0-.51-.83l-.37.38a16.29 16.29 0 0 0-1.87-1.26 9 9 0 0 1-3.91 1.66 2.43 2.43 0 0 0-.54-1A8.26 8.26 0 0 0 216 209c-.52-.26-1-.52-1.57-.74l-.26.45-1-.37c.35-.61.78-1.42 1.21-2.26h-1.81v-1h2.31c.24-.48.46-.94.65-1.38l.42.1v-2.21a10.08 10.08 0 0 1-2.8 2.35 3.81 3.81 0 0 0-.66-.89 8.66 8.66 0 0 0 3.14-2.55h-3v-1H216v-2.9h1.11v2.93h3.24v1h-3.24v.08c.68.4 2.41 1.49 2.84 1.81l-.65.85c-.42-.38-1.43-1.15-2.19-1.73v2.39h-.69l.27.06c-.18.35-.35.74-.55 1.12h4.28v1H219a6.7 6.7 0 0 1-1.14 2.68 16 16 0 0 1 1.84 1.17 8.87 8.87 0 0 0 3.2-2.92 21.43 21.43 0 0 1-1.44-4.42 10.33 10.33 0 0 1-1.17 2 6 6 0 0 0-1-.81 15.62 15.62 0 0 0 2.61-7.17l1.22.17c-.16.95-.37 1.88-.59 2.76h4.64v1.12zm-12-1.2a8.18 8.18 0 0 0-1-2.1l.9-.37a7.93 7.93 0 0 1 1 2.05zm1.35 6.62c-.23.45-.47.88-.67 1.3.64.26 1.28.54 1.9.85a5.17 5.17 0 0 0 1-2.15zm4.34-8.72c-.47.74-1 1.54-1.43 2.07l-.8-.39a13.73 13.73 0 0 0 1.19-2.11zm2.25 3.35a22.29 22.29 0 0 0 1.4 5.05 17.5 17.5 0 0 0 1.4-5.1h-2.78zM236 209.21a9.48 9.48 0 0 0 1.36-.19 4.75 4.75 0 0 0 4-4.69 4.4 4.4 0 0 0-4.21-4.6 34 34 0 0 1-.94 4.57c-1 3.25-2.24 4.93-3.72 4.93s-2.83-1.64-2.83-4.25a6.77 6.77 0 0 1 6.95-6.45 5.76 5.76 0 0 1 6.08 5.83c0 3.33-2.19 5.56-6 6zm-1-5.21a24.83 24.83 0 0 0 .88-4.27 5.52 5.52 0 0 0-4.89 5.12c0 2 .92 2.88 1.61 2.88s1.55-1.03 2.4-3.73zM250.29 204.68l-1.68.53v4.56c0 .67-.14 1-.54 1.22a5.55 5.55 0 0 1-2.12.21 4.49 4.49 0 0 0-.35-1.14h1.59c.21 0 .27-.07.27-.31v-4.21l-2.15.66-.27-1.16c.66-.15 1.51-.39 2.42-.67v-3.47h-2.15v-1.09h2.15v-3.2h1.15v3.2h1.55v1.09h-1.55v3.16l1.54-.45zm9.57 5.7h-7.23v.82h-1.14V202a12.47 12.47 0 0 1-1.18 1.52 8.68 8.68 0 0 0-.8-1 14.19 14.19 0 0 0 3.17-5.91l1.13.29a23 23 0 0 1-1 2.74h2.45a23.9 23.9 0 0 0 1.09-3l1.24.28c-.35.88-.78 1.86-1.16 2.68h3.18v1.07h-3.26v2.14h2.88v1h-2.88V206h2.88v1h-2.88v2.22h3.53zm-4.62-9.7h-2.61v2.14h2.61zm0 3.17h-2.61V206h2.61zm-2.61 5.44h2.61v-2.22h-2.61zM266.92 206.31a19.84 19.84 0 0 0-1.46-2v6.85h-1.15v-7.06a17.39 17.39 0 0 1-2.32 4.2 5.5 5.5 0 0 0-.6-1.09 16.55 16.55 0 0 0 2.76-5h-2.45v-1.12h2.61v-2.43c-.79.16-1.6.28-2.34.4a3.84 3.84 0 0 0-.37-.93 23.53 23.53 0 0 0 5.06-1.28l.83.89a12.48 12.48 0 0 1-2 .64v2.71h2v1.12h-2v1c.5.41 1.86 1.82 2.18 2.19zm9.28-1.93c-1.36 4-4.74 6-8.58 6.85a3.37 3.37 0 0 0-.61-1 12.82 12.82 0 0 0 4.87-1.92 13.19 13.19 0 0 0-2.29-1.73 16.62 16.62 0 0 1-1.57.91 3.06 3.06 0 0 0-.75-.81 10.28 10.28 0 0 0 4.7-4.09 13.16 13.16 0 0 1-4 1.86 4.26 4.26 0 0 0-.62-1 11.78 11.78 0 0 0 3.87-1.7 13.23 13.23 0 0 0-2-1.6 13.64 13.64 0 0 1-1.39.87 3.24 3.24 0 0 0-.77-.8 9.65 9.65 0 0 0 4.07-3.64l1.18.21a8.67 8.67 0 0 1-.8 1.17h2.91l.23-.05.73.35a9.13 9.13 0 0 1-3.41 4.29l1.2.21a11 11 0 0 1-.88 1.3h2.93l.23-.05zm-5.57-5.4a7.21 7.21 0 0 1-.64.59 11.44 11.44 0 0 1 2.06 1.59 7.45 7.45 0 0 0 1.78-2.18zm.75 6.12a10.75 10.75 0 0 1-.93.83 11 11 0 0 1 2.31 1.7 7.67 7.67 0 0 0 1.9-2.53zM288.31 203.91a10.62 10.62 0 0 1 3.19-7.62l1 .5a10 10 0 0 0 0 14.25l-1 .49a10.6 10.6 0 0 1-3.19-7.62zM294.91 208.78h2.61V200h-2.08v-.93a7.48 7.48 0 0 0 2.44-.83H299v10.52h2.35V210h-6.44zM304.43 208.09a2.66 2.66 0 0 0 2 .9c1.52 0 2.84-1.25 3-4.9a3.63 3.63 0 0 1-2.71 1.46c-1.95 0-3.23-1.27-3.23-3.7a3.52 3.52 0 0 1 3.36-3.81c2.26 0 3.94 1.86 3.94 5.58 0 4.76-2 6.58-4.26 6.58a3.75 3.75 0 0 1-2.82-1.2zm4.9-5.2c-.16-2.42-1.05-3.7-2.56-3.7-1.12 0-2 1.06-2 2.66s.7 2.61 2.09 2.61a3.09 3.09 0 0 0 2.47-1.57zM312.63 207.08a3.73 3.73 0 0 1 2.16-3.23v-.08a3.25 3.25 0 0 1-1.59-2.71 3.23 3.23 0 0 1 6.44.12 3.87 3.87 0 0 1-1.57 2.83v.08a3.42 3.42 0 0 1 2 3.07c0 1.71-1.47 3-3.68 3s-3.76-1.27-3.76-3.08zm6 0c0-1.57-1.44-2.16-3.11-2.83A3.19 3.19 0 0 0 314 207a2.25 2.25 0 0 0 2.45 2.16 2 2 0 0 0 2.21-2.03zm-.27-5.87a2 2 0 0 0-2-2.1 1.8 1.8 0 0 0-1.86 1.9c0 1.41 1.26 2 2.64 2.56a3.14 3.14 0 0 0 1.25-2.31zM322.83 208.09a2.66 2.66 0 0 0 2 .9c1.52 0 2.84-1.25 2.95-4.9a3.63 3.63 0 0 1-2.71 1.46c-2 0-3.23-1.27-3.23-3.7a3.52 3.52 0 0 1 3.36-3.81c2.26 0 3.94 1.86 3.94 5.58 0 4.76-2.05 6.58-4.26 6.58A3.75 3.75 0 0 1 322 209zm4.9-5.2c-.16-2.42-1.05-3.7-2.56-3.7-1.12 0-2 1.06-2 2.66s.7 2.61 2.09 2.61a3.09 3.09 0 0 0 2.47-1.57zM349.51 207.56h-5.79v3.67h-1.2v-3.67h-7.4v-1.15h2.63v-4.29h4.77v-2.43h-3.89a14.6 14.6 0 0 1-2.44 3.15 7.47 7.47 0 0 0-1-.75 13.57 13.57 0 0 0 3.6-5.52l1.2.28c-.22.56-.48 1.14-.74 1.68h9.54v1.16h-5v2.43h4.69v1.12h-4.69v3.17h5.79zm-7-1.15v-3.17h-3.59v3.17zM355.23 201.64h7.67v1.09h-7.67zm0 3.83h7.67v1.08h-7.67zM369.14 208.78h2.61V200h-2.08v-.93a7.33 7.33 0 0 0 2.43-.83h1.12v10.52h2.35V210h-6.43zM377.71 204.09c0-4.08 1.43-6.05 3.67-6.05s3.65 2 3.65 6.05-1.43 6.11-3.65 6.11-3.67-2.03-3.67-6.11zm5.89 0c0-3.43-.89-4.87-2.22-4.87s-2.24 1.44-2.24 4.87.86 4.91 2.24 4.91 2.22-1.45 2.22-4.91zM386.91 204.09c0-4.08 1.43-6.05 3.67-6.05s3.65 2 3.65 6.05-1.43 6.11-3.65 6.11-3.67-2.03-3.67-6.11zm5.89 0c0-3.43-.89-4.87-2.22-4.87s-2.24 1.44-2.24 4.87.89 4.94 2.24 4.94 2.22-1.48 2.22-4.94zM400.21 203.91a10.6 10.6 0 0 1-3.19 7.62l-1-.49a10 10 0 0 0 0-14.25l1-.5a10.62 10.62 0 0 1 3.19 7.62zM39.6 616.77v5.74h-1.06v-.84H29.8v.87h-1v-5.77h1v3.88h3.74v-4.78h-4.25v-4.79h1v3.78h3.21v-5h1.1v5H38v-3.78h1v4.79h-4.4v4.78h3.94v-3.88zM54.81 618.3v1H42v-1h1.4v-6.85h3v-1.71h1v1.71h2v-1.73h1v1.73h3.11v6.85zm-7.64 1.83a17.15 17.15 0 0 1-4.23 2.44c-.19-.21-.56-.56-.78-.76a13.67 13.67 0 0 0 4-2.27zm-2.74-7.72v2.34h2v-2.34zm0 5.89h2v-2.58h-2zm3-5.89v2.34h2v-2.34zm2 3.31h-2v2.58h2zm1 3.79a33.83 33.83 0 0 1 4.08 2.29l-.93.7a30.31 30.31 0 0 0-3.88-2.31zm0-7.1v2.34h2.07v-2.34zm0 5.89h2.07v-2.58h-2.08zM60.22 615.05a.93.93 0 1 1 1.85 0 .93.93 0 1 1-1.85 0zm0 5.64a.93.93 0 1 1 1.85 0 .93.93 0 1 1-1.85 0zM67.6 616.31c0-3.29 1.8-5.3 4.38-5.3s4.39 2 4.39 5.3-1.81 5.35-4.39 5.35-4.38-2.06-4.38-5.35zm7.44 0c0-2.58-1.22-4.16-3.06-4.16s-3 1.58-3 4.16 1.2 4.21 3 4.21 3.02-1.65 3.02-4.21zM78.85 611.21h5.93v1.09h-4.62v3.22h3.89v1.11h-3.89v3.74h4.77v1.11h-6.08zM86.78 616.35c0-3.32 1.94-5.34 4.55-5.34a3.8 3.8 0 0 1 2.82 1.28l-.71.84a2.77 2.77 0 0 0-2.1-1c-1.94 0-3.23 1.59-3.23 4.16s1.23 4.21 3.19 4.21a3.13 3.13 0 0 0 2.38-1.14l.72.81a4 4 0 0 1-3.15 1.47c-2.55.02-4.47-1.96-4.47-5.29zM96.58 611.21h2.57c3.16 0 4.85 1.83 4.85 5.1s-1.69 5.17-4.79 5.17h-2.63zm2.46 9.2c2.43 0 3.62-1.51 3.62-4.1s-1.19-4-3.62-4h-1.16v8.15zM106.1 620.69a.93.93 0 1 1 1.85 0 .93.93 0 1 1-1.85 0zM109.9 620.13l.78-.88a4 4 0 0 0 2.84 1.27c1.34 0 2.16-.67 2.16-1.68s-.75-1.38-1.71-1.82l-1.49-.64a2.91 2.91 0 0 1-2.08-2.64c0-1.58 1.37-2.73 3.23-2.73a4.21 4.21 0 0 1 3 1.28l-.69.82a3.36 3.36 0 0 0-2.34-1c-1.16 0-1.92.58-1.92 1.51s.9 1.37 1.7 1.71l1.47.63c1.19.52 2.11 1.22 2.11 2.74s-1.34 2.92-3.49 2.92a4.92 4.92 0 0 1-3.57-1.49zM119.4 619.12v-4.21h-1.14v-1l1.19-.07.16-2.13h1.06v2.13h2.06v1h-2.06v4.24c0 .94.3 1.47 1.18 1.47a2.74 2.74 0 0 0 .87-.2l.25 1a4.84 4.84 0 0 1-1.4.28c-1.63.03-2.17-.98-2.17-2.51zM124.25 619.5c0-1.65 1.45-2.48 4.68-2.84 0-1-.32-1.92-1.57-1.92a4.15 4.15 0 0 0-2.28.81l-.5-.88a5.7 5.7 0 0 1 3-1c1.85 0 2.64 1.25 2.64 3.13v4.68h-1.05l-.11-.92H129a4 4 0 0 1-2.52 1.1 2.07 2.07 0 0 1-2.23-2.16zm4.68.13v-2.13c-2.56.31-3.43.94-3.43 1.92s.59 1.21 1.35 1.21a3.07 3.07 0 0 0 2.08-1zM133.13 619.12v-4.21H132v-1l1.19-.07.15-2.13h1.07v2.13h2.05v1h-2.05v4.24c0 .94.29 1.47 1.17 1.47a2.62 2.62 0 0 0 .87-.2l.25 1a4.77 4.77 0 0 1-1.4.28c-1.62.03-2.17-.98-2.17-2.51zM144.29 610.89a8.87 8.87 0 0 0-.25.92 34.58 34.58 0 0 0-.67 5.53 15.47 15.47 0 0 0 .12 1.92c.23-.63.56-1.48.79-2l.58.46c-.33 1-.84 2.38-1 3.07a3.36 3.36 0 0 0-.07.61l.05.48-1 .08a16.8 16.8 0 0 1-.52-4.39 39.8 39.8 0 0 1 .63-5.76 8.77 8.77 0 0 0 .08-1zm9.09 4.6c-.73.09-1.61.16-2.56.2 0 .85.05 1.75.1 2.55a8.59 8.59 0 0 1 2.94 1.79l-.59 1a8 8 0 0 0-2.3-1.69v.63c0 1.12-.8 1.81-2.3 1.81s-2.66-.66-2.66-2c0-1 .82-1.91 2.64-1.91a9.32 9.32 0 0 1 1.22.09c0-.7-.08-1.51-.09-2.24h-3.35v-1c1.12.08 2.25.1 3.33.07v-2.28h-3.12v-1a31.79 31.79 0 0 0 6.4-.21v1c-.63.07-1.4.13-2.26.17v2.29c.94-.06 1.81-.14 2.58-.23zm-3.44 3.44a4.48 4.48 0 0 0-1.29-.19c-1 0-1.63.41-1.63 1s.6 1 1.57 1 1.36-.55 1.36-1.29c.05-.1.05-.3-.01-.52zM161.11 610.59c-.06.25-.12.55-.17.81s-.2 1.22-.35 2c.64 0 1.22-.09 1.55-.09 1.23 0 2.26.48 2.26 2.35a13.18 13.18 0 0 1-.82 5 2 2 0 0 1-2 1.17 8.14 8.14 0 0 1-1.62-.21l-.18-1.18a6.86 6.86 0 0 0 1.69.31 1.16 1.16 0 0 0 1.22-.72 12 12 0 0 0 .64-4.24c0-1.26-.57-1.48-1.45-1.48-.34 0-.88 0-1.49.09a27.81 27.81 0 0 1-2.91 7.46l-1.15-.47a21.59 21.59 0 0 0 2.91-6.87l-1.75.18c-.32 0-.88.11-1.24.17l-.12-1.22h1.24c.44 0 1.27-.09 2.11-.16a15.9 15.9 0 0 0 .35-3zm4.77 1.47a24.46 24.46 0 0 1 2.54 5l-1.1.52a16.48 16.48 0 0 0-2.47-5zM176.72 614.43c0 .91.07 2.26.14 3.46a11 11 0 0 1 4.31 2.37l-.67 1a9.72 9.72 0 0 0-3.6-2.28v.92c0 1.14-.7 2.12-2.55 2.12s-3.32-.62-3.32-2.2c0-1.25 1.09-2.28 3.49-2.28a9.2 9.2 0 0 1 1.17.08c-.05-1.12-.11-2.39-.11-3.22v-2.54a10.37 10.37 0 0 0-.12-1.37h1.35a10.56 10.56 0 0 0-.11 1.37v1.42c1.1 0 2.85-.1 4.1-.27v1.07c-1.23.11-3 .19-4.14.22zm-1 4.27a6.07 6.07 0 0 0-1.35-.14c-1.43 0-2.25.49-2.25 1.25s.77 1.19 2.11 1.19c1 0 1.51-.48 1.51-1.43.04-.22.02-.52.02-.87zM186.33 610.47a25.55 25.55 0 0 0-.64 3.85c.54-1.43 2-3.15 3.75-3.15s3.18 1.85 3.18 4.76c0 3.85-2.42 5.55-5.87 6.18l-.66-1c3-.47 5.37-1.67 5.37-5.16 0-2.18-.73-3.75-2.2-3.75-1.72 0-3.32 2.51-3.49 4.33a5.7 5.7 0 0 0 0 1.69l-1.09.09a17.1 17.1 0 0 1-.14-2.2 36.08 36.08 0 0 1 .42-4.49c0-.43.1-.85.11-1.19zM200.85 610.13a21.6 21.6 0 0 1-1.43 3v9.4h-1v-7.79a15.63 15.63 0 0 1-1.42 1.66 5.73 5.73 0 0 0-.6-1 15.8 15.8 0 0 0 3.46-5.56zm4.09 3v2h4v1h-4v2.12h4.19v1h-4.19v3.39h-1.05v-9.46h-1a14.76 14.76 0 0 1-2 2.92 6.38 6.38 0 0 0-.81-.7 14.72 14.72 0 0 0 3.08-5.37l1 .27c-.23.64-.49 1.27-.77 1.89h5.83v1zM222.54 614.5a15.81 15.81 0 0 1-2.46 4.73c.51 1.38 1.16 2.18 1.87 2.18.39 0 .56-.73.66-2.6a2.58 2.58 0 0 0 .9.57c-.2 2.38-.58 3.06-1.64 3.06s-1.92-.85-2.56-2.3a12.75 12.75 0 0 1-2.89 2.33 5.78 5.78 0 0 0-.76-.83 11 11 0 0 0 3.22-2.59 27.64 27.64 0 0 1-1-5.89H213V615h3.57v.44c-.07 3.14-.15 4.32-.45 4.68a1.06 1.06 0 0 1-.84.41 15 15 0 0 1-1.66 0 2.2 2.2 0 0 0-.3-1c.65.05 1.25.07 1.49.07a.46.46 0 0 0 .42-.16c.19-.21.26-1.09.32-3.5H213v.11c0 2-.21 4.78-1.47 6.6a4.18 4.18 0 0 0-.87-.7c1.15-1.71 1.28-4.1 1.28-5.91v-3.91h5.84c-.06-.77-.07-1.55-.09-2.35h1.08c0 .81 0 1.6.06 2.35h4.52v1h-4.45a25.15 25.15 0 0 0 .77 4.86 14 14 0 0 0 1.79-3.79zm-2.42-4.68a13.34 13.34 0 0 1 2.5 1.6l-.64.71a14.58 14.58 0 0 0-2.48-1.68zM76.64 228l-2.14.94-.45-1.15 3-1.32h1v12.41h-1.41zM83.33 230.83a5.3 5.3 0 0 1 .76-3.34 3.14 3.14 0 0 1 2.73-1.2 3.09 3.09 0 0 1 2.85 1.41 5.87 5.87 0 0 1 .63 3.13v3.65a5.26 5.26 0 0 1-.77 3.33 3.08 3.08 0 0 1-2.71 1.2A3.12 3.12 0 0 1 84 237.6a6 6 0 0 1-.62-3.12zm5.54.14c0-2.47-.59-3.46-2.05-3.46s-2.07 1-2.07 3.46v3.37c0 2.47.59 3.46 2.07 3.46s2.05-1 2.05-3.46zM93.06 230.83a5.37 5.37 0 0 1 .76-3.34 3.14 3.14 0 0 1 2.73-1.2 3.09 3.09 0 0 1 2.85 1.41 5.87 5.87 0 0 1 .63 3.13v3.65a5.26 5.26 0 0 1-.77 3.33 3.63 3.63 0 0 1-5.57-.21 5.85 5.85 0 0 1-.63-3.12zm5.54.14c0-2.47-.59-3.46-2-3.46s-2.07 1-2.07 3.46v3.37c0 2.47.6 3.46 2.07 3.46s2-1 2-3.46zM102.79 230.83a5.3 5.3 0 0 1 .77-3.34 3.63 3.63 0 0 1 5.57.21 5.87 5.87 0 0 1 .63 3.13v3.65a5.34 5.34 0 0 1-.76 3.33 3.64 3.64 0 0 1-5.58-.21 5.85 5.85 0 0 1-.63-3.12zm5.54.14c0-2.47-.59-3.46-2-3.46s-2.06 1-2.06 3.46v3.37c0 2.47.59 3.46 2.06 3.46s2-1 2-3.46zM87.74 264.79a4 4 0 0 1-1.32.21 3.1 3.1 0 0 1-2-.66c-.71-.59-1-1.46-1-2.95 0-2.58 1.08-3.72 3.46-3.72a3.48 3.48 0 0 1 2.73 1 4 4 0 0 1 .7 2.62 5.36 5.36 0 0 1-.7 2.94l-3 6h-1.67zm-2.93-3.42c0 1.69.66 2.5 2 2.5s2-.81 2-2.48-.66-2.51-2-2.51-2 .8-2 2.49zM93.06 262.2a5.34 5.34 0 0 1 .76-3.33 3.64 3.64 0 0 1 5.58.21 5.85 5.85 0 0 1 .63 3.12v3.65a5.28 5.28 0 0 1-.77 3.34 3.63 3.63 0 0 1-5.57-.21 5.87 5.87 0 0 1-.63-3.13zm5.54.14c0-2.47-.59-3.46-2-3.46s-2.07 1-2.07 3.46v3.37c0 2.47.6 3.46 2.07 3.46s2-1 2-3.46zM102.79 262.2a5.26 5.26 0 0 1 .77-3.33 3.63 3.63 0 0 1 5.57.21 5.85 5.85 0 0 1 .63 3.12v3.65a5.35 5.35 0 0 1-.76 3.34 3.13 3.13 0 0 1-2.72 1.2 3.1 3.1 0 0 1-2.86-1.41 5.87 5.87 0 0 1-.63-3.13zm5.54.14c0-2.47-.59-3.46-2-3.46s-2.06 1-2.06 3.46v3.37c0 2.47.59 3.46 2.06 3.46s2-1 2-3.46zM83.54 292.36c0-2.24 1.06-3.32 3.28-3.32s3.27 1.08 3.27 3.32a2.81 2.81 0 0 1-1.2 2.68c1.09.54 1.55 1.44 1.55 3.08 0 2.5-1.15 3.65-3.62 3.65s-3.63-1.15-3.63-3.65c0-1.64.45-2.54 1.55-3.08a2.79 2.79 0 0 1-1.2-2.68zm1.09 5.77c0 1.66.68 2.42 2.19 2.42s2.17-.76 2.17-2.42-.69-2.43-2.15-2.43-2.21.75-2.21 2.43zm.28-5.77c0 1.52.59 2.19 1.91 2.19s1.9-.67 1.9-2.19-.61-2.17-1.88-2.17-1.93.68-1.93 2.17zM93.06 293.58a5.39 5.39 0 0 1 .76-3.34 3.64 3.64 0 0 1 5.58.21 5.87 5.87 0 0 1 .63 3.13v3.65a5.32 5.32 0 0 1-.77 3.34 3.63 3.63 0 0 1-5.57-.21 5.87 5.87 0 0 1-.63-3.13zm5.54.14c0-2.47-.59-3.46-2-3.46s-2.07 1-2.07 3.46v3.37c0 2.47.6 3.46 2.07 3.46s2-1 2-3.46zM102.79 293.58a5.32 5.32 0 0 1 .77-3.34 3.63 3.63 0 0 1 5.57.21 5.87 5.87 0 0 1 .63 3.13v3.65a5.39 5.39 0 0 1-.76 3.34 3.64 3.64 0 0 1-5.58-.21 5.87 5.87 0 0 1-.63-3.13zm5.54.14c0-2.47-.59-3.46-2-3.46s-2.06 1-2.06 3.46v3.37c0 2.47.59 3.46 2.06 3.46s2-1 2-3.46zM88.59 321.79h-5v-1.21h6.54v.87L86.18 333h-1.53zM93.06 325a5.35 5.35 0 0 1 .76-3.34 3.14 3.14 0 0 1 2.73-1.2 3.09 3.09 0 0 1 2.85 1.41 5.87 5.87 0 0 1 .6 3.13v3.65a5.26 5.26 0 0 1-.77 3.33 3.63 3.63 0 0 1-5.57-.21 5.85 5.85 0 0 1-.63-3.12zm5.54.14c0-2.47-.59-3.46-2-3.46s-2.07 1-2.07 3.46v3.37c0 2.47.6 3.46 2.07 3.46s2-1 2-3.46zM102.79 325a5.28 5.28 0 0 1 .77-3.34 3.63 3.63 0 0 1 5.57.21 5.87 5.87 0 0 1 .63 3.13v3.65a5.34 5.34 0 0 1-.76 3.33 3.64 3.64 0 0 1-5.58-.21 5.85 5.85 0 0 1-.63-3.12zm5.54.14c0-2.47-.59-3.46-2-3.46s-2.06 1-2.06 3.46v3.37c0 2.47.59 3.46 2.06 3.46s2-1 2-3.46zM85.94 357a2.25 2.25 0 0 1 1.28-.31 2.93 2.93 0 0 1 2.45 1.18 4.78 4.78 0 0 1 .61 2.71 4.24 4.24 0 0 1-.83 3 3.59 3.59 0 0 1-2.61.94 3.4 3.4 0 0 1-2.76-1.13 4.37 4.37 0 0 1-.68-2.82 6.18 6.18 0 0 1 .92-3.42L87.1 352h1.62zm-1.1 3.57c0 1.89.63 2.74 2 2.74s2-.85 2-2.73-.63-2.74-2-2.74-2 .82-2 2.72zM93.06 356.33a5.34 5.34 0 0 1 .76-3.33 3.64 3.64 0 0 1 5.58.21 5.85 5.85 0 0 1 .63 3.12V360a5.3 5.3 0 0 1-.77 3.34 3.63 3.63 0 0 1-5.57-.21 5.87 5.87 0 0 1-.63-3.13zm5.54.14c0-2.47-.59-3.46-2-3.46s-2.07 1-2.07 3.46v3.37c0 2.47.6 3.46 2.07 3.46s2-1 2-3.46zM102.79 356.33a5.26 5.26 0 0 1 .77-3.33 3.63 3.63 0 0 1 5.57.21 5.85 5.85 0 0 1 .63 3.12V360a5.37 5.37 0 0 1-.76 3.34 3.13 3.13 0 0 1-2.72 1.2 3.1 3.1 0 0 1-2.86-1.41 5.87 5.87 0 0 1-.63-3.13zm5.54.14c0-2.47-.59-3.46-2-3.46s-2.06 1-2.06 3.46v3.37c0 2.47.59 3.46 2.06 3.46s2-1 2-3.46zM84.3 383.33h5.6v1.22h-4.4l-.42 3.94a3.81 3.81 0 0 1 1.86-.47 3.26 3.26 0 0 1 2.66 1.2 4.5 4.5 0 0 1 .66 2.73 4 4 0 0 1-.8 2.82 3.69 3.69 0 0 1-2.88 1.13c-2 0-3.18-.92-3.41-2.66l1.37-.18a1.91 1.91 0 0 0 2.07 1.62c1.43 0 2.21-.92 2.21-2.64 0-2-.66-2.83-2.1-2.83a2.76 2.76 0 0 0-2 .78l-1-.23zM93.06 387.71a5.39 5.39 0 0 1 .76-3.34 3.64 3.64 0 0 1 5.58.21 5.87 5.87 0 0 1 .63 3.13v3.65a5.32 5.32 0 0 1-.77 3.34 3.63 3.63 0 0 1-5.57-.21 5.87 5.87 0 0 1-.63-3.13zm5.54.14c0-2.47-.59-3.46-2-3.46s-2.07 1-2.07 3.46v3.37c0 2.47.6 3.46 2.07 3.46s2-1 2-3.46zM102.79 387.71a5.32 5.32 0 0 1 .77-3.34 3.63 3.63 0 0 1 5.57.21 5.87 5.87 0 0 1 .63 3.13v3.65a5.39 5.39 0 0 1-.76 3.34 3.64 3.64 0 0 1-5.58-.21 5.87 5.87 0 0 1-.63-3.13zm5.54.14c0-2.47-.59-3.46-2-3.46s-2.06 1-2.06 3.46v3.37c0 2.47.59 3.46 2.06 3.46s2-1 2-3.46zM88.06 424.82H83v-.9l4-9.21h1.53l-3.86 8.91h3.41v-3.8h1.32v3.8h1.23v1.22h-1.25v2.28h-1.32zM93.06 419.09a5.35 5.35 0 0 1 .76-3.34 3.14 3.14 0 0 1 2.73-1.2A3.09 3.09 0 0 1 99.4 416a5.87 5.87 0 0 1 .63 3.13v3.65a5.26 5.26 0 0 1-.77 3.33 3.63 3.63 0 0 1-5.57-.21 5.85 5.85 0 0 1-.63-3.12zm5.54.14c0-2.47-.59-3.46-2-3.46s-2.07 1-2.07 3.46v3.37c0 2.47.6 3.46 2.07 3.46s2-1 2-3.46zM102.79 419.09a5.28 5.28 0 0 1 .77-3.34 3.63 3.63 0 0 1 5.57.21 5.87 5.87 0 0 1 .63 3.13v3.65a5.34 5.34 0 0 1-.76 3.33 3.64 3.64 0 0 1-5.58-.21 5.85 5.85 0 0 1-.63-3.12zm5.54.14c0-2.47-.59-3.46-2-3.46s-2.06 1-2.06 3.46v3.37c0 2.47.59 3.46 2.06 3.46s2-1 2-3.46zM85.08 451.37h1a2.08 2.08 0 0 0 2.27-2.12 1.86 1.86 0 0 0-1.93-2.11 1.84 1.84 0 0 0-1.93 1.48l-1.28-.12c.22-1.69 1.35-2.57 3.28-2.57a3 3 0 0 1 3.31 3.28 2.68 2.68 0 0 1-1.62 2.73 3.07 3.07 0 0 1 1.93 3.16c0 2.32-1.29 3.55-3.69 3.55-2.13 0-3.37-.94-3.56-2.66l1.37-.17a1.93 1.93 0 0 0 2.16 1.61 2.12 2.12 0 0 0 2.28-2.36 2.41 2.41 0 0 0-2.51-2.54h-1.08zM93.06 450.46a5.34 5.34 0 0 1 .76-3.33 3.65 3.65 0 0 1 5.58.2 5.92 5.92 0 0 1 .63 3.13v3.65a5.3 5.3 0 0 1-.77 3.34 3.63 3.63 0 0 1-5.57-.21 5.87 5.87 0 0 1-.63-3.13zm5.54.14c0-2.47-.59-3.46-2-3.46s-2.07 1-2.07 3.46v3.4c0 2.47.6 3.46 2.07 3.46s2-1 2-3.46zM102.79 450.46a5.26 5.26 0 0 1 .77-3.33 3.64 3.64 0 0 1 5.57.2 5.92 5.92 0 0 1 .63 3.13v3.65a5.37 5.37 0 0 1-.76 3.34 3.13 3.13 0 0 1-2.72 1.2 3.1 3.1 0 0 1-2.86-1.41 5.87 5.87 0 0 1-.63-3.13zm5.54.14c0-2.47-.59-3.46-2-3.46s-2.06 1-2.06 3.46v3.4c0 2.47.59 3.46 2.06 3.46s2-1 2-3.46zM83.08 488.91l3.45-4.46c1.3-1.71 1.87-3 1.87-4.12a1.64 1.64 0 0 0-1.86-1.81 2.06 2.06 0 0 0-2.08 1.86l-1.31-.12a3.15 3.15 0 0 1 3.48-3c2.07 0 3.22 1.12 3.22 3.1 0 1.51-.49 2.54-2.37 5L85 488.65h4.93v1.22h-6.85zM93.06 481.84a5.39 5.39 0 0 1 .76-3.34 3.64 3.64 0 0 1 5.58.21 5.87 5.87 0 0 1 .63 3.13v3.65a5.32 5.32 0 0 1-.77 3.34 3.63 3.63 0 0 1-5.57-.21 5.87 5.87 0 0 1-.63-3.13zm5.54.14c0-2.47-.59-3.46-2-3.46s-2.07 1-2.07 3.46v3.37c0 2.47.6 3.46 2.07 3.46s2-1 2-3.46zM102.79 481.84a5.32 5.32 0 0 1 .77-3.34 3.63 3.63 0 0 1 5.57.21 5.87 5.87 0 0 1 .63 3.13v3.65a5.39 5.39 0 0 1-.76 3.34 3.64 3.64 0 0 1-5.58-.21 5.87 5.87 0 0 1-.63-3.13zm5.54.14c0-2.47-.59-3.46-2-3.46s-2.06 1-2.06 3.46v3.37c0 2.47.59 3.46 2.06 3.46s2-1 2-3.46zM86.37 510.37l-2.14.93-.45-1.14 3-1.32h1v12.41h-1.41zM93.06 513.22a5.37 5.37 0 0 1 .76-3.34 3.14 3.14 0 0 1 2.73-1.2 3.09 3.09 0 0 1 2.85 1.41 5.87 5.87 0 0 1 .63 3.13v3.65a5.26 5.26 0 0 1-.77 3.33 3.64 3.64 0 0 1-5.57-.2 5.92 5.92 0 0 1-.63-3.13zm5.54.14c0-2.47-.59-3.46-2-3.46s-2.07 1-2.07 3.46v3.37c0 2.47.6 3.46 2.07 3.46s2-1 2-3.46zM102.79 513.22a5.3 5.3 0 0 1 .77-3.34 3.63 3.63 0 0 1 5.57.21 5.87 5.87 0 0 1 .63 3.13v3.65a5.34 5.34 0 0 1-.76 3.33 3.65 3.65 0 0 1-5.58-.2 5.92 5.92 0 0 1-.63-3.13zm5.54.14c0-2.47-.59-3.46-2-3.46s-2.06 1-2.06 3.46v3.37c0 2.47.59 3.46 2.06 3.46s2-1 2-3.46zM102.79 544.59a5.26 5.26 0 0 1 .77-3.33 3.64 3.64 0 0 1 5.57.2 5.92 5.92 0 0 1 .63 3.13v3.65a5.37 5.37 0 0 1-.76 3.34 3.13 3.13 0 0 1-2.72 1.2 3.1 3.1 0 0 1-2.86-1.41 5.87 5.87 0 0 1-.63-3.13zm5.54.14c0-2.47-.59-3.46-2-3.46s-2.06 1-2.06 3.46v3.37c0 2.47.59 3.46 2.06 3.46s2-1 2-3.46zM116.35 563.65c0-2.24 1.06-3.32 3.29-3.32s3.27 1.08 3.27 3.32a2.81 2.81 0 0 1-1.2 2.68c1.09.54 1.54 1.44 1.54 3.07 0 2.51-1.14 3.65-3.61 3.65s-3.64-1.14-3.64-3.65c0-1.63.45-2.53 1.54-3.07a2.81 2.81 0 0 1-1.19-2.68zm1.1 5.77c0 1.65.68 2.42 2.19 2.42s2.17-.77 2.17-2.42-.69-2.43-2.15-2.43-2.21.74-2.21 2.43zm.28-5.77c0 1.51.59 2.19 1.91 2.19s1.89-.68 1.89-2.19-.6-2.17-1.87-2.17-1.93.68-1.93 2.17zM130.29 567.46a4.26 4.26 0 0 1-1.32.21 3.1 3.1 0 0 1-2-.67c-.71-.59-1-1.46-1-3 0-2.57 1.08-3.72 3.46-3.72a3.51 3.51 0 0 1 2.73 1 4 4 0 0 1 .69 2.63 5.4 5.4 0 0 1-.69 2.94l-3 6h-1.62zm-2.94-3.46c0 1.69.67 2.51 2 2.51s2-.82 2-2.49-.66-2.5-2-2.5-2 .83-2 2.48zM163.62 567.46a4.31 4.31 0 0 1-1.32.21 3.08 3.08 0 0 1-2.05-.67c-.72-.59-1-1.46-1-3 0-2.57 1.08-3.72 3.46-3.72a3.52 3.52 0 0 1 2.73 1 4.06 4.06 0 0 1 .69 2.63 5.48 5.48 0 0 1-.69 2.94l-3 6h-1.62zm-2.94-3.46c0 1.69.66 2.51 2 2.51s2-.82 2-2.49-.66-2.5-2-2.5-2 .83-2 2.48zM170.69 565.77h1a2.09 2.09 0 0 0 2.28-2.12 2 2 0 0 0-3.86-.63l-1.28-.12c.22-1.68 1.35-2.57 3.28-2.57a3 3 0 0 1 3.3 3.29 2.66 2.66 0 0 1-1.61 2.72 3.07 3.07 0 0 1 1.92 3.17c0 2.31-1.28 3.54-3.68 3.54-2.14 0-3.37-.94-3.56-2.66l1.37-.17a1.94 1.94 0 0 0 2.16 1.62 2.12 2.12 0 0 0 2.27-2.37 2.4 2.4 0 0 0-2.5-2.53h-1.13zM206.67 567.46a4.22 4.22 0 0 1-1.32.21 3.1 3.1 0 0 1-2-.67c-.71-.59-1-1.46-1-3 0-2.57 1.08-3.72 3.46-3.72a3.49 3.49 0 0 1 2.73 1 4 4 0 0 1 .7 2.63 5.4 5.4 0 0 1-.7 2.94l-3 6h-1.61zm-2.93-3.46c0 1.69.66 2.51 2 2.51s2-.82 2-2.49-.66-2.5-2-2.5-2 .83-2 2.48zM217.26 561.7h-5v-1.21h6.54v.87l-3.93 11.54h-1.53zM245.32 564.87a5.3 5.3 0 0 1 .76-3.34 3.14 3.14 0 0 1 2.73-1.2 3.09 3.09 0 0 1 2.85 1.41 5.87 5.87 0 0 1 .63 3.13v3.65a5.26 5.26 0 0 1-.77 3.33 3.09 3.09 0 0 1-2.71 1.2 3.13 3.13 0 0 1-2.87-1.4 6 6 0 0 1-.62-3.13zm5.54.14c0-2.47-.59-3.46-2.05-3.46s-2.07 1-2.07 3.46v3.37c0 2.47.59 3.46 2.07 3.46s2.05-1 2.05-3.46zM258.09 562l-2.09 1-.45-1.15 3-1.32h1v12.37h-1.44zM288.37 564.87a5.3 5.3 0 0 1 .77-3.34 3.64 3.64 0 0 1 5.58.21 5.88 5.88 0 0 1 .62 3.13v3.65a5.27 5.27 0 0 1-.76 3.33 3.09 3.09 0 0 1-2.71 1.2 3.13 3.13 0 0 1-2.87-1.4 5.92 5.92 0 0 1-.63-3.13zm5.55.14c0-2.47-.59-3.46-2.05-3.46s-2.07 1-2.07 3.46v3.37c0 2.47.59 3.46 2.07 3.46s2.05-1 2.05-3.46zM299.08 560.49h5.6v1.21h-4.4l-.42 3.95a3.81 3.81 0 0 1 1.86-.47 3.23 3.23 0 0 1 2.66 1.2 4.5 4.5 0 0 1 .66 2.73 4 4 0 0 1-.8 2.81 3.69 3.69 0 0 1-2.88 1.13c-2 0-3.18-.92-3.41-2.66l1.37-.17a1.91 1.91 0 0 0 2.07 1.62c1.43 0 2.21-.92 2.21-2.65 0-1.94-.66-2.83-2.1-2.83a2.78 2.78 0 0 0-2 .78l-1-.22zM331.43 564.87a5.3 5.3 0 0 1 .77-3.34 3.64 3.64 0 0 1 5.58.21 6 6 0 0 1 .62 3.13v3.65a5.27 5.27 0 0 1-.76 3.33 3.65 3.65 0 0 1-5.58-.2 5.92 5.92 0 0 1-.63-3.13zm5.57.13c0-2.47-.59-3.46-2.05-3.46s-2.07 1-2.07 3.46v3.37c0 2.47.59 3.46 2.07 3.46s2.05-1 2.05-3.46zM345.58 567.46a4.31 4.31 0 0 1-1.32.21 3.08 3.08 0 0 1-2.05-.67c-.72-.59-1-1.46-1-3 0-2.57 1.08-3.72 3.46-3.72a3.52 3.52 0 0 1 2.73 1 4.06 4.06 0 0 1 .69 2.63 5.48 5.48 0 0 1-.69 2.94l-3 6h-1.62zm-2.94-3.46c0 1.69.66 2.51 2 2.51s2-.82 2-2.49-.66-2.5-2-2.5-2 .83-2 2.48zM377.53 562l-2.14.94-.45-1.15 3-1.32h1v12.43h-1.44zM386 565.77h1a2.09 2.09 0 0 0 2.28-2.12 1.85 1.85 0 0 0-1.93-2.1 1.83 1.83 0 0 0-1.93 1.47l-1.29-.12c.23-1.68 1.36-2.57 3.29-2.57a3 3 0 0 1 3.3 3.29 2.67 2.67 0 0 1-1.62 2.72 3.07 3.07 0 0 1 1.93 3.17c0 2.31-1.29 3.54-3.68 3.54-2.14 0-3.38-.94-3.57-2.66l1.38-.17a1.94 1.94 0 0 0 2.15 1.62 2.12 2.12 0 0 0 2.28-2.37 2.41 2.41 0 0 0-2.5-2.53H386zM420.59 562l-2.14.94-.45-1.15 3-1.32h1v12.43h-1.44zM432.54 561.7h-5v-1.21h6.54v.87l-3.93 11.54h-1.55z"/><path class="cls-5" d="M411.54 502.31h8.19v2.46h-5.68l-.4 3.82a5.3 5.3 0 0 1 5.59 1.08c.69.83 1 2 1 3.88s-.34 3.13-1.1 4A5.5 5.5 0 0 1 415 519c-3.08 0-4.73-1.4-4.92-4.23l2.83-.32a2.07 2.07 0 0 0 2.16 2.11c1.43 0 2.14-.92 2.14-2.8 0-2.21-.62-3.11-2.14-3.11a2.55 2.55 0 0 0-2.09 1l-2.21-.46zM428.67 504.77h-6.09v-2.46h9.22v1.79l-4.92 14.63h-3.2z"/><path class="cls-6" d="M407.35 438.71l3.44-4.47c1.31-1.7 1.88-3 1.88-4.11a1.64 1.64 0 0 0-1.86-1.81 2.06 2.06 0 0 0-2.09 1.86l-1.3-.12a3.15 3.15 0 0 1 3.48-3c2.06 0 3.21 1.11 3.21 3.09 0 1.52-.48 2.54-2.36 5l-2.49 3.25h4.94v1.22h-6.85zM421.9 428.47h-5v-1.21h6.54v.87l-3.93 11.54H418zM427.93 432.3a2.17 2.17 0 0 1 1.28-.31 2.9 2.9 0 0 1 2.45 1.18 4.76 4.76 0 0 1 .61 2.71 4.19 4.19 0 0 1-.83 3 3.56 3.56 0 0 1-2.61.94 3.4 3.4 0 0 1-2.76-1.13 4.36 4.36 0 0 1-.68-2.81 6.19 6.19 0 0 1 .92-3.43l2.78-5.19h1.62zm-1.1 3.56c0 1.9.63 2.75 2 2.75s2-.85 2-2.73-.63-2.75-2-2.75-2 .87-2 2.73z"/><path class="cls-7" d="M405.61 254.77l3.44-4.46c1.31-1.7 1.88-3 1.88-4.12a1.64 1.64 0 0 0-1.86-1.81 2.05 2.05 0 0 0-2.08 1.86l-1.31-.12a3.14 3.14 0 0 1 3.48-3c2.07 0 3.21 1.11 3.21 3.09 0 1.51-.48 2.54-2.36 5l-2.48 3.25h4.93v1.22h-6.85zM420 250.29a4 4 0 0 1-1.32.21 3.15 3.15 0 0 1-2.05-.66c-.71-.59-1-1.46-1-3 0-2.57 1.08-3.71 3.46-3.71a3.48 3.48 0 0 1 2.73 1 4 4 0 0 1 .7 2.62 5.38 5.38 0 0 1-.7 2.94l-3 6h-1.62zm-2.93-3.42c0 1.68.66 2.5 2 2.5s2-.82 2-2.49-.66-2.5-2-2.5-2 .8-2 2.49zM430.59 244.54h-5v-1.22h6.54v.87l-3.93 11.54h-1.53z"/><path class="cls-4" d="M452.65 562l-2.14.94-.45-1.15 3-1.32h1v12.43h-1.44zM458.85 563.65c0-2.24 1.06-3.32 3.29-3.32s3.26 1.08 3.26 3.32a2.81 2.81 0 0 1-1.19 2.68c1.09.54 1.54 1.44 1.54 3.07 0 2.51-1.14 3.65-3.61 3.65s-3.64-1.14-3.64-3.65c0-1.63.46-2.53 1.55-3.07a2.81 2.81 0 0 1-1.2-2.68zm1.1 5.77c0 1.65.68 2.42 2.19 2.42s2.17-.77 2.17-2.42-.7-2.43-2.16-2.43-2.15.74-2.15 2.43zm.28-5.77c0 1.51.59 2.19 1.91 2.19s1.89-.68 1.89-2.19-.61-2.17-1.88-2.17-1.92.68-1.92 2.17zM481.88 569.81h-5V573h-1v-3.14h-6.33v-1h2.25v-3.67h4.08v-2.09h-3.33a12.27 12.27 0 0 1-2.08 2.7 6.89 6.89 0 0 0-.88-.64 11.68 11.68 0 0 0 3.09-4.73l1 .25c-.19.48-.41 1-.63 1.44h8.17v1h-4.33v2.09h4v1h-4v2.71h5zm-6-1v-2.71h-3.07v2.71z"/><path class="cls-5" d="M463.38 516.61v17.2h-2.57v-1.26h-8.88v1.3h-2.46v-17.24zM451.93 519v4.3h8.88V519zm8.88 11.14v-4.48h-8.88v4.48zM470.15 527.45a18.49 18.49 0 0 1-1.2 5.16 11.76 11.76 0 0 0-1.82-.86 14.54 14.54 0 0 0 1.06-4.64zM485.54 517a12.69 12.69 0 0 1-3.26 5.18 14.27 14.27 0 0 0 4.1 1.52 9.55 9.55 0 0 0-1.46 1.92 14.65 14.65 0 0 1-4.46-2 18.16 18.16 0 0 1-4.57 2.1 9.32 9.32 0 0 0-1.26-1.92 11.94 11.94 0 0 1 .82 2.36l-1.68.76a9.59 9.59 0 0 0-.26-1l-1 .08v8.18h-2.06v-8l-2.9.18-.2-2.06 1.44-.06c.3-.38.62-.82.94-1.28a19.63 19.63 0 0 0-2.36-2.72l1.14-1.62.46.4a25 25 0 0 0 1.46-3.49l2.06.77c-.72 1.36-1.52 2.9-2.24 4 .26.28.48.56.68.8a36.27 36.27 0 0 0 1.78-3.24l1.94.9c-1.1 1.74-2.48 3.76-3.74 5.38l1.92-.08c-.22-.5-.46-1-.7-1.44l1.58-.66a19.72 19.72 0 0 1 .92 1.84 15.33 15.33 0 0 0 4-1.66 13 13 0 0 1-2.36-3.26l1.28-.42h-2.28v-2h8.29l.42-.1zm-11.33 10a22.05 22.05 0 0 1 1.24 3.6l-1.76.64a23.67 23.67 0 0 0-1.16-3.72zm7.49 4.5h4.38v2.08h-11.31v-2.08h4.58v-2.34H476V527h3.4v-2.38h2.35V527h3.56v2.1h-3.61zm-3.27-13.08a9.06 9.06 0 0 0 1.92 2.38 9.92 9.92 0 0 0 2-2.38z"/><path class="cls-6" d="M447.74 455.52h5.8v1.07H449V460h3.83v1.07H449v4.51h-1.28zM457.67 456.59h-3v-1.07H462v1.07h-3v9h-1.28zM463.33 464.25l.75-.86a4 4 0 0 0 2.78 1.24c1.32 0 2.11-.65 2.11-1.64s-.72-1.36-1.67-1.78l-1.45-.63a2.84 2.84 0 0 1-2-2.58c0-1.55 1.34-2.67 3.16-2.67a4.12 4.12 0 0 1 3 1.25l-.67.81a3.25 3.25 0 0 0-2.29-.95c-1.14 0-1.88.58-1.88 1.48s.88 1.34 1.66 1.67l1.44.62a2.78 2.78 0 0 1 2.07 2.68c0 1.59-1.31 2.85-3.41 2.85a4.77 4.77 0 0 1-3.6-1.49zM472.5 455.52h5.8v1.07h-4.52v3.15h3.81v1.08h-3.81v3.66h4.67v1.09h-5.95z"/><path class="cls-7" d="M450.52 253.29H453c3.08 0 4.74 1.8 4.74 5s-1.66 5.06-4.69 5.06h-2.57zm2.41 9c2.37 0 3.53-1.48 3.53-4s-1.16-4-3.53-4h-1.14v8zM459.53 259.62c0-2.48 1.63-3.91 3.45-3.91s3.45 1.43 3.45 3.91-1.63 3.9-3.45 3.9-3.45-1.43-3.45-3.9zm5.62 0c0-1.71-.88-2.87-2.17-2.87s-2.15 1.16-2.15 2.87.86 2.85 2.15 2.85 2.17-1.13 2.17-2.85zM467.77 255.9h1.28l1.11 4.3c.15.71.3 1.38.44 2.08h.06c.17-.7.32-1.38.51-2.08l1.15-4.3h1.22l1.17 4.3c.17.71.34 1.38.52 2.08.17-.7.3-1.37.47-2.08l1.09-4.3H478l-2 7.44h-1.51l-1.08-4c-.19-.7-.33-1.38-.51-2.13h-.06c-.17.75-.32 1.45-.51 2.16l-1 4h-1.47z"/><path class="cls-8" d="M126.75 516.4l7.45 12.55H145l10.79 4.83 16.39-3.38 29.27.48 7.89 4.1h15.98l7.88-4.34 23.25 8.93 32.19-1.45 9.73-6.03 18.68.96 12.06 6.52 9.74-2.17 17.64.72 10.79 1.45 7.68-1.69 8.51-5.07 36.94-2.17 7.89-2.66h11.22"/><path class="cls-9" d="M125.35 516.4h13l7.2-8h10.51l10.52-4.18 11.9-1.61 25.46-36.36 5.81-8.05 11.07-15.45 9.69-20.27 1.66-6.76 16.05 11.59 8 7.08 8.86 15.76 10-21.23 5.26-3.54 18.26-1s9.4-18.38 11.05-20.94 10.52-7.72 10.52-7.72l4.15 20.28 5.91 29s14-23.5 16.5-25.75 13.56-10.94 13.56-10.94l13-10.62s9.69-30.89 10.25-34.43 7.19-14.81 7.19-14.81l5.81-5.15s6.92 3.22 8 3.22 3.87-3.22 3.87-3.22 10-23.49 10.52-27.35 4.15-23.17 4.15-23.17l5.26-28.32 11.15-8.69"/><path class="cls-10" d="M126.75 516.4l9.53 1.69 9.13-3.14 9.55-4.59 12.45-7.72 10 3.38 11.21-6.52 12.48-6.27 9.9-11.83 13.49-12.79 7.88-10.61a133.8 133.8 0 0 0 11.75 9.41c4.44 2.9 12.54 14 12.54 14l6.85 12.07 2.9 1.45 11.66-6.93 9.11-5s11.61-10.86 16.38-13.27 14.32-6.76 15.57-6.76 9.75 22.69 9.75 22.69l2.49 2.29 9.55-11s7.68-5.55 8.51-5.55a26.34 26.34 0 0 0 4.15-1.21l8.3 4.1 6.44-2.17 6-2.17 10.37-10.86 10 1.69 11.83 4.1 15.77-15.21 6.85-2.89 10.39 12.79"/><path class="cls-2" d="M556.25 232.72h322.92v313.82H556.25z"/><path class="cls-11" d="M876.67 502.38h2.5v1h-2.5zM871.62 503.38h-5v-1h5zm-10.09 0h-5v-1h5zm-10.1 0h-5v-1h5zm-10.09 0h-5v-1h5zm-10.09 0h-5v-1h5zm-10.09 0h-5v-1h5zm-10.1 0h-5v-1h5zm-10.09 0h-5v-1h5zm-10.09 0h-5v-1h5zm-10.09 0h-5v-1h5zm-10.1 0h-5v-1h5zm-10.09 0h-5.05v-1h5.05zm-10.09 0h-5v-1h5zm-10.09 0h-5v-1h5zm-10.1 0h-5v-1h5zm-10.09 0h-5.05v-1h5.05zm-10.09 0h-5v-1h5zm-10.09 0h-5v-1h5zm-10.1 0h-5v-1h5zm-10.09 0h-5.05v-1h5.05zm-10.09 0h-5v-1h5zm-10.09 0h-5v-1h5zm-10.1 0h-5v-1h5zm-10.09 0h-5v-1h5zm-10.09 0h-5v-1h5zm-10.1 0h-5v-1h5zm-10.09 0h-5v-1h5zm-10.09 0h-5v-1h5zm-10.09 0h-5v-1h5zm-10.1 0h-5v-1h5zm-10.09 0h-5v-1h5zM556.25 502.38h2.5v1h-2.5z"/><path class="cls-4" d="M616 211.73h-1.2v-.68h-6.57v.64h-1.13v-5.05a20 20 0 0 1-3.93 1.79 3.62 3.62 0 0 0-.71-1 17.68 17.68 0 0 0 5.94-3.08 19.64 19.64 0 0 0-2.93-2.62 18.39 18.39 0 0 1-2.09 1.46 4.05 4.05 0 0 0-.84-.92 13.42 13.42 0 0 0 5.38-5.2l1.33.27c-.27.45-.58.92-.91 1.38h4.51l.23-.06.78.41a15 15 0 0 1-4.37 5.91H616zm-8.57-12a13.79 13.79 0 0 1-1.13 1.17 20.33 20.33 0 0 1 3 2.58 12.84 12.84 0 0 0 2.88-3.75zm7.41 10.27v-4h-6.57v4zM631.56 198.09v13.52h-1.24v-1.08H622v1.08h-1.17v-13.52zm-9.56 1.15v2.59h8.37v-2.59zm0 3.73v2.63h8.37V203zm8.37 6.39v-2.63H622v2.63zM637.71 200a16.56 16.56 0 0 1-1.84 1.21 6.24 6.24 0 0 0-.86-.84 12.66 12.66 0 0 0 4.22-3.27l1.09.4a11.24 11.24 0 0 1-1.47 1.55v3.72h-1.14zm3.52 10a22 22 0 0 1-4.93 1.77 7.87 7.87 0 0 0-.86-.88 20.69 20.69 0 0 0 4.72-1.37zm-3.74-6.63h10.34v6h-10.34zm1.15 1.76h8v-1h-8zm0 1.71h8v-1h-8zm0 1.75h8v-1h-8zm5.31-10c-1.07.08-2.16.13-3.16.16a4.29 4.29 0 0 0-.24-.77 57.51 57.51 0 0 0 7.26-.67l.71.75c-.95.18-2.15.34-3.43.45v1.15h4.5v.89h-4.5v1.15h3.78v.88h-8.44v-.88H644v-1.15h-4.19v-.89H644zm.87 11a48 48 0 0 1 4.82 1.58l-1.36.59a43.9 43.9 0 0 0-4.47-1.58zM659.39 210.13h6.26v1.05h-13.57v-1.05h6.08v-4h-5.36v-1h5.36V203h-3.3v-.92a20.62 20.62 0 0 1-2.64 1.67 3.59 3.59 0 0 0-.72-.93 17.91 17.91 0 0 0 6.63-5.75h1.18a18.85 18.85 0 0 0 7 5.54 5.5 5.5 0 0 0-.77 1.06 20.54 20.54 0 0 1-2.67-1.67v1h-3.43v2.14h5.49v1h-5.49zm-4.3-3.53a10.76 10.76 0 0 1 1.52 2.85l-1 .47a11 11 0 0 0-1.45-2.95zm7.63-4.67a18.8 18.8 0 0 1-3.93-3.71 17.59 17.59 0 0 1-3.75 3.71zm-2 7.59a18.47 18.47 0 0 0 1.72-3l1.12.43a26.88 26.88 0 0 1-2 2.92zM675 209.69a9.91 9.91 0 0 0 1.36-.19 4.75 4.75 0 0 0 4-4.69 4.39 4.39 0 0 0-4.21-4.59 32.7 32.7 0 0 1-.94 4.56c-1 3.25-2.24 4.93-3.71 4.93s-2.84-1.63-2.84-4.24a6.77 6.77 0 0 1 7-6.45 5.75 5.75 0 0 1 6.08 5.82c0 3.33-2.19 5.56-6 6zm-1-5.18a26.16 26.16 0 0 0 .88-4.28 5.53 5.53 0 0 0-4.9 5.13c0 2 .93 2.88 1.61 2.88s1.5-1.06 2.32-3.73zM689.23 205.16l-1.68.53v4.56c0 .68-.14 1-.54 1.22a5.52 5.52 0 0 1-2.11.21 5 5 0 0 0-.36-1.14h1.59c.21 0 .27-.07.27-.31V206l-2.15.66-.27-1.15c.66-.16 1.51-.4 2.42-.67v-3.49h-2.15v-1.05h2.15v-3.2h1.15v3.2h1.55v1.09h-1.55v3.15l1.54-.45zm9.58 5.7h-7.24v.82h-1.14v-9.24a10.76 10.76 0 0 1-1.18 1.52 8.68 8.68 0 0 0-.8-1 14.19 14.19 0 0 0 3.17-5.91l1.13.29a20.84 20.84 0 0 1-1 2.74h2.45a21.89 21.89 0 0 0 1.09-3l1.25.29c-.36.88-.79 1.85-1.17 2.67h3.18v1.07h-3.26v2.15h2.88v1h-2.88v2.18h2.88v1h-2.88v2.22h3.54zm-4.63-9.7h-2.61v2.15h2.61zm0 3.17h-2.61v2.18h2.61zm-2.61 5.44h2.61v-2.22h-2.61zM705.86 206.8a19.81 19.81 0 0 0-1.46-2v6.85h-1.15v-7.07a17.51 17.51 0 0 1-2.32 4.19 5.5 5.5 0 0 0-.6-1.09 16.43 16.43 0 0 0 2.76-5h-2.45v-1.12h2.61v-2.43c-.79.16-1.6.29-2.34.4a4 4 0 0 0-.37-.93 23.38 23.38 0 0 0 5.06-1.28l.83.9a13.54 13.54 0 0 1-2 .64v2.7h2v1.12h-2v1c.5.42 1.86 1.82 2.18 2.19zm9.28-1.94c-1.36 4-4.74 6-8.58 6.85a3.49 3.49 0 0 0-.61-1 12.66 12.66 0 0 0 4.87-1.92 13.19 13.19 0 0 0-2.29-1.73 14.7 14.7 0 0 1-1.53.94 3.06 3.06 0 0 0-.75-.81 10.3 10.3 0 0 0 4.71-4.08 13.29 13.29 0 0 1-4 1.85 4.14 4.14 0 0 0-.62-1 11.47 11.47 0 0 0 3.87-1.69 11.69 11.69 0 0 0-2-1.6 14.29 14.29 0 0 1-1.39.86 3.42 3.42 0 0 0-.77-.8 9.7 9.7 0 0 0 4.07-3.63l1.18.2a8.67 8.67 0 0 1-.8 1.17h2.91l.23-.05.73.36a9.22 9.22 0 0 1-3.4 4.29l1.2.2a12.93 12.93 0 0 1-.88 1.3h3.15zm-5.57-5.4a7.31 7.31 0 0 1-.64.6 11.86 11.86 0 0 1 2.07 1.58 7.29 7.29 0 0 0 1.77-2.18zm.75 6.12a9.45 9.45 0 0 1-.93.83 11.33 11.33 0 0 1 2.31 1.7 7.67 7.67 0 0 0 1.9-2.53zM727.25 204.4a10.62 10.62 0 0 1 3.19-7.62l1 .49a10 10 0 0 0 0 14.25l-1 .49a10.62 10.62 0 0 1-3.19-7.61zM733.85 209.26h2.61v-8.75h-2.08v-.93a7.38 7.38 0 0 0 2.44-.84h1.12v10.52h2.35v1.22h-6.44zM743.38 208.57a2.63 2.63 0 0 0 2 .9c1.52 0 2.84-1.25 2.95-4.9a3.63 3.63 0 0 1-2.71 1.46c-2 0-3.23-1.27-3.23-3.7a3.53 3.53 0 0 1 3.36-3.81c2.26 0 3.94 1.86 3.94 5.59 0 4.75-2 6.58-4.26 6.58a3.74 3.74 0 0 1-2.81-1.2zm4.89-5.2c-.16-2.42-1-3.7-2.56-3.7-1.12 0-2 1.06-2 2.66s.7 2.61 2.09 2.61a3.09 3.09 0 0 0 2.47-1.57zM752.58 208.57a2.63 2.63 0 0 0 2 .9c1.52 0 2.84-1.25 3-4.9a3.61 3.61 0 0 1-2.71 1.46c-1.95 0-3.23-1.27-3.23-3.7a3.53 3.53 0 0 1 3.36-3.81c2.26 0 3.94 1.86 3.94 5.59 0 4.75-2.05 6.58-4.26 6.58a3.74 3.74 0 0 1-2.81-1.2zm4.89-5.2c-.16-2.42-1.05-3.7-2.56-3.7-1.12 0-2 1.06-2 2.66s.7 2.61 2.09 2.61a3.09 3.09 0 0 0 2.47-1.57zM760.49 209.13l.72-1a3.91 3.91 0 0 0 2.89 1.3 2.54 2.54 0 0 0 2.49-2.77 2.37 2.37 0 0 0-2.43-2.67 3.18 3.18 0 0 0-1.95.69l-.79-.49.37-5.49h5.71v1.3h-4.43l-.29 3.4a3.53 3.53 0 0 1 5.29 3.26 3.82 3.82 0 0 1-3.85 4 5 5 0 0 1-3.73-1.53zM788.45 208h-5.79v3.67h-1.2V208h-7.4v-1.15h2.63v-4.25h4.77v-2.43h-3.89a14.6 14.6 0 0 1-2.44 3.15 6.9 6.9 0 0 0-1-.75 13.47 13.47 0 0 0 3.6-5.52l1.2.29c-.22.56-.48 1.13-.73 1.68h9.54v1.15h-5.06v2.43h4.69v1.12h-4.69v3.17h5.79zm-7-1.15v-3.17h-3.59v3.17zM794.17 202.12h7.67v1.09h-7.67zm0 3.83h7.67V207h-7.67zM808.08 209.26h2.61v-8.75h-2.08v-.93a7.32 7.32 0 0 0 2.43-.84h1.12v10.52h2.35v1.22h-6.43zM816.65 204.57c0-4.08 1.43-6 3.67-6s3.65 2 3.65 6-1.43 6.12-3.65 6.12-3.67-2.04-3.67-6.12zm5.89 0c0-3.42-.89-4.86-2.22-4.86s-2.24 1.44-2.24 4.86.9 5 2.24 5 2.22-1.57 2.22-5zM825.85 204.57c0-4.08 1.43-6 3.67-6s3.65 2 3.65 6-1.42 6.12-3.65 6.12-3.67-2.04-3.67-6.12zm5.9 0c0-3.42-.9-4.86-2.23-4.86s-2.24 1.44-2.24 4.86.9 5 2.24 5 2.23-1.57 2.23-5zM839.15 204.4A10.61 10.61 0 0 1 836 212l-1-.49a10 10 0 0 0 0-14.25l1-.49a10.62 10.62 0 0 1 3.15 7.63zM522.73 237.9l3.44-4.47c1.3-1.7 1.87-3 1.87-4.12a1.63 1.63 0 0 0-1.86-1.8 2.06 2.06 0 0 0-2.08 1.86l-1.3-.12a3.14 3.14 0 0 1 3.47-3c2.07 0 3.22 1.11 3.22 3.09 0 1.52-.49 2.54-2.37 5l-2.48 3.25h4.93v1.22h-6.84zM532.46 237.9l3.44-4.47c1.3-1.7 1.88-3 1.88-4.12a1.64 1.64 0 0 0-1.86-1.8 2.06 2.06 0 0 0-2.09 1.86l-1.3-.12a3.14 3.14 0 0 1 3.47-3c2.07 0 3.22 1.11 3.22 3.09 0 1.52-.49 2.54-2.37 5l-2.48 3.25h4.94v1.22h-6.85zM542.43 230.83a5.3 5.3 0 0 1 .77-3.34 3.64 3.64 0 0 1 5.58.21 6 6 0 0 1 .62 3.13v3.65a5.27 5.27 0 0 1-.76 3.33 3.64 3.64 0 0 1-5.58-.21 5.85 5.85 0 0 1-.63-3.12zm5.57.17c0-2.47-.59-3.46-2.05-3.46s-2.07 1-2.07 3.46v3.37c0 2.47.59 3.46 2.07 3.46s2.05-1 2.05-3.46zM522.73 282.79l3.44-4.46c1.3-1.71 1.87-3 1.87-4.12a1.64 1.64 0 0 0-1.86-1.81 2.06 2.06 0 0 0-2.08 1.86l-1.3-.12a3.14 3.14 0 0 1 3.47-3c2.07 0 3.22 1.12 3.22 3.1 0 1.51-.49 2.53-2.37 5l-2.48 3.25h4.93v1.22h-6.84zM532.7 275.72a5.32 5.32 0 0 1 .77-3.34 3.63 3.63 0 0 1 5.57.21 5.87 5.87 0 0 1 .63 3.13v3.65a5.39 5.39 0 0 1-.76 3.34 3.64 3.64 0 0 1-5.58-.21 5.87 5.87 0 0 1-.63-3.13zm5.54.14c0-2.47-.59-3.46-2-3.46s-2.06 1-2.06 3.46v3.37c0 2.47.59 3.46 2.06 3.46s2-1 2-3.46zM542.43 275.72a5.32 5.32 0 0 1 .77-3.34 3.64 3.64 0 0 1 5.58.21 6 6 0 0 1 .62 3.13v3.65a5.32 5.32 0 0 1-.76 3.34 3.64 3.64 0 0 1-5.58-.21 5.87 5.87 0 0 1-.63-3.13zm5.55.14c0-2.47-.59-3.46-2.05-3.46s-2.07 1-2.07 3.46v3.37c0 2.47.59 3.46 2.07 3.46s2.05-1 2.05-3.46zM526 317.76l-2.14.94-.45-1.15 3-1.32h1v12.41H526zM532.91 319.4c0-2.25 1.06-3.32 3.28-3.32s3.27 1.07 3.27 3.32a2.78 2.78 0 0 1-1.2 2.67c1.1.54 1.55 1.45 1.55 3.08 0 2.5-1.15 3.65-3.62 3.65s-3.63-1.15-3.63-3.65c0-1.63.45-2.54 1.55-3.08a2.78 2.78 0 0 1-1.2-2.67zm1.09 5.77c0 1.65.68 2.41 2.19 2.41s2.18-.76 2.18-2.41-.7-2.44-2.16-2.44-2.21.75-2.21 2.44zm.28-5.77c0 1.51.59 2.19 1.91 2.19s1.9-.68 1.9-2.19-.61-2.18-1.88-2.18-1.93.68-1.93 2.18zM542.43 320.61a5.26 5.26 0 0 1 .77-3.33 3.65 3.65 0 0 1 5.58.2 6 6 0 0 1 .62 3.13v3.65a5.3 5.3 0 0 1-.76 3.34 3.64 3.64 0 0 1-5.58-.21 5.87 5.87 0 0 1-.63-3.13zm5.55.14c0-2.47-.59-3.46-2.05-3.46s-2.07 1-2.07 3.46v3.37c0 2.47.59 3.46 2.07 3.46s2.05-1 2.05-3.46zM526 362.65l-2.14.94-.45-1.14 3-1.32h1v12.4H526zM535.31 366.17a2.22 2.22 0 0 1 1.28-.32A2.93 2.93 0 0 1 539 367a4.8 4.8 0 0 1 .61 2.72 4.21 4.21 0 0 1-.83 3 3.56 3.56 0 0 1-2.61.94 3.4 3.4 0 0 1-2.76-1.13 4.36 4.36 0 0 1-.68-2.81 6.19 6.19 0 0 1 .92-3.43l2.78-5.19h1.62zm-1.1 3.56c0 1.89.63 2.74 2 2.74s2-.85 2-2.72-.63-2.75-2-2.75-2 .83-2 2.73zM542.43 365.51a5.28 5.28 0 0 1 .77-3.34 3.64 3.64 0 0 1 5.58.21 6 6 0 0 1 .62 3.13v3.64a5.29 5.29 0 0 1-.76 3.34 3.64 3.64 0 0 1-5.58-.21 5.87 5.87 0 0 1-.63-3.13zm5.55.13c0-2.46-.59-3.45-2.05-3.45s-2.07 1-2.07 3.45V369c0 2.46.59 3.45 2.07 3.45s2.05-1 2.05-3.45zM526 407.55l-2.14.94-.45-1.15 3-1.32h1v12.41H526zM537.43 416.13h-5v-.9l4-9.21h1.53l-3.96 8.91h3.41v-3.8h1.32v3.8H540v1.22h-1.23v2.28h-1.32zM542.43 410.4a5.3 5.3 0 0 1 .77-3.34 3.64 3.64 0 0 1 5.58.21 6 6 0 0 1 .62 3.13v3.65a5.27 5.27 0 0 1-.76 3.33 3.65 3.65 0 0 1-5.58-.2 5.89 5.89 0 0 1-.63-3.13zm5.55.14c0-2.47-.59-3.46-2.05-3.46s-2.07 1-2.07 3.46v3.37c0 2.47.59 3.46 2.07 3.46s2.05-1 2.05-3.46zM526 452.44l-2.14.94-.45-1.15 3-1.32h1v12.41H526zM532.46 462.36l3.44-4.46c1.3-1.71 1.88-3 1.88-4.12a1.65 1.65 0 0 0-1.86-1.81 2.06 2.06 0 0 0-2.09 1.86l-1.3-.12a3.14 3.14 0 0 1 3.47-3c2.07 0 3.22 1.12 3.22 3.1 0 1.51-.49 2.54-2.37 5l-2.48 3.25h4.94v1.22h-6.85zM542.43 455.29a5.32 5.32 0 0 1 .77-3.34 3.64 3.64 0 0 1 5.58.21 6 6 0 0 1 .62 3.13v3.65a5.32 5.32 0 0 1-.76 3.34 3.64 3.64 0 0 1-5.58-.21 5.87 5.87 0 0 1-.63-3.13zm5.55.14c0-2.47-.59-3.46-2.05-3.46s-2.07 1-2.07 3.46v3.37c0 2.47.59 3.46 2.07 3.46s2.05-1 2.05-3.46zM526 497.33l-2.14.94-.45-1.15 3-1.32h1v12.41H526zM532.7 500.18a5.26 5.26 0 0 1 .77-3.33 3.64 3.64 0 0 1 5.57.2 5.92 5.92 0 0 1 .63 3.13v3.65a5.37 5.37 0 0 1-.76 3.34 3.13 3.13 0 0 1-2.72 1.2 3.1 3.1 0 0 1-2.86-1.41 5.87 5.87 0 0 1-.63-3.13zm5.54.14c0-2.47-.59-3.46-2-3.46s-2.06 1-2.06 3.46v3.37c0 2.47.59 3.46 2.06 3.46s2-1 2-3.46zM542.43 500.18a5.26 5.26 0 0 1 .77-3.33 3.65 3.65 0 0 1 5.58.2 6 6 0 0 1 .62 3.13v3.65a5.3 5.3 0 0 1-.76 3.34 3.64 3.64 0 0 1-5.58-.21 5.87 5.87 0 0 1-.63-3.13zm5.55.14c0-2.47-.59-3.46-2.05-3.46s-2.07 1-2.07 3.46v3.37c0 2.47.59 3.46 2.07 3.46s2.05-1 2.05-3.46zM532.91 543.86c0-2.24 1.06-3.32 3.28-3.32s3.27 1.08 3.27 3.32a2.79 2.79 0 0 1-1.2 2.68c1.1.53 1.55 1.44 1.55 3.07 0 2.51-1.15 3.65-3.62 3.65s-3.63-1.14-3.63-3.65c0-1.63.45-2.54 1.55-3.07a2.79 2.79 0 0 1-1.2-2.68zm1.09 5.77c0 1.65.68 2.41 2.19 2.41s2.18-.76 2.18-2.41-.7-2.43-2.16-2.43-2.21.74-2.21 2.43zm.28-5.77c0 1.51.59 2.19 1.91 2.19s1.9-.68 1.9-2.19-.61-2.17-1.88-2.17-1.93.68-1.93 2.17zM542.43 545.08a5.28 5.28 0 0 1 .77-3.34 3.64 3.64 0 0 1 5.58.21 6 6 0 0 1 .62 3.13v3.65a5.27 5.27 0 0 1-.76 3.33 3.64 3.64 0 0 1-5.58-.21 5.85 5.85 0 0 1-.63-3.12zm5.55.13c0-2.46-.59-3.45-2.05-3.45s-2.07 1-2.07 3.45v3.38c0 2.46.59 3.45 2.07 3.45s2.05-1 2.05-3.45zM561.86 567.46a4.26 4.26 0 0 1-1.32.21 3.1 3.1 0 0 1-2-.67c-.71-.59-1-1.46-1-3 0-2.57 1.08-3.72 3.46-3.72a3.51 3.51 0 0 1 2.73 1 4 4 0 0 1 .69 2.63 5.4 5.4 0 0 1-.69 2.94l-3 6h-1.62zm-2.94-3.46c0 1.69.66 2.51 2 2.51s2-.82 2-2.49-.66-2.5-2-2.5-2 .83-2 2.48zM568.15 560.49h5.6v1.21h-4.4l-.42 3.95a3.81 3.81 0 0 1 1.86-.47 3.23 3.23 0 0 1 2.66 1.2 4.5 4.5 0 0 1 .66 2.73 4 4 0 0 1-.8 2.81 3.69 3.69 0 0 1-2.88 1.13c-2 0-3.18-.92-3.41-2.66l1.38-.17a1.9 1.9 0 0 0 2.06 1.62c1.43 0 2.21-.92 2.21-2.65 0-1.94-.66-2.83-2.1-2.83a2.8 2.8 0 0 0-2 .78l-1-.22zM630.48 564.87a5.37 5.37 0 0 1 .76-3.34 3.14 3.14 0 0 1 2.73-1.2 3.09 3.09 0 0 1 2.85 1.41 5.87 5.87 0 0 1 .63 3.13v3.65a5.26 5.26 0 0 1-.77 3.33 3.08 3.08 0 0 1-2.71 1.2 3.13 3.13 0 0 1-2.87-1.4 6 6 0 0 1-.62-3.13zm5.52.13c0-2.47-.59-3.46-2-3.46s-2.07 1-2.07 3.46v3.37c0 2.47.6 3.46 2.07 3.46s2-1 2-3.46zM640.21 564.87a5.3 5.3 0 0 1 .77-3.34 3.63 3.63 0 0 1 5.57.21 5.87 5.87 0 0 1 .63 3.13v3.65a5.34 5.34 0 0 1-.76 3.33 3.65 3.65 0 0 1-5.58-.2 5.92 5.92 0 0 1-.63-3.13zm5.54.14c0-2.47-.59-3.46-2-3.46s-2.06 1-2.06 3.46v3.37c0 2.47.59 3.46 2.06 3.46s2-1 2-3.46zM703.51 564.87a5.3 5.3 0 0 1 .77-3.34 3.63 3.63 0 0 1 5.57.21 5.87 5.87 0 0 1 .63 3.13v3.65a5.26 5.26 0 0 1-.77 3.33 3.08 3.08 0 0 1-2.71 1.2 3.11 3.11 0 0 1-2.86-1.4 5.92 5.92 0 0 1-.63-3.13zm5.54.14c0-2.47-.59-3.46-2-3.46s-2.06 1-2.06 3.46v3.37c0 2.47.59 3.46 2.06 3.46s2-1 2-3.46zM714.22 560.49h5.59v1.21h-4.39l-.42 3.95a3.75 3.75 0 0 1 1.86-.47 3.23 3.23 0 0 1 2.66 1.2 4.5 4.5 0 0 1 .66 2.73 4 4 0 0 1-.8 2.81 3.71 3.71 0 0 1-2.89 1.13c-2 0-3.18-.92-3.4-2.66l1.37-.17a1.91 1.91 0 0 0 2.07 1.62c1.42 0 2.2-.92 2.2-2.65 0-1.94-.66-2.83-2.1-2.83a2.76 2.76 0 0 0-2 .78l-1-.22zM779.58 562l-2.13.94-.45-1.15 3-1.32h1v12.43h-1.45zM786.27 564.87a5.3 5.3 0 0 1 .77-3.34 3.64 3.64 0 0 1 5.58.21 5.88 5.88 0 0 1 .62 3.13v3.65a5.27 5.27 0 0 1-.76 3.33 3.09 3.09 0 0 1-2.71 1.2 3.13 3.13 0 0 1-2.87-1.4 5.92 5.92 0 0 1-.63-3.13zm5.55.14c0-2.47-.59-3.46-2.05-3.46s-2.07 1-2.07 3.46v3.37c0 2.47.59 3.46 2.07 3.46s2.05-1 2.05-3.46zM852.62 562l-2.14.94-.45-1.15 3-1.32h1v12.43h-1.44zM860.28 560.49h5.6v1.21h-4.4l-.42 3.95a3.78 3.78 0 0 1 1.86-.47 3.23 3.23 0 0 1 2.66 1.2 4.5 4.5 0 0 1 .66 2.73 4 4 0 0 1-.8 2.81 3.69 3.69 0 0 1-2.88 1.13c-2 0-3.18-.92-3.41-2.66l1.37-.17a1.91 1.91 0 0 0 2.07 1.62c1.43 0 2.21-.92 2.21-2.65 0-1.94-.66-2.83-2.11-2.83a2.77 2.77 0 0 0-2 .78l-1-.22z"/><path class="cls-5" d="M894.06 496c-.44 0-.69.07-1 .07a4.49 4.49 0 0 1-2.92-.9c-1-.78-1.35-1.93-1.35-4.05s.37-3.22 1.24-4a5.58 5.58 0 0 1 3.72-1.1 5.18 5.18 0 0 1 4 1.35c.71.79 1 1.84 1 3.66a7.33 7.33 0 0 1-1.06 4.35l-3.81 7.29h-3.36zm-2.32-4.88c0 1.87.59 2.67 2 2.67s2-.83 2-2.67-.62-2.67-2-2.67-2 .76-2 2.62zM904.32 492.8h1.26c1.57 0 2.49-.83 2.49-2.23s-.69-2.17-1.89-2.17a2 2 0 0 0-2 1.82l-2.66-.21c.23-2.71 1.84-4 4.87-4s4.71 1.56 4.71 4.48a3.54 3.54 0 0 1-1.81 3.5 4 4 0 0 1 2.21 4c0 3.22-1.73 4.86-5.13 4.86s-5.06-1.41-5.27-4.21l2.83-.35a2.15 2.15 0 0 0 2.32 2.12c1.45 0 2.26-.9 2.26-2.49a2.6 2.6 0 0 0-2.69-2.78h-1.45zM904.25 509.79V527h-2.56v-1.26h-8.88V527h-2.46v-17.21zm-11.44 2.4v4.3h8.88v-4.3zm8.88 11.14v-4.48h-8.88v4.48zM920.33 514.87a17.47 17.47 0 0 0 7 7.26 10.11 10.11 0 0 0-1.84 2.16 16.36 16.36 0 0 1-3.26-2.68v2.28h-3.32v3.38h-2.5v-3.38H913v-2.1a17.84 17.84 0 0 1-3.12 2.56 11.76 11.76 0 0 0-1.74-2 17.77 17.77 0 0 0 6.88-7.5h-6.1v-2.4h7.52v-3.85h2.5v3.87h7.58v2.4zm-3.94 6.6v-4.36a23.31 23.31 0 0 1-3.14 4.36zm5.68 0a22.29 22.29 0 0 1-3.18-4.4v4.4z"/><path class="cls-6" d="M892.9 298l-2.14.94-.45-1.15 3-1.32h1v12.41h-1.41zM898.06 299.58c0-2.24 1.06-3.31 3.29-3.31s3.27 1.07 3.27 3.31a2.81 2.81 0 0 1-1.2 2.68c1.09.54 1.54 1.44 1.54 3.08 0 2.5-1.14 3.65-3.61 3.65s-3.63-1.15-3.63-3.65c0-1.64.45-2.54 1.54-3.08a2.81 2.81 0 0 1-1.2-2.68zm1.1 5.77c0 1.66.68 2.42 2.19 2.42s2.17-.76 2.17-2.42-.69-2.43-2.15-2.43-2.21.75-2.21 2.43zm.28-5.77c0 1.52.59 2.19 1.91 2.19s1.89-.67 1.89-2.19-.61-2.17-1.87-2.17-1.93.68-1.93 2.17zM907.79 299.58c0-2.24 1.06-3.31 3.29-3.31s3.27 1.07 3.27 3.31a2.81 2.81 0 0 1-1.2 2.68c1.09.54 1.54 1.44 1.54 3.08 0 2.5-1.14 3.65-3.61 3.65s-3.63-1.15-3.63-3.65c0-1.64.45-2.54 1.54-3.08a2.81 2.81 0 0 1-1.2-2.68zm1.1 5.77c0 1.66.68 2.42 2.19 2.42s2.17-.76 2.17-2.42-.69-2.43-2.15-2.43-2.21.75-2.21 2.43zm.28-5.77c0 1.52.59 2.19 1.91 2.19s1.89-.67 1.89-2.19-.6-2.17-1.87-2.17-1.93.68-1.93 2.17zM900.2 321.07a8 8 0 0 0 1.14-.09v1.25c-.37 0-.87-.05-1.14-.05H891c-.38 0-.78 0-1.21.05V321a8.63 8.63 0 0 0 1.21.09h6.18c.25-1.47.82-5.14.86-6.1h-6.7v-1.19a8.81 8.81 0 0 0 1.29.09h5.06a3.91 3.91 0 0 0 .85-.11l.91.42a3.24 3.24 0 0 0-.11.45c-.15 1.29-.72 5-.95 6.42zM904 317.08c.41 0 1.14.07 1.9.07h7.51a14.55 14.55 0 0 0 1.48-.07v1.34c-.27 0-.85-.07-1.46-.07h-7.53c-.75 0-1.48 0-1.9.07zM928.36 321.45v1.64h-1.17v-.78h-7.48v.78h-1.18v-8.4-1.06h9.78v1.06zm-8.62-6.71v6.5h7.49v-6.5zM943.11 312.15v11.9h-1v-.57h-9.4v.57h-1v-11.9zm-1 10.41v-9.48h-9.4v9.48zm-2.48-5.18a4.73 4.73 0 0 0 2 1.66 2.41 2.41 0 0 0-.54.66 5.58 5.58 0 0 1-2.32-2.32h-2.62c-.16.25-.33.48-.5.7h3.53v2.1h-3.25v.82c0 .3.13.36.77.36h2.3c.46 0 .56-.13.6-1a2.24 2.24 0 0 0 .74.26c-.08 1.12-.36 1.37-1.25 1.37h-2.5c-1.22 0-1.57-.18-1.57-1v-1.47h3.28v-.86h-2.92v-.39a7.54 7.54 0 0 1-1.73 1.43 3.5 3.5 0 0 0-.6-.62 6.57 6.57 0 0 0 2.06-1.74h-1.76v-.67h2.21a5.64 5.64 0 0 0 .46-.92h-2.15v-.64H935a4.28 4.28 0 0 0-.7-1.33l.68-.24a4.12 4.12 0 0 1 .74 1.35l-.63.22h1.22a11.73 11.73 0 0 0 .43-1.7l.82.11q-.16.84-.39 1.59h2.09l-.52-.18a13.06 13.06 0 0 0 .8-1.45l.79.23a14.81 14.81 0 0 1-.92 1.4H941v.64h-2.17a6.9 6.9 0 0 0 .4.92h2.22v.67zm-1.21-.67a6 6 0 0 1-.34-.92h-1.14a8.54 8.54 0 0 1-.41.92z"/><path class="cls-7" d="M892.9 254.7l-2.14.94-.45-1.15 3-1.32h1v12.41h-1.41zM902.27 260.14a4 4 0 0 1-1.32.21 3.13 3.13 0 0 1-2.05-.66c-.72-.59-1-1.46-1-3 0-2.57 1.08-3.71 3.46-3.71a3.49 3.49 0 0 1 2.73 1 4 4 0 0 1 .69 2.62 5.46 5.46 0 0 1-.69 2.94l-3 6h-1.62zm-2.94-3.42c0 1.68.66 2.5 2 2.5s2-.82 2-2.49-.66-2.5-2-2.5-2 .77-2 2.49zM909.34 258.46h1a2.1 2.1 0 0 0 2.28-2.13 2 2 0 0 0-3.86-.62l-1.28-.12c.22-1.69 1.35-2.57 3.28-2.57a3 3 0 0 1 3.3 3.28 2.67 2.67 0 0 1-1.61 2.73 3.06 3.06 0 0 1 1.93 3.16c0 2.31-1.29 3.55-3.69 3.55-2.14 0-3.37-.94-3.56-2.66l1.37-.18a1.94 1.94 0 0 0 2.16 1.62 2.11 2.11 0 0 0 2.27-2.36 2.4 2.4 0 0 0-2.5-2.54h-1.13zM896.84 277.56a14.73 14.73 0 0 0 5 4.63 4.57 4.57 0 0 0-.77.87A16.81 16.81 0 0 1 896 278v5.81h-1v-5.77a16.25 16.25 0 0 1-5 5.14 6.55 6.55 0 0 0-.73-.85 14.46 14.46 0 0 0 4.95-4.78h-4.65v-1H895v-5.24h1v5.24h5.48v1zm-4.67-1.85a13.48 13.48 0 0 0-1.86-3.21l.91-.38a13.72 13.72 0 0 1 1.94 3.15zm8.7-3.28a30.65 30.65 0 0 1-2.22 3.39l-.88-.4a19.21 19.21 0 0 0 2-3.43zM915.1 271.92v11.9H914v-.69h-9.16v.69h-1v-11.9zm-1.1 10.27v-9.32h-9.16v9.32zm-.79-2.13v.87h-7.47v-.87h3.15v-2.3h-2.57v-.88h2.57v-1.94h-3V274h7v.92h-3.09v1.94h2.74v.88h-2.74v2.3zM911.4 278a8.46 8.46 0 0 1 1.38 1.49l-.69.41a10.33 10.33 0 0 0-1.33-1.55z"/><path class="cls-8" d="M564.12 502.88h8.45l13.43-6.76 25.81 3.38 22 3.38 25.81 7.18 22 6.34 18.16-6.34s35.37 9.23 38.24 6.34 18.16-6.34 18.16-6.34l9.56 9.9 26.77-1.87 8.6-1.69 24.85 5.33h23.82l30.6-1.73"/><path class="cls-10" d="M564.12 499.5l21.45-16.89 16.21-8.15 14.4-10.2 34.66-24.59 32.41-25.12 14.86-11.11 27.91-25.4 24.31-27.21 31.51-7.73 43.21-18.82 17.56-5.31 19.8-8.69 16.76-7.73"/><path class="cls-9" d="M564.12 499.5l20-16.06 23.51-16.74 10.8-9.68 12.61-14 18.45-8.68 16.33-6.28 32.29-24.62 17.11-13.81 28.35-25.29 9.01-5.31h10.8l11.44-4.83 27.27-17.68 9.96-6.58 17.18-6.93 14.28-12.25 22.95-15.45 12.71-5.79"/><path class="cls-12" d="M439.52 546.53H116.61V232.72M879.17 546.53H556.25V232.72"/></g></svg>