<svg xmlns="http://www.w3.org/2000/svg" viewBox="0 0 900 340"><defs><style>.cls-2{fill:#ffe6d0}.cls-3{fill:#e94e3c}.cls-4{fill:#333}.cls-5{fill:#e60000}.cls-7{fill:#fff}.cls-8{fill:#777}.cls-9{fill:none;stroke:#777;stroke-miterlimit:10;stroke-dasharray:3 3}</style><linearGradient id="名称未設定グラデーション_2" x1="96.98" y1="286.29" x2="96.98" y2="182.78" gradientUnits="userSpaceOnUse"><stop offset="0" stop-color="#fff5ef"/><stop offset=".48" stop-color="#e94e3c"/><stop offset="1" stop-color="#e94e3c"/></linearGradient></defs><g id="レイヤー_3" data-name="レイヤー 3"><path fill="#fff5ef" d="M0 .39h900v339.22H0z"/><path class="cls-2" d="M166.41 145.58h101.16v140.6H166.41zM520.16 286.18H279.74v-140.6h134.75l105.67 140.6zM647 145.58h203.76v140.6h-98.09L647 145.58zM740.49 286.18H532.33l-105.66-140.6h208.15l105.67 140.6z"/><path class="cls-3" d="M96.97 137.82l-59.18 50.5h118.37l-59.19-50.5z"/><path class="cls-4" d="M424.46 305.11a16.75 16.75 0 0 1-1.62 5.11l-1.36-.52a13.88 13.88 0 0 0 1.65-4.92zm6.09 7.62c.83 0 1-.47 1.08-2.72a4.65 4.65 0 0 0 1.37.6c-.21 2.67-.63 3.5-2.34 3.5h-2.85c-1.79 0-2.3-.48-2.3-2.25v-.21a22.9 22.9 0 0 1-3.09 1.8 6.33 6.33 0 0 0-.91-1.1 21.34 21.34 0 0 0 4-2.38v-6H427v4.79a23.91 23.91 0 0 0 5.67-7.41l1.41.58a27.4 27.4 0 0 1-7.08 8.63v1.3c0 .72.15.86 1 .86zm-1.29-8.43c-.85-.75-2.44-1.95-3.64-2.79l.91-1c1.23.81 2.81 2 3.66 2.64zm3.9 1.2a20.44 20.44 0 0 1 2.36 4.62l-1.35.67a19.37 19.37 0 0 0-2.27-4.71zM448.84 309.7a6.54 6.54 0 0 1-1.67 2.19c1.58.42 3 .87 4.08 1.27l-.82 1.14a44.29 44.29 0 0 0-4.64-1.53 18.86 18.86 0 0 1-6.84 1.49 3.63 3.63 0 0 0-.52-1.22 21.28 21.28 0 0 0 5.37-.78c-.71-.18-1.43-.33-2.16-.49l-.24.33-1.34-.44c.42-.54.93-1.23 1.44-2h-3.31v-1.14h4.09c.27-.41.54-.81.77-1.19h-3.83v-4h3.27v-1.03h-4v-1.23h12.86v1.23h-4.13v1.08h3.57v4h-6.42l.23.06-.72 1.13h7.84v1.14zm-8.31-3.45h2v-1.74h-2zm2.59 3.45l-.75 1.06c1.07.21 2.15.45 3.18.71a5.23 5.23 0 0 0 1.73-1.77zm.71-6.32h2.08v-1.08h-2.08zm2.08 2.87v-1.74h-2.08v1.74zm1.32-1.74v1.74h2.19v-1.74zM465.89 304.24c-.37.22-.79.45-1.27.69a44.27 44.27 0 0 0-4.35 2.35c-1.32.86-2.15 1.79-2.15 2.87s1.1 1.83 3.32 1.83a24.62 24.62 0 0 0 4.8-.51v1.68a27.83 27.83 0 0 1-4.72.37c-2.87 0-5-.84-5-3.21 0-1.57 1-2.79 2.52-3.87-.68-1.26-1.43-2.92-2.12-4.51l1.49-.6a33.42 33.42 0 0 0 1.93 4.27c1.31-.78 2.78-1.51 3.54-2a7.13 7.13 0 0 0 1.2-.78zM483.14 304.13c-.84.23-1.77.44-2.68.6.54 1.2 1.3 2.78 2 4l-.85.88c-.71-.15-2.18-.36-3.21-.48l.15-1.21 1.95.19c-.39-.84-1-2.14-1.47-3.15a33 33 0 0 1-6.3 0l-.06-1.5a25.45 25.45 0 0 0 5.74.1l-.42-.91a9.29 9.29 0 0 0-.67-1.34L479 301c.3.88.58 1.59.91 2.35a20.07 20.07 0 0 0 3-.73zm-8.26 4.31a5.72 5.72 0 0 0-.42 1.83c0 1.21.73 2 2.91 2a17 17 0 0 0 4-.4v1.54a18.88 18.88 0 0 1-3.95.36c-2.85 0-4.42-1.12-4.42-3.07a9.14 9.14 0 0 1 .42-2.34zM501.37 312a3.85 3.85 0 0 1-2.76 1.19c-1 0-1.76-.72-1.76-2 0-1.64.56-4 .56-5.37a1 1 0 0 0-1.11-1.16c-1.16 0-2.87 1.4-4.16 2.79v1.5c0 1.29 0 2.36.06 3.71 0 .27.06.7.09 1h-1.62v-1c0-1.38 0-2.24.06-3.89-.69 1-1.56 2.31-2.19 3.17l-.93-1.31c.83-1 2.45-3.18 3.24-4.38l.09-1.27-2.82.37-.15-1.53h1.11c.42 0 1.25-.12 1.95-.23.05-.64.08-1.12.08-1.29a6.26 6.26 0 0 0-.08-1.2l1.76.06c-.08.38-.2 1.17-.3 2.13l.52.63c-.19.27-.46.69-.7 1.07 0 .21 0 .4-.05.61 1.16-1.05 3-2.35 4.43-2.35a2 2 0 0 1 2.2 2.08c0 1.5-.52 3.9-.52 5.42 0 .46.21.79.67.79a3.13 3.13 0 0 0 2.1-1.15zM514.66 302.72c-.3.2-.65.42-.92.62-.76.54-2.56 2.11-3.61 3a5.66 5.66 0 0 1 1.75-.25c2.49 0 4.34 1.53 4.34 3.6 0 2.38-1.91 4.08-5.24 4.08-2.05 0-3.43-.93-3.43-2.27a2.29 2.29 0 0 1 2.46-2.11 3 3 0 0 1 3.12 2.61 2.44 2.44 0 0 0 1.56-2.33c0-1.39-1.41-2.38-3.23-2.38-2.37 0-3.78 1.11-5.53 3l-1.1-1.11c1.16-.95 3-2.51 3.89-3.23s2.53-2.11 3.28-2.76l-4.09.18c-.38 0-.77.06-1.1.11v-1.55a9.48 9.48 0 0 0 1.19.07c.78 0 4.14-.09 4.95-.17a5.43 5.43 0 0 0 1-.15zm-2.9 9.62a1.79 1.79 0 0 0-1.75-1.82c-.62 0-1.07.36-1.07.83 0 .64.77 1 1.77 1a8.62 8.62 0 0 0 1.05-.01zM532 303a5 5 0 0 0-.43.78 20.73 20.73 0 0 1-2.46 4.27 40.34 40.34 0 0 1 4.29 4.4l-1.4 1.15a31.79 31.79 0 0 0-4-4.38 19.1 19.1 0 0 1-5.77 4.3l-1.22-1.26a17 17 0 0 0 6.17-4.39 12.32 12.32 0 0 0 2.38-4h-5.5c-.59 0-1.4.07-1.64.09v-1.7a14.63 14.63 0 0 0 1.64.11h5.56a4.59 4.59 0 0 0 1.31-.15zM549.74 308.48c-.34 0-.88.14-1.45.23l-3.5.55c.27 1.35.48 2.48.57 2.88s.24 1 .39 1.41l-1.72.3c-.08-.52-.12-1-.21-1.45s-.29-1.5-.54-2.9c-1.64.27-3.15.53-3.86.66s-1.06.2-1.39.29l-.35-1.61c.38 0 1-.09 1.43-.15.73-.1 2.26-.34 3.88-.6l-.52-2.76-3.15.53c-.51.09-.9.18-1.29.27l-.32-1.65c.42 0 .84-.06 1.31-.11s1.8-.24 3.16-.45c-.15-.75-.25-1.29-.3-1.5a8.79 8.79 0 0 0-.3-1.08l1.68-.27c0 .29.09.75.17 1.08s.13.75.28 1.53c1.37-.22 2.64-.43 3.23-.55s.93-.2 1.23-.29l.28 1.58-1.2.16-3.27.51.53 2.75 3.51-.6c.57-.12 1.06-.23 1.41-.33zM553.46 312.61A7.06 7.06 0 0 0 556 309a25.68 25.68 0 0 0 .44-6 4.74 4.74 0 0 0-.12-1.22h1.74A9.73 9.73 0 0 0 558 303a33.32 33.32 0 0 1-.46 6.41 8.46 8.46 0 0 1-2.67 4.2zm6.9.13a4.26 4.26 0 0 0 .11-.94v-8.88a10.87 10.87 0 0 0-.09-1.2h1.74a7.8 7.8 0 0 0-.08 1.2v8.29a10.47 10.47 0 0 0 4.08-3.45l.9 1.29a15.56 15.56 0 0 1-5.1 4.14 3.51 3.51 0 0 0-.57.38zM574.45 301.84h3.28v2.44h-.81v.93h-2.49v.79h2.31v1h-2.31v.87h3.15v1.06h-7.68v-1.06h3.23V307h-2.34v-1h2.34v-.81h-2.46v-.93h-.77v-2.44h3.2v-1.29h1.35zm-3.68 7.81h6.15v4.41h-1.32v-.55H572v.72h-1.26zm5.67-6.72h-5.31v1.26h2v-.9h1.3v.9h2zM572 310.7v1.74h3.57v-1.74zm7.82-.36h-1.32v-8.26h1.32zm3.07-9.58v11.68c0 .87-.16 1.26-.69 1.5a7.22 7.22 0 0 1-2.56.27 5.48 5.48 0 0 0-.48-1.45h2.07c.3 0 .31-.07.31-.33v-11.67zM593.65 300.52a16.65 16.65 0 0 0 6.49 5.23 6.55 6.55 0 0 0-.91 1.25 18.35 18.35 0 0 1-2.43-1.52v1.07h-7.47v-1a20.49 20.49 0 0 1-2.42 1.53 5.21 5.21 0 0 0-.85-1.11 16.73 16.73 0 0 0 6.16-5.43zm-5.18 7.72h9.24v6h-1.42v-.58h-6.45v.58h-1.37zm8.07-2.94a17 17 0 0 1-3.54-3.42 15.89 15.89 0 0 1-3.37 3.42zm-6.7 4.2v2.94h6.45v-2.94z"/><path class="cls-5" d="M203 202.19v9.17h-2v-15.69h6.69v6.52zm0-4.93v1h2.68v-1zm2.68 3.35v-1H203v1zm1.07 8.28v1h-1.95v-6.49h6.78v5.5zm0-3.78v2.07h2.89v-2.07zm9 3.77c0 1.15-.25 1.75-1 2.08a8.67 8.67 0 0 1-3.44.4 7.39 7.39 0 0 0-.7-2.13 25.2 25.2 0 0 0 2.54 0c.34 0 .46-.1.46-.42v-6.61h-4.75v-6.53h6.87zm-4.89-11.63v1h2.77v-1zm2.77 3.38v-1h-2.77v1zM223.21 209a13.75 13.75 0 0 0 3.89.39c1.19 0 6 0 7.41-.07a5.81 5.81 0 0 0-.67 1.71h-6.74c-3.3 0-5.47-.33-6.87-2.24a6.52 6.52 0 0 1-1.23 2.7 5.64 5.64 0 0 0-1.21-1.42c1-1.21 1.16-3.28 1.21-5.38h1.67c0 .65 0 1.28-.11 1.91a4.91 4.91 0 0 0 .9 1.39v-4h-3.24v-1.5h7.84V204h-2.85v1.44h2.52v1.5h-2.52zm2.08-7.51H219v-5.78h6.29zm-1.92-4.4h-2.51v.82h2.51zm0 2.14h-2.51v.86h2.51zm6.28 7.55a10.15 10.15 0 0 1-3.06 2.55 13.85 13.85 0 0 0-1.33-1.2 8.17 8.17 0 0 0 2.7-1.9zm-.87-8.62c.1-.3.19-.63.3-.95H226v-1.45h8v1.45h-3l-.42.95h3v8h-7v-8zm2.8 1.4h-3.19v.81h3.19zm0 2.15h-3.19v.81h3.19zm0 2.14h-3.19v.84h3.19zm.26 2.28a12.71 12.71 0 0 1 2.56 2.21l-1.49.87a14.5 14.5 0 0 0-2.5-2.33zM207.57 233.6h-3v2.89h-2v-2.89h-3.24v-1.79h3.24v-1.58h-1.45a7.4 7.4 0 0 1-.7 1.35 9.61 9.61 0 0 0-1.37-.73v3.69c0 .82-.14 1.35-.66 1.65a4.91 4.91 0 0 1-2.33.35 5.79 5.79 0 0 0-.6-1.77h1.6c.22 0 .29-.07.29-.29V232h-3.48a10.92 10.92 0 0 1-1.39 4.61 7.32 7.32 0 0 0-1.43-.93c1.17-1.8 1.26-4.41 1.26-6.37v-2.6a11.6 11.6 0 0 0-1.37-1.12 12.25 12.25 0 0 0 2.59-5.38l1.84.39a12.64 12.64 0 0 1-.36 1.24h1.59l.26-.08 1.19.73a18 18 0 0 1-1 2.21h2v1.07a3.68 3.68 0 0 0 2.23-3h-2v-1.7h7.78v.66c-.09 2.79-.23 4-.62 4.45a1.53 1.53 0 0 1-1.06.58 13.07 13.07 0 0 1-1.77.05 4.14 4.14 0 0 0-.48-1.68c.55 0 1 .07 1.26.07a.51.51 0 0 0 .48-.19 5.48 5.48 0 0 0 .31-2.24h-2a5.32 5.32 0 0 1-2.75 4.25l1.56.32a11.25 11.25 0 0 1-.25 1.12h.86v-1.56h2v1.58h2.63v1.75h-2.63v1.58h3zm-13.1-10.2c-.2.44-.39.88-.6 1.28h1.51c.17-.39.33-.84.49-1.28zm-.44 5.89v1.15h1V229h-1zm0-1.77h1v-1.32h-1zm2.36 0h1v-1.32h-1zm1 2.92V229h-1v1.45zm1.7.11a9.49 9.49 0 0 0 1.21-3.42l-.37.18a4.82 4.82 0 0 0-.84-1.19zM212.17 228.39a14.08 14.08 0 0 0-3.16-1.84l1.11-1.56a12.31 12.31 0 0 1 3.24 1.67zm2 2.33a81.37 81.37 0 0 1-2.87 5.59l-1.82-1.3a53.28 53.28 0 0 0 3.1-5.58zm-1.07-7a11.92 11.92 0 0 0-3.1-1.9l1.14-1.56a14.1 14.1 0 0 1 3.17 1.74zm8 6.25a8.23 8.23 0 0 0 4.47 4.8 7.84 7.84 0 0 0-1.46 1.82 9.85 9.85 0 0 1-4.76-5.6 8.78 8.78 0 0 1-4.54 5.62 7.77 7.77 0 0 0-1.73-1.47 7.87 7.87 0 0 0 4.34-5.17H214v-2h3.74c0-.58.05-1.16.05-1.74v-1.43h-2.93v-2h2.93v-2.67h2.07v2.67h4.2v5.2h1.31v2zm-1.24-3.68c0 .58 0 1.14-.06 1.72h2.23v-3.17h-2.17zM242.38 223.84s0 .72-.06 1c-.35 7-.7 9.6-1.47 10.51a2.37 2.37 0 0 1-1.79 1 16.71 16.71 0 0 1-2.8 0 4.66 4.66 0 0 0-.72-2.15c1.11.09 2.14.09 2.6.09a1.07 1.07 0 0 0 .86-.29c.52-.55.88-2.84 1.16-8h-4.91c-.28 3.62-1.51 7.88-6.43 10.66a8.45 8.45 0 0 0-1.63-1.7 10.67 10.67 0 0 0 5.82-9h-5.31v-2.14h5.36v-3.61h2.22v3.61zM305.86 165.05l2.48.53c-.13.47-.34 1.31-.4 1.68a38.75 38.75 0 0 1-1.45 5.12 24.13 24.13 0 0 1-2.5 4.86l-2.38-1a20.92 20.92 0 0 0 2.64-4.72 24.19 24.19 0 0 0 1.61-6.47zm4.32.51l2.26-.73c.7 1.32 1.87 3.94 2.52 5.57s1.49 4.25 2 5.94l-2.52.81a52.92 52.92 0 0 0-1.77-6 49 49 0 0 0-2.49-5.59zM319.67 169.25c.61.05 1.85.1 2.73.1h9.13c.78 0 1.55-.07 2-.1v2.67c-.41 0-1.27-.09-2-.09h-9.13c-1 0-2.1 0-2.73.09zM342.58 168.45a60.58 60.58 0 0 1 7.11 2.65l-.95 2.36a45.88 45.88 0 0 0-6.16-2.53v4.81c0 .48.09 1.67.17 2.36h-2.67a17 17 0 0 0 .17-2.36V166a11.93 11.93 0 0 0-.17-2.06h2.66a18 18 0 0 0-.16 2.06zm4.52-.75a13.76 13.76 0 0 0-1.49-2.62l1.43-.61c.47.72 1.15 1.8 1.54 2.57zm2.33-.95a15.61 15.61 0 0 0-1.58-2.55l1.41-.66a21.78 21.78 0 0 1 1.6 2.51zM367 165.59a8.7 8.7 0 0 0-.6 1.06 25.13 25.13 0 0 1-2.66 4.67 47.94 47.94 0 0 1 4.74 4.86l-1.94 1.69a38.46 38.46 0 0 0-4.28-4.81 22.44 22.44 0 0 1-6.39 4.77l-1.8-1.83a19.26 19.26 0 0 0 7-4.88 13.21 13.21 0 0 0 2.54-4.17h-5.77c-.71 0-1.64.11-2 .12v-2.41a18.37 18.37 0 0 0 2 .12h6a6.11 6.11 0 0 0 1.77-.22zM385.61 172.15c-.44 0-1.14.16-1.79.26-.81.14-2.19.36-3.69.59.28 1.4.51 2.54.62 3.06s.29 1.13.44 1.67l-2.45.44c-.08-.64-.14-1.22-.24-1.71s-.3-1.67-.58-3.1c-1.73.29-3.33.56-4.06.7s-1.31.25-1.7.36l-.47-2.28c.46 0 1.22-.12 1.76-.19l4.08-.65-.51-2.72-3.33.55c-.59.12-1.05.22-1.56.36l-.46-2.35c.54 0 1.05 0 1.58-.12s1.9-.25 3.37-.49c-.14-.72-.26-1.28-.31-1.55-.1-.47-.22-.88-.34-1.29l2.4-.39c.05.34.1.92.18 1.32 0 .24.14.8.28 1.57 1.44-.24 2.73-.44 3.34-.56s1.19-.24 1.6-.36l.41 2.23c-.37 0-1.05.13-1.56.2l-3.4.55.52 2.7c1.53-.26 2.93-.48 3.69-.63s1.29-.27 1.74-.41zM388.14 176.49a8 8 0 0 0 2.89-4.06c.48-1.47.5-4.68.5-6.73a6.29 6.29 0 0 0-.16-1.55h2.5a10.3 10.3 0 0 0-.12 1.53 37.48 37.48 0 0 1-.51 7.31 9.89 9.89 0 0 1-3 4.88zm7.87.25a6.17 6.17 0 0 0 .14-1.25v-9.91a7.29 7.29 0 0 0-.14-1.47h2.54a8.44 8.44 0 0 0-.12 1.48v8.89a10.75 10.75 0 0 0 4.2-3.58l1.3 1.87a18.72 18.72 0 0 1-5.76 4.64 4.2 4.2 0 0 0-.75.51zM527.73 177c.85 1.19 2.31 3.79 2.94 5l-2.24 1.27a38.57 38.57 0 0 0-2.88-5.13zm6.17 7.1a13.39 13.39 0 0 0 2-5.13 9.94 9.94 0 0 0 .22-2.06l2.75.39c-.2.65-.39 1.48-.51 2a17.81 17.81 0 0 1-2.36 6 14.38 14.38 0 0 1-5.9 5.22l-2-1.75a12.86 12.86 0 0 0 5.8-4.63zM556.39 178.43a6.85 6.85 0 0 0-.37 1.19 17.47 17.47 0 0 1-2.55 6.19 13.62 13.62 0 0 1-6.84 4.69l-1.85-2a11.14 11.14 0 0 0 6.66-4 10.67 10.67 0 0 0 2-4.79h-7.92c-.76 0-1.58 0-2 .07v-2.4c.51 0 1.48.14 2 .14h7.85a5.73 5.73 0 0 0 1.35-.14zM572.42 185.84a49.15 49.15 0 0 0-6.13-2.53v4.81c0 .49.08 1.68.15 2.36h-2.65a18.46 18.46 0 0 0 .17-2.36v-9.76a11.66 11.66 0 0 0-.17-2.05h2.65a17.91 17.91 0 0 0-.15 2.05v2.5a54.42 54.42 0 0 1 7.1 2.64zM590.14 178.23a6.85 6.85 0 0 0-.6 1.05 24.91 24.91 0 0 1-2.67 4.67 46.89 46.89 0 0 1 4.74 4.87l-1.93 1.68a39.3 39.3 0 0 0-4.29-4.81 22.3 22.3 0 0 1-6.39 4.77l-1.75-1.83a19.23 19.23 0 0 0 7-4.88 13.13 13.13 0 0 0 2.53-4.16H581c-.71 0-1.65.1-2 .12v-2.42a18.22 18.22 0 0 0 2 .12h6a6.11 6.11 0 0 0 1.77-.22zM608.78 184.79c-.44 0-1.13.15-1.78.25l-3.69.6c.27 1.39.51 2.53.61 3.06s.29 1.12.45 1.66l-2.45.44c-.09-.64-.14-1.22-.24-1.71s-.31-1.67-.58-3.1l-4.06.7c-.73.14-1.31.26-1.7.36l-.48-2.28c.46 0 1.23-.12 1.77-.19l4.08-.64-.51-2.72-3.33.54c-.6.12-1.06.22-1.56.36l-.46-2.35a13.83 13.83 0 0 0 1.58-.12c.59-.06 1.9-.25 3.36-.49-.13-.71-.25-1.27-.3-1.55-.11-.47-.22-.88-.34-1.29l2.39-.39c.05.34.11.92.19 1.33 0 .24.14.8.27 1.56 1.45-.24 2.74-.44 3.35-.56s1.19-.24 1.6-.36l.41 2.23c-.38 0-1.06.14-1.57.2l-3.4.55.53 2.7c1.53-.25 2.92-.48 3.69-.63a17.3 17.3 0 0 0 1.73-.41zM611.32 189.12a8 8 0 0 0 2.89-4.06c.48-1.46.49-4.68.49-6.73a6.36 6.36 0 0 0-.15-1.55h2.5a10.3 10.3 0 0 0-.12 1.53 37.43 37.43 0 0 1-.51 7.31 9.8 9.8 0 0 1-3 4.88zm7.87.26a6.37 6.37 0 0 0 .14-1.26v-9.91a7 7 0 0 0-.14-1.46h2.53a9.39 9.39 0 0 0-.12 1.48v8.89a10.8 10.8 0 0 0 4.2-3.59l1.31 1.87a18.69 18.69 0 0 1-5.76 4.64 4.37 4.37 0 0 0-.75.51z"/><path class="cls-3" d="M529 213a3.79 3.79 0 1 1 3.78 3.78A3.78 3.78 0 0 1 529 213z"/><path class="cls-4" d="M545.86 207.69a10.09 10.09 0 0 0-.06 1v4.69c0 .36 0 .85.06 1.13h-1.64c0-.23.07-.72.07-1.13v-4.69c0-.25 0-.74-.06-1zm6.47-.11c0 .36-.05.78-.05 1.29v2.49c0 3.21-.51 4.4-1.55 5.58a7.8 7.8 0 0 1-3.34 2l-1.17-1.22a6.43 6.43 0 0 0 3.39-1.83c1-1.11 1.17-2.2 1.17-4.65v-2.41a11 11 0 0 0-.09-1.29zM557 212.06c.45 0 1.31.09 2.07.09h7.61c.68 0 1.23-.06 1.56-.09v1.72c-.3 0-.93-.05-1.55-.05H559c-.79 0-1.61 0-2.07.05zM581 209.18l.82.5a4.76 4.76 0 0 0-.39.85 14.66 14.66 0 0 1-2 4c.52.34 1 .66 1.35.91l-1 1.28c-.33-.28-.8-.62-1.31-1a13.24 13.24 0 0 1-5.35 3.63l-1.27-1.11a12.06 12.06 0 0 0 5.38-3.33c-1-.68-2.1-1.32-2.85-1.74l.92-1.05c.78.41 1.86 1 2.89 1.62a10.92 10.92 0 0 0 1.63-3.4h-4.44a15.64 15.64 0 0 1-3.69 3.66l-1.19-.93a12.64 12.64 0 0 0 4.48-4.76 5.6 5.6 0 0 0 .53-1.28l1.6.51c-.28.42-.58 1-.73 1.25l-.17.29h3.4a3.14 3.14 0 0 0 1.05-.14h.06a14.74 14.74 0 0 0-1-1.71l.89-.38a19.41 19.41 0 0 1 1.14 1.92zm1.22-2.85a17.1 17.1 0 0 1 1.16 1.91l-.91.4a14.89 14.89 0 0 0-1.15-1.93zM585.51 212.06c.44 0 1.31.09 2.07.09h7.61c.68 0 1.23-.06 1.56-.09v1.72c-.3 0-.93-.05-1.55-.05h-7.62c-.79 0-1.61 0-2.07.05zM603.68 212.5l-.81 1.24a35.72 35.72 0 0 0-3.13-2l.8-1.2c.89.51 2.46 1.46 3.14 1.96zm1.42 3.29a14.42 14.42 0 0 0 5.36-5.2l.84 1.49a16.21 16.21 0 0 1-10.11 6.75l-.83-1.45a15.33 15.33 0 0 0 4.74-1.59zm.68-6.39l-.82 1.2c-.72-.51-2.22-1.51-3.09-2l.8-1.2c.87.49 2.45 1.52 3.11 2zM617.62 214l-1.33.49a26.67 26.67 0 0 0-1.27-3.2l1.32-.47c.32.68 1.02 2.46 1.28 3.18zm7.09-3a8.17 8.17 0 0 0-.26.85 11.2 11.2 0 0 1-2 4.21 11 11 0 0 1-4.6 3.39l-1.17-1.19a9.54 9.54 0 0 0 4.6-2.95 9.76 9.76 0 0 0 1.86-4.8zm-4 2.15l-1.32.47a25 25 0 0 0-1.12-3.08l1.32-.43c.26.61.95 2.44 1.13 3.06zM637 208.56a4.09 4.09 0 0 0 .58 0 2.33 2.33 0 0 1 0-.38 1.62 1.62 0 1 1 1.61 1.61 1.42 1.42 0 0 1-.36 0l-.07.27a14.13 14.13 0 0 1-2.1 5.14 10.9 10.9 0 0 1-5.56 3.79l-1.21-1.31a9.28 9.28 0 0 0 5.48-3.34A9.7 9.7 0 0 0 637 210h-6.88c-.6 0-1.16 0-1.51.05v-1.56a11.84 11.84 0 0 0 1.51.1zm3-.41a.88.88 0 0 0-1.76 0 .88.88 0 0 0 1.76 0z"/><path class="cls-3" d="M529 235a3.79 3.79 0 1 1 3.78 3.78A3.78 3.78 0 0 1 529 235z"/><path class="cls-4" d="M551.74 240.52v-.76h-6.64c-.58 0-1.28 0-1.68.06v-1.58c.4 0 1 .07 1.62.07h6.71v-6.25h-8.17v-1.54c.5 0 1.17.08 1.63.08H553.33v8.4c0 .49 0 1.18.06 1.49zM566.67 239.41l-.62 1.38a45.47 45.47 0 0 0-8.4-2.09l.56-1.37a53.41 53.41 0 0 1 8.46 2.08zm-.55-4.44l-.55 1.36a45.27 45.27 0 0 0-7.14-1.72l.52-1.33a52.09 52.09 0 0 1 7.17 1.72zm.94-3.78l-.57 1.37a47.77 47.77 0 0 0-7.43-1.71l.52-1.3a49.44 49.44 0 0 1 7.48 1.64zM580.67 239c.32 0 .89 0 1.22-.05v1.43h-10.01v-1.45a9.92 9.92 0 0 0 1.27.07H578c.2-1.19.56-3.6.6-4.38h-5.4v-1.45c.35 0 .88.06 1.23.06h4a2.85 2.85 0 0 0 .84-.11l1.06.52c0 .15-.08.36-.11.51-.11.89-.5 3.51-.7 4.81zM585.39 237.91c.51.05 1.07.09 1.59.09h8.23a10.85 10.85 0 0 0 1.4-.09v1.7c-.46 0-1-.07-1.4-.07H587c-.52 0-1.1 0-1.59.07zm1.19-6.89c.47 0 1 .07 1.49.07H594c.53 0 1.08 0 1.46-.07v1.6c-.39 0-1-.06-1.46-.06h-5.9c-.5 0-1.05 0-1.5.06zM609.9 231.71a9.62 9.62 0 0 0 1.37-.09v1.52h-3.56c-.25 3.88-1.76 6.31-4.23 7.86l-1.48-1a5.33 5.33 0 0 0 1.22-.7 7.82 7.82 0 0 0 3-6.15h-3.32a11.55 11.55 0 0 1-2.3 3l-1.38-.84a11 11 0 0 0 2.46-3 10.19 10.19 0 0 0 .8-1.95 5.92 5.92 0 0 0 .24-1.24l1.71.33c-.14.33-.3.76-.41 1.06s-.28.78-.46 1.23zM614.07 234.06c.45 0 1.31.09 2.07.09h7.61c.68 0 1.23-.06 1.56-.09v1.72c-.3 0-.93-.05-1.55-.05h-7.62c-.79 0-1.61 0-2.07.05zM632.24 234.5l-.81 1.24a35.72 35.72 0 0 0-3.13-2l.8-1.2c.9.51 2.48 1.46 3.14 1.96zm1.41 3.29a14.38 14.38 0 0 0 5.37-5.2l.84 1.49a16.21 16.21 0 0 1-10.11 6.75l-.83-1.45a15.19 15.19 0 0 0 4.73-1.59zm.69-6.39l-.82 1.2c-.72-.51-2.22-1.51-3.09-2l.8-1.2c.87.49 2.45 1.52 3.11 2zM650.81 241.21v-.57h-6.67v-1.34a10.65 10.65 0 0 0 1.18.06h5.49v-2.22H644.61v-1.33h6.18v-2.06h-4.94c-.44 0-1.28 0-1.56.06v-1.36c.31 0 1.12.06 1.56.06h6.36v8.67zM662.86 237.28a13.31 13.31 0 0 0 4.86-5.28l.85 1.53a14.4 14.4 0 0 1-4.91 5.07 15.65 15.65 0 0 1-5.37 2.09l-.94-1.45a14.48 14.48 0 0 0 5.51-1.96zm-.48-4.48l-1.1 1.14a30.54 30.54 0 0 0-3.51-3l1-1.1a28.68 28.68 0 0 1 3.61 2.96zM544.87 257a9.31 9.31 0 0 1 2.77-6.7l1.06.5a8.75 8.75 0 0 0 0 12.39l-1.06.5a9.31 9.31 0 0 1-2.77-6.69zM557.73 259.52c1 1.53 2.83 2.4 5.42 2.72a5.07 5.07 0 0 0-.81 1.2c-2.7-.44-4.51-1.51-5.64-3.37-.73 1.38-2.36 2.57-5.75 3.37a5.48 5.48 0 0 0-.81-1.09c3.28-.69 4.69-1.69 5.31-2.83h-5v-1.2h1.4v-3.23h4v-1.51h1.36v1.51h4.27v3.23h1.3v1.2zm-4.3-6.6h-2.86v-1.16h2.86v-1.19h1.29v1.19h3.71v-1.19h1.31v1.19h2.87v1.16h-2.87v1.36h-1.31v-1.36h-3.71v1.36h-1.29zm2.4 5.4v-2.09h-2.8v2.09zm1.4-2.09v2.09h3v-2.09zM569.55 254h-5.1v-1h5.1zm-.41 8.85h-2.94v.6h-1.12v-4.71h4.06zm-.08-6.93h-3.95v-1h3.95zm-3.95.89h3.95v1h-3.95zm3.95-4.72h-3.87v-1h3.87zm-2.86 7.71v2h1.8v-2zm11.18-3.48v1.15h-7.83v-1.15h1.76c.11-.53.23-1.15.32-1.78h-1.41v-1.1h1.6c0-.42.12-.85.18-1.24h-2V251h6.91v1.13h-3.63c0 .41-.12.82-.18 1.24h3.07v2.88zm-6.84 2.06h6v5h-1.28v-.53h-3.46v.59h-1.23zm1.23 1.18v2.14h3.46v-2.14zm1.14-5c-.11.65-.23 1.25-.32 1.78h2.32v-1.78zM582.64 257a9.32 9.32 0 0 1-2.78 6.69l-1.06-.5a8.73 8.73 0 0 0 0-12.39l1.06-.5a9.32 9.32 0 0 1 2.78 6.7z"/><path class="cls-3" d="M743.92 213a3.78 3.78 0 1 1 3.78 3.78 3.78 3.78 0 0 1-3.78-3.78z"/><path class="cls-4" d="M757.6 213.1c0-3.53 1.58-5.28 3.9-5.28s3.91 1.75 3.91 5.28-1.58 5.39-3.91 5.39-3.9-1.86-3.9-5.39zm6.24 0c0-3-1-4-2.34-4s-2.33 1-2.33 4 1 4.1 2.33 4.1 2.34-1.12 2.34-4.1zM775.07 207.37c-.07.29-.14.64-.19.95s-.22 1.09-.34 1.72c.57 0 1.06-.07 1.38-.07 1.35 0 2.37.56 2.37 2.5a13.32 13.32 0 0 1-.8 5 2.05 2.05 0 0 1-2.14 1.2 7.74 7.74 0 0 1-1.64-.21l-.24-1.46a7.34 7.34 0 0 0 1.71.3 1.11 1.11 0 0 0 1.14-.66 11.18 11.18 0 0 0 .61-4c0-1.19-.53-1.39-1.41-1.39-.28 0-.74 0-1.26.08a29.31 29.31 0 0 1-2.86 7.43l-1.44-.57a21.72 21.72 0 0 0 2.86-6.71l-1.5.17c-.37 0-1 .12-1.39.19l-.13-1.51h1.33c.46 0 1.2-.07 2-.14a14.47 14.47 0 0 0 .32-3zm4.78 1.39a25.12 25.12 0 0 1 2.49 5l-1.37.66a16.4 16.4 0 0 0-2.43-5.14zM787.11 213.46a6.72 6.72 0 0 1 4.3-1.51c2.25 0 3.68 1.39 3.68 3 0 2.5-2.13 4.3-7.53 3.85l-.44-1.45c4.29.55 6.46-.6 6.46-2.43 0-1-1-1.74-2.28-1.74a5.19 5.19 0 0 0-4.09 1.74 3.12 3.12 0 0 0-.47.74l-1.28-.31a54.5 54.5 0 0 0 .7-5.7l1.48.2c-.18.89-.42 2.76-.53 3.61zm.66-6.22a39.43 39.43 0 0 0 5.45 1.07l-.33 1.36c-1.35-.19-4.41-.82-5.47-1.1zM800.65 217h3.11v-7.2h-2.41v-1a7.25 7.25 0 0 0 2.81-.79h1.21v9h2.87v1.33h-7.59zM818.76 216.36c0-.47.06-1.26.06-2-1.18.66-1.92 1.29-1.92 2.11s.9 1.13 2.3 1.13a23.79 23.79 0 0 0 3.85-.36v1.41a34.39 34.39 0 0 1-3.85.24c-2.08 0-3.69-.48-3.69-2.2s1.67-2.79 3.27-3.6a1.09 1.09 0 0 0-1.12-.69 3.52 3.52 0 0 0-2.3 1 16.11 16.11 0 0 0-1.28 1.48l-1.19-.89a14.31 14.31 0 0 0 3.14-4h-.41c-.57 0-1.54 0-2.31-.09v-1.3a20.12 20.12 0 0 0 2.39.16h.81a8.72 8.72 0 0 0 .32-1.67l1.44.11a14.14 14.14 0 0 1-.39 1.5 31.62 31.62 0 0 0 4.1-.41v1.29a43.11 43.11 0 0 1-4.56.38 10.53 10.53 0 0 1-1 1.81 4.1 4.1 0 0 1 1.76-.41 1.82 1.82 0 0 1 1.85 1.18c.86-.41 1.57-.7 2.23-1 .46-.21.87-.39 1.32-.61l.54 1.29c-.38.11-1 .33-1.4.5-.71.27-1.61.64-2.58 1.09 0 .79.05 1.89.06 2.55zM762.44 228.71a31.72 31.72 0 0 1 3 2.56l-.86 1c-.22-.25-.5-.54-.82-.88v.77h-3.32v-.56a13.2 13.2 0 0 1-2 1.53 3.69 3.69 0 0 0-.8-.91 10.59 10.59 0 0 0 3.58-3.49zm-2.3 8.14c0 .24 0 .49-.1.73H765v3.72h-1.15v-.42H761v.51h-1.12v-2.94a7 7 0 0 1-1.28 2.66 4.37 4.37 0 0 0-.88-.79c1.29-1.59 1.43-3.79 1.43-5.38v-2.15h5.62v4.06zm3.43-.94v-.7h-3.32v.7zm-3.32-2.18v.67h3.32v-.67zm3.35-2.5c-.49-.49-1.05-1-1.55-1.4a13.89 13.89 0 0 1-1.25 1.4zm-2.63 7.3v1.37h2.84v-1.37zm6-.56h-1.22v-7.73H767zm3.11-9.13v10.95c0 .77-.17 1.15-.66 1.37a6.67 6.67 0 0 1-2.49.24 7.43 7.43 0 0 0-.42-1.32h2c.31 0 .34-.09.34-.33v-10.91zM782.13 230.64c-.28.19-.61.4-.86.58-.71.5-2.39 2-3.37 2.79a4.94 4.94 0 0 1 1.64-.24c2.32 0 4 1.43 4 3.36 0 2.23-1.78 3.81-4.88 3.81-1.92 0-3.21-.87-3.21-2.12a2.14 2.14 0 0 1 2.29-2 2.78 2.78 0 0 1 2.92 2.44 2.27 2.27 0 0 0 1.46-2.17c0-1.31-1.32-2.23-3-2.23-2.21 0-3.53 1-5.17 2.77l-1-1 3.63-3c.77-.64 2.37-2 3.07-2.57-.73 0-3.1.12-3.83.16l-1 .1v-1.44a10.5 10.5 0 0 0 1.11.07c.72 0 3.86-.08 4.62-.15a6.09 6.09 0 0 0 .88-.14zm-2.71 9a1.66 1.66 0 0 0-1.64-1.69c-.57 0-1 .33-1 .77 0 .6.71 1 1.65 1a7.47 7.47 0 0 0 .99-.1zM798.48 231.53v.64c-.31 5.67-.57 7.75-1.19 8.46a1.72 1.72 0 0 1-1.29.65 18.06 18.06 0 0 1-2.22 0 3.36 3.36 0 0 0-.47-1.35c.93.09 1.78.09 2.13.09a.83.83 0 0 0 .65-.21c.47-.45.77-2.37 1-6.95h-4.38a10.15 10.15 0 0 1-5.14 8.63 5 5 0 0 0-1-1.05 9 9 0 0 0 4.76-7.58H787v-1.33h4.41v-2.95h1.38v2.95z"/><path class="cls-5" d="M747.27 186.06c-.22-.53-.6-1.32-1-2.09v7.24h-1.84v-6.36a14.58 14.58 0 0 1-1.54 3.35 9.86 9.86 0 0 0-.89-1.78 17.17 17.17 0 0 0 2.28-5.7h-1.89v-1.87h2v-3.5h1.84v3.5H748v1.87h-1.7v.8c.47.67 1.73 2.62 2 3.1zm10.89 2.5h-.91v.73c0 .85-.17 1.28-.74 1.55a6.46 6.46 0 0 1-2.43.27 6.8 6.8 0 0 0-.52-1.6h1.53c.21 0 .29-.05.29-.26v-.71h-4.78v2.53h-1.82v-2.53h-1v-1.48h1v-4.25H752v-.64h-4v-1.43h2.11V180h-1.4v-1.36h1.4V178h-1.75v-1.4h1.75v-1.24H752v1.24h1.87v-1.24h1.88v1.24h1.91v1.4h-1.91v.69h1.64V180h-1.64v.72H758v1.43h-4.13v.64h3.39v4.25h.91zm-7.56-4.33v.77h1.4v-.73zm0 2.85h1.4v-.81h-1.4zm1.43-8.4h1.87V178H752zm0 2.08h1.87V180H752zm1.83 3.47v.77h1.52v-.73zm1.52 2.85v-.81h-1.52v.81zM762.6 182.2a9.62 9.62 0 0 1-1.92 2.47 7.45 7.45 0 0 0-1.29-1.4 10.09 10.09 0 0 0 2.89-3.79h-2.47v-1.71h2.79v-2.4h1.92v2.4h2.4v1.71h-2.4v.63c.68.39 2.3 1.55 2.69 1.87l-1.06 1.62c-.39-.43-1-1-1.63-1.6v3.55h-1.92zm-3.09 7.18a11.76 11.76 0 0 0 1.48-3.5l1.8.71a16.17 16.17 0 0 1-1.43 3.7zm9.7-.28c.8 0 .92-.23 1-1.95a5 5 0 0 0 1.82.71c-.25 2.43-.81 3-2.68 3h-3.06c-2.31 0-2.89-.56-2.89-2.33v-2.33h2v2.3c0 .51.17.57 1.08.57zm-2-4.21l.34.3v-9h6.9v9.15h-6.73a21.69 21.69 0 0 1 1.8 1.8l-1.46 1.22a24.87 24.87 0 0 0-2.24-2.36zm2.18-6.1h3.12v-1h-3.12zm0 2.48h3.12v-1h-3.12zm0 2.5h3.12v-1h-3.12zm3.92 1.88c.68 1.06 1.67 2.5 2.13 3.39l-1.89 1c-.41-.91-1.34-2.4-2-3.54zM791.84 178.89s0 .7-.05 1c-.34 6.76-.68 9.31-1.43 10.2a2.29 2.29 0 0 1-1.73.95 18.16 18.16 0 0 1-2.72 0 4.8 4.8 0 0 0-.7-2.09c1.07.09 2.08.09 2.52.09a1 1 0 0 0 .8-.28c.51-.52.85-2.75 1.12-7.8h-4.76c-.27 3.52-1.46 7.65-6.24 10.35a7.91 7.91 0 0 0-1.58-1.64 10.38 10.38 0 0 0 5.64-8.71h-5.11v-2.07h5.2v-3.5h2.2v3.5z"/><path fill="url(#名称未設定グラデーション_2)" d="M53.86 182.78h86.22v103.51H53.86z"/><path class="cls-7" d="M96 202.4v7.44h-1.91v-.75h-3.37v4.65h-1.88v-4.65h-3.35v.82H83.7v-7.51h5.14v-2.58h1.88v2.58zm-7.12 4.95v-3.21h-3.39v3.21zm5.25 0v-3.21h-3.41v3.21zM100.54 205.77v8h-1.76v-13.38h5.71v5.38zm0-4.1v.79h2.29v-.79zm2.29 2.83v-.85h-2.29v.85zm8.53 7.14c0 1-.19 1.48-.79 1.76a6.41 6.41 0 0 1-2.73.34 6.72 6.72 0 0 0-.38-1.38h-3.7v.76h-1.61v-6.46h5.74V212h1.32c.27 0 .36-.09.36-.33v-5.87h-4v-5.41h5.84zm-7.6-3.66v.89h2.46V208zm2.46 3.08v-.92h-2.46v.92zm1-9.39v.79h2.37v-.79zm2.37 2.86v-.88h-2.39v.88zM81.46 220H79a7.67 7.67 0 0 1 .62 1l-1.64.46a8.17 8.17 0 0 0-.89-1.46h-.86a8.17 8.17 0 0 1-.83.91v.81h5.71v2.95h-1.72V223h-9.5v1.63h-1.67v-2.95h5.49v-1.05h.65c-.27-.15-.55-.28-.74-.37.12-.09.25-.19.37-.3h-1.75a8.37 8.37 0 0 1 .5 1l-1.6.44a8.8 8.8 0 0 0-.67-1.43h-.25a11.29 11.29 0 0 1-1.2 1.43 9.19 9.19 0 0 0-1.44-.95 8.15 8.15 0 0 0 2.19-3l1.65.45c-.1.24-.22.48-.34.71h3.31v1a6.87 6.87 0 0 0 1.42-2.16l1.68.4a5.84 5.84 0 0 1-.36.76h4.33zm-9.23 7.66h7.66v3.85h-1.76v-.4h-5.9v.4h-1.7v-7.86h8.23v3.33h-6.53zm0-2.72v.77H77v-.77zm0 4v.84h5.9v-.84zM88 228.47c-1.64.59-3.43 1.15-4.86 1.61l-.4-1.8c.52-.13 1.13-.3 1.82-.49v-3.51h-1.5v-1.62h1.51V220h-1.64v-1.66h4.91V220h-1.59v2.62h1.34v1.62h-1.34v3c.49-.15 1-.3 1.46-.47zm8.85.91V231h-9.57v-1.61h4.11V228h-3.08v-1.6h3.08v-1.28h-3v-6.93h7.78v6.93h-3v1.28h3.16v1.6H93.2v1.41zM90 220.9h1.53v-1.24H90zm0 2.68h1.53v-1.28H90zm4.5-3.92H93v1.24h1.48zm0 2.64H93v1.28h1.48zM103.58 227.4c-.31-.42-.82-1-1.33-1.57v5.63h-1.76v-5.15a11.88 11.88 0 0 1-1.84 1.43 7.13 7.13 0 0 0-.84-1.68 11.15 11.15 0 0 0 4.17-4.18h-3.6v-1.59h2.11v-2.74h1.76v2.74h.67l.32-.08 1 .65a15 15 0 0 1-1.76 3.19 60.2 60.2 0 0 1 2.17 1.9zm8.54 1.89V231h-8.44v-1.73h3.45v-5.45h-2.83v-1.72h2.83v-4.45H109v4.45h2.81v1.72H109v5.45zM123.34 228.88c1.39.41 2.91 1 3.93 1.35l-1.56 1.25a40.79 40.79 0 0 0-4.79-1.72l1.24-.88h-4l1.13.79a20 20 0 0 1-4.62 1.79 13.53 13.53 0 0 0-1.34-1.27 19.24 19.24 0 0 0 3.82-1.31h-2.35v-6.61h10.89v6.61zm1.83-7.16h-9.7V218h9.7zm-8.61 2.4h7.3v-.64h-7.3zm0 1.76h7.3v-.64h-7.3zm0 1.79h7.3V227h-7.3zm6.72-8.29h-6v1h6zM81.74 259.15v1.92H68v-1.92zM89 260.76v4.87c0 .67-.1 1.06-.52 1.31a3.83 3.83 0 0 1-1.84.27 5.07 5.07 0 0 0-.41-1.38h1.11c.18 0 .23-.06.23-.24v-4.68l-2.12.23c0 2-.24 4.45-1.24 6.05a5.44 5.44 0 0 0-1.19-.78 10.57 10.57 0 0 0 1-5.11l-.87.09L83 260l1-.09v-4.61h1.35a14.25 14.25 0 0 0 .4-2l1.9.3c-.23.61-.46 1.22-.67 1.73h2v4.1l.63-.07v1.35zm-3.55-1l2.12-.21v-2.88h-2.11zm1.19-2.76a5.67 5.67 0 0 1 .76 1.84l-1.12.45a6.11 6.11 0 0 0-.67-1.88zm.33 7.72H86v-3.4h1zm9.51-4.85a10.43 10.43 0 0 1-2.18 4.57 8.2 8.2 0 0 0 3 1.28 6.42 6.42 0 0 0-1.06 1.46 8.16 8.16 0 0 1-3.12-1.6 10.22 10.22 0 0 1-3 1.61 6.68 6.68 0 0 0-.94-1.47 8.3 8.3 0 0 0 2.76-1.37 10.41 10.41 0 0 1-1.52-2.93l1.37-.31H90v-1.55h.62a7.78 7.78 0 0 0-1.23-1 3.24 3.24 0 0 0 1.16-2.84v-1.93h4.74v3.29a1.56 1.56 0 0 0 0 .45.14.14 0 0 0 .14.07h.24a.27.27 0 0 0 .2-.06c.06 0 .09-.12.12-.31s0-.67.06-1.24a4.28 4.28 0 0 0 1.26.66 6.64 6.64 0 0 1-.21 1.53 1 1 0 0 1-.5.6 1.79 1.79 0 0 1-.81.18H95a1.42 1.42 0 0 1-1-.37c-.24-.24-.34-.57-.34-1.49v-1.78h-1.59v.45a4.56 4.56 0 0 1-1.47 3.77h4.48l.28-.06zm-4.65 1.24a7.38 7.38 0 0 0 1.22 2.18 7.16 7.16 0 0 0 1.31-2.18zM103.85 263.16a20.45 20.45 0 0 0-1.33-1.57v5.62h-1.76v-5.14a12.53 12.53 0 0 1-1.84 1.43 7 7 0 0 0-.84-1.68 11.15 11.15 0 0 0 4.17-4.18h-3.6v-1.59h2.11v-2.75h1.76v2.75h.67l.32-.08 1 .64a14.57 14.57 0 0 1-1.76 3.19c.71.59 1.86 1.61 2.17 1.91zm8.54 1.89v1.73H104v-1.73h3.45v-5.45h-2.83v-1.72h2.83v-4.46h1.82v4.46H112v1.72h-2.81v5.45zM123.61 264.63c1.39.42 2.91 1 3.93 1.36l-1.54 1.25a42.6 42.6 0 0 0-4.79-1.73l1.24-.88h-4l1.13.79a19.56 19.56 0 0 1-4.62 1.79 14.72 14.72 0 0 0-1.34-1.26 18.63 18.63 0 0 0 3.82-1.32h-2.31V258H126v6.6zm1.83-7.15h-9.7v-3.73h9.7zm-8.61 2.4h7.3v-.64h-7.3zm0 1.76h7.3V261h-7.3zm0 1.79h7.3v-.66h-7.3zm6.72-8.29h-6v1h6z"/><path class="cls-3" d="M303.88 198.32a3.79 3.79 0 1 1 3.79 3.78 3.78 3.78 0 0 1-3.79-3.78z"/><path class="cls-4" d="M317.51 193.33h1.62v10.31h-1.62zM324.21 194.69h-3v-1.36h7.69v1.36h-3v8.95h-1.63z"/><path class="cls-3" d="M303.88 220.32a3.79 3.79 0 1 1 3.79 3.78 3.78 3.78 0 0 1-3.79-3.78z"/><path class="cls-4" d="M326.32 216.33a4.29 4.29 0 0 0-.25.81 14 14 0 0 1-2.09 5.14 10.9 10.9 0 0 1-5.58 3.8l-1.19-1.32a9.19 9.19 0 0 0 5.47-3.34 9.67 9.67 0 0 0 1.75-4.3h-6.88c-.6 0-1.16 0-1.51.06v-1.57a11.77 11.77 0 0 0 1.51.11h6.79a3.75 3.75 0 0 0 .9-.09zM340.64 218.6a3.73 3.73 0 0 0-.35.46 13.47 13.47 0 0 1-2.81 3.29l-1.14-.77a8.15 8.15 0 0 0 2.24-2.35h-6.41c-.45 0-.91 0-1.39.07v-1.44a10.43 10.43 0 0 0 1.39.11h6.73a6.45 6.45 0 0 0 .93-.08zm-4.75 1.45c-.05 2.83-.21 5.1-3.32 6.81l-1.2-1a4.93 4.93 0 0 0 1.05-.53c1.75-1.18 2-2.59 2-4.4a4.61 4.61 0 0 0-.1-.91zM351.12 224.51a10.51 10.51 0 0 0 .1 1.65h-1.73c0-.31.08-1.08.08-1.65v-5a27 27 0 0 1-5.07 2.06l-.8-1.36a22 22 0 0 0 6.32-2.55 15.21 15.21 0 0 0 3.65-3.14l1.19 1.08a22.54 22.54 0 0 1-3.74 3zM368.54 217.92h1.35v1.5c-.25 0-.87-.05-1.36-.05h-3.46a7.48 7.48 0 0 1-3.94 7l-1.37-1a6.13 6.13 0 0 0 3.8-5.94h-3.88c-.56 0-1.1 0-1.45.05v-1.52c.34 0 .89.07 1.42.07h3.91v-1.83a7.07 7.07 0 0 0-.16-1.51h1.77a10.35 10.35 0 0 0-.1 1.51v1.72zM378.54 222.62a13.41 13.41 0 0 0 4.86-5.29l.85 1.53a14.35 14.35 0 0 1-4.92 5.07A15.32 15.32 0 0 1 374 226l-.94-1.44a14.72 14.72 0 0 0 5.48-1.94zm-.48-4.49l-1.06 1.14a30.55 30.55 0 0 0-3.5-3l1-1.09a27.19 27.19 0 0 1 3.56 2.95zM396.91 216.21a4.75 4.75 0 0 0-.41.73 19.14 19.14 0 0 1-2.3 4 37 37 0 0 1 4 4.11l-1.2 1.08a30.19 30.19 0 0 0-3.7-4.09 17.65 17.65 0 0 1-5.39 4l-1.13-1.18a15.49 15.49 0 0 0 5.75-4.1 11.18 11.18 0 0 0 2.23-3.7h-5.14c-.55 0-1.3.07-1.53.09v-1.59a13.08 13.08 0 0 0 1.53.1h5.2a4.06 4.06 0 0 0 1.22-.14z"/><path class="cls-3" d="M303.88 242.32a3.79 3.79 0 1 1 3.79 3.78 3.78 3.78 0 0 1-3.79-3.78z"/><path class="cls-4" d="M327.24 238.79a6.26 6.26 0 0 0-.4.49 22.34 22.34 0 0 1-4.95 5.6c.83.83 1.74 1.81 2.3 2.48l-1.29 1a34.14 34.14 0 0 0-2.59-2.94 32 32 0 0 0-3.15-2.72l1.15-.94c.53.39 1.59 1.25 2.52 2.07a16.34 16.34 0 0 0 4-4.49H317c-.56 0-1.22.05-1.51.08v-1.57a11.5 11.5 0 0 0 1.51.15h8.1a3.78 3.78 0 0 0 1.08-.12zM329.74 241.39c.45.05 1.32.09 2.08.09h7.6c.69 0 1.23-.06 1.57-.09v1.73c-.31 0-.94-.06-1.55-.06h-7.62c-.79 0-1.61 0-2.08.06zM354.14 239a9.54 9.54 0 0 0 1.37-.08v1.51H352c-.25 3.88-1.76 6.3-4.23 7.86l-1.48-1a6.49 6.49 0 0 0 1.22-.7 7.84 7.84 0 0 0 3-6.15h-3.32a11.89 11.89 0 0 1-2.3 3l-1.38-.84a11 11 0 0 0 2.46-3 10.4 10.4 0 0 0 .8-1.94 6.15 6.15 0 0 0 .24-1.25l1.71.34c-.14.32-.3.75-.41 1.05s-.28.78-.46 1.23zM368.64 240.74c.29 0 .83 0 1.18-.07v1.44H365a8.85 8.85 0 0 1-.87 3.74 6.8 6.8 0 0 1-2.79 2.6l-1.28-.95a5.84 5.84 0 0 0 2.59-2.09 6.52 6.52 0 0 0 .84-3.3h-5.27v-1.44c.39 0 .84.07 1.27.07zm-7.41-2.23h-1.37v-1.44a11.92 11.92 0 0 0 1.37.1h5.65a9.61 9.61 0 0 0 1.4-.1v1.44h-1.4zM382.37 240.08a17 17 0 0 1-3.16 2.53v4.83a8.5 8.5 0 0 0 .07 1.35h-1.63c0-.24.07-.9.07-1.35v-4a23.2 23.2 0 0 1-4.21 1.66l-.74-1.28a18.35 18.35 0 0 0 4.9-1.91 14 14 0 0 0 3.6-2.89zM392.82 244.62a13.41 13.41 0 0 0 4.86-5.29l.85 1.53a14.35 14.35 0 0 1-4.92 5.07 15.32 15.32 0 0 1-5.36 2.09l-.94-1.44a14.72 14.72 0 0 0 5.51-1.96zm-.48-4.49l-1.11 1.14a31.44 31.44 0 0 0-3.5-3l1-1.09a27.19 27.19 0 0 1 3.61 2.95zM409.45 238.68a3.56 3.56 0 0 0 1.05-.14l1.15.7a4.15 4.15 0 0 0-.39.85 13.86 13.86 0 0 1-2.47 4.76 12.51 12.51 0 0 1-5.6 3.87l-1.3-1.16a11.2 11.2 0 0 0 5.61-3.49 10.61 10.61 0 0 0 2.13-4.13h-4.38a14.67 14.67 0 0 1-3.55 3.41l-1.23-.91a12 12 0 0 0 4.4-4.63 6.62 6.62 0 0 0 .52-1.26l1.62.53c-.28.42-.57.95-.73 1.23a3.47 3.47 0 0 1-.21.37zm1.12-2.36c.35.51.85 1.38 1.14 1.92l-.93.39a16.27 16.27 0 0 0-1.11-1.93zm1.58-.6a17.23 17.23 0 0 1 1.17 1.91l-.91.4a14.89 14.89 0 0 0-1.15-1.93z"/><path class="cls-3" d="M303.88 264.32a3.79 3.79 0 1 1 3.79 3.78 3.78 3.78 0 0 1-3.79-3.78z"/><path class="cls-4" d="M316.4 266.1a12.78 12.78 0 0 1-.94 3.57 6.08 6.08 0 0 0-1-.49 10.57 10.57 0 0 0 .82-3.28zm1.6-1.1v5.76h-1.16v-5.69l-2.12.13-.11-1.15h1c.25-.33.53-.71.8-1.1a12.61 12.61 0 0 0-1.74-2l.63-.86.38.32a15.27 15.27 0 0 0 1.15-2.53l1.15.45c-.49.94-1.08 2-1.58 2.78.25.27.49.54.67.78.5-.83 1-1.69 1.33-2.4l1.08.49c-.79 1.27-1.8 2.8-2.71 4 .56 0 1.15 0 1.75-.09-.18-.39-.37-.78-.57-1.13l.88-.36a11 11 0 0 1 1.28 2.89l-1 .43a4.76 4.76 0 0 0-.22-.76zm1.09 3.66a14.74 14.74 0 0 0-.82-2.56l.94-.31a17.07 17.07 0 0 1 .88 2.53zm3.62-3.84c-.12 3-.55 4.91-3 6a3.3 3.3 0 0 0-.74-1c2.17-.87 2.44-2.43 2.52-5zM321 263.1a15 15 0 0 0 .87-2.3h-2.1v-1.17h3v-1.74h1.31v1.74h3.27v1.17h-4c-.32.73-.67 1.54-1 2.23l3-.2c-.28-.39-.58-.78-.86-1.13l1-.53a16.14 16.14 0 0 1 2.19 3.19l-1.1.59a6.54 6.54 0 0 0-.54-1l-6 .46-.11-1.2zm5.31 6.4c.26 0 .31-.24.34-1.74a3.76 3.76 0 0 0 1.09.51c-.08 1.88-.4 2.38-1.3 2.38h-1.08c-1.06 0-1.3-.38-1.3-1.57v-4.27h1.22v4.27c0 .36 0 .42.29.42zM334.52 261.24h-5.59v-1h5.59zM334 270h-3.24v.59h-1.15v-4.71H334zm-4.36-7.88H334v1h-4.4zm0 1.87H334v1h-4.4zm4.41-4.6h-4.33v-1H334zm-3.29 7.54v2h2.07v-2zm11.23-3h-3v6.85h-1.39v-6.85h-3.12v-1.33h3.12v-4.67h1.32v4.67h3z"/><path class="cls-7" d="M77.08 176.31a13.81 13.81 0 0 1-.9 3.85 8.85 8.85 0 0 0-1.35-.64 11 11 0 0 0 .79-3.46zm11.46-7.82a9.52 9.52 0 0 1-2.43 3.86 10.49 10.49 0 0 0 3.06 1.13 7 7 0 0 0-1.09 1.43 10.88 10.88 0 0 1-3.33-1.49 13.39 13.39 0 0 1-3.4 1.57 6.6 6.6 0 0 0-.93-1.43 9.22 9.22 0 0 1 .61 1.75l-1.26.57a6 6 0 0 0-.19-.76l-.76.06v6.1h-1.54v-6l-2.16.13-.12-1.53h1.08c.22-.28.46-.61.7-1a13.75 13.75 0 0 0-1.76-2l.85-1.21.34.3a18.26 18.26 0 0 0 1.09-2.6l1.54.57c-.54 1-1.14 2.16-1.67 3 .19.21.35.41.5.59A25.09 25.09 0 0 0 79 169.1l1.45.67c-.82 1.3-1.85 2.8-2.79 4l1.43-.06a11.84 11.84 0 0 0-.52-1.07l1.17-.5a14.79 14.79 0 0 1 .69 1.38 11.71 11.71 0 0 0 3-1.24 9.57 9.57 0 0 1-1.76-2.43l1-.31h-1.7V168H87l.32-.07zm-8.44 7.45a16.52 16.52 0 0 1 .93 2.68l-1.32.48a17.62 17.62 0 0 0-.86-2.77zm5.58 3.36h3.26v1.55h-8.42v-1.55h3.41v-1.75H81.4V176h2.53v-1.78h1.75V176h2.65v1.56h-2.65zm-2.43-9.75a6.87 6.87 0 0 0 1.43 1.77 7.7 7.7 0 0 0 1.46-1.77zM103.63 169.65v3.18h-1.71v-1.67H92.6v1.67H91v-3.18h1.8a13.89 13.89 0 0 0-1-1.46l1.54-.66a9.67 9.67 0 0 1 1.32 1.91l-.47.21h2.29a11.62 11.62 0 0 0-1-1.83l1.55-.53a10.22 10.22 0 0 1 1.14 2l-1 .39h2.45a11.77 11.77 0 0 0 1.33-2.25l1.9.6c-.43.56-.88 1.16-1.29 1.65zM98 175.54c-.12.33-.25.63-.38.91h4.93v4.84h-1.75v-.49h-7v.49h-1.68v-4.84h3.75c.07-.3.16-.61.22-.91h-2.71v-3.65h7.78v3.65zm2.8 2.46h-7v1.3h7zm-5.8-3.76h4.42v-1H95zM119.38 179.28h-3.66v2H114v-2h-3.73v-1.55H114v-1h-3v-5.59h3v-1h-3.27v-1.33c-.39 1.25-.85 2.76-1.25 3.85a4.64 4.64 0 0 1 1.09 3 2.26 2.26 0 0 1-.67 1.93 2.15 2.15 0 0 1-.87.31 7.47 7.47 0 0 1-1 0 3.86 3.86 0 0 0-.39-1.57 3 3 0 0 0 .66 0 .82.82 0 0 0 .41-.12c.17-.13.24-.43.24-.86a3.85 3.85 0 0 0-1-2.59c.31-1 .63-2.3.88-3.33h-1.18v11.7h-1.53V168h3.25l.26-.07 1.2.68H114v-1.26h1.73v1.26h3.45v1.55h-3.45v1h3.14v5.59h-3.14v1h3.66zm-6.78-6h1.51v-.88h-1.51zm0 2.1h1.51v-.88h-1.51zm4.58-3h-1.58v.88h1.58zm0 2.1h-1.58v.88h1.58z"/><path class="cls-5" d="M319.56 34.43s1.23 1 2 1.68a.57.57 0 0 1-.62.39h-8.38l-.19-.7h6.1zm-1.94 4.4l1-1.28s1.18.92 1.88 1.61c-.08.27-.29.39-.63.39h-6.36l-.19-.72zm-4.11 3.84l-.19-.72h4.2l1.06-1.32a21.61 21.61 0 0 1 1.89 1.65c-.07.27-.29.39-.62.39zm.07-9.17l-.19-.67h4.11l1.1-1.42s1.25 1 2 1.73c-.07.24-.31.36-.64.36zM319 43.92l2 1.53a1.69 1.69 0 0 1-1 .48V52c0 .17-.86.55-1.46.55h-.29V51.4h-3.09v1.18c0 .17-.75.58-1.49.58h-.27v-9l1.88.84h2.73zm-.72 6.79v-5.09h-3.09v5.09zm14.16-1.44s1.35 1.08 2.16 1.87a.57.57 0 0 1-.62.38h-9.62v1.06c0 .17-.6.62-1.54.62h-.31V38.85a16.54 16.54 0 0 1-2.16 2.47l-.36-.21a34.18 34.18 0 0 0 4.1-10l2.76.89a.9.9 0 0 1-.93.46 26.87 26.87 0 0 1-1.52 3.31l.24.1h2.69c.43-1.18 1.08-3.08 1.49-4.45l2.88.89c-.14.34-.46.48-1 .46-.7.89-1.76 2.21-2.52 3.1h2.85l1.08-1.45s1.3 1 2 1.76c-.05.26-.26.38-.6.38h-4.32v4.06h1.49l1.08-1.47s1.25 1.06 2 1.78c-.05.26-.29.38-.63.38h-3.91v4.09h1.49l1.08-1.46s1.25 1.06 2 1.78c-.05.26-.29.38-.63.38h-3.91v4.7h2zm-8.08-12.7v4.06h3.07v-4.06zm3.07 4.75h-3.07v4.08h3.07zm-3.07 9.48h3.07v-4.7h-3.07zM344.88 42.52c-.48 1.3-1.51 3.82-1.75 4.73a6.84 6.84 0 0 0-.38 1.75c0 .75.47 1.54.47 2.14s-.28.91-.84.91a1.7 1.7 0 0 1-1.27-.93 10.46 10.46 0 0 1-1.41-5.5 22.75 22.75 0 0 1 1.12-6.27 14.12 14.12 0 0 0 .58-2.92 3.9 3.9 0 0 0-1.32-2.6l.36-.31a4.73 4.73 0 0 1 1.39.75 4.21 4.21 0 0 1 1.73 2.73c0 .57-.34 1-.94 2.37a14.36 14.36 0 0 0-1.62 5.84 3.86 3.86 0 0 0 .31 1.9c.17.31.34.36.56 0 .55-.84 1.87-3.65 2.44-4.85zm2.38 2a8.64 8.64 0 0 0 .67 2c.84 1.49 2.06 2.28 5 2.28a22.51 22.51 0 0 0 4-.43c.75 0 1.51.29 1.51.91 0 1.13-2.28 1.42-5 1.42-4 0-6-1.44-6.58-4a8.34 8.34 0 0 1-.24-2.11zm.24-7.32a11.15 11.15 0 0 1 5.85-1.71 7.68 7.68 0 0 1 3.36.56c.58.26.8.64.8 1s-.22.62-.75.7a9.26 9.26 0 0 0-2.13.45 38.82 38.82 0 0 0-3.94 2.11l-.38-.43c1.05-.79 2.64-2 3.09-2.4.29-.29.31-.45-1.32-.45a14.93 14.93 0 0 0-4.39.74zM376 40.65c3.79 1.75 5.38 4 5.38 6.75 0 2.37-2 5.18-6.34 5.18-3.41 0-5.14-2-5.14-5a16.61 16.61 0 0 1 .15-2.06c-2.24-.51-3.53-1.71-3.53-3.1s1.37-2.71 3.14-3.62a6.73 6.73 0 0 1-1.7-.77 3.73 3.73 0 0 1-1.59-2.57l.39-.22a5.11 5.11 0 0 0 2.24 1.98 9.21 9.21 0 0 0 2.66.57 34.36 34.36 0 0 0 .86-3.43.86.86 0 0 0-.59-1 7.63 7.63 0 0 0-1.2-.39v-.48a6.81 6.81 0 0 1 1.44-.16c1.22 0 2.74 1.27 2.74 2 0 .48-.37.7-.65 1.25a18.77 18.77 0 0 0-.94 2.31c.22 0 .41 0 .6.05.91.09 1.25.57 1.25 1s-.36.67-1 .72h-1.44c-.39 1.17-.84 2.76-1.21 4.29h2.62c.53 0 1.08.33 1.08.91s-.36.82-1.29.94a15.17 15.17 0 0 1-2.74-.1 13 13 0 0 0-.17 1.8c0 2.35 1.51 3.43 3.75 3.43 3 0 4.65-2 4.65-4.1 0-2.64-1.56-4.2-3.74-5.83zm-5.69 3.17c.24-1.51.58-3 .86-4.22-1.6.09-3.67 1.41-3.67 2.52.01.74.73 1.39 2.82 1.7zM394.32 44.76c5.67 1.7 4.2 5.2 2.4 3.91a10.21 10.21 0 0 0-2.4-3.43v7.32c0 .24-.74.67-1.39.67h-.34V46.6a17.52 17.52 0 0 1-4.68 5l-.31-.36a19.89 19.89 0 0 0 4.63-8.11h-1.63V44c0 .14-.7.5-1.39.5H389V37l1.75.79h1.87v-2.3h-4.25l-.16-.72h4.41v-3.6l2.59.29c0 .36-.23.57-.86.67v2.64h1.61l1.2-1.56s1.32 1.1 2.16 1.9c-.07.26-.31.38-.65.38h-4.32v2.33h1.78l.89-.94 1.89 1.42a1.51 1.51 0 0 1-.89.43v4.83c0 .16-.86.52-1.41.52h-.27v-.91h-2zm-3.72-2.28h2v-4h-2zm3.72-4v4h2v-4zm2.45 14.45A17.11 17.11 0 0 0 402 48.4l2.31 1.35c-.12.21-.39.24-.79.14a18.35 18.35 0 0 1-6.52 3.39zM408 31.29s1.44 1.15 2.28 1.94c0 .24-.28.36-.62.36h-4.46a19.86 19.86 0 0 1-1.73 2.67h3.17l.91-1 2 1.54a1.44 1.44 0 0 1-.86.4v10.7a2.59 2.59 0 0 1-1.54.58h-.29v-.84h-5.33v.52c0 .2-.72.63-1.48.63h-.29V35.42l1.89.84h1.06c.12-.72.24-1.78.34-2.67h-4.35l-.19-.67h8.26zM401.47 37v2.78h5.33V37zm0 6.36h5.33v-2.92h-5.33zm5.33 3.62V44h-5.33v2.93zm-1.92 1.58c6.53 1.42 5.45 5.62 3.36 4.47a12.5 12.5 0 0 0-3.6-4.25zM436 47.37c-1 1.59-2.81 3.24-5 3.24-1.76 0-2.93-1-2.93-3.29 0-2.73 1-5.44 1-8 0-1.51-.41-2.3-1.58-2.3-2.07 0-4.78 2.11-7.06 4.73a46.29 46.29 0 0 0 .19 6.91c.07.72.17 1.25.17 1.83 0 1-.46 2.11-1.18 2.11-.55 0-.81-.31-.91-.89a7.59 7.59 0 0 0-.45-1.65 17.42 17.42 0 0 0-1.59-2.81l-1.29 1.89c-.34.48-.6.87-1 .89s-.74-.38-.74-1a1.79 1.79 0 0 1 .58-1.37 57.17 57.17 0 0 0 5.05-6.66c0-.6.12-1.2.16-1.78-.76.41-1.53.87-2 1.18s-.74.89-1.17.89a2.93 2.93 0 0 1-2.25-1.86 4.1 4.1 0 0 1-.07-1.16l.41-.12c.38.7.74 1.11 1.2 1.11a16.86 16.86 0 0 0 4.06-1.68c.19-1.47.33-2.69.36-3.34s-.1-.65-.53-.81a7.1 7.1 0 0 0-1.33-.43v-.48a4.73 4.73 0 0 1 1.59-.31c1.1 0 2.44 1.17 2.44 1.92 0 .5-.28.76-.57 1.68-.12.33-.29.91-.46 1.58.41.29.86.74.86 1s-.23.5-.55.88c-.17.2-.31.39-.48.6C423 38 425.67 36 428 36c1.88 0 2.88 1.1 2.88 3.38 0 2-1 5.12-1 7.59 0 1.27.5 1.8 1.63 1.8a6 6 0 0 0 4.13-1.8zm-16.9-3.81c-.65 1-1.39 2.11-2.14 3.14.65.82 1.42 1.75 1.73 2.14.26.24.41.21.41-.2.01-1.08-.1-3.07-.01-5.08zM444.14 32.59a4.64 4.64 0 0 1 1.59-.34 3.64 3.64 0 0 1 1.87.46c.43.28.29.81-.55 3.6 2.16-.7 2.66-1.23 3.07-1.23a.91.91 0 0 1 1 .84c0 .46-.49.77-.8 1a15.09 15.09 0 0 1-3.81 1.27 45.29 45.29 0 0 1-4.4 9.73c-.43.62-.76 1.08-1.27 1.08s-.86-.58-.86-1.13a1.94 1.94 0 0 1 .45-1.27 26.79 26.79 0 0 0 4.49-8.14 16.5 16.5 0 0 1-1.82.12c-1.87 0-2.71-.65-3.46-2.62l.41-.29a4.31 4.31 0 0 0 3.23 1.33 12 12 0 0 0 2.11-.24 14.64 14.64 0 0 0 .39-2.45.84.84 0 0 0-.53-.93 4.74 4.74 0 0 0-1.11-.41zm8.67 4.15a6.5 6.5 0 0 1 3.46.17c1.48.53 2.32 1.51 2.32 2.59 0 .6-.24 1-.79 1s-1.15-.51-2.25-.46a3.55 3.55 0 0 0-2.12.91 3 3 0 0 0-.48 2.21c.05.7.32 2.11.48 3.53a11.17 11.17 0 0 1 3.57 1.52c1.24.77 1.92 1.54 1.92 2.28s-.34.94-.77.94-.84-.51-1.47-1.06a9.53 9.53 0 0 0-3-2v.93c0 2-1.51 3.17-4.05 3.17s-3.94-1.25-3.94-2.76c0-1.85 1.92-3.31 5.19-3.31h1c-.05-1-.14-2-.14-2.84a4.11 4.11 0 0 1 1.1-3.12 8.05 8.05 0 0 1 2.74-1.65c.38-.24.28-.53-.08-.79a4.49 4.49 0 0 0-2.66-.77zM452 47.83a11.52 11.52 0 0 0-2.09-.19c-2.14 0-3.19.91-3.19 1.72s.74 1.47 2.47 1.47c2.16 0 2.81-1 2.81-2.45zM466.37 38.37c0-1.32-.29-2-1.87-3.19l.19-.34a6.9 6.9 0 0 1 1.73.36c1 .43 2.28 1.59 2.28 2.62s-1 2.57-1 5.18 1.3 4.25 2.3 4.73a.62.62 0 0 0 .87-.19 39.17 39.17 0 0 0 2.33-4.34l.6.26a37.6 37.6 0 0 0-1.37 4.44c-.17 1.18.21 1.25.21 1.85 0 .77-.79 1.2-1.92.74-1.89-.81-4.29-2.93-4.44-7.32-.08-1.77.09-3.55.09-4.8zm11.21-.72l.17-.53a7.65 7.65 0 0 1 4.77 2.36 8.11 8.11 0 0 1 2.09 5.35c0 1.1-.38 1.63-1.15 1.63a.94.94 0 0 1-.91-.86 15.59 15.59 0 0 0-1.23-4.68 6.87 6.87 0 0 0-3.74-3.27zM497.21 33.93a1.94 1.94 0 0 1-1 .48v15c0 .19-.91.62-1.56.62h-.29v-1.65h-3v2.14c0 .16-.6.62-1.54.62h-.31V32.51l2.11.87h2.47l1-1.13zm-5.83.14v6.41h3v-6.41zm3 13.61v-6.52h-3v6.52zm2.36-7.87l-.2-.72h5.69v-3.48h-4.78l-.19-.72h5v-3.67l2.76.26c0 .34-.26.58-.86.67v2.74h2.73l1.2-1.51s1.35 1 2.19 1.85c-.07.26-.31.38-.65.38h-5.53v3.48h3.45l1.2-1.56a27.68 27.68 0 0 1 2.24 1.9c-.05.26-.29.38-.6.38zm12.4 1.78s1.3 1 2 1.75c0 .26-.31.38-.64.38h-3.4v7c0 1.47-.31 2.31-2.88 2.55a1.73 1.73 0 0 0-.58-1.32 4.27 4.27 0 0 0-2.16-.7v-.36s2.64.17 3.17.17.58-.12.58-.46v-6.88h-8.43l-.19-.69h8.62v-2.76l2.66.26c-.05.31-.29.51-.79.6V43h.9zm-10.58 3c5.66 1.82 3.91 5.73 2 4.25a9.25 9.25 0 0 0-2.25-4.08zM522.29 32.08c-.1.29-.38.51-.94.48a32.65 32.65 0 0 1-2.4 5l1.2.46c-.09.19-.33.33-.77.41v14.2a2.18 2.18 0 0 1-1.53.62h-.39V39.83a22.33 22.33 0 0 1-3.4 3.82l-.34-.21a39.87 39.87 0 0 0 5.57-12.34zM535.51 51c.8 1.06.87 1.51.6 1.82-.67.87-2.35.12-3.5-.74-3.74-2.74-5.62-7.15-6.43-12.43l-5.47.62-.27-.67 5.64-.65a55 55 0 0 1-.48-7.54l2.93.36c0 .29-.26.58-.86.68a45 45 0 0 0 .33 6.28l4.44-.5 1.11-1.73s1.58.94 2.54 1.61c0 .24-.29.41-.58.46l-7.41.86c.67 4.54 2.28 8.52 5.54 10.68.43.36.6.36.82-.09a21.06 21.06 0 0 0 1.25-2.79h.24zm-5.8-19c5.49.76 4.27 4.44 2.35 3.38a9.51 9.51 0 0 0-2.57-3.19zM546.48 42.52c-.48 1.3-1.51 3.82-1.75 4.73a7 7 0 0 0-.39 1.75c0 .75.48 1.54.48 2.14s-.28.91-.84.91a1.68 1.68 0 0 1-1.27-.93 10.46 10.46 0 0 1-1.41-5.5 22.75 22.75 0 0 1 1.12-6.27 14.12 14.12 0 0 0 .58-2.92 3.9 3.9 0 0 0-1.32-2.6l.36-.31a4.73 4.73 0 0 1 1.39.75 4.21 4.21 0 0 1 1.73 2.73c0 .57-.34 1-.94 2.37a14.36 14.36 0 0 0-1.58 5.88 3.86 3.86 0 0 0 .31 1.9c.17.31.34.36.55 0 .56-.84 1.88-3.65 2.45-4.85zm2.38 2a8.64 8.64 0 0 0 .67 2c.84 1.49 2.06 2.28 5 2.28a22.51 22.51 0 0 0 4-.43c.75 0 1.51.29 1.51.91 0 1.13-2.28 1.42-5 1.42-4 0-6-1.44-6.58-4a8.34 8.34 0 0 1-.24-2.11zm.24-7.32a11.15 11.15 0 0 1 5.9-1.69 7.68 7.68 0 0 1 3.36.56c.58.26.8.64.8 1s-.22.62-.75.7a9.26 9.26 0 0 0-2.13.45 38.82 38.82 0 0 0-3.94 2.11l-.38-.43c1.05-.79 2.63-2 3.09-2.4.29-.29.31-.45-1.32-.45a14.89 14.89 0 0 0-4.39.74zM564.55 47.13c3 .79 4.56 2 5.38 3.19a2.69 2.69 0 0 1 .55 1.61 1.13 1.13 0 0 1-1.15 1.25c-.55 0-.91-.31-1.27-1.06a11.24 11.24 0 0 0-3.77-4.63zM236.81 79.64a.84.84 0 0 1-.91.48 12.58 12.58 0 0 1-3.6 4.73l-.34-.21a18.36 18.36 0 0 0 2.3-5.79zm-4.71-10.75h5v-3.77l2.65.24c0 .31-.22.53-.77.63v2.9h2.11l1.22-1.61s1.44 1.11 2.26 1.92c-.05.27-.29.39-.62.39H232.3zm21.73 15.89c.5.24.62.46.62.82 0 .79-.74 1.15-3.26 1.15h-1.49c-1.63 0-1.9-.43-1.9-1.73v-7.18a13.76 13.76 0 0 1-7.22 9.41l-.31-.38c4.87-3.67 6-8.43 6.26-14.26h-3.14v-.14a2 2 0 0 1-.82.33v4.49a2.51 2.51 0 0 1-1.51.51h-.29v-.87H239v7.78c0 1.39-.31 2.33-2.49 2.54a2.15 2.15 0 0 0-.41-1.29 2.68 2.68 0 0 0-1.71-.65V85s1.9.14 2.31.14.48-.12.48-.43v-7.78h-1.75v.58c0 .17-.75.57-1.49.57h-.26V71l1.87.82h4.94l1-1 1.83 1.34-.08-.21h3.36c.08-2.11 0-4.39 0-6.79l2.86.31c-.07.33-.27.57-.84.67 0 2 0 4-.1 5.81h2.35l1.2-1.54s1.37 1.08 2.21 1.83a.57.57 0 0 1-.62.38h-5.19c0 .53 0 1.06-.09 1.59l2 .21c0 .27-.24.51-.77.58v9.53c0 .33.07.45.58.45h2.05c.16 0 .26-.07.36-.31a37 37 0 0 0 .79-3.72h.34zm-13.11-8.54v-3.75h-5.3v3.75zM240.1 79c4.73 2.06 2.83 5.49 1.25 4a7.79 7.79 0 0 0-1.54-3.87zm9.43-12.53c4.92 1.37 3.38 4.73 1.7 3.46a7.88 7.88 0 0 0-1.94-3.29zM264.22 67.5v19.2c0 .14-.55.55-1.42.55h-.26v-5.47c-1.13.6-2.57 1.39-4.3 2.23a.87.87 0 0 1-.57.58l-.67-2.26c.39-.07.94-.17 1.61-.31V67.5h-1.27l-.19-.67h6.19l1.15-1.47s1.32 1 2.14 1.78c-.05.24-.29.36-.63.36zm-1.68 0h-2.33v4h2.33zm0 4.68h-2.33v4.27h2.33zm-2.33 9.48l2.33-.53v-4h-2.33zm14.57-7.3a37.2 37.2 0 0 0 .55 5.12 19.85 19.85 0 0 0 1.42-4.32l2.49.72c-.09.28-.29.45-.91.43a19.59 19.59 0 0 1-2.5 5.18 7.25 7.25 0 0 0 1.73 3c.31.33.39.31.58-.15a17.32 17.32 0 0 0 .91-2.73h.29l-.34 3.72c.55.94.65 1.37.41 1.66-.65.72-2 0-2.76-.79a8.67 8.67 0 0 1-2-3.17 15.66 15.66 0 0 1-5.62 4.1l-.21-.33a15.71 15.71 0 0 0 5.35-5.21 34.11 34.11 0 0 1-1-7.23h-8.69l-.19-.69h4.92a23.29 23.29 0 0 0 1-4.2l2.43.55a.79.79 0 0 1-.84.5 16.25 16.25 0 0 1-2 3.15h3.33c-.07-1.44-.09-2.93-.09-4.52a.85.85 0 0 1-.46.12H265l-.19-.69h3v-3.24l2.57.26c0 .34-.27.55-.82.63v2.35h.91l1-1.3s.91.77 1.58 1.44v-3.55l2.64.31c-.05.31-.26.58-.89.67 0 2.64-.07 5.19 0 7.52h1.73l1.13-1.49s1.3 1 2.09 1.8c-.07.26-.29.38-.63.38zm-7.44 9.15v1.27c0 .17-.65.55-1.32.55h-.27v-10.1l1.71.77h2.59l.84-.89 1.75 1.37a1.39 1.39 0 0 1-.79.4v6.89a2.14 2.14 0 0 1-1.34.48h-.24v-.74zm-1.2-14c3.41 2.28 1.56 4.88.31 3.49a11.21 11.21 0 0 0-.62-3.39zm1.2 7.18v2.57h2.93v-2.57zm2.93 6.1v-2.86h-2.93v2.86zm5.47-15.41c4.18 2 2.45 4.92 1 3.62a9.05 9.05 0 0 0-1.25-3.5zM286.49 67.79v-.48a5.77 5.77 0 0 1 1.65-.24c1.28 0 3.1 1.44 3.1 2.2 0 .56-.5.77-.72 1.92a54.65 54.65 0 0 0-.89 9.1c0 2.95.87 4.08 3.58 4.08a11.54 11.54 0 0 0 9.12-5l.5.36a10.8 10.8 0 0 1-9.74 6.63c-3.29 0-5-1.61-5-5.84 0-3.64.55-9 .55-10.56 0-1-.14-1.27-.55-1.53a4.13 4.13 0 0 0-1.6-.64zM308.9 70.11a2.17 2.17 0 0 0 1.54 1.2c1.32 0 5.62-1.24 9.65-2.18a35.12 35.12 0 0 1 5.54-1.06 4.36 4.36 0 0 1 1.8.32c.56.24.84.55.84 1s-.33.74-.93.74-1.25-.07-2.09-.07a7.62 7.62 0 0 0-4 .94c-1 .62-3.29 2.78-3.29 7.37 0 2.66 1.1 3.69 2 4.25a8.9 8.9 0 0 0 4.46.74c.65 0 1.51.53 1.51 1.2s-.79 1-1.89 1a9.28 9.28 0 0 1-5.33-1.3c-1.54-1.08-2.4-2.59-2.4-5.4a10 10 0 0 1 3.79-8.18c.17-.12.15-.27-.12-.22a44.77 44.77 0 0 0-7.54 2.52 3.76 3.76 0 0 1-1.53.68 3.13 3.13 0 0 1-2.45-2.14 5.34 5.34 0 0 1 0-1.2zM339.24 67.23a4.25 4.25 0 0 1 1.75-.38c1 0 2.93.86 2.93 1.51s-.55.87-.84 1.54-.55 1.37-1 2.33A13.86 13.86 0 0 1 344 72c1.82 0 2.93 1 2.93 4s-.84 6.33-2.36 8.18a3.86 3.86 0 0 1-3 1.46c-.84 0-1-.33-1.35-1.17-.14-.41-.33-.67-1.6-1.85l.23-.36a8.44 8.44 0 0 0 2.89 1.32 2 2 0 0 0 1.82-1.13 14.48 14.48 0 0 0 1.73-7c0-1.61-.41-2.35-1.68-2.35a9.91 9.91 0 0 0-2.07.33c-.67 1.61-1.46 3.43-2.18 5a70.31 70.31 0 0 1-3.48 6.57c-.41.68-.72.87-1.15.87a1 1 0 0 1-.84-1.08 1.69 1.69 0 0 1 .43-1.23A36.42 36.42 0 0 0 338 77.7c.55-1.1 1.13-2.4 1.66-3.67-.82.28-1.56.57-2 .77a5.5 5.5 0 0 1-2 .67c-.65 0-1.61-1-1.8-1.85a3.21 3.21 0 0 1 .12-1.47l.43-.07c.32.7.53 1.4 1.2 1.4a40.36 40.36 0 0 0 4.61-.92 18 18 0 0 0 1.18-3.79.66.66 0 0 0-.38-.67 6.9 6.9 0 0 0-1.83-.41zm9.34 4.77a6.57 6.57 0 0 1 4.2 1.92 6.42 6.42 0 0 1 1.63 4.51c0 1.11-.38 2-1.2 2s-.7-.69-1.42-.86a13.26 13.26 0 0 0-2.78 0l-.12-.52c.94-.22 2.26-.48 2.88-.72s.62-.44.6-1.06a5.3 5.3 0 0 0-.94-2.74 4.66 4.66 0 0 0-3.09-1.94zM365.18 67.11l.12-.48a8.5 8.5 0 0 1 4.47 1.2 2.91 2.91 0 0 1 1.61 2.52c0 .63-.29 1-.89 1s-1-.22-2-.22a17.71 17.71 0 0 0-3.52.48c-.41.07-.51.24-.51.48s.29.94.31 1.47a8.79 8.79 0 0 1-.36 2 17.73 17.73 0 0 0-.52 3.29c0 .26.14.28.33.14 2.4-1.92 5.28-3.36 8-3.36 3.65 0 5.45 2.42 5.45 4.9 0 4.41-6.58 6.21-12.22 5.8l-.07-.55A23.83 23.83 0 0 0 370 85c4.37-1.3 5.64-3.24 5.64-5a3.4 3.4 0 0 0-3.6-3.43c-2.69 0-5.55 2.35-7.27 4.37-.44.55-.72 1.34-1.28 1.34a1.35 1.35 0 0 1-1-.58 1.94 1.94 0 0 1-.53-1.22 16.77 16.77 0 0 1 .27-1.66c.16-1.34.6-3.5.76-4.68a12.27 12.27 0 0 0 .05-2 1.18 1.18 0 0 1 1-1.22c1.18-.29 3.51-.82 4.42-1.18.34-.14.36-.36.05-.74a6.92 6.92 0 0 0-3.33-1.89zM405.55 71.1c-.19.21-.45.26-.93.29a21.3 21.3 0 0 1-3.53 2.61l-.26-.19a24.47 24.47 0 0 0 1.34-2.81h-15.55a3.73 3.73 0 0 1-1.3 3.33c-.7.49-1.61.49-1.87-.14a1.17 1.17 0 0 1 .62-1.49 4.3 4.3 0 0 0 1.68-4h.36a7.31 7.31 0 0 1 .43 1.63h10.64a31.2 31.2 0 0 0 2.73-5.11l2.79 1c-.1.29-.39.46-.94.41a27.33 27.33 0 0 1-3.74 3.7h4.15l1.2-1.23zM403 77.48s1.51 1.18 2.4 2a.57.57 0 0 1-.62.38h-9.31v4.68c0 1.54-.36 2.45-3.24 2.72a2 2 0 0 0-.7-1.42 6.12 6.12 0 0 0-2.59-.77v-.36s3.29.24 3.91.24c.46 0 .6-.14.6-.53v-4.54h-9.79l-.2-.69h10v-2.52l1.51.14a28.8 28.8 0 0 0 2.67-2.5h-9.94l-.22-.69h10.42l1.2-1.15 2 1.94c-.19.17-.48.19-1 .24a28.89 28.89 0 0 1-4.2 2.26h.29c-.05.34-.29.53-.79.6v1.66h6.21zm-15.79-12c5.42 1.75 3.74 5.61 1.9 4.2a9.08 9.08 0 0 0-2.14-4zm5.4-.39c5.18 2.12 3.14 6 1.37 4.35a8.16 8.16 0 0 0-1.63-4.18zM410.83 69.3l.27-.34a4.34 4.34 0 0 0 2.18.67 7.41 7.41 0 0 0 3.26-.72c.7-.31.87-.5 1.21-.5.67 0 1.53.74 1.53 1.18s-.14.52-.67.74a7.36 7.36 0 0 0-2.23 1.2 12.84 12.84 0 0 0-4.13 8.79c0 2.88 2.16 4.34 4.66 4.34 4.7 0 6.5-3.77 6.5-9.1a17.83 17.83 0 0 0-.31-3.77 18.8 18.8 0 0 1-.34-2.42c0-.84.41-1.32.94-1.3a1.24 1.24 0 0 1 1.17 1.35 24.48 24.48 0 0 0 .24 3.93 9.47 9.47 0 0 0 3.17 4.93 2.12 2.12 0 0 1 .82 1.72c0 .5-.22 1-.7 1a2 2 0 0 1-1.37-.89 13.81 13.81 0 0 1-2.3-4.13c-.22-.69-.43-.64-.43.08a28.59 28.59 0 0 1-.27 4.51 6.66 6.66 0 0 1-7.03 6.06c-3.07 0-6.09-1.66-6.09-6.07 0-3.56 1.94-6.82 4.24-9.46a7.74 7.74 0 0 1-1.94.05 3.23 3.23 0 0 1-2.38-1.85zm16.25.21a9.61 9.61 0 0 0-1.87-2.28l.36-.36a8 8 0 0 1 2.5 1.71 1.91 1.91 0 0 1 .67 1.44c0 .45-.27.67-.63.65s-.62-.51-1.03-1.16zm2-1.68a10.44 10.44 0 0 0-2-2.06l.31-.36A8.25 8.25 0 0 1 430 66.8a2 2 0 0 1 .79 1.49c0 .41-.24.67-.67.65s-.57-.53-1.02-1.11zM443.91 71.58c0-.75.07-1.63.12-2.59h-9.77l-.2-.72h10c0-1.08.07-2.19.07-3.17l2.83.24c0 .36-.33.6-.81.69l-.15 2.24h5.49l1.39-1.68s1.54 1.15 2.52 2c-.07.27-.33.39-.67.39h-8.81c-.07.93-.16 1.84-.24 2.59h4l1-1.11 2.14 1.66a2.12 2.12 0 0 1-1 .46v10.16a2.57 2.57 0 0 1-1.63.65h-.29v-1.15h-7.53v.64c0 .22-.77.68-1.59.68h-.29V70.69l2 .89zm9.48 11.69s1.56 1.15 2.49 2c-.07.27-.31.39-.65.39H437.4v.91c0 .24-.82.65-1.51.65h-.39V71.94l2.79.26c-.05.34-.26.6-.89.68V85H452zm-11-11v2.57h7.53v-2.57zm0 5.89h7.53v-2.62h-7.53zm7.53 3.4v-2.71h-7.53v2.71zM468.43 67.07a3.85 3.85 0 0 1 1.8-.6c1.08 0 2.64.55 2.64 1.2s-.38 1-.4 1.6c0 .29-.05.72-.05 1.25 4.1-.43 5.3-.67 5.78-.67 1 0 2.31.5 2.31 1.39 0 .53-.29.7-.82.7a29.7 29.7 0 0 0-7.3-.19v3.67a4.69 4.69 0 0 1 1 3.26c0 4.56-3.53 7.23-8.33 8.26l-.28-.55c2.92-1.08 5.32-2.74 6.24-5.07-2.38 1-4.28-.93-4.28-3.36a3.31 3.31 0 0 1 3.26-3.48 4.26 4.26 0 0 1 1 .12c0-.69-.05-1.68-.12-2.71a44.78 44.78 0 0 0-6.17 1.11c-1.1.29-1.56.7-2.25.7a3.27 3.27 0 0 1-2.31-1.87 4.51 4.51 0 0 1-.21-1.52l.43-.16c.62.84 1.05 1.51 1.87 1.51s5.76-.65 8.57-1c-.05-.86-.12-1.65-.17-2.23s-.17-.6-.55-.72a7.26 7.26 0 0 0-1.61-.24zm3.05 10.77c0-1.46-.67-2.3-1.7-2.3a2.07 2.07 0 0 0-1.95 2.26 2 2 0 0 0 1.92 2.2c1.18 0 1.73-.6 1.73-2.16zM484.08 76.88l.36-.28a2.94 2.94 0 0 0 1.51.84 1.91 1.91 0 0 0 1.2-.68c1.13-1 3.19-3.31 4.06-4.27a2.3 2.3 0 0 1 1.68-.89 3 3 0 0 1 2.21 1.06c2.64 2.59 4.94 6 9.6 8.54a2 2 0 0 1 1.1 1.73.86.86 0 0 1-.93 1c-1 0-3.08-1.56-5.12-3.65s-3.91-4.68-5.64-6.5a1.68 1.68 0 0 0-1.17-.62c-.29 0-.58.21-1 .64-.84 1-2.55 3.36-3.41 4.54-.58.82-.94 1.37-1.66 1.37a3.47 3.47 0 0 1-2.3-1.35 3.21 3.21 0 0 1-.49-1.48zm16.39-3.76a11.72 11.72 0 0 0-2.4-2.48l.29-.38a8.44 8.44 0 0 1 3.07 1.68 2.14 2.14 0 0 1 .94 1.61.64.64 0 0 1-.7.65c-.38 0-.67-.44-1.2-1.08zm2.4-2.14a10.31 10.31 0 0 0-2.56-2.33l.28-.38a8.55 8.55 0 0 1 3.1 1.44 2.45 2.45 0 0 1 1.06 1.73.62.62 0 0 1-.65.64c-.43 0-.7-.43-1.23-1.08zM516.72 66.92a3.54 3.54 0 0 1 2.11-.74c1 0 1.92.21 2 .93s.24 1.64.48 2.55a35.7 35.7 0 0 0 3.58-1.54c.67 0 1.42.12 1.44.72a1 1 0 0 1-.58.79 19.38 19.38 0 0 1-4 1.52A20.32 20.32 0 0 0 523 74c.56-.17 1.08-.36 1.56-.55 1.83-.7 2.19-1.1 2.52-1.1.7-.08 1.4.12 1.4.72a1 1 0 0 1-.58.86 17.3 17.3 0 0 1-4 1.61c1.87 3 3.26 3.65 3.26 4.37s-.48 1.92-1.13 1.92-1-.48-2.08-1.06a11.33 11.33 0 0 0-4.71-1.08c-2.52 0-4.29 1.08-4.29 2.59 0 2.09 2.85 2.43 5 2.43 1.89 0 2.37-.29 3.43-.29.81 0 1.41.34 1.41.91 0 .87-1.75 1.25-4.7 1.25-3.22 0-6.55-1.15-6.55-3.89 0-2 2-3.91 6.17-3.91a19.45 19.45 0 0 1 4.82.65c.31.09.34 0 .19-.22a36.34 36.34 0 0 1-2.18-3.31 26.3 26.3 0 0 1-5.88.67c-3.36 0-4.44-2.21-1.73-4.08l.38.34c-1.34 1.32-1 2.23 1.49 2.23a18.5 18.5 0 0 0 4.95-.7c-.44-.86-.87-1.87-1.28-2.9a17.2 17.2 0 0 1-3.74.48 4.09 4.09 0 0 1-4.27-2.47l.31-.24a5.26 5.26 0 0 0 3.74 1.29 16.15 16.15 0 0 0 3.39-.5l-.65-1.73a1.15 1.15 0 0 0-1.15-.89 11.6 11.6 0 0 0-1.35-.07zM539.64 65h7.44v.86h-6.53v14.7h-.91zM564.94 80.44h-3.51v4.87h-2.2v-4.87H551v-1.52l8.78-11.76h1.68v11.48h3.51zm-5.71-1.8v-9.2l-6.87 9.2zM570.84 73.48a2.41 2.41 0 0 0 1.58.93 3.81 3.81 0 0 0 2-.67c2.45-1.18 6.12-3.34 9.79-3.34 4.39 0 6.79 2.79 6.79 5.84s-1.89 5.13-4.46 6.38c-2.26 1.13-6 1.58-9.62 1.39v-.65a20.24 20.24 0 0 0 8.25-1.92c2.52-1.24 3.82-3 3.82-5.54s-1.78-4.44-4.75-4.44-6.34 2.42-8 3.55-2.25 1.75-3 1.75a3.27 3.27 0 0 1-2.3-1.6 4.49 4.49 0 0 1-.34-1.49zM605.23 85c5.93-1.15 8.62-4.25 8.62-8.57a6.76 6.76 0 0 0-7-7.05h-.89a4.56 4.56 0 0 1 1.2 2.69 12 12 0 0 1-.77 4c-1 2.93-3.77 7.51-6.36 7.51-1.7 0-3.41-2.66-3.41-5.69a9.33 9.33 0 0 1 3.32-6.84 10.43 10.43 0 0 1 7.06-2.57c5.11 0 9 3.41 9 8.4 0 4.13-2.71 8.16-10.61 8.62zM605 69.56a9 9 0 0 0-4.45 2.44 7.65 7.65 0 0 0-2.37 5.42c0 2.19 1 3.94 2 3.94 1.52 0 3.7-3.65 4.64-5.74a11.32 11.32 0 0 0 .91-3.89 3.91 3.91 0 0 0-.73-2.17zM640.25 71.87a1.83 1.83 0 0 1-1.06.4c-.21 7.23-.76 12.34-2 13.66a4.07 4.07 0 0 1-3.19 1.13 1.65 1.65 0 0 0-.53-1.44 8.71 8.71 0 0 0-2.93-.89v-.41c1.35.15 3.48.32 4.11.32a1.21 1.21 0 0 0 1-.32c.91-.81 1.37-5.83 1.59-12.33h-6.77c-.48 6.14-2.31 11.47-10.64 15.26l-.26-.41c6.82-4 8.43-9 8.83-14.85h-7.5l-.21-.72h7.73c.12-2 .09-4 .09-6.12l3 .31c-.07.36-.26.6-.86.67 0 1.75 0 3.48-.15 5.14h6.5l1.14-1.27zM652 87.35h-7.44v-.87h6.53V71.82h.91z"/><path class="cls-8" d="M834.75 299.61v14.26l7.58-7.13-7.58-7.13z"/><path class="cls-9" d="M603.33 306.74h239"/><path class="cls-8" d="M168 306.74l7.58 7.13v-14.26l-7.58 7.13z"/><path class="cls-9" d="M411.33 306.74h-238"/><path class="cls-4" d="M271.78 108.11a16.26 16.26 0 0 1-1.44 2v8.21H269v-6.71a19.28 19.28 0 0 1-1.56 1.39 12 12 0 0 0-.78-1.32 13.88 13.88 0 0 0 3.88-4.08zm-.42-3a14.75 14.75 0 0 1-3.84 3.71 6.69 6.69 0 0 0-.71-1.16 11.29 11.29 0 0 0 3.19-3.06zm8.28 6.3a9.85 9.85 0 0 1-2.74 4.23 11 11 0 0 0 3.9 1.49 5.41 5.41 0 0 0-.89 1.24 11.13 11.13 0 0 1-4.14-1.83 13.91 13.91 0 0 1-4 1.83 6.49 6.49 0 0 0-.76-1.19 11.79 11.79 0 0 0 3.66-1.57 10 10 0 0 1-2-3l1.05-.32h-1.88v-1.27H278.66zm-5.28-4.62a4.61 4.61 0 0 1-1.84 4 6.6 6.6 0 0 0-1.14-.79 3.63 3.63 0 0 0 1.63-3.29v-1.65h5.22v3.42c0 .26 0 .42.09.48a.33.33 0 0 0 .23.06h.45a.8.8 0 0 0 .3 0 .5.5 0 0 0 .16-.33c0-.2.05-.66.06-1.23a3.29 3.29 0 0 0 1.07.55 7.56 7.56 0 0 1-.18 1.52 1.07 1.07 0 0 1-.51.57 2.54 2.54 0 0 1-.83.15h-.87a1.47 1.47 0 0 1-1-.32c-.26-.22-.35-.52-.35-1.41v-2.17h-2.49zm-.37 5.52a7.19 7.19 0 0 0 1.8 2.47 8.7 8.7 0 0 0 1.95-2.47zM291.94 107.07h-4.62v-.64h-.66v11.92h-1.17v-2.71l-3.19.67-.24-1.27.93-.17v-8.44h-.65v-1.25h5v.82H289v-1.4h1.2v1.4h1.74zm-6.45-.64h-1.33v1.9h1.33zm0 3h-1.33v1.91h1.33zm0 4.94v-1.88h-1.33v2.13zm10.16-3.11a14.38 14.38 0 0 1-1.59 3.78c.18 1 .4 1.62.67 1.62s.36-.75.44-2.07a4.66 4.66 0 0 0 .91.77c-.3 2.37-.9 2.93-1.41 2.92-.69 0-1.18-.7-1.53-1.95a10.83 10.83 0 0 1-2.14 2 7.25 7.25 0 0 0-.81-.93 9.17 9.17 0 0 0 1.36-1h-2.82v.91h-1.09v-6.12h4v5.09a10.24 10.24 0 0 0 1.16-1.37 36.61 36.61 0 0 1-.42-4.51H287v-1.11h1.17a8.25 8.25 0 0 0-.41-2l.93-.21a7.4 7.4 0 0 1 .47 2l-.74.18h2.39l-.75-.2c.15-.55.36-1.42.45-2l1.09.23c-.24.69-.45 1.45-.66 2h1.46c-.05-1.44-.09-3-.11-4.68h1.23c0 1.63 0 3.22.08 4.68h2.4v1.11h-2.36c.06 1 .12 1.93.21 2.76a14 14 0 0 0 .72-2.1zm-6.92.89v1.11h1.85v-1.11zm1.85 3.21v-1.16h-1.85v1.16zm4.42-7.28a10.64 10.64 0 0 0-1.47-2.46l.93-.49a9.05 9.05 0 0 1 1.53 2.4zM307.06 111.47a10 10 0 0 1 3-7.17l1.14.54a9.34 9.34 0 0 0 0 13.26l-1.14.53a10 10 0 0 1-3-7.16zM326.41 115h-5.26v3.31h-1.44V115h-6.83v-1.35h2.42v-4h4.41v-2.07h-3.44a13.31 13.31 0 0 1-2.16 2.85 11.52 11.52 0 0 0-1.21-.9 12.15 12.15 0 0 0 3.27-5.09l1.41.38c-.18.46-.39 1-.59 1.41h8.69v1.35h-4.53v2.07h4.18V111h-4.18v2.66h5.26zm-6.7-1.35V111h-3v2.66zM333.31 105.15a21.15 21.15 0 0 1-1.51 2.91v10.26h-1.44v-8.2a15.51 15.51 0 0 1-1.8 2 7.73 7.73 0 0 0-.79-1.39 16.54 16.54 0 0 0 4.23-6zm4 5.19c.48 3.68 1.38 6.15 2.81 6.32.37 0 .6-.81.73-2.51a4.32 4.32 0 0 0 1.16.77c-.35 2.71-1 3.44-1.83 3.4-2.51-.21-3.68-3.18-4.25-7.78l-3.28.42-.21-1.32 3.36-.42q-.18-2.06-.27-4.41h1.41c0 1.5.12 2.92.24 4.21l4.39-.55.18 1.3zm3.08-2.4a14.55 14.55 0 0 0-2.25-2.47l1-.66a14 14 0 0 1 2.33 2.4zM347.53 111.47a10 10 0 0 1-3 7.16l-1.14-.53a9.32 9.32 0 0 0 0-13.26l1.14-.54a10 10 0 0 1 3 7.17zM364.63 105.53c-.07.31-.16.69-.22 1s-.21 1.17-.35 1.84c.6 0 1.14-.07 1.49-.07 1.42 0 2.52.6 2.52 2.67a14.69 14.69 0 0 1-.84 5.38 2.24 2.24 0 0 1-2.3 1.29 8.32 8.32 0 0 1-1.77-.22l-.25-1.56a7.93 7.93 0 0 0 1.83.31 1.16 1.16 0 0 0 1.21-.71 11.84 11.84 0 0 0 .66-4.33c0-1.27-.57-1.48-1.51-1.48-.3 0-.8 0-1.35.07a30.45 30.45 0 0 1-3.06 8l-1.55-.62a22.9 22.9 0 0 0 3.08-7.18c-.68.07-1.28.13-1.62.18s-1.05.13-1.47.21l-.15-1.62h1.44c.51 0 1.27-.08 2.1-.15a17.71 17.71 0 0 0 .36-3.18zm5.34 1.93a27.94 27.94 0 0 1 2.45 5l-1.49.7a17.26 17.26 0 0 0-2.59-5.46l1.39-.61.24.33a16.08 16.08 0 0 0-1.2-2.07l1-.41A23.79 23.79 0 0 1 371 107zm1.74-.64a12.69 12.69 0 0 0-1.23-2.07l1-.41a20.46 20.46 0 0 1 1.24 2.06zM387.57 116.22v1.41h-13.42v-1.41h5.47v-11.43h1.5v4.46h5.41v1.39h-5.41v5.58zM395.23 105.53c-.07.31-.16.69-.22 1s-.21 1.17-.35 1.84c.6 0 1.14-.07 1.49-.07 1.42 0 2.52.6 2.52 2.67a14.69 14.69 0 0 1-.84 5.38 2.24 2.24 0 0 1-2.3 1.29 8.32 8.32 0 0 1-1.77-.22l-.25-1.56a7.93 7.93 0 0 0 1.83.31 1.16 1.16 0 0 0 1.21-.71 11.84 11.84 0 0 0 .66-4.33c0-1.27-.57-1.48-1.51-1.48-.3 0-.8 0-1.35.07a30.45 30.45 0 0 1-3.06 8l-1.55-.62a22.9 22.9 0 0 0 3.08-7.18c-.68.07-1.28.13-1.62.18s-1.05.13-1.47.21l-.15-1.62h1.44c.51 0 1.27-.08 2.1-.15a17.71 17.71 0 0 0 .36-3.18zm5.34 1.93a27.94 27.94 0 0 1 2.45 5l-1.49.7a17.26 17.26 0 0 0-2.59-5.46l1.39-.61c.08.1.15.21.24.33a16.08 16.08 0 0 0-1.2-2.07l1-.41a23.79 23.79 0 0 1 1.21 2.07zm1.74-.64a12.69 12.69 0 0 0-1.23-2.07l1-.41a20.46 20.46 0 0 1 1.24 2.06zM415.33 106.82c-.3.19-.64.42-.91.61-.77.54-2.57 2.12-3.62 3a5.45 5.45 0 0 1 1.76-.26c2.49 0 4.33 1.53 4.33 3.6 0 2.39-1.9 4.08-5.23 4.08-2.06 0-3.43-.93-3.43-2.26a2.29 2.29 0 0 1 2.46-2.12 3 3 0 0 1 3.11 2.61 2.41 2.41 0 0 0 1.56-2.32c0-1.4-1.41-2.39-3.22-2.39-2.37 0-3.78 1.11-5.54 3l-1.09-1.11c1.16-.94 3-2.5 3.89-3.22l3.28-2.76c-.78 0-3.32.13-4.1.18l-1.09.1-.05-1.54c.38 0 .83.07 1.19.07.78 0 4.14-.09 4.95-.16a5.08 5.08 0 0 0 .94-.15zm-2.89 9.61a1.78 1.78 0 0 0-1.75-1.81c-.62 0-1.07.36-1.07.82 0 .64.76 1 1.77 1a7.07 7.07 0 0 0 1.05-.01zM423.28 105.74c-.1.27-.24.87-.3 1.14a36.78 36.78 0 0 0-.7 5.85 12.08 12.08 0 0 0 .1 1.58c.21-.61.53-1.36.77-1.9l.75.6a33.18 33.18 0 0 0-1 3.39 2.74 2.74 0 0 0-.08.68v.55l-1.34.09a17.26 17.26 0 0 1-.58-4.71 43 43 0 0 1 .64-6.19 12 12 0 0 0 .11-1.23zm9.6 5.16c-.76.09-1.66.15-2.64.19 0 .87.06 1.74.11 2.52a9.19 9.19 0 0 1 3.1 1.89l-.78 1.31a9.7 9.7 0 0 0-2.25-1.75v.46c0 1.25-.85 2-2.58 2s-3-.72-3-2.2c0-1.16 1-2.19 2.94-2.19a7.06 7.06 0 0 1 1.15.09c0-.68-.06-1.43-.07-2.12h-3.5v-1.37a34.27 34.27 0 0 0 3.49.08v-2.19h-3.25v-1.32a35.48 35.48 0 0 0 6.94-.2v1.31c-.66.07-1.45.13-2.32.18v2.19c1-.06 1.84-.14 2.65-.24zm-3.88 3.6a4.46 4.46 0 0 0-1.25-.19c-1 0-1.54.4-1.54 1s.57 1 1.47 1 1.32-.57 1.32-1.31v-.5zM445.84 108.74c-.39.24-.79.45-1.27.7a38.81 38.81 0 0 0-3.93 2.15c-1.32.85-2.15 1.76-2.15 2.85s1.11 1.84 3.33 1.84a21.82 21.82 0 0 0 4.8-.53v1.7a28 28 0 0 1-4.73.38c-2.86 0-5-.85-5-3.21 0-1.58 1-2.81 2.52-3.89a49.32 49.32 0 0 1-2.11-4.5l1.48-.61a33 33 0 0 0 1.92 4.27c1.22-.72 2.43-1.32 3.2-1.75a7.31 7.31 0 0 0 1.18-.78zm.27-3.35a19.78 19.78 0 0 1 1.2 2.07l-1 .44a18.3 18.3 0 0 0-1.2-2.1zm1.7-.63a18.87 18.87 0 0 1 1.24 2l-1 .44a14.13 14.13 0 0 0-1.23-2.07zM453.82 118.08a27.63 27.63 0 0 0-3.26-3.31l1.23-1.08a28 28 0 0 1 3.31 3.31zM467.34 104.45h4.83v1.29h-3.44v8.35h-1.39zM478 113.6a21.31 21.31 0 0 0-1-2v6.74h-1.29V112a13.51 13.51 0 0 1-1.61 3.6 7.22 7.22 0 0 0-.65-1.2 16 16 0 0 0 2.14-5.35h-1.83v-1.29h1.95v-3.17H477v3.17h1.6V109H477v.88c.42.56 1.53 2.25 1.77 2.66zm9.45 2.35h-.89v1c0 .63-.13 1-.57 1.16a6.88 6.88 0 0 1-2.07.17 5.07 5.07 0 0 0-.37-1.12h1.47c.2 0 .24-.07.24-.24v-1h-4.7v2.32h-1.27V116h-1v-1h1v-3.75h2.94v-.73h-3.63v-1h2v-.84h-1.32v-1h1.32v-.83h-1.63v-1h1.63v-1.16h1.31v1.16h2.05v-1.16h1.3v1.16H487v1h-1.79v.83h1.56v1h-1.56v.84h2.09v1h-3.81v.73h3.07V115h.89zm-6.89-3.79v.84h1.67v-.85zm0 2.74h1.67v-.9h-1.67zm1.3-7.33h2.05v-.83h-2.05zm0 1.81h2.05v-.84h-2.05zm1.63 2.78v.84h1.77v-.85zm1.77 2.74v-.9h-1.77v.93zM491.71 113.39v-3.51a9.5 9.5 0 0 1-2 2.68 6.11 6.11 0 0 0-.91-1 9.36 9.36 0 0 0 2.73-3.61h-2.37v-1.19h2.59v-2.14H493v2.14h2.25V108H493v.72c.57.34 2.06 1.42 2.45 1.71l-.75 1.14c-.36-.38-1.08-1-1.7-1.56v3.4zm-2.79 3.54a10.26 10.26 0 0 0 1.37-3.08l1.23.5a13.47 13.47 0 0 1-1.33 3.21zm8.55-.14c.71 0 .81-.21.9-1.71a3.8 3.8 0 0 0 1.26.51c-.19 2-.58 2.45-2.05 2.45h-2.93c-1.8 0-2.26-.38-2.26-1.7v-2.24h1.38v2.23c0 .4.15.46 1 .46zm-2.08-3.79c.67.63 1.59 1.51 2.05 2l-1 .86a26.21 26.21 0 0 0-2-2.16zm6.43.24h-5.92v-7.85h5.92zm-1.33-6.72h-3.32v1.14h3.32zm0 2.2h-3.32v1.17h3.32zm0 2.22h-3.32v1.19h3.32zm.28 2.71c.62.94 1.44 2.21 1.83 3l-1.29.65c-.36-.77-1.15-2.09-1.75-3zM517.15 107.76v.69c-.33 6.07-.61 8.3-1.27 9.06a1.84 1.84 0 0 1-1.38.69 17.12 17.12 0 0 1-2.39 0 3.48 3.48 0 0 0-.49-1.44c1 .09 1.9.09 2.28.09a.81.81 0 0 0 .69-.23c.51-.47.82-2.53 1.08-7.43h-4.7a10.81 10.81 0 0 1-5.5 9.23 6.35 6.35 0 0 0-1.08-1.12 9.64 9.64 0 0 0 5.1-8.11h-4.65v-1.43h4.72v-3.15H511v3.15zM524.16 118.48h-4.83v-1.29h3.44v-8.35h1.39zM540.73 105.53c-.07.31-.16.69-.22 1s-.21 1.17-.35 1.84c.6 0 1.14-.07 1.49-.07 1.42 0 2.52.6 2.52 2.67a14.69 14.69 0 0 1-.84 5.38 2.24 2.24 0 0 1-2.3 1.29 8.32 8.32 0 0 1-1.77-.22l-.25-1.56a7.93 7.93 0 0 0 1.83.31 1.16 1.16 0 0 0 1.21-.71 11.84 11.84 0 0 0 .66-4.33c0-1.27-.57-1.48-1.51-1.48-.3 0-.8 0-1.35.07a30.45 30.45 0 0 1-3.06 8l-1.55-.62a22.9 22.9 0 0 0 3.08-7.18c-.68.07-1.28.13-1.62.18s-1.05.13-1.47.21l-.15-1.62h1.44c.51 0 1.27-.08 2.1-.15a17.71 17.71 0 0 0 .36-3.18zm5.34 1.93a27.94 27.94 0 0 1 2.45 5l-1.49.7a17.26 17.26 0 0 0-2.59-5.46l1.39-.61.24.33a16.08 16.08 0 0 0-1.2-2.07l1-.41a23.79 23.79 0 0 1 1.21 2.07zm1.74-.64a12.69 12.69 0 0 0-1.23-2.07l1-.41a20.46 20.46 0 0 1 1.24 2.06zM555.45 114.18c-1.55 1-3.27 2-4.57 2.75l-.87-1.26c1.27-.63 3.19-1.71 5-2.75zm7.5-4.53a36.69 36.69 0 0 1-3.07 3 10.6 10.6 0 0 0 4.06 3.34 6.21 6.21 0 0 0-1 1.25 12.47 12.47 0 0 1-5.31-5.81v5.07c0 .89-.2 1.3-.74 1.55a8.71 8.71 0 0 1-2.78.26 7.21 7.21 0 0 0-.5-1.46h2.22c.3 0 .38-.09.38-.36v-8.23h-5.74V107h5.74v-2.36h1.42V107h3.68a19.1 19.1 0 0 0-2.46-1.5l.84-.89a19 19 0 0 1 2.76 1.62l-.69.77h1.75v1.35h-5.88v.16a15.52 15.52 0 0 0 1.53 3.18 19.54 19.54 0 0 0 2.57-2.88zm-9.47 2.87a13.3 13.3 0 0 0-2.32-2.75l1.05-.73a12.78 12.78 0 0 1 2.4 2.64zM575 105.54c-.1.38-.22 1-.3 1.31s-.12.52-.19.79a4.79 4.79 0 0 1 4 4.89c0 3-2.18 4.86-5.31 5.31l-.9-1.35c3.16-.28 4.69-1.92 4.69-4a3.4 3.4 0 0 0-2.79-3.52 18.59 18.59 0 0 1-2.1 4.9 8.32 8.32 0 0 0 .87 1l-1.18 1c-.21-.25-.42-.48-.62-.74a3.9 3.9 0 0 1-2.92 1.72c-1.19 0-2.21-1-2.21-2.8a6.34 6.34 0 0 1 2.25-4.63c-.16-.44-.29-.87-.43-1.29a9.5 9.5 0 0 0-.54-1.44l1.56-.48c.09.43.21.93.31 1.36s.2.68.32 1a7.7 7.7 0 0 1 3.61-1c.08-.32.15-.62.2-.9a7.79 7.79 0 0 0 .09-1.26zm-4.89 8.06a17.74 17.74 0 0 1-1.36-2.9 4.81 4.81 0 0 0-1.37 3.17c0 .87.37 1.4 1 1.4a2.9 2.9 0 0 0 1.93-1.39zm1.07-1a18.9 18.9 0 0 0 1.56-3.72 6.06 6.06 0 0 0-2.84.94 14.69 14.69 0 0 0 1.14 2.55zM584.38 112a7.17 7.17 0 0 1 4.61-1.62c2.41 0 3.94 1.48 3.94 3.24 0 2.68-2.28 4.6-8.07 4.12l-.46-1.54c4.59.58 6.91-.65 6.91-2.62 0-1.09-1-1.85-2.44-1.85a5.57 5.57 0 0 0-4.38 1.85 3.45 3.45 0 0 0-.5.8l-1.38-.33a53.82 53.82 0 0 0 .75-6.1l1.59.21c-.19.91-.45 2.9-.57 3.84zm.71-6.66a43.77 43.77 0 0 0 5.83 1.14l-.34 1.45c-1.46-.19-4.73-.87-5.87-1.17zM609.9 116.12a3.88 3.88 0 0 1-2.76 1.18c-1 0-1.76-.72-1.76-2 0-1.64.56-4 .56-5.37a1 1 0 0 0-1.11-1.15c-1.16 0-2.87 1.39-4.16 2.79v1.5c0 1.28 0 2.35.06 3.7 0 .27.06.71.09 1h-1.62v-1c0-1.38 0-2.24.06-3.88-.69 1-1.56 2.31-2.19 3.16l-.93-1.3c.83-1 2.45-3.18 3.24-4.38l.09-1.28-2.82.38-.15-1.53h1.11c.42 0 1.25-.12 1.95-.22.05-.65.08-1.13.08-1.29a6.16 6.16 0 0 0-.08-1.2l1.76.06c-.08.37-.2 1.17-.3 2.13l.52.63c-.19.27-.46.69-.7 1.06 0 .21 0 .41-.05.62 1.16-1 3-2.36 4.43-2.36a2 2 0 0 1 2.2 2.09c0 1.5-.52 3.9-.52 5.41 0 .47.21.8.67.8a3.15 3.15 0 0 0 2.1-1.16zM622 106.82c-.3.19-.65.42-.92.61-.76.54-2.57 2.12-3.62 3a5.45 5.45 0 0 1 1.76-.26c2.49 0 4.33 1.53 4.33 3.6 0 2.39-1.9 4.08-5.23 4.08-2.06 0-3.44-.93-3.44-2.26a2.3 2.3 0 0 1 2.46-2.12 3 3 0 0 1 3.12 2.61 2.41 2.41 0 0 0 1.56-2.32c0-1.4-1.4-2.39-3.22-2.39-2.37 0-3.78 1.11-5.53 3l-1.1-1.11c1.16-.94 3-2.5 3.88-3.22s2.54-2.12 3.29-2.76c-.78 0-3.31.13-4.09.18l-1.1.1v-1.54c.37 0 .82.07 1.18.07.78 0 4.14-.09 4.95-.16a5.08 5.08 0 0 0 .94-.15zm-2.9 9.61a1.78 1.78 0 0 0-1.76-1.81c-.61 0-1.06.36-1.06.82 0 .64.76 1 1.77 1a7.07 7.07 0 0 0 1.09-.01zM631.2 115.83a2.34 2.34 0 1 1-2.34-2.35 2.33 2.33 0 0 1 2.34 2.35zm-.9 0a1.44 1.44 0 1 0-1.44 1.44 1.44 1.44 0 0 0 1.44-1.44z"/></g></svg>