<svg xmlns="http://www.w3.org/2000/svg" viewBox="0 0 900 340"><defs><style>.cls-3{fill:#333}.cls-4{fill:#e60000}.cls-5{fill:#e94e3c}.cls-6{fill:none;stroke:#e94e3c;stroke-miterlimit:10;stroke-dasharray:3 3}</style></defs><g id="レイヤー_3" data-name="レイヤー 3"><path fill="#f5f5f5" d="M900 340H0V0l900 2.04V340z"/><path fill="#fff" d="M46.86 119.37h154.11v165.46H46.86z"/><path class="cls-3" d="M74.77 181.79h-4.49l-1.1 3.68h-2.07l4.28-12.9h2.34l4.27 12.9h-2.15zm-.49-1.6l-.51-1.73c-.44-1.4-.82-2.84-1.23-4.29h-.07c-.37 1.47-.77 2.89-1.19 4.29l-.52 1.73zM80.06 172.57h2v12.9h-2zM90.08 176.78a2 2 0 1 1-2 2 2 2 0 0 1 2-2zM110.88 183.4v2.26H109v-1h-9v1h-1.9V174.8v-1.53H110.91v1.51zM100 175.06v7.88h9v-7.88zM119.35 179.11a26.23 26.23 0 0 1-3.36 4.83l-1.51-1a18.06 18.06 0 0 0 3.31-4.56zm3.84-2.61v8.34c0 .94-.49 1.48-1.63 1.48a25.53 25.53 0 0 1-2.66-.12l-.16-1.73a11.89 11.89 0 0 0 2 .19c.45 0 .64-.17.66-.65v-7.51h-4.68c-.54 0-1.1 0-1.57.05v-1.84a15.07 15.07 0 0 0 1.56.11h4.69v-1.63a7.61 7.61 0 0 0-.14-1.37h2.07a9.84 9.84 0 0 0-.14 1.38v1.62h4.39a11.57 11.57 0 0 0 1.56-.11v1.82h-1.54zm3.57 1.84a37.37 37.37 0 0 1 3 4.59l-1.61.91a30.76 30.76 0 0 0-2.9-4.68zm.3-4a19 19 0 0 0-1.35-2.35l1.14-.47a23.38 23.38 0 0 1 1.37 2.31zm2.21-.53a18.36 18.36 0 0 0-1.39-2.33L129 171a22.39 22.39 0 0 1 1.41 2.31zM137.61 180.12l-1.66.62a35.82 35.82 0 0 0-1.6-4l1.65-.59c.4.85 1.28 3.03 1.61 3.97zm8.87-3.76a9.45 9.45 0 0 0-.34 1 14 14 0 0 1-2.45 5.27 13.67 13.67 0 0 1-5.76 4.24l-1.46-1.49a11.94 11.94 0 0 0 5.75-3.69 12.23 12.23 0 0 0 2.33-6zm-5 2.68l-1.64.59a32.6 32.6 0 0 0-1.4-3.85l1.64-.54c.32.76 1.18 3.03 1.4 3.76zM163.55 181.17a47.73 47.73 0 0 0-6.63-2.73v5.41c0 .55.06 1.62.14 2.25h-2.15a18 18 0 0 0 .14-2.25v-10.12a12 12 0 0 0-.16-2h2.16c-.06.58-.13 1.35-.13 2v2.73a59.47 59.47 0 0 1 7.41 2.81zM172.12 172.22c-.12.34-.3 1-.37 1.33a40.86 40.86 0 0 0-.86 6.54 12.58 12.58 0 0 0 .13 1.82c.26-.7.61-1.54.87-2.17l.91.7a34.82 34.82 0 0 0-1.24 4.05 3.12 3.12 0 0 0-.09.78v.65l-1.58.11a21.67 21.67 0 0 1-.67-5.61 48.27 48.27 0 0 1 .76-6.92 13.59 13.59 0 0 0 .16-1.43zm4 8.48a6.64 6.64 0 0 0-.21 1.54c0 .79.58 1.4 2.68 1.4a19.82 19.82 0 0 0 4.33-.45v1.86a23.6 23.6 0 0 1-4.4.35c-2.94 0-4.31-1-4.31-2.7a10.48 10.48 0 0 1 .3-2.14zm6.29-7.23v1.78a43 43 0 0 1-7.27 0v-1.77a32.7 32.7 0 0 0 7.26-.01zM88.25 196.63a26.17 26.17 0 0 1-1.77 3.4v12H84.8v-9.58a17.84 17.84 0 0 1-2.1 2.29 9.88 9.88 0 0 0-.93-1.63 19.16 19.16 0 0 0 4.94-7zm4.66 6.06c.56 4.29 1.61 7.18 3.28 7.37.44 0 .7-.94.86-2.92a4.84 4.84 0 0 0 1.35.89c-.41 3.17-1.21 4-2.14 4-2.93-.25-4.29-3.72-5-9.09l-3.84.49-.24-1.55 3.92-.49c-.14-1.59-.24-3.31-.31-5.15h1.64c.06 1.76.14 3.42.28 4.93l5.14-.65.25 1.48zm3.59-2.8a16.07 16.07 0 0 0-2.62-2.89l1.2-.78A16.86 16.86 0 0 1 97.8 199zM106.51 200c-.22.32-.54.81-.82 1.25 0 .28 0 .57-.07.85a8.59 8.59 0 0 1 5.33-2 4.47 4.47 0 0 1 4.66 4.5c0 3.5-2.39 5.45-6.42 6.24l-.78-1.67c3-.44 5.39-1.73 5.39-4.61a2.93 2.93 0 0 0-3.12-2.85 7.66 7.66 0 0 0-5.18 2.29v1.78c0 1.51 0 2.75.07 4.33 0 .32.07.82.1 1.17h-1.89v-1.13c0-1.62 0-2.61.07-4.54-.8 1.19-1.82 2.7-2.56 3.69l-1.08-1.52c1-1.19 2.85-3.7 3.78-5.1l.09-1.5-3.28.43-.17-1.78h1.29c.49 0 1.44-.14 2.28-.26 0-.76.09-1.32.09-1.51a7.48 7.48 0 0 0-.09-1.4l2 .07c-.09.44-.23 1.37-.35 2.49zM122.22 204.6a8.34 8.34 0 0 1 5.37-1.89c2.83 0 4.61 1.73 4.61 3.78 0 3.13-2.66 5.38-9.42 4.82l-.55-1.81c5.36.69 8.08-.75 8.08-3.05 0-1.27-1.19-2.17-2.85-2.17a6.52 6.52 0 0 0-5.12 2.17 4.1 4.1 0 0 0-.58.93l-1.61-.38a66.47 66.47 0 0 0 .88-7.13l1.85.24c-.22 1.09-.52 3.42-.66 4.49zm.82-7.78a50.8 50.8 0 0 0 6.81 1.33l-.4 1.7c-1.7-.23-5.52-1-6.85-1.37zM152 209.43a4.48 4.48 0 0 1-3.22 1.39c-1.21 0-2.05-.84-2.05-2.39 0-1.91.65-4.62.65-6.27a1.18 1.18 0 0 0-1.3-1.35c-1.35 0-3.35 1.63-4.85 3.26 0 .62-.05 1.21-.05 1.75 0 1.51 0 2.75.07 4.33 0 .32.07.82.1 1.17h-1.89c0-.29.05-.85.05-1.13 0-1.62 0-2.61.07-4.54-.8 1.19-1.82 2.7-2.56 3.69l-1.02-1.52c1-1.21 2.85-3.71 3.78-5.11 0-.5.07-1 .11-1.49l-3.3.43-.17-1.78h1.29c.49 0 1.46-.14 2.28-.26.05-.76.09-1.32.09-1.51a7.48 7.48 0 0 0-.09-1.4l2.05.07c-.09.44-.23 1.37-.35 2.49l.61.73c-.22.32-.54.81-.82 1.25 0 .24 0 .47-.05.71 1.35-1.22 3.47-2.75 5.17-2.75a2.29 2.29 0 0 1 2.57 2.44c0 1.75-.61 4.55-.61 6.32 0 .55.24.93.79.93a3.69 3.69 0 0 0 2.45-1.35zM166.2 198.57c-.35.23-.75.49-1.07.72-.89.63-3 2.47-4.22 3.49a6.41 6.41 0 0 1 2.05-.3c2.91 0 5.06 1.78 5.06 4.2 0 2.79-2.22 4.77-6.11 4.77-2.4 0-4-1.09-4-2.65a2.68 2.68 0 0 1 2.87-2.47 3.47 3.47 0 0 1 3.64 3 2.83 2.83 0 0 0 1.83-2.72c0-1.62-1.65-2.78-3.77-2.78-2.77 0-4.41 1.3-6.46 3.47l-1.28-1.3c1.35-1.1 3.52-2.92 4.53-3.76l3.84-3.23c-.91 0-3.87.16-4.78.21-.44 0-.9.07-1.28.12v-1.8a13 13 0 0 0 1.38.09c.91 0 4.84-.11 5.78-.19a5.81 5.81 0 0 0 1.1-.18zm-3.38 11.23a2.09 2.09 0 0 0-2-2.12c-.72 0-1.24.42-1.24 1 0 .76.89 1.23 2.06 1.23a9.59 9.59 0 0 0 1.18-.11zM106.9 235.06v1.6H91.38v-1.6h6.83v-3.87H93v-1.58h5.21v-3.48h-6v-1.6h7.36a20.57 20.57 0 0 0-2.82-2.43l1.33-.93a19.68 19.68 0 0 1 3.28 2.75l-.86.61h5.5v1.6h-6v3.48h5.26v1.58H100v3.87zM118.24 225.48a24.13 24.13 0 0 1-3.09.61 30.32 30.32 0 0 1-3.76 7.38l-1.68-.86a25.32 25.32 0 0 0 3.62-6.32h-1.24c-.67 0-1.39 0-2.09-.07l-.12-1.61c.68.07 1.51.1 2.21.1s1.17 0 1.79-.07a13.61 13.61 0 0 0 .5-2.94l1.91.18c-.14.59-.37 1.55-.63 2.54a17.2 17.2 0 0 0 2.52-.6zm2.13 1.8a19.88 19.88 0 0 0 0 2c0 .56.07 1.56.12 2.54a11.32 11.32 0 0 1 3.59 2.19l-.93 1.48a13.94 13.94 0 0 0-2.59-1.92v.47c0 1.47-.89 2.66-3.17 2.66-2 0-3.65-.86-3.65-2.66 0-1.63 1.48-2.79 3.63-2.79a7.59 7.59 0 0 1 1.45.13c-.07-1.37-.15-3-.19-4.14zm-1.5 5.64a5.89 5.89 0 0 0-1.6-.21c-1.15 0-1.91.51-1.91 1.21s.6 1.25 1.79 1.25a1.5 1.5 0 0 0 1.73-1.63c0-.18 0-.37-.01-.62zm4.74-5a22.4 22.4 0 0 0-4-2.42l.87-1.35a29.09 29.09 0 0 1 4.16 2.33zM132.73 221.7a28.47 28.47 0 0 1-1.84 3.66v11.82h-1.61v-9.44a16.68 16.68 0 0 1-1.77 2 10.47 10.47 0 0 0-1-1.63 19.15 19.15 0 0 0 4.62-6.92zm5.47 6.42V235h4.46v1.57h-10.49V235h4.36v-6.84h-4.8v-1.57h4.8v-5.1h1.67v5.1h4.74v1.57zM160.68 232.33h-1.82v3.06h-1.65v-.75h-3.73v.91c0 .9-.23 1.26-.82 1.49a10.34 10.34 0 0 1-3 .23 5.18 5.18 0 0 0-.56-1.32h2.29c.29 0 .42-.1.42-.4v-.93h-5.46v-1.23h5.46v-1.08h-7v-1.28h7v-1h-5.31v-1.13h5.31v-1H147v-3.22h4.85v-.89h-6.64v-1.32h6.64v-1.28h1.65v1.28h6.83v1.32h-6.83v.89h5.1v3.22h-5.1v1h5.38v2.15h1.82zm-8.85-5.55v-1.06h-3.29v1.06zm1.65-1.06v1.06h3.45v-1.06zm0 5.33h3.73v-1h-3.73zm3.73 1.28h-3.73v1.08h3.73z"/><path class="cls-4" d="M281.47 84.54v.91h-7.15v-.91l2.59-.31-1.53-4.61h-6.1l-1.51 4.58 2.56.34v.91h-5.85v-.91l2.13-.34 5.6-16.46h1.53l5.67 16.56zm-6.43-6l-2.74-8.16-2.69 8.16zM289 69v15.23l2.45.29v.91h-7.39v-.91l2.44-.27c.05-2.3.05-4.6.05-7V76c0-2.35 0-4.68-.05-7l-2.44-.26v-.91h7.39v.91zM301.05 78.68a2.35 2.35 0 1 1 2.36-2.35 2.35 2.35 0 0 1-2.36 2.35zM313.41 70.38a5.29 5.29 0 0 1 3 1.2c.05 0 .07.07.09.09 2.41-.14 7.81-.62 8.77-.76s1-.7 1.56-.7 2.56 1.51 2.56 2.23-.79.79-1 1.49c-.24 1.15-.74 4.06-1.24 6.53.84.07 1.51.45 1.51 1a.74.74 0 0 1-.82.82c-.62 0-1.87-.17-3.05-.17-1.87 0-5 .17-7.77.36v.82c0 .62-.22 1-.84 1s-1.16-.77-1.16-1.8c0-.53.1-1.83.08-2.81a42.45 42.45 0 0 0-.68-6.89 3.66 3.66 0 0 0-1.36-2zm12 10.1a78.14 78.14 0 0 0 1-7.94c0-.19-.07-.29-.31-.29-1.44 0-5.09.29-6.41.43-.77.1-1.49.34-1.95.34a2.52 2.52 0 0 1-1-.34c.07 1.63.24 6 .31 8.38 2.44-.19 6.09-.48 8.37-.58zM343.94 68.22a6.92 6.92 0 0 1 1.95-.36c1.05 0 2.42.86 2.42 1.46s-.48.55-.53 1.25-.09 1.44-.12 2.42a52.09 52.09 0 0 0 5.6-1c.93 0 2.28.6 2.28 1.32 0 .52-.27.74-.89.74S353.14 74 352 74c-1 0-2.79.17-4.37.36v2.12c0 2 .15 6.88.15 7.63 0 1.08-.67 2.28-1.63 2.28-.77 0-.75-.48-1.28-1.22a7.47 7.47 0 0 0-2-1.59l.21-.48a24.19 24.19 0 0 0 2.38.65c.29 0 .45 0 .48-.31.09-1.16.09-5 .09-7v-1.92c-1.54.17-3.5.48-4.73.75-.93.19-1.22.64-1.82.64a2.88 2.88 0 0 1-1.92-1.58 5.12 5.12 0 0 1-.27-1.44l.41-.17c.51.65 1 1.2 1.54 1.18 1.1 0 4.92-.46 6.77-.67a34.31 34.31 0 0 0-.17-3.44c-.12-.69-.67-.86-1.87-1zm-1.77 9.31c-.17 2.69-1.85 6.22-3.72 6.22a1 1 0 0 1-1-1c0-.74.53-.88 1.42-1.58a7.65 7.65 0 0 0 2.71-3.77zm8.54-.38c2.59.86 5.14 2.64 5.47 4.73.1.76-.24 1.31-.91 1.31s-1.08-.81-1.51-1.6a11.77 11.77 0 0 0-3.34-4zm.7-9.63a8.41 8.41 0 0 1 2.85 1.48 1.93 1.93 0 0 1 .82 1.42.62.62 0 0 1-.65.65c-.41 0-.65-.43-1.1-1a11.58 11.58 0 0 0-2.23-2.18zm2.18-1.44a8.66 8.66 0 0 1 2.83 1.27 1.81 1.81 0 0 1 .89 1.42.62.62 0 0 1-.62.67c-.41 0-.65-.43-1.15-1a12.49 12.49 0 0 0-2.24-2zM364.87 74.77l.29-.26a7.37 7.37 0 0 1 1.73 1.1 3.57 3.57 0 0 1 1.7 2.62.86.86 0 0 1-.89 1c-.86 0-.89-1-1.53-2.31a9.17 9.17 0 0 0-1.3-2.15zm1.75 11.91l-.26-.41c6.22-3.19 10.13-9.51 10.13-11.52 0-.41-.39-.72-1.25-1.11l.1-.33a5.78 5.78 0 0 1 1.2 0c1 .12 2.25 1.27 2.25 2 0 .43-.45.67-.74 1.22a19.57 19.57 0 0 1-11.43 10.15zm2.47-13.21l.27-.24a8.17 8.17 0 0 1 1.85 1.13 3.22 3.22 0 0 1 1.46 2.47.9.9 0 0 1-.94.94c-.83 0-.81-1-1.39-2.26a10.33 10.33 0 0 0-1.25-2.04zM392.61 67.45a6.76 6.76 0 0 1 1.71-.41c1.08 0 2.85 1 2.85 1.61s-.45.7-.55 1.49c-.14 1.08-.19 2.71-.21 4.08a19 19 0 0 1 5.95 2 2.51 2.51 0 0 1 1.46 2 1 1 0 0 1-1 1c-1 0-1.22-1-2.76-2.26a16.75 16.75 0 0 0-3.69-2v8c0 1.1.07 1.84.07 2.23 0 .81-.24 1.15-.89 1.15-.94 0-1.42-1.3-1.42-2.4 0-.55.22-1 .32-2 .19-1.78.19-5.5.19-7.23 0-1.94 0-4.65-.17-5.83-.1-.77-.7-1-1.87-1.1zM418.53 76.67c-.48 1.29-1.51 3.81-1.75 4.73a6.76 6.76 0 0 0-.38 1.75c0 .74.48 1.53.48 2.13s-.29.92-.84.92a1.7 1.7 0 0 1-1.27-.94 10.45 10.45 0 0 1-1.42-5.5 22.18 22.18 0 0 1 1.13-6.26 14.1 14.1 0 0 0 .57-2.93 3.84 3.84 0 0 0-1.32-2.57l.36-.31a4.66 4.66 0 0 1 1.4.74 4.24 4.24 0 0 1 1.72 2.69c0 .57-.33 1-.93 2.37a14.36 14.36 0 0 0-1.59 5.88 3.82 3.82 0 0 0 .32 1.9c.16.31.33.36.55 0 .55-.84 1.87-3.64 2.45-4.84zm2.38 2a8.64 8.64 0 0 0 .67 2c.84 1.49 2.07 2.29 5 2.29a22.2 22.2 0 0 0 4-.44c.74 0 1.51.29 1.51.92 0 1.12-2.28 1.41-5 1.41-4 0-6-1.44-6.58-4a8.41 8.41 0 0 1-.24-2.12zm.24-7.32a11.26 11.26 0 0 1 5.86-1.7 7.74 7.74 0 0 1 3.36.55 1.14 1.14 0 0 1 .79 1c0 .39-.22.63-.74.7a9.31 9.31 0 0 0-2.14.46 36.1 36.1 0 0 0-3.94 2.11L424 74c1.06-.8 2.64-2 3.1-2.4.28-.29.31-.46-1.32-.46a14.94 14.94 0 0 0-4.4.74zM444.72 66.2a.81.81 0 0 1-.91.46 35.89 35.89 0 0 1-2.5 5.13l.94.34a.94.94 0 0 1-.72.43V86.7a2.3 2.3 0 0 1-1.61.62h-.39V74.46a22.4 22.4 0 0 1-3 3.31l-.34-.22a39.71 39.71 0 0 0 5.57-12.31zm6.24 8v11.25h3.46l1.32-1.66s1.46 1.16 2.35 2c0 .27-.29.39-.65.39h-14.19l-.19-.7h5.84V74.19h-6.34l-.19-.72h6.53v-8l2.92.28c-.07.36-.26.6-.86.7v7h4l1.3-1.6s1.46 1.1 2.35 1.94a.61.61 0 0 1-.65.38zM481.9 77.75s1.32 1.12 2.08 1.87a.57.57 0 0 1-.62.38h-3v3.67a2.56 2.56 0 0 1-1.61.6h-.27v-1.34h-4.89v1.92c0 1.44-.34 2.33-3.08 2.57a1.72 1.72 0 0 0-.67-1.27 4.94 4.94 0 0 0-2.42-.7v-.38s3 .21 3.57.21.65-.14.65-.53v-1.82h-7.2l-.19-.7h7.39V80h-9.77l-.21-.67h10V77.1h-7l-.22-.7h7.25v-2.21h-4.8v.7c0 .17-.84.58-1.63.58H465v-5.93l2.06.86h4.63v-1.89h-9.74l-.19-.72h9.93v-2.55l2.81.31c-.05.34-.29.58-.86.65v1.59h6.31l1.32-1.61s1.51 1.13 2.42 1.94c-.07.27-.28.39-.62.39h-9.43v1.89h4.61l1-1.05 2.16 1.6a2 2 0 0 1-1 .46v3.07a2.87 2.87 0 0 1-1.63.55h-.31v-.84h-4.85v2.21h4.65l1-1.05L481.3 77a2 2 0 0 1-1 .46v1.92h.43zm-10.28-4.25v-2.4h-4.8v2.4zm1.95-2.4v2.4h4.85v-2.4zm0 8.23h4.89V77.1h-4.89zm4.89.67h-4.89v2.23h4.89zM492.84 67.55a4.08 4.08 0 0 1 1.75-.39c1 0 2.93.87 2.93 1.51s-.55.87-.84 1.54-.55 1.37-1 2.33a13.86 13.86 0 0 1 1.9-.19c1.82 0 2.92 1 2.92 4s-.84 6.33-2.35 8.18a3.88 3.88 0 0 1-3 1.47c-.84 0-1-.34-1.34-1.18-.14-.41-.34-.67-1.61-1.85l.24-.36a8.42 8.42 0 0 0 2.88 1.32 2 2 0 0 0 1.83-1.13 14.48 14.48 0 0 0 1.73-7c0-1.61-.41-2.35-1.69-2.35a9.93 9.93 0 0 0-2.06.33c-.67 1.61-1.46 3.43-2.18 4.95a72.72 72.72 0 0 1-3.53 6.64c-.41.68-.72.87-1.15.87a1 1 0 0 1-.84-1.08 1.66 1.66 0 0 1 .43-1.22 37 37 0 0 0 3.78-5.94c.55-1.1 1.13-2.4 1.65-3.67-.81.29-1.56.57-2 .77a5.4 5.4 0 0 1-1.94.67c-.65 0-1.61-1-1.8-1.85a3 3 0 0 1 .12-1.46l.43-.08c.31.7.53 1.4 1.2 1.4a40.36 40.36 0 0 0 4.61-.92 18 18 0 0 0 1.18-3.79.67.67 0 0 0-.39-.67 6.82 6.82 0 0 0-1.82-.41zm9.34 4.77a6.59 6.59 0 0 1 4.2 1.92 6.42 6.42 0 0 1 1.62 4.51c0 1.11-.39 2-1.2 2s-.7-.69-1.42-.86a13.27 13.27 0 0 0-2.78 0l-.12-.52c.93-.22 2.25-.48 2.88-.72s.62-.44.6-1.06a5.4 5.4 0 0 0-.94-2.74 4.69 4.69 0 0 0-3.09-1.94zm1-4.08a8.33 8.33 0 0 1 2.88 1.56 1.89 1.89 0 0 1 .8 1.39.65.65 0 0 1-.65.72c-.39 0-.67-.5-1.13-1.08a11.09 11.09 0 0 0-2.18-2.2zm2.19-1.58a8.52 8.52 0 0 1 2.85 1.34 1.9 1.9 0 0 1 .89 1.49.6.6 0 0 1-.65.67c-.38 0-.64-.53-1.15-1.1a11.43 11.43 0 0 0-2.23-2zM520.34 66.23c-.09.28-.38.5-.93.48a34.52 34.52 0 0 1-2.4 5l1.2.46a1 1 0 0 1-.77.41v14.19a2.16 2.16 0 0 1-1.54.63h-.38V74a23.12 23.12 0 0 1-3.41 3.81l-.34-.21a39.53 39.53 0 0 0 5.57-12.34zm13.23 18.93c.79 1.06.86 1.52.6 1.83-.67.86-2.35.12-3.51-.75-3.74-2.73-5.61-7.15-6.43-12.43l-5.47.62-.27-.67 5.64-.65a54.8 54.8 0 0 1-.48-7.53l2.93.36c0 .29-.26.57-.86.67a43.66 43.66 0 0 0 .34 6.29l4.44-.51 1.1-1.72s1.58.93 2.54 1.6c0 .24-.28.41-.57.46l-7.42.86c.67 4.54 2.28 8.52 5.55 10.68.43.37.6.37.81-.09a21.47 21.47 0 0 0 1.25-2.78h.24zm-5.81-19c5.5.77 4.27 4.44 2.35 3.38a9.51 9.51 0 0 0-2.57-3.19zM543.41 72a5.54 5.54 0 0 1-.24.82c5.28.88 4.32 4.39 2.49 3.45a8.08 8.08 0 0 0-2.64-3c-.81 2-2.4 3.62-5.59 4.89l-.29-.38a8.25 8.25 0 0 0 4.54-5.78h-4.06l-.17-.7h4.37c.12-.74.17-1.53.22-2.37h-4.18l-.19-.7h4.39v-2.95l2.61.26c-.05.29-.26.53-.77.6 0 .72 0 1.42-.07 2.09h1l1.17-1.36s1.23 1 2 1.68c-.07.27-.32.39-.65.39h-3.48a23.45 23.45 0 0 1-.27 2.37h1.4l1.1-1.41s1.27 1 2 1.73c-.05.26-.29.38-.62.38zm10.46 4.63l2.13 1.64a1.86 1.86 0 0 1-1 .51v7.85a2.6 2.6 0 0 1-1.6.57h-.32v-1.37h-9.57v.87c0 .19-.82.65-1.59.65h-.31V76.86l2 .86h9.19zm-10.34 1.78v3h9.57v-3zm9.57 6.7v-3.04h-9.57v3.05zm.58-13.11a9.53 9.53 0 0 0 5.62 3.82v.26a2 2 0 0 0-1.4 1.56 9.44 9.44 0 0 1-4.75-5.5c-.69 2.19-2.25 3.87-5.81 5.14l-.26-.36a7.35 7.35 0 0 0 4.3-4.92h-3l-.2-.7h3.41a13.58 13.58 0 0 0 .24-2.37h-3.33l-.2-.7h3.51v-2.95l2.71.24c0 .31-.28.55-.76.62v2.09h1.92l1.13-1.41s1.27 1 2.06 1.72c-.07.27-.29.39-.62.39h-4.54a14.45 14.45 0 0 1-.31 2.37h2.6l1.13-1.46s1.35 1 2.14 1.78c-.07.26-.29.38-.63.38zM569.54 67.62a5 5 0 0 1 2.21-.72c1 0 2 .33 2.14.81a21.13 21.13 0 0 0 1.22 3.36 18.31 18.31 0 0 0 4-2.18 1.65 1.65 0 0 1 1.51.24.84.84 0 0 1-.24 1.13 17.06 17.06 0 0 1-4.44 2.3 25.75 25.75 0 0 0 4.18 5c.58.55.77.81.79 1.27 0 .72-.36 1.75-1 1.75s-1-.38-1.66-.81a11.26 11.26 0 0 0-5.85-1.66c-2.65 0-4.61 1.44-4.61 3.36 0 1.75 2 3 5.64 3 1.77 0 2.64-.27 3.5-.27s1.47.32 1.47 1-1.18 1.25-4.32 1.25c-4.18 0-7.71-1.41-7.71-4.61 0-2.61 2.81-4.61 6.53-4.61a17.9 17.9 0 0 1 5.1.77c.26.05.31 0 .12-.19a41.83 41.83 0 0 1-3.58-4.81 21.8 21.8 0 0 1-5.09.92c-2.5 0-3.36-.89-4.61-2.91l.41-.36c1.48 1.2 2.25 1.68 4.08 1.66a18.13 18.13 0 0 0 4.37-.75c-.56-1-1.08-2.11-1.59-2.85s-1.1-.63-2.47-.65zM610.44 81.51c-1 1.59-2.81 3.24-5 3.24-1.75 0-2.93-1-2.93-3.28 0-2.74 1-5.45 1-8 0-1.52-.41-2.31-1.59-2.31-2.06 0-4.78 2.11-7.06 4.73a46.27 46.27 0 0 0 .2 6.92c.07.72.16 1.25.16 1.82 0 1-.45 2.11-1.17 2.11-.55 0-.82-.31-.91-.89a7.6 7.6 0 0 0-.46-1.65 18 18 0 0 0-1.58-2.81l-1.3 1.9c-.34.48-.6.86-1 .89s-.75-.39-.75-1a1.82 1.82 0 0 1 .58-1.37 56.31 56.31 0 0 0 5.16-6.67c0-.6.12-1.2.17-1.78-.77.41-1.54.87-2 1.18s-.75.89-1.18.89a2.92 2.92 0 0 1-2.18-1.85 3.43 3.43 0 0 1-.07-1.15l.4-.12c.39.69.75 1.1 1.2 1.1a16.7 16.7 0 0 0 4.06-1.68c.19-1.46.34-2.69.36-3.33s-.1-.65-.53-.82a7.76 7.76 0 0 0-1.34-.41v-.48a4.73 4.73 0 0 1 1.59-.31c1.1 0 2.45 1.18 2.45 1.92 0 .5-.29.77-.58 1.68-.12.34-.29.91-.46 1.58.41.29.87.75.87 1s-.24.5-.55.89a7.42 7.42 0 0 0-.48.6c2.06-1.88 4.75-3.87 7.08-3.87 1.87 0 2.88 1.11 2.88 3.39 0 2-1 5.11-1 7.58 0 1.27.5 1.8 1.63 1.8a6 6 0 0 0 4.13-1.8zm-16.9-3.81c-.65 1-1.39 2.11-2.13 3.14.64.82 1.41 1.75 1.72 2.14.27.24.41.21.41-.19.03-1.08-.05-3.08 0-5.09zM618.86 67.62c.34.72.75 1.44 1.37 1.44a28.07 28.07 0 0 0 4.95-1.06c.64-.19.69-.48 1.08-.48.84 0 2.32 1.15 2.32 1.92 0 .5-.64.57-1.46 1.27-1.32 1-4.44 4-5.5 5.06-.19.2-.07.39.15.29a11.86 11.86 0 0 1 4.1-.81c3.15 0 5.81 2 5.76 5.44 0 3-2.78 5.57-7.44 5.57-2.71 0-4.63-1.12-4.63-2.95a2.58 2.58 0 0 1 2.86-2.38 4 4 0 0 1 4 3.41 4.4 4.4 0 0 0 3.41-4.17c.07-2.12-1.49-4.06-4.39-4.06-3.41 0-5.79 2.21-7.81 4.82-.43.53-.64.7-1.05.68s-.79-.46-.75-1.13c0-.51.29-.89.92-1.51 3.36-3.46 7.89-7.78 9-9.41.27-.39.1-.53-.21-.46a23.06 23.06 0 0 0-3.7 1.37c-.46.22-.82.58-1.25.58a2.6 2.6 0 0 1-2.13-2 3.56 3.56 0 0 1 0-1.41zm5.88 17c-.31-1.78-1.41-2.76-2.76-2.76-.89 0-1.51.47-1.51 1.24s1.06 1.56 3.24 1.56c.36.02.7 0 1.03-.02z"/><path class="cls-3" d="M308.19 40.38a8.61 8.61 0 0 1 2.56-.37c3.26 0 5.49 1.82 5.49 5.09s-2.32 5.38-5.88 5.38c-2.56 0-4.19-1.18-4.7-3.5a1.22 1.22 0 0 1 1.2-.8c.74 0 1.06.36 1.36 1.58l.41 1.52a5.14 5.14 0 0 0 1.54.23c2.51 0 3.86-1.63 3.86-4.16s-1.49-4-3.93-4a8.82 8.82 0 0 0-2.43.32l-.65-.18.53-7.59h8.23v2h-7.26zM330.06 42c0 6.21-2.59 8.44-5.24 8.44s-5.29-2.23-5.29-8.44 2.58-8.49 5.29-8.49 5.24 2.34 5.24 8.49zm-5.24 7.47c1.54 0 3-1.56 3-7.47s-1.45-7.5-3-7.5-3.06 1.56-3.06 7.5 1.45 7.51 3.06 7.51zM341 38.77c0 3.68-1.68 5.2-3.47 5.2s-3.5-1.52-3.5-5.2 1.7-5.24 3.5-5.24 3.47 1.54 3.47 5.24zm-3.47 4.46c.9 0 1.72-.85 1.72-4.46s-.82-4.46-1.72-4.46-1.77.81-1.77 4.46.84 4.46 1.76 4.46zm-.48 7l11.74-16.93.69.53-11.75 17zm15.13-5c0 3.68-1.68 5.19-3.48 5.19s-3.49-1.51-3.49-5.19S346.9 40 348.69 40s3.48 1.49 3.48 5.19zm-3.48 4.46c.9 0 1.75-.85 1.75-4.46s-.85-4.46-1.75-4.46-1.77.82-1.77 4.46.87 4.42 1.76 4.42zM367.07 44.59c-2.25 1.29-5.36 3-9.63 4.94a1 1 0 0 1-.53.62l-1.13-2.3c.76-.18 1.91-.5 3.31-.94L358.86 32l2.67.23c0 .32-.21.55-.78.65l.25 13.46c1.83-.6 3.93-1.31 6-2zm8.67-12.21c-.07.34-.34.6-.9.64-.18 4.86-.57 8.95-3 12.33 6.95 3.33 5.82 7.59 3.63 6.21a20.38 20.38 0 0 0-4.09-5.64c-1.95 2.42-5.06 4.42-10 6.07l-.23-.41c10.71-4.78 11.52-10.76 11.72-19.5zm-11.91 2.23c6.76 2.53 5.43 6.74 3.36 5.33a16.45 16.45 0 0 0-3.61-5.15zM399 48.48s1.52 1.15 2.41 2c-.07.26-.3.37-.62.37h-20.4l-.2-.69h8.92V31.05l2.81.29c-.07.35-.26.58-.83.67v7.52h4.85l1.31-1.68s1.49 1.15 2.37 2c-.07.25-.28.36-.62.36h-8v10h6.6zM413.92 49.83c5.68-1.1 8.26-4.07 8.26-8.21a6.48 6.48 0 0 0-6.74-6.76h-.85a4.29 4.29 0 0 1 1.15 2.57 11.44 11.44 0 0 1-.74 3.87c-1 2.81-3.61 7.2-6.09 7.2-1.63 0-3.26-2.55-3.26-5.45a8.92 8.92 0 0 1 3.17-6.55 10 10 0 0 1 6.78-2.5c4.9 0 8.58 3.27 8.58 8 0 4-2.6 7.82-10.16 8.26zm-.23-14.76a8.62 8.62 0 0 0-4.25 2.32 7.34 7.34 0 0 0-2.28 5.2c0 2.09.95 3.77 1.89 3.77 1.45 0 3.54-3.5 4.44-5.5a10.85 10.85 0 0 0 .87-3.72 3.75 3.75 0 0 0-.67-2.07zM435.11 33.09v18.4c0 .14-.53.53-1.36.53h-.25v-5.25c-1.08.58-2.46 1.34-4.12 2.14a.8.8 0 0 1-.55.55l-.64-2.16c.36-.07.89-.16 1.54-.3V33.09h-1.22l-.19-.64h5.94l1.1-1.4s1.26 1 2.05 1.7c-.05.23-.28.34-.6.34zm-1.61 0h-2.23v3.84h2.23zm0 4.49h-2.23v4.09h2.23zm-2.23 9.08c.69-.16 1.45-.32 2.23-.51v-3.84h-2.23zm14-7a39.33 39.33 0 0 0 .53 4.9 19.28 19.28 0 0 0 1.36-4.14l2.39.69c-.09.27-.27.43-.87.41a19.05 19.05 0 0 1-2.39 5 6.93 6.93 0 0 0 1.65 2.85c.3.32.37.3.55-.14a17.25 17.25 0 0 0 .88-2.62h.27l-.32 3.54c.53.89.62 1.31.39 1.58-.62.69-1.91 0-2.64-.76a8.15 8.15 0 0 1-1.91-3 14.82 14.82 0 0 1-5.38 3.93l-.21-.32a14.87 14.87 0 0 0 5.13-5 33.4 33.4 0 0 1-1-6.92h-8.32l-.19-.67h4.72a22.81 22.81 0 0 0 1-4l2.33.53a.78.78 0 0 1-.81.48 15.35 15.35 0 0 1-1.91 3h3.2c-.07-1.38-.09-2.8-.09-4.32a.9.9 0 0 1-.44.11h-7.29l-.18-.66h2.87V31l2.46.26c-.05.32-.25.52-.78.59v2.26h.87l.95-1.24s.87.73 1.51 1.37v-3.4l2.53.3c0 .3-.25.55-.85.64 0 2.53-.07 5 0 7.2h1.66l1.08-1.42s1.24 1 2 1.72c-.07.25-.28.37-.6.37zm-7.12 8.76v1.22c0 .16-.62.53-1.27.53h-.25V40.5l1.63.73h2.48l.81-.85 1.68 1.31a1.36 1.36 0 0 1-.76.39v6.6a2.06 2.06 0 0 1-1.29.46h-.23v-.71zM437 35c3.26 2.19 1.49 4.67.3 3.34a10.53 10.53 0 0 0-.6-3.24zm1.15 6.88v2.46h2.8V41.9zm2.8 5.84V45h-2.8v2.74zM446.14 33c4 1.93 2.35 4.71.95 3.47a8.78 8.78 0 0 0-1.2-3.36zM464.89 45.33a20.85 20.85 0 0 0 9 4.5v.26a1.88 1.88 0 0 0-1.45 1.47 17.24 17.24 0 0 1-8.19-6.23h-.16v6.18a2 2 0 0 1-1.56.51h-.3v-5.8a23.36 23.36 0 0 1-9.34 5.29l-.2-.34a23.71 23.71 0 0 0 7.95-5.84h-7.34l-.21-.67h9.11V42.4h-6.69l-.19-.64h6.88v-2.11h-7.8l-.2-.67h5.7l-.11-.09a6.13 6.13 0 0 0-1.48-3H453l-.16-.64h7.64v-4.41l2.39.23c-.05.3-.23.5-.74.57v3.59h2.19v-4.39l2.39.23c0 .3-.21.5-.72.6v3.56h.76a22.59 22.59 0 0 0 2.16-3.93l2.44.87a.77.77 0 0 1-.89.35 23.82 23.82 0 0 1-3.06 2.71h3l1.13-1.38s1.31 1 2.11 1.66c-.07.25-.27.36-.6.36h-5.68l1.41.44c-.1.28-.39.44-.9.42a17.77 17.77 0 0 1-2.4 2.27h3.77l1.15-1.38s1.26 1 2.07 1.68a.56.56 0 0 1-.6.37h-7.8v2.11h4.14l1.06-1.31s1.22.92 2 1.61c-.07.23-.26.34-.6.34h-6.58v2.26h6l1.17-1.43s1.31 1 2.16 1.73c-.07.25-.3.37-.62.37zm-9.17-14c4.76 1.38 3.31 4.73 1.7 3.49a6.37 6.37 0 0 0-2-3.31zm3.51 4.5c2.35 1 2.46 2.56 1.82 3.11h3.63a21.92 21.92 0 0 0 1.54-3.11zM482.53 33a4.14 4.14 0 0 1 1.68-.37c1 0 2.81.83 2.81 1.45s-.53.83-.81 1.47-.53 1.31-.92 2.23a14.14 14.14 0 0 1 1.82-.18c1.75 0 2.8 1 2.8 3.79s-.8 6.07-2.25 7.84a3.7 3.7 0 0 1-2.85 1.41c-.81 0-1-.32-1.29-1.13-.14-.39-.32-.64-1.54-1.77l.23-.34a8 8 0 0 0 2.79 1.26 1.91 1.91 0 0 0 1.75-1.08 13.93 13.93 0 0 0 1.65-6.69c0-1.54-.39-2.26-1.61-2.26a9.13 9.13 0 0 0-2 .33c-.65 1.54-1.41 3.28-2.1 4.73a63 63 0 0 1-3.38 6.37c-.39.65-.69.83-1.1.83a.93.93 0 0 1-.81-1 1.61 1.61 0 0 1 .42-1.18 34.41 34.41 0 0 0 3.56-5.71c.53-1.06 1.08-2.3 1.59-3.52-.78.27-1.49.55-2 .73a5.17 5.17 0 0 1-1.87.65c-.62 0-1.54-1-1.72-1.77a3 3 0 0 1 .11-1.41l.42-.06c.3.66.5 1.33 1.15 1.33a40 40 0 0 0 4.41-.88 17.18 17.18 0 0 0 1.13-3.63.64.64 0 0 0-.37-.64 6.4 6.4 0 0 0-1.75-.39zm9 4.58a6.24 6.24 0 0 1 4 1.84 6.12 6.12 0 0 1 1.57 4.32c0 1.06-.37 1.88-1.15 1.88s-.67-.66-1.36-.82a12.24 12.24 0 0 0-2.67 0l-.11-.5c.89-.21 2.16-.46 2.76-.69s.59-.42.57-1a5.12 5.12 0 0 0-.9-2.63 4.49 4.49 0 0 0-3-1.86zm1-3.91a8 8 0 0 1 2.76 1.49 1.82 1.82 0 0 1 .71 1.34.62.62 0 0 1-.62.69c-.37 0-.64-.49-1.08-1a10.46 10.46 0 0 0-2.13-2.19zm2.1-1.52a8.18 8.18 0 0 1 2.73 1.29 1.81 1.81 0 0 1 .85 1.42.58.58 0 0 1-.62.65c-.37 0-.62-.51-1.1-1.06a11.08 11.08 0 0 0-2.14-1.93zM512.62 42c.92 3 3.49 6.12 9.72 8.1v.27A1.89 1.89 0 0 0 520.5 52a13.22 13.22 0 0 1-8.34-10h-.23c-1 4.51-3.61 7.77-10.9 10l-.21-.41c6-2.37 8.3-5.45 9.2-9.59h-8.67l-.19-.67h9a31.79 31.79 0 0 0 .42-4.92h-4.76a12.88 12.88 0 0 1-3.36 4.07l-.32-.2a21.79 21.79 0 0 0 3.36-8.88l2.76.76c-.1.28-.33.48-.85.48a22.2 22.2 0 0 1-1.22 3.08h4.39v-4.78l2.8.28c-.06.34-.27.57-.82.66v3.84h3.93l1.27-1.56s1.47 1.1 2.34 1.89c-.07.25-.3.36-.62.36h-6.94a32.12 32.12 0 0 1-.42 4.92h6.42l1.29-1.61s1.47 1.11 2.34 1.91a.55.55 0 0 1-.6.37zM532.81 40a12.7 12.7 0 0 1 6.69-2.23c3.06 0 5.82 2.14 5.82 5.31 0 3.36-2.37 6.3-8.76 7.73l-.23-.51c5.79-2.21 7-5.17 7-7.75a3.91 3.91 0 0 0-4.14-4 10.71 10.71 0 0 0-6.48 2.7 43.65 43.65 0 0 0 .23 6.32c0 .69.11 1.13.11 1.68 0 .94-.41 2.07-1.1 2.07s-.81-.3-.9-.85a7.36 7.36 0 0 0-.44-1.59 16.87 16.87 0 0 0-1.51-2.6c-.44.65-.86 1.24-1.25 1.79s-.57.83-1 .83-.74-.37-.74-.92a1.75 1.75 0 0 1 .55-1.31 57.28 57.28 0 0 0 4.95-6.39c0-.55.09-1.1.16-1.63-.74.39-1.5.82-2 1.12s-.69.81-1.11.81a2.71 2.71 0 0 1-2-1.75 4.19 4.19 0 0 1-.09-1l.39-.14c.37.64.69 1 1.13 1a17.65 17.65 0 0 0 3.91-1.53c.18-1.52.34-2.76.34-3.42a.71.71 0 0 0-.55-.81 7 7 0 0 0-1.31-.37v-.46a4.62 4.62 0 0 1 1.52-.3c1.08 0 2.32 1.09 2.32 1.82a9.84 9.84 0 0 1-.5 1.61 13.81 13.81 0 0 0-.39 1.56c.42.2.92.69.92 1s-.23.5-.55.85a15.08 15.08 0 0 0-1 1.17zm-1.33 7.59c0-1-.05-2.9 0-4.81-.64 1-1.36 2-2.07 3 .62.75 1.38 1.58 1.68 2s.36.22.39-.22zM571.08 46.38c-1 1.52-2.69 3.11-4.83 3.11-1.68 0-2.8-1-2.8-3.15 0-2.62.94-5.22.94-7.71 0-1.44-.39-2.2-1.52-2.2-2 0-4.58 2-6.76 4.53a45.38 45.38 0 0 0 .18 6.62c.07.69.16 1.2.16 1.75 0 .94-.43 2-1.12 2-.53 0-.78-.3-.88-.85a7 7 0 0 0-.43-1.58 16.57 16.57 0 0 0-1.52-2.69l-1.24 1.81c-.32.46-.58.83-1 .85s-.71-.37-.71-.94a1.72 1.72 0 0 1 .55-1.31 53.18 53.18 0 0 0 4.94-6.39c.05-.58.12-1.15.16-1.71-.73.4-1.47.83-2 1.13s-.71.85-1.13.85a2.78 2.78 0 0 1-2.07-1.73 3.71 3.71 0 0 1-.07-1.1l.39-.12c.37.67.71 1.06 1.15 1.06A15.94 15.94 0 0 0 555.4 37c.18-1.4.32-2.57.34-3.2s-.09-.62-.5-.78a8.89 8.89 0 0 0-1.29-.39v-.46a4.56 4.56 0 0 1 1.51-.3c1.06 0 2.35 1.13 2.35 1.84 0 .49-.28.74-.55 1.61-.12.32-.28.88-.44 1.52.39.28.83.71.83.94s-.23.49-.53.85c-.16.19-.3.37-.46.58 2-1.79 4.55-3.7 6.78-3.7 1.8 0 2.76 1.05 2.76 3.24 0 1.91-1 4.9-1 7.27 0 1.21.48 1.72 1.56 1.72a5.71 5.71 0 0 0 4-1.72zm-16.19-3.65c-.62 1-1.33 2-2 3l1.66 2c.25.23.39.2.39-.19-.03-.97-.09-2.88-.05-4.81zM579.16 33.07c.32.69.71 1.38 1.31 1.38a26.35 26.35 0 0 0 4.73-1c.62-.18.67-.46 1-.46.8 0 2.23 1.11 2.23 1.84 0 .49-.62.56-1.4 1.22-1.27 1-4.26 3.8-5.27 4.85-.18.19-.07.37.14.28a11.48 11.48 0 0 1 3.93-.78c3 0 5.57 2 5.52 5.22 0 2.92-2.67 5.33-7.13 5.33-2.6 0-4.44-1.08-4.44-2.83a2.47 2.47 0 0 1 2.74-2.27 3.83 3.83 0 0 1 3.82 3.26 4.2 4.2 0 0 0 3.26-4c.07-2-1.42-3.88-4.21-3.88-3.26 0-5.54 2.11-7.47 4.62-.41.5-.62.67-1 .64s-.76-.43-.71-1.08c0-.48.27-.85.87-1.45 3.22-3.31 7.56-7.45 8.6-9 .25-.37.09-.51-.21-.44a22.64 22.64 0 0 0-3.47 1.26c-.44.21-.78.55-1.19.55a2.49 2.49 0 0 1-2-1.86 3.28 3.28 0 0 1 0-1.35zm5.63 16.3c-.3-1.7-1.36-2.64-2.64-2.64-.86 0-1.45.46-1.45 1.19s1 1.5 3.1 1.5c.35 0 .67-.02.99-.05z"/><path class="cls-5" d="M236.63 132.37a3.79 3.79 0 1 1 3.79 3.78 3.78 3.78 0 0 1-3.79-3.78z"/><path class="cls-3" d="M255.23 129.09h-4.13v1.85h-1.17v-2.75h5.3v-.71h-4.44v-1H261v1h-4.5v.71h5.39v2.75h-1.2v-1.85h-4.19v3.07h-1.26zm5.13 8.6c.7 0 .84-.24.92-1.54a2.67 2.67 0 0 0 1.11.42c-.17 1.69-.55 2.13-2 2.13h-3.07c-1.72 0-2.2-.32-2.2-1.58v-.27h-2.75v.67h-1.24v-4.94h9.49v4.27h-4.25v.27c0 .49.16.57 1 .57zm-8.89-6.57h3.14v.76h-3.14zm3.13-1.4v.76h-2.85v-.76zm-2.19 3.77v.82h2.75v-.82zm2.75 2.44v-.8h-2.75v.8zm4.23-2.44h-3v.82h3zm0 2.44v-.8h-3v.8zm.62-6.21v.76h-2.88v-.76zm-2.88 1.4h3.23v.76h-3.23zM263.74 128.29H269v1h-5.22zm4.82 9.89h-3.07v.6h-1.12v-4.7h4.19zm-.06-6.93h-4.1v-1h4.1zm-4.1.89h4.1v1h-4.1zm4.09-4.72h-4v-1h4zm-3 7.71v2h1.95v-2zm8-3.94v2.13h2.52v5.41h-1.29v-.62h-3.68v.69h-1.25v-5.48h2.37v-2.13h-3.14V130h3.14v-2c-.84.1-1.68.2-2.48.26a3.94 3.94 0 0 0-.38-1.11 32.28 32.28 0 0 0 6-1l.91 1.07a26.89 26.89 0 0 1-2.69.59V130h3.15v1.23zm1.23 3.31h-3.68v2.43h3.68zM290.34 128.12V131h-1.24v-1.72h-9.16V131h-1.21v-2.83h1.85a9.56 9.56 0 0 0-1.05-1.51l1.14-.48a9.18 9.18 0 0 1 1.27 1.8l-.43.19H284a9.45 9.45 0 0 0-1-1.83l1.13-.39a8 8 0 0 1 1.1 1.9l-.83.32h2.45a14.19 14.19 0 0 0 1.35-2.08l1.38.43c-.43.57-.89 1.16-1.31 1.65zm-5.34 5.31l-.4 1h4.79v4.36h-1.3v-.49h-7v.5h-1.25v-4.37h3.5c.1-.32.18-.69.27-1h-2.72v-3.29h7.33v3.29zm3.09 2.15h-7v1.61h7zm-6-3.13h4.84v-1.34h-4.84zM300.49 135.55a12.78 12.78 0 0 0 4.75 1.9 6.17 6.17 0 0 0-.87 1.16 12.36 12.36 0 0 1-5-2.63v2.82h-1.28v-2.72a13.91 13.91 0 0 1-5 2.52 6.06 6.06 0 0 0-.85-1.11 13.66 13.66 0 0 0 4.72-1.94h-4.33v-1.1h5.43v-.85H294v-1h4.13v-.84h-4.82v-1h2.88a7.63 7.63 0 0 0-.59-1.27l.33-.06h-3.23v-1.09h2.08a9.84 9.84 0 0 0-1-1.89l1.14-.38a10.22 10.22 0 0 1 1.12 2l-.71.27h1.54v-2.4h1.21v2.4h1.39v-2.4h1.23v2.4h1.52l-.54-.17a11.93 11.93 0 0 0 1-2.07l1.34.33c-.38.69-.8 1.39-1.16 1.91h2v1.09h-2.7c-.27.48-.55.94-.78 1.33h3v1h-5v.84h4.3v1h-4.3v.85h5.52v1.1zm-3.6-6.14a5.62 5.62 0 0 1 .6 1.25l-.4.08h3a12.65 12.65 0 0 0 .62-1.33zM315.37 136.44a40.7 40.7 0 0 1 4.14 1.46l-1.15.91a36.57 36.57 0 0 0-4.36-1.61l1-.76h-4.05l1 .66a17.68 17.68 0 0 1-4.34 1.7 8 8 0 0 0-1-.94 16 16 0 0 0 3.89-1.42h-2.42v-6.06h10v6.06zm2.13-6.73h-8.85v-3.28h8.85zm-8.16 2.41h7.35v-.8h-7.35zm0 1.69h7.35V133h-7.35zm0 1.7h7.35v-.83h-7.35zm6.79-8H310v1.21h6.18z"/><path class="cls-5" d="M236.63 156.37a3.79 3.79 0 1 1 3.79 3.78 3.78 3.78 0 0 1-3.79-3.78z"/><path class="cls-3" d="M262.22 158.37h-5.62v2.75c0 .85-.24 1.21-.82 1.41a9.7 9.7 0 0 1-3 .22 5.88 5.88 0 0 0-.55-1.28h2.56c.32 0 .42-.09.42-.39v-2.73h-5.63v-1.25h5.63v-2h-4.68v-1.25h4.68V152c-1.5.12-3 .22-4.44.28a3.63 3.63 0 0 0-.31-1.14 49.15 49.15 0 0 0 9.45-1.15l1 1.07a29.49 29.49 0 0 1-4.3.78v2.06h4.82v1.25h-4.83v2h5.62zM265.33 158.12a12.86 12.86 0 0 1-.85 3.54 4.66 4.66 0 0 0-.9-.43 10.21 10.21 0 0 0 .76-3.28zm10.79-6.82a6.89 6.89 0 0 1-1.65 2.43 8.19 8.19 0 0 0 2.41.91 5.05 5.05 0 0 0-.75 1 8 8 0 0 1-2.52-1.17 10.13 10.13 0 0 1-2.95 1.45 2.71 2.71 0 0 0-.16-.27V160a2.5 2.5 0 0 0 2.26 1.53c1 0 2.9 0 4-.07a4.53 4.53 0 0 0-.34 1.15h-3.74a3.27 3.27 0 0 1-2.74-1.67c-.51.57-1 1.15-1.59 1.79l-.64-1.1a22.78 22.78 0 0 0 1.69-1.63v-3.35h-1c.05.24.09.45.12.65l-.92.35c0-.2-.07-.41-.13-.65l-.74.06v5.74h-1.08v-5.67l-1.82.11-.14-1.12h.87a13.62 13.62 0 0 0 .74-1.15 13.9 13.9 0 0 0-1.61-2l.57-.91c.13.11.26.24.38.36a20 20 0 0 0 1-2.42l1 .4a30.37 30.37 0 0 1-1.41 2.74 8.81 8.81 0 0 1 .6.81 24 24 0 0 0 1.16-2.34l1 .43c-.7 1.29-1.59 2.86-2.4 4l1.46-.07c-.15-.45-.34-.9-.52-1.31l.87-.28a14.08 14.08 0 0 1 .76 1.83v-.72h2.14a2.7 2.7 0 0 0-.3-.49 9.46 9.46 0 0 0 2.72-1.25 8 8 0 0 1-.91-1 8.9 8.9 0 0 1-1.19.88 5.57 5.57 0 0 0-.69-.66l-.42.27a10.69 10.69 0 0 0-1.47-2.41l.95-.53a9.55 9.55 0 0 1 1.48 2.2 6.75 6.75 0 0 0 2.24-2.55l1 .28a5.9 5.9 0 0 1-.45.81h2.06zm-8.26 6.55a11.11 11.11 0 0 1 .63 2.38l-.9.28a14 14 0 0 0-.59-2.41zm5.23 3.29V160h-2.18v-.9h2.18v-.73h-1.73v-.85h1.73v-.67h-1.89V156h1.89v-.69h1.08v.69H276v.88h-1.87v.67H276v.85h-1.78v.73h2.23v.9h-2.23v1.13zm-.57-9.14a5.77 5.77 0 0 0 1 1.09 5.4 5.4 0 0 0 1-1.15h-2zM280.71 153.34a28.82 28.82 0 0 0 .1 3.13c.21 2.18.77 3.64 1.69 3.64.7 0 1.3-1.52 1.61-2.79l1.12 1.3c-.88 2.38-1.74 3.21-2.76 3.21-1.4 0-2.69-1.34-3.07-5a36.7 36.7 0 0 1-.15-3.71 6.59 6.59 0 0 0-.1-1.31h1.7a11.32 11.32 0 0 0-.14 1.53zm9.72 5.77l-1.44.56c-.23-2.38-1-5.36-2.43-7l1.39-.47a14.73 14.73 0 0 1 2.48 6.91zM295.23 160.82l1.82-.6.19 1-3.61 1.27-.49-1.06.94-.28v-1.68c-.34.23-.68.46-1 .65a9.79 9.79 0 0 0-.81-.93 10 10 0 0 0 2.76-2.08h-2.34v-1.09h2.77v-1.14h1.23v1.14h2.73v1.09h-3a10 10 0 0 1-1.23 1.39zm9.23-5a15.55 15.55 0 0 1-2.3 3.94c.4 1.1.91 1.76 1.47 1.76.34 0 .49-.61.57-2.23a3.08 3.08 0 0 0 1.05.69c-.21 2.2-.64 2.8-1.73 2.8s-1.74-.73-2.31-2a13.2 13.2 0 0 1-2.5 2 5 5 0 0 0-.92-1 11.25 11.25 0 0 0 2.93-2.28 25.5 25.5 0 0 1-.77-4.68h-7.51v-1.16h3v-1.29H293v-1.12h2.42V150h1.23v1.28h2.4v1.12h-2.4v1.29h3.18c-.07-1.18-.11-2.43-.11-3.69h1.32c0 1.29 0 2.52.08 3.69h3.91v1.16h-3.83a25.72 25.72 0 0 0 .51 3.42 13.73 13.73 0 0 0 1.51-2.8zm-6 5.16a21.19 21.19 0 0 0-2.66-2.53l.79-.7.9.73a12.82 12.82 0 0 0 1-1.12l1 .59a14.67 14.67 0 0 1-1.19 1.18c.42.38.8.74 1.06 1zm5.38-8a10 10 0 0 0-2.05-2.09l.9-.7a10.25 10.25 0 0 1 2.11 2zM308.17 158.12a12.86 12.86 0 0 1-.85 3.54 4.66 4.66 0 0 0-.9-.43 10.21 10.21 0 0 0 .76-3.28zM319 151.3a6.89 6.89 0 0 1-1.65 2.43 8.19 8.19 0 0 0 2.41.91 5.05 5.05 0 0 0-.75 1 8 8 0 0 1-2.52-1.17 10.13 10.13 0 0 1-2.95 1.45 2.71 2.71 0 0 0-.16-.27V160a2.5 2.5 0 0 0 2.26 1.53c1 0 2.9 0 4-.07a4.53 4.53 0 0 0-.34 1.15h-3.74a3.27 3.27 0 0 1-2.74-1.67c-.51.57-1 1.15-1.59 1.79l-.64-1.1a22.78 22.78 0 0 0 1.67-1.63v-3.35h-1c.05.24.09.45.12.65l-.92.35c0-.2-.07-.41-.13-.65l-.74.06v5.74h-1.08v-5.67l-1.82.11-.14-1.12h.87a13.62 13.62 0 0 0 .74-1.15 13.9 13.9 0 0 0-1.61-2l.57-.91c.13.11.26.24.38.36a20 20 0 0 0 1-2.42l1 .4a30.37 30.37 0 0 1-1.41 2.74 8.81 8.81 0 0 1 .6.81 24 24 0 0 0 1.16-2.34l1 .43a46.22 46.22 0 0 1-2.4 4L310 156c-.15-.45-.34-.9-.52-1.31l.87-.28a14.08 14.08 0 0 1 .76 1.83v-.72h2.14a2.7 2.7 0 0 0-.41-.49 9.46 9.46 0 0 0 2.72-1.25 8 8 0 0 1-.91-1 8.9 8.9 0 0 1-1.19.88 5.57 5.57 0 0 0-.69-.66l-.42.27a10.69 10.69 0 0 0-1.47-2.41l.95-.53a9.24 9.24 0 0 1 1.48 2.2 6.75 6.75 0 0 0 2.24-2.55l1 .28a7.1 7.1 0 0 1-.44.81h2.08zm-8.26 6.55a11.11 11.11 0 0 1 .63 2.38l-.9.28a14 14 0 0 0-.59-2.41zm5.24 3.29V160h-2.19v-.9h2.19v-.73h-1.78v-.85h1.74v-.67H314V156h1.9v-.69h1.1v.69h1.87v.88H317v.67h1.78v.85H317v.73h2.23v.9H317v1.13zm-.58-9.14a5.77 5.77 0 0 0 1 1.09 5.4 5.4 0 0 0 1-1.15h-2zM322.61 157.12h3.23v4.3h-3.23v.93h-1.16V152h1.16a15.77 15.77 0 0 0 .5-2.09l1.43.17c-.24.65-.5 1.35-.77 1.92h2v4h-3.11zm1.95-4h-1.95v1.78h1.95zm-1.95 5.12v2.08h2.07v-2.08zm7.9-6.43v1.52h2.74v6.09c0 .55-.08.9-.43 1.09a3.5 3.5 0 0 1-1.57.2 4.21 4.21 0 0 0-.33-1.12h.95c.14 0 .18 0 .18-.18v-4.92h-1.54v8.28h-1.22v-8.28h-1.41v6.19h-1.2v-7.35h2.61v-1.52h-3.1v-1.19h7.46v1.19z"/><path class="cls-5" d="M236.63 180.37a3.79 3.79 0 1 1 3.79 3.78 3.78 3.78 0 0 1-3.79-3.78z"/><path class="cls-3" d="M257.53 176.22c-.3.48-.59 1-.93 1.44v9.12h-1.41v-7.35a17.41 17.41 0 0 1-4.78 3.78 7.33 7.33 0 0 0-.9-1.16 15.52 15.52 0 0 0 6.31-5.83h-5.91v-1.33h12v1.33zm.11 2.13a33 33 0 0 1 4.72 3.71l-1.09 1a32.4 32.4 0 0 0-4.61-3.88zM276.32 177.13v.6c-.15 5.79-.28 7.78-.73 8.38a1.23 1.23 0 0 1-1 .6 9.53 9.53 0 0 1-1.72 0 3.45 3.45 0 0 0-.37-1.24c.65.06 1.22.06 1.47.06a.54.54 0 0 0 .51-.22c.31-.4.45-2.17.56-7h-1.65c-.19 3.72-.82 6.69-3.23 8.54a4.31 4.31 0 0 0-.94-1 2.14 2.14 0 0 0 .26-.19c-2 .24-4 .45-5.54.59l-.16-1.11 2.92-.24v-1h-2.55v-1h2.55v-.71h-2.5V178h2.5v-.72h-2.88v-1h2.88v-.78c-.85.06-1.71.11-2.49.13a3.63 3.63 0 0 0-.31-.93 45.28 45.28 0 0 0 6-.69l.62 1a29 29 0 0 1-2.64.39v.9h2.83v.81h1.47v-3h1.24v3zm-11.07 2.59h1.44v-.85h-1.44zm1.44 1.66v-.86h-1.44v.86zm1.19 3.47c.87-.08 1.77-.17 2.65-.27 1.15-1.58 1.5-3.69 1.61-6.24h-1.48v-1.05h-2.78v.71h2.61v4.22h-2.61v.71h2.64v1h-2.64zm1.5-5.13v-.85h-1.5v.85zm-1.5.8v.86h1.5v-.86zM290.71 178v1.13h-10.28v1.08c0 1.88-.24 4.72-1.5 6.6a5.58 5.58 0 0 0-1-.83 11 11 0 0 0 1.25-5.77V178h2.62a7.37 7.37 0 0 0-.63-1.63l.5-.12H279v-1.14h4.82v-1.15h1.3v1.15H290v1.14h-2 .18c-.35.6-.7 1.23-1 1.71zm-4.46 7.45h4.39v1.11h-9.86v-1.11H285v-1.54h-3.05v-1H285v-1.29h-2.4a7 7 0 0 1-.95 1.23 8.08 8.08 0 0 0-1-.63 6.79 6.79 0 0 0 1.77-2.81l1.17.26c-.12.31-.24.62-.38.92H285v-1.15h1.27v1.15h3.59v1h-3.59v1.29h3.21v1h-3.21zm-3.81-9.2a6 6 0 0 1 .65 1.61l-.51.14h3.77l-.35-.11a17.5 17.5 0 0 0 .65-1.64zM302.92 176.05l.77.51a3.67 3.67 0 0 0-.26.81 13.62 13.62 0 0 1-2.1 5.14 10.84 10.84 0 0 1-5.56 3.8l-1.2-1.32a9.3 9.3 0 0 0 5.47-3.33 9.79 9.79 0 0 0 1.75-4.3h-8.39v-1.56a12 12 0 0 0 1.52.1h6.79a4.72 4.72 0 0 0 .62 0 17.44 17.44 0 0 0-.93-1.54l.94-.39c.35.5.83 1.33 1.11 1.85zm1.3-2.43c.33.49.85 1.33 1.13 1.84l-1 .43a16.41 16.41 0 0 0-1.13-1.88zM318.16 184v1.8h-1.53v-.78h-7.25v.78h-1.51v-8.68-1.22h10.24v1.2zm-8.74-6.67v6.3h7.27v-6.3zM321.67 179.44c.45 0 1.32.09 2.07.09h7.61c.69 0 1.23-.06 1.57-.09v1.73c-.31 0-.94-.06-1.56-.06h-7.62c-.78 0-1.61 0-2.07.06zM346.65 177.52c0 .24-.07.54-.08.72 0 1.41-.23 5.42-.84 6.79a1.56 1.56 0 0 1-1.63.95c-.75 0-1.58 0-2.28-.09l-.17-1.47a17.69 17.69 0 0 0 2 .16.74.74 0 0 0 .8-.47c.48-1 .66-4.15.66-5.66h-3.59c-.51 3.89-1.9 6-4.31 7.73l-1.21-1.05a7.6 7.6 0 0 0 1.61-1.18 8.69 8.69 0 0 0 2.56-5.5H338c-.52 0-1.18 0-1.71.05v-1.45c.53 0 1.16.08 1.71.08h2.25v-1.33a8.36 8.36 0 0 0-.1-1.22h1.64c0 .32-.05.84-.07 1.18s0 .94-.07 1.37h3a6.78 6.78 0 0 0 1-.08zM350.23 179.44c.45 0 1.32.09 2.07.09h7.61c.69 0 1.23-.06 1.57-.09v1.73c-.31 0-.94-.06-1.56-.06h-7.62c-.78 0-1.61 0-2.07.06z"/><path class="cls-5" d="M236.63 204.37a3.79 3.79 0 1 1 3.79 3.78 3.78 3.78 0 0 1-3.79-3.78z"/><path class="cls-3" d="M254.11 206.62A17.07 17.07 0 0 0 253 205v5.77h-1.27v-5.66a13.51 13.51 0 0 1-1.79 3.26 6.53 6.53 0 0 0-.63-1.2 14.31 14.31 0 0 0 2.26-4.11h-2v-1.23h2.15v-1.9c-.64.14-1.28.24-1.89.32a4 4 0 0 0-.37-1 20.67 20.67 0 0 0 4.37-1.12l.89 1a16.14 16.14 0 0 1-1.73.55v2.17h1.63v1.23H253v.65c.4.35 1.59 1.57 1.84 1.89zm6.89 2.82c.25 0 .31-.21.34-1.7a3.7 3.7 0 0 0 1.12.51c-.1 1.87-.42 2.36-1.32 2.36h-1.08c-1.08 0-1.33-.39-1.33-1.59v-3.64h-1c-.21 2.35-.85 4.34-3.3 5.43a3.84 3.84 0 0 0-.79-1c2.15-.89 2.62-2.52 2.82-4.42h-1.29v-4.65h1.23a10.68 10.68 0 0 0-1.16-2.32l1.08-.46a10 10 0 0 1 1.27 2.36l-.92.42h3.51l-1-.41a12.89 12.89 0 0 0 1.22-2.4l1.33.45c-.47.84-1 1.75-1.43 2.36h1.41v4.65H260V209c0 .4 0 .44.28.44zm-4.61-5.21h4v-2.37h-4zM275.48 200.46a6.78 6.78 0 0 1-1.56 2.24 9.64 9.64 0 0 0 2.83 1.05 4.83 4.83 0 0 0-.81 1.09 9.84 9.84 0 0 1-3-1.34 11.77 11.77 0 0 1-3 1.32 3.71 3.71 0 0 0-.36-.58 21.07 21.07 0 0 1-.77 2.26l-.9-.45a14.45 14.45 0 0 0 .62-2.1h-1.08v5.38c0 .63-.1 1-.52 1.2a4.9 4.9 0 0 1-1.85.21 4.47 4.47 0 0 0-.38-1.23 11.21 11.21 0 0 0 1.29 0c.17 0 .23 0 .23-.21v-3.79a10.08 10.08 0 0 1-1.89 3 6.8 6.8 0 0 0-.66-1.25 9.17 9.17 0 0 0 2.14-3.36h-1.95v-1.14h3.58a17 17 0 0 0-3-1.65l.81-.84c.39.15.84.35 1.26.56a8 8 0 0 0 1.21-1.18H264v-1.1h4.82l.84.52a9.83 9.83 0 0 1-2.18 2.34 11.46 11.46 0 0 1 1.12.74l-.61.66h.87l.2-.07.78.28-.12.56a9.22 9.22 0 0 0 2.14-.88 8.25 8.25 0 0 1-1.25-1.47 9 9 0 0 1-.84.81 7.31 7.31 0 0 0-1.08-.74 8.34 8.34 0 0 0 2.67-3.38l1.21.34a10.59 10.59 0 0 1-.57 1.11h4.41v1.09zm.71 5.25v.52c-.24 2.51-.49 3.59-.88 4a1.51 1.51 0 0 1-.94.42 13.29 13.29 0 0 1-1.56 0 3.5 3.5 0 0 0-.35-1.21 12.81 12.81 0 0 0 1.31.07.53.53 0 0 0 .44-.15c.24-.21.44-.93.62-2.57h-2a5.61 5.61 0 0 1-3.67 4 4 4 0 0 0-.77-1 4.65 4.65 0 0 0 3.11-3h-2v-1.09h2.24c.07-.43.12-.87.17-1.33h1.28c0 .46-.09.9-.16 1.33zm-4.73-5.25a6.38 6.38 0 0 0 1.41 1.54 5.1 5.1 0 0 0 1.18-1.54zM290 199.79v8h-1.34v-.71h-3.56v3.72h-1.34v-3.72h-3.46v.78H279v-8.07h4.75V198h1.34v1.84zm-9.7 1.24v1.75h3.46V201zm3.46 4.81V204h-3.46v1.85zm1.34-4.81v1.75h3.56V201zm3.56 4.81V204h-3.56v1.85zM304.88 203v1.22h-12.23V203h5.74v-1.93h-3.25a12.11 12.11 0 0 1-1.25 1.73c-.28-.18-.86-.53-1.19-.7a10.33 10.33 0 0 0 2.4-4l1.3.3c-.18.51-.39 1-.61 1.52h2.6V198h1.37v1.91h4.15v1.19h-4.15v1.9zm-10.57 2.44h9.05v5.43H302v-.71h-6.37v.74h-1.32zm1.32 1.2v2.31H302v-2.31zM319.23 204.93v.94h-12.41v-.94h5.49v-.67h-4.53v-.84h4.53v-.65h-4.19v-.83h4.19v-.68h-5.48v-.94h5.48v-.67h-4v-.8h4v-.95h1.31v.95h3.94v1.47h1.65v.94h-1.65v1.51h-3.94v.65h4.63v.84h-4.63v.67zm-10.65 1.51h9.05v4.37h-1.32v-.41h-6.45v.43h-1.28zm1.28.84v.7h6.45v-.7zm6.45 2.26v-.75h-6.45v.75zm-2.69-9.22h2.65v-.67h-2.65zm0 1.62h2.65v-.68h-2.65zM325.38 198.39a22.18 22.18 0 0 1-1.38 2.92v9.46h-1.32v-7.4a13.56 13.56 0 0 1-1.15 1.38 7.7 7.7 0 0 0-.73-1.35 15.66 15.66 0 0 0 3.34-5.41zm4.23 3.09v1.78h3.81v1.19h-3.81v1.86h4v1.22h-4v3.25h-1.33v-9.3h-.78a14.74 14.74 0 0 1-1.91 2.82 6.71 6.71 0 0 0-1-.88 14.77 14.77 0 0 0 3-5.33l1.25.34c-.23.6-.47 1.22-.73 1.81h5.63v1.24zM347.09 202.71a16.08 16.08 0 0 1-2.44 4.74c.48 1.19 1 1.92 1.61 1.92.36 0 .53-.72.62-2.52a3.38 3.38 0 0 0 1.12.73c-.21 2.46-.69 3.12-1.84 3.12s-1.83-.79-2.46-2.1a12.89 12.89 0 0 1-2.65 2.14 6.75 6.75 0 0 0-.95-1.06 11.2 11.2 0 0 0 3-2.45 26.23 26.23 0 0 1-1-5.78h-4.49v1.7h3.52v.5c-.07 3-.14 4.25-.44 4.64a1.23 1.23 0 0 1-.89.45 11.74 11.74 0 0 1-1.65 0 3.24 3.24 0 0 0-.35-1.22c.57 0 1.12.07 1.34.07a.47.47 0 0 0 .43-.17c.16-.2.24-1 .28-3.11h-2.24c0 2-.25 4.79-1.48 6.6a5.8 5.8 0 0 0-1.09-.9c1.12-1.68 1.21-4.09 1.21-5.9v-4h5.76c0-.73-.07-1.49-.07-2.23h1.37c0 .76 0 1.5.05 2.23h2.7a15 15 0 0 0-2.2-1.47l.79-.8a15.34 15.34 0 0 1 2.42 1.55l-.67.72h1.42v1.27h-4.39a27.64 27.64 0 0 0 .68 4.43 14.11 14.11 0 0 0 1.6-3.49zM356.93 203.44c-.63.48-1.29.9-2 1.32h5.44v6h-1.35v-.38h-5.28v.44h-1.28v-4.71c-.79.36-1.59.7-2.39 1a7.27 7.27 0 0 0-.79-1.08 24.7 24.7 0 0 0 5.47-2.58h-5.12v-1.16h4.63v-1.57h-3.42v-1.13h3.42v-1.64h1.29v1.64h3.26v.61a14.3 14.3 0 0 0 1.53-1.8l1.12.58a20.1 20.1 0 0 1-3.09 3.31h3.67v1.16zm2.12 2.4h-5.28V207h5.28zm0 3.42V208h-5.28v1.24zm-2.56-7a20 20 0 0 0 1.84-1.57h-2.75v1.57z"/><path class="cls-5" d="M236.63 228.37a3.79 3.79 0 1 1 3.79 3.78 3.78 3.78 0 0 1-3.79-3.78z"/><path class="cls-3" d="M251.21 230.15a13.13 13.13 0 0 1-.94 3.57 5.37 5.37 0 0 0-1-.49 10.57 10.57 0 0 0 .82-3.28zm1.57-1.1v5.76h-1.17v-5.69l-2.11.13-.11-1.15h1c.25-.33.53-.71.8-1.1a13.15 13.15 0 0 0-1.74-2l.63-.86.38.32a17.59 17.59 0 0 0 1.15-2.53l1.15.45c-.49.93-1.08 2-1.59 2.78.25.27.49.54.68.77.5-.82 1-1.68 1.33-2.39l1.07.49c-.78 1.27-1.79 2.8-2.7 4 .56 0 1.15 0 1.75-.09-.18-.39-.38-.78-.57-1.13l.88-.37a10.78 10.78 0 0 1 1.27 2.9l-1 .42a5 5 0 0 0-.22-.75zm1.2.79a16 16 0 0 1 .88 2.53l-1 .34a14.83 14.83 0 0 0-.83-2.56zm7.83-6.89a8.67 8.67 0 0 1-2.38 3.65 9.64 9.64 0 0 0 3.08 1.22 5 5 0 0 0-.78 1.08 10.56 10.56 0 0 1-3.31-1.51 12.51 12.51 0 0 1-3.27 1.57 5.13 5.13 0 0 0-.73-1.1 11 11 0 0 0 3-1.3 8.73 8.73 0 0 1-1.83-2.56l.77-.25h-1.57v-1.13h5.93l.25-.05zm-2.7 10.29h3.23v1.15h-7.91v-1.15h3.39v-2h-2.52v-1.15h2.52v-1.85h1.29v1.85h2.62v1.15h-2.62zm-2.33-9.49a7 7 0 0 0 1.61 2.08 7.43 7.43 0 0 0 1.67-2.08zM268.4 231.94c-1.52.53-3.15 1.08-4.41 1.48l-.31-1.33c.51-.14 1.12-.3 1.79-.51V228H264v-1.21h1.51V224h-1.65v-1.21h4.46V224h-1.56v2.78h1.33V228h-1.33v3.16c.48-.15 1-.3 1.46-.47zm8.28 1.22v1.19h-8.95v-1.19h4.06v-1.67h-3v-1.18h3v-1.44h-2.91v-6.3h7.17v6.3h-2.93v1.44h3.11v1.18h-3.11v1.67zm-6.61-8h1.83v-1.52h-1.83zm0 2.58h1.83v-1.55h-1.83zm4.73-4.1H273v1.52h1.79zm0 2.55H273v1.55h1.79zM281.27 229.57v3.69c0 .67-.14 1-.55 1.19a4.78 4.78 0 0 1-2 .24 4.39 4.39 0 0 0-.38-1.18h1.38c.19 0 .28-.07.28-.28v-3.32l-1.7.48-.35-1.25c.58-.12 1.28-.31 2.05-.5v-2.76h-1.87v-1.21H280v-2.74h1.26v2.74h1.59v1.21h-1.59v2.42l1.5-.4.15 1.19zm9.54 3.49v1.2h-8.46v-1.2zm-.94-1.61h-6.52v-8.56h6.52zm-1.3-7.35h-3.95v2.45h3.95zm0 3.65h-3.95v2.48h3.95zM299.44 226.8H304v8h-1.39v-.59h-9.2v-1.3h9.2v-1.85h-8.44v-1.25h8.44v-1.71h-8.92v-1.3H298v-4.86h1.41zm-4.33-.59a12 12 0 0 0-1.71-3.21l1.18-.48a12.14 12.14 0 0 1 1.78 3.15zm9-3.36a31 31 0 0 1-1.95 3.43l-1.15-.42a20.26 20.26 0 0 0 1.68-3.47zM314.09 227.44c-.63.48-1.29.9-2 1.32h5.44v6h-1.35v-.38h-5.28v.44h-1.28v-4.71c-.79.36-1.59.7-2.39 1a7.27 7.27 0 0 0-.79-1.08 24.7 24.7 0 0 0 5.47-2.58h-5.12v-1.16h4.63v-1.57H308v-1.13h3.42v-1.64h1.29v1.64H316v.61a14.3 14.3 0 0 0 1.53-1.8l1.12.58a20.1 20.1 0 0 1-3.09 3.31h3.67v1.16zm2.12 2.4h-5.28V231h5.28zm0 3.42V232h-5.28v1.24zm-2.56-7a20 20 0 0 0 1.84-1.57h-2.75v1.57z"/><path class="cls-5" d="M236.63 252.37a3.79 3.79 0 1 1 3.79 3.78 3.78 3.78 0 0 1-3.79-3.78z"/><path class="cls-3" d="M260.44 250.92a8.26 8.26 0 0 0 1.18-.07v1.45h-4.78a8.73 8.73 0 0 1-.84 3.7 6.88 6.88 0 0 1-2.77 2.61l-1.3-.95a5.9 5.9 0 0 0 2.59-2.08 6.39 6.39 0 0 0 .84-3.31h-5.33v-1.46a10.63 10.63 0 0 0 1.28.07zM253 248.7c-.48 0-1 0-1.37.05v-1.44a10 10 0 0 0 1.36.09h4.73a11 11 0 0 0 1.4-.09v1.44c-.45 0-.95-.05-1.4-.05zm7.1-.14a17.23 17.23 0 0 0-1.11-1.94l.9-.37a19.41 19.41 0 0 1 1.14 1.92zm1.37-2.9a16.25 16.25 0 0 1 1.17 1.9l-.91.4a13 13 0 0 0-1.15-1.92zM264.55 251.44c.45 0 1.32.09 2.07.09h7.61c.69 0 1.23-.06 1.57-.09v1.73c-.31 0-.94-.06-1.56-.06h-7.62c-.78 0-1.61 0-2.07.06zM289.84 248.73a6.2 6.2 0 0 0-.39.86 14.94 14.94 0 0 1-2 4c.52.34 1 .65 1.34.9l-1 1.29c-.33-.28-.8-.62-1.33-1a13.26 13.26 0 0 1-5.33 3.63l-1.28-1.12a11.94 11.94 0 0 0 5.39-3.32c-1-.68-2.11-1.33-2.87-1.75l.93-1c.78.4 1.86 1 2.88 1.63a11.79 11.79 0 0 0 1.66-3.4h-4.46a15.34 15.34 0 0 1-3.68 3.64l-1.21-.91a12.56 12.56 0 0 0 4.51-4.78 4.91 4.91 0 0 0 .54-1.27l1.59.51c-.26.42-.57 1-.71 1.23l-.17.31h3.41a3.54 3.54 0 0 0 1-.15zM299.6 246.75c0 2.54.32 7.73 5.65 10.88a7.4 7.4 0 0 0-1.05 1.11 11.9 11.9 0 0 1-5.36-7.35 12.4 12.4 0 0 1-5.38 7.38 9.59 9.59 0 0 0-1.2-1c3-1.56 4.7-4.32 5.51-8.11l.72.12a13.1 13.1 0 0 1-.18-1.66H295v-1.32zM318.72 248.91v.64c-.3 5.68-.57 7.75-1.19 8.46a1.7 1.7 0 0 1-1.29.65 18.06 18.06 0 0 1-2.22 0 3.34 3.34 0 0 0-.46-1.35c.92.09 1.77.09 2.12.09a.83.83 0 0 0 .65-.21c.48-.45.77-2.37 1-6.95h-4.39a10.15 10.15 0 0 1-5.14 8.63 5 5 0 0 0-1-1.05 9 9 0 0 0 4.77-7.58h-4.35v-1.33h4.42V246H313v2.94zM328.37 251.44c-.63.48-1.29.9-2 1.32h5.44v6h-1.31v-.38h-5.29v.44h-1.28v-4.71c-.79.36-1.59.7-2.39 1a7.27 7.27 0 0 0-.79-1.08 24.7 24.7 0 0 0 5.47-2.58h-5.12v-1.16h4.63v-1.57h-3.42v-1.13h3.42v-1.64H327v1.64h3.26v.61a14.3 14.3 0 0 0 1.53-1.8l1.12.58a20.1 20.1 0 0 1-3.09 3.31h3.67v1.16zm2.13 2.4h-5.29V255h5.29zm0 3.42V256h-5.29v1.24zm-2.57-7a20 20 0 0 0 1.84-1.57H327v1.57z"/><path class="cls-5" d="M236.63 276.37a3.79 3.79 0 1 1 3.79 3.78 3.78 3.78 0 0 1-3.79-3.78z"/><path class="cls-3" d="M253.9 270.37a26.59 26.59 0 0 1-1.37 2.85v9.55h-1.24v-7.66a16.09 16.09 0 0 1-1.3 1.55 7.44 7.44 0 0 0-.73-1.31 15 15 0 0 0 3.42-5.37zm5.27 7.48a10.33 10.33 0 0 0 3.45 3.36 6.4 6.4 0 0 0-.91 1 12.18 12.18 0 0 1-3.25-3.49v4.05h-1.3v-4a11.36 11.36 0 0 1-3.42 3.39 5.83 5.83 0 0 0-.89-1 10.38 10.38 0 0 0 3.63-3.34h-3.18v-1.17h3.86v-1.53h-2.88v-4.57h7.24v4.57h-3.06v1.53h3.79v1.17zM255.5 274h4.72v-2.26h-4.72zM268.54 271c-.39 1.18-.92 2.67-1.4 3.82a4 4 0 0 1 1.26 2.85 1.83 1.83 0 0 1-.61 1.65 1.44 1.44 0 0 1-.77.28 6.4 6.4 0 0 1-1 0 2.42 2.42 0 0 0-.31-1.15h.79a1.12 1.12 0 0 0 .46-.13 1.16 1.16 0 0 0 .27-.88A3.73 3.73 0 0 0 266 275c.38-1 .77-2.27 1.05-3.25h-1.57v11.1h-1.14v-12.32H267.7zm4.79 8a5.07 5.07 0 0 0 3.45 2.76 3.07 3.07 0 0 0-.76 1.09 6 6 0 0 1-3.54-3c-.53 1.2-1.68 2.28-4 3a3.5 3.5 0 0 0-.71-1c2.42-.76 3.38-1.77 3.74-2.89h-2.72v-3.65h2.93v-1h-2v-.74a14.36 14.36 0 0 1-1.25.72 4.44 4.44 0 0 0-.62-1.06 9.37 9.37 0 0 0 3.83-3.28h1.17a9.93 9.93 0 0 0 4 3.1 6.53 6.53 0 0 0-.67 1.15c-.36-.19-.74-.41-1.12-.65v.76h-2.14v1H276V279zm-1.59-1v-1.58H270V278zm2.83-4.76a10.85 10.85 0 0 1-2.23-2.13 9.94 9.94 0 0 1-2.09 2.13zm-1.64 3.18v1.08a4.1 4.1 0 0 1 0 .5h1.91v-1.58zM285.58 279.14c.93 1.5 2.66 2.21 5.39 2.44a4.31 4.31 0 0 0-.79 1.23c-2.72-.34-4.43-1.18-5.51-2.88-.6 1.17-2.16 2.29-5.9 2.88a5.44 5.44 0 0 0-.75-1.09c3.85-.59 5.14-1.61 5.53-2.58h-5.18V278h5.34v-.92H285v.92h5.56v1.12zm-7.38-3.39l2.48-.27v-1.4h-2v-1h2V272h-2.23v-1h2.23v-1h1.22v1h2.1v1h-2.1v1.11h1.93v1h-1.93v1.25l2.16-.27v.8c1.57-.85 1.94-2.24 2.06-4.21h-1.82v-1.11h6.18v.52c-.14 3.42-.28 4.71-.64 5.15a1.19 1.19 0 0 1-.9.47 11.92 11.92 0 0 1-1.52 0 3 3 0 0 0-.35-1.16 11.53 11.53 0 0 0 1.26.06.53.53 0 0 0 .46-.17c.2-.27.34-1.25.45-3.78h-1.88c-.18 2.46-.7 4.2-2.74 5.26a3.91 3.91 0 0 0-.61-.81c-2 .3-4.16.56-5.68.76zM294.05 278.15a13.13 13.13 0 0 1-.94 3.57 5.37 5.37 0 0 0-1-.49 10.57 10.57 0 0 0 .82-3.28zm2.59-3.74a11.73 11.73 0 0 1 1.34 2.87l-1 .47c-.06-.22-.14-.49-.25-.78l-1 .07v5.77h-1.16v-5.7c-.8 0-1.54.08-2.19.13l-.11-1.15h1c.27-.34.53-.7.81-1.09a13.78 13.78 0 0 0-1.76-2l.63-.87.38.33a17.59 17.59 0 0 0 1.15-2.53l1.17.42c-.5.95-1.09 2.06-1.59 2.81a7.74 7.74 0 0 1 .68.82 26.46 26.46 0 0 0 1.42-2.44l1.1.48a42.14 42.14 0 0 1-2.78 4l1.86-.07a11.83 11.83 0 0 0-.59-1.12zm.35 3.47a14.65 14.65 0 0 1 .91 2.65l-1 .36a14.72 14.72 0 0 0-.85-2.69zm7.9-4.87c-.24 6.17-.42 8.36-1 9.07a1.5 1.5 0 0 1-1.23.65 13.75 13.75 0 0 1-2.16 0 2.94 2.94 0 0 0-.43-1.3c.91.07 1.75.08 2.09.08a.66.66 0 0 0 .6-.24c.45-.44.67-2.52.85-7.66h-4.27a11.12 11.12 0 0 1-1.23 1.88 10.6 10.6 0 0 0-1.15-.79 11.71 11.71 0 0 0 2.42-4.79l1.33.31a17.72 17.72 0 0 1-.77 2.15h5zm-4.3 6.23a13.73 13.73 0 0 0-1.79-3.24l1.05-.52a13.4 13.4 0 0 1 1.89 3.15zM312.73 280.84a9.58 9.58 0 0 0 1.23-.2 4 4 0 0 0 3.36-3.94 3.66 3.66 0 0 0-3.33-3.86 32.27 32.27 0 0 1-.83 3.89c-.84 2.83-2 4.41-3.37 4.41s-2.64-1.55-2.64-3.86a6 6 0 0 1 6.21-5.76 5.15 5.15 0 0 1 5.45 5.24c0 2.9-1.87 4.92-5.26 5.39zm-1-4.4a19.31 19.31 0 0 0 .75-3.57 4.64 4.64 0 0 0-3.95 4.28c0 1.6.72 2.33 1.28 2.33s1.29-.9 1.94-3.04zM329.64 276.19a12.7 12.7 0 0 0 4.19 1.73A4.56 4.56 0 0 0 333 279a9.45 9.45 0 0 1-1.23-.43v4.17h-1.28v-.36h-6.38v.4h-1.25v-4.11a13.56 13.56 0 0 1-1.35.54 5.36 5.36 0 0 0-.81-1 14.32 14.32 0 0 0 4.22-2h-3.77v-1.1h2.52a4.74 4.74 0 0 0-.52-1.06l.69-.14h-.42a3.59 3.59 0 0 0-.27-.9 57.67 57.67 0 0 0 7.44-.56l.7.91c-1 .16-2.16.28-3.43.37v1.38h1.67a9.92 9.92 0 0 0 .68-1.45l1.31.33-.73 1.12h2.6v1.1zm-7-2.61h-1.22V271h5.27v-1H328v1h5.25v2.62h-1.27v-1.52h-9.33zm4.05 5.15h-2.52v.93h2.52zm-2.52 2.68h2.52v-.94h-2.52zm2.52-7.62c-.77 0-1.54.07-2.3.08a3.63 3.63 0 0 1 .6 1.22h1.7zm3.62 4a11.6 11.6 0 0 1-2.24-1.62h-.15v1.49h-1.23v-1.49h-.09a12 12 0 0 1-2.13 1.62zm.24.92h-2.64v.93h2.64zm0 2.68v-.94h-2.64v.94zM343.47 272.75a11.65 11.65 0 0 0 4.6 2.72 5 5 0 0 0-.84 1 12.22 12.22 0 0 1-5.05-3.57v2.61h-1.28v-2.64a12.55 12.55 0 0 1-5 3.67 4.5 4.5 0 0 0-.81-1 11.53 11.53 0 0 0 4.5-2.83h-4.16v-1.13h5.48v-1.68h1.28v1.68h5.58v1.13zm2 8.6h2.31v1.18h-12.43v-1.18h2.34V276h7.83zM339 277v.78h5.24V277zm5.24 1.74H339v.81h5.24zm-5.24 2.61h5.24v-.82H339zM358.21 280.44a40.7 40.7 0 0 1 4.14 1.46l-1.15.91a36.57 36.57 0 0 0-4.41-1.61l1-.76h-4.05l1 .66a17.68 17.68 0 0 1-4.34 1.7 8 8 0 0 0-1-.94 16 16 0 0 0 3.89-1.42h-2.42v-6.06h10v6.06zm2.13-6.73h-8.85v-3.28h8.85zm-8.16 2.41h7.35v-.8h-7.35zm0 1.69h7.35V277h-7.35zm0 1.7h7.35v-.83h-7.35zm6.79-8.05h-6.18v1.21H359z"/><path class="cls-5" d="M447.13 132.37a3.78 3.78 0 1 1 3.78 3.78 3.78 3.78 0 0 1-3.78-3.78z"/><path class="cls-3" d="M471.53 136v1.8H470v-.78h-7.25v.78h-1.51v-8.68-1.22h10.24v1.2zm-8.74-6.67v6.3h7.27v-6.3zM475 131.44c.45 0 1.32.09 2.07.09h7.61c.69 0 1.23-.06 1.57-.09v1.73c-.31 0-.94-.06-1.56-.06h-7.62c-.78 0-1.61 0-2.07.06zM495.28 134.67a13.41 13.41 0 0 0 4.86-5.29l.85 1.53a14.35 14.35 0 0 1-4.92 5.07 15.32 15.32 0 0 1-5.36 2.09l-.94-1.44a14.72 14.72 0 0 0 5.51-1.96zm-.48-4.49l-1.11 1.14a30.4 30.4 0 0 0-3.5-3l1-1.1a28.79 28.79 0 0 1 3.61 2.96zM511.57 132.19a12.7 12.7 0 0 0 4.19 1.73A4.56 4.56 0 0 0 515 135a10.62 10.62 0 0 1-1.23-.43v4.17h-1.28v-.36h-6.38v.4h-1.25v-4.11a14.44 14.44 0 0 1-1.34.54 5.86 5.86 0 0 0-.82-1 14.32 14.32 0 0 0 4.22-2h-3.77v-1.1h2.52a4.74 4.74 0 0 0-.52-1.06l.69-.14h-.42a3.22 3.22 0 0 0-.27-.9 57.67 57.67 0 0 0 7.44-.56l.7.91c-1 .16-2.15.28-3.43.37v1.38h1.67a9.92 9.92 0 0 0 .68-1.45l1.31.33-.73 1.12h2.6v1.1zm-7-2.61h-1.22V127h5.27v-1h1.3v1h5.25v2.62h-1.27v-1.52h-9.33zm4 5.15h-2.52v.93h2.52zm-2.52 2.68h2.52v-.94h-2.52zm2.52-7.62c-.77 0-1.54.07-2.3.08a3.63 3.63 0 0 1 .6 1.22h1.7zm3.63 4a11.6 11.6 0 0 1-2.24-1.62h-.16v1.49h-1.23v-1.49h-.09a12 12 0 0 1-2.12 1.62zm.23.92h-2.64v.93h2.64zm0 2.68v-.94h-2.64v.94zM525.4 128.75a11.65 11.65 0 0 0 4.6 2.72 5 5 0 0 0-.84 1.05 12.19 12.19 0 0 1-5-3.57v2.61h-1.29v-2.64a12.59 12.59 0 0 1-5 3.67 4.85 4.85 0 0 0-.82-1 11.53 11.53 0 0 0 4.5-2.83h-4.16v-1.13h5.48v-1.68h1.29v1.68h5.57v1.13zm2.05 8.6h2.31v1.18h-12.48v-1.18h2.34V132h7.83zm-6.57-4.35v.78h5.24V133zm5.24 1.74h-5.24v.81h5.24zm-5.24 2.57h5.24v-.82h-5.24zM540.15 136.44a41.34 41.34 0 0 1 4.13 1.46l-1.15.91a36.57 36.57 0 0 0-4.41-1.61l1-.76h-4l1 .66a17.68 17.68 0 0 1-4.34 1.7 8 8 0 0 0-1-.94 16 16 0 0 0 3.89-1.42h-2.42v-6.06h10v6.06zm2.13-6.73h-8.86v-3.28h8.86zm-8.17 2.41h7.35v-.8h-7.35zm0 1.69h7.35V133h-7.35zm0 1.7h7.35v-.83h-7.35zm6.79-8h-6.17v1.21h6.17z"/><path class="cls-5" d="M447.13 156.37a3.78 3.78 0 1 1 3.78 3.78 3.78 3.78 0 0 1-3.78-3.78z"/><path class="cls-3" d="M472.75 158a20.51 20.51 0 0 1-2 1.51 5.38 5.38 0 0 0 2.34 2.29 4.07 4.07 0 0 0-.84 1.08c-2.06-1.13-3.15-3.38-3.74-6.25h-1.05v4.3l2.28-.52.13 1.2c-1.51.38-3.12.79-4.4 1.08l-.31-1.13-4.75.92-.29-1.19c.64-.1 1.44-.22 2.32-.38v-4h-2.12v-1.12h2.12v-1.29h-1.47v-.54l-.4.37a4.12 4.12 0 0 0-.81-.85 9.65 9.65 0 0 0 2.64-3.5h1.11a16.28 16.28 0 0 1 2.52 2.55l-.8.92v1.05h-1.65v1.29h2v1.12h-2v3.8l2.07-.38.07 1 .51-.1v-10.75h6v6.1h-2.53a10.51 10.51 0 0 0 .59 1.9 14.32 14.32 0 0 0 1.61-1.4zm-11.37-.39A10.92 10.92 0 0 1 462 160l-.92.27a11.83 11.83 0 0 0-.52-2.51zm3.7-4.19a16.64 16.64 0 0 0-2-2.23 13.28 13.28 0 0 1-1.64 2.23zm-1.22 6.5a22.27 22.27 0 0 0 .61-2.47l1 .28c-.27.83-.56 1.81-.8 2.43zm3.57-8.22v1.3h3.5v-1.31zm0 3.78h3.5v-1.36h-3.5zM479.15 153.38a19.77 19.77 0 0 1-1.53 2.15v7.3h-1.3V157c-.47.46-.94.9-1.39 1.26a7.55 7.55 0 0 0-.9-1.11 14.87 14.87 0 0 0 3.88-4.2zm-.54-2.94a18.53 18.53 0 0 1-3.69 3.55 5.91 5.91 0 0 0-.75-1.05 12.71 12.71 0 0 0 3.2-3zm8.41 5.38h-2v5.39c0 .75-.17 1.12-.7 1.33a8.63 8.63 0 0 1-2.65.21 4.8 4.8 0 0 0-.42-1.3h2.09c.25 0 .35-.07.35-.27v-5.38h-4.43v-1.25H487zm-.39-3.82h-6.8v-1.25h6.8zM488.44 161.82a5.45 5.45 0 0 0 2-2.89l1.12.41a6.31 6.31 0 0 1-2.12 3.26zm1.78-8.38H489V151h5.34v-1.09h1.33V151H501v2.33h-1c-.14 1.09-.49 1.38-1.34 1.38h-1.56c-1.26 0-1.57-.31-1.57-1.36v-1.25h-1.38c-.4 1.73-1.39 2.77-4.36 3.33a3.28 3.28 0 0 0-.66-1c2.52-.39 3.32-1.13 3.66-2.33h-2.55zm9.3 5.1a12.35 12.35 0 0 0-.92-1c-3.1.17-6.38.28-8.58.37l-.18-1.14c.67 0 1.44 0 2.3-.08a16.85 16.85 0 0 0 1.47-2.4l1.33.35c-.42.69-.93 1.39-1.39 2l3.88-.16c-.36-.29-.73-.57-1.06-.82l1-.58a19.86 19.86 0 0 1 3.24 2.82zm-3.12 3.05c.53 0 .64-.18.68-1.43a3.06 3.06 0 0 0 1.14.45c-.16 1.67-.51 2.08-1.7 2.08h-2.37c-1.51 0-1.89-.34-1.89-1.5v-2h1.28v2c0 .37.11.42.77.42zm-2.2-3.79a10.92 10.92 0 0 1 2.43 1.82l-1 .73a12.22 12.22 0 0 0-2.38-1.9zm5.5-5.7h-2.9v1.28c0 .3.07.34.48.34h1.2c.33 0 .38-.13.42-1a3.5 3.5 0 0 0 .8.33zm-.71 6.76a13.19 13.19 0 0 1 2.42 3.1l-1.18.63a13.16 13.16 0 0 0-2.32-3.18zM514.56 151.34v11.09h-1.42v-1.1h-7.84v1.16H504v-11.15zm-1.42 8.66v-7.34h-7.84V160zM521.13 150.37A20.79 20.79 0 0 1 520 153v9.77h-1.26v-7.64a15.53 15.53 0 0 1-1.26 1.61 9 9 0 0 0-.7-1.33 15.59 15.59 0 0 0 3.18-5.43zm2.48 8.91a12.92 12.92 0 0 1-2.09 3 6 6 0 0 0-1-.66 10 10 0 0 0 1.88-2.66zm5.45-.46a7.08 7.08 0 0 0-.46-.91l-2.75.12v4.75h-1.3v-4.69l-3.73.15-.19-1.24 2.49-.06c.24-.21.48-.43.72-.67a15.89 15.89 0 0 0-2.72-2.06l.75-.84c.27.15.56.34.86.52.39-.49.81-1.11 1.18-1.67q-1.27.14-2.46.21a3.92 3.92 0 0 0-.35-1 44.07 44.07 0 0 0 7.29-1.14l.88 1a32.22 32.22 0 0 1-3.8.73h.09c-.65.81-1.37 1.73-2 2.41a10 10 0 0 1 1.12.91 25.44 25.44 0 0 0 2.25-2.73l1.21.54a42.58 42.58 0 0 1-3.43 3.7l3.19-.1c-.29-.43-.62-.85-.92-1.23l1-.46a13.35 13.35 0 0 1 2.15 3.19zm-1.15.06a14 14 0 0 1 2 2.71l-1.12.59a12.32 12.32 0 0 0-1.89-2.8z"/><path class="cls-5" d="M447.13 180.37a3.78 3.78 0 1 1 3.78 3.78 3.78 3.78 0 0 1-3.78-3.78z"/><path class="cls-3" d="M471.77 176.73a7.65 7.65 0 0 0-.39.86 14.94 14.94 0 0 1-2 4c.52.34 1 .65 1.35.9l-1 1.29a15 15 0 0 0-1.33-1 13.26 13.26 0 0 1-5.33 3.63l-1.28-1.12a12 12 0 0 0 5.4-3.32c-1-.68-2.12-1.33-2.88-1.75l.93-1c.78.4 1.86 1 2.88 1.63a11.79 11.79 0 0 0 1.66-3.4h-4.46a15.34 15.34 0 0 1-3.68 3.64l-1.21-.91a12.68 12.68 0 0 0 4.49-4.77 5.27 5.27 0 0 0 .53-1.27l1.6.51c-.27.42-.58 1-.72 1.23l-.17.31h3.41a3.54 3.54 0 0 0 1.05-.15zM486.05 177a4.76 4.76 0 0 0-.39.85 13.9 13.9 0 0 1-2.47 4.77 12.7 12.7 0 0 1-5.6 3.88l-1.3-1.17a11.29 11.29 0 0 0 5.62-3.5 10.51 10.51 0 0 0 2.12-4.13h-4.37a14.52 14.52 0 0 1-3.55 3.42l-1.24-.91a11.93 11.93 0 0 0 4.4-4.64 5.9 5.9 0 0 0 .52-1.26l1.63.53a13.76 13.76 0 0 0-.73 1.25c-.06.11-.13.24-.2.35h3.36a3.22 3.22 0 0 0 1-.14zM493.22 179.88l-.82 1.24a35.51 35.51 0 0 0-3.12-2l.8-1.2c.92.51 2.48 1.5 3.14 1.96zm1.41 3.29A14.45 14.45 0 0 0 500 178l.84 1.49a16.51 16.51 0 0 1-5.47 5 16.26 16.26 0 0 1-4.65 1.74l-.82-1.44a15.57 15.57 0 0 0 4.73-1.62zm.69-6.39l-.83 1.21c-.71-.52-2.21-1.52-3.08-2l.8-1.2c.87.48 2.45 1.52 3.11 1.99zM503.6 179.44c.45 0 1.32.09 2.07.09h7.61c.69 0 1.23-.06 1.57-.09v1.73c-.31 0-.94-.06-1.56-.06h-7.62c-.78 0-1.61 0-2.07.06zM520.11 183.86a3.74 3.74 0 0 0 3.26 1.47c1.59.07 4.84 0 6.61-.1a5.74 5.74 0 0 0-.42 1.27c-1.61.07-4.58.1-6.2 0a4.67 4.67 0 0 1-3.8-1.61c-.59.58-1.2 1.14-1.89 1.74l-.64-1.29a19.57 19.57 0 0 0 1.83-1.43v-3.37h-1.68v-1.21h2.93zm-.67-6.5a10.07 10.07 0 0 0-2.16-2.34l1-.73a10.19 10.19 0 0 1 2.22 2.24zm5.1 6.47h-3.83v-1h3.83v-.69h-2.93v-4h2.93v-.7h-3.31v-.93h3.31v-.87h1.27v.87h3.36v.93h-3.36v.7h3v4h-3v.69h4v1h-4V185h-1.27zm-2.48-7.58h-1.15v-1.85h8.64v1.85h-1.2v-.88h-6.29zm.67 3.5h1.81V179h-1.81zm1.81 1.57v-.78h-1.81v.78zm1.27-2.33v.76h1.86V179zm1.86 1.55h-1.86v.78h1.86zM535.19 184.47v2.31H534v-2.31h-2.61v-1.16H534v-1h-2.1v-4.91h2.1v-.94h-2.4v-1.14h2.4v-1.41h1.23v1.41h2.34v1.14h-2.37v.94h2.16v4.91h-2.17v1h2.49v1.16zm-2.29-5h1.18v-1.07h-1.18zm0 2h1.18v-1.06h-1.18zm3.39-3h-1.23v1.07h1.23zm0 2h-1.23v1.06h1.23zm6.83 6.44c0-.25-.12-.55-.19-.84l-5.42.47-.22-1.27 1.15-.07a41.49 41.49 0 0 0 1-4.9h-1.81v-1.24h6.54v1.24h-3.32c-.31 1.61-.74 3.44-1.15 4.8l2.86-.19a21.28 21.28 0 0 0-1-2.41l1.09-.47a17.32 17.32 0 0 1 1.68 4.4zm.56-10.55h-5.47V175h5.47zM558.39 182.37h-5.62v2.75c0 .85-.23 1.21-.82 1.41a9.7 9.7 0 0 1-3 .22 5.88 5.88 0 0 0-.55-1.28h2.56c.32 0 .42-.09.42-.39v-2.73h-5.63v-1.25h5.63v-2h-4.67v-1.25h4.67V176c-1.49.12-3 .22-4.44.28a3.91 3.91 0 0 0-.3-1.14 49.14 49.14 0 0 0 9.44-1.15l1 1.07a29.49 29.49 0 0 1-4.3.78v2.06h4.82v1.25h-4.82v2h5.62z"/><path class="cls-5" d="M447.13 204.37a3.78 3.78 0 1 1 3.78 3.78 3.78 3.78 0 0 1-3.78-3.78z"/><path class="cls-3" d="M462.64 204.17a11.14 11.14 0 0 0-2.7-1.39l.67-1a11.85 11.85 0 0 1 2.74 1.28zm1.2 2a44 44 0 0 1-2.34 4.43l-1.12-.83a37 37 0 0 0 2.48-4.44zm-.47-5.67a11.22 11.22 0 0 0-2.66-1.53l.71-1a10.38 10.38 0 0 1 2.7 1.43zm8.36 10.31a11 11 0 0 0-.53-1.15c-2.62.21-5.37.39-7.27.53l-.18-1.31 1.12-.06a27.56 27.56 0 0 0 1.51-3.93h-2.65v-1.24h3.76v-2.32h-3.06v-1.23h3.06v-2.16h1.34v2.16H472v1.23h-3.19v2.32h3.85v1.24h-4.75c-.47 1.27-1.09 2.71-1.66 3.86l4.24-.24a19.66 19.66 0 0 0-1.3-1.82l1.12-.59a16.94 16.94 0 0 1 2.62 4zM483.1 204.58v.95h3.25v1.08h-3.25v1h3.9v1.12h-3.9v2.06h-1.26v-2.06h-3.65v-1.13h3.65v-1h-3.06v-1.08h3.06v-.95H479v-1.07h2.88v-1h-3.42v-.87a15 15 0 0 1-1.05 1.54v7.59h-1.22v-6.13a16 16 0 0 1-1.4 1.36 10.57 10.57 0 0 0-.65-1.31 13.29 13.29 0 0 0 3.3-3.68l1 .42h3.42v-1H479v-1.06h2.82V198h1.26v1.42h3.06v2h1v1.11h-1v2.06zm-4.72-6.11a13.81 13.81 0 0 1-3.44 3.38 8.36 8.36 0 0 0-.65-1.08 9.7 9.7 0 0 0 2.84-2.79zm4.72 2.94h1.83v-1h-1.83zm0 2.1h1.83v-1h-1.83zM501.31 206.88h-1.45v2.45h-1.32v-.61h-3v.73c0 .72-.19 1-.66 1.19a8.13 8.13 0 0 1-2.38.19 4.07 4.07 0 0 0-.45-1.06h1.83c.22 0 .34-.09.34-.32v-.75h-4.37v-1h4.37v-.86h-5.6v-1h5.6v-.8H490v-.92h4.25v-.83h-3.88v-2.57h3.88V200h-5.31v-1h5.31v-1h1.32v1H501v1h-5.46v.72h4.07v2.57h-4.07v.83h4.3v1.72h1.45zm-7.07-4.45v-.84h-2.64v.84zm1.32-.84v.84h2.75v-.84zm0 4.26h3v-.8h-3zm3 1h-3v.86h3zM514.53 200.46a6.78 6.78 0 0 1-1.53 2.24 9.75 9.75 0 0 0 2.83 1.05 5.15 5.15 0 0 0-.81 1.09 10 10 0 0 1-3-1.34 11.61 11.61 0 0 1-3 1.32 3.71 3.71 0 0 0-.36-.58 19.07 19.07 0 0 1-.77 2.26l-.9-.45a14.45 14.45 0 0 0 .62-2.1h-1.11v5.38c0 .63-.1 1-.52 1.2a4.87 4.87 0 0 1-1.85.21 4.81 4.81 0 0 0-.37-1.23 11 11 0 0 0 1.28 0c.17 0 .23 0 .23-.21v-3.79a10.08 10.08 0 0 1-1.89 3 6.8 6.8 0 0 0-.66-1.25 9.17 9.17 0 0 0 2.14-3.36h-1.94v-1.14h3.57a17 17 0 0 0-3-1.65l.81-.84c.39.15.84.35 1.26.56a8 8 0 0 0 1.21-1.18h-3.69v-1.1h4.82l.84.52a9.83 9.83 0 0 1-2.18 2.34 10.36 10.36 0 0 1 1.12.74l-.6.66h.86l.2-.07.78.28-.12.56a9.22 9.22 0 0 0 2.14-.88 9.18 9.18 0 0 1-1.25-1.47 7.92 7.92 0 0 1-.84.81 7.77 7.77 0 0 0-1.07-.74 8.41 8.41 0 0 0 2.66-3.38l1.22.34c-.17.38-.37.74-.58 1.11h4.41v1.09zm.71 5.25v.52c-.24 2.51-.49 3.59-.88 4a1.51 1.51 0 0 1-.94.42 13.29 13.29 0 0 1-1.56 0 3.11 3.11 0 0 0-.35-1.21 12.81 12.81 0 0 0 1.31.07.56.56 0 0 0 .45-.15c.23-.21.43-.93.61-2.57h-2a5.61 5.61 0 0 1-3.67 4 3.61 3.61 0 0 0-.77-1 4.62 4.62 0 0 0 3.11-3h-2v-1.09h2.24c.07-.43.13-.87.17-1.33h1.29c-.05.46-.1.9-.17 1.33zm-4.73-5.25a6.38 6.38 0 0 0 1.41 1.54 5.1 5.1 0 0 0 1.18-1.54zM519.09 205.63a10.55 10.55 0 0 1-1.24 5.18 6.05 6.05 0 0 0-1-.8c.93-1.48 1-3.63 1-5.22v-3.66h5.25v4.5zm4.35-5.77h-6.05v-1.19h6.05zm-4.34 2.45v2.14h2.75v-2.14zm10.9 1.58h-1.4v6.91h-1.31v-6.91h-2c-.09 2.16-.55 4.93-2.43 6.88a3 3 0 0 0-1-.88c1.93-2 2.13-4.77 2.13-6.88v-3.77l1 .24a16.63 16.63 0 0 0 3.68-1.39l1.15 1a24 24 0 0 1-4.55 1.53v2H530zM537.5 208.84a9.29 9.29 0 0 0 1.23-.2 4 4 0 0 0 3.36-3.94 3.66 3.66 0 0 0-3.33-3.86 32.27 32.27 0 0 1-.83 3.89c-.84 2.83-2 4.41-3.37 4.41s-2.64-1.55-2.64-3.86a6 6 0 0 1 6.21-5.76 5.15 5.15 0 0 1 5.45 5.24c0 2.9-1.87 4.92-5.25 5.39zm-1-4.4a19.31 19.31 0 0 0 .75-3.57 4.64 4.64 0 0 0-3.95 4.28c0 1.6.72 2.33 1.28 2.33s1.29-.9 1.94-3.04zM558.43 206.88H557v2.45h-1.32v-.61h-3v.73c0 .72-.19 1-.66 1.19a8.13 8.13 0 0 1-2.38.19 4.07 4.07 0 0 0-.45-1.06h1.83c.22 0 .34-.09.34-.32v-.75H547v-1h4.37v-.86h-5.6v-1h5.6v-.8h-4.25v-.92h4.25v-.83h-3.88v-2.57h3.88V200h-5.31v-1h5.31v-1h1.32v1h5.46v1h-5.46v.72h4.07v2.57h-4.07v.83H557v1.72h1.45zm-7.07-4.45v-.84h-2.63v.84zm1.32-.84v.84h2.76v-.84zm0 4.26h3v-.8h-3zm3 1h-3v.86h3zM571.65 200.46a6.78 6.78 0 0 1-1.56 2.24 9.75 9.75 0 0 0 2.83 1.05 5.15 5.15 0 0 0-.81 1.09 10 10 0 0 1-3-1.34 11.61 11.61 0 0 1-3 1.32 3.71 3.71 0 0 0-.36-.58 19.07 19.07 0 0 1-.77 2.26l-.9-.45a14.45 14.45 0 0 0 .62-2.1h-1.08v5.38c0 .63-.1 1-.52 1.2a4.87 4.87 0 0 1-1.85.21 4.81 4.81 0 0 0-.37-1.23 11 11 0 0 0 1.28 0c.17 0 .23 0 .23-.21v-3.79a10.08 10.08 0 0 1-1.89 3 6.8 6.8 0 0 0-.66-1.25A9.17 9.17 0 0 0 562 204h-2v-1.14h3.57a17 17 0 0 0-3-1.65l.81-.84c.39.15.84.35 1.26.56a8 8 0 0 0 1.21-1.18h-3.65v-1.1h4.82l.84.52a9.83 9.83 0 0 1-2.18 2.34 10.36 10.36 0 0 1 1.12.74l-.6.66h.86l.2-.07.78.28-.12.56a9.22 9.22 0 0 0 2.14-.88 9.18 9.18 0 0 1-1.25-1.47 7.92 7.92 0 0 1-.84.81 7.77 7.77 0 0 0-1.07-.74 8.41 8.41 0 0 0 2.66-3.38l1.22.34c-.17.38-.37.74-.58 1.11h4.41v1.09zm.71 5.25v.52c-.24 2.51-.49 3.59-.88 4a1.51 1.51 0 0 1-.94.42 13.29 13.29 0 0 1-1.56 0 3.11 3.11 0 0 0-.35-1.21 12.81 12.81 0 0 0 1.31.07.56.56 0 0 0 .45-.15c.23-.21.43-.93.61-2.57h-2a5.61 5.61 0 0 1-3.67 4 3.61 3.61 0 0 0-.77-1 4.62 4.62 0 0 0 3.11-3h-2v-1.09h2.24c.07-.43.13-.87.17-1.33h1.29c-.05.46-.1.9-.17 1.33zm-4.73-5.25A6.38 6.38 0 0 0 569 202a5.1 5.1 0 0 0 1.18-1.54zM583 208.44a41.34 41.34 0 0 1 4.13 1.46l-1.15.91a36.57 36.57 0 0 0-4.41-1.61l1-.76h-4.05l1 .66a17.68 17.68 0 0 1-4.34 1.7 8 8 0 0 0-1-.94 16 16 0 0 0 3.89-1.42h-2.42v-6.06h10v6.06zm2.13-6.73h-8.86v-3.28h8.86zm-8.13 2.41h7.35v-.8H577zm0 1.69h7.35V205H577zm0 1.7h7.35v-.83H577zm6.79-8h-6.17v1.21h6.17zM591.62 210.54a26.24 26.24 0 0 0-3-3.09l1.15-1a25.85 25.85 0 0 1 3.09 3.1zM607.09 206.23c-.18-.34-.54-.92-.91-1.46v6h-1.25v-5.73a14.51 14.51 0 0 1-1.66 3.35 7.37 7.37 0 0 0-.63-1.22 15.23 15.23 0 0 0 2-4.12h-1.85v-1.21h2.1v-1.92c-.6.12-1.21.22-1.79.29a3.8 3.8 0 0 0-.38-1 19.63 19.63 0 0 0 4.21-1.07l.91 1a14.89 14.89 0 0 1-1.7.53v2.19h1.61v1.21h-1.61v.41c.39.37 1.43 1.51 1.68 1.82zm5.91 3.26c.46 0 .54-.36.59-2.07a3.26 3.26 0 0 0 1.15.53c-.14 2.08-.46 2.74-1.63 2.74h-1.73c-1.26 0-1.61-.41-1.63-1.81a14.48 14.48 0 0 1-2 1.55 3.82 3.82 0 0 0-.92-.92 14.32 14.32 0 0 0 3-2.43v-6.24H611v4.69a18.56 18.56 0 0 0 2.85-6.85l1.2.27a27.07 27.07 0 0 1-1.17 3.85l.6-.17a13.34 13.34 0 0 1 1.31 4.09l-1.19.34a13.6 13.6 0 0 0-1-3.63 16.61 16.61 0 0 1-2.61 4.16v1.23c0 .58.09.67.55.67zm-5.77-2.5a9.87 9.87 0 0 0 1-4.19l1 .19a11.31 11.31 0 0 1-1.06 4.47zm4.88-6a11.51 11.51 0 0 0-2.73-2.13l.82-.83a11 11 0 0 1 2.77 2zM629.68 204.93v.94h-12.41v-.94h5.49v-.67h-4.53v-.84h4.53v-.65h-4.19v-.83h4.19v-.68h-5.48v-.94h5.48v-.67h-4v-.8h4v-.95h1.32v.95H628v1.47h1.65v.94H628v1.51h-3.93v.65h4.62v.84h-4.62v.67zM619 206.44h9.05v4.37h-1.32v-.41h-6.45v.43H619zm1.28.84v.7h6.45v-.7zm6.45 2.26v-.75h-6.45v.75zm-2.68-9.22h2.64v-.67h-2.64zm0 1.62h2.64v-.68h-2.64z"/><path class="cls-5" d="M447.13 228.37a3.78 3.78 0 1 1 3.78 3.78 3.78 3.78 0 0 1-3.78-3.78z"/><path class="cls-3" d="M462.33 233.2a1.53 1.53 0 0 0 .15-.78v-7.83a8.37 8.37 0 0 0-.12-1.42h1.74a9.1 9.1 0 0 0-.13 1.4v7.66a15.56 15.56 0 0 0 7.47-4.7l.79 1.23a16.82 16.82 0 0 1-8.16 5 2.21 2.21 0 0 0-.7.29zM478.75 228l-.81 1.25a34.47 34.47 0 0 0-3.11-2l.8-1.21c.87.48 2.47 1.46 3.12 1.96zm1.42 3.29a14.25 14.25 0 0 0 5.36-5.19l.86 1.48a16.19 16.19 0 0 1-10.13 6.75l-.83-1.44a15.27 15.27 0 0 0 4.74-1.64zm.7-6.38l-.84 1.2c-.72-.52-2.22-1.5-3.07-2l.8-1.2c.87.44 2.44 1.48 3.11 1.96zm4.2.4l-1 .44a13.41 13.41 0 0 0-1.26-2.2l.95-.41a23.89 23.89 0 0 1 1.31 2.13zm1.92-.71l-1 .43a13.52 13.52 0 0 0-1.32-2.16l1-.4a20.46 20.46 0 0 1 1.33 2.09zM492.57 222.37a20.79 20.79 0 0 1-1.16 2.66v9.77h-1.26v-7.64a15.53 15.53 0 0 1-1.26 1.61 9 9 0 0 0-.7-1.33 15.59 15.59 0 0 0 3.18-5.43zm2.48 8.91a12.92 12.92 0 0 1-2.09 3 6 6 0 0 0-1-.66 10 10 0 0 0 1.88-2.66zm5.45-.46a7.08 7.08 0 0 0-.46-.91l-2.75.12v4.75H496v-4.69l-3.73.15-.19-1.24 2.49-.06c.24-.21.48-.43.72-.67a15.89 15.89 0 0 0-2.72-2.06l.75-.84c.27.15.56.34.86.52.39-.49.81-1.11 1.18-1.67q-1.28.14-2.46.21a3.92 3.92 0 0 0-.35-1 44.07 44.07 0 0 0 7.29-1.14l.88 1a32.63 32.63 0 0 1-3.8.73h.09c-.65.81-1.37 1.73-2 2.41a10 10 0 0 1 1.12.91 25.44 25.44 0 0 0 2.25-2.73l1.21.54a41.07 41.07 0 0 1-3.43 3.7l3.19-.1c-.29-.43-.62-.85-.92-1.23l1.05-.46a13.35 13.35 0 0 1 2.15 3.19zm-1.15.06a14 14 0 0 1 2 2.71l-1.12.59a12.32 12.32 0 0 0-1.89-2.8z"/><path class="cls-5" d="M447.13 252.37a3.78 3.78 0 1 1 3.78 3.78 3.78 3.78 0 0 1-3.78-3.78z"/><path class="cls-3" d="M471.77 249a4.76 4.76 0 0 0-.39.85 13.9 13.9 0 0 1-2.47 4.77 12.7 12.7 0 0 1-5.6 3.88l-1.3-1.17a11.29 11.29 0 0 0 5.62-3.5 10.51 10.51 0 0 0 2.12-4.13h-4.37a14.52 14.52 0 0 1-3.55 3.42l-1.24-.91a11.93 11.93 0 0 0 4.4-4.64 5.9 5.9 0 0 0 .52-1.26l1.63.53a13.76 13.76 0 0 0-.73 1.25c-.06.11-.13.24-.2.35h3.36a3.22 3.22 0 0 0 1.05-.14zM476.61 257.2a1.53 1.53 0 0 0 .15-.78v-7.83a8.37 8.37 0 0 0-.12-1.42h1.74a9.1 9.1 0 0 0-.13 1.4v7.66a15.56 15.56 0 0 0 7.47-4.7l.79 1.23a16.82 16.82 0 0 1-8.16 5 2.21 2.21 0 0 0-.7.29zM493 252l-.81 1.25a34.47 34.47 0 0 0-3.11-2l.8-1.21c.9.48 2.5 1.46 3.12 1.96zm1.42 3.29a14.25 14.25 0 0 0 5.36-5.19l.86 1.48a16.19 16.19 0 0 1-10.13 6.75l-.83-1.44a15.27 15.27 0 0 0 4.77-1.64zm.7-6.38l-.84 1.2c-.72-.52-2.21-1.5-3.07-2l.8-1.2c.9.44 2.47 1.48 3.14 1.96zm4.2.4l-1 .44a13.41 13.41 0 0 0-1.26-2.2l.95-.41a23.89 23.89 0 0 1 1.34 2.13zm1.92-.71l-1 .43a13.52 13.52 0 0 0-1.32-2.16l1-.4a20.46 20.46 0 0 1 1.35 2.09zM507.16 253.42l-1.33.49a29.2 29.2 0 0 0-1.28-3.2l1.32-.47c.32.64 1.02 2.42 1.29 3.18zm7.09-3a7.78 7.78 0 0 0-.27.84 11.26 11.26 0 0 1-2 4.21 10.89 10.89 0 0 1-4.61 3.39l-1.16-1.19a9.56 9.56 0 0 0 4.59-3 9.77 9.77 0 0 0 1.87-4.79zm-4 2.14l-1.32.48a26.85 26.85 0 0 0-1.12-3.09l1.31-.43c.27.58.95 2.41 1.14 3.03zM527.88 254.26a37.61 37.61 0 0 0-5.29-2.19v4.33a16.2 16.2 0 0 0 .11 1.79H521a14.58 14.58 0 0 0 .11-1.79v-8.09a9.41 9.41 0 0 0-.13-1.57h1.73c-.05.46-.1 1.07-.1 1.57v2.18a49.14 49.14 0 0 1 5.92 2.24zM542.86 249.52c0 .24-.07.54-.08.72 0 1.41-.22 5.42-.84 6.79a1.55 1.55 0 0 1-1.63 1c-.75 0-1.58-.05-2.28-.09l-.17-1.47a17.69 17.69 0 0 0 2 .16.74.74 0 0 0 .8-.47c.48-1 .66-4.15.66-5.66h-3.59c-.51 3.89-1.9 6-4.31 7.73l-1.29-1.05a7.35 7.35 0 0 0 1.61-1.18 8.69 8.69 0 0 0 2.57-5.5h-2.13c-.52 0-1.18 0-1.71.05v-1.45c.53 0 1.16.08 1.71.08h2.25v-1.33a10 10 0 0 0-.09-1.22H538c0 .32 0 .84-.06 1.18s-.05.94-.08 1.37h3a6.78 6.78 0 0 0 1-.08zM546.44 251.44c.45 0 1.32.09 2.08.09h7.6c.69 0 1.23-.06 1.57-.09v1.73c-.31 0-.94-.06-1.55-.06h-7.62c-.79 0-1.62 0-2.08.06zM565 250.69a44.19 44.19 0 0 1 5.93 2.24l-.62 1.51a39.49 39.49 0 0 0-5.31-2.17v4.33c0 .43 0 1.27.1 1.79h-1.71a14.8 14.8 0 0 0 .12-1.79v-8.1a10.61 10.61 0 0 0-.13-1.57h1.72c0 .47-.11 1.07-.11 1.57zm4-.68a13.15 13.15 0 0 0-1.24-2.14l.94-.41a17.52 17.52 0 0 1 1.28 2.12zm1.82-.74a14.33 14.33 0 0 0-1.29-2.1l.94-.43a16.62 16.62 0 0 1 1.3 2.07zM580.34 256.84a9.29 9.29 0 0 0 1.23-.2 4 4 0 0 0 3.36-3.94 3.66 3.66 0 0 0-3.33-3.86 32.27 32.27 0 0 1-.83 3.89c-.84 2.83-2 4.41-3.37 4.41s-2.64-1.55-2.64-3.86a6 6 0 0 1 6.21-5.76 5.15 5.15 0 0 1 5.45 5.24c0 2.9-1.86 4.92-5.25 5.39zm-1-4.4a19.31 19.31 0 0 0 .75-3.57 4.64 4.64 0 0 0-4 4.28c0 1.6.72 2.33 1.28 2.33s1.34-.9 1.99-3.04zM597.25 252.19a12.79 12.79 0 0 0 4.19 1.73 4.56 4.56 0 0 0-.8 1.05 10.62 10.62 0 0 1-1.23-.43v4.17h-1.28v-.36h-6.38v.4h-1.25v-4.11a14.44 14.44 0 0 1-1.34.54 5.86 5.86 0 0 0-.82-1 14.32 14.32 0 0 0 4.22-2h-3.77v-1.1h2.52a4.74 4.74 0 0 0-.52-1.06l.69-.14h-.42a3.22 3.22 0 0 0-.27-.9 57.67 57.67 0 0 0 7.44-.56l.7.91c-1 .16-2.15.28-3.43.37v1.38h1.67a9.92 9.92 0 0 0 .68-1.45l1.31.33-.73 1.12H601v1.1zm-7-2.61H589V247h5.27v-1h1.3v1h5.25v2.62h-1.27v-1.52h-9.33zm4 5.15h-2.52v.93h2.52zm-2.52 2.68h2.52v-.94h-2.52zm2.52-7.62c-.77 0-1.54.07-2.3.08a3.63 3.63 0 0 1 .6 1.22h1.7zm3.63 4a11.6 11.6 0 0 1-2.24-1.62h-.16v1.49h-1.23v-1.49h-.09a12 12 0 0 1-2.12 1.62zm.23.92h-2.64v.93h2.64zm0 2.68v-.94h-2.64v.94zM611.08 248.75a11.65 11.65 0 0 0 4.6 2.72 5 5 0 0 0-.84 1.05 12.29 12.29 0 0 1-5.05-3.57v2.61h-1.28v-2.64a12.59 12.59 0 0 1-5 3.67 4.85 4.85 0 0 0-.82-1 11.53 11.53 0 0 0 4.5-2.83H603v-1.13h5.48v-1.68h1.28v1.68h5.58v1.13zm2 8.6h2.31v1.18H603v-1.18h2.34V252h7.83zm-6.52-4.35v.78h5.24V253zm5.24 1.74h-5.24v.81h5.24zm-5.24 2.57h5.24v-.82h-5.24zM625.83 256.44a41.34 41.34 0 0 1 4.17 1.46l-1.15.91a36.57 36.57 0 0 0-4.41-1.61l1-.76h-4l1 .66a17.68 17.68 0 0 1-4.34 1.7 8 8 0 0 0-1-.94 16 16 0 0 0 3.89-1.42h-2.49v-6.06h10v6.06zm2.13-6.73h-8.86v-3.28h8.9zm-8.17 2.41h7.35v-.8h-7.35zm0 1.69h7.35V253h-7.35zm0 1.7h7.35v-.83h-7.35zm6.79-8h-6.17v1.21h6.17z"/><path class="cls-5" d="M447.13 276.37a3.78 3.78 0 1 1 3.78 3.78 3.78 3.78 0 0 1-3.78-3.78z"/><path class="cls-3" d="M463.58 273.61a16.56 16.56 0 0 1-2.47 6.13 6 6 0 0 0-1.24-.68 13.78 13.78 0 0 0 2.24-5.72zm3.57-3.48v10.94c0 .87-.22 1.25-.77 1.47a8.56 8.56 0 0 1-2.79.24 6.2 6.2 0 0 0-.52-1.36c1 .05 2 .05 2.27 0s.39-.1.39-.38v-10.91zm3.19 3.1a22.81 22.81 0 0 1 2.69 6.19l-1.41.56a23.71 23.71 0 0 0-2.54-6.27zM479.51 277.42c-.22 2.83-.9 4.52-4.52 5.41a3.56 3.56 0 0 0-.72-1.13c3.25-.67 3.71-2 3.9-4.28zm.43-5h-5.33v-1.21h5.33V270h1.35v1.23h5.48v1.21h-5.48v1.19h4.22v1.15h-9.6v-1.15h4zm5.22 6.06v-1.62h-9v1.62h-1.27v-2.78h11.58v2.78zm0 2.93c.49 0 .58-.21.63-1.72a3.41 3.41 0 0 0 1.17.49c-.14 1.93-.49 2.42-1.68 2.42h-1.93c-1.42 0-1.77-.38-1.77-1.64v-3.51h1.31v3.5c0 .41.09.46.63.46zM492.85 270.6a23.68 23.68 0 0 0-.6 3.43c.6-1.28 1.95-2.76 3.61-2.76 1.89 0 3.3 1.86 3.3 4.85 0 3.86-2.43 5.64-6 6.28l-.84-1.26c3-.47 5.31-1.59 5.31-5 0-2.16-.71-3.58-2-3.58-1.69 0-3.23 2.5-3.34 4.32a6.7 6.7 0 0 0 0 1.59l-1.35.1a15.16 15.16 0 0 1-.17-2.24 34.87 34.87 0 0 1 .42-4.47c0-.46.1-.94.11-1.3zM515.12 272.12V275h-1.25v-1.72h-9.16V275h-1.21v-2.83h1.85a9.56 9.56 0 0 0-1.05-1.51l1.14-.48a9.18 9.18 0 0 1 1.27 1.8l-.43.19h2.48a10.11 10.11 0 0 0-1-1.83l1.14-.39a8.34 8.34 0 0 1 1.09 1.9l-.83.32h2.45A13.42 13.42 0 0 0 513 270l1.39.43c-.44.57-.9 1.16-1.32 1.65zm-5.35 5.31c-.15.35-.29.7-.41 1h4.79v4.36h-1.3v-.49h-7v.5h-1.25v-4.37h3.5c.1-.32.19-.69.27-1h-2.72v-3.29H513v3.29zm3.08 2.15h-7v1.61h7zm-6-3.13h4.84v-1.34h-4.84zM525.26 279.55a12.85 12.85 0 0 0 4.75 1.9 6.17 6.17 0 0 0-.87 1.16 12.43 12.43 0 0 1-5-2.63v2.82h-1.28v-2.72a13.91 13.91 0 0 1-5 2.52 5.64 5.64 0 0 0-.85-1.11 13.58 13.58 0 0 0 4.72-1.94h-4.33v-1.1h5.43v-.85h-4.13v-1h4.13v-.84H518v-1h2.87a7.63 7.63 0 0 0-.59-1.27l.34-.06h-3.18v-1.09h2.07a10.34 10.34 0 0 0-1-1.89l1.13-.38a9.28 9.28 0 0 1 1.12 2l-.71.27h1.54v-2.4h1.22v2.4h1.38v-2.4h1.24v2.4H527l-.53-.17a12.66 12.66 0 0 0 1-2.07l1.34.33c-.38.69-.8 1.39-1.16 1.91h2v1.09h-2.75c-.26.48-.54.94-.78 1.33h3v1h-5v.84h4.3v1h-4.3v.85h5.52v1.1zm-3.6-6.14a5.69 5.69 0 0 1 .61 1.25l-.41.08h3a12.64 12.64 0 0 0 .61-1.33zM540.15 280.44a41.34 41.34 0 0 1 4.13 1.46l-1.15.91a36.57 36.57 0 0 0-4.41-1.61l1-.76h-4l1 .66a17.68 17.68 0 0 1-4.34 1.7 8 8 0 0 0-1-.94 16 16 0 0 0 3.89-1.42h-2.42v-6.06h10v6.06zm2.13-6.73h-8.86v-3.28h8.86zm-8.17 2.41h7.35v-.8h-7.35zm0 1.69h7.35V277h-7.35zm0 1.7h7.35v-.83h-7.35zm6.79-8.05h-6.17v1.21h6.17z"/><path class="cls-6" d="M418.46 119.37V286.6"/><path class="cls-5" d="M705.13 132.37a3.78 3.78 0 1 1 3.78 3.78 3.78 3.78 0 0 1-3.78-3.78z"/><path class="cls-3" d="M730.71 138.17H720v.61h-1.31v-12.13h11.7v1.25H720v9h10.71zm-4.57-5.3a5.41 5.41 0 0 0 4.11 2.5 4 4 0 0 0-.77 1.09 6.17 6.17 0 0 1-4-2.51c-.57 1-1.75 1.88-4 2.55a4.91 4.91 0 0 0-.82-1c2.67-.7 3.6-1.68 3.9-2.66h-3.81v-1.12h4v-1.4h-2a7.64 7.64 0 0 1-1 1.05 9.55 9.55 0 0 0-1.09-.66 6.41 6.41 0 0 0 2-2.74l1.24.31a7.13 7.13 0 0 1-.45.92h6v1.12H726v1.4h4.13v1.12zM744.75 131a7.77 7.77 0 0 1-1.08.91 6.37 6.37 0 0 0 1.54.82 4.81 4.81 0 0 0-.74.93 7.16 7.16 0 0 1-1-.56v2.58h-2.57v2c0 .57-.11.85-.53 1a5.81 5.81 0 0 1-1.92.18 4 4 0 0 0-.41-1.05h1.38c.19 0 .23 0 .23-.2v-1.91h-2.52v-2.6a10.12 10.12 0 0 1-1 .6 2.8 2.8 0 0 0-.73-.81 9.77 9.77 0 0 1-2 5.91 5.43 5.43 0 0 0-.93-.87 7 7 0 0 0 1.6-4c-.53.34-1.07.66-1.58.94l-.41-1.16c.55-.24 1.29-.63 2.1-1V127.17h4.46v-1.2H740v1.2h5v1.12h-9.64V132.82a8.14 8.14 0 0 0 1.52-.94 11.16 11.16 0 0 0-1-.77l.68-.59c.31.21.69.49 1 .74a6.57 6.57 0 0 0 .74-.87H736v-1h3a6.2 6.2 0 0 0 .42-1.1l1.22.16a9.15 9.15 0 0 1-.37.94h4.64v1h-2.8a6.18 6.18 0 0 0 .88 1 9.77 9.77 0 0 0 1-.92zm-11.67.56a11.29 11.29 0 0 0-.82-2.76l1-.39a10.55 10.55 0 0 1 .9 2.68zm5.36 4.68a8.37 8.37 0 0 1-2.2 2.38 4.91 4.91 0 0 0-1-.77 6.37 6.37 0 0 0 2-1.94zm3.89-3.6h-4.08v.71h4.08zm0 1.48h-4.08v.73h4.08zm-2.58-3.73a8 8 0 0 1-1.08 1.43H742a7.15 7.15 0 0 1-1-1.43zm3 5.54a14.24 14.24 0 0 1 2.08 2.14l-1.06.56a11.6 11.6 0 0 0-2-2.18zM759.31 134.88h-1.45v2.45h-1.32v-.61h-3v.73c0 .72-.19 1-.66 1.19a8.13 8.13 0 0 1-2.38.19 4.07 4.07 0 0 0-.45-1.06h1.83c.22 0 .34-.09.34-.32v-.75h-4.37v-1h4.37v-.86h-5.6v-1h5.6v-.8H748v-.92h4.24v-.83h-3.88v-2.57h3.88V128h-5.31v-1h5.31v-1h1.32v1H759v1h-5.46v.72h4.07v2.57h-4.07v.83h4.3v1.72h1.45zm-7.07-4.45v-.84h-2.63v.84zm1.32-.84v.84h2.76v-.84zm0 4.26h3v-.8h-3zm3 1h-3v.86h3zM772.53 128.46a6.78 6.78 0 0 1-1.53 2.24 9.75 9.75 0 0 0 2.83 1.05 5.15 5.15 0 0 0-.81 1.09 10 10 0 0 1-3-1.34 11.7 11.7 0 0 1-3 1.32 3.2 3.2 0 0 0-.37-.58 19.07 19.07 0 0 1-.77 2.26l-.9-.45a14.45 14.45 0 0 0 .62-2.1h-1.1v5.38c0 .63-.1 1-.52 1.2a4.87 4.87 0 0 1-1.85.21 4.81 4.81 0 0 0-.37-1.23 11 11 0 0 0 1.28 0c.17 0 .23 0 .23-.21v-3.79a10.08 10.08 0 0 1-1.89 3 6.8 6.8 0 0 0-.66-1.25 9.17 9.17 0 0 0 2.14-3.36h-1.94v-1.14h3.57a17 17 0 0 0-3-1.65l.81-.84a13.57 13.57 0 0 1 1.26.56 8 8 0 0 0 1.21-1.18h-3.69v-1.1h4.82l.84.52a9.83 9.83 0 0 1-2.18 2.34 10.36 10.36 0 0 1 1.12.74l-.6.66h.86l.2-.07.79.28c0 .19-.09.37-.13.56a9.22 9.22 0 0 0 2.14-.88 8.63 8.63 0 0 1-1.24-1.47 9 9 0 0 1-.84.81 8.55 8.55 0 0 0-1.08-.74 8.41 8.41 0 0 0 2.66-3.38l1.22.34c-.17.38-.37.74-.58 1.11h4.42v1.09zm.71 5.25v.52c-.24 2.51-.49 3.59-.88 4a1.51 1.51 0 0 1-.94.42 13.11 13.11 0 0 1-1.55 0 3.31 3.31 0 0 0-.36-1.21 12.81 12.81 0 0 0 1.31.07.56.56 0 0 0 .45-.15c.23-.21.43-.93.61-2.57h-2a5.61 5.61 0 0 1-3.67 4 3.61 3.61 0 0 0-.77-1 4.62 4.62 0 0 0 3.11-3h-2v-1.09h2.24c.07-.43.13-.87.17-1.33h1.29c-.05.46-.1.9-.17 1.33zm-4.73-5.25a6.38 6.38 0 0 0 1.41 1.54 5 5 0 0 0 1.18-1.54zM783.87 136.44a41.34 41.34 0 0 1 4.13 1.46l-1.15.91a36.57 36.57 0 0 0-4.41-1.61l1-.76h-4.05l1 .66a17.68 17.68 0 0 1-4.34 1.7 8 8 0 0 0-1-.94 16 16 0 0 0 3.89-1.42h-2.42v-6.06h10v6.06zm2.13-6.73h-8.86v-3.28H786zm-8.17 2.41h7.35v-.8h-7.35zm0 1.69h7.35V133h-7.35zm0 1.7h7.35v-.83h-7.35zm6.79-8h-6.17v1.21h6.17z"/><path class="cls-5" d="M705.13 156.37a3.78 3.78 0 1 1 3.78 3.78 3.78 3.78 0 0 1-3.78-3.78z"/><path class="cls-3" d="M724.38 159.51c0 .74.49 1.09 1.71 1.09a30.16 30.16 0 0 0 3.64-.2l-.08 1.5c-1 .07-2.47.11-3.8.11-2.31 0-3-.8-3-2.06V157h-2.53c-.38 0-1 0-1.42.05v-1.47c.4 0 1 .07 1.42.07h2.53V153h-3.02v-1.4c.39 0 .81.06 1.3.06h6.7a10.18 10.18 0 0 0 1.2-.06v1.4h-4.69v2.7h4.51c.29 0 .91 0 1.25-.05V157h-5.77zM743.21 154.92a8.18 8.18 0 0 0 1.18-.07v1.45h-4.78a8.45 8.45 0 0 1-.87 3.73 6.88 6.88 0 0 1-2.77 2.61l-1.3-1a5.9 5.9 0 0 0 2.59-2.08 6.39 6.39 0 0 0 .84-3.31h-5.32v-1.46a10.46 10.46 0 0 0 1.27.07zm-7.41-2.22c-.47 0-1 0-1.37.05v-1.44a10 10 0 0 0 1.36.09h4.73a10.85 10.85 0 0 0 1.4-.09v1.44c-.45 0-.95-.05-1.4-.05zm7.1-.14a17.13 17.13 0 0 0-1.1-1.94l.89-.37a19.41 19.41 0 0 1 1.14 1.92zm1.38-2.9a16.14 16.14 0 0 1 1.16 1.9l-.91.4a13 13 0 0 0-1.15-1.92zM746.72 161.26a6.67 6.67 0 0 0 2.41-3.41 24.05 24.05 0 0 0 .41-5.59 4.07 4.07 0 0 0-.12-1.13h1.63c0 .11-.07.63-.07 1.12a30.5 30.5 0 0 1-.44 6 7.87 7.87 0 0 1-2.49 3.92zm6.44.12a3.81 3.81 0 0 0 .1-.88v-8.29a10.5 10.5 0 0 0-.08-1.12h1.62a9.07 9.07 0 0 0-.07 1.12V160a9.75 9.75 0 0 0 3.81-3.22l.84 1.21a14.67 14.67 0 0 1-4.76 3.86 2.7 2.7 0 0 0-.53.35z"/><path class="cls-5" d="M705.13 180.37a3.78 3.78 0 1 1 3.78 3.78 3.78 3.78 0 0 1-3.78-3.78z"/><path class="cls-3" d="M727.84 185.9v-.76h-6.64c-.57 0-1.27 0-1.68.06v-1.58c.41 0 1 .07 1.63.07h6.71v-6.25h-8.17v-1.54c.49 0 1.16.09 1.63.09H729.44v8.42c0 .49 0 1.17.06 1.48zM733 179.44c.45 0 1.32.09 2.08.09h7.6c.69 0 1.23-.06 1.57-.09v1.73c-.31 0-.94-.06-1.55-.06h-7.62c-.79 0-1.62 0-2.08.06zM746.72 185.26a6.67 6.67 0 0 0 2.41-3.41 24.05 24.05 0 0 0 .41-5.59 4.07 4.07 0 0 0-.12-1.13h1.63c0 .11-.07.63-.07 1.12a30.5 30.5 0 0 1-.44 6 7.87 7.87 0 0 1-2.49 3.92zm6.44.12a3.81 3.81 0 0 0 .1-.88v-8.29a10.5 10.5 0 0 0-.08-1.12h1.62a9.07 9.07 0 0 0-.07 1.12V184a9.75 9.75 0 0 0 3.81-3.22l.84 1.21a14.67 14.67 0 0 1-4.76 3.86 2.7 2.7 0 0 0-.53.35zM768.3 181.66a13.22 13.22 0 0 0 2.38-3.13l-4.86 1v4c0 .92.31 1.23 1.92 1.23a22.26 22.26 0 0 0 4.4-.43l-.06 1.51a32.3 32.3 0 0 1-4.38.29c-2.86 0-3.34-.73-3.34-2.22v-4.05l-3.09.64-.27-1.5c.64-.08 1.92-.3 3.36-.57v-2.23a9.63 9.63 0 0 0-.1-1.43h1.66a11.32 11.32 0 0 0-.1 1.43v1.95c2.23-.43 4.47-.88 5.07-1a4.22 4.22 0 0 0 .85-.28l1 .81c-.11.17-.28.43-.39.64a19.88 19.88 0 0 1-2.88 4.08zM781.84 182.67a13.41 13.41 0 0 0 4.86-5.29l.85 1.53a14.35 14.35 0 0 1-4.92 5.07 15.32 15.32 0 0 1-5.36 2.09l-.94-1.44a14.72 14.72 0 0 0 5.51-1.96zm-.48-4.49l-1.11 1.14a30.4 30.4 0 0 0-3.5-3l1-1.1a28.08 28.08 0 0 1 3.61 2.96zM801.17 176.73a7.65 7.65 0 0 0-.39.86 14.94 14.94 0 0 1-2 4c.52.34 1 .65 1.35.9l-1 1.29c-.34-.28-.8-.62-1.34-1a13.26 13.26 0 0 1-5.33 3.63l-1.28-1.12a12 12 0 0 0 5.4-3.32c-1-.68-2.12-1.33-2.88-1.75l.93-1c.78.4 1.86 1 2.88 1.63a11.54 11.54 0 0 0 1.66-3.4h-4.46a15.34 15.34 0 0 1-3.68 3.64l-1.21-.91a12.68 12.68 0 0 0 4.49-4.77 5.27 5.27 0 0 0 .53-1.27l1.6.51c-.27.42-.58 1-.72 1.23l-.17.31H799a3.54 3.54 0 0 0 1-.15zM804.44 179.44c.45 0 1.32.09 2.08.09h7.6c.69 0 1.23-.06 1.57-.09v1.73c-.31 0-.94-.06-1.55-.06h-7.62c-.79 0-1.61 0-2.08.06zM824.06 184.84a9.29 9.29 0 0 0 1.23-.2 4 4 0 0 0 3.36-3.94 3.66 3.66 0 0 0-3.33-3.86 32.27 32.27 0 0 1-.83 3.89c-.84 2.83-2 4.41-3.37 4.41s-2.64-1.55-2.64-3.86a6 6 0 0 1 6.21-5.76 5.15 5.15 0 0 1 5.45 5.24c0 2.9-1.86 4.92-5.25 5.39zm-1-4.4a18.53 18.53 0 0 0 .75-3.57 4.64 4.64 0 0 0-4 4.28c0 1.6.72 2.33 1.28 2.33s1.34-.9 1.99-3.04zM726.33 201.1a11.88 11.88 0 0 0 1.3-.09v1.47h-3.23c0 2.07.1 4.66.11 6.47 0 .81-.47 1.26-1.41 1.26-.77 0-1.58 0-2.33-.08l-.11-1.45a14.28 14.28 0 0 0 1.92.16c.38 0 .52-.18.52-.56v-4.51a19.36 19.36 0 0 1-6 5l-1-1.15a17.22 17.22 0 0 0 6.31-5.15H716.71V201a12.36 12.36 0 0 0 1.4.09H723v-1.2a7.72 7.72 0 0 0-.13-1.29h1.6a7.91 7.91 0 0 0-.07 1.29v1.2zM731 204.89c.65-.66 1.81-2.13 2.74-3.23.78-.92 1.44-1 2.5-.12a32.5 32.5 0 0 1 2.89 2.87c.94 1 2.39 2.56 3.4 3.75l-1.16 1.26c-.94-1.2-2.21-2.69-3.08-3.69a37.63 37.63 0 0 0-2.68-2.82c-.53-.45-.75-.45-1.19.1-.63.77-1.73 2.24-2.34 3l-.84 1.18-1.3-1.32c.36-.31.64-.59 1.06-.98zm9.24-5.44a1.76 1.76 0 0 1 1.76 1.77 1.76 1.76 0 0 1-3.52 0 1.76 1.76 0 0 1 1.74-1.77zm0 2.73a1 1 0 1 0-1-1 1 1 0 0 0 .98 1zM746.5 209.2a1.53 1.53 0 0 0 .15-.78v-7.83a9.54 9.54 0 0 0-.12-1.42h1.73a9.11 9.11 0 0 0-.12 1.4v7.66a15.49 15.49 0 0 0 7.46-4.7l.8 1.23a16.8 16.8 0 0 1-8.17 5 2.41 2.41 0 0 0-.7.29zM759.21 203.44c.45 0 1.32.09 2.07.09h7.61c.68 0 1.23-.06 1.57-.09v1.73c-.31 0-.94-.06-1.56-.06h-7.62c-.78 0-1.61 0-2.07.06zM784.5 200.73a5.22 5.22 0 0 0-.39.86 14.94 14.94 0 0 1-2 4c.51.34 1 .65 1.34.9l-1 1.29c-.34-.28-.8-.62-1.33-1a13.37 13.37 0 0 1-5.34 3.63l-1.27-1.12a12.06 12.06 0 0 0 5.39-3.32c-1-.68-2.11-1.33-2.87-1.75l.92-1c.79.4 1.87 1 2.89 1.63a11.49 11.49 0 0 0 1.65-3.4h-4.45a15.58 15.58 0 0 1-3.69 3.64l-1.2-.91a12.64 12.64 0 0 0 4.48-4.77 4.9 4.9 0 0 0 .53-1.27l1.6.51c-.26.42-.57 1-.71 1.23l-.17.31h3.4a3.44 3.44 0 0 0 1.05-.15zM787.77 203.44c.45 0 1.31.09 2.07.09h7.61c.68 0 1.23-.06 1.57-.09v1.73c-.31 0-.94-.06-1.56-.06h-7.62c-.78 0-1.61 0-2.07.06z"/><path class="cls-5" d="M705.13 228.37a3.78 3.78 0 1 1 3.78 3.78 3.78 3.78 0 0 1-3.78-3.78z"/><path class="cls-3" d="M729.93 232.36a16.2 16.2 0 0 0-2.09-1.36c.28 1.47.84 2.52 1.93 2.61.2 0 .31-.51.4-1.36a3.72 3.72 0 0 0 .75.74c-.17 1.44-.62 2-1.43 1.79-2.38-.28-2.91-2.78-3.08-5.77h-1.86v5.62h-1.26V229h-2a7.54 7.54 0 0 1-2.43 5.79 5.93 5.93 0 0 0-1-.89A6.43 6.43 0 0 0 720 229h-1.9v-1.2h1.95v-1.54a14.53 14.53 0 0 1-1.41.58 6.27 6.27 0 0 0-.76-1 9.67 9.67 0 0 0 3.64-1.68l1.14.44a7.72 7.72 0 0 1-1.36 1v2.22h2v-3.6h1.26v3.6h3c0 .84.06 1.66.14 2.41l.3-.23a16.4 16.4 0 0 1 2.72 1.59zm-.17-6.25a14.57 14.57 0 0 0-2.12-1.43c.31 1.36.93 2.4 2.08 2.47.18 0 .29-.37.36-1.05a3.85 3.85 0 0 0 .77.7c-.19 1.18-.63 1.62-1.39 1.5-2.19-.28-2.88-2.22-3.17-4.51h-7.41v-1.18h8.5c0 .53.07 1 .15 1.56l.44-.41a16.17 16.17 0 0 1 2.56 1.54zm.75-3.28c-.5.52-1 1.06-1.42 1.42l-.79-.46a9.82 9.82 0 0 0 1.11-1.52zM728.3 230a10.87 10.87 0 0 0 1.15-1.5l1.11.54c-.52.54-1 1-1.49 1.42zM741.7 223.44a11.41 11.41 0 0 0 3 5.73l-1 1.09a17 17 0 0 1-1.5-2.26c.21 3.37-1.27 6.61-4.87 6.61a3.49 3.49 0 0 1-3.73-3.73 9 9 0 0 1 2.36-5.65c-.62.1-1.55.24-2.08.35-.25 0-.47.1-.78.17l-.2-1.46a6.68 6.68 0 0 0 .76 0 25 25 0 0 0 4.57-.8l.42 1.25a5.83 5.83 0 0 0-.73.26c-.91.7-2.93 3.25-2.93 5.72a2.24 2.24 0 0 0 2.39 2.46c2.81 0 4.4-3.29 3.37-8.39a9.63 9.63 0 0 1-.33-.91zm1.3 1.47a16.18 16.18 0 0 0-.88-2l.85-.28c.28.56.69 1.42.9 2zm1.5-.53a13.61 13.61 0 0 0-.9-2l.83-.29a21.43 21.43 0 0 1 1 2zM749.75 231.8a3.79 3.79 0 0 0 3.3 1.47c1.56.06 4.67 0 6.42-.1a5.77 5.77 0 0 0-.44 1.33c-1.58.07-4.4.1-6 0a4.8 4.8 0 0 1-3.87-1.61c-.66.57-1.33 1.13-2.06 1.74l-.67-1.35a21.32 21.32 0 0 0 2-1.44v-3.29h-1.79v-1.21h3.07zm-.65-6.54a10.69 10.69 0 0 0-2.34-2.22l1-.78a10.78 10.78 0 0 1 2.39 2.14zm6.12-2.68c.28 4.13 1.26 7.45 4.09 8.9a5.6 5.6 0 0 0-1 1 8.15 8.15 0 0 1-3.56-5.17 9.59 9.59 0 0 1-3.5 5.17 8.72 8.72 0 0 0-1-1c2-1.23 3.12-3.36 3.64-6.13l.48.07c-.09-.52-.14-1.07-.2-1.62h-2.49v-1.23zM772.88 231.6a12.25 12.25 0 0 0-1.33-1 6.77 6.77 0 0 1-3.59 4l-1.17-1a5.94 5.94 0 0 0 3.59-3.72 9.87 9.87 0 0 0-3.65-1.19 26.7 26.7 0 0 1-1.68 3.49 2.18 2.18 0 0 1-1.93 1.07 1.9 1.9 0 0 1-2-2.05c0-2.09 1.92-3.7 4.66-3.8.45-1 .91-2.09 1.29-2.84-.54 0-2 .08-2.65.12l-1.07.1-.06-1.43h1.09c.76 0 2.43-.07 3-.12a2.88 2.88 0 0 0 .8-.17l.87.7a2.54 2.54 0 0 0-.41.52c-.36.6-.92 1.9-1.47 3.15a12.48 12.48 0 0 1 3.43 1 7.18 7.18 0 0 0 .09-.78 10.59 10.59 0 0 0 0-1.38l1.43.16a19.84 19.84 0 0 1-.28 2.63c.63.35 1.16.72 1.59 1zm-7.62-3c-1.79.21-2.8 1.28-2.8 2.33a.73.73 0 0 0 .68.8.92.92 0 0 0 .79-.48 18.51 18.51 0 0 0 1.33-2.62zM787.4 224.12V227h-1.25v-1.72H777V227h-1.2v-2.83h1.84a9.56 9.56 0 0 0-1-1.51l1.14-.48a9.18 9.18 0 0 1 1.27 1.8l-.43.19H781a10.11 10.11 0 0 0-1-1.83l1.14-.39a8.34 8.34 0 0 1 1.09 1.9l-.83.32h2.46a14.12 14.12 0 0 0 1.34-2.08l1.39.43c-.44.57-.9 1.16-1.32 1.65zm-5.35 5.31c-.14.35-.28.7-.41 1h4.79v4.36h-1.3v-.49h-7v.5h-1.25v-4.37h3.51c.09-.32.18-.69.26-1h-2.72v-3.29h7.33v3.29zm3.08 2.15h-7v1.61h7zm-6-3.13H784v-1.34h-4.84zM797.54 231.55a12.85 12.85 0 0 0 4.75 1.9 6.17 6.17 0 0 0-.87 1.16 12.43 12.43 0 0 1-5-2.63v2.82h-1.28v-2.72a13.91 13.91 0 0 1-5 2.52 5.64 5.64 0 0 0-.85-1.11 13.58 13.58 0 0 0 4.72-1.94h-4.31v-1.1h5.43v-.85H791v-1h4.13v-.84h-4.81v-1h2.87a7.63 7.63 0 0 0-.59-1.27l.34-.06h-3.18v-1.09h2.07a10.34 10.34 0 0 0-1-1.89l1.13-.38a9.28 9.28 0 0 1 1.12 2l-.71.27h1.54v-2.4h1.22v2.4h1.38v-2.4h1.24v2.4h1.51l-.53-.17a12.66 12.66 0 0 0 1-2.07l1.34.33c-.38.69-.8 1.39-1.16 1.91h2v1.09h-2.71c-.26.48-.54.94-.78 1.33h3v1h-5v.84h4.3v1h-4.3v.85h5.52v1.1zm-3.6-6.14a5.69 5.69 0 0 1 .61 1.25l-.41.08h3a12.64 12.64 0 0 0 .61-1.33zM812.43 232.44a41.34 41.34 0 0 1 4.13 1.46l-1.15.91a36.57 36.57 0 0 0-4.41-1.61l1-.76h-4l1 .66a17.68 17.68 0 0 1-4.34 1.7 8 8 0 0 0-1-.94 16 16 0 0 0 3.89-1.42h-2.45v-6.06h10v6.06zm2.13-6.73h-8.86v-3.28h8.86zm-8.17 2.41h7.35v-.8h-7.35zm0 1.69h7.35V229h-7.35zm0 1.7h7.35v-.83h-7.35zm6.79-8H807v1.21h6.17z"/><path class="cls-5" d="M705.13 252.37a3.78 3.78 0 1 1 3.78 3.78 3.78 3.78 0 0 1-3.78-3.78z"/><path class="cls-3" d="M722.39 246.37a24.81 24.81 0 0 1-1.37 2.85v9.55h-1.23v-7.66a14.81 14.81 0 0 1-1.31 1.55 6.85 6.85 0 0 0-.73-1.31 15 15 0 0 0 3.42-5.37zm5.27 7.48a10.26 10.26 0 0 0 3.46 3.36 6 6 0 0 0-.91 1 11.91 11.91 0 0 1-3.25-3.49v4.05h-1.31v-4a11.34 11.34 0 0 1-3.41 3.39 5.89 5.89 0 0 0-.9-1 10.3 10.3 0 0 0 3.63-3.34h-3.18v-1.17h3.86v-1.53h-2.88v-4.57H730v4.57h-3v1.53h3.78v1.17zM724 250h4.72v-2.26H724zM737 247c-.39 1.18-.92 2.67-1.4 3.82a4 4 0 0 1 1.26 2.85 1.83 1.83 0 0 1-.61 1.65 1.44 1.44 0 0 1-.77.28 6.4 6.4 0 0 1-1 0 2.53 2.53 0 0 0-.3-1.15 7.7 7.7 0 0 0 .78 0 1.08 1.08 0 0 0 .46-.13 1.16 1.16 0 0 0 .27-.88 3.75 3.75 0 0 0-1.23-2.54c.37-1 .77-2.27 1-3.25H734v11.1h-1.15v-12.22H736l.2-.05zm4.8 8a5 5 0 0 0 3.44 2.76 3.2 3.2 0 0 0-.76 1.09 6 6 0 0 1-3.54-3c-.53 1.2-1.68 2.28-4 3a3.75 3.75 0 0 0-.72-1c2.43-.76 3.38-1.77 3.74-2.89h-2.72v-3.65h2.93v-1h-2v-.74a14.36 14.36 0 0 1-1.25.72 4.75 4.75 0 0 0-.61-1.06 9.34 9.34 0 0 0 3.89-3.23h1.18a9.8 9.8 0 0 0 4 3.1 6.57 6.57 0 0 0-.68 1.15c-.36-.19-.74-.41-1.12-.65v.76h-2.14v1h3.08V255zm-1.6-1v-1.58h-1.78V254zm2.83-4.76a11.11 11.11 0 0 1-2.23-2.13 9.94 9.94 0 0 1-2.09 2.13zm-1.64 3.18V254h1.9v-1.58zM758.84 248.12V251h-1.25v-1.72h-9.16V251h-1.21v-2.83h1.85a9.56 9.56 0 0 0-1.05-1.51l1.14-.48a9.18 9.18 0 0 1 1.27 1.8l-.43.19h2.48a10.11 10.11 0 0 0-1-1.83l1.14-.39a8.34 8.34 0 0 1 1.09 1.9l-.83.32h2.45a13.42 13.42 0 0 0 1.35-2.08l1.39.43c-.44.57-.9 1.16-1.32 1.65zm-5.35 5.31c-.14.35-.28.7-.41 1h4.79v4.36h-1.3v-.49h-7v.5h-1.27v-4.37h3.5c.1-.32.19-.69.27-1h-2.72v-3.29h7.33v3.29zm3.08 2.15h-7v1.61h7zm-6-3.13h4.85v-1.34h-4.85zM769 255.55a12.85 12.85 0 0 0 4.75 1.9 6.17 6.17 0 0 0-.87 1.16 12.43 12.43 0 0 1-5-2.63v2.82h-1.27v-2.72a14 14 0 0 1-5 2.52 5.64 5.64 0 0 0-.85-1.11 13.5 13.5 0 0 0 4.72-1.94h-4.33v-1.1h5.44v-.85h-4.14v-1h4.14v-.84h-4.82v-1h2.87a7.63 7.63 0 0 0-.59-1.27l.34-.06h-3.19v-1.09h2.07a10.34 10.34 0 0 0-1-1.89l1.13-.38a9.28 9.28 0 0 1 1.12 2l-.71.27h1.54v-2.4h1.22v2.4h1.38v-2.4h1.24v2.4h1.51l-.53-.17a12.66 12.66 0 0 0 1-2.07l1.34.33c-.38.69-.8 1.39-1.16 1.91h2v1.09h-2.71c-.26.48-.54.94-.78 1.33h3v1h-5v.84h4.3v1h-4.3v.85h5.52v1.1zm-3.6-6.14a5.69 5.69 0 0 1 .61 1.25l-.41.08h3a12.64 12.64 0 0 0 .61-1.33zM783.87 256.44a41.34 41.34 0 0 1 4.13 1.46l-1.15.91a36.57 36.57 0 0 0-4.41-1.61l1-.76h-4.05l1 .66a17.68 17.68 0 0 1-4.34 1.7 8 8 0 0 0-1-.94 16 16 0 0 0 3.89-1.42h-2.42v-6.06h10v6.06zm2.13-6.73h-8.86v-3.28H786zm-8.17 2.41h7.35v-.8h-7.35zm0 1.69h7.35V253h-7.35zm0 1.7h7.35v-.83h-7.35zm6.79-8h-6.17v1.21h6.17z"/><path class="cls-6" d="M676.46 119.37V286.6"/><path class="cls-3" d="M56.94 316.54v4.51h-.84v-.66h-6.86v.68h-.82v-4.53h.82v3h2.93v-3.75h-3.33v-3.76h.81v3h2.52v-4H53v4h2.64v-3h.85v3.76H53v3.75h3.1v-3zM68.88 317.74v.78h-10v-.78h1.1v-5.38h2.34V311h.77v1.35h1.61V311h.78v1.36h2.44v5.38zm-6 1.44a13.65 13.65 0 0 1-3.32 1.91c-.16-.16-.44-.44-.62-.59a11.09 11.09 0 0 0 3.16-1.78zm-2.16-6.06V315h1.55v-1.83zm0 4.62h1.55v-2h-1.54zm2.32-4.62V315h1.61v-1.83zm1.61 2.59h-1.6v2h1.61zm.8 3a26.32 26.32 0 0 1 3.2 1.8l-.72.55a24.76 24.76 0 0 0-3-1.82zm0-5.57V315h1.63v-1.83zm0 4.62h1.63v-2h-1.64zM73.14 315.18a.73.73 0 1 1 .73.76.74.74 0 0 1-.73-.76zm0 4.44a.73.73 0 1 1 1.45 0 .73.73 0 1 1-1.45 0zM88.59 313.26a3.55 3.55 0 0 0-.28.34 17.27 17.27 0 0 1-4 4.47c.66.66 1.44 1.48 1.88 2l-.81.64a24.92 24.92 0 0 0-2-2.25 24.15 24.15 0 0 0-2.52-2.16l.72-.58c.41.3 1.31 1 2.06 1.7a13.59 13.59 0 0 0 3.43-3.82h-6.45c-.43 0-.9.05-1.12.07v-1a9.08 9.08 0 0 0 1.12.09h6.56a2.37 2.37 0 0 0 .7-.09zM99.06 312.3a17.69 17.69 0 0 1-3 2.39v4.71a9 9 0 0 0 .06 1.17H95.1a10.89 10.89 0 0 0 .06-1.17v-4.16A21.78 21.78 0 0 1 91 317l-.51-.86a17.35 17.35 0 0 0 4.92-2 12.19 12.19 0 0 0 2.89-2.43zM109.84 313.61a9.44 9.44 0 0 0 1-.05v.94H108c-.18 3.15-1.41 5-3.3 6.19l-.94-.64a3.36 3.36 0 0 0 .89-.5 6.31 6.31 0 0 0 2.42-5h-2.81a8.89 8.89 0 0 1-1.84 2.35l-.87-.51a8.33 8.33 0 0 0 2-2.37 7.26 7.26 0 0 0 .63-1.54 4.45 4.45 0 0 0 .16-.88l1.06.21c-.1.25-.2.54-.28.77s-.25.71-.42 1.11zM112.75 320a5.31 5.31 0 0 0 1.92-2.71 20.22 20.22 0 0 0 .32-4.42 4.4 4.4 0 0 0-.07-.8h1c0 .13-.05.46-.05.79a23.78 23.78 0 0 1-.35 4.67 6.09 6.09 0 0 1-2 3zm5 .05a2.73 2.73 0 0 0 .08-.61v-6.64a5.41 5.41 0 0 0-.07-.82h1a7.85 7.85 0 0 0 0 .82v6.34a8.38 8.38 0 0 0 3.2-2.7l.53.75a11.12 11.12 0 0 1-3.75 3 2.08 2.08 0 0 0-.38.26zM128.75 314.89a1.17 1.17 0 1 1-1.17 1.16 1.15 1.15 0 0 1 1.17-1.16zM138.85 317.77h-3.43l-.91 2.46h-1.07l3.08-8.08h1.25l3.11 8.08h-1.11zm-.23-.79l-.48-1.29c-.33-.91-.65-1.79-1-2.72-.31.94-.64 1.82-1 2.72l-.49 1.29zM145.69 314.89a1.17 1.17 0 1 1-1.17 1.16 1.15 1.15 0 0 1 1.17-1.16zM160.35 313.61a6.41 6.41 0 0 0 .93-.07v.93h-2.65c0 1.65.07 3.84.08 5.21 0 .57-.34.88-1 .88s-1.22 0-1.76-.06l-.08-.91a10.33 10.33 0 0 0 1.55.14c.32 0 .41-.15.41-.44v-4a15.41 15.41 0 0 1-4.83 4.11l-.63-.72a13.92 13.92 0 0 0 5-4.23h-4.63v-.94a6.67 6.67 0 0 0 1 .07h4v-1.07a6.59 6.59 0 0 0-.1-.92h1a5.79 5.79 0 0 0-.07.92v1.07zM171.21 313.07a3.89 3.89 0 0 0-.28.47 13.64 13.64 0 0 1-1.85 3.24 30.34 30.34 0 0 1 3.21 3.28l-.77.67a24.85 24.85 0 0 0-3-3.28 13.61 13.61 0 0 1-4.29 3.21l-.71-.72a12.74 12.74 0 0 0 4.54-3.27 9.64 9.64 0 0 0 1.82-3.07h-5.4v-1a10 10 0 0 0 1.11.07h4.25a2.76 2.76 0 0 0 .82-.09zm0 0a13.86 13.86 0 0 0-.88-1.52l.58-.25a14.55 14.55 0 0 1 .89 1.51zm.95-2.16a15.14 15.14 0 0 1 .92 1.5l-.59.26a13 13 0 0 0-.91-1.5zM177.39 316.2a16.23 16.23 0 0 1-2.12 3l-.75-.52a11.89 11.89 0 0 0 2.1-2.88zm2.35-1.7v5.33c0 .58-.28.88-.94.88-.47 0-1.13 0-1.57-.08l-.08-.88a7.75 7.75 0 0 0 1.27.13c.3 0 .43-.13.43-.42v-5h-3.99v-.92a8.9 8.9 0 0 0 .93.06h3.06v-1.14a3.6 3.6 0 0 0-.08-.78h1a4.46 4.46 0 0 0-.07.79v1.13h2.91a7 7 0 0 0 .9-.06v.91h-.89zm2.25 1.33a24.57 24.57 0 0 1 1.9 2.87l-.81.46a18.39 18.39 0 0 0-1.84-2.93zm.41-2.55a12 12 0 0 0-.88-1.5l.6-.24A16.5 16.5 0 0 1 183 313zm1.32-.33a10.26 10.26 0 0 0-.89-1.47l.59-.26a16.6 16.6 0 0 1 .9 1.47zM186.19 315.47h8.72v1.08c-.22 0-.68-.06-1.17-.06h-6a15.2 15.2 0 0 0-1.53.06zM202.24 317.93a10.35 10.35 0 0 0 3.67-4l.53.93a11 11 0 0 1-3.7 3.91 11.87 11.87 0 0 1-4.32 1.71l-.58-.9a11.47 11.47 0 0 0 4.4-1.65zm-.65-3.48l-.7.69a22.58 22.58 0 0 0-2.74-2.3l.63-.67a24.49 24.49 0 0 1 2.81 2.28zM216 312.64v5.58h-1.89v-7.29h4v1.71zm-1.52-1.35v6.57h1.15v-5.58h2.16v-1zM229 320.68h-6.18v.39H222v-3.57a5.82 5.82 0 0 1-.77.73 2.39 2.39 0 0 0-.29-.36 7.63 7.63 0 0 1-1.14 2.95 2.52 2.52 0 0 0-.69-.48 9.06 9.06 0 0 0 1.25-5.23v-2.18h8v2.25h-2.12.08c-.18.27-.35.57-.53.83h2.88v.61h-2.87v.75h2.58v.63h-2.58v.74h2.58v.57h-2.58v.8h3.2zm-.1-8.4h-9.3v-.7h9.3zm-7.72 2.9a15.16 15.16 0 0 1-.14 2.15 7.29 7.29 0 0 0 1.69-2.15zm0-1.62v1h6.4v-1zm3.86 3.09h-2.22v.75H225zm0 1.31h-2.22v.74H225zm-2.22 2.11H225v-.8h-2.22zm.78-4.88a8.68 8.68 0 0 1-.46.85H225c.14-.27.3-.59.41-.86h-1.81zM239.67 320c0 .53-.14.77-.49.91a7 7 0 0 1-2.05.13 3.12 3.12 0 0 0-.28-.79h1.72c.2 0 .3-.07.3-.28v-2.23h-3V321h-.82v-3.24h-2.75a6.34 6.34 0 0 1-1.37 3.41 2.51 2.51 0 0 0-.63-.54c1.21-1.37 1.32-3.3 1.32-4.83v-4h8zm-4.58-3v-1.82h-2.63V317zm-2.63-4.35v1.76h2.63v-1.76zm6.41 0h-3v1.76h3zm0 4.35v-1.82h-3V317zM246.51 319.69a6.09 6.09 0 0 0 .94-.13 3.27 3.27 0 0 0 2.76-3.22 3 3 0 0 0-2.9-3.16 24 24 0 0 1-.64 3.14c-.68 2.23-1.55 3.39-2.56 3.39s-1.94-1.13-1.94-2.92a4.64 4.64 0 0 1 4.77-4.43 4 4 0 0 1 4.18 4c0 2.29-1.51 3.82-4.1 4.16zm-.71-3.56a18 18 0 0 0 .6-2.94 3.81 3.81 0 0 0-3.37 3.52c0 1.38.64 2 1.12 2s1.09-.71 1.65-2.58zM258.77 316.33a11 11 0 0 0 4.2 3.45 4.09 4.09 0 0 0-.6.7 12.25 12.25 0 0 1-4.08-3.56v4.16h-.84V317a12 12 0 0 1-4 3.49 5.42 5.42 0 0 0-.6-.67 10.9 10.9 0 0 0 4.18-3.46h-3.93v-.81h4.35v-1.89h-3.56v-.8h3.56V311h.84v1.79H262v.8h-3.67v1.89h4.43v.81zM270.08 316.66a11.1 11.1 0 0 0 4.12 3.34 3.49 3.49 0 0 0-.57.69 12.34 12.34 0 0 1-4.11-3.55v4h-.84v-4a12.19 12.19 0 0 1-4.07 3.49 4.65 4.65 0 0 0-.58-.67 11.07 11.07 0 0 0 4.1-3.27h-3.87v-.78h4.42v-2.74h-3.9v-.78h3.9V311h.84v1.32h4v.78h-4v2.74H274v.78zm-3.69-3.27a7.82 7.82 0 0 1 1 2.06l-.77.29a7.74 7.74 0 0 0-1-2.07zm4.41 2.15a16.07 16.07 0 0 0 1.11-2.19l.84.26a18.16 18.16 0 0 1-1.27 2.16zM277.35 319.46v-5.57h1.89v7.29h-4v-1.72zm1.52 1.36v-6.57h-1.15v5.58h-2.16v1z"/></g></svg>