<svg id="レイヤー_1" xmlns="http://www.w3.org/2000/svg" viewBox="0 0 573.5 432.6"><style>.st0{fill:#959595}.st1{fill:#fff}.st2{fill:#a10000}.st3{fill:#f5f5f5}.st4{fill:#999}.st5{fill:#c00}.st6{fill:#e60000}.st10{fill:#333}</style><path class="st0" d="M253.2 44.1c-.3 0-.5-.2-.5-.5v-2.5c0-.3.2-.5.5-.5s.5.2.5.5v2.5c0 .3-.2.5-.5.5zM253.2 430.9c-.3 0-.5-.2-.5-.5v-5c0-.3.2-.5.5-.5s.5.2.5.5v5c0 .3-.2.5-.5.5zm0-9.9c-.3 0-.5-.2-.5-.5v-5c0-.3.2-.5.5-.5s.5.2.5.5v5c0 .3-.2.5-.5.5zm0-9.9c-.3 0-.5-.2-.5-.5v-5c0-.3.2-.5.5-.5s.5.2.5.5v5c0 .3-.2.5-.5.5zm0-9.9c-.3 0-.5-.2-.5-.5v-5c0-.3.2-.5.5-.5s.5.2.5.5v5c0 .2-.2.5-.5.5zm0-10c-.3 0-.5-.2-.5-.5v-5c0-.3.2-.5.5-.5s.5.2.5.5v5c0 .3-.2.5-.5.5zm0-9.9c-.3 0-.5-.2-.5-.5v-5c0-.3.2-.5.5-.5s.5.2.5.5v5c0 .3-.2.5-.5.5zm0-9.9c-.3 0-.5-.2-.5-.5v-5c0-.3.2-.5.5-.5s.5.2.5.5v5c0 .3-.2.5-.5.5zm0-9.9c-.3 0-.5-.2-.5-.5v-5c0-.3.2-.5.5-.5s.5.2.5.5v5c0 .3-.2.5-.5.5zm0-9.9c-.3 0-.5-.2-.5-.5v-5c0-.3.2-.5.5-.5s.5.2.5.5v5c0 .2-.2.5-.5.5zm0-9.9c-.3 0-.5-.2-.5-.5v-5c0-.3.2-.5.5-.5s.5.2.5.5v5c0 .2-.2.5-.5.5zm0-10c-.3 0-.5-.2-.5-.5v-5c0-.3.2-.5.5-.5s.5.2.5.5v5c0 .3-.2.5-.5.5zm0-9.9c-.3 0-.5-.2-.5-.5v-5c0-.3.2-.5.5-.5s.5.2.5.5v5c0 .3-.2.5-.5.5zm0-9.9c-.3 0-.5-.2-.5-.5v-5c0-.3.2-.5.5-.5s.5.2.5.5v5c0 .3-.2.5-.5.5zm0-9.9c-.3 0-.5-.2-.5-.5v-5c0-.3.2-.5.5-.5s.5.2.5.5v5c.1.3-.2.5-.5.5.1 0 0 0 0 0zm0-9.9c-.3 0-.5-.2-.5-.5v-5c0-.3.2-.5.5-.5s.5.2.5.5v5c0 .2-.2.5-.5.5zm0-10c-.3 0-.5-.2-.5-.5v-5c0-.3.2-.5.5-.5s.5.2.5.5v5c0 .3-.2.5-.5.5zm0-9.9c-.3 0-.5-.2-.5-.5v-5c0-.3.2-.5.5-.5s.5.2.5.5v5c0 .3-.2.5-.5.5zm0-9.9c-.3 0-.5-.2-.5-.5v-5c0-.3.2-.5.5-.5s.5.2.5.5v5c0 .3-.2.5-.5.5zm0-9.9c-.3 0-.5-.2-.5-.5v-5c0-.3.2-.5.5-.5s.5.2.5.5v5c0 .3-.2.5-.5.5zm0-9.9c-.3 0-.5-.2-.5-.5v-5c0-.3.2-.5.5-.5s.5.2.5.5v5c0 .2-.2.5-.5.5zm0-10c-.3 0-.5-.2-.5-.5v-5c0-.3.2-.5.5-.5s.5.2.5.5v5c0 .3-.2.5-.5.5 0 .1 0 .1 0 0zm0-9.9c-.3 0-.5-.2-.5-.5v-5c0-.3.2-.5.5-.5s.5.2.5.5v5c0 .3-.2.5-.5.5zm0-9.9c-.3 0-.5-.2-.5-.5v-5c0-.3.2-.5.5-.5s.5.2.5.5v5c0 .3-.2.5-.5.5zm0-9.9c-.3 0-.5-.2-.5-.5v-5c0-.3.2-.5.5-.5s.5.2.5.5v5c0 .3-.2.5-.5.5zm0-9.9c-.3 0-.5-.2-.5-.5v-5c0-.3.2-.5.5-.5s.5.2.5.5v5c0 .3-.2.5-.5.5zm0-9.9c-.3 0-.5-.2-.5-.5v-5c0-.3.2-.5.5-.5s.5.2.5.5v5c.1.2-.1.5-.5.5.1 0 .1 0 0 0zm0-10c-.3 0-.5-.2-.5-.5v-5c0-.3.2-.5.5-.5s.5.2.5.5v5c0 .3-.2.5-.5.5zm0-9.9c-.3 0-.5-.2-.5-.5v-5c0-.3.2-.5.5-.5s.5.2.5.5v5c0 .3-.2.5-.5.5zm0-9.9c-.3 0-.5-.2-.5-.5v-5c0-.3.2-.5.5-.5s.5.2.5.5v5c0 .3-.2.5-.5.5zm0-9.9c-.3 0-.5-.2-.5-.5v-5c0-.3.2-.5.5-.5s.5.2.5.5v5c0 .3-.2.5-.5.5zm0-9.9c-.3 0-.5-.2-.5-.5v-5c0-.3.2-.5.5-.5s.5.2.5.5v5c0 .2-.2.5-.5.5zm0-10c-.3 0-.5-.2-.5-.5v-5c0-.3.2-.5.5-.5s.5.2.5.5v5c0 .3-.2.5-.5.5zm0-9.9c-.3 0-.5-.2-.5-.5v-5c0-.3.2-.5.5-.5s.5.2.5.5v5c0 .3-.2.5-.5.5zm0-9.9c-.3 0-.5-.2-.5-.5v-5c0-.3.2-.5.5-.5s.5.2.5.5v5c0 .3-.2.5-.5.5zm0-9.9c-.3 0-.5-.2-.5-.5v-5c0-.3.2-.5.5-.5s.5.2.5.5v5c0 .3-.2.5-.5.5zm0-9.9c-.3 0-.5-.2-.5-.5v-5c0-.3.2-.5.5-.5s.5.2.5.5v5c0 .2-.2.5-.5.5zm0-9.9c-.3 0-.5-.2-.5-.5v-5c0-.3.2-.5.5-.5s.5.2.5.5v5c0 .2-.2.5-.5.5zm0-10c-.3 0-.5-.2-.5-.5v-5c0-.3.2-.5.5-.5s.5.2.5.5v5c0 .3-.2.5-.5.5zm0-9.9c-.3 0-.5-.2-.5-.5v-5c0-.3.2-.5.5-.5s.5.2.5.5v5c0 .3-.2.5-.5.5zM253.2 438.4c-.3 0-.5-.2-.5-.5v-2.5c0-.3.2-.5.5-.5s.5.2.5.5v2.5c0 .3-.2.5-.5.5zM413.3 44.1c-.3 0-.5-.2-.5-.5v-2.5c0-.3.2-.5.5-.5s.5.2.5.5v2.5c0 .3-.2.5-.5.5zM413.3 430.9c-.3 0-.5-.2-.5-.5v-5c0-.3.2-.5.5-.5s.5.2.5.5v5c0 .3-.2.5-.5.5zm0-9.9c-.3 0-.5-.2-.5-.5v-5c0-.3.2-.5.5-.5s.5.2.5.5v5c0 .3-.2.5-.5.5zm0-9.9c-.3 0-.5-.2-.5-.5v-5c0-.3.2-.5.5-.5s.5.2.5.5v5c0 .3-.2.5-.5.5zm0-9.9c-.3 0-.5-.2-.5-.5v-5c0-.3.2-.5.5-.5s.5.2.5.5v5c0 .2-.2.5-.5.5zm0-10c-.3 0-.5-.2-.5-.5v-5c0-.3.2-.5.5-.5s.5.2.5.5v5c0 .3-.2.5-.5.5zm0-9.9c-.3 0-.5-.2-.5-.5v-5c0-.3.2-.5.5-.5s.5.2.5.5v5c0 .3-.2.5-.5.5zm0-9.9c-.3 0-.5-.2-.5-.5v-5c0-.3.2-.5.5-.5s.5.2.5.5v5c0 .3-.2.5-.5.5zm0-9.9c-.3 0-.5-.2-.5-.5v-5c0-.3.2-.5.5-.5s.5.2.5.5v5c0 .3-.2.5-.5.5zm0-9.9c-.3 0-.5-.2-.5-.5v-5c0-.3.2-.5.5-.5s.5.2.5.5v5c0 .2-.2.5-.5.5zm0-9.9c-.3 0-.5-.2-.5-.5v-5c0-.3.2-.5.5-.5s.5.2.5.5v5c0 .2-.2.5-.5.5zm0-10c-.3 0-.5-.2-.5-.5v-5c0-.3.2-.5.5-.5s.5.2.5.5v5c0 .3-.2.5-.5.5zm0-9.9c-.3 0-.5-.2-.5-.5v-5c0-.3.2-.5.5-.5s.5.2.5.5v5c0 .3-.2.5-.5.5zm0-9.9c-.3 0-.5-.2-.5-.5v-5c0-.3.2-.5.5-.5s.5.2.5.5v5c0 .3-.2.5-.5.5zm0-9.9c-.3 0-.5-.2-.5-.5v-5c0-.3.2-.5.5-.5s.5.2.5.5v5c0 .2-.2.5-.5.5.1 0 0 0 0 0zm0-9.9c-.3 0-.5-.2-.5-.5v-5c0-.3.2-.5.5-.5s.5.2.5.5v5c0 .2-.2.5-.5.5zm0-10c-.3 0-.5-.2-.5-.5v-5c0-.3.2-.5.5-.5s.5.2.5.5v5c0 .3-.2.5-.5.5zm0-9.9c-.3 0-.5-.2-.5-.5v-5c0-.3.2-.5.5-.5s.5.2.5.5v5c0 .3-.2.5-.5.5zm0-9.9c-.3 0-.5-.2-.5-.5v-5c0-.3.2-.5.5-.5s.5.2.5.5v5c0 .3-.2.5-.5.5zm0-9.9c-.3 0-.5-.2-.5-.5v-5c0-.3.2-.5.5-.5s.5.2.5.5v5c0 .3-.2.5-.5.5zm0-9.9c-.3 0-.5-.2-.5-.5v-5c0-.3.2-.5.5-.5s.5.2.5.5v5c0 .2-.2.5-.5.5zm0-10c-.3 0-.5-.2-.5-.5v-5c0-.3.2-.5.5-.5s.5.2.5.5v5c0 .3-.2.5-.5.5 0 .1 0 .1 0 0zm0-9.9c-.3 0-.5-.2-.5-.5v-5c0-.3.2-.5.5-.5s.5.2.5.5v5c0 .3-.2.5-.5.5zm0-9.9c-.3 0-.5-.2-.5-.5v-5c0-.3.2-.5.5-.5s.5.2.5.5v5c0 .3-.2.5-.5.5zm0-9.9c-.3 0-.5-.2-.5-.5v-5c0-.3.2-.5.5-.5s.5.2.5.5v5c0 .3-.2.5-.5.5zm0-9.9c-.3 0-.5-.2-.5-.5v-5c0-.3.2-.5.5-.5s.5.2.5.5v5c0 .3-.2.5-.5.5zm0-9.9c-.3 0-.5-.2-.5-.5v-5c0-.3.2-.5.5-.5s.5.2.5.5v5c.1.2-.1.5-.5.5.1 0 .1 0 0 0zm0-10c-.3 0-.5-.2-.5-.5v-5c0-.3.2-.5.5-.5s.5.2.5.5v5c0 .3-.2.5-.5.5zm0-9.9c-.3 0-.5-.2-.5-.5v-5c0-.3.2-.5.5-.5s.5.2.5.5v5c0 .3-.2.5-.5.5zm0-9.9c-.3 0-.5-.2-.5-.5v-5c0-.3.2-.5.5-.5s.5.2.5.5v5c0 .3-.2.5-.5.5zm0-9.9c-.3 0-.5-.2-.5-.5v-5c0-.3.2-.5.5-.5s.5.2.5.5v5c0 .3-.2.5-.5.5zm0-9.9c-.3 0-.5-.2-.5-.5v-5c0-.3.2-.5.5-.5s.5.2.5.5v5c0 .2-.2.5-.5.5zm0-10c-.3 0-.5-.2-.5-.5v-5c0-.3.2-.5.5-.5s.5.2.5.5v5c0 .3-.2.5-.5.5zm0-9.9c-.3 0-.5-.2-.5-.5v-5c0-.3.2-.5.5-.5s.5.2.5.5v5c0 .3-.2.5-.5.5zm0-9.9c-.3 0-.5-.2-.5-.5v-5c0-.3.2-.5.5-.5s.5.2.5.5v5c0 .3-.2.5-.5.5zm0-9.9c-.3 0-.5-.2-.5-.5v-5c0-.3.2-.5.5-.5s.5.2.5.5v5c0 .3-.2.5-.5.5zm0-9.9c-.3 0-.5-.2-.5-.5v-5c0-.3.2-.5.5-.5s.5.2.5.5v5c0 .2-.2.5-.5.5zm0-9.9c-.3 0-.5-.2-.5-.5v-5c0-.3.2-.5.5-.5s.5.2.5.5v5c0 .2-.2.5-.5.5zm0-10c-.3 0-.5-.2-.5-.5v-5c0-.3.2-.5.5-.5s.5.2.5.5v5c0 .3-.2.5-.5.5zm0-9.9c-.3 0-.5-.2-.5-.5v-5c0-.3.2-.5.5-.5s.5.2.5.5v5c0 .3-.2.5-.5.5zM413.3 438.4c-.3 0-.5-.2-.5-.5v-2.5c0-.3.2-.5.5-.5s.5.2.5.5v2.5c0 .3-.2.5-.5.5z"/><path class="st1" d="M97.3 49.7H572v22.9H97.3z"/><path class="st2" d="M571.4 50.2V72H97.8V50.2h473.6m1-1H96.8V73h475.7l-.1-23.8z"/><path class="st1" d="M97.3 107.5h149.3v22.9H97.3z"/><path class="st2" d="M246.1 108v21.9H97.8V108h148.3m1-1H96.8v23.9h150.3V107z"/><path class="st3" d="M242.6 32.5H96.8V0h145.8l11.2 16.3z"/><path class="st3" d="M402.5 32.5H252.1l10.7-16.2L252.1 0h150.4l11.2 16.3z"/><path class="st3" d="M562.2 32.5H411.9l10.6-16.2L411.9 0h150.3l11.3 16.3z"/><path class="st1" d="M97.3 313.7h149.3v22.9H97.3z"/><path class="st4" d="M246.1 314.2v21.9H97.8v-21.9h148.3m1-1H96.8v23.9h150.3v-23.9z"/><path class="st1" d="M259.9 107.5h312v22.9h-312z"/><path class="st2" d="M571.4 108v21.9h-311V108h311m1-1h-313v23.9h313V107z"/><path class="st1" d="M259.9 313.7h312v22.9h-312z"/><path class="st4" d="M571.4 314.2v21.9h-311v-21.9h311m1-1h-313v23.9h313v-23.9z"/><path class="st1" d="M259.9 344.3h312v22.9h-312z"/><path class="st4" d="M571.4 344.8v21.9h-311v-21.9h311m1-1h-313v23.9h313v-23.9z"/><path class="st1" d="M259.9 404.6h312v22.9h-312z"/><path class="st4" d="M571.4 405.1V427h-311v-21.9h311m1-1h-313V428h313v-23.9z"/><path class="st1" d="M97.3 167.6h472.8v24.6H97.3z"/><path class="st5" d="M569.6 168.1v23.6H97.8v-23.6h471.8m1-1H96.8v25.6h473.8v-25.6z"/><path class="st1" d="M97.3 261h472.8v24.6H97.3z"/><path class="st6" d="M569.6 261.5v23.6H97.8v-23.6h471.8m1-1H96.8v25.6h473.8v-25.6z"/><path class="st1" d="M337.5 228.6H570v24.6H337.5z"/><path class="st6" d="M569.6 229.1v23.6H338v-23.6h231.6m1-1H337v25.6h233.5l.1-25.6z"/><path class="st1" d="M149 228.6h179.9v24.6H149z"/><path class="st6" d="M328.4 229.1v23.6H149.5v-23.6h178.9m1-1H148.5v25.6h180.9v-25.6z"/><path class="st1" d="M97.3 344.3h149.3v22.9H97.3z"/><path class="st4" d="M246.1 344.8v21.9H97.8v-21.9h148.3m1-1H96.8v23.9h150.3v-23.9z"/><path class="st1" d="M97.3 374.9h310v22.9h-310z"/><path class="st4" d="M406.7 375.4v21.9h-309v-21.9h309m1.1-1h-311v23.9h311v-23.9z"/><path class="st1" d="M97.3 404.6h149.3v22.9H97.3z"/><path class="st4" d="M246.1 405.1V427H97.8v-21.9h148.3m1-1H96.8V428h150.3v-23.9z"/><linearGradient id="SVGID_1_" gradientUnits="userSpaceOnUse" x1="1133.47" y1="527.11" x2="1133.47" y2="501.9" gradientTransform="translate(-797.27 -367.22)"><stop offset="0" stop-color="#fff"/><stop offset="1" stop-color="#aaa"/></linearGradient><path fill="url(#SVGID_1_)" d="M336.2 133.8l-19.9 16h12.6v10.8h14.6v-10.8h12.6z"/><linearGradient id="SVGID_2_" gradientUnits="userSpaceOnUse" x1="1133.47" y1="469.25" x2="1133.47" y2="444.04" gradientTransform="translate(-797.27 -367.22)"><stop offset="0" stop-color="#fff"/><stop offset="1" stop-color="#aaa"/></linearGradient><path fill="url(#SVGID_2_)" d="M336.2 76l-19.9 16h12.6v10.8h14.6V92h12.6z"/><linearGradient id="SVGID_3_" gradientUnits="userSpaceOnUse" x1="1133.47" y1="589.21" x2="1133.47" y2="564" gradientTransform="translate(-797.27 -367.22)"><stop offset="0" stop-color="#fff"/><stop offset="1" stop-color="#aaa"/></linearGradient><path fill="url(#SVGID_3_)" d="M336.2 195.9l-19.9 16h12.6v10.8h14.6v-10.8h12.6z"/><path class="st4" d="M0 312.8h89.1V428H0z"/><path class="st6" d="M0 228.1h89.1v58.1H0z"/><path class="st5" d="M0 166.9h89.1v25.6H0z"/><path class="st2" d="M0 48.3h89.1V130H0z"/><path class="st1" d="M31.3 92.7c.9 1.3 2.6 2 4.8 2.3-.3.3-.6.7-.8 1.1-2.6-.4-4.4-1.5-5.4-3.4-.7 1.3-2.2 2.5-5.2 3.3-.2-.4-.5-.7-.8-1 2.5-.6 3.8-1.5 4.5-2.4h-4.3v-1.1H29c.1-.4.2-.7.2-1.1h-3.6v-1h3.6v-1h-3.8v-.8h-1.1V85h5v-1.3h1.3V85h5v2.7h-1v.8h-4v1h3.8v1h-3.9c0 .4-.1.7-.2 1.1H36v1.1h-4.7zm-1.9-5.3v-1h1.3v1h3.8v-1.3h-8.8v1.3h3.7zM43.9 94.2c-1.8.5-3.7 1-5.2 1.3l-.3-1.2.6-.1v-4.6h1V94l.7-.2v-5.3H39v-4.3h4.3v4.2h-1.4v1.8h1.7v1.1h-1.7v2.2l1.8-.4.2 1.1zm-3.7-6.8h2.1v-2.1h-2.1v2.1zm10.1 4.3c-.5.8-1.2 1.5-2 2.1.4.7.8 1.2 1.2 1.2s.4-.4.5-1.7c.3.3.6.5 1 .7-.2 1.8-.6 2.3-1.6 2.3s-1.6-.6-2.1-1.7c-1.1.6-2.2 1.2-3.4 1.5-.2-.4-.5-.7-.8-1 1.3-.4 2.5-.9 3.7-1.6-.2-.7-.4-1.4-.5-2.2l-2.4.3-.1-1.1 2.3-.3c0-.3-.1-.7-.1-1.1l-1.8.2-.1-1 1.8-.2c0-.3 0-.7-.1-1l-2 .2-.1-1.1 2-.2v-2.2H47v2.1l2.3-.2c-.5-.4-1.1-.8-1.8-1.1l.7-.8c.7.3 1.3.7 1.9 1.1l-.6.8.7-.1.1 1.1-3.3.2c0 .3 0 .7.1 1l2.9-.3.1 1-2.9.4c0 .4.1.7.1 1.1l3.3-.3.1 1-3.2.2c.1.5.2 1 .4 1.5.5-.4.9-.9 1.3-1.4l1.1.6zM64.7 86.6v.6c-.3 5.5-.6 7.5-1.2 8.2-.3.4-.8.6-1.2.6-.7.1-1.4.1-2.2 0-.1-.5-.2-.9-.5-1.3.9.1 1.7.1 2.1.1.2 0 .5 0 .6-.2.5-.4.7-2.3 1-6.7H59c-.1 3.5-1.9 6.6-5 8.3-.3-.4-.6-.7-1-1 2.7-1.4 4.5-4.2 4.6-7.3h-4.2v-1.3h4.3v-2.8H59v2.8h5.7zM16.3 182.6c-.4-.6-.9-1.1-1.4-1.6v5.5h-1.2v-4.9c-.5.5-1.1 1-1.7 1.4l-.6-1.2c1.6-1 2.9-2.4 3.8-4.1h-3.3v-1.1h1.9v-2.5H15v2.5h1l.7.5c-.4 1-.9 1.9-1.5 2.8.6.5 1.6 1.5 1.9 1.8l-.8.9zm6.4 2.7c.3 0 .3-.2.4-1.6.3.2.6.4 1 .4-.1 1.7-.4 2.1-1.2 2.1h-1.1c-1 0-1.3-.3-1.3-1.4v-2.6h-.9c-.2 1.9-.9 3.4-3 4.2-.2-.4-.4-.7-.7-1 1.5-.4 2.5-1.7 2.5-3.2h-1v-7.5h5.8v7.5h-1.5v2.6c0 .3 0 .4.3.4l.7.1zm-4.2-8.3h3.4v-1.2h-3.4v1.2zm0 2.1h3.4v-1.2h-3.4v1.2zm0 2.2h3.4v-1.2h-3.4v1.2zM29 184.4l2.6-.3v1.1c-2.3.4-4.8.7-6.5.9l-.1-1.2c.7-.1 1.7-.2 2.7-.3v-1.7h-2.3v-1.1h2.3v-1.3h-2.3V175h5.9v5.5H29v1.3h2.3v1.1H29v1.5zm-2.5-7.4h1.4v-1.3h-1.4v1.3zm0 2.2h1.4V178h-1.4v1.2zm3.8-3.5H29v1.3h1.3v-1.3zm0 2.3H29v1.3h1.3V178zm7.3 1.2c-.3 1.1-.6 2.2-1.1 3.3l-1-.3c.2-.7.4-1.3.6-2h-1.3v4.8c0 .6-.1 1-.6 1.2-.7.2-1.4.3-2.2.2-.1-.4-.2-.8-.4-1.2h1.6c.2 0 .3 0 .3-.2v-4.8h-2V179h3.2c-.8-.7-1.7-1.2-2.7-1.7l.8-.8c.4.2.8.4 1.3.7.4-.4.9-.9 1.2-1.4h-3.6v-1.1h4.5l.3-.1.8.6c-.6 1-1.4 1.8-2.2 2.6.4.3.8.6 1.1.9l-.2.3h.8l.8.2zM44.8 178.7c.9 0 1.6.7 1.6 1.6 0 .9-.7 1.6-1.6 1.6-.9 0-1.6-.7-1.6-1.6 0-.9.7-1.6 1.6-1.6zM56.8 182.6c-.4-.6-.9-1.1-1.4-1.6v5.5h-1.2v-4.9c-.5.5-1.1 1-1.7 1.4l-.6-1.2c1.6-1 2.9-2.4 3.8-4.1h-3.3v-1.1h1.8v-2.5h1.2v2.5h1.1l.7.5c-.4 1-.9 1.9-1.5 2.8.6.5 1.6 1.5 1.9 1.8l-.8.9zm6.4 2.7c.3 0 .3-.2.3-1.6.3.2.6.4 1 .4-.1 1.7-.4 2.1-1.2 2.1h-1.1c-1 0-1.3-.3-1.3-1.4v-2.6h-1c-.2 1.9-.9 3.4-3 4.2-.2-.4-.4-.7-.7-1 1.5-.4 2.5-1.7 2.5-3.2h-1v-7.5h5.8v7.5H62v2.6c0 .3 0 .4.3.4l.9.1zM59 177h3.4v-1.2H59v1.2zm0 2.1h3.4v-1.2H59v1.2zm0 2.2h3.4v-1.2H59v1.2zM67.8 179.1c0 2.1-.2 5.3-1.3 7.3-.3-.3-.6-.5-1-.7 1-1.9 1.1-4.7 1.1-6.6v-3.7h5v-1.3h1.3v1.3h5v1.2H67.8v2.5zm5.6 6h4.5v1.1H67.7v-1.1h4.4v-1.7h-3.5v-1.1h3.5v-5.2h1.2v3.7c1-.9 1.6-2.1 1.8-3.4l1.1.1c-.1.5-.2 1.1-.4 1.6l2.1 1.8-.8.9c-.5-.6-1.1-1.2-1.7-1.7-.3.6-.8 1.2-1.3 1.6-.2-.2-.5-.4-.7-.6v1.3h3.7v1.1h-3.7v1.6zm-2.5-7.7c-.1.6-.2 1.1-.4 1.7.6.5 1.1 1 1.5 1.6l-.7.8c-.4-.5-.8-.9-1.3-1.4-.3.7-.8 1.2-1.3 1.7-.3-.3-.6-.5-.9-.7 1.1-.9 1.8-2.3 1.9-3.7h1.2zM30 252.8c-.1.1-.3.3-.4.5a20.7 20.7 0 0 1-4.8 5.4c.8.8 1.7 1.7 2.2 2.4l-1.2 1c-.8-1-1.6-1.9-2.5-2.8s-1.9-1.8-3-2.6l1.1-.9c.5.4 1.5 1.2 2.4 2 1.5-1.2 2.9-2.7 3.9-4.3h-7.6c-.5 0-1.2.1-1.5.1V252c.5.1 1 .1 1.5.1h7.8c.3 0 .7 0 1-.1l1.1.8zM39 260.3c0 .5 0 1.1.1 1.6h-1.7c.1-.5.1-1.1.1-1.6v-4.8c-1.6.8-3.2 1.5-4.9 2l-.8-1.3c2.1-.5 4.2-1.3 6.1-2.5 1.3-.8 2.5-1.8 3.5-3l1.2 1c-1.1 1.1-2.3 2.1-3.6 2.9v5.7zM51.4 258.5c2-1.2 3.6-3 4.7-5.1l.8 1.5c-1.2 2-2.8 3.7-4.7 4.9-1.6 1-3.3 1.7-5.2 2l-.9-1.4c1.8-.3 3.7-1 5.3-1.9zm-.5-4.4l-1.1 1.1c-1.1-1-2.2-2-3.4-2.9l1-1.1c1.3 1 2.5 1.9 3.5 2.9zM63.2 254.6c2 .6 3.9 1.3 5.8 2.2l-.6 1.5c-1.7-.8-3.4-1.5-5.1-2.1v4.2c0 .4 0 1.2.1 1.7h-1.7c.1-.6.1-1.2.1-1.7v-7.8c0-.5 0-1-.1-1.5h1.7c0 .4-.1 1-.1 1.5l-.1 2zm3.9-.6c-.3-.7-.7-1.4-1.2-2.1l.9-.4c.5.6.9 1.3 1.2 2l-.9.5zm1.8-.7c-.4-.7-.8-1.4-1.2-2l.9-.4c.5.6.9 1.3 1.3 2l-1 .4zM33.3 361.1c0 .3-.1.5-.1.8.7.7 2.2 2.4 2.6 2.9l-.9 1.1c-.6-.9-1.3-1.8-2.1-2.7-.5 1.5-1.4 2.8-2.7 3.8-.2-.4-.5-.7-.9-1 1.6-1.1 2.6-2.9 2.7-4.8h-2.6V360H32v-2.4h-.8c-.3.7-.6 1.4-1 2-.3-.3-.6-.5-1-.7.8-1.2 1.4-2.7 1.6-4.1l1.2.2c-.1.5-.2 1-.4 1.5h3.7v1.2h-2v2.4h2.4v1.2l-2.4-.2zm7.8-5.4v10.7h-1.3v-.9h-2.5v1h-1.2v-10.8h5zm-1.3 8.7v-7.5h-2.5v7.5h2.5zM47.8 357.8h-4.2v-1h4.2v1zm-.3 8.4h-2.4v.6h-1v-4.5h3.4v3.9zm0-6.6h-3.3v-1h3.3v1zm-3.3.8h3.3v1h-3.3v-1zm3.3-4.4h-3.2v-1h3.2v1zm-2.3 7.3v1.9h1.4v-1.9h-1.4zm10.5-2.1c-.4 1.1-.9 2.1-1.5 3 .2.9.5 1.4.8 1.4s.4-.6.5-1.7c.2.3.5.5.8.7-.3 1.9-.8 2.4-1.3 2.4-.8 0-1.3-.7-1.6-1.8-.6.7-1.3 1.2-2 1.7-.2-.3-.4-.5-.7-.7.4-.2.8-.5 1.1-.8h-2.5v.6h-1v-5.2H52v4.3c.4-.4.7-.7 1-1.2-.2-1.3-.3-2.6-.4-3.9h-5v-1h3.7l-.8-.2c.2-.7.3-1.3.4-2l1 .2c-.2.7-.4 1.5-.5 1.9h1.3v-4.5h1.1v4.5H56v1h-2.3c0 1 .1 1.8.2 2.5.3-.6.6-1.3.8-2l1 .8zm-3.4-4.3H48v-1h1.6v-1.4h1.2v1.5h1.6l-.1.9zm-3 .1c.2.6.4 1.2.4 1.9l-.9.2c0-.6-.1-1.3-.4-1.9l.9-.2zm0 4.7v.9H51v-.9h-1.7zm1.7 2.8v-1h-1.7v1H51zm4.1-6.4c-.3-.9-.7-1.7-1.2-2.4l1-.4c.6.7 1 1.5 1.3 2.4l-1.1.4zM61.5 359.2c.9 0 1.6.7 1.6 1.6s-.7 1.6-1.6 1.6c-.9 0-1.6-.7-1.6-1.6s.7-1.6 1.6-1.6zM36.2 375.7c-.1.2-.3.5-.4.7-.6 1.4-1.3 2.7-2.2 3.8 1.4 1.2 2.7 2.6 3.9 4l-1.2 1c-1.1-1.4-2.3-2.7-3.6-3.9-1.5 1.6-3.2 2.9-5.2 3.9l-1.1-1.1c2.1-.9 4-2.3 5.6-4 .9-1 1.7-2.3 2.1-3.6h-5c-.5 0-1.3.1-1.5.1v-1.5c.5.1 1 .1 1.5.1h5c.4 0 .8 0 1.2-.1l.9.6zM50.4 380.6c-.3 0-.8.1-1.3.2l-3.1.5c.2 1.2.4 2.2.5 2.6s.2.9.3 1.3l-1.5.3c-.1-.5-.1-.9-.2-1.3s-.3-1.4-.5-2.6c-1.5.2-2.8.5-3.5.6s-1 .2-1.3.3l-.3-1.4c.3 0 .9-.1 1.3-.1l3.5-.5-.5-2.5-2.8.5c-.5.1-.8.2-1.2.2l-.3-1.6 1.2-.1c.5 0 1.6-.2 2.8-.4-.1-.7-.2-1.2-.3-1.4-.1-.3-.2-.7-.3-1l1.5-.2c0 .3.1.7.2 1s.1.7.3 1.4c1.2-.2 2.4-.4 2.9-.5s.8-.2 1.1-.3l.3 1.4-1.1.1-2.9.5.5 2.5 3.2-.5c.5-.1 1-.2 1.3-.3l.2 1.3zM52.4 384.4c1.1-.8 1.9-2 2.3-3.3.3-1.8.5-3.6.4-5.4 0-.4 0-.7-.1-1.1h1.6c0 .1-.1.6-.1 1.1.1 1.9-.1 3.9-.4 5.8-.4 1.5-1.2 2.8-2.4 3.8l-1.3-.9zm6.2.1c.1-.3.1-.6.1-.9v-8c0-.4 0-.7-.1-1.1h1.6c0 .4-.1.7-.1 1.1v7.5c1.5-.7 2.7-1.8 3.7-3.1l.8 1.2c-1.3 1.6-2.8 2.8-4.6 3.7-.2.1-.4.2-.5.3l-.9-.7z"/><path class="st2" d="M239 64.8c-.4-.5-.9-.9-1.4-1.3v3h-.9v-3.2c-.5.9-1.2 1.7-2 2.3-.2-.2-.4-.5-.6-.7 1-.7 1.8-1.6 2.4-2.7h-2.1v-.8h2.3v-1.3h-2.4v-.8h5.6v.8h-2.3v1.3h2.2v.8h-2.2v.3c.4.3 1.6 1.3 1.9 1.5l-.5.8zm.8-7.2h-5.3v-.7h2.2v-1.2h.9v1.2h2.2v.7zm-4 2c-.1-.6-.2-1.2-.5-1.7l.7-.2c.2.5.4 1.1.5 1.7l-.7.2zm2-.2c.3-.6.5-1.1.6-1.7l.8.2c-.2.6-.4 1.1-.7 1.7l-.7-.2zm7.5 1.1H244v6h-.9v-6h-1.8v.3c0 1.8-.2 4.2-1.9 5.9-.2-.2-.4-.5-.6-.6 1.5-1.5 1.7-3.6 1.7-5.3v-4.2l.6.2c1.1-.2 2.3-.5 3.3-1l.7.7c-1.2.5-2.5.9-3.9 1.1v2.1h4l.1.8zM251.5 64.8c-.3-.4-1-1.3-1.6-2-.2 1.4-1 2.7-2.1 3.7-.2-.2-.4-.5-.6-.7 1.3-1.2 2.1-2.9 2-4.6h-1.9v-.8h2v-2h-1.7v-.8h1.7v-1.9h.8v1.9h1.7v.8h-1.7v2h1.9v.8h-1.9c0 .2 0 .5-.1.7.5.5 1.8 1.9 2.1 2.3l-.6.6zm5.8.8c.3 0 .3-.2.3-1.6.2.2.5.3.8.3-.1 1.6-.3 2-1 2h-1c-.8 0-1-.3-1-1.1v-2.5h-1.1c0 1.8-1.2 3.3-2.9 3.8-.1-.3-.3-.5-.5-.7 1.5-.4 2.5-1.7 2.5-3.2h-1V56h5.1v6.6h-1.4v2.5c0 .3 0 .3.3.3h.9v.2zm-4-7.5h3.4v-1.2h-3.4v1.2zm0 1.9h3.4v-1.2h-3.4V60zm0 1.9h3.4v-1.2h-3.4v1.2zM271.1 63.2h-1.2v2.1h-.9v-.5h-2.9v.8c0 .6-.2.8-.5.9-.7.1-1.3.2-2 .2-.1-.3-.2-.5-.3-.8h1.6c.2 0 .3-.1.3-.3v-.8h-3.9V64h3.9v-.9h-4.9v-.7h4.9v-.8h-3.7V61h3.8v-.8h-3.4V58h3.4v-.7h-4.7v-.7h4.7v-1h.9v1h4.8v.7h-4.8v.7h3.6v2.1h-3.6v.9h3.8v1.5h1.2l-.1.7zm-5.8-3.7v-.9h-2.6v.9h2.6zm.8-.9v.9h2.7v-.9h-2.7zm0 3.9h2.9v-.8h-2.9v.8zm2.9.7h-2.9v.9h2.9v-.9zM280 63.7c1.3.9 2.7 1.6 4.3 1.9-.2.2-.4.5-.6.8-1.7-.5-3.2-1.3-4.5-2.5v2.6h-.9V64c-1.3 1.1-2.8 1.9-4.5 2.4-.2-.3-.3-.5-.6-.8 1.5-.3 3-1 4.2-1.9h-3.9V63h4.7v-.9h-3.6v-.7h3.6v-.9H274v-.7h2.6c-.1-.4-.3-.8-.6-1.2l.4-.1h-2.9v-.8h1.9c-.3-.6-.6-1.2-1-1.7l.8-.3c.4.5.7 1.1 1 1.8l-.6.2h1.5v-2.2h.9v2.1h1.4v-2.1h.8v2.1h1.5l-.4-.1.9-1.8.9.2c-.3.6-.7 1.2-1.1 1.7h1.9v.8h-2.4c-.2.4-.5.9-.8 1.3h2.7v.7H279v.9h3.8v.7H279v1h4.8v.8l-3.8-.1zm-3-5.2c.3.4.5.8.6 1.2l-.4.1h2.8-.1c.2-.4.4-.8.6-1.3H277zM297 65.2v.8h-10.7v-.9h6.1c.7-1.9 1.2-3.8 1.6-5.7l1 .2c-.5 1.9-1 3.8-1.7 5.6h3.7zm-.3-6.4h-9.9V58h4.5v-2.4h.9V58h4.6l-.1.8zm-7.3 5.8c-.1-1.7-.5-3.3-1.1-4.9l.8-.2c.6 1.6 1 3.2 1.2 4.9l-.9.2zM305.8 63.6c1.3 1 2.8 1.7 4.5 2-.2.2-.4.5-.6.8-1.7-.5-3.3-1.3-4.7-2.6v2.7h-.9v-2.6c-1.3 1.2-2.8 2-4.5 2.5-.2-.3-.3-.5-.6-.7 1.6-.3 3.1-1.1 4.4-2.1h-4.1v-.7h4.9v-1h.8v1h5v.7h-4.2zm-4.7-3c.3-.4.7-.9 1.1-1.3h-2.7v-.7h3.2c.3-.4.6-.8.8-1.1l.8.2-.6.9h6.1v.7h-2.3c-.3.6-.7 1.2-1.3 1.6 1.2.3 2.3.6 3 .9l-.5.7c-1.1-.4-2.2-.8-3.4-1.1-1.7.6-3.4 1-5.2 1-.1-.3-.2-.5-.3-.7 1.4-.1 2.9-.3 4.2-.6-.7-.2-1.3-.3-1.9-.5l-.2.3-.8-.3zm-.6-2.4h-.8v-1.7h4.5v-.9h.8v.9h4.6v1.7h-.9v-1h-8.4l.2 1zm2.7 1c-.2.3-.4.5-.6.8.8.2 1.7.3 2.6.6.6-.3 1.1-.8 1.4-1.3l-3.4-.1zM318.3 56.1h.8l-3.6 11.7h-.8l3.6-11.7zM333.5 57.2v9.3h-.9v-.6h-6.4v.7h-.9v-9.3h3c.2-.5.3-1.1.5-1.6l1 .1-.6 1.5 4.3-.1zm-7.4.9v1.8h6.4v-1.8h-6.4zm0 2.6v1.7h6.4v-1.7h-6.4zm6.4 4.4v-1.8h-6.4v1.8h6.4zM341.2 63.1l-1.5-1.5v5h-.9v-4.7c-.5.6-1.2 1-1.8 1.5-.1-.3-.3-.5-.5-.8 1.6-1 2.9-2.3 3.8-3.9H337v-.8h1.9v-2.2h.9v2.2h1.2l.5.3c-.4.9-.9 1.8-1.5 2.6.6.4 1.6 1.4 1.9 1.6l-.7.7zm6.6 2.2v.9h-6.7v-.9h3v-5h-2.6v-.9h2.6v-3.8h.9v3.8h2.6v.9H345v5h2.8zM353.9 58.3h-4.2v-.7h4.2v.7zm-.3 7.6H351v.6h-.8v-4h3.4v3.4zm0-6h-3.4v-.7h3.4v.7zm-3.4.9h3.4v.7h-3.4v-.7zm3.4-4h-3.3V56h3.3v.8zm-2.6 6.3v2h1.9v-2H351zm7.2-.6c.7 1.1 1.6 2 2.6 2.7-.2.2-.4.4-.6.7-1-.8-1.8-1.7-2.5-2.8v3.4h-.9v-3.3c-.7 1.1-1.6 2.1-2.6 2.8-.2-.2-.4-.5-.6-.7 1.1-.7 2.1-1.6 2.8-2.8H354v-.8h2.8v-1h-2.4v-4.6h5.6v4.6h-2.4v1h2.8v.8h-2.2zm-2.8-4.4h1.6v-1.2h-1.6v1.2zm0 2h1.6v-1.3h-1.6v1.3zm4-3.2h-1.6v1.2h1.6v-1.2zm0 1.9h-1.6V60h1.6v-1.2zM365.9 65.1c1.2.4 2.4.6 3.6.5h4.2c-.1.2-.3.5-.3.8h-3.9c-2.6 0-4.4-.3-5.5-1.9-.1.8-.4 1.5-.9 2.2-.2-.2-.3-.4-.6-.6.7-.9.9-2.5 1-3.9h.7c0 .5 0 .9-.1 1.4.2.5.5.9.9 1.2v-3.2h-2.4v-.7h5.4v.7h-2.2v1.3h2v.7h-2l.1 1.5zm1.5-5.3h-4v-3.7h4v3.7zm-.8-3h-2.3v.9h2.3v-.9zm0 1.5h-2.3v.9h2.3v-.9zm3.6 5.2c-.6.7-1.3 1.3-2.1 1.8l-.6-.6c.8-.3 1.4-.8 2-1.4l.7.2zm-.2-5.7l.3-.9H368v-.7h5.4v.7H371l-.3.9h2.3v5.3h-4.5v-5.3h1.5zm2.1.6h-2.9v.9h2.9v-.9zm0 1.6h-2.9v.9h2.9V60zm0 1.5h-2.9v.9h2.9v-.9zm-.3 1.7c.7.4 1.3.9 1.9 1.5l-.6.4c-.5-.6-1.2-1.1-1.8-1.6l.5-.3zM383.5 57c-.1 1.4-1 2.6-2.3 3.2-.1-.2-.3-.4-.5-.6v6c0 .4-.1.7-.4.8-.5.1-1.1.2-1.6.2-.1-.3-.2-.5-.3-.8h1.3c.2 0 .2-.1.2-.2v-2.2H377c-.1 1.1-.4 2.2-.9 3.2-.2-.2-.4-.3-.6-.4.7-1.4 1-2.9.9-4.4v-2.2l-.3.3c-.2-.2-.4-.4-.7-.5.9-1.1 1.6-2.4 1.9-3.8l.8.2-.3.9h1.5l.7.3c-.2.6-.5 1.1-.8 1.7h1.5v1c1.1-.5 1.9-1.5 2-2.6h-1.6v-.8h5.2v.3c-.1 2-.2 2.7-.5 3-.2.2-.4.3-.6.3H384c0-.3-.1-.5-.2-.7h1.1c.2 0 .3 0 .3-.1.2-.7.4-1.4.3-2.1h-2zm-5.8.4c-.2.4-.4.8-.6 1.3h1.4c.2-.4.4-.8.5-1.3h-1.3zm-.5 4.4v.9h1.1v-1.4h-1.1v.5zm0-1.1h1.1v-1.3h-1.1v1.3zm1.7 0h1.1v-1.3h-1.1v1.3zm1.1 2v-1.4h-1.1v1.4h1.1zm6.6 1.6h-2.3v2.2h-.9v-2.2H381v-.8h2.5V62h-1.3l-.6 1.2c-.2-.1-.5-.3-.7-.4.6-.8.9-1.7 1.1-2.7l.8.2c-.1.3-.1.6-.3 1h1V60h.9v1.2h2.1v.8h-2.1v1.5h2.3l-.1.8zM390.7 60.9c-.7-.5-1.4-1-2.2-1.3l.5-.7c.8.3 1.5.7 2.2 1.2l-.5.8zm.9 1.6c-.6 1.3-1.3 2.8-2 3.9l-.8-.6c.8-1.2 1.5-2.5 2.1-3.8l.7.5zm-.3-4.8c-.6-.5-1.4-1-2.1-1.3l.5-.6c.8.3 1.5.7 2.2 1.3l-.6.6zm4.9 4.2c.5 1.8 1.7 3.2 3.4 3.9-.2.2-.5.5-.6.8-1.8-.8-3.1-2.4-3.6-4.3-.4 1.9-1.7 3.5-3.5 4.3-.2-.2-.4-.4-.7-.6 1.7-.7 3-2.2 3.4-4h-2.8v-.8h3c0-.5.1-.9.1-1.4v-1.4h-2.4v-.8h2.4v-1.9h.9v1.9h2.9v3.5h1v.8h-3.5zm-.6-2.2v1.4h2.1v-2.7h-2l-.1 1.3zM405.1 59.8c.7 0 1.3.6 1.3 1.3s-.6 1.3-1.3 1.3c-.7 0-1.3-.6-1.3-1.3 0-.7.6-1.3 1.3-1.3zM413.8 61.6c-.4.2-.9.3-1.3.5v3.4c0 .5-.1.7-.4.9-.5.2-1 .2-1.5.2-.1-.3-.1-.6-.3-.8h1.1c.1 0 .2 0 .2-.2v-3.1c-.5.2-1 .3-1.4.5l-.2-.9c.4-.1 1-.3 1.6-.5V59h-1.5v-1h1.5v-2.4h.8V58h1.3v.8h-1.3v2.4l1.2-.4.2.8zm4 3.9c.4 0 .7.1 1.1.1h2.3c-.1.2-.2.5-.3.8h-2.1c-1.7 0-3-.3-3.8-2-.3.8-.8 1.6-1.4 2.2-.2-.2-.4-.4-.7-.6 1.1-1 1.8-2.5 1.8-4l.8.1c-.1.4-.1.9-.2 1.3.2.9.8 1.6 1.6 1.9v-3.8h-3v-.8h6.8v.8h-3v1.4h2.5v.7h-2.5v1.9h.1zm2.4-5.6h-5.6V56h5.6v3.9zm-.8-3.2h-4v1h4v-1zm0 1.6h-4v1h4v-1zM434 57.9v.8h-10.7v-.8H434zm-9 4.9h7.2v3.7h-.9V66h-5.4v.5h-.9v-3.7zm7.1-2.5h-6.9v-.8h6.9v.8zm-7 .9h6.9v.7h-6.9v-.7zm6.8-4.2h-6.6v-.7h6.6v.7zm-6 6.6v1.7h5.4v-1.7h-5.4z"/><path class="st5" d="M162.1 181.3c-.1 1-.4 2-.9 3-.2-.1-.4-.3-.7-.3.4-.9.7-1.9.8-2.9l.8.2zm1.3-1v5h-.8v-4.9l-1.9.1-.1-.8h.8c.3-.3.5-.7.8-1.1-.5-.6-1-1.2-1.6-1.7l.5-.6c.1.1.2.2.4.3.4-.7.8-1.5 1.1-2.2l.8.3c-.4.8-.9 1.6-1.4 2.4.3.3.5.5.7.8.5-.7.9-1.5 1.2-2.1l.8.3c-.7 1.2-1.5 2.4-2.4 3.6l1.8-.1c-.2-.4-.4-.7-.6-1.1l.6-.3c.5.8.9 1.6 1.1 2.4l-.7.3c-.1-.2-.1-.5-.2-.7l-.9.1zm1 .8c.3.7.6 1.4.8 2.2l-.7.2c-.2-.8-.4-1.5-.7-2.2l.6-.2zm4.3 3h2.9v.8h-6.8v-.8h3v-2h-2.3v-.8h2.3v-1.7h.9v1.7h2.4v.8h-2.4v2zm2.4-8.9c-.4 1.2-1.2 2.3-2.1 3.1.9.6 1.8 1 2.8 1.2-.2.2-.4.5-.6.7-1.1-.3-2.1-.7-2.9-1.4-.9.6-1.9 1.1-2.9 1.4-.1-.3-.3-.5-.5-.7 1-.3 1.9-.7 2.7-1.2-.7-.7-1.3-1.5-1.7-2.4l.5-.2h-1.2v-.7h5.4l.5.2zm-4.4.6c.4.8.9 1.4 1.6 2 .7-.6 1.2-1.2 1.6-2h-3.2zM183.2 176.3v2.3h-.9V177h-8.2v1.6h-.8v-2.3h1.7c-.3-.5-.6-1-1-1.4l.8-.3c.4.5.8 1 1.1 1.6l-.4.2h2.3c-.2-.6-.5-1.1-.9-1.6l.8-.3c.4.5.7 1.1.9 1.7l-.6.2h2.2c.5-.6.9-1.2 1.2-1.8l.9.3-1.2 1.5 2.1-.1zm-4.7 4.4c-.1.3-.3.7-.4 1h4.2v3.6h-.9v-.4H175v.5h-.8v-3.7h3c.1-.3.2-.6.3-1h-2.4V178h6.3v2.8l-2.9-.1zm3 1.8h-6.4v1.6h6.4v-1.6zm-5.6-2.5h4.6v-1.4h-4.6v1.4zM193.9 181.3c-1.5-.8-3.1-1.4-4.7-1.9v4c0 .5 0 .9.1 1.4h-1.1c0-.5.1-.9.1-1.4v-7c0-.4 0-.8-.1-1.3h1.2c0 .4-.1.9-.1 1.3v2c1.8.5 3.5 1.2 5.1 2l-.5.9zM198.8 184c.1-.2.1-.4.1-.6v-6.9c0-.4 0-.7-.1-1.1h1.1c-.1.4-.1.7-.1 1.1v6.8c2.6-.7 4.8-2.1 6.6-4.1l.5.8c-1.8 2.1-4.3 3.6-7 4.3-.2 0-.3.1-.5.2l-.6-.5zM214.7 181.9c1.7-1.1 3.1-2.6 4-4.4l.6 1c-1 1.7-2.3 3.2-4 4.3-1.4.9-3 1.6-4.7 1.9l-.6-1c1.6-.3 3.2-.9 4.7-1.8zm-.8-3.8l-.8.8c-.9-.9-1.9-1.7-3-2.5l.7-.7c1.2.7 2.2 1.5 3.1 2.4zM224.4 178.5c1.8.5 3.5 1.2 5.1 2l-.4 1c-1.5-.8-3.1-1.4-4.7-1.9v3.9c0 .5 0 .9.1 1.4h-1.1c0-.4.1-1 .1-1.4v-7c0-.4 0-.8-.1-1.3h1.2c0 .4-.1.9-.1 1.3v2h-.1zm3.6-.6c-.3-.6-.7-1.2-1.1-1.8l.7-.3c.4.6.8 1.2 1.1 1.8l-.7.3zm1.5-.6c-.3-.6-.7-1.2-1.1-1.8l.7-.3c.4.6.8 1.2 1.1 1.8l-.7.3zM237.1 179.9c0-2.1.9-4.2 2.4-5.7l.7.4c-2.9 2.9-3 7.7-.1 10.6l.1.1-.7.4c-1.5-1.6-2.4-3.7-2.4-5.8zM251.7 180.7c-.3 1.1-.9 2-1.8 2.8.7.5 1.5.9 2.4 1.1-.2.2-.4.4-.5.7-.9-.3-1.8-.7-2.5-1.3-.7.5-1.5 1-2.4 1.3-.1-.2-.3-.5-.5-.7v.8h-.9v-1.2l-4 .5-.1-.8c.3 0 .7-.1 1.1-.1v-4h-1v-.8H252v.7h-5.6v4.9c.8-.2 1.6-.6 2.3-1.1-.6-.6-1-1.3-1.3-2.1l.5-.1h-1v-.7h4.3l.5.1zm-1-2.4H243v-3.5h7.7v3.5zm-7.3 1.4v.8h2.2v-.8h-2.2zm0 2.3h2.2v-.8h-2.1l-.1.8zm0 1.7c.7-.1 1.4-.1 2.2-.2v-.7h-2.1l-.1.9zm6.4-8.3h-6v.8h6v-.8zm0 1.4h-6v.8h6v-.8zm-1.7 4.4c.3.7.7 1.3 1.2 1.8.5-.5 1-1.1 1.3-1.8h-2.5zM258 183.6c-.4-.5-.9-.9-1.4-1.3v3h-.9v-3.1c-.5.9-1.2 1.7-2 2.3-.2-.2-.4-.5-.6-.6 1-.7 1.8-1.6 2.4-2.7h-2.1v-.8h2.3v-1.3h-2.4v-.8h5.6v.8h-2.3v1.3h2.2v.8h-2.2v.3c.5.3 1.6 1.3 1.9 1.5l-.5.6zm.8-7.2h-5.3v-.7h2.2v-1.2h.9v1.2h2.2v.7zm-4 2c-.1-.6-.2-1.2-.5-1.7l.7-.2c.2.5.4 1.1.5 1.7l-.7.2zm2-.2c.3-.6.5-1.1.6-1.7l.8.2c-.2.6-.4 1.1-.7 1.7l-.7-.2zm7.5 1.1h-1.4v6h-.9v-6h-1.8v.3c0 1.8-.2 4.2-1.9 5.9-.2-.3-.4-.5-.6-.6 1.5-1.5 1.7-3.6 1.7-5.2v-4.2l.6.2c1.1-.2 2.3-.5 3.3-1l.7.7c-1.2.5-2.5.9-3.9 1.1v2.1h4l.2.7zM268.1 182.7c0 .6.3.8.8.9.5.1 1.1.1 1.6.1 1.4 0 2.8-.1 4.1-.4v1.1c-1.4.2-2.8.2-4.1.3-.6 0-1.3 0-1.9-.1-.9-.2-1.4-.6-1.4-1.6v-6.6c0-.3 0-.7-.1-1h1.1c0 .3-.1.7-.1 1v2.7c1.6-.4 3.1-.9 4.5-1.5.4-.2.7-.3 1.1-.5l.4 1c-.3.1-.8.3-1.1.5-1.6.6-3.2 1.1-4.9 1.6v2.5zm5.8-5.7c-.3-.6-.6-1.1-1-1.7l.6-.3c.4.5.7 1.1 1 1.6l-.6.4zm1-2.5c.3.4.8 1.2 1 1.6l-.6.3c-.3-.6-.6-1.1-1-1.6l.6-.3zM281.1 179.6l-.5.8c-.8-.6-1.7-1.2-2.6-1.6l.5-.8c.7.4 2.1 1.3 2.6 1.6zm1.4 2.9c1.9-1 3.4-2.6 4.5-4.4l.6 1c-2 3-5.1 5-8.6 5.8l-.5-1c1.4-.3 2.7-.7 4-1.4zm.4-5.5l-.6.8c-.6-.4-1.9-1.3-2.6-1.7l.5-.8c.8.4 2.2 1.3 2.7 1.7zm3.6.3l-.7.3c-.3-.7-.7-1.3-1.1-1.9l.7-.3c.4.7.8 1.3 1.1 1.9zm1.6-.6l-.7.3c-.3-.6-.7-1.3-1.1-1.9l.7-.3c.4.7.8 1.3 1.1 1.9zM298.7 177.2l-.7.7c-.8.9-1.7 1.8-2.7 2.5v3.2c0 .4 0 .9.1 1.3h-1.1c.1-.4.1-.9.1-1.3V181c-1.3.7-2.6 1.3-4.1 1.7l-.6-.9c1.7-.4 3.4-1.1 4.9-2 .9-.6 1.7-1.3 2.4-2.2h-5c-.4 0-1.1 0-1.5.1v-1c.5 0 1 .1 1.5.1h2.4v-.8c0-.4 0-.7-.1-1.1h1.1c-.1.3-.1.7-.1 1.1v.8h2c.3 0 .5 0 .8-.1l.6.5zm-1.7 3.1c1.1.6 1.8 1 2.9 1.7l-.6.8c-.9-.7-1.9-1.3-2.9-1.8l.6-.7zM310.4 176.4c-.1.2-.2.3-.3.5-.5 1.3-1.2 2.4-2 3.5 1.3 1.1 2.4 2.3 3.5 3.6l-.8.7c-1-1.3-2.1-2.5-3.3-3.6-1.3 1.5-2.9 2.6-4.7 3.5l-.8-.8c1.9-.8 3.6-2 4.9-3.6.9-1 1.5-2.1 2-3.3h-4.7c-.4 0-1.1 0-1.2.1v-1c.2 0 .9.1 1.2.1h4.6c.3 0 .6 0 .9-.1l.7.4zM318.6 180.3v2.4c0 .6.4 1 1.5 1s2.1-.1 3.2-.2l-.1 1c-.9.1-2.1.1-3.2.1-1.8 0-2.4-.6-2.4-1.6v-2.7h-3.4v-1c.3 0 .8.1 1.1.1h2.3v-2.6h-2.7v-1c.3 0 .7.1 1.1.1h5.7c.3 0 .7 0 1-.1v1h-4.1v2.6h5v1h-1l-4-.1zM334.7 178.7h.9v1h-4.2c0 1.1-.2 2.3-.7 3.3-.6.9-1.4 1.7-2.4 2.2l-.9-.7c.9-.4 1.7-1 2.3-1.8.5-.9.7-2 .7-3h-4.6v-1h8.9zm-6.3-2.1h-1.1v-1c.4 0 .7.1 1.1.1h4.1c.4 0 .7 0 1.1-.1v1H328.4zm6.2 0c-.3-.6-.6-1.1-1-1.7l.6-.3c.4.5.7 1.1 1 1.6l-.6.4zm1-2.4c.4.5.7 1.1 1 1.6l-.6.3c-.3-.6-.6-1.1-1-1.7l.6-.2zM337.6 184.1c1-.7 1.7-1.8 2.1-3 .3-1.6.4-3.2.4-4.8 0-.3 0-.6-.1-.9h1.1c0 .1-.1.5-.1.9 0 1.7-.1 3.4-.4 5.1-.4 1.3-1.1 2.4-2.1 3.3l-.9-.6zm5.5.1c.1-.2.1-.4.1-.7v-7.2c0-.3 0-.6-.1-.9h1.1V183.2c1.4-.7 2.6-1.7 3.5-3l.6.8c-1.1 1.4-2.5 2.5-4.1 3.3-.1.1-.3.2-.4.3l-.7-.4zM352.8 185.1c-.8-1-1.7-1.9-2.6-2.7l.8-.7c1 .8 1.9 1.7 2.7 2.7l-.9.7zM369.2 178.6c.3 0 .6 0 .9-.1v1h-4.2c0 1.1-.2 2.3-.7 3.3-.6.9-1.4 1.7-2.4 2.2l-.9-.6c.9-.4 1.7-1 2.3-1.8.5-.9.7-2 .7-3h-4.6v-1c.3 0 .7.1 1 .1l7.9-.1zm-6.4-2.1h-1.1v-1c.4 0 .7.1 1.1.1h4.9c.4 0 .7 0 1.1-.1v1h-6zM381.6 176.9l-.3.6c-.4 1.5-1.1 2.9-2.1 4.1-1.2 1.5-2.9 2.7-4.8 3.3l-.9-.8c3.3-.8 5.9-3.4 6.7-6.8h-4c-.8 1.2-1.8 2.2-3 3l-.8-.6c1.6-1 2.9-2.4 3.8-4.1.2-.3.3-.6.4-.9l1.1.4c-.2.3-.4.7-.5.9s-.2.3-.3.5h3.2c.3 0 .5 0 .8-.1l.7.5zM391.2 176.9c-.5 1.6-1.2 3-2.2 4.4-1.2 1.5-2.8 2.7-4.5 3.4l-.8-.9c1.8-.6 3.3-1.7 4.5-3.2 1.1-1.5 1.9-3.2 2.3-5.1l1.1.3c-.2.3-.3.8-.4 1.1zM404.2 183.1v1.4h-1v-.7h-6.5v.7h-1V177.2v-.9h8.5V183.1zm-7.5-5.9v5.7h6.6v-5.7h-6.6zM410.2 179.6l-.5.8c-.8-.6-1.7-1.2-2.6-1.6l.5-.8c.7.4 2.1 1.3 2.6 1.6zm1.4 2.9c1.9-1 3.4-2.6 4.5-4.4l.6 1c-2 3-5.1 5-8.6 5.8l-.5-1c1.4-.3 2.8-.7 4-1.4zm.4-5.5l-.6.8c-.6-.4-1.9-1.3-2.6-1.7l.5-.8c.8.4 2.2 1.3 2.7 1.7zm3.6.4l-.7.3c-.3-.7-.7-1.3-1.1-1.9l.7-.3c.4.6.8 1.2 1.1 1.9zm1.6-.6l-.7.3c-.3-.6-.7-1.3-1.1-1.9l.7-.3c.4.6.8 1.2 1.1 1.9zM419.1 179.2c.4 0 1 .1 1.7.1h6.6c.4 0 .9 0 1.3-.1v1.2c-.2 0-.8-.1-1.3-.1h-6.6c-.7 0-1.3 0-1.7.1v-1.2zM433.2 185.1c-.8-1-1.7-1.9-2.6-2.7l.8-.7c1 .8 1.9 1.7 2.7 2.7l-.9.7zM448.2 182.1v-.5H446v.6h-.9v-3.9h-2.2v5.4h7.7v.9h-7.7v.9h-.9v-7.1h-1.8v-.9h1.8v-2.7h.9v2.7h2.2v-2.9h.9v2.9h2.3v-2.8h.9v2.8h1.9v.9h-1.9v3.9h-1v-.2zm0-1.4v-2.5H446v2.5h2.2zM459.3 179.6c1 1 2.3 1.7 3.7 2.1-.2.2-.4.5-.6.8-.9-.3-1.7-.7-2.4-1.2v4.1h-.9v-4.1h.9c-.7-.4-1.2-1-1.7-1.6H457c-1.1 1.3-2.6 2.3-4.2 2.9-.2-.3-.4-.5-.6-.7 1.4-.4 2.7-1.1 3.7-2.1h-2.4V175h8.2v4.8l-2.4-.2zm-4 1.6h.9v.7c0 1.1-.3 2.6-2.6 3.5-.2-.3-.4-.5-.6-.7 2.1-.8 2.3-1.9 2.3-2.8v-.7zm-1-4.4h2.8v-1.3h-2.8v1.3zm0 2h2.8v-1.3h-2.8v1.3zm6.4-3.3H458v1.3h2.8l-.1-1.3zm0 2H458v1.3h2.8l-.1-1.3zM463.9 179.8c.3-1 .5-2 .5-3.1l.7.1c-.1 1.1-.2 2.2-.5 3.2l-.7-.2zm1.5-5.4h.8v10.9h-.8v-10.9zm1.5 1.7c.3.5.5 1.1.7 1.7l-.6.3-.6-1.8.5-.2zm8.1 2.2v.7h-7.8v-.7h3.4v-.8h-2.8v-.6h2.8v-.9h-3.1v-.7h3.1v-.9h.9v.9h3.2v.7h-3.2v.8h2.9v.6h-2.9v.8l3.5.1zm-1 6c0 .5-.1.7-.4.8-.6.1-1.1.2-1.7.1-.1-.3-.1-.5-.3-.8h1.3c.2 0 .2 0 .2-.2v-.9h-4.3v1.9h-.8v-5.7h6v4.8zm-5.1-4v.9h4.3v-.9h-4.3zm4.3 2.5v-.9h-4.3v.9h4.3zM481.3 180.6l-5.1.4v-.7c.6 0 1.5-.1 2.3-.1v-.8h-1.8v-.6h1.8v-.7h.8v.7h1.9v.6h-1.9v.8l2-.2v.6zm-2.9-3.7c-.3.9-1 1.5-1.9 1.7-.1-.2-.2-.4-.4-.6.8-.2 1.4-.5 1.6-1.1h-1.5v-.6h2.3v-.6h-1.8v-.6h1.8v-.7h.8v.7h1.8v.6h-1.8v.6h2.3v.7H480v.6c0 .2 0 .2.2.2h.6c.2 0 .2-.1.2-.4.2.1.4.2.6.2 0 .6-.2.8-.7.8h-.8c-.7 0-.8-.1-.8-.7v-.7l-.9-.1zm7.5 5.3c-.2 1.8-.4 2.5-.7 2.8-.2.2-.5.3-.9.3h-1.7c0-.3-.1-.6-.3-.8.7.1 1.4.1 1.6.1s.3 0 .5-.1c.2-.2.4-.7.5-1.9h-3.4c-.6 1.5-1.8 2.4-4.9 2.8-.1-.3-.2-.5-.4-.7 2.7-.3 3.8-1 4.4-2.1h-3.7v-.7h4c.1-.2.1-.5.1-.7h.9c0 .3-.1.5-.1.7h4.2l-.1.3zm0-6.4c0 2.7 0 4.6.5 4.6.1 0 .2-.6.2-1.5l.5.5c-.1 1.3-.2 1.8-.8 1.8-1.1 0-1.2-1.9-1.2-4.7h-1.2c0 .6-.1 1.1-.2 1.7l1.2.9-.4.7c-.3-.3-.6-.6-1-.9-.3.8-.9 1.5-1.6 2-.1-.2-.3-.4-.5-.6.7-.4 1.2-1.1 1.5-1.9-.4-.2-.8-.4-1.1-.6l.4-.6c.3.1.6.3.9.5.1-.4.1-.8.2-1.3H482v-.7h1.3v-1.4h.8v1.4l1.8.1zM494.4 177.2c-.7.2-1.4.3-2.1.4-.6 1.8-1.5 3.5-2.6 5l-.9-.5c1.1-1.3 1.9-2.8 2.5-4.4h-2.4l-.1-.9c.5.1 1 .1 1.5.1.4 0 .9 0 1.3-.1.2-.7.3-1.3.4-2l1.1.1c-.1.4-.3 1.1-.5 1.8.6-.1 1.2-.2 1.8-.4v.9zm1.4 1.4v1.3c0 .4.1 1.2.1 1.9.9.3 1.7.9 2.5 1.5l-.5.8c-.6-.5-1.2-1-1.9-1.4v.5c0 .9-.6 1.7-2.1 1.7s-2.4-.5-2.4-1.7 1-1.8 2.4-1.8c.4 0 .8 0 1.1.1 0-1-.1-2.1-.1-3l.9.1zm-.8 3.8c-.4-.1-.8-.2-1.2-.2-.9 0-1.5.4-1.5.9s.5.9 1.4.9 1.3-.5 1.3-1.1v-.5zm3.1-3.5c-.8-.6-1.7-1.2-2.7-1.6l.5-.7c1 .4 1.9 1 2.8 1.6l-.6.7zM508.5 177.6c-.3.2-.6.4-.9.5-.8.4-2.1 1-3.3 1.8s-1.8 1.5-1.8 2.4.9 1.6 2.8 1.6c1.3 0 2.6-.1 3.8-.4v1.1c-1.2.2-2.5.3-3.8.3-2.2 0-3.9-.7-3.9-2.4.1-1.3.9-2.5 2-3.1-.5-1-1.2-2.4-1.7-3.6l1-.4c.4 1.2 1 2.4 1.6 3.5 1-.6 2.1-1.1 2.8-1.5.3-.2.6-.3.8-.6l.6.8zm.2-2.5c.4.5.7 1.1 1 1.7l-.6.3c-.3-.6-.6-1.1-1-1.7l.6-.3zm1.3-.4c.4.5.7 1.1 1 1.6l-.6.3c-.3-.6-.6-1.1-1-1.6l.6-.3zM515.2 179.9c0 2.1-.9 4.2-2.4 5.7l-.7-.4c2.9-2.9 3-7.7.1-10.6l-.1-.1.7-.4c1.5 1.6 2.4 3.6 2.4 5.8z"/><path class="st6" d="M294.8 277c.9.3 1.8.4 2.7.3h5c-.2.3-.3.6-.4.9h-4.6c-2.5 0-4-.4-4.8-2-.1.8-.3 1.7-.7 2.4-.2-.2-.5-.3-.7-.4.7-1.2.8-3.1.9-5.2l.8.1c0 .6 0 1.1-.1 1.7.2.7.6 1.4 1.1 1.9V272h-2.5v-.8h2.3v-1.5h-2v-.8h2v-1.3h.9v1.3h1.9v.8h-1.9v1.5h2.2v.8h-2.1v1.8h1.9v.8h-1.9v2.4zm6-8.1h-3.5v-.8h4.4v4.4h-.9v-.3h-2.5v3.1c0 .4.1.5.7.5h2c.5 0 .6-.2.6-1.7.2.2.5.3.8.3-.1 1.7-.4 2.1-1.4 2.1h-2.1c-1.1 0-1.4-.3-1.4-1.3v-3.9h3.4l-.1-2.4zM310.1 275.6c1.3.9 2.7 1.6 4.3 1.9-.2.2-.4.5-.6.8-1.7-.5-3.2-1.3-4.5-2.5v2.6h-.9v-2.6c-1.3 1.1-2.8 1.9-4.5 2.4-.2-.3-.4-.5-.6-.8 1.5-.3 3-1 4.2-1.9h-3.9v-.8h4.7v-.7h-3.6v-.7h3.6v-.9h-4.2v-.7h2.6c-.1-.4-.3-.8-.6-1.2l.4-.1h-2.9v-.8h1.9c-.3-.6-.6-1.2-1-1.7l.8-.3c.4.5.7 1.1 1 1.8l-.6.2h1.5v-2.1h.8v2.1h1.4v-2.1h.8v2.1h1.5l-.5-.1c.3-.6.7-1.2.9-1.8l.9.2c-.3.6-.7 1.2-1 1.7h1.8v.8h-2.4c-.2.5-.5.9-.7 1.3h2.7v.7h-4.3v.9h3.8v.7h-3.8v.9h4.8v.8l-3.8-.1zm-3-5.2c.3.4.5.8.6 1.2l-.4.1h2.8-.1c.2-.4.4-.8.6-1.3h-3.5zM325.7 272.4c-.8.6-1.6 1.2-2.5 1.7.7 1.2 1.8 2.2 3.1 2.7-.2.2-.4.5-.6.8-2.3-1-3.7-3.3-4.4-6.1-.4.3-.8.6-1.2.8 2.3 2 2.3 5.1 1.1 5.9-.4.3-.8.4-1.3.4h-1c0-.3-.1-.6-.3-.9.5 0 .9.1 1.1.1.3 0 .6-.1.8-.2.5-.6.7-1.5.4-2.2-1.5 1.2-3.2 2.1-4.9 2.7-.1-.3-.3-.5-.5-.8 1.9-.5 3.6-1.5 5.1-2.7-.1-.3-.3-.5-.4-.8-1.2.8-2.5 1.5-3.8 2-.1-.3-.3-.5-.5-.7 1.4-.4 2.7-1 3.9-1.9l-.5-.5c-.9.5-1.9.8-2.9 1.1-.1-.2-.3-.5-.5-.7 1.4-.3 2.8-.9 4.1-1.7h-2.6v-.8h6.7v.8H322c.2.7.4 1.4.8 2 .8-.5 1.5-1 2.2-1.6l.7.6zm-8.9-1.4h-.9v-2.4h4.5v-1h.9v1h4.6v2.4h-.9v-1.5h-8.1v1.5h-.1zM329.9 272.6c.3.4 1.3 1.9 1.5 2.2l-.6.7c-.3-.6-.6-1.2-1-1.8v4.7h-.8V274c-.3 1.1-.8 2.1-1.3 3-.1-.3-.3-.6-.5-.9.7-1.2 1.3-2.4 1.7-3.7h-1.5v-.8h1.7v-4h.8v4h1.3v.8h-1.3v.2zm-1.7-1.5c-.1-.9-.3-1.8-.6-2.6l.6-.1c.3.8.6 1.7.7 2.6l-.7.1zm1.8-.2c.3-.9.6-1.8.8-2.7l.7.2c-.3.9-.6 1.8-1 2.7l-.5-.2zm8.3.5v.7h-6.7v-.7h2.9v-.8h-2.2v-.6h2.2v-.7H332v-.7h2.5v-1h.9v1h2.6v.7h-2.7v.7h2.4v.6h-2.4v.8h3zm-.8 6.2c0 .4-.1.6-.4.8-.5.1-1 .2-1.5.1 0-.3-.1-.5-.3-.8h1.2c.2 0 .2 0 .2-.2v-1h-3.5v2h-.8v-5.7h5.1v4.8zm-4.3-4.1v.9h3.5v-.9h-3.5zm3.5 2.4v-.9h-3.5v.9h3.5zM343.7 270.1c-.4.9-.8 1.8-1.4 2.5.4.3 1.3 1.1 1.6 1.4l-.5.7c-.4-.5-.8-.9-1.3-1.4v5.1h-.9v-4.5c-.5.5-1 1-1.6 1.4-.1-.3-.3-.6-.5-.8 1.5-1 2.6-2.4 3.4-3.9h-3v-.8h1.6v-2.2h.9v2.2h1.2l.5.3zm6.4-.5v6h-.8v-.5h-1.8v3.4h-.9v-3.4h-1.7v.5h-.9v-6h2.6v-2.1h.9v2.1h2.6zm-5.3.8v1.6h1.7v-1.5l-1.7-.1zm1.8 3.9v-1.6h-1.7v1.6h1.7zm.8-3.9v1.6h1.8v-1.5l-1.8-.1zm1.8 3.9v-1.6h-1.8v1.6h1.8zM356.9 271.8c.7 0 1.3.6 1.3 1.3s-.6 1.3-1.3 1.3c-.7 0-1.3-.6-1.3-1.3 0-.8.5-1.3 1.3-1.3zM366.9 267.8c-.3.9-.8 1.8-1.2 2.6v8h-.8v-6.7l-1.2 1.5c-.1-.3-.3-.6-.5-.9 1.3-1.4 2.3-3 3-4.8l.7.3zm3.7-.1c1 1.4 2.4 2.6 4 3.4-.2.2-.3.5-.5.8-1.5-.9-2.8-2-3.8-3.4-1 1.4-2.3 2.6-3.8 3.5-.1-.3-.3-.5-.5-.7 1.5-.9 2.8-2.1 3.8-3.6h.8zm3.1 9.9c0 .4-.1.6-.4.8-.4.1-.9.2-1.3.1 0-.3-.1-.5-.3-.8h.9c.1 0 .2 0 .2-.2v-1.8h-1.3v2.5h-.7v-2.5h-1.3v2.5h-.7v-2.5h-1.2v2.7h-.8v-5.8h6.8l.1 5zm-4.8-2.6v-1.6h-1.2v1.6h1.2zm3.5-4.2v.8h-4.2v-.8h4.2zm-1.5 4.2v-1.6h-1.3v1.6h1.3zm2 0v-1.6h-1.3v1.6h1.3zM379.2 276c-1.3.4-2.6.9-3.7 1.2l-.2-.9 1.6-.5v-3.2h-1.4v-.8h1.4v-2.6h-1.5v-.8h3.7v.8h-1.4v2.6h1.2v.8h-1.2v3l1.3-.4.2.8zm7.2 1.3v.8h-7.7v-.8h3.6v-1.6h-2.7v-.8h2.7v-1.4h-2.6v-5.3h6.1v5.3h-2.6v1.4h2.8v.8h-2.8v1.6h3.2zm-5.8-6.9h1.8v-1.5h-1.8v1.5zm0 2.2h1.8v-1.5h-1.8v1.5zm4.4-3.8h-1.8v1.5h1.8v-1.5zm0 2.3h-1.8v1.5h1.8v-1.5zM160.5 236.2V242h-1.1v-4.9-.9h1.1zm5.6-.1c0 .3-.1.7-.1 1v1.9c0 2.9-.4 3.8-1.3 4.9-.8.8-1.8 1.4-2.9 1.8l-.8-.8c1.1-.2 2.1-.8 2.9-1.6.9-1 1-2 1-4.2v-1.9c0-.3 0-.7-.1-1l1.3-.1zM170 240c.4 0 1 .1 1.7.1h6.6c.4 0 .9 0 1.3-.1v1.2c-.2 0-.8-.1-1.3-.1h-6.6c-.7 0-1.3 0-1.7.1V240zM189.9 235.5c.4.5.7 1.1 1 1.6l-.6.3.6.3-.3.6c-.4 1.3-1 2.5-1.8 3.6.4.3.9.6 1.2.8l-.7.9c-.3-.2-.7-.5-1.1-.8-1.3 1.4-2.9 2.5-4.7 3.2l-.9-.8c1.8-.6 3.5-1.6 4.8-3-.9-.6-2-1.2-2.6-1.6l.6-.7c.7.4 1.7.9 2.6 1.5.7-1 1.2-2.1 1.5-3.2h-4.1c-.9 1.2-1.9 2.3-3.2 3.1l-.8-.6c1.6-1 3-2.5 3.9-4.2.2-.3.3-.6.4-.9l1.1.4c-.2.3-.4.7-.5.9s-.2.3-.3.4h3.3c.3 0 .5 0 .8-.1l.2.1c-.3-.6-.6-1.1-1-1.6l.6-.2zm1.3-.5c.4.5.7 1.1 1 1.6l-.6.3c-.3-.6-.6-1.1-1-1.6l.6-.3zM194 240c.4 0 1 .1 1.7.1h6.6c.4 0 .9 0 1.3-.1v1.2c-.2 0-.8-.1-1.3-.1h-6.6c-.7 0-1.3 0-1.7.1V240zM209.2 240.3l-.6.8c-.8-.6-1.7-1.1-2.6-1.6l.5-.8c.8.4 2.2 1.2 2.7 1.6zm1.4 2.8c1.9-1 3.4-2.6 4.5-4.4l.6 1c-1.2 1.8-2.8 3.2-4.6 4.3-1.3.7-2.6 1.2-4 1.5l-.6-1c1.5-.2 2.8-.7 4.1-1.4zm.4-5.4l-.6.8c-.6-.4-1.9-1.3-2.6-1.7l.5-.8c1 .5 1.9 1.1 2.7 1.7zM220.9 241.6l-.9.3c-.3-.9-.7-1.8-1.1-2.7l.9-.4c.2.6.8 2.2 1.1 2.8zm6-2.7c-.1.3-.1.4-.2.6-.6 3-2.7 5.5-5.6 6.5l-.8-.8c1.5-.4 2.9-1.3 3.9-2.5.9-1.2 1.5-2.6 1.6-4.1l1.1.3zm-3.4 2l-.9.3c-.3-.9-.6-1.8-.9-2.6l.9-.3c.2.5.7 2 .9 2.6zM237.5 237h.4c0-.1-.1-.3-.1-.4 0-.7.6-1.3 1.4-1.3s1.3.6 1.3 1.4c0 .7-.6 1.3-1.3 1.3-.2 0-.3 0-.5-.1v.1c-.3 1.6-.9 3.1-1.8 4.4-1.2 1.5-2.9 2.7-4.7 3.2l-.8-.9c1.9-.4 3.5-1.4 4.7-2.9.8-1.2 1.4-2.5 1.6-3.9h-7.4v-1.1c.3 0 .8.1 1.2.1l6 .1zm2.5-.4c0-.4-.3-.8-.7-.9-.4 0-.8.3-.9.7v.2c0 .4.3.8.7.9.4 0 .8-.3.9-.7v-.2zM244.4 239.4c.7 0 1.3.6 1.3 1.3s-.6 1.3-1.3 1.3-1.3-.6-1.3-1.3.5-1.3 1.3-1.3zM260.3 237.6c-.1.1-.2.2-.3.4-1.2 1.9-2.6 3.5-4.4 4.9.7.7 1.6 1.6 2.1 2.2l-.9.7c-.7-.9-1.4-1.7-2.2-2.4l-2.7-2.4.8-.6c.4.3 1.4 1.1 2.2 1.9 1.5-1.1 2.8-2.5 3.7-4.2h-7.1c-.5 0-1 .1-1.2.1v-1c.4.1.8.1 1.2.1h7.2c.3 0 .5 0 .8-.1l.8.4zM271.1 237.9l-.7.7c-.8.9-1.7 1.8-2.7 2.5v3.2c0 .4 0 .9.1 1.3h-1.1c.1-.4.1-.9.1-1.3v-2.6c-1.3.7-2.6 1.3-4.1 1.7l-.6-.9c1.7-.4 3.4-1.1 4.9-2 .9-.6 1.7-1.3 2.4-2.2h-5c-.4 0-1.1 0-1.5.1v-1c.5 0 1 .1 1.5.1h2.4v-.8c0-.4 0-.7-.1-1.1h1.1c-.1.3-.1.7-.1 1.1v.8h2c.3 0 .5 0 .8-.1l.6.5zm-1.7 3.1c1 .5 2 1.1 2.9 1.7l-.6.8c-.9-.7-1.9-1.3-2.9-1.9l.6-.6zM277.4 240.4l-.5.8c-.8-.6-1.7-1.2-2.6-1.6l.5-.8c.7.3 2.1 1.2 2.6 1.6zm1.4 2.8c1.9-1 3.4-2.6 4.5-4.4l.6 1c-2 3-5.1 5-8.6 5.8l-.5-1c1.4-.2 2.8-.7 4-1.4zm.4-5.5l-.6.8c-.6-.4-1.9-1.3-2.6-1.7l.5-.8c.8.4 2.2 1.4 2.7 1.7zm3.7.4l-.7.3c-.3-.7-.7-1.3-1.1-1.9l.7-.3c.4.6.7 1.2 1.1 1.9zm1.6-.6l-.7.3c-.3-.6-.7-1.3-1.1-1.9l.7-.3c.3.6.7 1.3 1.1 1.9zM294.9 236.4c-.1.2-.3.6-.4.9-.4 1.3-1.1 2.4-1.8 3.5 1 .8 2 1.8 3 2.7l-.8.8c-.9-1-1.8-1.9-2.8-2.8-1.3 1.6-2.9 2.9-4.7 3.9l-.9-.8c1.9-.9 3.5-2.2 4.8-3.8-1.1-.9-2.2-1.7-3.4-2.4l.6-.8c1 .6 2.4 1.6 3.4 2.4.7-1 1.2-2.1 1.6-3.3.1-.3.2-.6.2-.9l1.2.6zM303.6 242.7c1.7-1.1 3.1-2.6 4-4.4l.6 1c-1 1.7-2.3 3.2-4 4.3-1.4.9-3 1.6-4.7 1.9l-.6-1c1.7-.4 3.3-.9 4.7-1.8zm-.7-3.8l-.8.8c-.9-.9-1.9-1.7-3-2.5l.7-.7c1.1.6 2.2 1.5 3.1 2.4zM318.9 242.1c-1.5-.8-3.1-1.4-4.7-1.9v4c0 .5 0 .9.1 1.4h-1.1c0-.5.1-.9.1-1.4v-7c0-.4 0-.8-.1-1.3h1.2c0 .4-.1.9-.1 1.3v2c1.8.5 3.5 1.2 5.1 2l-.5.9zM391.1 242.1c-.1 1-.4 2-.9 3-.2-.1-.4-.3-.7-.3.4-.9.7-1.9.8-2.9l.8.2zm1.3-1v5h-.8v-4.9l-1.9.1-.1-.8h.8c.3-.3.5-.7.8-1.1-.5-.6-1-1.2-1.5-1.7l.5-.6c.1.1.2.2.4.3.4-.7.8-1.5 1.1-2.2l.8.3c-.4.8-.9 1.6-1.4 2.4.3.3.5.5.7.8.5-.7.9-1.5 1.2-2.1l.8.3c-.7 1.2-1.5 2.4-2.4 3.6l1.8-.1c-.2-.4-.4-.7-.6-1.1l.6-.3c.5.8.9 1.6 1.1 2.4l-.7.3c-.1-.2-.1-.5-.2-.7l-1 .1zm1.1.7c.3.7.6 1.4.8 2.2l-.7.2c-.2-.8-.4-1.5-.7-2.2l.6-.2zm4.4 3.1h2.9v.8H394v-.8h3.1v-2h-2.3v-.8h2.3v-1.7h.9v1.7h2.4v.9H398l-.1 1.9zm2.3-9c-.4 1.2-1.2 2.3-2.1 3.1.9.6 1.8 1 2.8 1.2-.2.2-.4.5-.5.7-1.1-.3-2.1-.7-2.9-1.4-.9.6-1.9 1.1-2.9 1.4-.1-.3-.3-.5-.5-.7 1-.3 1.9-.7 2.7-1.2-.7-.7-1.3-1.5-1.7-2.4l.5-.2h-1.2v-.8h5.4l.4.3zm-4.4.6c.4.8.9 1.5 1.5 2 .7-.6 1.2-1.2 1.6-2h-3.1zM412.3 237v2.3h-.9v-1.5h-8.2v1.6h-.8V237h1.7c-.3-.5-.6-1-1-1.4l.8-.3c.4.5.8 1 1.1 1.6l-.4.2h2.4c-.2-.6-.5-1.1-.9-1.6l.8-.3c.4.5.7 1.1.9 1.7l-.6.2h2.2c.5-.6.9-1.2 1.2-1.8l.9.3-1.2 1.5 2-.1zm-4.7 4.4c-.1.3-.3.7-.4 1h4.2v3.6h-.9v-.4h-6.4v.5h-.8v-3.7h3c.1-.3.2-.6.3-1h-2.5v-2.8h6.3v2.8h-2.8zm3 1.8h-6.4v1.6h6.4v-1.6zm-5.6-2.4h4.6v-1.4H405v1.4zM420.1 239.8c-.6.4-1.3.9-1.9 1.3h5v5h-.9v-.3h-4.9v.4h-.9v-4.1c-.7.4-1.5.7-2.2.9-.2-.3-.4-.5-.6-.7 1.7-.6 3.4-1.4 4.9-2.4H414v-.9h4.1v-1.5H415v-.8h3.1v-1.5h.9v1.5h3v.5c.5-.5.9-1 1.4-1.6l.8.4c-.9 1.1-1.8 2.1-2.9 3h3.5v.8h-4.7zm2.1 2h-4.9v1.2h4.9v-1.2zm0 3.1v-1.2h-4.9v1.2h4.9zm-2.4-5.9c.6-.5 1.3-1 1.8-1.5h-2.7v1.5h.9zM436.4 237.6c-.1.1-.2.2-.3.4-1.2 1.9-2.6 3.5-4.4 4.9.7.7 1.6 1.6 2 2.2l-.9.7c-.7-.9-1.4-1.7-2.2-2.4l-2.7-2.4.8-.6c.4.3 1.4 1.1 2.2 1.9 1.5-1.1 2.8-2.5 3.7-4.2h-7c-.5 0-1 .1-1.2.1v-1c.4.1.8.1 1.2.1h7.1c.3 0 .5 0 .8-.1l.9.4zM447.6 236.5c-1 1-2.1 1.9-3.2 2.6v5.1c0 .4 0 .9.1 1.3h-1.2c0-.4.1-.9.1-1.3v-4.5c-1.4.8-2.9 1.4-4.5 1.9l-.5-.9c1.9-.5 3.7-1.2 5.4-2.2 1.2-.7 2.2-1.6 3.2-2.6l.6.6zM455.7 242.7c1.7-1.1 3.1-2.6 4-4.4l.6 1c-1 1.7-2.3 3.2-4 4.3-1.4.9-3 1.6-4.7 1.9l-.6-1c1.7-.4 3.3-.9 4.7-1.8zm-.7-3.8l-.8.8c-.9-.9-1.9-1.7-3-2.5l.7-.7c1.1.6 2.2 1.5 3.1 2.4zM465.9 239.3c1.8.5 3.5 1.2 5.1 2l-.4 1c-1.5-.8-3.1-1.4-4.7-1.9v3.9c0 .5 0 .9.1 1.4h-1.1c0-.4.1-1 .1-1.4v-7c0-.4 0-.8-.1-1.3h1.2c0 .4-.1.9-.1 1.3l-.1 2zm3.6-.6c-.3-.6-.7-1.2-1.1-1.8l.7-.3c.4.6.8 1.2 1.1 1.8l-.7.3zm1.5-.7c-.3-.6-.7-1.2-1.1-1.8l.7-.3c.4.6.8 1.2 1.1 1.8l-.7.3zM478 239.4c.7 0 1.3.6 1.3 1.3s-.6 1.3-1.3 1.3c-.7 0-1.3-.6-1.3-1.3.1-.8.6-1.3 1.3-1.3zM489.6 239.5c.6 2.5 2.4 4.6 4.7 5.8-.3.3-.5.5-.7.8-2.3-1.2-4.1-3.4-4.8-5.9-.6 2.6-2.3 4.8-4.8 5.9-.2-.3-.4-.5-.7-.7 2.5-1 4.2-3.2 4.7-5.9h-4.4v-.9h4.6c.1-1.1.2-2.3.2-3.4h1c0 1.1-.1 2.3-.2 3.4h5v.9h-4.6zM505.8 239.9v.4c-.1 3.6-.3 5-.7 5.4-.2.2-.5.4-.8.4h-1.6c0-.3-.1-.6-.3-.8.6.1 1.2.1 1.5.1.2 0 .3 0 .4-.2.3-.3.4-1.4.5-4.5h-7.3c-.1 1.8-.6 3.6-1.6 5.1-.2-.2-.4-.4-.7-.6 1.4-1.9 1.5-4.7 1.5-6.6v-2.8h8.2v3.1h-7.3v1h8.2zm-8.2-3.4v1.5h6.5v-1.5h-6.5zm1.8 8.2v.7h-.8v-3.8h4.5v3.1h-3.7zm0-2.4v1.6h2.9v-1.6h-2.9zM517.4 245.2c.2 0 .3-.2.3-1.6.2.1.5.2.7.3-.1 1.6-.3 2-.9 2h-.8c-.7 0-.9-.2-.9-1.1v-2.4h-.9c-.2 1.7-.8 3-2.4 3.7-.1-.2-.3-.5-.5-.6.2-.1.3-.1.5-.2h-3.2v.6h-.8v-4.6c-.2.2-.4.4-.5.6-.2-.2-.4-.5-.5-.7.7-.7 1.3-1.4 1.7-2.3h-1.5v-.7h1.8c.1-.4.3-.7.4-1.1h-.9c-.2.4-.5.7-.7 1.1-.2-.2-.4-.3-.7-.5.6-.7 1.1-1.5 1.3-2.4l.8.2-.3.9h3.4v.8h-2.1c-.1.4-.3.8-.4 1.1h2.7v.7h-3l-.6 1.2h1.2c.2-.3.3-.7.4-1l.8.2c-.1.3-.3.6-.4.8h1.5v.6h-1.6v.9h1.4v.6h-1.4v.9h1.4v.6h-1.4v.9h1.6v.4c.8-.6 1.2-1.6 1.3-2.6h-.9v-6.8h4.6v6.8h-1.3v2.4c0 .3 0 .3.2.3h.6zm-7-4.6h-1.2v.9h1.2v-.9zm0 1.5h-1.2v.9h1.2v-.9zm-1.2 2.5h1.2v-.9h-1.2v.9zm4.8-6.9h3v-1.2h-3v1.2zm0 2h3v-1.3h-3v1.3zm0 2h3v-1.3h-3v1.3z"/><path class="st10" d="M138.1 326.6c-.1 1.1-.4 2.1-.9 3-.2-.1-.4-.3-.7-.3.4-.9.7-1.9.8-2.9l.8.2zm1.3-1v5h-.8v-4.9l-1.9.1-.1-.8h.8c.3-.3.5-.7.8-1.1-.5-.6-1-1.2-1.6-1.7l.5-.6.4.3c.4-.7.8-1.5 1.1-2.2l.8.3c-.4.8-.9 1.7-1.4 2.4.3.3.5.5.7.8.5-.7.9-1.5 1.2-2.1l.8.3c-.7 1.2-1.5 2.4-2.4 3.6l1.8-.1c-.2-.4-.4-.7-.6-1.1l.6-.3c.5.8.9 1.6 1.1 2.5l-.7.3c-.1-.2-.1-.5-.2-.7h-.9zm1 .7c.3.7.6 1.4.8 2.2l-.7.2c-.2-.8-.4-1.5-.7-2.2l.6-.2zm4.4 3.1h2.9v.8h-6.8v-.8h3v-2h-2.3v-.8h2.3v-1.7h.9v1.7h2.4v.8h-2.4v2zm2.4-9c-.4 1.2-1.2 2.3-2.1 3.1.9.6 1.8 1 2.8 1.2-.2.2-.4.5-.6.7-1.1-.3-2.1-.7-2.9-1.4-.9.6-1.9 1.1-2.9 1.4-.1-.3-.3-.5-.5-.7 1-.3 1.9-.7 2.7-1.2-.7-.7-1.3-1.5-1.7-2.4l.5-.2h-1.2v-.8h5.4l.5.3zm-4.4.6c.4.8.9 1.5 1.5 2 .7-.6 1.2-1.3 1.6-2h-3.1zM159.2 321.5v2.3h-.9v-1.6h-8.2v1.6h-.8v-2.3h1.7c-.3-.5-.6-1-1-1.4l.8-.3c.4.5.8 1 1.1 1.6l-.4.2h2.3c-.2-.6-.5-1.1-.9-1.6l.8-.3c.4.5.7 1.1.9 1.7l-.6.2h2.2c.5-.6.9-1.2 1.2-1.8l.9.3-1.2 1.5 2.1-.1zm-4.7 4.5c-.1.3-.3.7-.4 1h4.2v3.6h-.9v-.5H151v.5h-.8V327h3c.1-.3.2-.6.3-1h-2.4v-2.8h6.3v2.8h-2.9zm3 1.7h-6.4v1.6h6.4v-1.6zm-5.5-2.4h4.6v-1.4H152v1.4zM169 326.1c.7.8 1.7 1.5 2.7 1.8-.2.2-.4.4-.6.7-1.2-.6-2.2-1.4-3-2.5h-3.8c-.8 1.1-1.9 2.1-3.1 2.7-.2-.3-.4-.5-.6-.7 1.1-.4 2-1.1 2.7-2h-2.6v-.8h2.4v-3.8h-1.8v-.8h1.8v-1.1h.9v1.1h4.4v-1.1h.9v1.1h1.8v.8h-1.8v3.8h2.3v.8H169zm-2.4 3.4h4.1v.8h-9.1v-.8h4v-1.3h-2.4v-.7h2.4v-1h.9v1h2.5v.7h-2.5l.1 1.3zm-2.6-8v.8h4.4v-.8H164zm0 2.3h4.4v-.8H164v.8zm0 1.5h4.4v-.9H164v.9zM174.4 329v1h-.7v-3.7c-.2.3-.3.6-.5.9-.2-.3-.3-.5-.5-.8.9-1.6 1.4-3.4 1.5-5.3h-1.4v-.8h4.1v.6h1.3v-1.3h.8v1.3h1.1v.7H179v.3c.2.2 1 .8 1.1 1l-.4.5c-.1-.2-.4-.5-.7-.8v2h-.8v-1.9c-.3.6-.7 1.1-1.2 1.6-.1-.2-.3-.4-.4-.6.6-.6 1.1-1.2 1.4-2h-1.1v-.5H175c-.1.9-.3 1.9-.5 2.8h2.1v5h-2.2zm1.4-4.3h-1.4v3.5h1.4v-3.5zm4.8 4.9c.3 0 .6.1.9.1h2.3c-.1.2-.2.5-.3.8h-2.1c-1.6 0-2.6-.3-3.3-1.8-.3.8-.8 1.5-1.5 2-.2-.2-.3-.4-.6-.6 1.2-.8 1.6-2.2 1.7-3.7h.8c0 .4-.1.8-.2 1.2.2.8.6 1.4 1.3 1.8v-3.6h-2.9v-.8h6.1l.6.2c-.2.6-.4 1.1-.7 1.7l-.7-.3.3-.9h-2v1.4h2.3v.7h-2.3l.3 1.8zm.8-7c-.3.7-.8 1.2-1.3 1.7-.1-.2-.2-.4-.4-.6.7-.5 1.2-1.2 1.5-2h-1v-.7h1.2v-1.3h.8v1.3h1.4v.7h-1.2c.3.8.8 1.5 1.4 2.1-.2.2-.4.3-.5.5-.5-.5-.9-1-1.1-1.7v2h-.8v-2zM188.1 324v.4h2.3v.9h-2.3c0 .3-.1.5-.1.8.6.6 2 2.2 2.4 2.6l-.6.8c-.4-.6-1.3-1.7-2-2.4-.4 1.4-1.3 2.7-2.5 3.5-.2-.2-.4-.5-.6-.7 1.5-1.1 2.4-2.8 2.5-4.6h-2.4v-.9h2.5V322h-.9c-.3.7-.6 1.3-1 1.9-.2-.2-.5-.4-.7-.5.8-1.1 1.3-2.4 1.5-3.8l.9.2c-.1.5-.2 1-.4 1.4h3.4v.8h-1.9l-.1 2zm6.9-3.4v9.5h-.9v-.8h-2.5v.9h-.9v-9.6h4.3zm-.9 7.8v-6.9h-2.5v7l2.5-.1zM200.4 322.3h-3.7v-.7h3.7v.7zm-.3 7.6h-2.2v.6h-.7v-4h2.9v3.4zm0-6h-2.9v-.7h2.9v.7zm-2.9.9h2.9v.7h-2.9v-.7zm2.9-4h-2.8v-.8h2.8v.8zm-2.2 6.4v2h1.5v-2h-1.5zm9.3-1.9c-.3 1-.7 1.9-1.3 2.8.2 1 .5 1.5.9 1.6.2 0 .4-.6.4-1.6.2.2.4.3.6.5-.2 1.6-.6 2.1-1 2.1-.7 0-1.2-.7-1.5-1.8-.6.7-1.3 1.2-2 1.7-.1-.2-.3-.4-.5-.5l1.2-.9h-2.5v.6h-.7v-4.6h3.3v3.9c.4-.3.7-.7 1-1.1-.2-1.2-.3-2.3-.3-3.5h-4.6v-.8h4.6c0-1.2 0-2.6-.1-4h.8v4h2v.8h-2c0 .8.1 1.7.2 2.5.3-.6.6-1.3.8-2l.7.3zm-2.8-3.7h-3.9v-.7h1.6v-1.3h.8v1.3h1.5v.7zm-3.1 2c0-.6-.2-1.2-.3-1.7l.6-.1c.2.6.3 1.1.4 1.7l-.7.1zm.2 2.2v1h1.8v-1h-1.8zm1.9 2.7v-1h-1.8v1h1.8zm-.6-5c.2-.6.3-1.2.4-1.8l.8.2c-.2.6-.4 1.3-.5 1.8l-.7-.2zm4.1-.9c-.3-.8-.7-1.5-1.2-2.1l.7-.3c.5.6.9 1.3 1.3 2.1l-.8.3zM224.8 385.3v6.3h-.9v-10.5h4.3v4.2h-3.4zm0-3.5v1h2.6v-1h-2.6zm2.5 2.8v-1.1h-2.6v1.1h2.6zm0 5.3v.7h-.8v-4.2h4.5v3.5h-3.7zm0-2.8v2h2.8v-2h-2.8zm6.4 3.2c0 .6-.1.9-.5 1-.7.1-1.4.2-2.1.1l-.3-.9h1.8c.2 0 .3-.1.3-.3v-5h-3.5V381h4.4l-.1 9.3zm-3.6-8.5v1h2.7v-1h-2.7zm2.7 2.8v-1.1h-2.7v1.1h2.7zM238.5 390.1c1.2.4 2.4.6 3.6.5h4.2c-.1.2-.3.5-.3.8h-3.9c-2.6 0-4.4-.3-5.5-1.9-.1.8-.4 1.5-.9 2.2l-.6-.6c.7-1.2 1.1-2.6 1-3.9h.7c0 .5-.1.9-.1 1.4.2.5.5.8.9 1.2v-3.2h-2.4v-.7h5.4v.7h-2.2v1.3h2v.7h-2l.1 1.5zm1.5-5.3h-4v-3.7h4v3.7zm-.8-3h-2.3v.9h2.3v-.9zm0 1.5h-2.3v.9h2.3v-.9zm3.6 5.2c-.6.7-1.3 1.3-2.1 1.8l-.6-.6c.8-.3 1.4-.8 2-1.4l.7.2zm-.2-5.7l.3-.9h-2.2v-.7h5.4v.7h-2.4l-.3.9h2.2v5.2H241v-5.3l1.6.1zm2.1.6h-2.9v.9h2.9v-.9zm0 1.6h-2.9v.9h2.9v-.9zm0 1.5h-2.9v.9h2.9v-.9zm-.4 1.7c.7.4 1.3.9 1.9 1.5l-.6.4c-.5-.6-1.2-1.2-1.8-1.6l.5-.3zM255.2 382c-.1 1.4-1 2.7-2.3 3.2-.1-.2-.3-.4-.5-.6v6c0 .4-.1.7-.4.8-.5.1-1.1.2-1.6.1-.1-.3-.1-.5-.3-.8h1.3c.1 0 .2-.1.2-.2v-2.2h-2.9c-.1 1.1-.4 2.2-.9 3.2-.2-.2-.4-.3-.6-.4.7-1.4 1-2.9.9-4.4v-2.2l-.3.3c-.2-.2-.4-.4-.7-.5.9-1.1 1.6-2.4 1.9-3.8l.8.2-.3.9h1.5l.5.3c-.2.6-.5 1.1-.8 1.7h1.5v1c1.1-.5 1.9-1.5 2-2.6h-1.6v-.8h5.2v.3c-.1 2-.2 2.8-.5 3-.2.2-.4.3-.6.3h-1.2c0-.3-.1-.5-.2-.7.4 0 .7.1 1.1 0 .2 0 .3 0 .3-.1.2-.7.4-1.4.3-2.1l-1.8.1zm-5.9.4c-.2.4-.4.8-.6 1.3h1.4c.2-.4.4-.8.5-1.3h-1.3zm-.5 4.4v.9h1.1v-1.4h-1.1v.5zm0-1.1h1.1v-1.3h-1.1v1.3zm1.7 0h1.1v-1.3h-1.1v1.3zm1.1 2.1v-1.4h-1.1v1.4h1.1zm6.6 1.5H256v2.2h-.9v-2.2h-2.5v-.8h2.5V387h-1.3l-.6 1.2c-.2-.1-.5-.3-.7-.4.6-.8.9-1.7 1.1-2.7l.8.2c-.1.3-.2.6-.3 1h1V385h.9v1.2h2v.8h-2v1.5h2.3l-.1.8zM261.4 385.9c-.7-.5-1.4-1-2.2-1.3l.5-.7c.8.3 1.5.7 2.2 1.2l-.5.8zm.9 1.6c-.6 1.3-1.3 2.8-2 3.9l-.8-.6c.8-1.2 1.4-2.5 2-3.9l.8.6zm-.3-4.8c-.6-.5-1.4-1-2.1-1.3l.5-.6c.8.3 1.5.8 2.2 1.3l-.6.6zm4.9 4.2c.5 1.8 1.7 3.2 3.4 3.9-.2.2-.4.5-.6.8-1.8-.8-3.1-2.4-3.6-4.3-.4 1.9-1.7 3.5-3.5 4.3-.2-.2-.4-.4-.7-.6 1.7-.7 3-2.2 3.4-4h-2.8v-.8h3c0-.5.1-.9.1-1.4v-1.3h-2.4v-.8h2.4v-1.9h.9v1.9h2.9v3.5h1v.8l-3.5-.1zm-.6-2.2v1.4h2.1v-2.7h-2l-.1 1.3zM281.6 383.2v.5c-.3 4.9-.5 6.7-1 7.3-.2.3-.6.5-1 .5h-1.9c0-.3-.1-.6-.3-.9.8.1 1.6.1 1.9.1.2 0 .4 0 .5-.2.4-.4.7-2.1.9-6.3h-4.1c-.1 3.1-1.7 6-4.4 7.5-.2-.3-.4-.5-.7-.7 2.5-1.4 4.1-4 4.2-6.8h-3.8v-.9h3.9v-2.6h.9v2.6l4.9-.1zM127.5 419.2c0 .6.3.8.8.9s1.1.1 1.6.1c1.4 0 2.8-.1 4.1-.4v1.1c-1.4.2-2.8.3-4.1.3-.6 0-1.3 0-1.9-.1-.9-.2-1.4-.6-1.4-1.6v-6.6c0-.3 0-.7-.1-1h1.1c0 .3-.1.7-.1 1v2.7c1.6-.4 3.1-.9 4.6-1.5.4-.2.7-.3 1.1-.5l.4 1c-.3.1-.8.3-1.1.5-1.6.6-3.2 1.1-4.9 1.6l-.1 2.5zm5.8-5.8c-.3-.6-.6-1.1-1-1.7l.6-.3c.4.5.7 1.1 1 1.6l-.6.4zm1-2.4c.4.5.7 1.1 1 1.6l-.6.3c-.3-.6-.6-1.1-1-1.6l.6-.3zM140.5 416.1l-.6.8c-.8-.6-1.7-1.1-2.6-1.6l.5-.8c.7.4 2.2 1.2 2.7 1.6zm1.4 2.8c1.9-1 3.4-2.6 4.5-4.4l.6 1c-2 3-5.1 5.1-8.6 5.8l-.6-1c1.5-.2 2.8-.6 4.1-1.4zm.4-5.4l-.6.8c-.6-.5-1.9-1.3-2.6-1.7l.5-.8c.8.4 2.1 1.3 2.7 1.7zm3.6.3l-.7.3c-.3-.7-.7-1.3-1.1-1.9l.7-.3c.4.6.8 1.3 1.1 1.9zm1.6-.6l-.7.3c-.3-.6-.7-1.3-1.1-1.9l.7-.3c.4.7.7 1.3 1.1 1.9zM158.1 413.6l-.7.7c-.8.9-1.7 1.8-2.7 2.5v3.2c0 .4 0 1 .1 1.3h-1.1c.1-.4.1-.9.1-1.3v-2.6c-1.3.7-2.6 1.3-4.1 1.7l-.6-.9c1.7-.4 3.4-1.1 4.9-2 .9-.6 1.7-1.3 2.4-2.2h-6.5v-1c.5 0 1 .1 1.4.1h2.4v-.8c0-.3 0-.7-.1-1h1.1c0 .3-.1.7-.1 1v.8h2c.3 0 .5 0 .8-.1l.7.6zm-1.7 3.1c1 .5 2 1.1 2.9 1.7l-.6.8c-.9-.7-1.9-1.3-2.9-1.9l.6-.6zM169.8 412.9c-.1.2-.2.3-.3.5-.5 1.3-1.2 2.4-2 3.5 1.3 1.1 2.4 2.3 3.5 3.6l-.8.7c-1-1.3-2.1-2.5-3.3-3.6-1.3 1.5-2.9 2.6-4.7 3.5l-.8-.8c1.9-.8 3.6-2 4.9-3.6.9-1 1.5-2.1 2-3.3h-4.7c-.4 0-1.1 0-1.2.1v-1.1c.2 0 .9.1 1.2.1h4.6c.3 0 .6 0 .9-.1l.7.5zM179 418.4c.9 1.5 2.5 2.3 4.8 2.6-.2.2-.4.5-.6.8-2.4-.4-4-1.4-4.9-3.1-.6 1.3-1.9 2.4-5 3.1-.1-.3-.3-.5-.5-.7 3-.7 4.2-1.6 4.7-2.7H173v-.8h1.2v-2.8h3.5v-1.4h.9v1.4h3.7v2.8h1.2v.8H179zm-3.4-5.6h-2.5v-.8h2.5v-1.1h.9v1.1h3.4v-1.1h.9v1.1h2.5v.8h-2.5v1.2h-.9v-1.3h-3.4v1.3h-.9v-1.2zm2 4.8c0-.3.1-.6.1-.9v-1.1H175v2h2.6zm1-2v1.1c0 .3 0 .6-.1.9h2.9v-2h-2.8zM184.7 412.9h4.3v.7h-4.3v-.7zm4 8.4H186v.5h-.8v-4h3.4l.1 3.5zm0-6h-3.4v-.7h3.4v.7zm-3.4.9h3.4v.7h-3.4v-.7zm3.4-4.2h-3.3v-.7h3.3v.7zm-2.7 6.5v2h1.9v-2H186zm9.7-2.7v.8h-6.6v-.8h1.6c.1-.5.2-1.1.3-1.7h-1.4v-.8h1.5c.1-.4.1-.8.2-1.2h-1.9v-.8h5.9v.8h-3.2c0 .4-.1.8-.2 1.2h2.7v2.5h1.1zm-5.8 1.7h5v4.2h-.9v-.5h-3.3v.6h-.8v-4.3zm.9.8v2.1h3.3v-2.1h-3.3zm1-4.2c-.1.6-.2 1.2-.3 1.7h2.3v-1.7h-2zM205 417.3c.7.8 1.7 1.5 2.7 1.9-.2.2-.4.4-.6.7-1.2-.6-2.3-1.4-3-2.5h-3.8c-.8 1.2-1.9 2.1-3.1 2.7-.2-.3-.3-.5-.6-.7 1.1-.4 2-1.1 2.7-2h-2.6v-.8h2.4v-3.8h-1.8v-.8h1.8v-1.1h.9v1.1h4.4v-1.1h.9v1.1h1.8v.7h-1.8v3.8h2.3v.8H205zm-2.4 3.4h4.1v.8h-9.1v-.8h4v-1.3h-2.4v-.7h2.4v-1h.9v1h2.5v.7h-2.5l.1 1.3zm-2.6-8v.8h4.4v-.8H200zm0 2.3h4.4v-.8H200v.8zm0 1.6h4.4v-.9H200v.9zM210.4 420.2v1h-.7v-3.7c-.1.3-.3.6-.5.9-.2-.3-.3-.5-.5-.8.9-1.6 1.4-3.4 1.5-5.3h-1.4v-.8h4.1v.6h1.3v-1.3h.8v1.3h1.1v.7H215v.3c.2.2 1 .8 1.1 1l-.4.5c-.1-.2-.4-.5-.7-.8v1.9h-.8v-1.9c-.3.6-.7 1.1-1.2 1.6-.1-.2-.3-.4-.4-.6.6-.6 1.1-1.2 1.4-2h-1.1v-.5H211c-.1.9-.3 1.9-.5 2.8h2.1v5.1h-2.2zm1.4-4.3h-1.4v3.5h1.4v-3.5zm4.8 4.9c.3 0 .6.1.9.1h2.3c-.1.2-.2.5-.3.8h-2.1c-1.6 0-2.6-.3-3.3-1.8-.3.8-.8 1.5-1.5 2-.2-.2-.3-.4-.6-.6 1.2-.8 1.6-2.2 1.7-3.7h.8c0 .4-.1.8-.2 1.2.2.8.6 1.4 1.3 1.8V417h-2.9v-.7h6.1l.6.2c-.2.6-.4 1.1-.7 1.7l-.7-.3.3-.9h-2v1.4h2.3v.7h-2.3l.3 1.7zm.8-7c-.3.7-.8 1.3-1.3 1.7-.1-.2-.3-.4-.4-.6.7-.5 1.2-1.2 1.5-2h-1v-.7h1.2v-1.3h.8v1.3h1.4v.7h-1.2c.3.8.8 1.5 1.4 2.1-.2.2-.4.3-.5.5-.5-.5-.9-1-1.1-1.7v2h-.8v-2zM335.5 419.1c0 .6.3.8.8.9s1.1.1 1.6.1c1.4 0 2.8-.1 4.1-.4v1.1c-1.4.2-2.8.3-4.1.3-.6 0-1.3 0-1.9-.1-.9-.2-1.4-.6-1.4-1.6v-6.6c0-.3 0-.7-.1-1h1.1c0 .3-.1.7-.1 1v2.7c1.6-.4 3.1-.9 4.5-1.5.4-.1.7-.3 1.1-.5l.4 1c-.3.1-.8.3-1.1.5-1.6.6-3.2 1.1-4.9 1.6v2.5zm5.8-5.8c-.3-.6-.6-1.1-1-1.7l.6-.3c.4.5.7 1.1 1 1.6l-.6.4zm1-2.4c.4.5.7 1.1 1 1.6l-.6.3c-.3-.6-.6-1.1-1-1.7l.6-.2zM348.5 416l-.5.8c-.8-.6-1.7-1.1-2.6-1.6l.5-.8c.7.3 2.1 1.2 2.6 1.6zm1.4 2.9c1.9-1 3.4-2.6 4.5-4.4l.6 1c-1.2 1.8-2.8 3.2-4.6 4.3-1.3.7-2.6 1.2-4 1.5l-.5-1c1.4-.3 2.8-.8 4-1.4zm.4-5.5l-.6.8c-.6-.4-1.9-1.3-2.6-1.7l.5-.8c.8.3 2.2 1.3 2.7 1.7zm3.7.3l-.7.3c-.3-.7-.7-1.3-1.1-1.9l.7-.3c.4.6.8 1.3 1.1 1.9zm1.6-.6l-.7.3c-.3-.6-.7-1.3-1.1-1.9l.7-.3c.3.7.7 1.3 1.1 1.9zM366.2 413.5l-.7.7c-.8.9-1.7 1.8-2.7 2.5v3.2c0 .4 0 .9.1 1.3h-1.1c.1-.4.1-.9.1-1.3v-2.6c-1.3.7-2.6 1.3-4.1 1.7l-.6-.9c1.7-.4 3.4-1.1 4.9-2 .9-.6 1.7-1.3 2.4-2.2H358v-1c.5 0 1 .1 1.5.1h2.4v-.8c0-.4 0-.7-.1-1.1h1.1c0 .4-.1.7-.1 1.1v.8h2c.3 0 .5 0 .8-.1l.6.6zm-1.7 3.1c1 .5 2 1.1 2.9 1.7l-.6.8c-.9-.7-1.9-1.3-2.9-1.8l.6-.7zM377.9 412.8c-.1.2-.2.3-.3.5-.5 1.3-1.2 2.4-2 3.5 1.3 1.1 2.4 2.3 3.5 3.6l-.8.7c-1-1.3-2.1-2.5-3.3-3.6-1.3 1.5-2.9 2.6-4.7 3.5l-.8-.8c1.9-.8 3.6-2 4.9-3.6.9-1 1.5-2.1 2-3.3h-4.7c-.4 0-1.1 0-1.2.1v-1.1c.4.1.8.1 1.2.1h4.6c.3 0 .6 0 .9-.1l.7.5zM382.3 412.8c.8-.1 3-.3 5.2-.5 1.3-.1 2.4-.2 3.2-.2v1c-.8 0-1.6 0-2.3.2-1.6.6-2.7 2.1-2.7 3.8 0 2.3 2.2 3 4.1 3.1l-.4 1c-2.2-.1-4.7-1.3-4.7-3.9 0-1.6.8-3.1 2.2-4-1 .1-4.3.4-5.6.7l-.1-1c.5-.1.9-.1 1.1-.2zm7.7 3.4l-.6.3c-.3-.6-.6-1.2-1-1.7l.6-.3c.4.6.7 1.1 1 1.7zm1.4-.5l-.6.3c-.3-.6-.6-1.1-1-1.7l.6-.3c.3.6.7 1.1 1 1.7zM394.1 417.7c-.1 1-.4 2-.9 3-.2-.1-.4-.2-.7-.3.4-.9.7-1.9.8-2.9l.8.2zm2.2-3.1c.5.8.9 1.6 1.2 2.4l-.7.3c-.1-.2-.1-.5-.2-.7l-1 .1v5h-.8v-4.9l-2 .1-.1-.8h.8c.3-.3.5-.7.8-1.1-.5-.6-1-1.2-1.6-1.7l.5-.6.4.3c.4-.7.8-1.5 1.1-2.2l.8.3c-.4.8-.9 1.6-1.4 2.4.3.3.5.5.7.8.5-.7.9-1.4 1.3-2.2l.8.3c-.8 1.2-1.6 2.4-2.5 3.6l1.9-.1c-.2-.4-.4-.7-.6-1l.6-.3zm.3 2.9c.4.7.6 1.5.8 2.3l-.7.2c-.2-.8-.4-1.6-.8-2.3l.7-.2zm4.3-4.2v1.8h2.6v.8h-5.9v-.8h2.4v-1.8h-2.8v-.8h2.8v-1.7h.9v1.7h2.8v.8h-2.8zm-2.9 3.9h5.1v4.5h-.9v-.6h-3.5v.6h-.7v-4.5zm.8.8v2.3h3.5V418h-3.5zM411.5 417.9c1.2 1.2 2.7 2.1 4.3 2.6-.2.2-.4.5-.6.7-1.7-.7-3.2-1.7-4.5-3v3.5h-.9v-3.4c-1.2 1.3-2.8 2.4-4.5 3-.2-.3-.4-.5-.6-.7 1.6-.5 3.1-1.5 4.3-2.7h-4v-.9h4.8v-1h-3.6v-4.7h8.2v4.7h-3.7v1h4.8v.8l-4 .1zm-4.4-4.6h2.7v-1.2h-2.7v1.2zm2.7 2v-1.2h-2.7v1.2h2.7zm3.6-3.2h-2.7v1.2h2.7v-1.2zm0 2h-2.7v1.2h2.7v-1.2zM422.4 419.2v-1.9c-1.1.6-1.9 1.2-1.9 2s.9 1.1 2.1 1.1c1.1 0 2.2-.1 3.2-.3v1c-1.1.1-2.2.2-3.3.2-1.7 0-3.1-.4-3.1-1.8s1.4-2.3 2.8-3c-.1-.5-.6-.8-1.1-.7-.8 0-1.5.3-2 .9-.3.3-.7.8-1.1 1.3l-.8-.6c1.1-1 2-2.3 2.7-3.6h-.5c-.5 0-1.3 0-2-.1v-.9c.7.1 1.3.1 2 .1h.8c.1-.5.3-1 .3-1.5l1 .1c-.1.3-.2.8-.4 1.4 1.2-.1 2.4-.2 3.6-.4v.9c-1.3.2-2.6.3-3.9.3-.3.6-.6 1.3-1.1 1.8.5-.3 1.1-.4 1.6-.4.7-.1 1.4.4 1.6 1.1.8-.4 1.5-.7 2.1-1l1-.5.4.9c-.3.1-.7.3-1 .4-.7.3-1.5.6-2.4 1v2.3l-.6-.1zM438.9 416.8v4.9h-.9v-.7h-7.5v.7h-.9v-4.9h.9v3.3h3.2V416h-3.6v-4.1h.9v3.2h2.7v-4.3h.9v4.3h2.9v-3.2h.9v4.1h-3.8v4.1h3.3v-3.3h1zM447.7 413.7v1.9c.3.5.4 1 .4 1.5 0 1.6-.8 3.4-3.5 4.2l-.8-.8c1.3-.2 2.5-.9 3.1-2.1-.3.2-.6.3-1 .3-1.1.1-1.9-.8-2-1.8v-.2c0-1.2.9-2.1 2.1-2.1.3 0 .5 0 .8.1v-1.2c-1.8 0-3.8.1-5.3.2v-.9l5.3-.1v-.8c0-.2 0-.6-.1-.7h1.1l-.1.7v.8h3.6v.9c-.7 0-1.8-.1-3.5-.1l-.1.2zm-.7 2.6c-.1-.5-.6-.7-1-.7-.7 0-1.2.5-1.2 1.2v.1c0 .6.4 1.2 1.1 1.2h.1c.7-.1 1.2-.7 1-1.8zM459.2 418.6c1.1 1.4 2.7 2.3 4.5 2.4-.2.2-.4.5-.5.8-2-.2-3.9-1.4-4.9-3.1h-.1c-.6 1.2-1.9 2.3-4.7 3.1-.1-.3-.3-.5-.5-.7 2.3-.6 3.6-1.5 4.2-2.4H453v-.8h4.5c.1-.4.2-.7.2-1.1h-3.3v-.8h3.4v-1.1h-3.5v-.8h3.5v-1h.9v1h3.7v-1.4h-8.3v1.5h-.9v-2.3h4.6v-1.2h.9v1.2h4.6v2.3h-.9v.6h-3.7v1.1h3.5v.8h-3.6c0 .4-.1.8-.2 1.1h5.1v.8h-4.3zM469.6 419.9c-1.6.4-3.4.9-4.6 1.2l-.2-.8.6-.1V416h.7v4l.8-.2v-4.9h-1.6v-3.6h3.7v3.6h-1.4v1.7h1.6v.8h-1.6v2.2l1.8-.4.2.7zm-3.5-5.8h2.1V412h-2.1v2.1zm9.1 3.6c-.5.7-1.1 1.4-1.8 1.9.3.8.8 1.2 1.2 1.2.3 0 .4-.4.5-1.7.2.2.4.4.7.5-.2 1.6-.5 2.1-1.3 2.1s-1.4-.6-1.9-1.6c-1 .6-2 1.1-3.1 1.5-.2-.3-.3-.5-.6-.7 1.2-.3 2.3-.9 3.4-1.6-.2-.7-.4-1.4-.5-2.1l-2.3.3-.1-.8 2.2-.3c0-.4-.1-.8-.1-1.2l-1.7.2-.1-.8 1.7-.2c0-.4 0-.7-.1-1.1l-1.9.2-.1-.8 1.9-.2v-2h.9v1.9l2.9-.3.1.8-3 .3.1 1.1 2.6-.3.1.7-2.6.3c0 .4.1.8.1 1.2l3-.3.1.8-3 .3c.1.5.2 1.1.4 1.6.5-.4 1-.9 1.3-1.4l1 .5zm-.6-5.4c-.5-.4-1.1-.8-1.7-1.1l.5-.5c.6.3 1.2.6 1.7 1l-.5.6zM483.1 418.3c.9 1.5 2.5 2.3 4.8 2.6-.2.2-.4.5-.6.8-2.4-.4-4-1.4-4.9-3.1-.5 1.3-1.9 2.4-5 3.1-.1-.3-.3-.5-.5-.7 3-.7 4.2-1.6 4.7-2.7H477v-.8h1.2v-2.8h3.5v-1.4h.9v1.4h3.7v2.8h1.2v.8h-4.4zm-3.5-5.6h-2.5v-.8h2.5v-1.1h.9v1.1h3.4v-1.1h.9v1.1h2.5v.8h-2.5v1.3h-.9v-1.3h-3.4v1.3h-.9v-1.3zm2 4.8c0-.3.1-.6.1-.9v-1.1H479v2h2.6zm1-2v2h2.9v-2h-2.9zM488.8 412.8h4.3v.7h-4.3v-.7zm4 8.3h-2.6v.5h-.8v-4h3.4v3.5zm0-6h-3.4v-.7h3.4v.7zm-3.4 1h3.4v.7h-3.4v-.7zm3.3-4.2h-3.3v-.7h3.3v.7zm-2.6 6.5v2h1.9v-2h-1.9zm9.7-2.7v.8h-6.6v-.8h1.6c.1-.5.2-1.1.3-1.7h-1.4v-.8h1.5c.1-.4.1-.8.2-1.2h-1.9v-.8h5.9v.8h-3.2c-.1.4-.1.8-.2 1.2h2.7v2.5h1.1zm-5.8 1.7h5v4.2h-.9v-.5h-3.3v.5h-.8v-4.2zm.8.8v2.1h3.3v-2.1h-3.3zm1-4.2c-.1.6-.2 1.2-.3 1.7h2.3V414h-2zM161.4 10.8c0 2.4.3 7.5 5.6 10.6-.3.2-.6.5-.8.8-2.7-1.7-4.7-4.4-5.4-7.5-1 3.5-2.7 6-5.4 7.5-.3-.3-.6-.6-.9-.8 3-1.5 4.6-4.3 5.5-8l.6.1c-.1-.6-.1-1.2-.2-1.7h-3.3v-1h4.3zM173.1 18.4l-1.7-1.7v5.6h-1v-5.2c-.6.6-1.3 1.2-2.1 1.7-.1-.3-.3-.6-.5-.9 1.8-1.1 3.2-2.6 4.2-4.4h-3.8v-.9h2.1V10h1v2.5h1.4l.6.4c-.4 1.1-1 2-1.8 2.9.6.5 1.8 1.5 2.1 1.8l-.5.8zm7.4 2.6v1H173v-1h3.4v-5.6h-2.9v-1h2.9v-4.3h1v4.3h2.9v1h-2.9V21h3.1zM183.9 20.3h2.2v-7.4h-1.8v-.8c.7-.1 1.4-.3 2.1-.7h.9v8.9h2v1h-5.4v-1zM190.9 16.3c0-3.4 1.2-5.1 3.1-5.1s3.1 1.7 3.1 5.1-1.2 5.2-3.1 5.2-3.1-1.7-3.1-5.2zm5 0c0-2.9-.8-4.1-1.9-4.1s-1.9 1.2-1.9 4.1.8 4.2 1.9 4.2 1.9-1.3 1.9-4.2zM211.5 19.2h-4.9v3.1h-1v-3.1h-6.2v-1h2.2v-3.6h4v-2.1h-3.3c-.6 1-1.3 1.9-2.1 2.7l-.9-.6c1.4-1.3 2.4-2.9 3-4.7l1 .2c-.2.5-.4 1-.6 1.4h8.1v1h-4.2v2.1h4v.9h-4v2.7h4.9v1zm-5.9-1v-2.6h-3v2.7l3-.1zM127.3 360.4v-.7h-7.2v-1.1c.3 0 .8.1 1.3.1h5.9V353h-7.1v-1c.4 0 .9.1 1.3.1H128.3v8.3h-1zM139.6 359.6l-.4.9c-2.3-.8-4.7-1.4-7.1-1.8l.4-.9c2.3.4 4.7 1 7.1 1.8zm-.5-3.8l-.4.9c-2-.7-4-1.2-6-1.5l.4-.9c2 .4 4.1.9 6 1.5zm.8-3.2l-.4.9c-2-.6-4.1-1.1-6.3-1.4l.3-.9c2.3.3 4.4.7 6.4 1.4zM151.5 359.2h.9v1H144v-1h5.4c.2-1 .5-3.3.6-4h-4.8v-1c.3 0 .6.1.9.1h3.6c.2 0 .4 0 .6-.1l.7.4c0 .1-.1.2-.1.4-.1.8-.4 3.2-.6 4.3l1.2-.1zM155.3 358.4c.4 0 .8.1 1.3.1h7.2c.4 0 .7 0 1.1-.1v1.1c-.4 0-.7-.1-1.1-.1h-7.2c-.4 0-.9 0-1.3.1v-1.1zm1-5.9c.4 0 .8.1 1.2.1h5.1c.4 0 .8 0 1.2-.1v1.1h-7.5v-1.1zM176 353c.3 0 .8 0 1.1-.1v1H174c-.2 3.4-1.5 5.4-3.6 6.8l-1-.7c.4-.1.7-.3 1-.5 1.7-1.3 2.6-3.3 2.6-5.5h-3.1c-.5 1-1.2 1.8-2 2.6l-.9-.6c.9-.7 1.6-1.6 2.1-2.6.3-.5.5-1.1.7-1.7.1-.3.2-.7.2-1l1.1.2c-.1.3-.2.6-.3.8s-.3.8-.4 1.2l5.6.1zM179.4 355.1c.4 0 1 .1 1.7.1h6.6c.4 0 .9 0 1.3-.1v1.2c-.2 0-.7-.1-1.3-.1h-6.6c-.7 0-1.3 0-1.7.1v-1.2zM194.6 355.4l-.6.8c-.8-.6-1.7-1.1-2.6-1.6l.5-.8c.8.3 2.2 1.2 2.7 1.6zm1.4 2.8c1.9-1 3.4-2.6 4.6-4.4l.6 1c-1.2 1.8-2.8 3.2-4.6 4.3-1.3.7-2.6 1.2-4 1.5l-.6-1c1.4-.2 2.7-.7 4-1.4zm.4-5.5l-.6.8c-.6-.4-1.9-1.3-2.6-1.7l.5-.8c1 .6 1.9 1.1 2.7 1.7zM210.5 360.9v-.5h-5.8v-1c.3 0 .7.1 1 0h4.8v-2.1h-5.4v-.9h5.4v-2H204.9v-.9h6.5V360.7l-.9.2zM220.7 357.8c1.7-1.1 3.1-2.6 4-4.4l.6 1c-1 1.7-2.3 3.2-4 4.3-1.4.9-3 1.6-4.7 1.9l-.6-1c1.6-.4 3.2-1 4.7-1.8zm-.7-3.8l-.8.8c-.9-.9-1.9-1.7-3-2.5l.7-.7c1.1.7 2.1 1.5 3.1 2.4zM341.9 328.7v2.1h-.9v-2.1h-2.7v-.8h2.7v-1h-2.3v-4.2h5.4v4.2h-2.3v1h2.7v.8h-2.6zm-2.7-6.3c-.2-.7-.5-1.4-.8-2l.7-.2c.4.6.7 1.3.9 1.9l-.8.3zm.3 2h1.6v-1.1h-1.6v1.1zm0 1.7h1.6V325h-1.6v1.1zm1.6-4c-.1-.7-.2-1.4-.5-2l.8-.2c.3.6.5 1.3.5 2l-.8.2zm2.3 1.2h-1.6v1.1h1.6v-1.1zm0 1.7h-1.6v1.1h1.6V325zm1.2-4.9c-.4.8-.8 1.5-1.3 2.3l-.7-.3c.4-.7.8-1.5 1.1-2.3l.9.3zm4.3 4.5c-.4 1.2-1 2.3-1.7 3.3.3 1.1.7 1.7 1.1 1.8.3 0 .4-.6.5-1.8.2.2.4.4.7.5-.2 1.9-.7 2.4-1.2 2.4-.8 0-1.4-.8-1.8-2-.7.8-1.5 1.5-2.4 2-.2-.2-.4-.5-.6-.6 1.1-.5 2.1-1.3 2.8-2.3-.3-1.2-.5-2.5-.6-3.8l-1.3.2-.1-.8 1.3-.2c-.1-1-.1-2.2-.2-3.4h.9c0 1.1.1 2.2.2 3.3l2.8-.4.1.8-2.8.4c.1 1.1.3 2.1.4 3 .5-.8 1-1.7 1.3-2.6l.6.2zm-.5-2.2c-.4-.7-.8-1.4-1.4-2l.7-.4c.6.6 1 1.3 1.4 2l-.7.4zM360.8 321.4c-.5 1.1-1.1 2.1-2 3 .8.7 1.8 1.3 2.8 1.7-.2.2-.4.5-.6.8-.1 0-.3-.1-.4-.2v4h-.9v-.4h-3.3v.4h-.8v-4l-.6.3c-.1-.2-.2-.3-.3-.5v1.8h-3.3v1.1h-.7v-8.8h4v2.5c1.1-.9 1.9-2 2.4-3.3l.8.2c-.2.4-.3.7-.5 1.1h2.7l.7.3zm-9.4-.1v2.6h1v-2.6h-1zm0 6.2h1v-2.9h-1v2.9zm2.6-6.2h-1v2.6h1v-2.6zm0 6.2v-2.9h-1v2.9h1zm.7-1.3c1-.4 2-1 2.9-1.8-.5-.5-.9-1.1-1.3-1.7-.3.4-.7.8-1.2 1.2-.1-.1-.3-.3-.5-.4l.1 2.7zm5.5.2c-.7-.4-1.4-.9-2-1.5-.6.6-1.3 1.1-2.1 1.5h4.1zm-.5 3.1v-2.3h-3.3v2.3h3.3zm-2.7-7.6l-.1.2c.4.6.8 1.2 1.3 1.8.6-.6 1.1-1.3 1.4-2H357zM362.4 329.8c.6-.9 1-1.8 1.3-2.9l.8.3c-.3 1.1-.7 2.1-1.3 3l-.8-.4zm9.5-4h-8.3v-5.4h8.3v5.4zm-7.5-3.1h2.9v-1.5h-2.9v1.5zm0 2.3h2.9v-1.5h-2.9v1.5zm4.8 4.8c.6 0 .7-.2.7-1.5.3.2.5.3.8.3-.1 1.6-.4 2-1.5 2h-2.4c-1.3 0-1.6-.3-1.6-1.2V327h.9v2.4c0 .3.1.4.8.4h2.3zm-.3-1.5c-.7-.7-1.6-1.3-2.5-1.8l.6-.5c.9.4 1.8 1 2.5 1.7l-.6.6zm2.2-7.1h-2.9v1.5h2.9v-1.5zm0 2.3h-2.9v1.5h2.9v-1.5zm.4 3.3c.7.9 1.3 1.9 1.7 2.9l-.9.4c-.4-1.1-.9-2.1-1.6-3l.8-.3zM380.7 324.1l-2.4 1.5c1.6-.1 3.2-.4 4.7-.8l.6.6c-1.8.4-3.7.7-5.5.8-.1.3-.1.6-.2.9h5.7v.4c-.3 1.8-.5 2.5-.9 2.9-.3.2-.6.3-.9.3H380c0-.3-.1-.6-.3-.8.7.1 1.5.1 1.8.1s.4 0 .5-.1.5-.8.7-2h-4.9c-.1.2-.1.4-.2.6l-.9-.1c.2-.6.4-1.4.6-2.2-.8.4-1.7.8-2.5 1.1-.2-.3-.4-.5-.6-.7 1.1-.4 2.3-.9 3.3-1.4l.1-.3h.4c.5-.3 1-.5 1.4-.8h-4.7v-.8h3.9V322h-3v-.7h3v-1.4h.9v1.4h2.9v.6l1.4-1.4.7.4c-.8.9-1.7 1.8-2.6 2.6h3.1v.8l-4.3-.2zm-.3-.7c.6-.4 1.2-.9 1.7-1.4h-2.7v1.4h1zM391.8 324c.7 0 1.3.6 1.3 1.3 0 .7-.6 1.3-1.3 1.3-.7 0-1.3-.6-1.3-1.3 0-.7.6-1.3 1.3-1.3zM401.9 326.9c-.2-.4-.6-1.1-.9-1.7v5.6h-.8v-5.6c-.3 1.2-.8 2.3-1.5 3.4-.1-.3-.3-.5-.5-.8.9-1.4 1.5-2.9 1.8-4.5h-1.6v-.8h1.7v-2.6h.9v2.6h1.4v.8H401v.8c.3.4 1.2 1.8 1.4 2.1l-.5.7zm7.5 2h-.8v1c0 .4-.1.6-.4.8-.5.1-1.1.2-1.6.1-.1-.3-.1-.5-.3-.7h1.3c.2 0 .2-.1.2-.2v-1h-4.1v1.9h-.8v-1.9h-.8v-.7h.8v-3h2.4v-.7h-3v-.7h1.7v-.8h-1.1v-.7h1.1v-.8h-1.4v-.7h1.4v-1h.8v1h1.9v-1h.8v1h1.4v.7h-1.5v.8h1.3v.7h-1.3v.8h1.7v.7h-3.2v.7h2.5v3h.8l.2.7zm-5.7-3v.8h1.6v-.8h-1.6zm0 2.3h1.6v-.9h-1.6v.9zm1.1-5.9h1.9v-.8h-1.9v.8zm0 1.5h1.9v-.8h-1.9v.8zm1.3 2.1v.8h1.7v-.8h-1.7zm1.7 2.3v-.9h-1.7v.9h1.7zM412.7 326.8v-3.1c-.5.9-1.1 1.8-1.9 2.5l-.6-.6c1-.8 1.8-1.9 2.3-3.1h-2v-.8h2.2v-1.8h.9v1.8h1.9v.8h-1.9v.7c.5.3 1.7 1.2 2 1.4l-.5.7c-.3-.3-1-.9-1.5-1.3v2.9l-.9-.1zm-2.3 3c.5-.7.9-1.6 1.1-2.4l.8.3c-.3.9-.6 1.7-1.1 2.5l-.8-.4zm6.9 0c.6 0 .7-.2.7-1.4.3.2.5.3.8.3-.1 1.5-.4 1.9-1.5 1.9h-2.5c-1.3 0-1.6-.2-1.6-1.2v-1.9h.9v1.9c0 .3.1.4.8.4h2.4zm-1.9-3.2c.6.5 1.1 1.1 1.7 1.7l-.6.5c-.5-.6-1.1-1.2-1.6-1.8l.5-.4zm5.2.1H416v-6.2h4.6v6.2zm-.9-5.5h-3v1.1h3v-1.1zm0 1.9h-3v1.1h3v-1.1zm0 1.8h-3v1.1h3v-1.1zm0 2.2c.5.8 1.1 1.8 1.4 2.4l-.8.4c-.4-.8-.9-1.7-1.4-2.5l.8-.3zM432.6 322.5v.5c-.3 4.9-.5 6.7-1 7.3-.2.3-.6.5-1 .5h-1.9c0-.3-.1-.6-.3-.9.8.1 1.6.1 1.9.1.2 0 .4 0 .5-.2.4-.4.7-2.1.9-6.3h-4.1c-.1 3.1-1.7 6-4.4 7.5-.2-.3-.4-.5-.7-.7 2.5-1.4 4.1-4 4.2-6.8h-3.8v-.9h3.9V320h.9v2.6l4.9-.1zM439.8 324c.7 0 1.3.6 1.3 1.3 0 .7-.6 1.3-1.3 1.3-.7 0-1.3-.6-1.3-1.3 0-.7.6-1.3 1.3-1.3zM446.4 330.1c.8-.5 1.3-1.2 1.6-2.1l.8.3c-.3.9-.9 1.7-1.8 2.3l-.6-.5zm10.5-6.7h-10.2v-.7h2.8c-.1-.4-.3-.8-.5-1.2l.4-.1h-2.2v-.7h4.1v-.8h.9v.8h4.1v.7h-2.1l.5.1c-.2.4-.5.9-.7 1.2h3l-.1.7zm-1.3 4h-4.5c.7.3 1.3.7 1.8 1.1l-.5.6c-.6-.5-1.3-.9-2-1.2l.5-.4H448V324h7.6v3.4zm-.8-2.8h-5.9v.7h5.9v-.7zm0 1.4h-5.9v.7h5.9v-.7zm-1.7 4c.5 0 .6-.1.6-1.2.2.1.5.2.8.3-.1 1.3-.4 1.6-1.3 1.6h-2.3c-1.2 0-1.5-.2-1.5-1.1v-1.5h.9v1.5c0 .3.1.3.7.3h2.1v.1zm-3.2-8.6c.2.4.4.8.5 1.2l-.4.1h3.3l-.3-.1.6-1.2h-3.7zm5.2 6.5c.8.6 1.5 1.3 2.1 2.1l-.7.5c-.6-.8-1.3-1.6-2.1-2.1l.7-.5zM458.4 329.8c.6-.9 1-1.8 1.3-2.9l.8.3c-.3 1.1-.7 2.1-1.3 3l-.8-.4zm9.5-4h-8.3v-5.4h8.3v5.4zm-7.5-3.1h2.9v-1.5h-2.9v1.5zm0 2.3h2.9v-1.5h-2.9v1.5zm4.8 4.8c.6 0 .7-.2.7-1.5.3.2.5.3.8.3-.1 1.6-.4 2-1.5 2h-2.4c-1.3 0-1.6-.3-1.6-1.2V327h.9v2.4c0 .3.1.4.8.4h2.3zm-.3-1.5c-.7-.7-1.6-1.3-2.5-1.8l.6-.5c.9.4 1.8 1 2.5 1.7l-.6.6zm2.2-7.1h-2.9v1.5h2.9v-1.5zm0 2.3h-2.9v1.5h2.9v-1.5zm.4 3.3c.7.9 1.3 1.9 1.7 2.9l-.9.4c-.4-1.1-.9-2.1-1.6-3l.8-.3zM472.5 325.1c-.7-.5-1.4-1-2.2-1.3l.5-.7c.8.3 1.5.7 2.2 1.2l-.5.8zm.9 1.6c-.6 1.3-1.3 2.8-2 3.9l-.8-.6c.8-1.2 1.4-2.5 2-3.9l.8.6zm-.3-4.8c-.6-.5-1.4-1-2.1-1.3l.5-.6c.8.3 1.5.7 2.2 1.3l-.6.6zm4.9 4.2c.5 1.8 1.7 3.2 3.4 3.9-.2.2-.4.5-.6.8-1.8-.8-3.1-2.4-3.6-4.3-.4 1.9-1.7 3.5-3.5 4.3-.2-.2-.4-.5-.7-.6 1.7-.7 3-2.2 3.4-4h-2.8v-.8h3c0-.5.1-.9.1-1.4v-1.3h-2.4v-.8h2.4V320h.9v1.9h2.9v3.5h1v.8l-3.5-.1zm-.6-2.2v1.4h2.1v-2.7h-2l-.1 1.3zM488.2 329.6c.6.1 1.3.1 1.9.1h3.1c-.2.3-.3.6-.3.9h-2.8c-2.5 0-4.3-.4-5.4-2.5-.4 1-1 1.9-1.8 2.7-.2-.2-.5-.4-.7-.6 1.3-1 2-2.7 2.2-4.9l.9.1c-.1.5-.2 1.1-.3 1.6.3 1.1 1.2 1.9 2.2 2.3v-5h-3v-.8h6.9v.8H488v2h3.5v.8H488l.2 2.5zm-4.5-5.8h-.9v-2.6h4.5v-1.4h.9v1.4h4.5v2.6h-.9V322h-8.2l.1 1.8zM316.7 351.6h.4c0-.1-.1-.3-.1-.4 0-.7.6-1.3 1.3-1.3s1.3.6 1.3 1.3c0 .7-.6 1.3-1.3 1.3-.2 0-.3 0-.5-.1v.1c-.3 1.6-.9 3.1-1.8 4.4-1.2 1.5-2.8 2.7-4.7 3.2l-.8-.9c1.9-.4 3.5-1.4 4.7-2.9.8-1.2 1.4-2.5 1.6-3.9h-7.3v-1c.4 0 .8.1 1.2.1l6 .1zm2.4-.4c0-.4-.4-.8-.8-.8s-.8.4-.8.8.4.8.8.8c.5 0 .8-.4.8-.8zM322.6 359.4c.1-.2.1-.4.1-.6V352c0-.4 0-.7-.1-1.1h1.2c0 .4-.1.7-.1 1.1v6.8c2.6-.7 4.8-2.1 6.6-4.1l.5.8c-1.8 2.1-4.3 3.6-7 4.3-.2 0-.3.1-.5.2l-.7-.6zM336.4 353.7c2-.4 4.1-.8 4.6-1 .2 0 .4-.1.6-.2l.7.5c-.1.1-.2.3-.3.5-.7 1.3-1.5 2.4-2.5 3.5l-.8-.5c.9-.8 1.6-1.8 2.1-2.9-.2 0-2.4.5-4.5.9v3.6c0 .8.3 1.1 1.8 1.1 1.3 0 2.5-.1 3.7-.4v1c-1.2.2-2.5.3-3.8.3-2.2 0-2.7-.6-2.7-1.8v-3.6c-1.2.2-2.3.5-2.8.6l-.2-1c.5-.1 1.7-.3 2.9-.5v-2c0-.4 0-.7-.1-1.1h1.1c-.1.4-.1.7-.1 1.1l.3 1.9zm5-1.5c-.3-.6-.6-1.1-1-1.6l.6-.3c.3.4.7 1.2 1 1.6l-.6.3zm1-2.4c.4.5.7 1.1 1 1.6l-.6.3c-.3-.6-.6-1.1-1-1.6l.6-.3zM350.4 357.3c1.7-1.1 3.1-2.6 4-4.4l.6 1c-1 1.7-2.3 3.2-4 4.3-1.4.9-3 1.6-4.7 1.9l-.6-1c1.6-.3 3.2-.9 4.7-1.8zm-.7-3.8l-.8.8c-.9-.9-1.9-1.7-3-2.5l.7-.7c1.1.7 2.1 1.5 3.1 2.4zM366 354c.3 0 .6 0 .9-.1v1h-4.2c0 1.1-.2 2.3-.7 3.3-.6.9-1.4 1.7-2.4 2.2l-.9-.6c.9-.4 1.7-1 2.3-1.8.5-.9.7-2 .7-3h-4.6v-1c.3 0 .7.1 1 .1l7.9-.1zm-6.4-2.1h-1.1v-1c.4 0 .7.1 1.1.1h4.9c.4 0 .7 0 1.1-.1v1h-6zM369.1 354.6c.4 0 1 .1 1.7.1h6.6c.4 0 .9 0 1.3-.1v1.2c-.2 0-.7-.1-1.3-.1h-6.6c-.7 0-1.3 0-1.7.1v-1.2zM384.4 354.9l-.5.8c-.8-.6-1.7-1.1-2.6-1.6l.5-.8c.6.4 2 1.2 2.6 1.6zm1.3 2.9c1.9-1 3.4-2.6 4.5-4.4l.6 1c-1.2 1.8-2.8 3.2-4.6 4.3-1.3.7-2.6 1.2-4 1.5l-.6-1c1.5-.3 2.9-.7 4.1-1.4zm.4-5.5l-.6.8c-.6-.4-1.9-1.3-2.6-1.7l.5-.8c.8.4 2.2 1.3 2.7 1.7zM400.3 360.5v-.5h-5.8v-1c.3 0 .7.1 1 0h4.8v-2h-5.4v-.9h5.4v-2h-5.7v-.9h6.5V360.4l-.8.1zM410.4 357.3c1.7-1.1 3.1-2.6 4-4.4l.6 1c-1 1.7-2.3 3.2-4 4.3-1.4.9-3 1.6-4.7 1.9l-.6-1c1.6-.3 3.2-.9 4.7-1.8zm-.7-3.8l-.8.8c-.9-.9-1.9-1.7-3-2.5l.7-.7c1.1.7 2.1 1.5 3.1 2.4zM421.9 354c.7 0 1.3.6 1.3 1.3s-.6 1.3-1.3 1.3c-.7 0-1.3-.6-1.3-1.3 0-.7.6-1.3 1.3-1.3zM437.8 352.5l-.7.7c-.8.9-1.7 1.8-2.7 2.5v3.2c0 .4 0 1 .1 1.3h-1.1c0-.4.1-.9.1-1.3v-2.6c-1.3.7-2.6 1.3-4 1.7l-.6-.9c1.7-.4 3.4-1.1 4.9-2 .9-.6 1.7-1.3 2.4-2.2h-6.5v-1c.5 0 1 .1 1.5.1h2.4v-.8c0-.4 0-.7-.1-1.1h1.1c-.1.4-.1.7-.1 1.1v.7h2c.3 0 .5 0 .8-.1l.5.7zm-1.7 3.1c1 .5 2 1.1 2.9 1.7l-.6.8c-.9-.7-1.9-1.3-2.9-1.9l.6-.6zM449.8 359.1v1.2h-1.1v-.7h-7.1v-1.1c.4 0 .9.1 1.3.1h5.9V353h-7v-1.1c.4 0 .9.1 1.3.1H449.9v.9l-.1 6.2zm-.8-7.3c-.3-.6-.6-1.1-1-1.6l.7-.3c.3.4.7 1.1 1 1.6l-.7.3zm1.2-2.2c.3.4.7 1.1 1 1.6l-.7.3c-.3-.6-.6-1.1-1-1.6l.7-.3zM456.4 354.9l-.5.8c-.8-.6-1.7-1.1-2.6-1.6l.5-.8c.6.4 2 1.2 2.6 1.6zm1.3 2.9c1.9-1 3.4-2.6 4.5-4.4l.6 1c-1.2 1.8-2.8 3.2-4.6 4.3-1.3.7-2.6 1.2-4 1.5l-.6-1c1.5-.3 2.9-.7 4.1-1.4zm.4-5.5l-.6.8c-.6-.4-1.9-1.3-2.6-1.7l.5-.8c.8.4 2.2 1.3 2.7 1.7zM473.9 358.3c.3 0 .7 0 1-.1v1.1c-.3 0-.7-.1-1 0h-9v-1.1c.4 0 .7.1 1.1.1h3.4v-5.5h-3.7v-1.1c.3 0 .7.1 1 .1h6.6c.3 0 .7 0 1-.1v1.1h-3.9v5.5h3.5zM477.1 354.6c.4 0 1 .1 1.7.1h6.6c.4 0 .9 0 1.3-.1v1.2c-.2 0-.7-.1-1.3-.1h-6.6c-.7 0-1.3 0-1.7.1v-1.2zM492.4 354.9l-.5.8c-.8-.6-1.7-1.1-2.6-1.6l.5-.8c.6.4 2 1.2 2.6 1.6zm1.3 2.9c1.9-1 3.4-2.6 4.5-4.4l.6 1c-1.2 1.8-2.8 3.2-4.6 4.3-1.3.7-2.6 1.2-4 1.5l-.6-1c1.5-.3 2.9-.7 4.1-1.4zm.4-5.5l-.6.8c-.6-.4-1.9-1.3-2.6-1.7l.5-.8c.8.4 2.2 1.3 2.7 1.7zM508.3 360.5v-.5h-5.8v-1c.3 0 .7.1 1 0h4.8v-2h-5.4v-.9h5.4v-2h-5.7v-.9h6.5V360.4l-.8.1zM518.4 357.3c1.7-1.1 3.1-2.6 4-4.4l.6 1c-1 1.7-2.3 3.2-4 4.3-1.4.9-3 1.6-4.7 1.9l-.6-1c1.6-.3 3.2-.9 4.7-1.8zm-.7-3.8l-.8.8c-.9-.9-1.9-1.7-3-2.5l.7-.7c1.1.7 2.1 1.5 3.1 2.4z"/><path class="st2" d="M118.2 114.8v9.3h-.9v-.6h-6.4v.7h-.9v-9.3h3c.2-.5.3-1.1.5-1.6l1 .1-.6 1.5 4.3-.1zm-7.3.9v1.8h6.4v-1.8h-6.4zm0 2.6v1.7h6.4v-1.7h-6.4zm6.4 4.3v-1.8h-6.4v1.8h6.4zM121.9 120.1c-.1 1.1-.4 2.1-.9 3.1-.2-.1-.4-.3-.7-.3.4-.9.7-1.9.8-2.8h.8zm1.4-1v5h-.8v-4.9l-1.9.1-.1-.8h.8c.3-.3.6-.7.8-1.1-.5-.6-1-1.2-1.6-1.7l.5-.6c.1.1.2.2.4.3.4-.7.8-1.5 1.1-2.2l.8.3c-.4.8-.9 1.6-1.4 2.4.3.3.5.5.7.8.5-.8 1-1.5 1.3-2.2l.8.3c-.8 1.2-1.6 2.4-2.5 3.6l1.9-.1c-.2-.4-.4-.7-.6-1.1l.7-.3c.5.8.9 1.6 1.2 2.4l-.7.3c-.1-.2-.1-.5-.2-.7l-1.2.2zm1.1.8c.4.7.6 1.5.8 2.3l-.7.2c-.2-.8-.4-1.6-.8-2.3l.7-.2zm7.2 3v.8h-7v-.7h1.3v-9.1h4.8v9.1l.9-.1zm-4.9-8.3v2.2h3v-2.2h-3zm3 3h-3v2.2h3v-2.2zm-3 5.3h3v-2.2h-3v2.2zM133.7 120.1c-.1 1-.3 2-.6 3l-.6-.3c.3-.9.5-1.9.6-2.8l.6.1zm1.7-3c.4.7.8 1.5 1 2.4l-.7.3c0-.2-.1-.5-.2-.7l-.7.1v5.1h-.7v-5l-1.6.1-.1-.8h.7c.2-.3.5-.7.7-1.1-.4-.6-.8-1.2-1.4-1.7l.4-.6.3.3c.3-.7.6-1.4.8-2.2l.8.3c-.3.8-.8 1.8-1.1 2.4.2.3.4.5.6.7.4-.7.7-1.4 1-2l.7.3c-.6 1.2-1.3 2.4-2.1 3.5l1.4-.1c-.1-.3-.3-.7-.5-1l.7-.3zm.3 2.8c.3.7.5 1.5.6 2.2l-.7.2c-.1-.8-.3-1.5-.6-2.3l.7-.1zm7.4-1.2c-.3 1.1-.8 2.1-1.4 3 .2 1 .5 1.5.8 1.5.2 0 .3-.6.4-1.7.2.2.4.3.6.4-.2 1.8-.6 2.2-1 2.2-.6 0-1.1-.7-1.4-1.7-.5.7-1.2 1.2-1.9 1.7l-.6-.6c.4-.2.7-.5 1.1-.8h-2.4v.7h-.7v-4.9h3.3v4.1c.4-.3.7-.7 1-1.2-.2-1.2-.3-2.4-.4-3.7h-4.7v-.7h1.2c0-.6-.2-1.2-.4-1.7l.6-.1c.2.6.3 1.1.4 1.7l-.5.1h1.9l-.5-.1c.2-.6.4-1.2.5-1.8h-2.9v-.7h1.6v-1.3h.8v1.3h1.6v.7H139l.7.2c-.2.6-.4 1.3-.6 1.7h1.3c-.1-1.2-.1-2.5-.1-3.9h.8c0 1.4 0 2.7.1 3.9h2.1v.7h-2c.1 1 .1 1.9.2 2.7.4-.7.6-1.3.8-2.1l.8.4zm-5.7.6v1.1h1.8v-1.1h-1.8zm1.8 2.8V121h-1.8v1.1h1.8zm3.4-5.7c-.3-.8-.7-1.5-1.1-2.2l.7-.3c.5.7.9 1.4 1.2 2.1l-.8.4zM149.8 122.6c.3 0 .7-.1 1-.2 1.7-.3 3-1.8 3-3.5.1-1.8-1.3-3.4-3.1-3.4-.1 1.2-.4 2.3-.7 3.5-.7 2.4-1.7 3.7-2.8 3.7s-2.1-1.2-2.1-3.2c.1-2.8 2.4-4.9 5.2-4.8 2.4-.1 4.4 1.7 4.5 4.1v.3c0 2.5-1.6 4.2-4.5 4.5l-.5-1zm-.7-3.9c.3-1 .5-2.1.7-3.2-2 .2-3.5 1.8-3.7 3.8 0 1.5.7 2.2 1.2 2.2s1.1-.7 1.8-2.8zM160.7 115.9h-4.2v-.7h4.2v.7zm-.3 7.5h-2.6v.5h-.8v-4h3.4v3.5zm0-5.9H157v-.7h3.4v.7zm-3.4.9h3.4v.7H157v-.7zm3.4-4h-3.3v-.7h3.3v.7zm-2.6 6.4v2h1.9v-2h-1.9zm7.2-.6c.7 1.1 1.6 2 2.6 2.7-.2.2-.4.4-.6.7-1-.8-1.8-1.7-2.4-2.8v3.4h-.9v-3.3c-.6 1.1-1.5 2.1-2.6 2.8-.2-.2-.4-.5-.6-.7 1.1-.7 2.1-1.6 2.8-2.8h-2.4v-.8h2.8v-1h-2.4v-4.6h5.7v4.6h-2.4v1h2.8v.8H165zm-2.9-4.5h1.6v-1.2h-1.6v1.2zm0 1.9h1.6v-1.2h-1.6v1.2zm4-3.1h-1.6v1.2h1.6v-1.2zm0 2h-1.6v1.2h1.6v-1.2zM171.7 122.6c1.2.4 2.4.6 3.6.5h4.2c-.2.2-.3.5-.3.8h-3.9c-2.6 0-4.4-.3-5.5-1.9-.1.8-.4 1.5-.9 2.2l-.6-.6c.7-1.2 1.1-2.6 1-3.9h.7c0 .5 0 .9-.1 1.4.2.5.5.8.9 1.2V119h-2.4v-.7h5.4v.7h-2.2v1.3h2v.7h-2l.1 1.6zm1.6-5.2h-3.9v-3.7h3.9v3.7zm-.9-3.1h-2.3v.9h2.3v-.9zm0 1.6h-2.3v.9h2.3v-.9zm3.7 5.2c-.6.7-1.3 1.3-2.1 1.8l-.6-.6c.8-.3 1.4-.8 2-1.4l.7.2zm-.2-5.7l.3-.9H174v-.7h5.4v.7H177l-.3.9h2.2v5.3h-4.5v-5.3h1.5zm2.1.6h-2.9v.9h2.9v-.9zm0 1.5h-2.9v.9h2.9v-.9zm0 1.5h-2.9v.9h2.9v-.9zm-.4 1.8c.7.4 1.3.9 1.9 1.5l-.6.4c-.5-.6-1.2-1.1-1.8-1.6l.5-.3zM188.4 114.5c-.1 1.4-1 2.6-2.3 3.2-.1-.2-.3-.4-.5-.6v6c0 .4-.1.7-.4.8-.5.1-1.1.2-1.6.2-.1-.3-.1-.5-.3-.8h1.3c.1 0 .2-.1.2-.2V121H182c-.1 1.1-.4 2.2-.9 3.2-.2-.2-.4-.3-.6-.4.7-1.4 1-2.9.9-4.4v-2.2l-.3.3c-.2-.2-.4-.4-.7-.5.9-1.1 1.6-2.4 1.9-3.8l.8.2-.3.9h1.5l.5.3c-.2.6-.5 1.1-.8 1.7h1.5v1c1.1-.5 1.9-1.5 2-2.6H186v-.8h5.2v.3c-.1 2-.2 2.7-.5 3-.2.2-.4.3-.6.3h-1.2c0-.3-.1-.5-.2-.8.4 0 .7.1 1.1.1.2 0 .3 0 .3-.1.2-.7.4-1.4.3-2.1l-2-.1zm-5.8.5c-.2.4-.4.8-.6 1.3h1.4c.2-.4.4-.8.5-1.3h-1.3zm-.5 4.4v.9h1.1v-1.4h-1.1v.5zm0-1.2h1.1v-1.3h-1.1v1.3zm1.7 0h1.1v-1.3h-1.1v1.3zm1.1 2.1v-1.4h-1.1v1.4h1.1zm6.6 1.5h-2.3v2.3h-.9v-2.3h-2.5v-.8h2.5v-1.5H187l-.6 1.2c-.2-.1-.5-.3-.7-.4.6-.8.9-1.7 1.1-2.7l.8.2-.3.9h1v-1.2h.9v1.2h2.1v.8h-2.1v1.5h2.3v.8zM194.7 118.4c-.7-.5-1.4-1-2.2-1.3l.5-.7c.8.3 1.5.7 2.2 1.2l-.5.8zm.9 1.7c-.6 1.3-1.3 2.8-2 3.9l-.8-.6c.7-1.3 1.4-2.5 2-3.9l.8.6zm-.3-4.8c-.6-.5-1.4-1-2.1-1.3l.5-.6c.8.3 1.5.7 2.2 1.3l-.6.6zm4.9 4.2c.5 1.8 1.7 3.2 3.4 3.9-.2.2-.5.5-.6.8-1.8-.8-3.1-2.4-3.6-4.3-.4 1.9-1.7 3.5-3.5 4.3-.2-.2-.4-.4-.7-.6 1.7-.7 3-2.2 3.4-4h-2.8v-.8h2.9c0-.5.1-.9.1-1.4V116h-2.4v-.8h2.4v-1.9h.9v1.9h2.9v3.6h1v.8l-3.4-.1zm-.6-2.2c0 .4 0 .9-.1 1.4h2.1V116h-2v1.3zM208.8 117.4c.7 0 1.3.6 1.3 1.3 0 .7-.6 1.3-1.3 1.3s-1.3-.6-1.3-1.3.6-1.3 1.3-1.3zM217.8 119.2c-.4.2-.9.3-1.3.4v3.3c0 .5-.1.7-.4.9-.5.2-1 .2-1.5.2-.1-.3-.1-.6-.3-.8h1.1c.1 0 .2 0 .2-.2v-3.1c-.5.2-1 .3-1.4.4l-.2-.9c.4-.1 1-.3 1.6-.5v-2.6h-1.5v-.8h1.5v-2.4h.8v2.4h1.3v.8h-1.3v2.4l1.2-.4.2.9zm4 3.9c.4 0 .8.1 1.1.1h2.3c-.1.2-.2.5-.3.8h-2.1c-1.7 0-3-.3-3.8-2-.3.8-.8 1.6-1.4 2.2-.2-.2-.4-.4-.7-.5 1.1-1 1.8-2.5 1.8-4l.8.1c-.1.4-.1.9-.3 1.3.2.8.8 1.5 1.6 1.8v-3.8H218v-.8h6.8v.8h-3.1v1.4h2.5v.7h-2.5l.1 1.9zm2.4-5.6h-5.6v-3.9h5.6v3.9zm-.9-3.2h-4v.9h4v-.9zm0 1.5h-4v1h4v-1zM237 115.5v.8h-10.7v-.8H237zm-9 4.9h7.2v3.7h-.9v-.5h-5.4v.5h-.9v-3.7zm7.1-2.5h-6.9v-.8h6.9v.8zm-7 .8h6.9v.7h-6.9v-.7zm6.8-4.1h-6.6v-.7h6.6v.7zm-6 6.5v1.7h5.4v-1.7h-5.4zM306.8 120.4c-.1 1-.4 2-.9 3-.2-.1-.5-.3-.7-.3.4-.9.7-1.9.8-2.9l.8.2zm1.3-1v5h-.8v-4.9l-1.9.1-.1-.8h.8c.3-.3.5-.7.8-1.1-.5-.6-1-1.2-1.5-1.7l.5-.6.4.3c.4-.7.8-1.5 1.1-2.2l.8.3c-.4.8-.9 1.7-1.4 2.4.3.3.5.5.7.8l1.2-2.1.8.3c-.7 1.2-1.5 2.4-2.4 3.6l1.8-.1c-.2-.4-.4-.7-.6-1.1l.6-.3c.5.8.9 1.6 1.1 2.4l-.7.3c0-.2-.1-.4-.2-.7l-1 .1zm1 .7c.3.7.6 1.4.8 2.2l-.7.2c-.2-.8-.4-1.5-.7-2.2l.6-.2zm4.4 3.1h2.9v.8h-6.8v-.8h3v-2h-2.3v-.8h2.3v-1.7h.9v1.7h2.4v.8h-2.4v2zm2.4-9c-.4 1.2-1.2 2.3-2.1 3.2.9.6 1.8 1 2.8 1.2-.2.2-.4.5-.5.7-1.1-.3-2.1-.7-2.9-1.4-.9.6-1.9 1.1-2.9 1.4-.1-.3-.3-.5-.5-.7 1-.3 1.9-.7 2.7-1.2-.7-.7-1.3-1.5-1.7-2.4l.5-.2h-1.2v-.8h5.4l.4.2zm-4.4.6c.4.8.9 1.5 1.5 2.1.7-.6 1.2-1.3 1.6-2.1h-3.1zM327.9 115.3v2.3h-.9V116h-8.2v1.6h-.8v-2.3h1.7c-.3-.5-.6-1-1-1.4l.8-.3c.4.5.8 1 1.1 1.6l-.4.2h2.3c-.2-.6-.5-1.1-.9-1.7l.8-.3c.4.5.7 1.1.9 1.7l-.6.2h2.2c.5-.6.9-1.2 1.2-1.8l.9.3-1.2 1.5h2.1zm-4.6 4.5c-.1.3-.3.7-.4 1h4.2v3.7h-.9v-.5h-6.4v.4h-.8v-3.7h3c.1-.3.2-.6.3-1h-2.5V117h6.3v2.8h-2.8zm3 1.7h-6.4v1.6h6.4v-1.6zm-5.6-2.4h4.6v-1.4h-4.6v1.4zM335.4 117.6h3.9v6.7h-.9v-.5h-8v-.8h8v-1.9H331v-.9h7.4v-1.7h-7.8v-.9h3.9v-4.2h1l-.1 4.2zm-3.4-.6c-.4-1-.9-1.9-1.5-2.8l.8-.3c.7.8 1.2 1.7 1.6 2.7l-.9.4zm7.5-2.8c-.5 1-1.1 2-1.7 3l-.8-.3c.6-.9 1.1-2 1.5-3l1 .3zM352.3 121h-1.2v2.1h-.9v-.5h-2.9v.8c0 .6-.2.8-.5.9-.7.1-1.3.2-2 .2-.1-.3-.2-.5-.3-.8h1.6c.2 0 .3-.1.3-.3v-.8h-3.9v-.7h3.9v-.9h-4.9v-.7h4.9v-.8h-3.8v-.7h3.8v-.8H343v-2.1h3.4v-.7h-4.7v-.7h4.7v-1h.9v1h4.8v.7h-4.8v.7h3.6v2.1h-3.6v.8h3.8v1.5h1.2v.7zm-5.9-3.7v-.9h-2.6v.9h2.6zm.9-.8v.9h2.7v-.9h-2.7zm0 3.8h2.9v-.8h-2.9v.8zm2.9.7h-2.9v.9h2.9v-.9zM359.7 118.1c-.6.5-1.3.9-1.9 1.3h5v5h-.9v-.4H357v.4h-.9v-4.2c-.7.3-1.5.7-2.2 1-.2-.3-.4-.5-.6-.7 1.7-.6 3.4-1.4 4.9-2.4h-4.7v-.8h4.1v-1.5h-3v-.8h3v-1.5h.9v1.5h3v.5c.5-.5 1-1 1.4-1.6l.8.4c-.9 1.1-1.8 2.1-2.9 3h3.5v.8h-4.6zm2.1 2H357v1.2h4.9l-.1-1.2zm0 3.1V122H357v1.3l4.8-.1zm-2.4-6l1.8-1.5h-2.7v1.5h.9zM374.4 116.3c-.3.2-.6.4-.9.5-1.2.6-2.4 1.3-3.6 2-1.1.7-1.8 1.5-1.8 2.4s.9 1.6 2.8 1.6c1.3 0 2.6-.1 3.8-.4v1.1c-1.2.2-2.5.3-3.8.3-2.2 0-3.9-.7-3.9-2.4 0-1.2.8-2.2 2-3.1-.5-1-1.2-2.4-1.7-3.7l.9-.4c.4 1.2 1 2.4 1.6 3.5 1.1-.7 2.4-1.3 3-1.7.3-.2.6-.3.9-.6l.7.9zM381 114.2c-.1.4-.1.8-.1 1.2 0 1.3-.1 4.2-.1 5.9 0 1.3.8 1.8 2 1.8 1.8 0 3.4-.9 4.3-2.5l.7.8c-1.1 1.6-3 2.6-5 2.6-1.7 0-2.9-.7-2.9-2.7 0-1.8.1-4.8.1-6 0-.4 0-.8-.1-1.2l1.1.1zM391 115.4c.8-.1 3-.3 5.2-.5 1.3-.1 2.4-.2 3.2-.2v1c-.8 0-1.6 0-2.3.2-1.6.6-2.7 2.1-2.7 3.8 0 2.3 2.2 3 4.1 3.1l-.4 1c-2.2-.1-4.7-1.3-4.7-3.9 0-1.6.8-3.1 2.2-4-1 .1-4.3.4-5.6.7l-.1-1 1.1-.2zM406.8 122.9c.3 0 .7-.1 1-.1 1.7-.3 3-1.8 3-3.5.1-1.8-1.3-3.4-3.1-3.4-.2 1.2-.4 2.3-.7 3.4-.7 2.4-1.7 3.7-2.8 3.7s-2.1-1.2-2.1-3.2c.1-2.8 2.4-4.9 5.2-4.8 2.4-.1 4.4 1.7 4.6 4.1v.3c0 2.5-1.6 4.2-4.5 4.5l-.6-1zm-.8-3.9c.3-1.1.5-2.1.7-3.2-2 .2-3.5 1.8-3.7 3.8 0 1.5.7 2.2 1.2 2.2s1.2-.8 1.8-2.8zM416.5 121.1v.3c.6.5 1.2 1.1 1.7 1.7l-.6.6c-.4-.5-.9-1-1.4-1.5-.4 1-1.2 1.8-2.1 2.2-.2-.2-.3-.4-.6-.6 1.1-.5 2-1.5 2.2-2.7h-2.1v-.8h2.2v-1.2h-.9c-.2.4-.4.8-.7 1.2-.2-.2-.4-.3-.7-.4.6-.7 1-1.6 1.2-2.5l.8.2c-.1.3-.2.6-.3.8h3.1v.7h-1.7v1.2h1.9v.8h-2zm-1-3.8c-1.1 0-1.4-.2-1.4-1.1v-2.8h.8v1.4c.9-.2 1.8-.5 2.6-.9l.6.6c-1 .4-2.1.8-3.2 1v.7c0 .3.1.4.6.4h1.8c.4 0 .5-.1.5-1.1.2.1.5.3.7.3-.1 1.3-.3 1.6-1.2 1.6l-1.8-.1zm9 6.2c-.1.2-.2.5-.3.8H423c-1.4.2-2.8-.6-3.3-1.9-.2.8-.6 1.5-1.1 2.1-.2-.2-.4-.4-.7-.5 1-1.1 1.3-2.7 1.4-4.8h.8c0 .7-.1 1.4-.2 2.1.2.7.6 1.3 1.2 1.8v-4.6h-2.4v-.8h3.8c-.9-.7-1.9-1.3-3-1.8l.5-.6c.4.2.9.4 1.3.7.6-.4 1.1-.8 1.5-1.3h-4v-.7h4.8l.5.4c-.6.8-1.3 1.6-2.2 2.2.3.2.7.4 1 .7l-.5.6H423.8l.5.2c-.2.7-.5 1.4-.8 2.1l-.7-.2c.2-.4.4-.8.5-1.3h-1.6v2h2.2v.8h-2.2v2.2c.4.1.8.2 1.2.1l1.6-.3zM429 113.7c-.3.9-.8 1.8-1.2 2.6v8h-.8v-6.7l-1.2 1.5c-.1-.3-.3-.6-.5-.9 1.3-1.4 2.3-3 3-4.8l.7.3zm3.7 7.2c-1.4.6-2.9 1.2-4.1 1.6l-.4-.9c.4-.1.8-.3 1.3-.4l-.1-7.1h.9l.1 6.8c.7-.2 1.4-.5 2.1-.8l.2.8zm3.3 3.5c-.6-.9-1.2-1.8-1.9-2.6-1 1.3-2.3 2.2-3.9 2.7-.2-.3-.4-.5-.6-.8 4.3-1.3 5.2-4.1 5.4-9.8h.9c-.1 3.1-.5 5.4-1.4 7.1.8.9 1.5 1.8 2.1 2.7l-.6.7zm-3.2-6.2c-.4-1-.9-2-1.5-2.9l.7-.3c.6.9 1.2 1.8 1.6 2.8l-.8.4zM440.8 113.7c-.3.9-.7 1.7-1.1 2.5v8.1h-.9v-6.6c-.3.5-.6.9-1 1.4-.1-.3-.3-.6-.5-.9 1.2-1.4 2.1-3 2.6-4.8l.9.3zm4.5 3c.6 1.9 1.8 3.6 3.2 5-.3.2-.5.4-.7.7-1.4-1.5-2.5-3.3-3.1-5.3v4.2h1.9v.8h-1.9v2.2h-.9v-2.2h-2v-.8h2v-4.1c-.7 1.9-1.7 3.7-3.2 5.2-.2-.2-.4-.5-.6-.7 1.5-1.4 2.6-3.1 3.3-5.1h-2.8v-.9h3.4v-2.4h.9v2.4h3.6v.9l-3.1.1zM449.3 123.4c.4-.8.6-1.7.6-2.7l.6.1c0 1-.2 2-.7 2.8l-.5-.2zm5.1-4.1v.3c-.1 2.9-.3 4-.5 4.4-.2.2-.4.3-.6.3h-1.1c0-.2-.1-.5-.2-.7h.9c.1 0 .2 0 .3-.1.2-.5.3-1 .3-1.5l-.4.2c-.1-.5-.4-1.1-.6-1.6l.4-.2c.3.5.5.9.6 1.4 0-.5.1-1.1.1-1.9H450v-6.1h4.3v.8h-1.6v1h1.3v.7h-1.3v1.1h1.3v.7h-1.3v1.1l1.7.1zm-3.2 1.6c.1.7.2 1.4.2 2.2l-.5.1c0-.7 0-1.5-.2-2.2l.5-.1zm-.4-6.2v1h1.2v-1h-1.2zm1.2 1.7h-1.2v1.1h1.2v-1.1zm-1.2 2.9h1.2v-1.1h-1.2v1.1zm1.3 3.5c-.1-.7-.2-1.3-.5-1.9l.4-.1c.2.6.4 1.3.5 1.9l-.4.1zm5.6-9.4c.7 1.2 1.8 2.2 3 2.9-.2.2-.3.5-.5.8-1.1-.7-2.1-1.7-2.9-2.8-.7 1.2-1.7 2.2-2.8 3-.1-.3-.3-.5-.5-.7 1.2-.7 2.2-1.8 2.8-3.1l.9-.1zm.3 7.6c.4 1.2 1.3 2.1 2.5 2.6-.2.2-.4.4-.6.7-1.2-.6-2.1-1.6-2.5-2.9-.5 1.3-1.5 2.4-2.8 2.9-.2-.2-.3-.4-.6-.6 1.2-.5 2.2-1.5 2.7-2.7h-2v-3h2.2v-.9h-1.4v-.7h3.7v.7h-1.5v.9h2.3v3h-2zm-1.2-.6c.1-.4.1-.8.1-1.2v-.4h-1.5v1.6h1.4zm.9-1.6v.4c0 .4 0 .8-.1 1.2h1.6v-1.6h-1.5zM469.3 118.9c0-2.1.9-4.2 2.4-5.7l.7.4c-2.9 2.9-3 7.7-.1 10.6l.1.1-.7.4c-1.6-1.6-2.4-3.6-2.4-5.8zM479 123.5l-2.1-3.7h-1.6v3.7h-1.1v-8.8h2.8c1.8 0 3.1.6 3.1 2.5.1 1.2-.8 2.3-2 2.5l2.3 3.8H479zm-3.7-4.7h1.5c1.4 0 2.1-.6 2.1-1.7s-.8-1.6-2.1-1.6h-1.5v3.3zM483.6 115.6h-2.7v-.9h6.4v.9h-2.7v7.9h-1.1l.1-7.9zM488.4 119c0-2.8 1.5-4.5 3.8-4.5s3.8 1.7 3.8 4.5-1.5 4.6-3.8 4.6-3.8-1.7-3.8-4.6zm6.4 0c0-2.2-1-3.6-2.6-3.6s-2.6 1.4-2.6 3.6 1 3.6 2.6 3.6 2.6-1.4 2.6-3.6zM497.3 119.1c0-2.8 1.7-4.6 3.9-4.6.9 0 1.8.4 2.4 1.1l-.6.7c-.4-.5-1.1-.8-1.8-.8-1.7 0-2.8 1.4-2.8 3.6s1.1 3.6 2.7 3.6c.8 0 1.5-.4 2-1l.6.7c-.7.8-1.7 1.3-2.7 1.3-2-.1-3.7-1.8-3.7-4.6zM504.9 122.3l.7-.8c.6.7 1.5 1.1 2.4 1.1 1.1 0 1.9-.6 1.9-1.4s-.6-1.2-1.5-1.6l-1.3-.6c-1-.3-1.7-1.2-1.8-2.3.1-1.4 1.3-2.4 2.6-2.4h.1c1 0 1.9.4 2.6 1.1l-.6.7c-.5-.5-1.3-.8-2-.8-1 0-1.6.5-1.6 1.3s.8 1.2 1.5 1.5l1.3.5c1.1.3 1.8 1.2 1.8 2.3 0 1.4-1.1 2.5-3 2.5-1.2.2-2.3-.2-3.1-1.1zM512.6 117c.1-1.7 1.6-3.1 3.3-3s3.1 1.6 3 3.3c-.1 1.7-1.5 3-3.1 3-1.7 0-3.2-1.4-3.2-3.2v-.1zm5.6 0c-.1-1.4-1.3-2.4-2.7-2.3s-2.4 1.3-2.3 2.7c.1 1.3 1.2 2.3 2.5 2.3 1.4 0 2.5-1.2 2.5-2.7zm-3.7-1.7h1.3c.7 0 1.3.3 1.3 1.1 0 .4-.2.8-.6.9l.8 1.4h-.8l-.6-1.2h-.7v1.2h-.7v-3.4zm1.1 1.7c.5 0 .7-.2.7-.6s-.2-.6-.7-.6h-.5v1.1l.5.1zM522.9 118.9c0 2.1-.9 4.2-2.4 5.7l-.7-.4c2.9-2.9 3-7.6.1-10.6l-.1-.1.7-.4c1.6 1.6 2.4 3.7 2.4 5.8z"/><path class="st10" d="M325.2 10.8c0 2.4.3 7.5 5.6 10.6-.3.2-.6.5-.8.8-2.7-1.7-4.7-4.4-5.4-7.5-1 3.5-2.7 6-5.4 7.5-.3-.3-.6-.6-.9-.8 3-1.5 4.6-4.3 5.5-8l.6.1c-.1-.6-.1-1.2-.2-1.7h-3.3v-1h4.3zM336.9 18.4l-1.7-1.7v5.6h-1v-5.2c-.6.6-1.3 1.2-2.1 1.7-.1-.3-.3-.6-.5-.9 1.8-1.1 3.2-2.6 4.2-4.4H332v-.9h2.1V10h1v2.5h1.4l.6.4c-.4 1.1-1 2-1.7 2.9.6.5 1.8 1.5 2.1 1.8l-.6.8zm7.4 2.6v1h-7.6v-1h3.4v-5.6h-2.9v-1h2.9v-4.3h1v4.3h2.9v1h-2.9V21h3.2zM347.1 20.6c3.1-2.7 4.5-4.7 4.5-6.4.1-.9-.5-1.8-1.5-2h-.4c-.8.1-1.5.5-2 1.1l-.7-.7c.7-.9 1.8-1.4 2.9-1.4 1.5-.1 2.8 1 2.9 2.5v.4c0 2-1.5 4-3.9 6.2.5 0 1.1-.1 1.6-.1h2.7v1.1H347l.1-.7zM355.2 16.3c0-3.4 1.2-5.1 3.1-5.1s3.1 1.7 3.1 5.1-1.2 5.2-3.1 5.2-3.1-1.7-3.1-5.2zm5 0c0-2.9-.8-4.1-1.9-4.1s-1.9 1.2-1.9 4.1.8 4.2 1.9 4.2 1.9-1.3 1.9-4.2zM375.8 19.2h-4.9v3.1h-1v-3.1h-6.2v-1h2.2v-3.6h4v-2.1h-3.3c-.6 1-1.3 1.9-2.1 2.7l-.9-.6c1.4-1.3 2.4-2.9 3-4.7l1 .2c-.2.5-.4 1-.6 1.4h8v1h-4.3v2.1h4v.9h-4v2.7h4.9l.2 1zm-5.9-1v-2.6h-3v2.7l3-.1zM141.3 24.7c0 .3-.3.6-.6.6h-1.2c-.3 0-.6-.2-.6-.6v-9.4h-1.2v10c0 .7.5 1.2 1.1 1.2h2.5c.7 0 1.2-.5 1.2-1.2v-10h-1.2v9.4zm-1.2-15.4c1 0 1.8-.8 1.8-1.8s-.8-1.8-1.8-1.8-1.8.8-1.8 1.8c.1 1 .9 1.8 1.8 1.8zm0-2.3c.3 0 .6.3.6.6s-.3.6-.6.6-.6-.3-.6-.6c.1-.4.3-.6.6-.6zm2.4 3.5h-4.7c-1.3 0-2.4 1.1-2.4 2.4v5.9h1.2v-5.9c0-.7.5-1.2 1.2-1.2h4.7c.7 0 1.2.5 1.2 1.2v5.9h1.2v-5.9c0-1.3-1.1-2.4-2.4-2.4z"/><path class="st10" d="M136.6 20h2.4v-1.2h-3.6c0 .6.5 1.2 1.2 1.2zM141.3 18.8V20h2.4c.6 0 1.2-.5 1.2-1.1l-3.6-.1zM305.1 25.1c0 .3-.2.6-.6.6h-1.2c-.3 0-.6-.2-.6-.6v-9.4h-1.2v10c0 .7.5 1.2 1.2 1.2h2.4c.7 0 1.2-.5 1.2-1.2v-10h-1.2v9.4zm-1.2-15.3c1 0 1.8-.8 1.8-1.8s-.8-1.8-1.8-1.8-1.8.8-1.8 1.8.8 1.8 1.8 1.8zm0-2.4c.3 0 .6.2.6.6 0 .3-.3.6-.6.6s-.6-.3-.6-.6.3-.6.6-.6zm2.4 3.6h-4.7c-1.3 0-2.4 1.1-2.4 2.4v5.9h1.2v-6c0-.7.5-1.2 1.2-1.2h4.7c.7 0 1.2.5 1.2 1.2v5.9h1.2v-5.9c-.1-1.3-1.1-2.3-2.4-2.3z"/><path class="st10" d="M300.4 20.4h2.4v-1.2h-3.5c-.1.7.4 1.2 1.1 1.2-.1 0 0 0 0 0zM305.1 19.2v1.2h2.4c.6 0 1.2-.5 1.2-1.1h-3.6v-.1zM483.5 10.8c0 2.4.3 7.5 5.6 10.6-.3.2-.6.5-.8.8-2.8-1.7-4.7-4.4-5.4-7.5-1 3.5-2.7 6-5.4 7.5-.3-.3-.6-.6-.9-.8 3-1.5 4.6-4.3 5.5-8l.6.1c-.1-.6-.1-1.2-.2-1.7h-3.3v-1h4.3zM495.2 18.4l-1.7-1.7v5.6h-1v-5.2c-.6.6-1.3 1.2-2.1 1.7-.1-.3-.3-.6-.5-.9 1.8-1.1 3.2-2.6 4.2-4.4h-3.7v-.9h2.1V10h1v2.5h1.4l.6.4c-.4 1.1-1 2-1.7 2.9.6.5 1.8 1.5 2.1 1.8l-.7.8zm7.4 2.6v1H495v-1h3.4v-5.6h-2.9v-1h2.9v-4.3h1v4.3h2.9v1h-2.9V21h3.2zM505.3 20.1l.6-.8c.6.7 1.5 1.1 2.5 1.1 1 .1 1.9-.6 2-1.6v-.2c0-1.2-.8-2-3.1-2v-.9c2 0 2.7-.8 2.7-1.9 0-.8-.6-1.6-1.5-1.6h-.2c-.8.1-1.5.4-2.1 1l-.7-.8c.7-.7 1.7-1.2 2.8-1.2 1.7 0 2.9.9 2.9 2.5 0 1.1-.7 2.1-1.8 2.4 1.2.2 2.1 1.3 2.1 2.5 0 1.6-1.3 2.9-2.9 2.8h-.3c-1.1.1-2.2-.4-3-1.3zM513.5 16.3c0-3.4 1.2-5.1 3.1-5.1s3.1 1.7 3.1 5.1-1.2 5.2-3.1 5.2-3.1-1.7-3.1-5.2zm5 0c0-2.9-.8-4.1-1.9-4.1s-1.9 1.2-1.9 4.1.8 4.2 1.9 4.2 1.9-1.3 1.9-4.2zM534.2 19.2h-4.9v3.1h-1v-3.1H522v-1h2.2v-3.6h4v-2.1H525c-.6 1-1.2 1.9-2 2.7l-.9-.6c1.4-1.3 2.4-2.9 3-4.7l1 .2c-.2.5-.4 1-.6 1.4h8v1h-4.3v2.1h4v.9h-4v2.7h4.9l.1 1zm-5.9-1v-2.6h-3v2.7l3-.1zM464.7 25.6c0 .3-.2.6-.6.6h-1.2c-.3 0-.6-.2-.6-.6v-9.4h-1.2v10c0 .7.5 1.2 1.2 1.2h2.4c.7 0 1.2-.5 1.2-1.2v-10h-1.2v9.4zm-1.2-15.4c1 0 1.8-.8 1.8-1.8s-.8-1.8-1.8-1.8-1.8.8-1.8 1.8c.1 1 .8 1.8 1.8 1.8zm0-2.3c.3 0 .6.2.6.6 0 .3-.3.6-.6.6s-.6-.3-.6-.6c0-.4.3-.6.6-.6zm2.4 3.5h-4.7c-1.3 0-2.4 1.1-2.4 2.4v5.9h1.2v-5.9c0-.7.5-1.2 1.2-1.2h4.7c.7 0 1.2.5 1.2 1.2v5.9h1.2v-5.9c0-1.3-1.1-2.4-2.4-2.4z"/><path class="st10" d="M460 20.8h2.4v-1.2h-3.5c-.1.7.4 1.2 1.1 1.2 0 .1 0 .1 0 0z"/><path d="M464.7 19.7v1.2h2.4c.6 0 1.2-.5 1.2-1.1h-3.6v-.1z"/></svg>