<?xml version="1.0" encoding="utf-8"?>
<!-- Generator: Adobe Illustrator 23.0.3, SVG Export Plug-In . SVG Version: 6.00 Build 0)  -->
<svg version="1.1" id="レイヤー_1" xmlns="http://www.w3.org/2000/svg" xmlns:xlink="http://www.w3.org/1999/xlink" x="0px"
	 y="0px" viewBox="0 0 900 260" style="enable-background:new 0 0 900 260;" xml:space="preserve">
<style type="text/css">
	.st0{fill:#FFF5EF;}
	.st1{fill:#FFE6D0;}
	.st2{fill:#333333;}
	.st3{fill:#E94E3C;}
	.st4{fill:#777777;}
	.st5{fill:none;stroke:#777777;stroke-miterlimit:10;stroke-dasharray:3,3;}
	.st6{fill:#FFFFFF;}
</style>
<path class="st0" d="M0,0.3h900v259.4H0V0.3z"/>
<path class="st1" d="M180.1,231.2H55V116.1h125.1l36.9,57.5L180.1,231.2z M357,231.2H231.9V116.1H357l36.9,57.5L357,231.2z"/>
<path class="st2" d="M518.8,39l0.8-1.1c0.7,0.8,1.6,1.2,2.6,1.2c1,0.1,2-0.6,2.1-1.6c0-0.1,0-0.2,0-0.2c0-1.2-0.8-2-3.3-2V34
	c2.2,0,2.9-0.8,2.9-1.9c0-0.8-0.6-1.6-1.5-1.6c-0.1,0-0.2,0-0.2,0c-0.8,0-1.6,0.4-2.2,1l-0.9-1.1c0.9-0.8,2-1.3,3.2-1.3
	c2,0,3.4,1,3.4,2.9c0,1.2-0.8,2.2-1.9,2.6v0.1c1.3,0.2,2.3,1.4,2.3,2.8c0,2-1.7,3.2-3.7,3.2C521,40.6,519.7,40,518.8,39L518.8,39z
	 M543.8,33.4c0.4,0,0.8,0,1.2-0.1v1.5c-0.4,0-0.8-0.1-1.2,0h-2c-0.3,3.3-1.5,5.5-3.8,6.9l-1.5-1c0.4-0.2,0.9-0.4,1.3-0.7
	c1.6-1.3,2.5-3.2,2.6-5.2h-2.9c-0.6,1-1.3,1.8-2.1,2.6l-1.4-0.8c0.9-0.7,1.7-1.6,2.3-2.6c0.4-0.6,0.7-1.2,0.8-1.9
	c0.1-0.3,0.2-0.7,0.2-1l1.7,0.4c-0.1,0.3-0.2,0.6-0.3,0.8c-0.1,0.4-0.3,0.8-0.5,1.2L543.8,33.4z M561,39.6c0,0.9-0.2,1.3-0.8,1.6
	c-1,0.3-2.1,0.4-3.2,0.3c-0.1-0.5-0.3-1-0.6-1.5c1.2,0.1,2.4,0,2.7,0s0.5-0.1,0.5-0.4V37h-6.8c-0.3,1.8-1.2,3.4-2.6,4.6
	c-0.3-0.4-0.7-0.7-1.1-1c2.3-2,2.6-5,2.6-7.3v-4.8h9.3V39.6z M559.5,35.6v-2.2h-6.5c0,0.7,0,1.5-0.1,2.2L559.5,35.6z M553.1,29.8
	v2.2h6.5v-2.2H553.1z"/>
<path class="st3" d="M72.2,160.5c0-2.8,2.2-5,5-5s5,2.2,5,5s-2.2,5-5,5S72.2,163.3,72.2,160.5z"/>
<path class="st2" d="M103.8,163.4h-1.7v2.8h-1.5v-0.7h-3.4v0.8c0,0.8-0.2,1.1-0.8,1.4c-0.9,0.2-1.8,0.3-2.7,0.2
	c-0.1-0.4-0.3-0.8-0.5-1.2h2.1c0.3,0,0.4-0.1,0.4-0.4v-0.9h-5v-1.1h5v-1h-6.4v-1.2h6.4v-0.9h-4.8v-1.1h4.8v-0.9h-4.4v-2.9h4.4v-0.8
	h-6.1v-1.2h6.1v-1.2h1.5v1.2h6.2v1.2h-6.2v0.8h4.7v2.9h-4.7v0.9h4.9v2h1.7L103.8,163.4z M95.7,158.3v-1h-3v1H95.7z M97.2,157.3v1
	h3.2v-1H97.2z M97.2,162.2h3.4v-0.9h-3.4V162.2z M100.6,163.3h-3.4v1h3.4V163.3z M120,155.6v1.4h-14.3v-1.4h3.7
	c-0.4-0.7-0.8-1.4-1.3-2l1.4-0.5c0.6,0.6,1.1,1.4,1.5,2.1l-0.8,0.3h4.6c0.5-0.8,1-1.6,1.4-2.5l1.6,0.5c-0.4,0.7-0.9,1.4-1.3,2H120z
	 M112.7,166.3c0,0.7-0.2,1.1-0.6,1.3c-0.7,0.2-1.5,0.3-2.2,0.3c-0.1-0.4-0.3-0.9-0.5-1.3h1.6c0.2,0,0.3-0.1,0.3-0.3v-1.8H108v3.3
	h-1.4v-9.5h6L112.7,166.3z M108.1,159.5v1.3h3.2v-1.3H108.1z M111.2,163.3V162H108v1.4L111.2,163.3z M115.7,164.9h-1.4v-6.5h1.4
	V164.9z M117.5,157.9h1.5v8.2c0,0.8-0.2,1.2-0.7,1.4c-0.8,0.3-1.7,0.4-2.6,0.3c-0.1-0.5-0.3-1-0.5-1.4h2c0.2,0,0.3-0.1,0.3-0.3
	L117.5,157.9z M134.9,157.3c0,0.3-0.1,0.6-0.1,0.8c0,1.6-0.3,6.2-1,7.8c-0.3,0.8-1,1.2-1.9,1.1c-0.9,0-1.8-0.1-2.6-0.1l-0.2-1.7
	c0.8,0.1,1.5,0.2,2.3,0.2c0.4,0.1,0.8-0.2,0.9-0.5c0.6-1.1,0.8-4.7,0.8-6.5h-4.1c-0.6,4.4-2.2,6.9-4.9,8.8l-1.5-1.2
	c0.7-0.4,1.3-0.8,1.8-1.4c1.7-1.7,2.7-3.9,2.9-6.3H125c-0.6,0-1.3,0-2,0.1v-1.7c0.6,0.1,1.3,0.1,2,0.1h2.6c0-0.5,0.1-1,0.1-1.5
	c0-0.5,0-0.9-0.1-1.4h1.9c0,0.4-0.1,1-0.1,1.3c0,0.6-0.1,1.1-0.1,1.6h3.5c0.4,0,0.7,0,1.1-0.1L134.9,157.3z M138.4,166.1
	c1.3-1,2.3-2.3,2.8-3.9c0.4-2.1,0.6-4.2,0.5-6.4c0-0.4,0-0.9-0.1-1.3h1.9c0,0.1-0.1,0.7-0.1,1.3c0.1,2.3-0.1,4.6-0.5,6.8
	c-0.5,1.7-1.5,3.3-2.9,4.5L138.4,166.1z M145.7,166.3c0.1-0.3,0.1-0.7,0.1-1v-9.5c0-0.4,0-0.9-0.1-1.3h1.9c-0.1,0.4-0.1,0.9-0.1,1.3
	v8.9c1.7-0.8,3.2-2.1,4.4-3.7l1,1.4c-1.5,1.8-3.3,3.3-5.4,4.4c-0.2,0.1-0.4,0.2-0.6,0.4L145.7,166.3z M167.2,158.7
	c0.4,0,0.9,0,1.3-0.1v1.6H163c0,1.5-0.4,2.9-1,4.3c-0.8,1.3-1.9,2.3-3.2,3l-1.5-1.1c1.2-0.5,2.3-1.3,3-2.4c0.7-1.1,1-2.5,1-3.8h-6.1
	v-1.6c0.5,0.1,1,0.1,1.5,0.1L167.2,158.7z M158.7,156.2c-0.5,0-1.1,0-1.6,0.1v-1.6c0.5,0.1,1,0.1,1.6,0.1h6.4c0.5,0,1.1,0,1.6-0.1
	v1.6c-0.5,0-1.1-0.1-1.6-0.1H158.7z"/>
<path class="st3" d="M72.2,186.5c0-2.8,2.2-5,5-5s5,2.2,5,5s-2.2,5-5,5S72.2,189.3,72.2,186.5z"/>
<path class="st2" d="M280,154.7c0-2.7,1.1-5.3,3-7.2l1.1,0.5c-3.7,3.6-3.7,9.5-0.1,13.2c0,0,0,0,0.1,0.1l-1.1,0.5
	C281.1,160,280,157.4,280,154.7L280,154.7z M290.7,148.3c-0.4,1.1-0.9,2.1-1.5,3.1v10.2h-1.4v-8.1c-0.5,0.6-1,1.2-1.5,1.7
	c-0.2-0.5-0.5-1-0.8-1.4c1.7-1.7,3.1-3.7,3.9-5.9L290.7,148.3z M295.4,155.5v4.3h3.8v1.3h-8.9v-1.3h3.7v-4.3h-4.3v-1.4h4.3v-3.7
	c-1.1,0.2-2.3,0.4-3.4,0.5c-0.1-0.4-0.2-0.8-0.4-1.2c2.6-0.3,5.2-0.8,7.7-1.6l1,1.2c-1.1,0.4-2.3,0.7-3.5,0.9v3.9h4v1.4L295.4,155.5
	z M301,160.5c0.9-0.6,1.6-1.5,2-2.5l1.1,0.4c-0.4,1.2-1.1,2.2-2.1,2.9L301,160.5z M314.3,152.3h-12.9v-1.1h3.4
	c-0.1-0.4-0.3-0.9-0.5-1.3l0.4-0.1h-2.5v-1.1h5v-0.9h1.4v0.9h5v1.1h-2.4l0.4,0.1c-0.3,0.5-0.5,0.9-0.7,1.3h3.5L314.3,152.3z
	 M312.8,157.3h-5.3c0.7,0.3,1.4,0.7,2,1.2l-0.9,0.9c-0.7-0.6-1.6-1.1-2.5-1.5l0.6-0.6h-3.7V153h9.6L312.8,157.3z M311.3,154h-6.9
	v0.7h6.9V154z M311.3,155.6h-6.9v0.7h6.9V155.6z M309.3,160.3c0.6,0,0.7-0.2,0.8-1.4c0.4,0.2,0.8,0.4,1.2,0.4
	c-0.2,1.7-0.5,2.1-1.8,2.1h-2.6c-1.7,0-2.1-0.3-2.1-1.6v-1.8h1.4v1.8c0,0.4,0.1,0.4,0.9,0.4H309.3z M305.7,149.8
	c0.2,0.4,0.4,0.8,0.5,1.3l-0.3,0.1h3.7l-0.2-0.1c0.2-0.4,0.4-0.9,0.6-1.3H305.7z M312.1,157.8c1,0.8,1.9,1.7,2.6,2.7l-1.1,0.7
	c-0.7-1-1.5-2-2.5-2.7L312.1,157.8z M320.4,154.7c0,2.7-1.1,5.3-3,7.2l-1.1-0.5c3.7-3.6,3.7-9.5,0.1-13.2c0,0,0,0-0.1-0.1l1.1-0.5
	C319.4,149.4,320.4,152,320.4,154.7L320.4,154.7z M281.9,169.2c0.5,0,0.9,0,1.4-0.1v1.6h-3.5c0,2.2,0.1,5,0.1,6.9
	c0,0.9-0.5,1.4-1.5,1.4c-0.8,0-1.7-0.1-2.5-0.1l-0.1-1.6c0.7,0.1,1.4,0.2,2.1,0.2c0.4,0,0.5-0.2,0.5-0.6v-4.8
	c-1.7,2.2-3.9,4-6.4,5.4l-1.1-1.2c2.7-1.3,5-3.2,6.8-5.5h-6.1v-1.6c0.5,0.1,1,0.1,1.5,0.1h5.2v-1.3c0-0.5-0.1-0.9-0.1-1.4h1.7
	c-0.1,0.5-0.1,0.9-0.1,1.4v1.3L281.9,169.2z M289.9,167c0,0.3-0.1,0.7-0.1,1.1v5c0,0.4,0,0.9,0.1,1.2h-1.8c0-0.3,0.1-0.8,0.1-1.2v-5
	c0-0.3,0-0.8-0.1-1.1H289.9z M296.9,166.9c0,0.4-0.1,0.8-0.1,1.4v2.7c0,3.4-0.5,4.7-1.6,6c-1,1-2.2,1.8-3.6,2.2l-1.2-1.3
	c1.4-0.3,2.6-1,3.6-2c1-1.2,1.2-2.4,1.2-5v-2.6c0-0.5,0-0.9-0.1-1.4L296.9,166.9z M312.8,176.3c0.4,0,0.9,0,1.3-0.1v1.7
	c-0.4,0-1-0.1-1.3-0.1h-9.9c-0.4,0-0.9,0-1.4,0.1v-1.7c0.5,0.1,0.9,0.1,1.4,0.1h4v-6.6h-3.2c-0.3,0-0.9,0-1.3,0.1v-1.6
	c0.4,0,1,0.1,1.3,0.1h8.2c0.5,0,0.9,0,1.4-0.1v1.6c-0.4,0-0.9-0.1-1.4-0.1h-3.4v6.6H312.8z M323.5,175.2c2.2-1.4,4-3.3,5.2-5.6
	l0.9,1.6c-1.3,2.2-3.1,4.1-5.3,5.4c-1.8,1.1-3.7,1.9-5.8,2.2l-1-1.6C319.7,177,321.7,176.3,323.5,175.2z M323,170.4l-1.2,1.2
	c-1.2-1.2-2.4-2.2-3.8-3.2l1.1-1.2C320.5,168.2,321.8,169.2,323,170.4L323,170.4z M274.6,189c0.4,0,0.8,0,1.3-0.1v1.6
	c-0.4,0-0.9-0.1-1.3-0.1h-3.9c0,1.4-0.3,2.8-0.9,4c-0.7,1.2-1.8,2.2-3,2.8l-1.4-1c1.1-0.5,2.1-1.2,2.8-2.2c0.6-1.1,0.9-2.3,0.9-3.5
	h-4.3c-0.5,0-1,0-1.4,0.1v-1.6c0.5,0.1,0.9,0.1,1.4,0.1L274.6,189z M266.7,186.6c-0.5,0-1,0-1.5,0.1v-1.6c0.5,0.1,1,0.1,1.5,0.1h6
	c0.5,0,1,0,1.5-0.1v1.6c-0.5,0-1-0.1-1.5-0.1H266.7z M278.9,189.7c0.5,0.1,1.4,0.1,2.2,0.1h8.1c0.7,0,1.3-0.1,1.7-0.1v1.9
	c-0.3,0-1-0.1-1.7-0.1h-8.2c-0.8,0-1.7,0-2.2,0.1V189.7z M298.3,190.2l-0.9,1.3c-1.1-0.8-2.2-1.5-3.4-2.1l0.9-1.3
	C295.9,188.6,297.6,189.7,298.3,190.2L298.3,190.2z M299.9,193.7c2.4-1.3,4.4-3.2,5.8-5.6l0.9,1.6c-1.5,2.2-3.5,4-5.9,5.4
	c-1.6,0.9-3.3,1.5-5,1.9l-0.9-1.6C296.5,195.1,298.3,194.6,299.9,193.7L299.9,193.7z M300.6,186.9l-0.9,1.3
	c-0.8-0.6-2.4-1.6-3.3-2.1l0.9-1.3C298.2,185.3,299.9,186.4,300.6,186.9L300.6,186.9z M318.2,197.4v-0.6h-7.1v-1.5
	c0.4,0,0.8,0.1,1.3,0.1h5.9V193h-6.6v-1.4h6.6v-2.2H313c-0.5,0-1.4,0-1.7,0.1V188c0.3,0.1,1.2,0.1,1.7,0.1h6.8v9.3L318.2,197.4z
	 M331.1,193.2c2.2-1.4,4-3.3,5.2-5.6l0.9,1.6c-1.3,2.2-3.1,4.1-5.3,5.4c-1.8,1.1-3.7,1.9-5.8,2.2l-1-1.6
	C327.3,195,329.3,194.3,331.1,193.2z M330.6,188.4l-1.2,1.2c-1.2-1.2-2.4-2.2-3.8-3.2l1.1-1.2C328.2,186.2,329.4,187.2,330.6,188.4
	L330.6,188.4z"/>
<path class="st1" d="M808.1,231.2H683V116.1h125.1l36.9,57.5L808.1,231.2z"/>
<path class="st2" d="M734,154.7c0-2.7,1.1-5.3,3-7.2l1.1,0.5c-3.7,3.6-3.7,9.5-0.1,13.2c0,0,0,0,0.1,0.1l-1.1,0.5
	C735.1,160,734,157.4,734,154.7L734,154.7z M744.7,148.3c-0.4,1.1-0.9,2.1-1.5,3.1v10.2h-1.4v-8.1c-0.5,0.6-1,1.2-1.5,1.7
	c-0.2-0.5-0.5-1-0.8-1.4c1.7-1.7,3.1-3.7,3.9-5.9L744.7,148.3z M749.4,155.5v4.3h3.8v1.3h-8.9v-1.3h3.6v-4.3h-4.2v-1.4h4.2v-3.7
	c-1.1,0.2-2.3,0.4-3.4,0.5c-0.1-0.4-0.2-0.8-0.4-1.2c2.6-0.3,5.2-0.8,7.7-1.6l1,1.2c-1.1,0.4-2.3,0.7-3.5,0.9v3.9h4v1.4L749.4,155.5
	z M755,160.5c0.9-0.6,1.6-1.5,2-2.6l1.2,0.4c-0.4,1.2-1.1,2.2-2.1,2.9L755,160.5z M768.3,152.3h-12.8v-1.1h3.4
	c-0.1-0.4-0.3-0.9-0.5-1.3l0.3-0.1h-2.5v-1.1h5v-0.9h1.4v0.9h5v1.1h-2.4l0.4,0.1c-0.3,0.5-0.5,0.9-0.7,1.3h3.5L768.3,152.3z
	 M766.8,157.3h-5.2c0.7,0.3,1.4,0.7,2,1.2l-0.9,0.9c-0.7-0.6-1.6-1.1-2.4-1.5l0.6-0.6h-3.7V153h9.6L766.8,157.3z M765.4,154h-6.9
	v0.7h6.9V154z M765.4,155.6h-6.9v0.7h6.9V155.6z M763.4,160.3c0.6,0,0.7-0.2,0.8-1.4c0.4,0.2,0.8,0.4,1.2,0.4
	c-0.2,1.7-0.5,2.1-1.8,2.1h-2.6c-1.7,0-2.1-0.3-2.1-1.6v-1.8h1.3v1.8c0,0.4,0.1,0.4,0.9,0.4H763.4z M759.8,149.8
	c0.2,0.4,0.4,0.8,0.5,1.3l-0.3,0.1h3.7l-0.2-0.1c0.2-0.4,0.4-0.9,0.6-1.3H759.8z M766.2,157.8c1,0.8,1.9,1.7,2.6,2.7l-1.2,0.7
	c-0.7-1-1.5-2-2.5-2.7L766.2,157.8z M774.5,154.7c0,2.7-1.1,5.3-3,7.2l-1.1-0.5c3.7-3.6,3.7-9.5,0.1-13.2c0,0,0,0-0.1-0.1l1.1-0.5
	C773.4,149.4,774.5,152,774.5,154.7L774.5,154.7z M744.8,168.4c-0.1,0.3-0.2,0.5-0.2,0.8c-0.2,2-0.8,3.9-1.7,5.6
	c-1.4,2-3.4,3.5-5.7,4.3l-1.3-1.3c2.2-0.5,4.2-1.9,5.5-3.7c0.8-1.5,1.3-3.1,1.4-4.8H735v3.9h-1.7c0-0.4,0.1-0.8,0.1-1.1v-3.2
	c0-0.4,0-0.8-0.1-1.1c0.4,0,1,0.1,1.7,0.1h7.5c0.4,0,0.8,0,1.2-0.1L744.8,168.4z M748.2,171.7c0.5,0.1,1.4,0.1,2.2,0.1h8.2
	c0.7,0,1.3-0.1,1.7-0.1v1.9c-0.3,0-1-0.1-1.7-0.1h-8.2c-0.8,0-1.7,0-2.2,0.1L748.2,171.7z M775.3,169c-0.2,0.3-0.3,0.6-0.4,0.9
	c-0.5,1.9-1.4,3.6-2.6,5.1c-1.6,1.9-3.7,3.3-6,4.1l-1.4-1.2c2.3-0.6,4.4-1.9,6-3.8c1.1-1.3,1.9-2.8,2.3-4.4h-4.7
	c-1.1,1.4-2.3,2.7-3.8,3.7l-1.3-1c2-1.2,3.6-2.9,4.7-5c0.2-0.4,0.4-0.9,0.6-1.4l1.7,0.6c-0.3,0.4-0.6,1-0.8,1.3
	c-0.1,0.1-0.1,0.3-0.2,0.4h3.7c0.4,0,0.8,0,1.1-0.1L775.3,169z M729.4,190.2l-0.9,1.3c-1.1-0.8-2.2-1.5-3.3-2.1l0.8-1.3
	C727,188.6,728.7,189.7,729.4,190.2L729.4,190.2z M731,193.7c2.4-1.3,4.4-3.2,5.7-5.6l0.9,1.6c-2.5,3.7-6.4,6.3-10.8,7.3l-0.9-1.6
	C727.7,195.2,729.4,194.6,731,193.7L731,193.7z M731.7,186.9l-0.9,1.3c-0.8-0.6-2.4-1.6-3.3-2.1l0.8-1.3
	C729.3,185.3,731,186.4,731.7,186.9z M749.3,197.4c0-0.2,0-0.4,0-0.6h-7.1v-1.5c0.4,0,0.8,0.1,1.3,0.1h5.9V193h-6.6v-1.4h6.6v-2.2
	H744c-0.5,0-1.4,0-1.7,0.1V188c0.3,0.1,1.2,0.1,1.7,0.1h6.8v9.3L749.3,197.4z M759.7,191.8l-1.4,0.5c-0.4-1.2-0.8-2.3-1.4-3.4
	l1.4-0.5C758.6,189.1,759.4,191,759.7,191.8L759.7,191.8z M767.3,188.6c-0.1,0.4-0.2,0.6-0.3,0.9c-0.4,1.6-1.1,3.2-2.1,4.5
	c-1.3,1.6-3,2.9-4.9,3.6l-1.2-1.3c1.9-0.6,3.6-1.7,4.9-3.2c1.1-1.5,1.8-3.3,2-5.1L767.3,188.6z M763,190.9l-1.4,0.5
	c-0.3-1.1-0.7-2.2-1.2-3.3l1.4-0.5C762.1,188.3,762.8,190.2,763,190.9L763,190.9z M780.4,186c0.2,0,0.4,0,0.6,0c0-0.1,0-0.3,0-0.4
	c0-1,0.8-1.7,1.7-1.7c1,0,1.7,0.8,1.7,1.7c0,1-0.8,1.7-1.7,1.7c0,0,0,0,0,0c-0.1,0-0.3,0-0.4,0l-0.1,0.3c-0.4,1.9-1.2,3.8-2.3,5.4
	c-1.5,2-3.6,3.4-6,4.1l-1.3-1.4c2.3-0.5,4.4-1.7,5.9-3.6c1-1.4,1.6-2.9,1.9-4.6h-9v-1.7c0.5,0.1,1.1,0.1,1.6,0.1L780.4,186z
	 M783.6,185.6c0-0.5-0.4-0.9-0.9-0.9s-0.9,0.4-0.9,0.9s0.4,0.9,0.9,0.9S783.6,186.1,783.6,185.6z"/>
<path class="st1" d="M633.9,170.8H411.4v-54.7h222.5l36.9,27.4L633.9,170.8L633.9,170.8z M633.9,231.2H496.7v-54.7h137.2l36.9,27.4
	L633.9,231.2L633.9,231.2z"/>
<path class="st2" d="M484.9,128.6h3.4c2.3,0,3.9,0.7,3.9,2.7c0,1-0.6,2-1.6,2.4v0.1c1.3,0.2,2.2,1.3,2.2,2.6c0,2.2-1.8,3.2-4.2,3.2
	h-3.7V128.6z M488.1,133.2c1.7,0,2.4-0.6,2.4-1.7s-0.8-1.6-2.3-1.6h-1.5v3.3H488.1z M488.4,138.3c1.7,0,2.7-0.6,2.7-2
	s-1-1.8-2.7-1.8h-1.8v3.8L488.4,138.3z M495.2,128.6h3.4c2.3,0,3.9,0.7,3.9,2.7c0,1-0.6,2-1.6,2.4v0.1c1.3,0.2,2.2,1.3,2.2,2.6
	c0,2.2-1.8,3.2-4.2,3.2h-3.7V128.6z M498.4,133.2c1.7,0,2.4-0.6,2.4-1.7s-0.8-1.6-2.3-1.6h-1.5v3.3H498.4z M498.7,138.3
	c1.7,0,2.7-0.6,2.7-2s-1-1.8-2.7-1.8h-1.8v3.8L498.7,138.3z M507.7,130h-3.2v-1.5h8.2v1.5h-3.3v9.6h-1.7V130z M523.8,128
	c-0.1,0.3-0.2,0.7-0.2,1s-0.2,1.2-0.3,1.9c0.5,0,1-0.1,1.5-0.1c1.4,0,2.5,0.6,2.5,2.7c0.1,1.8-0.2,3.7-0.8,5.4
	c-0.4,0.9-1.3,1.4-2.3,1.3c-0.6,0-1.2-0.1-1.8-0.2l-0.3-1.6c0.6,0.2,1.2,0.3,1.8,0.3c0.5,0.1,1-0.2,1.2-0.7c0.5-1.4,0.7-2.9,0.7-4.3
	c0-1.3-0.6-1.5-1.5-1.5c-0.3,0-0.8,0-1.3,0.1c-0.6,2.8-1.7,5.5-3.1,8l-1.5-0.6c1.4-2.2,2.5-4.6,3.1-7.2l-1.6,0.2
	c-0.4,0.1-1,0.1-1.5,0.2l-0.2-1.6c0.5,0,1,0,1.4,0c0.5,0,1.3-0.1,2.1-0.1c0.2-1,0.3-2.1,0.4-3.2L523.8,128z M529.2,129.9
	c1,1.6,1.8,3.3,2.5,5l-1.5,0.7c-0.5-2-1.4-3.8-2.6-5.5l1.4-0.6L529.2,129.9c-0.3-0.8-0.7-1.5-1.2-2.1l1-0.4c0.4,0.7,0.8,1.4,1.2,2.1
	L529.2,129.9z M530.9,129.3c-0.3-0.7-0.8-1.4-1.2-2.1l1-0.4c0.5,0.6,0.9,1.3,1.2,2L530.9,129.3z M535.5,133.3c0,2.2-0.2,5.4-1.5,7.5
	c-0.3-0.3-0.7-0.6-1.1-0.8c1.1-1.9,1.2-4.7,1.2-6.7v-4.2h1.8c-0.3-0.5-0.6-1-1-1.4l1.2-0.6c0.5,0.5,0.9,1.1,1.2,1.7l-0.6,0.3h2.8
	c-0.2-0.6-0.5-1.1-0.8-1.7l1.2-0.4c0.4,0.5,0.8,1.1,1,1.8l-0.9,0.4h3.1l-0.4-0.1c0.5-0.6,1-1.3,1.3-2l1.4,0.4
	c-0.5,0.6-1,1.2-1.4,1.7h2.6v1.2h-11.2L535.5,133.3z M540.7,134v6.8h-1.1v-1.3c-1.4,0.2-2.8,0.3-3.9,0.4l-0.3-1.1
	c0.3,0,0.7,0,1.1-0.1V134h-0.6v-1h2.1v-1h-1.8v-1h4.9v1h-1.9v1h2.1v1L540.7,134z M539.6,134h-1.9v0.9h1.9V134z M537.6,136.7h1.9
	v-0.9h-1.9V136.7z M537.6,138.7l1.9-0.2v-0.9h-1.9V138.7z M546.2,133.3c-0.2,1.6-0.8,3.1-1.5,4.4c0.6,0.9,1.4,1.6,2.4,2
	c-0.3,0.3-0.6,0.7-0.8,1.1c-0.9-0.5-1.7-1.2-2.3-2c-0.7,0.8-1.5,1.5-2.4,2c-0.2-0.4-0.5-0.7-0.8-1c1-0.5,1.9-1.2,2.5-2.1
	c-0.4-0.8-0.8-1.6-1-2.5c-0.2,0.3-0.4,0.7-0.6,1c-0.3-0.3-0.6-0.6-0.9-0.9c0.9-1.4,1.5-3.1,1.7-4.8l1.2,0.2c-0.1,0.5-0.2,1-0.3,1.4
	h3.4v1.1L546.2,133.3z M543,133.6c0.2,1,0.6,2,1,2.9c0.5-1,0.8-2.1,1-3.2h-1.8L543,133.6z M551.5,137.6c0.7,1.1,1.9,1.5,3.5,1.6
	s5.3,0,7.2-0.1c-0.2,0.4-0.3,0.9-0.4,1.3c-1.8,0.1-5,0.1-6.8,0c-1.6,0.1-3.1-0.6-4.1-1.7c-0.6,0.6-1.2,1.2-1.9,1.9l-0.7-1.3
	c0.6-0.4,1.3-1,1.9-1.6v-3.6h-1.7v-1.3h3V137.6z M550.7,130.6c-0.6-1-1.3-1.8-2.1-2.5l1.1-0.7c0.8,0.7,1.6,1.5,2.2,2.5L550.7,130.6z
	 M562.1,136.6h-10v-1.1h2.6v-1.2h-2.1v-1h2.1v-1h1.4v1h2.1v-1h1.3v1h2.2v1h-2.2v1.2h2.6L562.1,136.6z M555.4,128.5h-3v-0.9h4.2v2.7
	h-2.8v0.6c0,0.3,0.1,0.4,0.5,0.4h1.4c0.3,0,0.4-0.1,0.4-0.7c0.3,0.2,0.6,0.3,1,0.4c-0.1,1-0.5,1.3-1.3,1.3h-1.7
	c-1.2,0-1.5-0.3-1.5-1.3v-1.5h2.8L555.4,128.5z M556.4,137c-0.9,0.8-1.9,1.4-3,1.9c-0.3-0.3-0.6-0.6-1-0.9c1-0.3,1.9-0.8,2.8-1.4
	L556.4,137z M555.9,135.5h2.1v-1.2H556L555.9,135.5z M560.2,128.5h-3v-0.9h4.2v2.7h-2.8v0.6c0,0.3,0.1,0.4,0.5,0.4h1.5
	c0.3,0,0.4-0.1,0.5-0.7c0.3,0.2,0.6,0.3,1,0.4c-0.1,1-0.5,1.3-1.3,1.3H559c-1.2,0-1.5-0.3-1.5-1.3v-1.5h2.8L560.2,128.5z M560.5,139
	c-0.8-0.7-1.7-1.3-2.6-1.7l1-0.6c1.1,0.5,2.1,1.1,3.1,1.8L560.5,139z M568.5,127.9c-0.1,0.6-0.1,1.1-0.2,1.7
	c-0.1,1.6-0.2,5.1-0.2,7.1c0,1.6,1,2.1,2.3,2.1c2.2,0,4.2-1.2,5.2-3.1l1.1,1.3c-1.4,2.1-3.8,3.3-6.3,3.3c-2.3,0-3.8-1-3.8-3.4
	c0-2.1,0.2-5.9,0.2-7.4c0-0.6,0-1.1-0.2-1.7L568.5,127.9z M587.5,130.9c-0.9,0.2-2,0.4-3,0.5c-0.1,0.6-0.3,1.3-0.5,1.9
	c-0.6,2.3-1.4,4.6-2.3,6.8l-1.7-0.6c1.1-2.1,1.9-4.4,2.5-6.7c0.1-0.4,0.3-0.9,0.4-1.4h-1.2c-0.7,0-1.2,0-1.8-0.1V130
	c0.6,0.1,1.2,0.1,1.8,0.1c0.5,0,1,0,1.5-0.1c0.1-0.4,0.2-0.8,0.2-1.1c0-0.4,0-0.9,0-1.3l1.8,0.1c-0.1,0.4-0.2,1-0.3,1.3l-0.2,0.9
	c0.9-0.1,1.8-0.3,2.7-0.5L587.5,130.9z M587,135.9c-0.1,0.4-0.2,0.9-0.2,1.3c0,0.7,0.4,1.3,2.3,1.3c1,0,2-0.1,3-0.3v1.5
	c-1,0.1-2,0.2-2.9,0.2c-2.4,0-3.7-0.8-3.7-2.3c0-0.6,0.1-1.2,0.2-1.9L587,135.9z M586.5,132.2c0.9-0.1,1.9-0.1,2.8-0.1
	c0.9,0,1.7,0,2.6,0.1v1.4c-0.8-0.1-1.7-0.2-2.5-0.2c-0.9,0-1.9,0-2.8,0.1L586.5,132.2z M487.5,156v1.3h-1.3v-11.2h4.1v9.9H487.5z
	 M487.5,147.3v3h1.5v-3H487.5z M489,154.7v-3.2h-1.6v3.2H489z M496,153.5c0.5,1.9,1.8,3.4,3.5,4.2c-0.4,0.3-0.7,0.7-0.9,1.1
	c-1.7-0.9-2.9-2.4-3.5-4.3c-0.8,2-2.4,3.5-4.4,4.2c-0.2-0.4-0.5-0.7-0.9-1c2.6-1,3.8-2.5,4.2-4.2h-3.4v-1.3h0.9v-4.9h2.8v-2.2h1.3
	v2.2h3v4.9h0.8v1.3L496,153.5z M494.3,152.3c0-0.5,0.1-0.9,0.1-1.4v-2.3h-1.6v3.6L494.3,152.3z M495.6,148.6v3.6h1.8v-3.7
	L495.6,148.6z M505,145.4c-0.3,1-0.7,2-1.2,3v10.4h-1.3v-7.9c-0.4,0.6-0.8,1.1-1.2,1.6c-0.2-0.5-0.4-1-0.7-1.5
	c1.4-1.8,2.5-3.8,3.1-5.9L505,145.4z M514.6,152.6c-0.7,0.6-1.5,1.2-2.3,1.7c0.5,1.1,1.4,2.1,2.5,2.8c-0.4,0.3-0.7,0.7-0.9,1.1
	c-2-1.3-3.2-3.8-3.9-6.8h-0.3c-0.3,0.2-0.6,0.4-0.9,0.6c2.4,2,2.4,5.3,1.3,6.3c-0.4,0.4-0.9,0.5-1.5,0.5h-1.1c0-0.4-0.1-0.8-0.3-1.2
	c0.5,0,0.9,0.1,1.2,0.1c0.3,0,0.6-0.1,0.8-0.3c0.4-0.4,0.6-1,0.4-1.6c-1.4,1.1-2.9,1.9-4.5,2.6c-0.2-0.4-0.5-0.7-0.8-1
	c1.8-0.6,3.5-1.5,5-2.7c-0.1-0.3-0.2-0.5-0.4-0.7c-1.1,0.8-2.4,1.5-3.7,2c-0.2-0.3-0.4-0.6-0.7-0.9c1.4-0.4,2.6-1,3.8-1.8
	c-0.2-0.2-0.4-0.4-0.5-0.5c-0.8,0.5-1.7,0.9-2.6,1.2c-0.2-0.3-0.5-0.6-0.8-0.9c1.2-0.3,2.4-0.8,3.5-1.5h-2.6v-2.1l-0.2,0.1
	c-0.3-0.3-0.6-0.6-1-0.8c1.3-0.9,2.4-2.1,3.1-3.6l1.3,0.2c-0.1,0.2-0.3,0.4-0.4,0.7h2.6l0.2-0.1l0.8,0.6c-0.3,0.5-0.6,1-1,1.5h3.2
	v3.4h-2.9c0.2,0.7,0.4,1.3,0.6,1.9c0.6-0.5,1.2-1,1.8-1.5L514.6,152.6z M506.6,150.4h2.4V149h-2.4V150.4z M507.5,147
	c-0.2,0.3-0.5,0.7-0.8,1h2.7c0.3-0.3,0.5-0.6,0.7-1H507.5z M512.8,149h-2.5v1.4h2.5V149z M516.2,147.5h5.1v1.1h-5.1V147.5z
	 M520.9,158.1H518v0.6h-1.2v-5h4.1L520.9,158.1z M520.9,150.7h-4v-1.1h4V150.7z M516.9,151.7h4v1.1h-4V151.7z M520.8,146.7H517v-1.1
	h3.9L520.8,146.7z M518,154.9v2h1.8v-2.2L518,154.9z M530.1,156.6h-0.8v1c0,0.6-0.1,0.9-0.6,1.1c-0.7,0.2-1.4,0.2-2.1,0.2
	c-0.1-0.4-0.2-0.7-0.3-1.1h1.5c0.2,0,0.2-0.1,0.2-0.3v-0.9h-4.6v2.3h-1.2v-2.3h-0.8v-1.2h0.8v-3.7h2.9v-0.7h-3.7v-1.1h2.1V149H522
	v-1h1.4v-0.8h-1.7v-1h1.7V145h1.3v1.2h2.1V145h1.3v1.2h1.8v1H528v0.8h1.5v1H528v0.8h2v1.1h-3.8v0.7h3v3.7h0.8L530.1,156.6z
	 M523.4,152.8v0.9h1.7v-0.9H523.4z M523.4,155.5h1.7v-0.9h-1.7V155.5z M524.7,148.1h2.1v-0.8h-2.1V148.1z M524.7,149.9h2.1V149h-2.1
	V149.9z M526.3,152.8v0.9h1.7v-0.9H526.3z M528,155.4v-0.9h-1.7v0.9H528z M534,150.6c0,2.3-0.2,5.8-1.4,8.1
	c-0.4-0.3-0.8-0.6-1.2-0.8c1.1-2.1,1.2-5.2,1.2-7.3v-4.1h5.5V145h1.5v1.5h5.5v1.3H534V150.6z M540.2,157.2h5v1.2H534v-1.2h4.9v-1.9
	H535v-1.2h3.9v-5.8h1.4v4.1c1.1-1,1.9-2.3,2-3.8l1.3,0.1c-0.1,0.6-0.2,1.2-0.5,1.8c0.8,0.6,1.6,1.3,2.3,2l-0.8,0.9
	c-0.6-0.6-1.2-1.3-1.9-1.9c-0.4,0.7-0.9,1.3-1.5,1.8c-0.2-0.3-0.5-0.5-0.8-0.7v1.4h4.1v1.2h-4.1L540.2,157.2z M537.5,148.7
	c-0.1,0.6-0.2,1.2-0.4,1.8c0.6,0.5,1.2,1.1,1.7,1.7l-0.8,0.9c-0.4-0.5-0.9-1-1.4-1.5c-0.4,0.7-0.9,1.4-1.5,1.9
	c-0.3-0.3-0.6-0.6-1-0.8c1.3-1,2-2.5,2.1-4.1L537.5,148.7z M553.4,156.7c0.4,0,0.9-0.1,1.3-0.2c2.1-0.3,3.6-2.1,3.6-4.2
	c0.1-2.1-1.5-3.9-3.6-4.1c-0.2,1.4-0.5,2.8-0.9,4.2c-0.9,3-2.1,4.7-3.6,4.7s-2.8-1.7-2.8-4.1c0.2-3.5,3.1-6.3,6.6-6.2
	c3-0.2,5.6,2.1,5.8,5.2c0,0.1,0,0.3,0,0.4c0,3.1-2,5.3-5.6,5.8L553.4,156.7z M552.4,152c0.4-1.2,0.7-2.5,0.8-3.8
	c-2.3,0.4-4.1,2.3-4.2,4.6c0,1.7,0.8,2.5,1.4,2.5S551.7,154.3,552.4,152L552.4,152z M567.4,154.5c-0.5-0.6-1-1.3-1.6-1.8v6.1h-1.4
	v-5.5c-0.6,0.6-1.2,1.1-1.9,1.6c-0.2-0.5-0.4-0.9-0.7-1.3c1.8-1.1,3.3-2.7,4.2-4.6h-3.7v-1.3h2.1V145h1.4v2.8h1.2l0.8,0.5
	c-0.4,1.1-1,2.1-1.7,3.1c0.7,0.6,1.8,1.7,2.1,2L567.4,154.5z M574.5,157.5c0.3,0,0.3-0.2,0.4-1.7c0.3,0.2,0.7,0.4,1.1,0.5
	c-0.1,1.9-0.5,2.4-1.4,2.4h-1.2c-1.2,0-1.4-0.4-1.4-1.6v-2.9h-1c-0.3,2.1-1,3.7-3.3,4.6c-0.2-0.4-0.5-0.8-0.8-1.1
	c1.6-0.4,2.8-1.9,2.8-3.6h-1.1v-8.4h6.4v8.4h-1.7v2.9c0,0.4,0,0.4,0.3,0.4H574.5z M569.9,148.2h3.8v-1.3h-3.8V148.2z M569.9,150.6
	h3.8v-1.3h-3.8V150.6z M569.9,153h3.8v-1.3h-3.8V153z M582.5,147v11.7h-1.3v-2.4l-3.7,0.5l-0.2-1.3l1-0.1V147h-0.7v-1.3h5.6v0.7h3.2
	v-1.4h1.3v1.4h3.3v1.2h-3.3v1.2h3.2v4.2h-4.2c0.8,0.4,1.5,1,2.1,1.6l-0.9,0.8c-0.6-0.7-1.4-1.3-2.2-1.8l0.8-0.6h-3.1v-4.2h3.1v-1.2
	h-3.2V147H582.5z M581.2,147h-1.7v1.9h1.7V147z M581.2,150h-1.7v2h1.7V150z M581.2,155v-2h-1.7v2.2L581.2,155z M582.5,157.5
	c0.6-0.9,1-1.9,1.2-3l1.1,0.3c-0.1,1.2-0.5,2.3-1.2,3.3L582.5,157.5z M585.5,149.9h-1.1v2h1.1V149.9z M587.9,157.4
	c0.3,0,0.4-0.1,0.4-1.4c0.3,0.2,0.7,0.4,1.1,0.5c-0.1,1.7-0.5,2.1-1.4,2.1h-1.4c-1.2,0-1.5-0.4-1.5-1.6v-2.6h1.2v2.6
	c0,0.4,0,0.4,0.4,0.4L587.9,157.4z M587.6,149.9h-1.1v2h1.1V149.9z M588.5,151.9h1.2v-2h-1.2V151.9z M589.8,154.3
	c0.7,1,1.3,2,1.6,3.2l-1.2,0.5c-0.3-1.2-0.8-2.3-1.5-3.2L589.8,154.3z M547.5,191.7c0.5,0,1,0,1.5-0.1v1.6h-3.8
	c-0.3,4.2-1.9,6.8-4.5,8.4l-1.6-1.1c0.5-0.2,0.9-0.4,1.3-0.8c2-1.6,3.2-4,3.2-6.6H540c-0.6,1.2-1.5,2.3-2.5,3.2l-1.5-0.9
	c1.1-0.9,1.9-2,2.6-3.2c0.4-0.7,0.6-1.4,0.8-2.1c0.1-0.4,0.2-0.9,0.3-1.3l1.8,0.4c-0.2,0.4-0.3,0.8-0.4,1.1s-0.3,0.8-0.5,1.3
	L547.5,191.7z M551.9,194.2c0.5,0,1.4,0.1,2.2,0.1h8.1c0.7,0,1.3-0.1,1.7-0.1v1.8c-0.3,0-1-0.1-1.7-0.1h-8.2c-0.8,0-1.7,0-2.2,0.1
	L551.9,194.2z M578,190.8c-0.2,0.2-0.3,0.5-0.4,0.8c-0.6,1.5-1.5,3-2.5,4.3c1.5,1.4,3,2.8,4.3,4.4l-1.3,1.2c-1.2-1.6-2.5-3-4-4.4
	c-1.6,1.8-3.6,3.3-5.8,4.3l-1.2-1.3c2.4-1,4.5-2.5,6.2-4.4c1-1.2,1.8-2.5,2.4-4h-5.5c-0.6,0-1.4,0.1-1.6,0.1v-1.7
	c0.3,0,1.2,0.1,1.6,0.1h5.6c0.4,0,0.9,0,1.3-0.1L578,190.8z M584.3,195c-0.8-0.6-1.7-1.1-2.6-1.5l0.8-1c0.9,0.4,1.8,0.8,2.7,1.4
	L584.3,195z M585.6,197.1c-0.7,1.6-1.6,3.4-2.3,4.8L582,201c0.9-1.6,1.8-3.2,2.5-4.8L585.6,197.1z M585,191.1
	c-0.8-0.7-1.7-1.2-2.6-1.6l0.8-1c1,0.4,1.8,0.9,2.6,1.5L585,191.1z M589.8,199.9c-1.1,0.9-2.3,1.7-3.6,2.3c-0.3-0.4-0.6-0.7-1-1
	c1.2-0.4,2.3-1,3.3-1.8L589.8,199.9z M594.6,199.3h-8V194h3.2v-0.9H587v-0.9h-1.2v-2.6h3.8v-1.3h1.4v1.3h4v2.6H594v0.9h-2.9v0.9h3.4
	L594.6,199.3z M587.2,190.8v1.1h6.7v-1.1H587.2z M587.9,196.1h2v-1h-2V196.1z M587.9,198.2h2v-1.1h-2V198.2z M593.3,195.1h-2.1v1
	h2.1V195.1z M593.3,197.1h-2.1v1.1h2.1V197.1z M592.3,199.2c1.1,0.6,2.1,1.3,3.2,2.1l-1.1,0.8c-1-0.8-2-1.5-3.1-2.1L592.3,199.2z
	 M601.2,193.3c-1.3,0.5-2.6,1.1-3.6,1.5l-0.5-1.1c1-0.3,2.5-0.9,4-1.4L601.2,193.3z M604.6,194.7c-0.2,0.4-0.4,0.8-0.6,1.1h4.8v6.2
	h-1.5v-0.6h-6.9v0.6h-1.4v-6.2h3.5c0.2-0.4,0.3-0.8,0.4-1.1c-0.1,0.1-0.2,0.2-0.3,0.2c-0.7,0.2-1.3,0.2-2,0.2
	c-0.1-0.3-0.2-0.7-0.4-1h1.3c0.2,0,0.2-0.1,0.2-0.2v-3.8h-4.5V189h5.8v4.9c0,0.2,0,0.4-0.1,0.6L604.6,194.7z M599.9,192.4
	c-0.6-0.5-1.2-1-1.9-1.4l0.7-0.8c0.7,0.3,1.4,0.8,1.9,1.3L599.9,192.4z M607.3,196.9h-6.9v1.2h6.9V196.9z M607.3,200.4v-1.2h-6.9
	v1.2H607.3z M603.8,193.4c1.1-0.3,2.6-0.9,4.1-1.4l0.2,1c-1.3,0.5-2.8,1-3.9,1.4L603.8,193.4z M610,193.9c0,0.6-0.1,0.9-0.6,1.1
	c-0.7,0.2-1.4,0.2-2.1,0.2c-0.1-0.4-0.2-0.7-0.4-1.1h1.5c0.2,0,0.2-0.1,0.2-0.2v-3.8h-4.5V189h5.9L610,193.9z M606.4,192.3
	c-0.6-0.5-1.3-1-2-1.4l0.7-0.8c0.7,0.3,1.4,0.8,2,1.3L606.4,192.3z M538.7,206.2h4.8v1.3h-3.4v8.4h-1.4V206.2z M551.8,218.9
	l-2.5-4.5h-1.8v4.5h-1.7v-11h3.6c2.3,0,4,0.8,4,3.2c0.1,1.5-0.9,2.8-2.3,3.2l2.7,4.7L551.8,218.9z M547.5,213h1.7
	c1.6,0,2.5-0.7,2.5-2s-0.9-1.8-2.5-1.8h-1.7V213z M558.1,209.3h-3.2v-1.4h8.2v1.4h-3.3v9.6h-1.7V209.3z M564.7,213.3
	c0-3.6,2-5.7,4.8-5.7s4.8,2.1,4.8,5.7s-2,5.8-4.8,5.8S564.7,216.9,564.7,213.3z M572.6,213.3c0-2.6-1.2-4.2-3-4.2s-3,1.6-3,4.2
	s1.2,4.3,3,4.3S572.6,215.9,572.6,213.3z M576.3,213.4c0-3.6,2.2-5.8,5-5.8c1.2,0,2.3,0.5,3.1,1.4l-0.9,1.1c-0.6-0.6-1.3-1-2.2-1
	c-1.9,0-3.2,1.6-3.2,4.2s1.2,4.2,3.2,4.2c0.9,0,1.8-0.4,2.5-1.2l0.9,1.1c-0.8,1-2.1,1.6-3.4,1.6C578.5,219.1,576.3,217,576.3,213.4
	L576.3,213.4z M586.2,217.4l1-1.2c0.8,0.8,1.8,1.3,2.9,1.3c1.3,0,2.1-0.6,2.1-1.6s-0.8-1.3-1.8-1.8l-1.5-0.7
	c-1.3-0.4-2.2-1.6-2.3-2.9c0-1.7,1.5-3,3.6-3c1.3,0,2.5,0.5,3.3,1.4l-0.9,1.1c-0.7-0.6-1.5-1-2.4-1c-1.1,0-1.9,0.5-1.9,1.4
	s0.9,1.3,1.8,1.7l1.5,0.6c1.3,0.4,2.3,1.6,2.3,3c0,1.8-1.5,3.2-3.9,3.2C588.6,219.1,587.2,218.5,586.2,217.4z M595.3,210.2
	c0.1-1.8,1.5-3.2,3.3-3.1c1.8,0.1,3.2,1.5,3.1,3.3c-0.1,1.7-1.5,3.1-3.2,3.1c-1.8,0-3.2-1.4-3.2-3.2
	C595.3,210.3,595.3,210.2,595.3,210.2z M601,210.2c-0.1-1.4-1.3-2.4-2.7-2.3c-1.4,0.1-2.4,1.3-2.3,2.7c0.1,1.3,1.2,2.3,2.5,2.3
	c1.4,0,2.5-1.2,2.4-2.5C601,210.3,601,210.2,601,210.2L601,210.2z M597.3,208.4h1.3c0.7,0,1.3,0.3,1.3,1.1c0,0.4-0.2,0.8-0.6,0.9
	l0.8,1.4h-0.8l-0.6-1.1h-0.6v1.1h-0.8V208.4z M598.5,210.1c0.4,0,0.7-0.2,0.7-0.5s-0.2-0.5-0.6-0.5h-0.4v1.1H598.5z M607.8,220.2
	H603v-1.3h3.4v-8.4h1.4L607.8,220.2z"/>
<path class="st4" d="M837.4,26.9v14.3L845,34C845,34,837.4,26.9,837.4,26.9z"/>
<path class="st5" d="M578.3,34H845"/>
<path class="st4" d="M229.7,34l7.6,7.1V26.9L229.7,34z"/>
<path class="st5" d="M499.7,34H235"/>
<path class="st6" d="M55,51.5h162v48.3H55V51.5z M231.9,51.5h162v48.3h-162V51.5z"/>
<path class="st2" d="M107.4,61.2c0,0.3-0.1,0.7-0.1,1.1v5c0,0.4,0,0.9,0.1,1.2h-1.8c0-0.3,0.1-0.8,0.1-1.2v-5c0-0.3,0-0.8-0.1-1.1
	H107.4z M114.4,61.1c0,0.4-0.1,0.8-0.1,1.4v2.7c0,3.4-0.5,4.7-1.7,6c-1,1-2.2,1.8-3.6,2.2l-1.3-1.3c1.4-0.3,2.7-1,3.6-2
	c1.1-1.2,1.3-2.3,1.3-5v-2.5c0-0.5,0-0.9-0.1-1.4H114.4z M132,62.4c-0.1,0.2-0.4,0.5-0.5,0.6c-1,1.6-2.2,3-3.7,4.1l-1.2-1
	c1.2-0.8,2.3-1.8,3.1-3.1h-8.2c-0.6,0-1.1,0-1.8,0.1v-1.7c0.6,0.1,1.2,0.1,1.8,0.1h8.4c0.4,0,0.8,0,1.3-0.1L132,62.4z M125.9,64.4
	c0,3.9-0.2,6.8-4.2,8.8l-1.4-1.1c0.5-0.2,1-0.4,1.4-0.7c2.2-1.4,2.5-3.3,2.5-5.8c0-0.4,0-0.8-0.1-1.2H125.9z M134,72.1
	c1.2-0.9,2.1-2.2,2.6-3.7c0.4-2,0.5-4,0.4-6c0-0.4,0-0.8-0.1-1.2h1.7c0,0.1-0.1,0.7-0.1,1.2c0.1,2.1-0.1,4.3-0.5,6.4
	c-0.4,1.6-1.4,3.1-2.7,4.2L134,72.1z M140.9,72.2c0.1-0.3,0.1-0.6,0.1-0.9v-8.9c0-0.4,0-0.8-0.1-1.2h1.7c0,0.4-0.1,0.8-0.1,1.2v8.3
	c1.6-0.8,3-2,4.1-3.4l0.9,1.3c-1.4,1.7-3.1,3.1-5.1,4.1c-0.2,0.1-0.4,0.2-0.6,0.4L140.9,72.2z M152.9,68.5c0-2.8,1.9-4.3,3.9-4.3
	s3.9,1.6,3.9,4.3s-1.8,4.3-3.9,4.3c-2.2-0.1-4-1.9-3.9-4.1C152.9,68.6,152.9,68.5,152.9,68.5z M158.9,68.5c0-1.8-0.8-2.9-2.1-2.9
	s-2.1,1.2-2.1,2.9s0.8,2.9,2.1,2.9S158.9,70.2,158.9,68.5z M163,64.3h1.4l0.1,1.5h0.1c0.4-1,1.3-1.6,2.3-1.7c0.3,0,0.6,0,0.9,0.2
	l-0.3,1.5c-0.3-0.1-0.5-0.1-0.8-0.1c-0.7,0-1.5,0.5-2,1.8v5.1H163V64.3z M109.2,81.4c0.5,0,0.9,0,1.4-0.1v1.6h-3.5
	c0,2.2,0.1,5,0.1,6.9c0,0.9-0.5,1.3-1.5,1.3c-0.8,0-1.7,0-2.5-0.1l-0.1-1.6c0.7,0.1,1.3,0.2,2,0.2c0.4,0,0.6-0.2,0.6-0.6v-4.8
	c-1.7,2.2-3.9,4-6.4,5.4l-1.1-1.2c2.7-1.3,5-3.2,6.8-5.6h-6.1v-1.6c0.5,0.1,1,0.1,1.5,0.1h5.2v-1.3c0-0.5-0.1-0.9-0.1-1.4h1.7
	c-0.1,0.5-0.1,0.9-0.1,1.4v1.3H109.2z M120.3,87.3c2.2-1.4,4-3.3,5.2-5.7l0.9,1.6c-1.3,2.2-3.1,4.1-5.3,5.4
	c-1.8,1.1-3.7,1.9-5.7,2.3l-1-1.6C116.4,89.2,118.5,88.4,120.3,87.3z M119.7,82.5l-1.2,1.2c-1.2-1.2-2.4-2.2-3.8-3.2l1.1-1.2
	C117.3,80.3,118.5,81.4,119.7,82.5z M141,83.4c-0.1,0.2-0.2,0.3-0.2,0.5c-0.4,1.6-1.2,3-2.2,4.2c-1.4,1.6-3.3,2.7-5.4,3.2l-1.1-1.3
	c2-0.4,3.8-1.3,5.3-2.7c0.8-0.9,1.4-1.9,1.7-3h-7.6c-0.4,0-1,0-1.6,0.1v-1.6c0.6,0.1,1.1,0.1,1.6,0.1h7.6c0.3,0,0.7,0,1-0.1
	L141,83.4z M131.1,79.3c0.5,0.1,1,0.1,1.4,0.1h5.9c0.5,0,1,0,1.5-0.1v1.6h-8.8V79.3z M152.1,89.4c0,0.6,0,1.2,0.1,1.8h-1.9
	c0.1-0.6,0.1-1.2,0.1-1.8V84c-1.7,0.9-3.5,1.7-5.4,2.2l-0.9-1.4c2.4-0.6,4.7-1.5,6.8-2.7c1.5-0.9,2.8-2,3.9-3.4l1.3,1.2
	c-1.2,1.2-2.6,2.3-4,3.2V89.4z M166.1,87.3c2.2-1.4,4-3.3,5.2-5.7l0.9,1.6c-1.3,2.2-3.1,4.1-5.3,5.4c-1.8,1.1-3.7,1.9-5.7,2.3
	l-1-1.6C162.3,89.2,164.4,88.4,166.1,87.3L166.1,87.3z M165.6,82.5l-1.2,1.2c-1.2-1.2-2.4-2.2-3.8-3.2l1.1-1.2
	C163.2,80.3,164.4,81.4,165.6,82.5z M294.1,69.2c0,0.3-0.1,0.7-0.1,1.1v5c0,0.4,0,0.9,0.1,1.2h-1.8c0-0.3,0.1-0.8,0.1-1.2v-5
	c0-0.3,0-0.8-0.1-1.1H294.1z M301,69.1c0,0.4-0.1,0.8-0.1,1.4v2.7c0,3.4-0.5,4.7-1.6,6c-1,1-2.2,1.8-3.6,2.2l-1.2-1.3
	c1.4-0.3,2.6-1,3.6-2c1-1.2,1.2-2.3,1.2-5v-2.5c0-0.5,0-0.9-0.1-1.4L301,69.1z M318.6,70.4c-0.1,0.2-0.4,0.4-0.5,0.6
	c-1,1.6-2.2,3-3.7,4.1l-1.3-1c1.3-0.8,2.3-1.8,3.1-3.1H308c-0.6,0-1.1,0.1-1.8,0.1v-1.7c0.6,0.1,1.2,0.1,1.8,0.1h8.4
	c0.4,0,0.8,0,1.3-0.1L318.6,70.4z M312.6,72.4c0,3.9-0.2,6.8-4.2,8.8l-1.4-1.1c0.5-0.2,1-0.4,1.4-0.7c2.2-1.4,2.6-3.3,2.6-5.8
	c0-0.4,0-0.8-0.1-1.2H312.6z M320.6,80.1c1.2-0.9,2.1-2.2,2.6-3.7c0.4-2,0.5-4,0.4-6c0-0.4,0-0.8-0.1-1.2h1.7
	c-0.1,0.4-0.1,0.8-0.1,1.2c0.1,2.1-0.1,4.3-0.5,6.4c-0.4,1.6-1.4,3.1-2.7,4.2L320.6,80.1z M327.5,80.2c0.1-0.3,0.1-0.6,0.1-0.9v-8.9
	c0-0.4,0-0.8-0.1-1.2h1.7c-0.1,0.4-0.1,0.8-0.1,1.2v8.3c1.6-0.8,3-2,4.1-3.4l0.9,1.3c-1.4,1.7-3.1,3.1-5.1,4.1
	c-0.2,0.1-0.4,0.2-0.6,0.4L327.5,80.2z"/>
<path class="st6" d="M683,51.5h162v48.3H683V51.5z"/>
<path class="st2" d="M747.3,70.2c0,0.3-0.1,0.7-0.1,1.1v5c0,0.4,0,0.9,0.1,1.2h-1.8c0-0.3,0.1-0.8,0.1-1.2v-5c0-0.3,0-0.8-0.1-1.1
	H747.3z M754.3,70.1c0,0.4-0.1,0.8-0.1,1.4v2.7c0,3.4-0.5,4.7-1.7,6c-1,1-2.2,1.8-3.6,2.2l-1.3-1.3c1.4-0.3,2.7-1,3.6-2
	c1-1.2,1.3-2.3,1.3-5v-2.5c0-0.5,0-0.9-0.1-1.4L754.3,70.1z M771.9,71.4c-0.1,0.2-0.4,0.4-0.5,0.6c-1,1.6-2.2,3-3.7,4.1l-1.2-1
	c1.2-0.8,2.3-1.8,3.1-3.1h-8.2c-0.6,0-1.1,0.1-1.8,0.1v-1.7c0.6,0.1,1.2,0.1,1.8,0.1h8.4c0.4,0,0.8,0,1.3-0.1L771.9,71.4z
	 M765.8,73.4c0,3.9-0.2,6.8-4.2,8.8l-1.4-1.1c0.5-0.2,1-0.4,1.4-0.7c2.2-1.4,2.5-3.3,2.5-5.8c0-0.4,0-0.8-0.1-1.2H765.8z
	 M773.9,81.1c1.2-0.9,2.1-2.2,2.6-3.7c0.4-2,0.5-4,0.4-6c0-0.4,0-0.8-0.1-1.2h1.7c0,0.1-0.1,0.7-0.1,1.2c0.1,2.1-0.1,4.3-0.5,6.4
	c-0.4,1.6-1.4,3.1-2.7,4.2L773.9,81.1z M780.8,81.2c0.1-0.3,0.1-0.6,0.1-0.9v-8.9c0-0.4,0-0.8-0.1-1.2h1.7c0,0.4-0.1,0.8-0.1,1.2
	v8.3c1.6-0.8,3-2,4.1-3.4l0.9,1.3c-1.4,1.7-3.1,3.1-5.1,4.1c-0.2,0.1-0.4,0.2-0.6,0.4L780.8,81.2z"/>
<path class="st6" d="M408.8,51.5h259.4v48.3H408.8V51.5z"/>
<path class="st2" d="M469.9,65c0.5,0,0.9,0,1.4-0.1v1.6h-3.5c0,2.2,0.1,5,0.1,6.9c0,0.9-0.5,1.3-1.5,1.3c-0.8,0-1.7,0-2.5-0.1
	l-0.1-1.6c0.7,0.1,1.4,0.2,2.1,0.2c0.4,0,0.5-0.2,0.5-0.6v-4.8c-1.8,2.2-3.9,4-6.4,5.3l-1.1-1.2c2.7-1.3,5-3.2,6.8-5.5h-6.1v-1.6
	c0.5,0.1,1,0.1,1.5,0.1h5.2c0-0.5,0-0.9,0-1.3c0-0.5-0.1-0.9-0.1-1.4h1.7c-0.1,0.5-0.1,0.9-0.1,1.4V65L469.9,65z M480.9,70.9
	c2.2-1.4,4-3.3,5.2-5.7l0.9,1.6c-1.3,2.2-3.1,4.1-5.3,5.4c-1.8,1.1-3.7,1.9-5.7,2.2l-1-1.6C477.1,72.7,479.1,72,480.9,70.9z
	 M480.4,66.1l-1.2,1.2c-1.2-1.2-2.4-2.2-3.8-3.2l1.1-1.2C477.9,63.9,479.2,65,480.4,66.1z M500.7,66.9c0.4,0,0.8,0,1.3-0.1v1.6h-5.1
	c0,1.4-0.3,2.8-0.9,4c-0.7,1.2-1.8,2.2-3,2.8l-1.4-1c1.1-0.5,2.1-1.2,2.8-2.2c0.6-1.1,0.9-2.3,0.9-3.5h-5.7v-1.6
	c0.5,0.1,0.9,0.1,1.4,0.1H500.7z M492.8,64.5c-0.5,0-1.1,0-1.5,0.1V63c0.5,0.1,1,0.1,1.5,0.1h5.1c0.5,0,1,0,1.5-0.1v1.5
	c-0.5,0-1-0.1-1.5-0.1H492.8z M500.4,64.4c-0.3-0.7-0.7-1.4-1.2-2.1l1-0.4c0.4,0.7,0.8,1.4,1.2,2.1L500.4,64.4z M501.9,61.3
	c0.5,0.6,0.9,1.3,1.2,2l-1,0.4c-0.4-0.7-0.8-1.4-1.2-2.1L501.9,61.3z M517.8,64.7c-0.2,0.2-0.3,0.3-0.4,0.5c-1.4,2.3-3.2,4.3-5.3,6
	c0.9,0.9,1.9,1.9,2.5,2.7l-1.4,1.1c-0.9-1.1-1.8-2.2-2.8-3.2c-1.1-1-2.2-2-3.3-2.9l1.2-1c0.6,0.4,1.7,1.3,2.7,2.2
	c1.7-1.3,3.2-3,4.3-4.8h-8.4c-0.6,0-1.3,0.1-1.6,0.1v-1.7c0.5,0.1,1.1,0.1,1.6,0.1h8.7c0.4,0,0.8,0,1.2-0.1L517.8,64.7z M526.8,70.9
	c2.2-1.4,4-3.3,5.2-5.7l0.9,1.6c-1.3,2.2-3.1,4.1-5.3,5.4c-1.8,1.1-3.7,1.9-5.8,2.2l-1-1.6C523,72.7,525,72,526.8,70.9L526.8,70.9z
	 M526.3,66.1l-1.2,1.2c-1.2-1.2-2.4-2.2-3.8-3.2l1.1-1.2C523.8,63.9,525.1,65,526.3,66.1L526.3,66.1z M540.3,66.7
	c2.2,0.7,4.3,1.5,6.3,2.4l-0.7,1.6c-1.8-0.9-3.7-1.7-5.7-2.3V73c0,0.5,0,1.4,0.1,1.9h-1.8c0.1-0.6,0.1-1.3,0.1-1.9v-8.7
	c0-0.6,0-1.1-0.1-1.7h1.8c0,0.5-0.1,1.1-0.1,1.7L540.3,66.7z M544.6,65.9c-0.4-0.8-0.8-1.6-1.3-2.3l1-0.4c0.5,0.7,1,1.5,1.4,2.3
	L544.6,65.9z M546.5,65.1c-0.4-0.8-0.9-1.5-1.4-2.3l1-0.5c0.5,0.7,1,1.4,1.4,2.2L546.5,65.1z M550.2,64.1h5v1.1h-5V64.1z
	 M554.9,74.7H552v0.6h-1.2v-5h4.1L554.9,74.7z M554.8,67.3h-4v-1.1h4V67.3z M550.8,68.3h4v1h-4V68.3z M554.8,63.3h-3.9v-1.1h3.9
	L554.8,63.3z M552,71.4v2.2h1.8v-2.2H552z M564,73.1h-0.8v1c0,0.6-0.1,0.9-0.6,1.1c-0.7,0.2-1.4,0.2-2.1,0.2
	c-0.1-0.4-0.2-0.7-0.3-1.1h1.5c0.2,0,0.2-0.1,0.2-0.3v-0.9h-4.6v2.3h-1.2v-2.3h-0.8V72h0.8v-3.8h2.9v-0.7h-3.7v-1.1h2.1v-0.8H556v-1
	h1.4v-0.8h-1.7v-1h1.7v-1.2h1.3v1.2h2.1v-1.2h1.3v1.2h1.8v1H562v0.8h1.5v1H562v0.8h2v1.1h-3.8v0.7h3V72h0.8V73.1z M557.3,69.2v0.9
	h1.7v-0.9H557.3z M557.3,72h1.7v-1h-1.7L557.3,72z M558.6,64.6h2.1v-0.8h-2.1V64.6z M558.6,66.4h2.1v-0.8h-2.1V66.4z M560.2,69.2
	v0.9h1.7v-0.9H560.2z M561.9,72v-1h-1.7v1H561.9z M578,71.6c-0.5,0.7-1.2,1.3-1.9,1.7c0.4,0.4,1,0.7,1.6,0.7c0.4,0,0.5-0.3,0.6-1.3
	c0.3,0.2,0.6,0.4,1,0.5c-0.2,1.6-0.6,2-1.7,2c-1,0-2-0.5-2.7-1.3c-1,0.5-2.1,1-3.2,1.3c-0.2-0.4-0.4-0.8-0.7-1.1
	c1.1-0.2,2.2-0.6,3.2-1.1c-0.4-0.6-0.7-1.3-0.9-2h-3.2v0.8l2.5-0.2v1l-2.5,0.2V74c0,0.7-0.2,1-0.7,1.1c-0.8,0.2-1.6,0.2-2.3,0.2
	c-0.1-0.4-0.2-0.7-0.4-1.1c0.6,0,1.2,0,1.7,0c0.2,0,0.3-0.1,0.3-0.3V73l-3,0.2l-0.1-1.1c0.8,0,1.9-0.1,3.1-0.2v-0.9h-3.1V70h3.1
	v-0.8c-0.9,0.1-1.7,0.2-2.5,0.2c-0.1-0.3-0.2-0.6-0.3-0.9c1.9-0.1,3.8-0.3,5.6-0.7l0.8,0.8c-0.7,0.2-1.4,0.3-2.3,0.4v1h3
	c-0.1-0.7-0.2-1.4-0.3-2.1h1.3c0,0.7,0.1,1.4,0.3,2.1h3c-0.7-0.6-1.6-1-2.4-1.4l0.8-0.8c0.9,0.3,1.7,0.8,2.5,1.3l-0.8,0.9h1.6v1
	h-4.3c0.1,0.5,0.4,0.9,0.6,1.3c0.5-0.3,1-0.8,1.4-1.3L578,71.6z M579,67.8h-13.2v-1.1h5.9v-0.8h-4.4v-1h4.4v-0.8h-5.2v-1h2.9
	c-0.2-0.4-0.4-0.8-0.7-1.1l1.2-0.4c0.4,0.4,0.8,0.9,1,1.5h-0.1h3.3c0.3-0.5,0.6-1,0.8-1.5l1.5,0.3c-0.3,0.4-0.6,0.8-0.8,1.2h2.9v1
	H573v0.8h4.5v1H573v0.8h6V67.8z M586,71c-0.5-0.6-1-1.2-1.6-1.8v6.1h-1.3v-5.4c-0.6,0.6-1.2,1.1-1.9,1.6c-0.2-0.5-0.4-0.9-0.7-1.3
	c1.8-1.1,3.3-2.7,4.2-4.6H581v-1.3h2v-2.8h1.4v2.8h1.2l0.8,0.5c-0.4,1.1-1,2.1-1.7,3.1c0.7,0.6,1.8,1.7,2.1,2L586,71z M593.1,74
	c0.3,0,0.3-0.2,0.4-1.7c0.3,0.2,0.7,0.4,1.1,0.5c-0.1,1.9-0.5,2.4-1.4,2.4H592c-1.2,0-1.4-0.4-1.4-1.6v-2.9h-1
	c-0.3,2.1-1,3.7-3.3,4.7c-0.2-0.4-0.5-0.8-0.8-1.1c1.6-0.4,2.8-1.9,2.8-3.6h-1.1v-8.4h6.4v8.4h-1.7v2.9c0,0.4,0,0.4,0.3,0.4
	L593.1,74z M588.5,64.7h3.8v-1.3h-3.8V64.7z M588.5,67.1h3.8v-1.3h-3.8V67.1z M588.5,69.5h3.8v-1.3h-3.8V69.5z M601.1,63.6v11.7
	h-1.2v-2.4c-1.3,0.2-2.7,0.3-3.7,0.5l-0.2-1.3l1-0.1v-8.4h-0.7v-1.3h5.6v0.7h3.2v-1.3h1.3v1.3h3.3v1.2h-3.3v1.2h3.2v4.2h-4.3
	c0.8,0.4,1.5,1,2.1,1.6l-0.9,0.8c-0.6-0.7-1.4-1.3-2.2-1.8l0.8-0.6H602v-4.2h3.1v-1.2h-3.2v-0.7L601.1,63.6z M599.9,63.6h-1.7v1.9
	h1.7V63.6z M599.9,66.6h-1.7v1.9h1.7V66.6z M599.9,71.6v-2h-1.7v2.2L599.9,71.6z M601.2,74.1c0.6-0.9,1-1.9,1.2-3l1.1,0.3
	c-0.1,1.2-0.5,2.3-1.2,3.3L601.2,74.1z M604.2,66.5h-1.1v2h1.1V66.5z M606.6,74c0.3,0,0.4-0.2,0.4-1.4c0.3,0.2,0.7,0.4,1.1,0.5
	c-0.1,1.7-0.5,2.1-1.4,2.1h-1.4c-1.2,0-1.5-0.4-1.5-1.6v-2.5h1.3v2.6c0,0.4,0,0.4,0.4,0.4L606.6,74z M606.3,66.5h-1.1v2h1.1V66.5z
	 M607.2,68.5h1.2v-2h-1.2V68.5z M608.5,71c0.7,1,1.3,2,1.6,3.2l-1.2,0.5c-0.3-1.2-0.8-2.3-1.5-3.2L608.5,71z M454.9,83.4
	c0.5,0,1,0,1.5-0.1v1.6h-2.9v0.5c0,3.9-0.9,6-4.4,7.6l-1.3-1.2c2.8-1,4.1-2.3,4.1-6.3v-0.6h-4v2.3c0,0.6,0,1.3,0.1,1.5h-1.6
	c0-0.2,0.1-0.8,0.1-1.5v-2.3h-3v-1.6c0.5,0.1,1,0.1,1.6,0.1h1.5v-1.7c0-0.5-0.1-1-0.1-1.2h1.7c-0.1,0.4-0.1,0.8-0.1,1.2v1.7h4v-1.7
	c0-0.4,0-0.9-0.1-1.3h1.7c-0.1,0.4-0.1,0.9-0.1,1.3v1.7L454.9,83.4z M466.9,91c0,0.6,0,1.2,0.1,1.8h-1.9c0-0.3,0.1-1.2,0.1-1.8v-5.4
	c-1.7,0.9-3.5,1.7-5.4,2.2l-0.9-1.4c2.4-0.6,4.7-1.5,6.8-2.7c1.5-0.9,2.8-2,3.9-3.4l1.3,1.2c-1.2,1.2-2.6,2.3-4,3.2L466.9,91z
	 M477.6,82l1.7,0.3c-0.1,0.4-0.2,0.9-0.3,1.3c-0.3,1.6-0.8,3.1-1.3,4.6c-0.6,1.5-1.3,2.9-2.2,4.2l-1.6-0.7c0.9-1.3,1.7-2.7,2.3-4.1
	C476.9,85.8,477.4,83.9,477.6,82z M481.4,82.3l1.5-0.5c0.6,1.1,1.6,3.3,2.2,4.8s1.4,3.8,1.8,5.2l-1.7,0.6c-0.4-1.8-1-3.5-1.6-5.2
	C483,85.5,482.2,83.9,481.4,82.3L481.4,82.3z M485.9,82.4l-1,0.4c-0.4-0.7-0.8-1.4-1.2-2.1l1-0.4C485.1,81,485.5,81.7,485.9,82.4
	L485.9,82.4z M487.6,81.8l-1,0.4c-0.4-0.7-0.8-1.4-1.2-2.1l1-0.4C486.8,80.4,487.2,81.1,487.6,81.8L487.6,81.8z M489.9,85.5
	c0.5,0,1.4,0.1,2.2,0.1h8.1c0.7,0,1.3-0.1,1.7-0.1v1.8c-0.3,0-1-0.1-1.7-0.1h-8.2c-0.8,0-1.7,0-2.2,0.1V85.5z M516,84.9
	c0.4,0,0.8,0,1.3-0.1v1.6h-5.1c0,1.4-0.3,2.8-0.9,4c-0.7,1.2-1.8,2.2-3,2.8l-1.4-1c1.1-0.5,2.1-1.2,2.8-2.2c0.6-1.1,0.9-2.3,0.9-3.5
	h-5.7v-1.6c0.5,0.1,0.9,0.1,1.4,0.1H516z M508.1,82.5c-0.5,0-1.1,0-1.5,0.1V81c0.5,0.1,1,0.1,1.5,0.1h5.1c0.5,0,1,0,1.5-0.1v1.5
	c-0.5,0-1-0.1-1.5-0.1H508.1z M515.7,82.4c-0.3-0.7-0.7-1.4-1.2-2.1l1-0.4c0.4,0.6,0.9,1.3,1.2,2L515.7,82.4z M517.1,79.3
	c0.5,0.6,0.9,1.3,1.2,2l-1,0.4c-0.4-0.7-0.8-1.4-1.2-2.1L517.1,79.3z M530.9,84.1c-1,1-2.2,1.9-3.4,2.7V92c0,0.5,0,1,0.1,1.4h-1.7
	c0-0.3,0.1-1,0.1-1.4v-4.3c-1.4,0.7-3,1.3-4.5,1.8l-0.8-1.4c1.8-0.4,3.6-1.1,5.3-2c1.4-0.8,2.8-1.9,3.9-3.1L530.9,84.1z M546.5,82.1
	c-0.2,0.2-0.3,0.5-0.4,0.8c-0.6,1.5-1.5,2.9-2.5,4.3c1.5,1.4,3,2.8,4.3,4.4l-1.3,1.2c-1.2-1.6-2.5-3-4-4.4c-1.6,1.8-3.6,3.2-5.8,4.3
	l-1.2-1.3c2.4-1,4.5-2.5,6.2-4.3c1-1.2,1.8-2.5,2.4-4h-5.5c-0.6,0-1.4,0.1-1.6,0.1v-1.7c0.5,0.1,1.1,0.1,1.6,0.1h5.6
	c0.4,0,0.9,0,1.3-0.2L546.5,82.1z M562.5,83.4c0,0.3-0.1,0.5-0.1,0.8c0,1.5-0.2,5.8-0.9,7.3c-0.3,0.7-1,1.1-1.7,1
	c-0.8,0-1.7-0.1-2.5-0.1l-0.2-1.6c0.7,0.1,1.5,0.2,2.2,0.2c0.4,0.1,0.7-0.2,0.8-0.5c0.5-1,0.7-4.4,0.7-6.1H557
	c-0.6,4.2-2,6.5-4.6,8.3l-1.4-1.1c0.6-0.3,1.2-0.8,1.7-1.3c1.6-1.6,2.6-3.7,2.8-5.9h-2.3c-0.6,0-1.3,0-1.8,0.1v-1.5
	c0.6,0,1.2,0.1,1.8,0.1h2.4c0-0.4,0-0.9,0-1.4c0-0.4,0-0.9-0.1-1.3h1.8c0,0.3-0.1,0.9-0.1,1.3c0,0.5,0,1-0.1,1.5h3.2
	c0.3,0,0.7,0,1-0.1L562.5,83.4z M570.2,87.6l-1.4,0.5c-0.4-1.2-0.8-2.3-1.4-3.4l1.4-0.5C569.1,84.9,569.9,86.8,570.2,87.6z
	 M577.8,84.4c-0.1,0.3-0.2,0.6-0.3,0.9c-0.4,1.6-1.1,3.2-2.1,4.5c-1.3,1.6-3,2.9-4.9,3.6l-1.3-1.3c1.9-0.5,3.6-1.6,4.9-3.1
	c1.1-1.5,1.8-3.3,2-5.1L577.8,84.4z M573.5,86.7l-1.4,0.5c-0.3-1.1-0.7-2.2-1.2-3.3l1.4-0.5C572.5,84,573.3,86,573.5,86.7z
	 M585.8,85.9l-0.8,1.3c-1.1-0.8-2.2-1.5-3.3-2.1l0.9-1.3C583.4,84.4,585.1,85.4,585.8,85.9z M587.3,89.5c2.4-1.3,4.4-3.2,5.8-5.6
	l0.9,1.6c-1.5,2.2-3.5,4-5.8,5.4c-1.6,0.9-3.3,1.5-5,1.9l-0.9-1.6C584,90.9,585.7,90.3,587.3,89.5L587.3,89.5z M588.1,82.6l-0.9,1.3
	c-0.8-0.6-2.4-1.6-3.3-2.1l0.9-1.3C585.7,81,587.4,82.1,588.1,82.6z M605.7,93.1v-0.6h-7.1v-1.4c0.4,0,0.8,0.1,1.3,0.1h5.9v-2.4
	h-6.6v-1.4h6.6v-2.2h-5.3c-0.5,0-1.4,0-1.7,0.1v-1.4c0.3,0.1,1.2,0.1,1.7,0.1h6.8v9.3L605.7,93.1z M618.6,88.9
	c2.2-1.4,4-3.3,5.2-5.7l0.9,1.6c-1.3,2.2-3.1,4.1-5.3,5.4c-1.8,1.1-3.7,1.9-5.8,2.2l-1-1.6C614.8,90.7,616.8,90,618.6,88.9z
	 M618.1,84.1l-1.2,1.2c-1.2-1.2-2.4-2.2-3.8-3.2l1.1-1.2C615.6,81.9,616.9,83,618.1,84.1L618.1,84.1z"/>
<g>
	<path class="st2" d="M92.2,192.6l-2.9-12h1.8l2.2,9.7l2.9-9.5h1.5l2.9,9.4l2.2-9.6h1.8l-2.8,12h-2l-2.8-8.9l-2.8,8.9H92.2z"/>
	<path class="st2" d="M112.2,192.4c-0.9,0.3-1.9,0.4-2.7,0.4c-3.2,0-4.3-1.9-4.3-4.2c0-3.1,1.6-4.9,4-4.9c2.4,0,3.5,1.5,3.5,3.7v1.4
		h-5.8c0.1,2.1,1.4,2.6,3.2,2.6c0.7,0,1.4-0.1,2.1-0.3V192.4z M111,187.4c0-1.8-0.8-2.3-1.9-2.3c-1.1,0-2,0.6-2.1,2.3H111z"/>
	<path class="st2" d="M115,179.8h1.7v4.5c0.7-0.4,1.4-0.7,2.3-0.7c2,0,3.7,1.3,3.7,4.2c0,3.4-2.1,4.9-4.7,4.9c-1,0-2.3-0.1-3.1-0.4
		V179.8z M117.9,191.4c1.6,0,3-0.9,3-3.3c0-2.4-1.3-3-2.5-3c-0.7,0-1.3,0.2-1.7,0.4v5.8H117.9z"/>
	<path class="st2" d="M127.2,192c0,0.8,0,1.2,0.1,1.8h-1.6c0.1-0.5,0.1-1.1,0.1-1.9V187c0-0.6,0-1,0-1.8c-0.5,0.9-0.8,1.3-1.3,1.9
		c-0.2-0.6-0.4-1-0.7-1.5c1.4-1.4,2.8-4.3,3.1-6.5l1.5,0.5c-0.1,0.3-0.1,0.3-0.3,0.8c-0.3,0.9-0.5,1.4-1,2.5V192z M128.6,181.8
		c0-0.8,0-1.3-0.1-1.7c0.3,0,1,0.1,1.6,0.1h6.3c0.9,0,1.3,0,1.7-0.1c0,0.4-0.1,0.8-0.1,1.9v9.7c0,1,0,1.5,0.1,2h-1.4v-0.7h-6.9v0.7
		h-1.4c0.1-0.4,0.1-1,0.1-1.9V181.8z M129.9,191.7h6.9v-10.2h-6.9V191.7z M134.4,186.2c0.4,0,0.9,0,1.3,0c0,0.2,0,0.5,0,1.2v2.1
		c0,0.7,0,1,0,1.2c-0.4,0-0.5,0-1.3,0h-2.1c-0.6,0-0.9,0-1.3,0c0-0.3,0-0.5,0-1.1v-2.2c0-0.7,0-0.9,0-1.1c0.4,0,0.7,0,1.3,0h0.4
		v-1.6h-1.2c-0.4,0-0.8,0-1.1,0.1v-1.4c0.3,0.1,0.6,0.1,1.1,0.1h1.2V183c0-0.6,0-0.9-0.1-1.2h1.4c0,0.2-0.1,0.7-0.1,1.2v0.4h1.3
		c0.6,0,0.8,0,1.1-0.1v1.4c-0.3,0-0.6-0.1-1.1-0.1h-1.3v1.6H134.4z M132.2,189.4h2.2v-2h-2.2V189.4z"/>
	<path class="st2" d="M143.9,187.9c-0.3,2.6-1.2,4.3-2.7,5.8c-0.3-0.6-0.5-0.8-1-1.2c1.8-1.5,2.5-3.5,2.5-7.5c-0.8,0-1.4,0-1.8,0.1
		c0-0.5,0.1-0.9,0.1-1.6v-1.9c0-0.8,0-1.1-0.1-1.6c0.3,0,1.1,0.1,1.9,0.1h3.1c0.9,0,1.5,0,1.9-0.1c0,0.5-0.1,0.9-0.1,1.6v2
		c0,0.8,0,1.2,0.1,1.6c-0.4,0-1-0.1-1.9-0.1h-1.8c0,0.8,0,1.1-0.1,1.7h2.2c0.6,0,1.2,0,1.5-0.1c0,0.3,0,0.5,0,1
		c0,2.6-0.2,4.4-0.5,5.1c-0.2,0.5-0.7,0.7-1.8,0.7c-0.4,0-0.7,0-1.5-0.1c0-0.5-0.1-1-0.3-1.5c0.8,0.1,1.2,0.2,1.7,0.2
		c0.5,0,0.6-0.1,0.7-0.5c0.1-0.8,0.2-2,0.2-3.7H143.9z M142.4,183.7h4v-2.5h-4V183.7z M150.8,180.3c-0.1,0.4-0.1,0.9-0.1,1.9v6
		c0,1,0,1.5,0.1,1.9h-1.6c0.1-0.4,0.1-0.8,0.1-1.8v-6c0-0.8,0-1.5-0.1-1.9H150.8z M154.3,179.5c-0.1,0.5-0.1,1.3-0.1,2.1v10.1
		c0,1.4-0.4,1.7-2.3,1.7c-0.4,0-0.8,0-1.5,0c-0.1-0.5-0.3-1.1-0.4-1.5c0.9,0.1,1.7,0.1,2.1,0.1c0.6,0,0.7-0.1,0.7-0.5v-10
		c0-0.7,0-1.6-0.1-2.1H154.3z"/>
	<path class="st2" d="M161.8,183.1c0.3-0.5,0.6-1.2,0.8-1.9h-4.2c-0.8,0-1.3,0-1.8,0.1v-1.5c0.4,0.1,1.1,0.1,1.8,0.1h10.4
		c0.6,0,1.4,0,1.8-0.1v1.5c-0.5-0.1-1-0.1-1.8-0.1h-4.6c-0.1,0.5-0.5,1.4-0.8,1.9h4.8c0.8,0,1.3,0,1.9-0.1c-0.1,0.5-0.1,1.1-0.1,2
		v6.8c0,0.8,0,1.6,0.1,2h-1.5V193h-10.1v0.8h-1.5c0.1-0.5,0.1-1.1,0.1-2V185c0-0.8,0-1.4-0.1-2c0.4,0,1.1,0.1,1.8,0.1H161.8z
		 M160.7,184.3h-2.1v7.5h2.1V184.3z M162,184.3v1.7h3.1v-1.7H162z M162,188.8h3.1v-1.6H162V188.8z M165.1,190H162v1.8h3.1V190z
		 M166.4,191.8h2.2v-7.5h-2.2V191.8z"/>
	<path class="st2" d="M172.4,182c0.3,0.1,0.7,0.1,1.3,0.1h3c0.7,0,0.9,0,1.3-0.1v1.4c-0.3,0-0.6-0.1-1.2-0.1h-3.1
		c-0.5,0-0.9,0-1.3,0.1V182z M172.9,193.7c0-0.3,0.1-1.1,0.1-1.5v-2.3c0-0.5,0-0.8-0.1-1.2c0.3,0,0.5,0,1,0h2.5c0.6,0,0.7,0,1,0
		c0,0.3,0,0.6,0,1.2v2.7c0,0.4,0,0.8,0,1h-1.2v-0.7h-1.9v0.8H172.9z M173,179.8c0.3,0.1,0.6,0.1,1.2,0.1h2c0.6,0,0.9,0,1.2-0.1v1.3
		c-0.3,0-0.7-0.1-1.2-0.1h-2c-0.5,0-0.9,0-1.2,0.1V179.8z M173,184.3c0.3,0,0.6,0,1,0h2.3c0.5,0,0.8,0,1,0v1.3c-0.3,0-0.5,0-1,0H174
		c-0.5,0-0.7,0-1,0V184.3z M173,186.5c0.2,0,0.5,0,1,0h2.3c0.5,0,0.8,0,1,0v1.3c-0.2,0-0.6,0-1,0H174c-0.4,0-0.8,0-1,0V186.5z
		 M174.3,191.7h1.9v-2h-1.9V191.7z M182.9,185.8c0,0.3-0.1,0.6-0.1,0.9c0,1.5,0.3,2.6,1.1,3.5c0.8,1,1.8,1.7,3.1,2.2
		c-0.3,0.4-0.5,0.8-0.8,1.4c-1.9-0.9-3.4-2.5-4-4.1c-0.5,1.8-1.9,3.3-4,4.2c-0.2-0.5-0.5-0.9-0.7-1.3c1.4-0.5,2.4-1.2,3-2.1
		c0.6-0.9,0.9-2.1,0.9-3.7c0-0.4,0-0.7,0-1H182.9z M182.9,179.5c0,0.3-0.1,0.6-0.1,0.9c0,1.3,0.3,2.3,0.8,3c0.4,0.5,0.9,1,1.6,1.4
		c0.4,0.3,0.8,0.4,1.5,0.7c-0.4,0.5-0.5,0.8-0.8,1.3c-1.8-0.8-3.2-2.2-3.8-3.7c-0.5,1.7-1.8,2.9-3.8,3.7c-0.2-0.5-0.5-0.8-0.8-1.2
		c1.1-0.4,1.6-0.6,2.2-1.2c1.1-1,1.6-2.2,1.6-4c0-0.3,0-0.6,0-0.9H182.9z M180.3,187.4c-0.3,1.2-0.7,2-1.2,2.8l-1.2-0.5
		c0.6-0.7,1-1.6,1.2-2.7L180.3,187.4z M180.4,180.6c-0.3,1.1-0.6,2-1.1,2.8l-1.2-0.5c0.6-0.8,0.9-1.6,1.1-2.6L180.4,180.6z
		 M186.4,180.7c-0.6,1.1-1.1,1.9-1.8,2.6c-0.4-0.3-0.8-0.5-1.1-0.7c0.7-0.8,1.2-1.5,1.6-2.5L186.4,180.7z M186.4,187.5
		c-0.6,1.1-1.1,1.9-1.7,2.6c-0.5-0.4-0.6-0.4-1.1-0.7c0.6-0.7,1.1-1.4,1.5-2.4L186.4,187.5z"/>
</g>
</svg>
